<?xml version="1.0" standalone="no"?>
<!DOCTYPE svg PUBLIC "-//W3C//DTD SVG 20010904//EN"
 "http://www.w3.org/TR/2001/REC-SVG-20010904/DTD/svg10.dtd">
<svg version="1.0" xmlns="http://www.w3.org/2000/svg"
 width="489.000000pt" height="512.000000pt" viewBox="0 0 489.000000 512.000000"
 preserveAspectRatio="xMidYMid meet">
<metadata>
Created by potrace 1.16, written by Peter Selinger 2001-2019
</metadata>
<g transform="translate(0.000000,512.000000) scale(0.100000,-0.100000)"
fill="#000000" stroke="none">
<path d="M4433 5101 c-37 -23 -48 -55 -39 -109 l6 -38 -619 -618 -618 -618
-22 35 c-11 19 -21 38 -21 43 0 5 288 297 640 649 352 353 640 647 640 653 0
25 -32 10 -97 -47 -38 -33 -326 -318 -642 -634 l-574 -575 -30 35 -30 34 586
588 c323 323 587 593 587 599 0 21 -28 13 -67 -20 -21 -17 -286 -279 -589
-581 l-552 -550 -36 28 -37 28 540 542 c298 298 541 547 541 553 0 21 -28 13
-67 -20 -21 -17 -268 -261 -549 -541 l-512 -509 -51 13 -51 13 515 516 c283
284 515 522 515 528 0 25 -32 10 -97 -47 -38 -33 -277 -269 -533 -525 l-465
-466 -65 0 -64 0 512 513 c282 283 512 519 512 525 0 21 -28 13 -67 -20 -21
-17 -278 -270 -570 -562 l-533 -531 -6 34 c-5 21 -14 36 -26 39 -17 4 -10 14
44 69 34 35 87 77 116 94 67 37 131 101 167 165 18 30 153 175 352 375 178
180 323 331 323 338 0 20 -29 11 -67 -21 -21 -17 -153 -146 -294 -285 l-255
-254 4 68 4 68 204 207 c112 114 204 211 204 217 0 41 -91 -32 -295 -238
l-129 -130 -18 46 -17 46 129 134 c72 73 130 138 130 143 0 19 -30 10 -67 -22
-21 -17 -79 -72 -129 -120 l-91 -89 -27 36 -27 35 70 77 c39 42 71 80 71 85 0
22 -37 2 -105 -57 -41 -36 -77 -65 -80 -65 -3 0 -21 10 -40 23 l-34 23 29 35
c16 19 29 37 30 42 1 16 -31 5 -63 -23 -39 -34 -38 -34 -107 -19 -38 8 -49 14
-41 22 31 31 -4 37 -42 7 -14 -11 -38 -20 -54 -20 -17 0 -52 -7 -78 -15 -27
-8 -51 -12 -54 -10 -2 3 6 16 19 30 27 28 22 40 -12 30 -24 -7 -1992 -1965
-2099 -2088 -57 -65 -72 -97 -47 -97 7 0 434 422 950 937 893 893 936 934 923
888 -8 -26 -15 -62 -15 -79 0 -28 -92 -123 -876 -906 -482 -481 -902 -905
-935 -943 -57 -65 -72 -97 -47 -97 7 0 427 414 934 921 l922 921 12 -52 13
-52 -915 -917 c-503 -504 -929 -933 -946 -954 -33 -39 -41 -67 -20 -67 7 0
438 425 958 945 l945 944 24 -41 23 -41 -949 -951 c-522 -523 -964 -968 -981
-989 -33 -39 -41 -67 -20 -67 7 0 456 444 999 986 l987 987 36 -29 36 -29 -92
-92 c-69 -70 -99 -93 -126 -98 -140 -26 -282 -165 -375 -365 -31 -68 -52 -92
-203 -241 -162 -160 -172 -168 -237 -189 -106 -34 -157 -90 -157 -172 0 -30
-34 -67 -381 -413 -209 -209 -407 -410 -440 -448 -57 -65 -72 -97 -47 -97 6 0
208 196 448 436 l437 435 32 -32 33 -32 -449 -451 c-247 -248 -464 -468 -481
-489 -33 -39 -41 -67 -20 -67 6 0 251 239 543 530 l531 530 64 0 64 0 -34 -35
c-27 -28 -42 -35 -72 -35 -37 0 -38 -1 -38 -38 0 -36 -17 -54 -476 -512 -262
-261 -502 -505 -535 -543 -57 -65 -72 -97 -47 -97 6 0 247 235 535 522 l523
522 0 -47 c0 -38 3 -47 17 -47 11 0 -199 -217 -503 -522 -286 -288 -535 -540
-552 -561 -33 -39 -41 -67 -20 -67 6 0 271 259 588 575 522 521 579 575 608
575 29 0 32 -3 32 -33 0 -29 -49 -81 -561 -592 -308 -308 -587 -590 -620 -628
-57 -65 -72 -97 -47 -97 6 0 285 273 618 606 461 459 609 602 614 589 3 -9 6
-35 6 -58 l0 -42 -566 -565 c-311 -311 -592 -595 -625 -633 -57 -65 -72 -97
-47 -97 6 0 290 278 630 617 l618 617 0 -64 0 -65 -571 -570 c-314 -314 -597
-600 -630 -638 -57 -65 -72 -97 -47 -97 6 0 292 280 635 622 l623 622 0 -64 0
-65 -217 -217 c-172 -170 -226 -219 -258 -228 -131 -41 -242 -148 -287 -278
-17 -52 -40 -78 -232 -272 -117 -118 -227 -232 -244 -253 -32 -38 -41 -67 -21
-67 6 0 113 101 238 225 l228 226 7 -58 7 -57 -214 -216 c-117 -118 -228 -232
-245 -253 -32 -38 -41 -67 -21 -67 6 0 120 108 253 240 l242 240 21 -43 21
-42 -268 -270 c-242 -245 -293 -305 -276 -322 3 -3 28 14 56 37 l51 43 -24
-54 c-13 -30 -32 -79 -42 -109 -10 -30 -23 -61 -29 -69 -5 -7 -11 -27 -12 -45
-1 -17 -5 -52 -9 -78 l-7 -48 166 0 c165 0 167 0 175 23 5 13 21 31 35 40 l26
17 0 -40 0 -40 1930 0 1930 0 0 74 c0 42 5 78 11 81 14 9 16 6 30 -48 12 -44
12 -48 -11 -72 -28 -29 -20 -43 15 -27 15 7 25 8 25 2 0 -6 71 -10 184 -10
l183 0 52 42 c89 73 166 178 131 178 -6 0 -56 -45 -111 -100 -55 -55 -101 -94
-103 -87 -3 6 -9 31 -14 54 l-9 41 64 64 c135 132 208 228 173 228 -5 0 -63
-52 -128 -115 -66 -63 -122 -115 -124 -115 -3 0 -11 21 -18 46 l-13 46 115
116 c63 64 129 134 146 155 32 37 41 67 22 67 -6 0 -77 -65 -158 -145 l-148
-144 -21 43 -21 43 92 92 c82 82 95 91 129 91 36 0 37 1 37 36 0 29 10 48 50
96 45 53 62 88 44 88 -4 0 -31 -20 -60 -45 -50 -43 -55 -45 -115 -45 l-64 0
91 92 c50 51 105 110 122 131 32 37 41 67 22 67 -6 0 -77 -65 -159 -145 -81
-80 -153 -145 -160 -145 -7 0 -11 20 -11 53 l0 52 111 110 c184 182 258 275
219 275 -6 0 -82 -70 -170 -156 l-160 -157 0 64 0 64 111 110 c184 182 258
275 219 275 -6 0 -82 -70 -170 -156 l-160 -157 0 64 0 64 111 110 c184 182
258 275 219 275 -6 0 -82 -70 -170 -156 l-159 -156 -3 54 -3 53 -29 -52 c-31
-56 -37 -61 -54 -40 -9 10 26 50 149 173 236 233 311 324 269 324 -6 0 -85
-73 -176 -163 l-166 -162 68 130 c59 113 80 143 167 235 97 101 127 143 114
157 -4 3 -33 -17 -65 -45 l-59 -51 65 122 64 122 -10 99 c-7 62 -7 106 -1 117
13 26 11 42 -5 36 -11 -5 -16 9 -21 58 -6 56 -5 67 14 91 34 43 26 71 -10 38
-17 -15 -18 -13 -24 23 -3 21 -8 48 -11 60 -2 14 8 35 31 63 32 38 45 70 29
70 -3 0 -20 -12 -38 -26 l-31 -27 -8 57 -8 58 45 55 c41 49 57 83 40 83 -3 0
-25 -16 -49 -35 l-42 -35 -7 31 c-12 63 -7 80 49 145 49 58 68 94 49 94 -4 0
-31 -21 -61 -46 -30 -26 -55 -45 -57 -43 -9 11 -14 109 -5 114 22 14 129 147
129 160 0 25 -12 18 -82 -45 l-66 -60 -7 57 -7 56 49 51 c76 79 113 125 113
141 0 26 -14 17 -92 -55 -83 -76 -84 -76 -90 2 -2 34 3 44 58 100 86 89 124
136 124 153 0 27 -16 16 -107 -70 l-90 -84 -7 56 -7 57 74 75 c40 42 88 93
105 114 31 37 41 67 23 67 -5 0 -54 -43 -109 -95 l-100 -95 -6 31 c-13 68 -8
83 50 139 125 122 198 220 165 220 -5 0 -59 -48 -120 -106 -69 -66 -112 -101
-115 -93 -2 8 -7 32 -10 54 -5 40 -4 43 65 110 142 139 215 235 179 235 -5 0
-65 -54 -133 -120 l-125 -120 -7 56 -7 57 109 111 c60 61 124 128 141 149 32
37 41 67 22 67 -5 0 -70 -59 -144 -131 l-135 -130 -6 38 c-3 21 -8 45 -9 54
-2 10 33 53 91 110 167 166 241 259 203 259 -6 0 -77 -65 -159 -145 l-148
-145 -6 58 -6 57 133 135 c73 74 147 152 164 173 32 37 41 67 22 67 -6 0 -82
-70 -169 -155 l-158 -155 -7 31 c-14 71 -11 76 124 216 72 73 130 138 130 143
0 19 -30 10 -67 -22 -21 -17 -75 -67 -119 -111 -50 -49 -84 -75 -88 -68 -4 6
9 27 30 46 35 33 37 37 31 85 -3 27 -2 52 4 55 19 12 8 24 -23 24 -18 0 -49 2
-68 6 -26 4 -44 0 -67 -14z m13 -198 c-2 -10 -7 -41 -11 -69 l-6 -50 -604
-604 c-332 -332 -606 -602 -608 -600 -2 3 -10 23 -19 45 l-15 40 626 628 c344
345 630 627 634 627 5 0 6 -8 3 -17z m-41 -279 l-12 -76 -565 -565 -565 -565
-13 52 -13 52 589 589 c324 324 589 589 590 589 0 0 -5 -34 -11 -76z m-36
-240 l-11 -71 -488 -488 -488 -488 -46 13 c-25 7 -46 15 -46 19 0 7 1083 1091
1087 1088 1 -2 -3 -34 -8 -73z m-34 -230 l-12 -76 -398 -398 -397 -397 -50 15
-49 16 458 458 c252 252 458 458 459 458 0 0 -5 -34 -11 -76z m-2173 -36 l-56
-58 -65 0 -65 0 73 74 73 73 49 -16 48 -16 -57 -57z m198 -3 c-40 -40 -62 -55
-82 -55 -23 0 -28 -5 -33 -34 -5 -24 -27 -53 -77 -102 l-70 -69 7 70 7 70 81
82 81 82 60 4 c34 2 65 4 71 5 5 1 -15 -23 -45 -53z m134 -266 c-48 -48 -70
-65 -72 -54 -3 13 -13 14 -55 9 l-52 -6 22 23 c12 13 42 32 65 43 31 15 44 28
46 46 2 14 25 47 50 73 l47 48 9 -56 9 -57 -69 -69z m1805 65 l-11 -71 -307
-307 -306 -306 -49 16 -48 17 363 363 c200 200 364 362 366 361 1 -2 -3 -34
-8 -73z m-2040 -49 l34 -17 -104 -104 c-57 -57 -105 -104 -108 -104 -2 0 -1
30 3 68 7 66 8 68 68 129 34 35 65 59 68 54 3 -4 20 -16 39 -26z m260 -191
c-35 -35 -66 -64 -70 -64 -3 0 -9 24 -12 52 l-7 53 68 68 67 68 9 -57 9 -56
-64 -64z m1746 10 l-12 -76 -239 -239 c-131 -132 -242 -239 -246 -239 -5 0 -8
6 -8 13 0 6 -9 23 -20 37 l-19 25 277 278 c152 152 277 277 278 277 0 0 -5
-34 -11 -76z m-2041 -45 c-7 -60 -11 -67 -63 -122 -53 -56 -56 -58 -62 -35
-20 68 -12 89 58 160 37 37 69 66 71 64 2 -2 0 -32 -4 -67z m356 -40 c0 -59
-1 -61 -52 -115 -58 -61 -66 -59 -67 21 -1 35 5 46 56 97 32 32 59 58 60 58 2
0 3 -27 3 -61z m1649 -155 l-11 -71 -314 -314 -314 -314 0 66 c0 61 2 67 35
99 19 19 35 29 35 23 0 -40 94 45 106 95 4 17 87 108 237 259 127 128 232 231
234 230 1 -2 -3 -34 -8 -73z m-34 -230 l-12 -76 -393 -392 -392 -391 6 70 7
70 397 398 c218 218 397 397 398 397 0 0 -5 -34 -11 -76z m-2522 -186 l-118
-118 -65 0 -65 0 180 179 180 179 3 -61 3 -61 -118 -118z m1393 66 c22 -9 41
-18 43 -20 3 -3 -31 -40 -74 -84 l-80 -80 -65 0 -65 0 100 100 c55 55 100 100
101 100 1 0 19 -7 40 -16z m155 -55 c19 -7 36 -14 38 -16 3 -2 -20 -28 -49
-58 l-54 -55 -65 0 -65 0 69 70 c38 39 75 70 81 70 6 0 26 -5 45 -11z m938
-65 l-11 -71 -379 -379 -379 -379 0 65 0 65 387 387 c213 213 388 386 390 385
1 -2 -3 -34 -8 -73z m-34 -230 l-12 -76 -370 -370 -369 -369 4 68 4 68 376
378 c207 207 377 377 378 377 0 0 -5 -34 -11 -76z m-36 -240 l-11 -71 -373
-373 -373 -373 -37 28 -36 28 25 26 c25 24 26 24 46 6 25 -23 30 -18 37 37 5
41 20 58 366 405 199 199 362 361 364 360 1 -2 -3 -34 -8 -73z m-34 -230 l-12
-76 -389 -387 c-213 -212 -381 -377 -374 -366 8 11 41 48 74 82 l60 63 -23 31
-23 31 348 349 c192 192 349 349 350 349 0 0 -5 -34 -11 -76z m41 -160 l27
-35 -233 -234 c-231 -232 -233 -233 -296 -250 -35 -9 -85 -30 -111 -47 -33
-20 50 68 267 286 173 174 316 316 317 316 1 0 14 -16 29 -36z m166 -35 l-4
-66 -207 -206 -206 -206 -58 6 -59 6 213 213 c149 149 219 212 230 209 12 -4
20 4 29 27 11 28 60 92 65 85 1 -1 0 -32 -3 -68z m-3092 -350 l-125 -126 -59
5 -59 4 179 179 179 179 5 -57 5 -58 -125 -126z m3072 130 l-4 -66 -129 -129
-128 -128 -40 19 c-23 10 -41 21 -41 24 0 6 343 352 346 348 0 -1 -1 -32 -4
-68z m-1500 -159 l-162 -159 -40 23 -40 23 24 22 c13 12 30 21 39 19 8 -2 33
20 56 50 23 29 61 66 84 84 40 29 172 97 191 98 6 0 -63 -72 -152 -160z
m-1399 -2 l-152 -152 -40 19 c-23 10 -41 21 -41 24 0 16 188 192 192 180 3
-10 12 -7 35 9 34 24 132 72 148 72 5 0 -58 -68 -142 -152z m2901 -78 c4 -10
-20 -42 -79 -100 l-85 -84 -29 34 -30 35 102 103 102 103 6 -38 c3 -21 9 -45
13 -53z m-1954 25 c-19 -20 -52 -40 -74 -46 -71 -19 -153 -67 -207 -120 -52
-53 -119 -173 -119 -214 0 -12 -18 -39 -40 -60 l-40 -39 0 26 c0 15 5 49 10
76 10 44 24 61 183 220 181 180 193 188 286 191 l35 1 -34 -35z m2036 -111
l23 -30 -98 -98 -99 -99 -22 43 -22 43 88 88 c49 49 93 88 98 86 5 -2 20 -17
32 -33z m114 -132 c0 -4 -61 -68 -135 -142 l-135 -135 0 65 0 65 108 108 107
108 28 -31 c15 -17 27 -34 27 -38z m-242 -449 l-223 -223 -64 0 -65 0 34 35
c29 30 40 35 81 35 42 0 50 4 85 43 49 52 79 101 99 158 12 33 47 75 143 172
l127 127 3 -62 3 -62 -223 -223z m-2738 104 c-10 -48 -20 -61 -148 -189 l-137
-138 -64 0 -65 0 34 35 c32 33 38 35 96 35 62 0 63 0 104 48 47 52 94 139 105
192 4 19 23 52 44 73 33 35 36 36 39 17 2 -11 -1 -44 -8 -73z m1385 2 l-15
-74 -127 -127 -128 -128 -64 0 -65 0 34 35 c30 31 40 35 85 35 47 0 54 3 91
43 58 60 82 98 105 164 17 50 85 141 96 129 2 -2 -3 -37 -12 -77z m1447 -212
l-129 -129 -58 7 -57 8 183 183 184 184 3 -62 3 -62 -129 -129z m-2499 -98
l-158 -158 -35 30 -35 29 170 170 169 169 23 -41 24 -42 -158 -157z m1527 189
l21 -41 -143 -144 c-79 -80 -151 -148 -160 -154 -12 -7 -25 -2 -48 18 l-32 26
169 169 c92 92 168 168 169 168 1 0 12 -19 24 -42z m-1807 -24 c15 -4 27 -9
27 -13 0 -4 -39 -45 -87 -93 l-88 -86 -58 5 -59 6 99 99 c76 77 102 98 118 93
11 -3 32 -8 48 -11z m1390 -1 c15 -3 29 -9 32 -13 2 -3 -35 -45 -83 -93 l-87
-86 -58 6 -59 6 99 99 c65 65 103 96 113 92 8 -3 27 -8 43 -11z m-1264 -119
l-117 -117 -47 18 -46 18 91 92 90 91 62 2 c34 2 64 5 67 7 2 3 7 5 10 5 3 0
-46 -52 -110 -116z m1397 -3 l-119 -119 -38 18 c-22 9 -41 19 -44 21 -2 3 35
44 83 92 92 91 101 96 222 106 8 0 -39 -53 -104 -118z m1363 -37 c-12 -13 -32
-24 -43 -24 -14 0 -17 -3 -8 -8 9 -6 6 -14 -12 -31 l-25 -23 -45 18 -46 19 98
98 97 98 3 -62 c3 -52 0 -65 -19 -85z m-3777 84 l29 -31 -39 -39 c-32 -33 -48
-40 -98 -48 -32 -4 -68 -11 -79 -15 -11 -4 18 31 65 79 46 47 86 86 88 86 2 0
17 -14 34 -32z"/>
<path d="M303 5052 c-86 -74 -272 -269 -286 -299 -33 -73 41 -14 241 191 78
80 142 151 142 156 0 23 -34 6 -97 -48z"/>
<path d="M503 5051 c-104 -90 -480 -475 -488 -500 -12 -37 2 -35 52 7 72 60
533 529 533 541 0 24 -33 8 -97 -48z"/>
<path d="M703 5051 c-112 -97 -680 -674 -687 -699 -23 -71 24 -29 442 391 188
189 342 349 342 356 0 24 -32 8 -97 -48z"/>
<path d="M903 5051 c-116 -100 -880 -875 -888 -899 -22 -72 19 -35 543 491
243 244 442 449 442 455 0 25 -32 10 -97 -47z"/>
<path d="M1103 5051 c-118 -102 -1080 -1075 -1088 -1099 -11 -38 2 -37 52 6
79 66 1133 1127 1133 1140 0 25 -32 10 -97 -47z"/>
<path d="M1303 5051 c-119 -104 -1280 -1275 -1288 -1299 -11 -38 2 -37 52 6
80 67 1333 1327 1333 1340 0 25 -32 10 -97 -47z"/>
<path d="M1503 5051 c-121 -105 -1480 -1475 -1488 -1499 -11 -38 2 -37 52 6
81 68 1533 1527 1533 1540 0 25 -32 10 -97 -47z"/>
<path d="M1703 5051 c-121 -105 -1680 -1675 -1688 -1699 -11 -38 2 -37 52 6
81 68 1733 1727 1733 1740 0 25 -32 10 -97 -47z"/>
<path d="M1903 5051 c-122 -106 -1881 -1875 -1888 -1899 -11 -38 2 -37 52 6
82 69 1933 1927 1933 1940 0 25 -32 10 -97 -47z"/>
</g>
</svg>
