<?xml version="1.0" standalone="no"?>
<!DOCTYPE svg PUBLIC "-//W3C//DTD SVG 20010904//EN"
 "http://www.w3.org/TR/2001/REC-SVG-20010904/DTD/svg10.dtd">
<svg version="1.0" xmlns="http://www.w3.org/2000/svg"
 width="264.000000pt" height="191.000000pt" viewBox="0 0 264.000000 191.000000"
 preserveAspectRatio="xMidYMid meet">
<metadata>
Created by potrace 1.16, written by Peter Selinger 2001-2019
</metadata>
<g transform="translate(0.000000,191.000000) scale(0.100000,-0.100000)"
fill="#000000" stroke="none">
<path d="M370 625 c0 -15 -34 -38 -42 -29 -3 2 -13 -7 -23 -22 -16 -25 -16
-27 12 -62 52 -65 68 -146 37 -190 -11 -16 -22 -21 -35 -17 -13 4 -19 2 -19
-9 0 -9 5 -16 10 -16 6 0 16 -12 22 -28 7 -15 20 -35 30 -45 23 -23 35 -70 20
-75 -26 -8 -10 -18 24 -14 29 4 36 1 41 -16 3 -13 16 -23 34 -27 16 -4 35 -16
43 -27 8 -11 31 -23 51 -28 32 -7 44 -5 76 16 21 13 50 24 63 24 14 0 27 4 30
9 3 4 35 7 71 6 45 -2 70 2 80 11 7 8 18 14 23 14 6 0 12 6 14 12 3 9 33 13
94 14 49 0 97 1 107 2 21 2 23 22 2 22 -20 0 -19 10 2 26 26 18 13 25 -56 31
-34 3 -61 7 -61 9 0 2 9 21 21 43 24 46 44 65 59 56 7 -4 7 2 0 21 -12 31 -1
44 38 44 12 0 22 5 22 10 0 6 13 10 29 10 21 0 32 6 36 20 9 27 -1 39 -25 33
-11 -3 -20 0 -20 6 0 18 -54 9 -71 -12 -14 -17 -20 -18 -59 -7 -24 6 -49 18
-57 26 -20 20 -34 18 -40 -6 -3 -11 -10 -20 -15 -20 -6 0 -8 -6 -5 -14 8 -20
-26 -47 -54 -43 -13 2 -28 0 -34 -4 -5 -5 -24 -20 -41 -34 -18 -14 -40 -25
-50 -25 -9 0 -14 -3 -11 -7 12 -12 -15 -33 -42 -33 -50 0 -96 64 -69 98 12 16
11 16 -7 1 -11 -9 -30 -20 -42 -23 -13 -4 -23 -14 -23 -22 0 -8 -5 -14 -10
-14 -15 0 -31 48 -24 73 4 19 -1 25 -30 35 -30 11 -35 17 -31 35 3 12 -1 41
-9 64 -8 24 -13 51 -11 62 2 11 -4 26 -13 33 -23 19 -62 21 -62 3z"/>
</g>
</svg>
