<?xml version="1.0" standalone="no"?>
<!DOCTYPE svg PUBLIC "-//W3C//DTD SVG 20010904//EN"
 "http://www.w3.org/TR/2001/REC-SVG-20010904/DTD/svg10.dtd">
<svg version="1.0" xmlns="http://www.w3.org/2000/svg"
 width="396.000000pt" height="127.000000pt" viewBox="0 0 396.000000 127.000000"
 preserveAspectRatio="xMidYMid meet">
<metadata>
Created by potrace 1.16, written by Peter Selinger 2001-2019
</metadata>
<g transform="translate(0.000000,127.000000) scale(0.100000,-0.100000)"
fill="#000000" stroke="none">
<path d="M2923 1223 c21 -29 55 -59 87 -77 l52 -28 71 17 c40 9 98 28 129 41
70 29 82 30 118 4 25 -18 27 -24 23 -72 l-4 -53 55 58 c53 54 56 61 56 107 l0
50 -95 0 c-75 0 -95 -3 -95 -14 0 -23 -31 -29 -37 -6 -3 11 -11 20 -19 20 -8
0 -11 -6 -8 -15 4 -10 0 -15 -15 -15 -12 0 -21 6 -21 15 0 19 -10 19 -24 0 -6
-8 -26 -18 -43 -21 -29 -6 -33 -4 -33 15 0 11 -4 21 -10 21 -5 0 -10 -13 -10
-30 0 -16 -5 -30 -10 -30 -6 0 -13 14 -16 30 -4 19 -13 30 -23 30 -15 0 -17
-9 -13 -60 3 -36 0 -60 -6 -60 -11 0 -22 47 -22 91 0 29 0 29 -61 29 l-61 0
35 -47z"/>
<path d="M806 1105 c-92 -16 -254 -54 -277 -66 -9 -5 -21 -33 -29 -68 -12 -58
-12 -61 15 -108 15 -26 38 -57 52 -69 l24 -21 -19 -81 -19 -81 67 62 c72 67
98 76 243 93 54 6 59 9 92 54 33 45 35 52 35 127 l0 80 -50 47 c-27 25 -50 46
-52 45 -2 -1 -39 -7 -82 -14z"/>
<path d="M3180 1036 c-88 -18 -257 -81 -306 -114 -6 -4 -14 -39 -17 -79 l-7
-71 46 -56 c25 -31 59 -63 76 -72 l31 -16 -7 -96 c-4 -57 -3 -93 2 -87 5 6 34
44 64 86 53 72 59 77 134 107 44 17 100 37 126 44 l47 12 22 70 c20 66 20 76
7 154 l-13 83 -50 28 -50 28 -105 -21z"/>
<path d="M1369 950 l-12 -40 -78 0 -77 0 -35 -56 -35 -56 19 -69 c11 -39 33
-94 49 -123 28 -50 34 -54 85 -65 52 -12 59 -11 187 30 104 33 153 43 228 47
122 6 135 15 126 93 -3 31 -1 82 4 114 8 52 7 60 -13 86 -25 32 -29 33 -199 8
l-88 -12 -22 28 c-22 29 -73 55 -107 55 -15 0 -23 -11 -32 -40z"/>
<path d="M810 690 c-19 -10 -44 -27 -55 -37 -11 -10 -37 -29 -58 -42 -26 -16
-36 -28 -32 -39 4 -12 3 -12 -8 -3 -11 9 -17 8 -26 -2 -6 -8 -8 -17 -4 -21 4
-4 0 -4 -9 -1 -10 4 -23 -4 -37 -23 -26 -37 -27 -46 -1 -32 11 6 20 9 21 8 0
-2 2 -10 4 -18 2 -8 6 -24 10 -35 4 -14 2 -12 -9 5 l-15 25 -1 -27 c0 -14 -3
-33 -6 -42 -4 -11 1 -14 18 -13 12 0 26 6 30 12 4 5 8 0 8 -12 0 -12 5 -25 10
-28 13 -8 13 -7 -11 61 -35 101 -38 113 -25 108 6 -2 20 -28 30 -57 34 -96 34
-96 54 -91 17 5 18 10 6 82 -6 42 -9 79 -4 82 4 3 6 13 4 23 -1 11 0 16 4 13
3 -4 7 -21 8 -39 2 -36 48 -252 60 -281 5 -14 3 -18 -7 -14 -8 2 -21 24 -29
49 -9 24 -18 49 -20 56 -3 8 -10 9 -19 4 -11 -7 -9 -23 8 -91 12 -45 19 -85
16 -88 -10 -10 -24 20 -36 76 -10 49 -13 53 -37 50 -15 -1 -33 -6 -39 -11 -9
-6 -13 -5 -13 2 0 8 -5 7 -15 -3 -30 -29 27 -193 79 -228 15 -10 146 -41 152
-36 2 3 -9 24 -26 46 l-30 42 17 37 c17 35 23 38 103 59 47 12 110 30 140 41
50 18 58 25 87 79 29 52 32 68 33 139 0 78 -1 82 -44 146 -43 64 -46 66 -102
77 -81 17 -143 14 -184 -8z"/>
<path d="M2342 333 c-6 -2 -10 -8 -7 -13 2 -4 -4 -15 -15 -25 -15 -14 -20 -15
-20 -4 -1 11 -2 11 -9 -1 -8 -13 -8 -32 -2 -106 1 -6 31 -24 68 -39 l67 -29
91 32 c58 20 111 32 144 32 42 0 57 5 79 26 18 18 23 28 14 31 -6 3 -9 10 -5
16 4 6 0 8 -9 4 -10 -3 -19 3 -26 18 -8 17 -16 21 -36 18 -14 -3 -28 -14 -32
-25 -4 -13 -11 -17 -21 -13 -10 3 -26 -4 -40 -17 -22 -21 -24 -21 -18 -3 6 18
5 18 -5 2 -6 -9 -8 -22 -4 -29 5 -8 2 -9 -10 -5 -9 4 -15 3 -11 -2 6 -11 -4
-41 -14 -41 -3 0 -15 7 -26 16 -17 13 -18 16 -5 25 12 8 10 9 -7 4 -16 -4 -25
0 -32 14 -7 12 -7 22 -2 25 5 4 12 0 15 -6 3 -7 3 1 -1 17 -7 36 -18 51 -27
36 -4 -6 -2 -11 3 -11 6 0 11 -7 11 -17 0 -9 -3 -14 -6 -10 -3 3 -15 -3 -27
-14 -26 -24 -37 -24 -37 1 0 13 -5 18 -15 14 -8 -4 -15 -1 -15 5 0 6 5 11 10
11 6 0 10 5 10 12 0 6 -7 4 -18 -5 -10 -10 -22 -14 -25 -10 -10 9 -9 25 1 19
5 -3 16 8 26 25 17 28 14 33 -12 22z"/>
<path d="M2035 43 c-85 -9 -135 -19 -145 -28 -13 -13 22 -15 288 -15 262 0
302 2 302 15 0 8 -3 15 -7 15 -5 0 -64 7 -133 15 -143 17 -133 17 -305 -2z"/>
</g>
</svg>
