<?xml version="1.0" standalone="no"?>
<!DOCTYPE svg PUBLIC "-//W3C//DTD SVG 20010904//EN"
 "http://www.w3.org/TR/2001/REC-SVG-20010904/DTD/svg10.dtd">
<svg version="1.0" xmlns="http://www.w3.org/2000/svg"
 width="310.000000pt" height="163.000000pt" viewBox="0 0 310.000000 163.000000"
 preserveAspectRatio="xMidYMid meet">
<metadata>
Created by potrace 1.16, written by Peter Selinger 2001-2019
</metadata>
<g transform="translate(0.000000,163.000000) scale(0.100000,-0.100000)"
fill="#000000" stroke="none">
<path d="M990 1521 c0 -25 -3 -25 -40 -6 -29 15 -60 11 -60 -7 0 -6 -7 -16
-16 -22 -14 -10 -13 -14 5 -30 21 -19 21 -19 22 0 1 10 1 22 0 27 0 4 4 7 10
7 6 0 8 -7 5 -16 -4 -9 -1 -24 6 -33 7 -9 8 -13 4 -9 -5 4 -15 3 -22 -3 -10
-8 -18 -7 -30 5 -9 10 -19 14 -22 11 -4 -3 0 -10 8 -16 11 -7 6 -8 -18 -7 -22
2 -31 7 -28 15 3 7 0 13 -5 13 -6 0 -9 -10 -7 -23 5 -25 22 -25 -184 -2 -59 6
-68 5 -68 -9 0 -10 -9 -16 -24 -16 -39 0 -47 -20 -24 -65 26 -51 34 -129 12
-121 -8 3 -33 -2 -55 -11 -42 -16 -98 -16 -367 3 l-92 7 0 -607 0 -606 228 1
c125 0 263 4 307 9 47 5 81 4 83 -1 5 -13 23 -11 41 4 10 8 67 19 141 26 69 6
177 18 240 26 63 8 144 17 180 20 36 3 76 6 90 8 21 2 25 -2 25 -23 0 -15 6
-25 15 -25 15 0 16 7 5 37 -8 21 33 30 145 32 43 0 77 3 75 7 -2 3 51 11 118
18 67 7 202 23 300 37 246 33 230 35 222 -25 -5 -36 -2 -57 9 -80 12 -22 13
-29 4 -27 -7 3 -26 7 -42 11 -25 5 -28 4 -23 -14 4 -16 -3 -21 -42 -29 -32 -7
108 -10 467 -11 l512 -1 0 585 0 585 -23 0 c-29 0 -183 -23 -297 -44 -127 -24
-442 -64 -560 -71 -73 -5 -189 0 -380 15 -272 21 -343 31 -355 50 -3 6 -17 10
-30 10 -23 0 -25 3 -22 48 2 33 10 56 25 72 12 13 22 27 22 31 0 4 -20 11 -45
15 -47 7 -61 23 -22 25 12 1 -16 7 -63 14 -108 16 -243 86 -224 117 3 4 0 8
-5 8 -6 0 -11 8 -11 18 -1 12 -5 10 -15 -9 -8 -15 -24 -29 -36 -32 -11 -3 -18
-10 -15 -16 4 -5 2 -12 -4 -16 -5 -3 -10 1 -10 10 0 19 -25 47 -34 38 -3 -4
-6 -1 -6 5 0 6 -8 9 -17 5 -10 -3 -3 6 16 21 19 14 29 26 22 26 -7 0 -10 4 -6
9 3 5 1 12 -5 16 -5 3 -10 -3 -10 -14z m1506 -1123 c-21 -8 -25 -13 -15 -19
10 -6 7 -9 -11 -10 -23 -1 -23 -1 5 -9 17 -4 52 -11 79 -15 36 -5 45 -9 35
-16 -9 -6 3 -8 36 -4 28 3 70 2 95 -3 25 -6 36 -11 25 -12 -15 -1 -11 -5 15
-15 50 -19 32 -18 -157 10 -92 14 -202 30 -244 35 -42 6 -107 16 -145 23 l-69
14 110 6 c61 4 125 9 143 12 18 2 30 0 28 -4 -3 -4 2 -8 10 -8 8 0 13 6 10 14
-4 10 6 13 37 12 41 -1 41 -1 13 -11z m-339 -116 c6 -4 16 -20 22 -34 12 -31
28 -26 -154 -52 -84 -13 -400 -49 -617 -72 -56 -6 -58 -5 -58 18 0 39 12 68
26 68 8 0 14 -7 14 -15 0 -8 8 -15 18 -14 10 0 12 3 5 6 -24 9 -13 31 20 36
17 3 118 14 222 24 143 13 179 19 145 24 -25 3 2 5 60 3 58 -1 123 1 145 6 53
10 137 12 152 2z m-817 -94 c0 -46 -12 -67 -39 -72 -34 -7 -91 -13 -291 -31
-91 -8 -201 -19 -245 -25 -44 -5 -138 -12 -210 -15 -150 -6 -165 -7 -183 -18
-19 -13 -193 -18 -207 -7 -12 10 -46 7 -66 -6 -8 -4 -9 0 -4 15 4 14 2 21 -7
21 -8 0 -6 4 5 11 26 15 21 27 -15 37 -29 8 -24 10 47 16 44 4 127 13 185 20
63 8 117 9 135 4 30 -8 92 -2 110 12 6 4 73 10 150 14 77 4 226 15 330 25 105
10 216 19 248 20 53 1 57 -1 57 -21z"/>
</g>
</svg>
