<?xml version="1.0" standalone="no"?>
<!DOCTYPE svg PUBLIC "-//W3C//DTD SVG 20010904//EN"
 "http://www.w3.org/TR/2001/REC-SVG-20010904/DTD/svg10.dtd">
<svg version="1.0" xmlns="http://www.w3.org/2000/svg"
 width="227.000000pt" height="222.000000pt" viewBox="0 0 227.000000 222.000000"
 preserveAspectRatio="xMidYMid meet">
<metadata>
Created by potrace 1.16, written by Peter Selinger 2001-2019
</metadata>
<g transform="translate(0.000000,222.000000) scale(0.100000,-0.100000)"
fill="#000000" stroke="none">
<path d="M1594 2081 c-21 -16 -55 -45 -74 -65 l-34 -36 122 -123 122 -122 51
50 c68 67 82 97 77 157 -4 42 -12 56 -49 94 -24 25 -56 52 -71 60 -45 23 -100
18 -144 -15z"/>
<path d="M206 2030 c-41 -13 -104 -78 -116 -120 -6 -21 -10 -310 -10 -745 0
-667 2 -712 19 -750 22 -50 69 -91 119 -105 37 -10 952 -15 952 -5 0 3 -13 23
-29 45 -15 21 -34 53 -41 70 l-12 30 -417 0 c-311 0 -420 3 -429 12 -17 17
-17 1399 0 1416 9 9 133 12 495 12 l483 0 0 75 0 75 -492 -1 c-271 0 -506 -5
-522 -9z"/>
<path d="M1088 1583 c-186 -185 -338 -339 -338 -343 0 -3 54 -59 120 -125
l119 -119 341 340 341 339 -123 122 -123 123 -337 -337z"/>
<path d="M1513 1226 c-189 -48 -349 -206 -398 -391 -19 -73 -19 -203 -1 -272
62 -234 259 -396 501 -410 357 -22 642 317 560 665 -42 177 -174 327 -344 390
-81 30 -236 39 -318 18z m273 -138 c110 -40 194 -120 246 -233 20 -43 23 -67
23 -160 0 -104 -2 -114 -32 -176 -41 -84 -118 -161 -202 -202 -62 -30 -72 -32
-176 -32 -103 0 -114 2 -178 32 -177 84 -273 275 -233 462 53 251 313 397 552
309z"/>
<path d="M1751 775 c-54 -52 -101 -95 -106 -95 -5 0 -36 26 -67 57 -57 57 -59
58 -85 43 -38 -22 -67 -64 -57 -83 5 -9 44 -52 86 -96 57 -59 85 -81 103 -81
18 0 60 34 159 131 75 72 138 140 142 151 7 24 -30 68 -59 68 -12 0 -61 -40
-116 -95z"/>
<path d="M698 1174 c-10 -17 -81 -285 -77 -288 2 -2 73 12 156 33 l153 37
-114 113 c-62 62 -116 109 -118 105z"/>
</g>
</svg>
