<?xml version="1.0" standalone="no"?>
<!DOCTYPE svg PUBLIC "-//W3C//DTD SVG 20010904//EN"
 "http://www.w3.org/TR/2001/REC-SVG-20010904/DTD/svg10.dtd">
<svg version="1.0" xmlns="http://www.w3.org/2000/svg"
 width="256.000000pt" height="197.000000pt" viewBox="0 0 256.000000 197.000000"
 preserveAspectRatio="xMidYMid meet">
<metadata>
Created by potrace 1.16, written by Peter Selinger 2001-2019
</metadata>
<g transform="translate(0.000000,197.000000) scale(0.100000,-0.100000)"
fill="#000000" stroke="none">
<path d="M0 1449 c0 -286 3 -519 7 -517 5 2 26 12 48 21 22 9 53 24 68 32 16
8 34 12 39 8 7 -3 8 -1 4 5 -4 7 -2 12 3 12 6 0 11 -5 11 -12 0 -6 3 -8 6 -5
4 4 1 14 -7 24 -8 9 -9 14 -3 10 16 -9 75 15 70 29 -2 6 0 17 5 25 6 10 9 10
9 1 0 -10 4 -10 19 0 11 7 18 15 16 19 -6 8 67 -5 85 -16 8 -5 11 -4 6 3 -3 5
0 12 6 15 7 2 9 8 5 13 -4 5 -12 2 -18 -6 -8 -13 -10 -13 -18 -1 -5 8 -16 11
-25 8 -8 -3 -18 -2 -21 2 -2 5 4 11 15 14 11 3 23 1 26 -4 3 -5 10 -7 15 -3 5
3 21 8 36 10 14 3 35 12 47 20 19 15 16 16 -44 9 -36 -3 -69 -10 -73 -15 -10
-9 -47 -1 -47 10 0 13 42 20 128 20 75 0 82 2 82 20 0 11 -5 20 -12 20 -6 0
-9 2 -6 5 14 15 38 -10 38 -39 0 -22 5 -33 15 -33 18 0 19 9 3 26 -11 10 -9
11 6 5 13 -5 17 -4 13 3 -4 7 10 13 38 17 25 4 45 11 45 15 0 5 13 14 28 20
18 8 28 20 30 35 2 24 -21 42 -39 30 -5 -3 -9 0 -9 6 0 8 -6 7 -21 -1 -12 -6
-19 -7 -16 -2 4 6 -23 8 -63 7 -56 -2 -72 1 -80 14 -9 16 -9 16 -10 0 0 -10
-5 -18 -11 -18 -6 0 -9 7 -5 15 3 8 1 15 -4 15 -6 0 -11 -8 -11 -17 -1 -10 -5
0 -9 22 -8 40 -8 40 -6 -10 1 -57 -19 -51 175 -54 76 -1 102 -4 94 -12 -12
-12 -205 -14 -282 -3 -33 5 -40 9 -27 16 12 7 16 24 16 68 0 57 -1 60 -25 60
-14 0 -25 5 -25 10 0 12 349 14 368 1 10 -6 13 -30 10 -90 -3 -72 -1 -81 15
-81 9 0 17 -4 17 -10 0 -5 10 0 21 11 15 15 23 18 29 9 4 -7 12 7 19 35 6 25
8 51 5 57 -4 6 -3 8 3 5 7 -4 14 8 18 31 3 20 13 61 22 89 15 47 20 53 47 57
17 3 70 10 118 17 78 11 87 14 98 38 l12 26 13 -26 c12 -22 25 -28 84 -37 38
-7 90 -12 114 -12 l45 0 16 -65 c9 -35 16 -72 16 -82 0 -33 16 -46 48 -38 29
6 30 8 21 38 -5 18 -9 52 -9 77 0 43 2 47 33 58 42 15 47 15 47 -2 0 -8 -11
-17 -25 -20 -33 -8 -32 -28 2 -24 37 4 41 -19 4 -27 -24 -5 -31 -12 -31 -30 0
-21 4 -24 33 -22 44 3 47 -16 4 -26 -44 -11 -55 -32 -18 -34 22 -1 23 0 7 6
-20 8 -20 8 0 12 10 3 29 0 41 -6 25 -13 21 -27 -5 -17 -14 5 -15 4 -2 -10 13
-13 16 -14 23 -2 4 8 18 14 30 14 21 1 22 1 3 15 -18 13 -18 15 -3 15 16 0 43
-44 38 -63 -1 -5 4 -5 10 -1 9 5 10 2 5 -11 -5 -15 -4 -16 8 -6 11 10 15 8 19
-6 4 -15 5 -14 6 4 0 12 -6 23 -14 25 -14 3 -14 5 0 25 13 19 19 21 35 11 10
-7 22 -24 26 -38 7 -24 8 -24 13 10 5 29 11 36 35 38 20 3 27 0 23 -10 -2 -7
-9 -12 -14 -11 -5 1 -10 -3 -11 -10 0 -7 -4 -22 -7 -34 -5 -15 -3 -23 4 -23 7
0 10 4 6 9 -3 5 4 12 15 16 11 3 20 11 20 16 0 6 -5 7 -12 3 -7 -5 -8 -3 -3 5
10 18 27 -2 19 -22 -3 -9 -10 -17 -16 -17 -5 0 -6 -5 -3 -10 4 -6 12 -4 21 5
12 11 14 26 9 56 -6 32 -4 40 6 37 7 -2 17 -19 22 -37 10 -42 33 -35 29 9 -5
47 20 34 31 -16 4 -21 10 -49 13 -61 2 -13 9 -23 14 -23 6 0 9 5 8 11 -2 6 3
13 10 14 7 2 8 1 2 -2 -5 -2 -8 -9 -5 -14 3 -5 1 -17 -4 -28 -8 -15 -7 -20 6
-25 9 -4 18 -4 21 -1 3 3 0 5 -6 5 -7 0 -12 8 -11 18 0 10 3 12 6 4 2 -6 9
-10 14 -6 5 3 9 -3 9 -13 1 -17 1 -17 14 0 14 18 32 24 21 7 -5 -8 17 -9 68
-4 47 4 77 3 81 -4 3 -6 -19 -12 -59 -17 -35 -3 -77 -10 -92 -15 -21 -7 -15
-8 22 -4 100 11 152 10 152 -3 0 -8 -13 -13 -31 -13 -39 0 -21 -21 21 -24 16
-1 43 -15 62 -33 18 -17 40 -29 47 -26 7 3 24 -6 38 -20 14 -14 26 -21 28 -16
2 5 9 5 17 0 12 -8 12 -11 -1 -24 -12 -12 -18 -13 -28 -4 -9 9 -9 6 1 -10 11
-18 15 -19 23 -8 14 18 64 27 72 14 10 -17 -5 -23 -22 -8 -16 13 -16 12 -5 -9
9 -17 16 -20 29 -13 21 11 47 -6 61 -40 10 -23 10 -23 8 6 -1 17 -6 33 -11 36
-4 4 -3 16 3 27 8 14 11 169 11 496 l0 476 -1280 0 -1280 0 0 -521z m1901 332
c33 -33 35 -50 14 -92 -21 -39 -51 -50 -103 -36 -38 10 -44 9 -69 -14 -47 -42
-60 -50 -77 -43 -29 11 -17 34 38 69 47 30 55 39 54 65 -2 73 88 106 143 51z
m529 -71 c0 -4 9 -10 20 -13 11 -3 20 -12 20 -21 0 -9 4 -16 9 -16 15 0 10
-62 -7 -90 -9 -14 -24 -32 -34 -40 -35 -29 7 -94 42 -66 14 11 24 60 11 51
-11 -6 -36 13 -28 22 15 14 42 -14 45 -46 2 -23 -1 -31 -13 -31 -9 0 -13 -4
-10 -10 4 -6 -7 -10 -24 -10 -17 0 -31 5 -31 10 0 19 -27 10 -38 -14 -22 -49
-104 -38 -114 16 -7 38 2 56 33 70 29 13 42 32 14 22 -13 -5 -16 -1 -15 21 1
3 -6 13 -15 21 -11 12 -13 20 -5 29 8 9 8 14 -1 17 -8 3 -8 8 3 18 8 8 17 23
21 33 3 9 13 17 22 17 8 0 15 4 15 9 0 4 18 8 40 8 22 0 40 -3 40 -7z"/>
<path d="M2360 1693 c0 -8 -8 -13 -17 -11 -10 2 -18 -3 -18 -10 0 -7 -5 -16
-10 -20 -13 -9 -16 -62 -4 -62 6 0 9 -8 7 -17 -2 -12 3 -17 15 -15 9 2 17 -1
17 -7 0 -5 16 -9 35 -8 19 1 35 5 35 9 0 4 9 8 20 8 13 0 18 5 14 15 -4 9 0
15 8 15 19 0 20 57 2 64 -8 3 -11 12 -7 22 5 14 3 16 -11 11 -10 -4 -19 -1
-22 7 -7 17 -64 17 -64 -1z"/>
<path d="M1176 1486 c-7 -35 -8 -100 -1 -118 4 -9 20 -12 55 -10 43 3 50 1 51
-15 0 -10 3 -13 6 -5 6 16 40 16 45 0 3 -7 8 15 11 49 4 35 13 78 20 95 l14
33 -98 0 -97 0 -6 -29z"/>
<path d="M905 1473 c20 -109 27 -135 36 -122 6 9 9 10 9 2 0 -6 -4 -15 -10
-18 -5 -3 -10 -14 -10 -23 0 -10 3 -13 8 -7 4 6 16 11 27 12 69 9 94 17 98 32
4 14 5 14 6 -1 0 -10 6 -18 11 -18 6 0 11 -12 11 -27 1 -16 6 15 10 67 13 139
12 140 -107 140 l-96 0 7 -37z"/>
<path d="M665 768 c-3 -8 -4 -29 -3 -48 3 -28 -1 -36 -24 -47 -17 -9 -29 -25
-33 -44 -6 -27 -10 -30 -33 -24 -34 8 -59 45 -32 45 16 0 12 56 -5 70 -13 11
-20 11 -39 0 -18 -9 -29 -9 -44 -1 -31 17 -42 14 -53 -15 -8 -21 -6 -31 8 -46
17 -19 17 -21 -7 -40 -18 -14 -24 -29 -23 -55 1 -20 -6 -54 -14 -77 -8 -23
-17 -70 -19 -106 -4 -57 0 -73 26 -125 l29 -60 -20 -18 c-12 -9 -33 -17 -48
-18 -14 0 -52 -2 -84 -5 -71 -7 -74 0 -58 99 12 71 28 174 36 231 3 17 16 40
30 52 14 12 25 26 25 31 0 5 12 15 26 22 28 13 26 24 -6 26 -11 1 -32 -11 -47
-27 -15 -15 -30 -28 -34 -28 -4 0 -13 16 -19 35 -10 29 -9 38 4 51 19 18 19
24 6 59 -8 21 -16 26 -38 23 -22 -2 -27 -8 -28 -33 0 -16 -10 -46 -22 -65 -26
-41 -27 -63 -8 -117 14 -39 14 -283 1 -344 -7 -29 -28 -39 -82 -39 l-33 0 0
-65 0 -65 1280 0 1280 0 0 75 0 75 -47 0 c-79 0 -77 -3 -68 172 14 246 13 263
-13 291 -14 15 -20 30 -16 41 10 26 -24 58 -47 45 -22 -11 -26 -68 -7 -87 17
-17 3 -25 -21 -12 -15 7 -21 20 -21 44 0 35 -17 50 -45 40 -18 -7 -21 -69 -3
-80 7 -5 4 -10 -10 -15 -17 -6 -22 -17 -22 -44 0 -32 -2 -34 -19 -23 -26 16
-37 80 -20 119 10 26 10 33 -4 46 -25 26 -43 9 -66 -63 -25 -80 -26 -100 -6
-112 13 -6 13 -14 4 -40 -12 -35 -5 -78 16 -102 11 -13 12 -29 3 -85 -15 -99
-12 -95 -62 -95 l-45 0 -5 47 c-4 27 -11 66 -17 88 -23 89 -28 139 -12 152 12
10 12 16 -1 48 -9 21 -16 64 -16 95 0 57 -1 59 -30 65 -16 3 -32 15 -35 25 -9
27 -32 42 -54 35 -24 -7 -35 -33 -21 -50 14 -17 21 -53 11 -59 -4 -3 -8 -23
-9 -46 -1 -29 3 -42 14 -47 12 -5 15 -15 10 -47 -5 -34 1 -133 17 -261 2 -17
-5 -20 -49 -23 -33 -2 -54 2 -61 10 -7 9 -5 46 4 113 8 55 15 126 15 158 1 37
5 57 14 57 34 0 18 98 -20 124 -21 13 -23 21 -19 55 4 32 2 42 -11 47 -27 10
-47 -15 -40 -50 5 -28 2 -34 -20 -44 -14 -6 -28 -23 -32 -37 -8 -32 -17 -32
-43 1 l-21 27 20 14 c28 20 27 69 -2 76 -28 8 -48 -9 -48 -38 0 -12 -9 -34
-20 -48 -23 -30 -26 -71 -6 -109 9 -18 12 -37 7 -55 -4 -15 -4 -45 1 -66 6
-26 4 -62 -7 -112 -8 -41 -15 -83 -15 -94 0 -18 -6 -20 -44 -19 l-44 2 -7 104
c-4 58 -4 107 1 111 5 3 10 54 11 112 2 95 0 109 -18 124 -11 11 -19 31 -19
51 0 43 -27 60 -58 38 -27 -19 -28 -44 -2 -76 14 -19 17 -32 12 -53 l-8 -28
-15 24 c-9 13 -20 35 -24 49 -12 41 -24 51 -47 39 -15 -8 -18 -17 -13 -39 5
-22 0 -34 -20 -55 -30 -29 -46 -26 -27 5 27 44 6 89 -34 73 -12 -4 -15 -14
-11 -39 6 -36 -1 -41 -34 -23 -13 7 -18 17 -14 28 8 26 -20 48 -40 31 -19 -16
-19 -49 0 -56 13 -5 13 -9 0 -34 -11 -21 -13 -45 -8 -89 4 -43 2 -61 -6 -61
-6 0 -11 -11 -11 -25 0 -14 5 -25 10 -25 6 0 10 -10 10 -22 0 -13 7 -54 15
-93 8 -38 11 -73 7 -77 -4 -4 -39 -10 -78 -14 -71 -7 -71 -6 -76 19 -3 15 -1
50 4 79 10 62 3 117 -17 124 -13 5 -26 44 -30 89 -1 11 7 28 17 37 16 13 17
21 8 37 -7 14 -7 21 0 21 15 0 12 46 -5 60 -33 27 -84 -29 -57 -63 7 -8 8 -26
3 -48 -4 -19 -4 -43 0 -54 4 -11 5 -30 2 -42 -3 -12 -2 -27 3 -34 4 -7 8 -61
8 -121 l1 -108 -46 0 -47 0 -6 63 c-9 104 -12 267 -5 267 4 0 11 10 15 23 4
12 10 24 14 27 4 3 10 22 14 43 6 34 5 37 -17 37 -14 0 -40 6 -58 14 -31 13
-34 18 -34 58 0 37 -3 43 -23 46 -12 2 -24 -3 -27 -10z m-20 -406 l0 -177 -55
0 -55 0 3 70 c1 38 7 72 12 75 4 3 10 43 12 90 l3 85 33 11 c18 5 29 13 26 17
-4 4 -1 7 7 7 12 0 14 -31 14 -178z m1586 95 c-2 -23 2 -85 9 -138 7 -53 10
-108 7 -121 -6 -23 -10 -25 -39 -19 -27 6 -34 12 -36 36 -2 16 2 48 9 70 16
48 16 47 18 153 1 76 2 81 19 71 13 -8 16 -21 13 -52z"/>
</g>
</svg>
