<?xml version="1.0" standalone="no"?>
<!DOCTYPE svg PUBLIC "-//W3C//DTD SVG 20010904//EN"
 "http://www.w3.org/TR/2001/REC-SVG-20010904/DTD/svg10.dtd">
<svg version="1.0" xmlns="http://www.w3.org/2000/svg"
 width="318.000000pt" height="159.000000pt" viewBox="0 0 318.000000 159.000000"
 preserveAspectRatio="xMidYMid meet">
<metadata>
Created by potrace 1.16, written by Peter Selinger 2001-2019
</metadata>
<g transform="translate(0.000000,159.000000) scale(0.100000,-0.100000)"
fill="#000000" stroke="none">
<path d="M0 795 l0 -795 749 0 c497 0 752 3 756 10 4 6 10 8 14 6 4 -3 31 -7
61 -10 50 -4 52 -4 22 6 -29 10 -33 15 -30 39 3 16 -3 37 -14 51 -15 20 -18
21 -18 5 0 -10 -6 -17 -12 -14 -26 8 -14 32 15 30 27 -2 36 10 17 22 -12 7
-13 35 -2 35 4 0 12 -15 17 -32 8 -25 16 -33 34 -33 14 0 25 -6 26 -16 7 -41
16 -56 38 -55 16 1 23 -6 25 -22 3 -19 9 -22 50 -21 26 0 41 3 35 6 -18 7 -16
33 1 33 8 0 18 -9 21 -20 3 -11 11 -20 17 -20 5 0 7 7 4 16 -4 10 -2 14 6 11
7 -2 12 -10 10 -16 -1 -7 26 -11 85 -11 l88 1 55 71 c30 39 53 76 51 82 -2 6
-6 23 -8 37 -4 22 -13 28 -51 37 l-47 10 46 -5 c52 -5 68 6 41 30 -11 9 -32
14 -57 13 -22 -2 -53 -3 -68 -4 -16 -1 -26 -5 -24 -9 3 -5 -47 -8 -111 -8
-149 0 -192 -8 -185 -35 7 -25 -12 -26 -26 -3 -5 10 -13 14 -17 10 -11 -11 8
-40 33 -51 11 -5 24 -19 29 -30 5 -12 19 -25 31 -31 12 -5 26 -19 32 -31 8
-19 7 -21 -10 -17 -10 3 -19 10 -19 17 0 10 -81 92 -123 125 -15 12 -19 12
-32 -5 -8 -10 -15 -14 -15 -7 0 12 -43 11 -121 -2 -31 -5 -36 -10 -32 -28 4
-22 4 -22 -12 -2 -13 16 -17 17 -24 6 -6 -9 -11 -10 -15 -2 -4 6 -12 9 -17 5
-6 -3 -36 -7 -67 -9 -49 -3 -52 -2 -24 6 27 8 32 14 32 40 l0 31 -98 -5 c-75
-4 -84 -4 -37 3 33 4 88 8 122 9 60 1 101 20 49 22 -14 1 -30 3 -36 4 -5 1
-35 3 -67 4 -31 0 -54 4 -50 7 7 7 80 16 134 16 49 -1 51 3 22 38 -16 21 -19
22 -17 6 4 -26 -15 -30 -29 -6 -11 16 -10 18 2 14 8 -4 15 -1 15 5 0 7 -7 14
-15 17 -12 5 -13 10 -4 20 9 11 8 14 -4 14 -8 0 -17 -9 -20 -20 -8 -32 -35
-24 -45 13 -5 17 -5 34 0 35 15 6 8 30 -9 36 -10 3 -2 3 18 0 31 -4 37 -1 42
16 6 21 27 28 27 8 0 -7 16 4 37 23 20 18 33 28 29 22 -4 -7 -2 -13 3 -13 16
0 13 16 -6 36 -17 16 -18 16 -21 1 -5 -24 -22 -21 -22 3 0 14 7 20 21 20 11 0
18 4 14 10 -3 5 -12 7 -20 3 -8 -3 -15 0 -15 7 0 7 -7 10 -17 6 -16 -5 -16 -4
1 8 25 20 12 36 -30 36 -23 0 -34 -5 -34 -14 0 -22 -17 -28 -33 -11 -11 10
-17 11 -19 3 -7 -21 -28 3 -28 32 0 21 4 28 18 25 9 -1 22 2 29 7 13 11 58
-14 46 -25 -3 -4 8 -7 25 -7 42 0 49 16 21 48 l-24 27 27 -24 26 -23 18 33 18
34 7 -33 c4 -18 8 -35 10 -37 2 -2 22 3 44 10 21 8 41 13 43 11 7 -7 -30 -36
-39 -30 -5 3 -12 -2 -15 -10 -3 -9 -12 -16 -20 -16 -19 0 -17 -14 5 -34 18
-16 21 -16 54 14 26 23 34 36 30 53 -5 18 -3 20 8 10 19 -18 24 -16 37 12 13
28 12 28 -20 16 -22 -8 -24 -6 -26 20 -2 21 2 29 14 29 11 0 15 -6 11 -20 -3
-11 -1 -18 4 -14 5 3 9 13 9 23 0 9 5 22 10 27 8 8 6 15 -5 24 -13 11 -18 10
-30 -6 -14 -18 -15 -17 -13 13 2 26 5 30 18 23 19 -10 85 24 75 39 -3 5 -2 16
1 24 8 21 34 10 28 -11 -3 -9 2 -6 10 8 22 36 20 42 -14 35 -20 -4 -30 -3 -30
5 0 8 -23 10 -72 9 l-73 -3 -2 -33 c-1 -26 2 -33 17 -33 24 0 36 -30 12 -31
-9 -1 -21 -1 -26 0 -4 1 -19 -5 -31 -13 -19 -12 -26 -13 -40 -2 -14 10 -15 15
-5 21 9 6 9 9 0 15 -9 6 -9 12 0 30 22 41 7 50 -79 50 -54 0 -81 -4 -85 -12
-5 -10 -7 -10 -12 0 -3 6 -19 12 -35 12 -16 0 -29 4 -29 9 0 6 9 8 21 6 13 -3
29 5 43 20 13 14 26 22 29 18 4 -3 11 6 16 21 12 31 31 35 31 5 0 -11 -4 -18
-9 -15 -4 3 -18 -6 -31 -19 l-23 -24 190 0 c187 1 191 1 185 21 -5 20 -6 20
-19 3 -12 -18 -13 -17 -14 6 -1 13 0 31 1 39 1 12 -1 13 -11 3 -18 -18 -27
-16 -31 5 -3 13 -7 11 -20 -13 -14 -25 -18 -27 -23 -13 -9 24 0 35 35 43 40 9
38 24 -2 21 -18 -2 -36 1 -39 6 -3 5 -16 11 -30 14 -35 7 -106 13 -92 7 9 -3
10 -10 2 -24 -7 -15 -6 -21 6 -25 21 -8 20 -54 -1 -54 -12 0 -15 7 -12 25 6
30 -7 42 -27 25 -12 -10 -15 -10 -15 2 0 8 3 18 7 22 4 3 8 16 10 27 3 17 -1
20 -16 16 -11 -3 -22 0 -23 5 -2 6 -25 11 -51 12 -26 0 -47 4 -47 9 0 4 -11 7
-25 7 -17 0 -25 -5 -24 -17 0 -11 3 -13 6 -5 6 15 33 16 33 2 0 -6 -10 -15
-22 -19 -18 -7 -25 -5 -32 10 -9 19 -27 25 -38 13 -4 -3 -32 -7 -63 -9 -31 -2
-67 -11 -81 -20 -14 -9 -31 -14 -39 -12 -7 3 -18 0 -25 -6 -10 -9 -11 -9 -6 1
6 9 -3 11 -36 8 l-43 -5 36 11 c31 9 39 18 49 51 9 32 9 41 -2 48 -10 7 -6 14
17 33 18 14 33 20 36 14 4 -5 9 2 13 16 4 15 11 24 16 21 6 -4 4 -18 -6 -36
-18 -36 -19 -34 26 -47 19 -6 27 -11 18 -11 -9 -1 -20 -10 -23 -21 -9 -29 -28
-25 -21 5 5 18 3 23 -7 19 -8 -3 -14 -18 -13 -34 1 -34 6 -35 89 -19 58 12 77
29 32 29 -15 0 -25 6 -25 15 0 11 10 13 40 10 22 -2 40 1 40 6 0 6 5 7 10 4 6
-4 8 -10 5 -15 -9 -14 8 -18 33 -9 17 7 22 14 17 28 -3 11 -1 22 5 26 5 3 10
2 10 -4 0 -38 73 -53 136 -26 20 8 32 10 28 3 -4 -6 -1 -9 7 -6 8 3 15 10 15
16 1 7 2 19 3 27 1 18 31 20 31 2 0 -7 -6 -19 -12 -26 -11 -11 -8 -12 17 -6
17 4 38 7 47 7 28 -1 32 18 9 39 -12 11 -21 15 -21 9 0 -5 -4 -10 -10 -10 -6
0 -5 10 2 25 6 14 17 24 24 21 6 -2 18 1 25 7 7 7 5 2 -5 -10 -21 -25 -13 -47
15 -40 12 3 19 0 19 -9 0 -8 4 -14 9 -14 5 0 12 -7 15 -16 5 -14 1 -16 -24
-11 -28 6 -32 3 -45 -31 -10 -25 -22 -38 -35 -38 -13 0 -16 4 -9 12 7 9 -1 13
-31 16 -22 2 -40 0 -40 -4 0 -4 -7 -5 -16 -1 -13 5 -13 7 -2 14 7 5 8 9 2 9
-12 0 -49 -38 -43 -44 2 -2 23 -7 46 -11 23 -3 72 -12 109 -20 51 -11 71 -11
85 -2 22 14 24 24 7 29 -8 3 -9 11 -3 24 5 10 10 30 11 44 1 14 2 30 3 36 0 6
11 10 23 10 18 -1 22 5 22 29 1 17 -5 33 -14 37 -10 4 -6 7 13 7 22 1 27 5 27
27 0 22 -2 25 -15 14 -13 -11 -14 -9 -1 15 l15 28 -54 19 c-38 13 -75 17 -120
14 -59 -3 -64 -2 -55 14 8 16 3 21 -36 34 -26 9 -49 14 -53 12 -3 -2 -15 2
-25 9 -17 13 -17 14 5 13 13 -1 30 -6 37 -11 9 -7 12 -4 12 12 0 11 4 21 10
21 5 0 9 -10 7 -21 -2 -19 7 -24 58 -39 54 -16 57 -18 30 -22 -28 -5 -28 -5
-4 -7 15 0 32 6 39 14 15 19 30 19 30 2 0 -8 17 -19 38 -25 31 -10 39 -9 48 3
14 19 47 8 39 -13 -5 -13 -3 -13 11 -2 13 11 17 11 24 0 7 -12 11 -12 27 0 15
12 15 11 -2 -9 l-20 -24 32 5 c20 3 34 0 37 -8 5 -13 83 -30 93 -20 8 7 -27
86 -39 87 -4 1 -14 2 -20 3 -7 1 -24 -5 -38 -12 -20 -12 -20 -10 5 11 20 17
27 29 20 36 -14 14 -88 44 -81 32 9 -14 -11 -23 -30 -13 -15 8 -15 10 0 15 9
4 16 11 16 16 0 6 -55 10 -139 10 -133 1 -138 0 -149 -22 -10 -22 -11 -22 -11
-1 -1 19 -7 21 -86 23 -57 1 -85 -3 -85 -10 0 -6 7 -9 15 -5 8 3 15 1 15 -4 0
-6 7 -10 15 -10 8 0 15 -4 15 -10 0 -12 -6 -13 -28 -1 -9 6 -30 12 -45 16 -15
3 -25 10 -22 15 4 7 -189 10 -539 10 l-546 0 0 -795z"/>
<path d="M1626 1582 c-3 -5 11 -16 30 -25 26 -13 40 -15 55 -7 27 15 42 4 27
-20 -10 -16 -7 -30 17 -79 29 -61 45 -76 45 -43 0 14 2 15 10 2 7 -11 13 -4
29 30 22 50 27 50 10 1 -8 -24 -8 -35 1 -46 10 -13 16 -13 41 1 39 20 37 11
-3 -14 l-31 -20 43 -13 c35 -11 39 -14 24 -21 -13 -6 -8 -7 14 -3 20 3 31 1
27 -5 -3 -5 4 -9 17 -9 13 1 52 -6 88 -15 89 -22 105 -20 118 9 6 13 27 35 46
47 27 18 36 31 39 58 l4 35 1 -35 c2 -31 6 -37 35 -45 26 -8 35 -18 47 -53 14
-42 16 -43 48 -37 20 4 32 2 28 -3 -3 -5 -18 -12 -34 -15 -39 -8 -40 -42 -1
-56 38 -13 37 -18 -3 -14 l-33 4 33 -30 c30 -29 60 -43 48 -22 -3 5 2 12 12
16 16 6 16 7 -2 21 -11 8 -15 14 -9 14 7 0 15 -4 18 -10 4 -6 17 -4 35 5 62
32 131 9 146 -50 l6 -23 81 34 c45 20 164 74 265 121 l182 86 0 118 0 119
-416 0 c-344 0 -418 -2 -430 -14 -7 -8 -18 -16 -24 -18 -5 -1 -14 -28 -19 -58
l-10 -55 4 58 c3 53 2 57 -12 45 -13 -10 -17 -10 -20 0 -3 6 -10 9 -16 5 -6
-4 -8 0 -4 10 10 26 -13 21 -79 -19 -118 -72 -129 -71 -18 1 l69 45 -287 0
c-158 0 -289 -4 -292 -8z"/>
<path d="M3040 1278 c-69 -33 -183 -87 -255 -119 -121 -54 -142 -70 -144 -106
-1 -10 59 -13 269 -13 l270 0 0 150 c0 83 -3 150 -7 149 -5 0 -64 -28 -133
-61z"/>
<path d="M1552 1304 c-18 -20 -5 -38 14 -19 20 20 33 19 30 -2 -2 -11 -13 -19
-29 -21 -15 -2 -28 -8 -28 -13 -1 -5 -2 -21 -4 -36 -1 -16 -3 -32 -4 -38 -2
-5 -3 -18 -2 -29 1 -16 3 -16 21 5 16 20 21 22 29 9 6 -8 6 -19 1 -25 -5 -6
-5 -17 -1 -24 6 -10 10 -9 15 4 4 12 13 15 30 11 20 -5 26 0 40 28 17 36 20
59 9 69 -10 10 -43 -23 -43 -43 0 -10 -7 -21 -16 -24 -27 -10 -29 2 -5 28 15
16 19 25 10 28 -15 5 -5 38 12 38 7 0 9 -9 6 -21 -3 -12 -2 -18 2 -13 5 5 11
21 15 36 6 25 4 28 -16 25 -16 -1 -22 3 -20 14 1 10 -7 19 -20 23 -30 8 -31 8
-46 -10z"/>
<path d="M1830 1298 c-5 -13 -9 -19 -9 -14 -1 5 -8 3 -16 -4 -8 -7 -21 -10
-30 -6 -18 6 -39 -29 -29 -47 20 -33 137 -177 144 -177 19 0 17 17 -6 74 -13
33 -22 61 -20 63 2 2 13 -21 26 -52 12 -30 25 -55 29 -55 3 0 15 7 25 15 30
23 95 19 122 -6 25 -24 33 -20 68 33 10 15 22 26 26 23 5 -3 12 0 16 6 4 7 3
9 -3 6 -17 -11 -39 21 -25 35 7 7 12 24 12 40 0 31 -5 33 -174 68 -127 26
-144 26 -156 -2z"/>
<path d="M1706 1221 c-22 -25 -29 -74 -19 -140 l8 -54 65 -18 c86 -24 107 -24
115 1 8 24 2 34 -88 147 -62 79 -65 82 -81 64z"/>
<path d="M2365 1161 c5 -10 2 -12 -16 -7 -13 3 -18 3 -11 0 6 -3 9 -10 6 -16
-4 -6 2 -5 15 1 16 9 20 9 15 -2 -3 -8 -11 -14 -19 -15 -8 -1 -22 -3 -30 -4
-8 -1 -15 -5 -15 -10 0 -5 -4 -7 -8 -4 -13 8 -2 -97 12 -110 6 -6 31 -15 56
-18 41 -6 43 -6 25 7 -17 13 -18 18 -7 41 7 15 12 37 13 49 0 20 1 21 8 3 7
-18 8 -18 14 -2 12 32 8 43 -30 72 -20 15 -33 22 -28 15z"/>
<path d="M2624 1015 c-3 -8 -2 -19 2 -26 4 -8 3 -9 -4 -5 -8 4 -12 0 -12 -12
0 -10 -9 -27 -20 -37 -12 -11 -18 -25 -15 -36 5 -14 0 -17 -27 -16 -29 2 -33
-1 -36 -26 -2 -16 2 -34 8 -42 7 -8 8 -20 4 -26 -4 -8 -3 -9 4 -5 7 4 14 -11
18 -44 4 -32 10 -47 15 -39 6 10 11 10 21 1 8 -6 24 -9 36 -5 12 3 22 1 22 -4
0 -12 -69 -48 -76 -40 -4 4 -20 -3 -35 -14 -17 -12 -53 -23 -85 -26 -32 -4
-58 -12 -61 -19 -3 -7 3 -49 12 -93 17 -78 18 -79 51 -83 18 -2 30 0 28 4 -6
10 5 9 31 -2 19 -8 19 -9 1 -9 -18 -1 -17 -4 9 -31 15 -16 32 -27 36 -24 5 3
6 -1 3 -9 -3 -8 -1 -18 5 -21 14 -9 291 106 291 120 0 6 -16 29 -36 53 -32 36
-40 41 -65 36 -18 -4 -29 -2 -29 4 0 6 13 11 29 11 16 0 42 5 57 10 30 12 68
4 58 -12 -4 -7 -2 -8 4 -4 7 4 20 2 29 -3 10 -6 14 -11 9 -11 -5 0 3 -9 17
-20 34 -27 48 -25 157 24 l95 42 3 227 2 227 -275 0 c-232 0 -277 -2 -281 -15z"/>
<path d="M1680 1001 c0 -16 6 -21 24 -21 33 0 37 -11 13 -35 -17 -17 -19 -17
-14 -3 5 14 1 17 -16 16 -16 -1 -23 -8 -23 -22 1 -28 -19 -30 -31 -4 -10 22
-10 22 -15 -10 -3 -19 1 -40 8 -50 13 -16 13 -16 14 1 0 23 30 22 30 -2 0 -10
-8 -22 -17 -26 -16 -6 -16 -8 4 -15 30 -12 139 32 176 70 40 43 36 60 -15 61
l-43 2 35 6 c34 6 33 7 -35 25 -38 11 -76 21 -82 24 -8 2 -13 -4 -13 -17z"/>
<path d="M1783 853 c-46 -18 -63 -30 -63 -44 0 -10 -4 -19 -10 -19 -5 0 -10 5
-10 10 0 6 -7 10 -15 10 -8 0 -15 -9 -15 -20 0 -11 -6 -20 -14 -20 -8 0 -17
-7 -20 -16 -3 -8 -2 -12 4 -9 6 3 10 2 10 -4 0 -5 -5 -13 -11 -16 -6 -5 1 -19
20 -37 17 -17 31 -34 31 -38 0 -17 49 -16 71 1 20 15 21 19 7 19 -10 0 -18 7
-18 15 0 8 9 15 20 15 11 0 20 -7 20 -15 0 -21 18 -19 32 5 14 22 38 27 38 9
0 -7 -8 -18 -17 -25 -17 -13 -17 -13 0 -14 24 0 40 44 38 104 0 27 -3 51 -5
53 -2 2 -15 -1 -30 -6 -25 -10 -27 -9 -30 19 -1 6 13 19 29 30 41 27 13 24
-62 -7z"/>
<path d="M2067 835 c-14 -10 -15 -14 -5 -18 8 -3 9 -6 1 -6 -6 -1 -9 -10 -6
-21 4 -16 0 -20 -21 -20 -14 0 -26 6 -27 13 0 6 -5 2 -11 -11 -9 -18 -17 -22
-35 -17 -41 10 -89 -35 -51 -47 6 -2 8 -10 4 -17 -5 -7 -14 -10 -21 -7 -7 2
-15 -4 -18 -15 -6 -21 9 -36 16 -17 3 10 9 9 22 -4 16 -14 16 -19 5 -33 -11
-14 -11 -18 -1 -25 10 -5 12 -19 7 -43 -4 -20 -2 -38 3 -41 14 -9 9 -45 -5
-39 -6 2 -14 -3 -18 -13 -5 -12 -2 -15 10 -10 11 4 18 0 21 -14 6 -24 111
-112 124 -104 5 3 8 0 7 -8 -2 -10 22 -13 111 -13 122 0 139 7 101 43 l-21 20
30 10 c16 6 32 8 35 5 3 -4 6 -1 6 6 0 7 5 9 12 5 6 -4 8 -3 4 4 -3 6 -2 13 3
17 11 6 -17 73 -58 140 -14 22 -24 43 -23 47 1 4 -6 24 -15 45 -19 46 -29 28
-13 -23 8 -24 9 -39 2 -46 -7 -7 -21 12 -42 55 -24 49 -39 68 -60 76 -16 5
-31 7 -34 4 -3 -4 -6 1 -6 9 0 9 7 21 15 28 8 7 15 20 15 29 0 12 -2 13 -8 3
-7 -10 -13 -8 -26 7 -13 14 -14 21 -5 27 8 5 10 3 4 -7 -5 -8 -4 -10 0 -6 28
25 2 54 -28 32z"/>
<path d="M2391 832 c0 -7 -13 -17 -27 -22 -25 -10 -26 -14 -20 -53 20 -128 16
-141 -7 -27 l-13 65 -17 -32 c-10 -18 -22 -33 -28 -33 -6 0 -16 -6 -24 -13
-10 -11 -10 -19 2 -47 7 -19 17 -37 21 -40 4 -3 16 -18 25 -33 l18 -28 18 23
c10 13 21 30 24 38 4 12 6 12 6 -2 1 -14 6 -16 24 -9 12 5 48 15 80 22 31 7
57 15 57 18 -1 20 -33 44 -61 45 -36 2 -54 26 -20 26 28 0 27 6 -13 43 -18 18
-36 41 -39 52 -2 11 -5 14 -6 7z"/>
<path d="M1604 685 c-4 -8 -12 -15 -20 -15 -8 0 -14 -9 -14 -20 0 -31 -30 -24
-41 10 -15 43 -41 38 -100 -17 -42 -39 -50 -52 -47 -77 2 -25 7 -30 25 -28 12
2 24 -2 28 -8 5 -8 11 -6 19 6 11 15 12 13 8 -15 -3 -23 1 -36 13 -45 11 -8
16 -20 12 -29 -8 -21 1 -26 55 -30 25 -2 51 -8 58 -12 9 -5 11 -4 6 3 -4 7 -5
12 -2 12 2 0 11 3 20 6 11 4 14 1 11 -14 -3 -18 4 -22 46 -31 62 -14 89 -14
89 -1 0 6 -5 10 -11 10 -5 0 -7 4 -4 10 4 6 -1 7 -11 3 -11 -4 -15 -2 -11 4 4
5 0 18 -7 29 -12 16 -18 17 -40 6 -15 -7 -28 -12 -29 -12 -1 0 -3 14 -4 30 -2
24 2 30 17 30 11 0 20 -7 20 -15 0 -8 4 -15 8 -15 7 0 8 140 2 148 -2 1 -3 5
-4 10 -3 18 -19 32 -37 32 -14 0 -19 7 -19 25 0 28 -27 35 -36 10z"/>
<path d="M3105 535 c-27 -12 -77 -35 -110 -50 -33 -16 -54 -30 -47 -32 6 -3
12 -17 12 -32 0 -16 16 -45 41 -76 78 -96 100 -122 139 -165 l40 -44 0 212 c0
163 -3 212 -12 211 -7 0 -35 -11 -63 -24z"/>
<path d="M2712 367 l-143 -62 7 -41 c4 -30 1 -54 -13 -85 -23 -52 -35 -63 -88
-81 -37 -13 -44 -12 -70 4 -17 10 -37 21 -45 25 -8 3 -25 17 -38 31 -25 26
-47 25 -47 -2 0 -9 -7 -21 -15 -26 -8 -5 -10 -10 -4 -10 6 0 14 3 18 7 11 12
56 11 49 -1 -3 -5 -1 -6 5 -2 7 4 12 3 12 -2 0 -5 29 -29 65 -52 36 -23 65
-45 65 -47 0 -3 -12 3 -27 13 -16 10 -57 35 -92 56 l-64 37 -25 -19 c-14 -11
-30 -20 -38 -20 -7 0 -15 -6 -18 -12 -5 -10 -7 -10 -12 0 -3 6 -15 12 -25 12
-13 0 -18 4 -13 12 5 8 2 9 -11 4 -15 -5 -16 -4 -5 9 7 9 8 15 2 15 -11 0
-112 -110 -112 -122 0 -5 158 -8 352 -8 l351 0 -44 41 c-24 22 -63 56 -87 76
-23 20 -40 38 -38 41 3 2 45 -32 93 -77 l88 -81 218 0 217 0 0 48 c0 43 -3 50
-32 67 -48 28 -201 188 -245 255 -21 33 -40 59 -43 59 -3 0 -69 -28 -148 -62z"/>
<path d="M1551 381 c-8 -5 -12 -18 -8 -31 3 -13 0 -23 -9 -27 -41 -15 3 -21
169 -21 100 0 198 3 217 6 l35 6 -40 7 c-22 4 -60 8 -85 8 -26 1 -51 6 -58 13
-9 9 -15 9 -24 0 -16 -16 -28 -15 -28 3 0 8 -4 15 -10 15 -5 0 -10 -7 -10 -15
0 -8 -7 -15 -15 -15 -8 0 -15 8 -15 19 0 14 -10 21 -37 25 -21 4 -45 9 -53 11
-8 3 -21 1 -29 -4z"/>
</g>
</svg>
