<?xml version="1.0" standalone="no"?>
<!DOCTYPE svg PUBLIC "-//W3C//DTD SVG 20010904//EN"
 "http://www.w3.org/TR/2001/REC-SVG-20010904/DTD/svg10.dtd">
<svg version="1.0" xmlns="http://www.w3.org/2000/svg"
 width="275.000000pt" height="183.000000pt" viewBox="0 0 275.000000 183.000000"
 preserveAspectRatio="xMidYMid meet">
<metadata>
Created by potrace 1.16, written by Peter Selinger 2001-2019
</metadata>
<g transform="translate(0.000000,183.000000) scale(0.100000,-0.100000)"
fill="#000000" stroke="none">
<path d="M1 1638 c1 -106 5 -202 9 -213 5 -11 9 -15 9 -10 1 6 14 19 31 28 23
14 37 16 63 9 48 -13 257 -135 473 -275 31 -21 31 -21 11 -37 -20 -17 -20 -17
4 -33 13 -10 20 -17 16 -17 -4 0 -3 -6 3 -12 6 -7 22 -30 36 -52 l25 -38 -33
20 c-18 10 -103 59 -188 107 -226 128 -259 148 -254 156 2 4 -9 13 -25 20 -16
7 -28 16 -26 20 3 3 -7 5 -20 3 -14 -1 -25 2 -25 7 0 5 -8 9 -17 9 -10 0 -31
9 -48 20 -17 11 -33 20 -37 20 -5 0 -8 -222 -8 -494 l0 -494 30 -7 c43 -9 44
-20 5 -44 l-35 -20 0 -156 0 -155 129 0 c95 0 131 3 140 13 6 8 7 18 3 23 -4
5 -3 6 1 3 4 -4 42 11 83 32 96 50 134 51 168 6 30 -40 33 -64 9 -70 -10 -3
164 -5 387 -5 l405 0 -70 18 c-38 10 -216 53 -395 95 -179 42 -327 79 -329 81
-6 6 84 389 250 1072 27 111 49 210 49 218 0 9 -10 33 -22 53 -24 37 -60 142
-53 150 3 2 28 -8 57 -22 29 -14 54 -24 56 -22 5 5 41 155 42 173 0 9 -45 12
-192 12 l-191 0 42 -30 c35 -26 39 -33 30 -48 -7 -10 -23 -24 -38 -30 -14 -6
-33 -16 -41 -23 -13 -9 -40 2 -141 60 l-125 71 -127 0 -127 0 1 -192z m525
-913 c-3 -9 0 -15 9 -15 8 0 17 -15 21 -36 5 -25 9 -32 15 -22 6 8 9 9 9 1 0
-15 -59 -45 -73 -36 -5 3 -7 2 -4 -4 4 -6 -9 -18 -28 -29 -30 -16 -37 -16 -62
-3 -15 7 -31 18 -34 23 -4 5 -13 6 -20 4 -8 -3 5 -15 31 -28 l45 -24 -32 -9
c-18 -6 -33 -14 -33 -18 0 -16 -21 -9 -76 24 -67 40 -67 60 -1 67 26 3 46 10
45 15 -3 13 103 64 120 57 7 -2 12 1 10 7 -2 6 8 17 22 25 33 19 43 19 36 1z"/>
<path d="M1845 1764 c149 -35 279 -67 291 -72 20 -7 19 -11 -33 -222 -29 -118
-53 -220 -53 -226 0 -5 19 -14 43 -20 47 -10 49 -17 28 -83 l-15 -43 -42 6
c-41 5 -43 4 -53 -27 -11 -35 -81 -325 -81 -336 0 -4 57 -12 128 -17 70 -6
143 -18 162 -26 126 -55 185 -78 204 -79 20 -1 20 -1 -2 -7 -13 -4 -132 -6
-266 -4 l-243 3 4 27 3 27 -10 -25 c-6 -14 -43 -155 -81 -315 -38 -159 -72
-298 -75 -307 -5 -17 23 -18 495 -18 l501 0 0 306 0 306 -109 -7 c-103 -7
-110 -6 -130 14 -12 12 -27 19 -33 15 -6 -4 -8 -3 -4 4 3 6 -18 22 -54 39 -33
15 -60 31 -60 34 0 4 27 12 60 19 60 13 261 9 308 -5 l22 -7 0 191 0 191 -200
0 -201 0 15 28 c8 15 27 39 43 54 67 64 242 53 326 -20 16 -14 17 2 17 326 l0
342 -587 -1 -588 0 270 -65z"/>
<path d="M975 1173 c-46 -201 -124 -523 -151 -623 -14 -52 -29 -111 -34 -130
-4 -19 -10 -46 -14 -61 l-7 -25 193 -49 c106 -26 263 -68 348 -92 85 -24 172
-46 192 -49 l37 -6 20 68 c52 182 114 414 146 554 20 85 43 180 52 210 8 30
15 70 16 89 2 34 0 35 -48 49 -284 78 -383 104 -460 122 -49 11 -112 27 -140
35 -27 7 -66 17 -86 20 l-37 7 -27 -119z m117 0 c10 3 40 -2 68 -10 29 -8 69
-13 90 -11 21 2 36 0 34 -4 -2 -4 13 -5 33 -3 31 4 34 3 13 -4 -14 -5 -19 -9
-12 -10 7 -1 10 -5 7 -11 -4 -6 5 -10 20 -10 15 0 24 -4 20 -10 -6 -10 8 -12
87 -15 20 0 43 -7 52 -14 8 -7 38 -14 65 -14 27 -1 44 -5 39 -8 -6 -4 -2 -10
10 -13 11 -4 26 -13 32 -21 10 -12 8 -17 -11 -25 -19 -8 -20 -9 -4 -7 11 1 24
12 30 24 7 13 16 19 23 14 17 -10 22 -79 8 -105 -27 -50 -50 -77 -62 -72 -18
7 -45 -26 -35 -43 6 -9 11 -10 15 -3 4 6 14 9 24 6 14 -5 14 -4 3 4 -8 6 -21
8 -30 5 -13 -4 -14 -3 -2 5 10 7 21 7 34 1 19 -11 18 -36 -2 -31 -7 1 -10 -2
-6 -8 3 -6 11 -8 16 -5 5 4 9 2 9 -3 0 -19 -14 -21 -34 -5 -21 18 -21 18 -2
-4 10 -13 23 -20 27 -17 11 6 11 1 3 -20 -3 -9 -10 -16 -16 -16 -5 0 -7 4 -3
9 3 6 -5 15 -17 22 -13 6 -31 20 -41 31 -10 10 -21 17 -25 14 -4 -2 -14 3 -22
12 -13 14 -12 15 2 10 9 -4 24 -1 33 6 16 11 14 14 -18 29 -33 16 -54 43 -42
55 3 3 5 -1 5 -8 0 -9 4 -8 13 4 13 18 14 18 14 0 0 -11 -5 -22 -11 -26 -7 -5
-5 -8 6 -8 21 0 32 16 18 25 -8 5 -7 11 1 21 6 8 10 14 8 15 -42 8 -49 7 -59
-11 -11 -20 -40 -17 -40 4 0 9 -30 11 -117 9 -89 -3 -114 -1 -100 7 9 6 17 16
17 23 0 7 -4 6 -10 -3 -7 -11 -12 -12 -21 -3 -9 9 -9 23 -1 52 12 48 9 52 -11
13 -9 -20 -11 -36 -5 -53 6 -15 5 -25 -2 -27 -5 -2 -8 -8 -4 -13 3 -5 -11 -9
-30 -9 -29 0 -36 -4 -36 -20 0 -30 -36 -63 -58 -51 -17 9 -47 -10 -35 -23 4
-3 1 -6 -6 -6 -6 0 -14 7 -17 15 -6 14 -8 13 -21 -2 -14 -17 -14 -17 -9 0 3 9
1 17 -4 17 -6 0 -10 -6 -10 -14 0 -7 -11 -16 -25 -18 -18 -4 -25 -1 -25 11 0
30 21 90 36 106 9 8 11 15 5 15 -7 0 -7 8 -1 26 6 14 10 37 10 50 0 14 3 23 8
21 4 -3 7 7 8 21 1 36 14 104 24 122 4 8 5 21 3 28 -3 7 8 1 23 -13 16 -15 36
-24 46 -22z m117 -445 c35 -24 71 -48 81 -53 16 -9 16 -17 4 -55 -3 -8 -5 -16
-4 -18 1 -2 -6 -14 -14 -28 -11 -15 -12 -24 -5 -24 13 0 3 -53 -12 -58 -5 -2
-7 -8 -3 -13 6 -10 -16 -119 -24 -119 -2 0 -41 27 -86 61 l-82 60 35 145 c19
79 38 144 41 144 3 0 34 -19 69 -42z m-309 -250 c19 -12 46 -23 60 -23 63 -4
63 -4 49 -22 -13 -17 -12 -17 5 -3 16 13 20 12 32 -5 8 -10 14 -13 14 -7 0 7
4 12 9 12 5 0 8 -15 6 -32 -4 -31 -3 -32 10 -14 8 11 15 14 15 7 0 -7 5 -9 10
-6 6 3 10 1 10 -6 0 -7 3 -10 6 -6 8 8 44 -25 38 -35 -3 -4 6 -4 20 1 19 8 28
6 38 -6 12 -15 10 -16 -15 -9 -20 5 -29 2 -33 -9 -9 -23 -94 -21 -95 3 -1 16
-2 16 -6 0 -2 -10 -8 -18 -13 -18 -15 0 -30 28 -25 46 4 12 2 11 -6 -3 -12
-23 -29 -31 -29 -14 0 5 -7 12 -16 15 -8 3 -12 2 -9 -4 8 -14 -8 -13 -22 1
-15 15 -5 39 13 32 8 -3 14 0 14 6 0 6 -7 11 -16 11 -11 0 -14 6 -9 20 6 18 1
22 -22 19 -3 0 -10 6 -15 15 -5 9 -16 16 -24 16 -8 0 -13 4 -10 9 9 14 -20 21
-33 8 -9 -9 -11 -8 -6 6 9 22 13 22 55 -5z"/>
<path d="M1173 703 c-35 -5 -62 -36 -42 -49 7 -4 7 -9 2 -13 -6 -3 -13 -23
-17 -44 -6 -34 -5 -38 21 -48 15 -5 44 -25 63 -42 19 -18 32 -28 28 -23 -4 5
-1 18 7 30 8 11 15 28 15 37 0 9 7 22 15 29 10 8 12 17 6 24 -5 6 -16 31 -24
56 -16 47 -21 50 -74 43z"/>
</g>
</svg>
