<svg xmlns="http://www.w3.org/2000/svg" xmlns:xlink="http://www.w3.org/1999/xlink" version="1.1" x="0px" y="0px" viewBox="0 0 64 72.5" style="enable-background:new 0 0 64 58;" xml:space="preserve"><g><rect x="38" y="0" width="2" height="2"/><rect x="34" y="0" width="2" height="2"/><rect x="30" y="0" width="2" height="2"/><polygon points="42,0 42,2 62,2 62,56 0,56 0,58 64,58 64,0  "/><path d="M20,14c2.2,0,4,1.8,4,4v36h2V18c0-3.3-2.7-6-6-6V14z"/><rect y="50" width="20" height="2"/><rect y="46" width="20" height="2"/><rect y="42" width="20" height="2"/><rect y="38" width="20" height="2"/><path d="M44,34c7.7,0,14-6.3,14-14c0-7.7-6.3-14-14-14c-7.7,0-14,6.3-14,14C30,27.7,36.3,34,44,34z M55.9,19h-4   c-0.1-1.8-0.3-3.5-0.7-5h3.1C55.2,15.5,55.8,17.2,55.9,19z M43,28v3.8c-1.3-0.5-2.5-1.9-3.4-3.8H43z M38.8,26   c-0.4-1.5-0.7-3.2-0.8-5h5v5H38.8z M45,31.8V28h3.4C47.5,30,46.3,31.3,45,31.8z M45,26v-5h5c-0.1,1.8-0.4,3.5-0.8,5H45z M52,21h4   c-0.2,1.8-0.7,3.5-1.6,5h-3.1C51.7,24.5,51.9,22.8,52,21z M50,19h-5v-5h4.2C49.6,15.5,49.9,17.2,50,19z M45,12V8.2   c1.3,0.5,2.5,1.9,3.4,3.8H45z M43,8.2V12h-3.4C40.5,10,41.7,8.7,43,8.2z M43,14v5h-5c0.1-1.8,0.4-3.5,0.8-5H43z M36,19h-4   c0.2-1.8,0.7-3.5,1.6-5h3.1C36.3,15.5,36.1,17.2,36,19z M36,21c0.1,1.8,0.3,3.5,0.7,5h-3.1c-0.9-1.5-1.4-3.2-1.6-5H36z M35.1,28   h2.3c0.4,1.1,0.9,2,1.5,2.8C37.4,30.1,36.1,29.2,35.1,28z M49.1,30.8c0.6-0.8,1.1-1.8,1.5-2.8h2.3C51.9,29.2,50.6,30.1,49.1,30.8z    M52.9,12h-2.3c-0.4-1.1-0.9-2-1.5-2.8C50.6,9.9,51.9,10.8,52.9,12z M38.9,9.2c-0.6,0.8-1.1,1.8-1.5,2.8h-2.3   C36.1,10.8,37.4,9.9,38.9,9.2z"/><rect x="12" y="18" width="2" height="2"/><rect x="12" y="22" width="2" height="2"/><path d="M20,32H2V18c0-2.2,1.8-4,4-4h7c3.9,0,7-3.1,7-7s-3.1-7-7-7S6,3.1,6,7c0,2,0.8,3.7,2.1,5H6c-3.3,0-6,2.7-6,6v16h20V32z M8,7   c0-2.8,2.2-5,5-5s5,2.2,5,5c0,2.8-2.2,5-5,5S8,9.8,8,7z"/><rect x="32" y="50" width="2" height="2"/><rect x="36" y="50" width="2" height="2"/><rect x="34" y="46" width="2" height="2"/><rect x="30" y="46" width="2" height="2"/><rect x="32" y="42" width="2" height="2"/><rect x="42" y="46" width="2" height="2"/><rect x="36" y="42" width="2" height="2"/><rect x="40" y="42" width="2" height="2"/><rect x="44" y="42" width="2" height="2"/><rect x="46" y="38" width="2" height="2"/><rect x="42" y="38" width="2" height="2"/><rect x="46" y="46" width="2" height="2"/><rect x="50" y="38" width="2" height="2"/><rect x="54" y="38" width="2" height="2"/><rect x="52" y="42" width="2" height="2"/><rect x="56" y="42" width="2" height="2"/><rect x="56" y="50" width="2" height="2"/><rect x="50" y="46" width="2" height="2"/><rect x="54" y="46" width="2" height="2"/><rect x="44" y="50" width="2" height="2"/><rect x="48" y="50" width="2" height="2"/><rect x="30" y="38" width="2" height="2"/><rect x="34" y="38" width="2" height="2"/><rect x="38" y="38" width="2" height="2"/></g><text x="0" y="73" fill="#000000" font-size="5px" font-weight="bold" font-family="'Helvetica Neue', Helvetica, Arial-Unicode, Arial, Sans-serif">Created by Anatolii Babii</text><text x="0" y="78" fill="#000000" font-size="5px" font-weight="bold" font-family="'Helvetica Neue', Helvetica, Arial-Unicode, Arial, Sans-serif">from the Noun Project</text></svg>