<?xml version="1.0" standalone="no"?>
<!DOCTYPE svg PUBLIC "-//W3C//DTD SVG 20010904//EN"
 "http://www.w3.org/TR/2001/REC-SVG-20010904/DTD/svg10.dtd">
<svg version="1.0" xmlns="http://www.w3.org/2000/svg"
 width="225.000000pt" height="225.000000pt" viewBox="0 0 225.000000 225.000000"
 preserveAspectRatio="xMidYMid meet">
<metadata>
Created by potrace 1.16, written by Peter Selinger 2001-2019
</metadata>
<g transform="translate(0.000000,225.000000) scale(0.100000,-0.100000)"
fill="#000000" stroke="none">
<path d="M420 2133 c-8 -3 -23 -12 -32 -21 -17 -14 -18 -57 -18 -642 0 -625 0
-627 21 -646 20 -18 44 -19 405 -22 l384 -3 0 65 c0 91 22 185 80 344 l50 137
-32 29 c-67 58 -190 182 -200 199 -8 16 -14 13 -58 -26 -138 -124 -344 -70
-404 106 -21 62 -20 95 4 160 21 56 73 114 128 141 77 39 188 27 257 -28 l29
-23 39 48 c21 27 40 49 41 49 2 0 52 -59 112 -131 l109 -132 3 164 c3 177 -3
209 -44 228 -26 11 -843 15 -874 4z"/>
<path d="M1079 1937 c-48 -60 -63 -99 -63 -162 -1 -103 33 -159 183 -305 l129
-126 -43 -111 c-119 -312 -118 -477 4 -604 48 -49 71 -57 116 -40 16 6 25 0
49 -33 16 -23 30 -43 32 -45 8 -9 193 142 187 153 -4 6 -17 25 -30 42 l-23 30
50 183 c60 219 63 265 20 346 -37 70 -49 86 -279 360 -101 121 -207 248 -235
282 -28 34 -55 62 -61 62 -5 1 -22 -14 -36 -32z"/>
<path d="M728 1911 c-104 -66 -128 -214 -52 -318 25 -33 91 -79 101 -69 3 3
-5 10 -18 15 -13 5 -20 10 -16 10 5 1 0 14 -9 30 -15 26 -20 28 -38 19 -20
-10 -20 -10 -4 8 12 14 15 31 11 67 -5 44 -7 47 -37 48 -30 2 -30 2 -4 6 21 3
29 11 34 31 3 15 7 36 9 47 2 10 -3 27 -12 37 -9 10 -11 18 -5 18 6 0 14 -5
17 -11 4 -5 19 10 35 34 15 25 34 47 42 50 7 3 8 6 2 6 -5 1 -31 -12 -56 -28z"/>
<path d="M945 763 c12 -48 87 -191 121 -231 43 -50 95 -76 139 -68 31 6 35 3
70 -44 l36 -50 80 62 c43 34 79 66 79 72 -1 6 -12 24 -25 41 -21 25 -30 29
-65 26 -43 -3 -78 14 -113 53 -21 25 -77 135 -77 154 0 9 -32 12 -126 12
l-126 0 7 -27z"/>
<path d="M1498 498 l-187 -142 32 -44 c17 -24 35 -46 39 -48 4 -3 45 24 90 59
46 35 129 98 186 142 56 43 102 82 102 87 0 11 -61 88 -69 88 -3 0 -90 -64
-193 -142z"/>
<path d="M1765 531 c-11 -10 -99 -78 -195 -151 -96 -73 -179 -136 -184 -140
-11 -11 74 -122 89 -116 8 3 350 259 404 302 4 4 -82 123 -89 124 -3 0 -14 -8
-25 -19z"/>
</g>
</svg>
