<?xml version="1.0" standalone="no"?>
<!DOCTYPE svg PUBLIC "-//W3C//DTD SVG 20010904//EN"
 "http://www.w3.org/TR/2001/REC-SVG-20010904/DTD/svg10.dtd">
<svg version="1.0" xmlns="http://www.w3.org/2000/svg"
 width="256.000000pt" height="197.000000pt" viewBox="0 0 256.000000 197.000000"
 preserveAspectRatio="xMidYMid meet">
<metadata>
Created by potrace 1.16, written by Peter Selinger 2001-2019
</metadata>
<g transform="translate(0.000000,197.000000) scale(0.100000,-0.100000)"
fill="#000000" stroke="none">
<path d="M830 1896 c-47 -7 -110 -18 -140 -25 -79 -17 -180 -88 -104 -73 29 5
44 -10 44 -44 0 -13 -8 -24 -20 -27 -13 -3 -18 -10 -14 -21 4 -10 -1 -18 -12
-23 -11 -4 -28 -15 -38 -25 -11 -10 -27 -18 -36 -18 -9 0 -20 -3 -24 -7 -4 -5
-24 -8 -44 -9 -51 -1 -228 -50 -267 -74 l-33 -20 -12 29 c-17 43 -29 102 -19
95 5 -3 9 4 9 16 0 11 11 32 26 46 28 29 64 27 100 -7 11 -10 23 -19 27 -19 3
0 22 25 42 55 51 80 137 124 151 78 10 -33 21 -48 38 -51 9 -2 16 3 16 12 0
14 -12 20 -32 17 -5 0 -8 7 -8 17 0 29 -35 44 -79 32 -41 -11 -70 -34 -112
-90 -26 -34 -26 -34 -67 -21 -53 18 -88 8 -112 -32 -27 -43 -25 -101 4 -163
24 -52 54 -86 42 -47 -5 17 3 24 51 45 32 14 74 29 93 33 19 3 49 11 65 15 17
5 57 14 90 20 33 7 76 20 95 30 19 10 51 21 70 24 19 2 51 8 70 11 l35 7 -45
-27 c-125 -74 -196 -153 -266 -292 -43 -85 -58 -128 -64 -180 -6 -43 -5 -69 1
-71 5 -2 7 -20 4 -40 -5 -25 -3 -33 3 -23 16 23 25 -61 17 -170 -7 -103 6
-199 28 -199 7 0 6 -5 -3 -11 -12 -8 -10 -9 7 -4 22 6 23 4 38 -60 9 -40 25
-48 51 -24 23 22 45 10 26 -14 -5 -7 -6 -21 -1 -32 4 -12 8 -14 8 -6 1 8 8 23
17 32 17 19 29 73 14 64 -5 -3 -7 -11 -4 -19 3 -7 -2 -13 -11 -13 -13 0 -16 7
-11 30 3 16 12 35 20 41 27 22 86 249 86 334 0 28 2 52 5 52 3 0 13 -8 24 -19
10 -10 25 -21 32 -23 11 -4 11 -9 -3 -25 -10 -11 -18 -24 -18 -29 1 -5 8 0 18
11 23 28 48 37 100 39 l43 2 -6 -34 c-4 -24 1 -47 19 -87 15 -29 26 -61 26
-69 0 -38 34 -96 70 -120 62 -41 77 -125 34 -191 -9 -14 -38 -38 -63 -53 -43
-25 -52 -27 -156 -24 -142 3 -196 20 -236 75 -24 33 -29 36 -29 19 0 -12 3
-22 8 -22 4 0 15 -12 25 -25 17 -24 17 -24 0 -19 -10 3 -4 -3 13 -14 17 -11
46 -23 65 -27 62 -13 66 -21 22 -43 -38 -20 -60 -21 -327 -24 -212 -2 -287 -6
-290 -15 -3 -8 7 -14 27 -18 47 -8 452 1 467 10 8 5 11 4 6 -3 -4 -7 4 -9 27
-5 32 5 33 4 34 -32 2 -81 73 -101 142 -39 22 20 39 40 36 43 -2 4 5 7 16 7
13 0 17 -5 13 -18 -9 -30 59 -54 136 -48 l25 2 -25 8 -25 8 28 1 c40 1 74 28
87 66 9 28 8 40 -10 74 -11 23 -25 41 -32 41 -6 0 4 10 23 23 97 65 89 201
-16 276 -33 24 -45 40 -54 75 -6 25 -11 50 -11 55 0 7 30 11 78 11 80 0 115
14 146 55 12 17 16 18 32 5 18 -15 18 -14 1 13 -10 15 -16 35 -15 45 2 13 -4
17 -27 17 -25 0 -30 4 -33 28 -3 21 1 27 17 27 11 0 27 -10 36 -22 17 -23 17
-23 11 12 -3 19 -1 42 4 50 7 11 10 6 11 -20 0 -19 4 -44 9 -55 5 -12 6 1 3
35 -5 52 -3 57 28 85 l32 30 -22 -32 c-18 -27 -21 -41 -16 -75 3 -24 7 -50 8
-58 2 -8 6 -20 10 -27 4 -6 2 -13 -4 -15 -13 -4 12 -33 74 -86 21 -18 42 -30
47 -27 4 3 10 -2 14 -10 7 -19 36 -20 36 -1 0 17 58 27 82 15 9 -5 32 -9 50
-10 l33 0 -42 -19 c-49 -22 -53 -37 -17 -64 20 -14 38 -17 82 -14 32 3 64 8
73 12 15 6 16 -1 11 -63 -3 -49 -1 -71 7 -71 6 0 11 7 11 15 0 8 5 15 11 15 5
0 7 5 4 10 -4 6 -4 34 0 61 5 36 11 49 21 45 10 -4 11 0 3 21 -7 19 -6 28 2
34 10 6 10 11 0 23 -9 11 -10 16 -2 16 6 0 11 9 11 20 0 11 -5 20 -11 20 -6 0
-8 -7 -5 -16 3 -8 2 -12 -4 -9 -18 11 -11 40 19 81 39 54 37 71 -13 77 -22 3
-44 3 -49 0 -13 -8 14 -23 41 -23 29 0 28 -21 -2 -50 -14 -12 -28 -35 -31 -51
-5 -23 -10 -27 -23 -20 -9 5 -47 11 -84 13 -56 4 -71 9 -87 29 -24 29 -24 31
-9 80 15 50 -3 112 -38 136 -24 15 -27 15 -56 -7 -28 -20 -32 -21 -40 -6 -5 9
-18 24 -29 34 -18 18 -18 18 21 15 35 -3 45 2 80 37 28 28 40 48 40 69 0 39
-26 64 -61 59 -20 -3 -26 -1 -21 10 4 12 0 14 -21 8 -15 -3 -29 -1 -33 5 -5 8
-9 7 -14 -2 -6 -9 -12 -9 -25 4 -9 10 -12 17 -6 17 6 0 11 7 11 15 0 8 11 25
25 39 13 13 27 37 31 52 6 22 2 32 -20 51 -31 27 -53 29 -83 8 -19 -14 -22
-13 -33 15 -17 40 -24 44 -59 25 -58 -29 -67 -136 -13 -160 12 -5 22 -13 22
-17 0 -5 7 -8 15 -8 20 0 19 -15 -2 -36 -11 -11 -18 -13 -21 -5 -2 6 -8 11
-14 11 -18 0 -40 31 -35 50 5 21 -7 27 -18 9 -11 -17 4 -56 33 -86 l28 -28 -7
-100 c-5 -61 -4 -101 2 -103 12 -5 12 -42 -1 -42 -5 0 -10 5 -10 10 0 14 -34
-19 -49 -47 -9 -17 -21 -23 -49 -25 l-37 -1 33 -4 c51 -6 34 -24 -54 -60 -92
-37 -107 -39 -102 -15 3 18 97 74 110 66 4 -3 8 0 8 6 0 14 -32 5 -77 -20 -31
-18 -31 -18 -37 3 -4 16 0 26 16 37 53 35 157 131 163 150 4 11 10 18 15 15 9
-6 20 18 20 46 0 16 -4 17 -26 9 -45 -18 -53 -13 -48 28 2 20 9 54 15 75 9 28
9 46 1 70 -40 116 -49 139 -61 146 -7 5 -13 12 -14 17 -1 5 -6 8 -10 6 -5 -1
-6 1 -3 6 8 14 -37 51 -75 62 -19 6 -52 10 -74 11 -37 0 -38 1 -15 10 14 6
169 12 347 15 332 5 483 -4 680 -42 41 -8 78 -14 81 -14 9 -1 -100 -59 -111
-60 -4 0 -5 17 -2 38 l6 37 -23 -37 c-26 -43 -33 -46 -48 -18 -12 22 -35 26
-45 9 -4 -5 1 -19 10 -29 16 -18 15 -20 -23 -39 -50 -26 -148 -114 -152 -138
-1 -10 -3 -59 -4 -109 -1 -88 -2 -90 -23 -86 -13 2 -23 2 -23 0 0 -3 19 -25
43 -50 23 -24 53 -59 66 -76 13 -18 28 -32 35 -32 6 0 4 5 -4 10 -8 5 -16 22
-17 37 -2 25 -1 26 11 11 7 -10 17 -18 22 -18 4 0 3 5 -4 12 -7 7 -12 16 -12
20 0 12 48 10 55 -2 3 -5 13 -10 21 -10 8 0 13 4 10 9 -3 5 11 11 32 14 20 2
63 16 95 30 47 21 61 33 73 63 8 20 13 38 11 40 -2 2 -22 -12 -44 -30 -53 -46
-159 -81 -221 -72 -25 3 -50 10 -54 14 -4 4 -15 38 -24 74 -19 75 -13 126 15
152 17 16 19 15 25 -15 3 -18 1 -38 -5 -45 -9 -11 -7 -14 7 -14 11 0 36 -3 57
-6 32 -6 36 -4 31 10 -3 9 -2 16 4 16 16 0 0 50 -21 65 -12 8 -32 15 -45 15
-20 0 -22 2 -12 15 6 8 33 27 58 42 41 23 58 27 128 27 72 1 86 -2 118 -25 34
-24 86 -90 86 -109 0 -6 4 -10 10 -10 32 0 -61 135 -116 169 -24 14 -44 28
-43 31 0 3 16 18 35 33 31 26 37 28 66 18 18 -7 50 -24 71 -38 30 -21 50 -27
89 -26 31 0 54 6 59 14 6 10 40 14 116 17 128 4 153 12 194 63 33 42 49 123
31 155 -9 15 -11 6 -9 -41 4 -112 -45 -148 -214 -159 -58 -3 -121 -11 -139
-16 -26 -7 -39 -6 -57 5 -12 8 -26 15 -30 15 -4 0 -1 -4 7 -10 8 -5 12 -11 9
-15 -7 -6 -59 33 -59 45 0 5 10 10 23 12 22 4 21 4 -5 17 -18 9 -24 19 -20 30
12 32 43 55 83 60 36 5 42 10 54 43 7 21 10 40 6 43 -3 4 -1 5 4 4 6 -2 24 5
42 14 43 23 58 21 81 -8 19 -24 20 -25 67 -9 30 11 65 15 98 11 45 -4 48 -3
32 9 -22 16 -112 18 -150 4 -21 -8 -31 -6 -55 11 -33 25 -58 22 -111 -14 -20
-13 -39 -37 -45 -57 -11 -32 -14 -34 -47 -32 -20 2 -44 -1 -55 -7 -15 -8 -26
-5 -50 13 -48 35 -274 88 -302 71 -15 -9 -71 5 -64 16 9 15 -13 10 -26 -6 -9
-11 -16 -12 -25 -5 -9 8 -18 6 -30 -6 -13 -13 -21 -14 -38 -6 l-22 11 23 0
c30 1 18 21 -12 21 -12 0 -27 5 -33 11 -16 16 -489 20 -593 5z m340 -26 c0 -5
-4 -10 -9 -10 -6 0 -13 5 -16 10 -3 6 1 10 9 10 9 0 16 -4 16 -10z m109 -5 c7
-7 -5 -9 -34 -7 -25 2 -45 7 -45 11 0 10 68 7 79 -4z m95 0 c-4 -8 -8 -15 -10
-15 -2 0 -4 7 -4 15 0 8 4 15 10 15 5 0 7 -7 4 -15z m40 -6 c-8 -14 -21 -11
-21 5 0 8 6 12 14 9 7 -3 10 -9 7 -14z m-79 -9 c-3 -5 -12 -7 -20 -3 -21 7
-19 13 6 13 11 0 18 -4 14 -10z m100 -33 c98 -3 324 -48 385 -76 25 -12 36
-19 25 -16 -96 21 -248 48 -330 57 -94 10 -167 8 -675 -16 -66 -3 -139 -15
-161 -27 -13 -7 -16 -3 -16 16 0 21 5 25 53 31 30 3 51 10 48 15 -3 5 8 6 23
3 15 -3 42 1 59 8 29 12 316 15 589 5z m340 -35 c-3 -3 -11 0 -18 7 -9 10 -8
11 6 5 10 -3 15 -9 12 -12z m-1474 -35 c-10 -9 -11 -8 -5 6 3 10 9 15 12 12 3
-3 0 -11 -7 -18z m1589 13 c8 -5 11 -10 5 -10 -5 0 -17 5 -25 10 -8 5 -10 10
-5 10 6 0 17 -5 25 -10z m40 -31 c0 -6 -4 -7 -10 -4 -5 3 -10 11 -10 16 0 6 5
7 10 4 6 -3 10 -11 10 -16z m30 -12 c0 -8 -7 -14 -15 -14 -11 0 -12 4 -4 14 6
7 13 13 15 13 2 0 4 -6 4 -13z m-1204 -76 c-6 -9 -46 -22 -46 -15 0 3 10 9 23
14 29 11 29 11 23 1z m59 -31 c17 -7 16 -9 -10 -11 -68 -4 -81 -6 -102 -13
-12 -4 -46 -33 -74 -64 -29 -31 -48 -50 -44 -42 4 8 -4 2 -19 -15 -24 -28 -27
-35 -25 -52 0 -3 -6 -10 -15 -15 -9 -5 -16 -14 -16 -19 0 -6 5 -7 12 -3 7 4 8
3 4 -5 -4 -6 -11 -9 -16 -6 -11 7 -16 -11 -19 -64 -2 -25 -9 -54 -16 -65 -19
-30 -57 -125 -65 -166 -6 -27 -8 -18 -9 42 -1 101 37 209 108 305 28 37 54 71
58 75 133 123 182 146 248 118z m70 -28 c-6 -7 -35 18 -35 31 0 5 9 2 20 -8
11 -10 18 -20 15 -23z m291 -61 c-10 -11 -21 -32 -25 -47 -7 -28 -8 -26 -20
24 -12 46 -11 55 4 79 l17 26 20 -32 c19 -30 19 -33 4 -50z m-384 29 c-118
-42 -164 -82 -200 -176 -20 -51 -41 -211 -22 -166 5 13 14 20 20 17 6 -4 10
14 10 47 1 75 49 162 110 200 55 34 153 57 177 42 49 -31 115 -253 81 -276
-21 -15 -167 -2 -230 20 -72 26 -77 16 -35 -69 39 -76 71 -102 140 -109 l52
-6 -52 -27 c-29 -15 -66 -27 -83 -27 -34 0 -79 20 -99 44 -7 9 -18 13 -24 9
-6 -3 -7 -1 -3 5 4 6 -2 29 -14 51 -11 22 -20 48 -21 58 0 10 -5 2 -11 -17 -8
-27 -6 -42 7 -70 12 -25 17 -58 17 -113 -1 -43 -3 -81 -6 -85 -2 -4 -16 -51
-30 -106 -15 -54 -34 -112 -42 -128 l-16 -31 -24 29 c-13 16 -21 35 -18 43 2
8 0 17 -6 21 -14 9 -13 29 10 195 6 39 12 120 14 181 2 61 9 120 14 130 5 11
14 30 20 44 6 14 24 55 40 92 48 107 160 198 242 198 34 -1 33 -1 -18 -20z
m133 10 c4 -6 11 -25 15 -43 9 -30 8 -31 -6 -12 -8 11 -21 27 -28 37 -14 16
-11 28 5 28 4 0 11 -5 14 -10z m381 -12 c13 -2 -3 -77 -17 -79 -5 -1 -14 -2
-21 -3 -6 0 -12 -11 -13 -24 -2 -29 -19 -46 -39 -39 -13 5 -12 10 9 31 26 26
32 60 15 86 -13 21 9 43 34 35 12 -4 26 -7 32 -7z m-716 -92 c0 -2 -8 -10 -17
-17 -16 -13 -17 -12 -4 4 13 16 21 21 21 13z m630 -86 c0 -5 -7 -10 -16 -10
-8 0 -12 5 -9 10 3 6 10 10 16 10 5 0 9 -4 9 -10z m-789 -33 c-10 -9 -11 -8
-5 6 3 10 9 15 12 12 3 -3 0 -11 -7 -18z m744 -14 c-3 -46 3 -63 19 -57 7 3
28 -10 47 -28 l34 -33 -25 -3 c-14 -2 -36 -13 -49 -25 -19 -16 -16 -11 8 21
18 23 29 42 24 42 -4 0 -14 -9 -21 -20 -17 -28 -32 -25 -33 8 -1 22 -3 19 -15
-18 -30 -98 -34 -94 -24 27 5 76 19 123 35 123 2 0 2 -17 0 -37z m95 -12 c-6
-12 -17 -21 -25 -21 -20 0 -19 5 8 41 16 22 23 27 25 15 2 -8 -2 -24 -8 -35z
m150 19 c12 -8 10 -14 -14 -39 -16 -17 -32 -28 -36 -26 -16 10 -18 46 -3 60
17 17 32 19 53 5z m-542 -137 c34 -3 62 -9 62 -12 0 -19 -34 -51 -53 -49 -12
0 -26 0 -32 -2 -22 -5 -33 2 -65 41 l-33 42 29 -7 c16 -3 57 -9 92 -13z m-488
-24 c0 -21 -16 -26 -23 -6 -6 17 3 38 14 31 5 -3 9 -14 9 -25z m360 6 c0 -7 5
-15 11 -17 6 -2 9 -13 7 -23 -3 -16 -8 -11 -25 22 -14 29 -16 40 -7 36 8 -3
14 -11 14 -18z m-287 -45 c-3 -11 -9 -20 -14 -20 -11 0 -11 3 -3 24 9 23 23
20 17 -4z m1091 -16 c3 -8 2 -12 -4 -9 -6 3 -10 10 -10 16 0 14 7 11 14 -7z
m-1075 -36 c0 -22 -1 -22 -9 -3 -8 18 -9 18 -9 -4 -1 -17 -4 -22 -11 -15 -14
14 -2 44 16 44 8 0 14 -10 13 -22z m930 -1 c-2 -1 -11 -8 -21 -15 -12 -10 -18
-10 -24 -1 -4 7 -3 9 4 5 6 -3 13 -2 17 4 3 5 11 10 17 10 6 0 9 -1 7 -3z
m-960 -89 c0 -46 -27 -177 -28 -141 -1 12 -6 25 -12 28 -12 8 -3 98 13 129 6
11 6 16 0 13 -5 -4 -7 4 -4 18 7 41 32 4 31 -47z m955 16 c-20 -29 -30 -31
-30 -5 0 11 4 17 8 15 5 -3 11 2 14 10 3 9 10 13 15 10 5 -3 2 -16 -7 -30z
m48 4 c-8 -8 -9 -4 -5 13 4 13 8 18 11 10 2 -7 -1 -18 -6 -23z m-362 -9 c0 -6
9 -9 20 -6 13 3 20 0 20 -9 0 -8 -9 -14 -19 -14 -19 0 -37 -42 -26 -60 11 -17
-44 -30 -121 -29 -49 1 -74 5 -74 13 0 6 8 13 18 14 9 1 51 6 92 11 l75 10
-82 -3 c-46 -1 -83 -2 -83 -1 0 1 33 15 74 29 41 15 77 34 80 42 6 17 26 19
26 3z m328 -49 c-11 -18 -38 -36 -38 -25 0 5 42 45 47 45 2 0 -2 -9 -9 -20z
m-298 -5 c0 -8 -7 -15 -16 -15 -14 0 -14 3 -4 15 7 8 14 15 16 15 2 0 4 -7 4
-15z m350 -10 c6 -8 9 -23 5 -35 -6 -17 -14 -21 -44 -19 -20 2 -43 -1 -51 -6
-13 -8 -13 -7 -1 8 8 10 16 15 19 12 8 -8 42 26 42 42 0 17 14 17 30 -2z m179
-60 c2 -3 0 -9 -5 -14 -12 -12 -146 8 -138 21 6 9 133 2 143 -7z m21 -57 c0
-9 -16 -12 -56 -10 -35 3 -54 0 -50 -6 7 -12 -49 -21 -66 -10 -9 5 -8 8 5 8
10 0 16 4 12 9 -5 9 32 15 118 19 24 1 37 -2 37 -10z m-50 -31 c0 -7 -14 -14
-32 -15 l-33 -2 25 15 c31 18 40 18 40 2z m-1204 -29 c2 -7 6 -24 10 -37 5
-17 3 -22 -6 -19 -15 5 -42 73 -32 82 7 8 25 -9 28 -26z m52 -103 c-3 -14 -1
-28 5 -32 6 -4 7 -1 2 8 -6 11 -5 11 5 2 18 -17 5 -49 -14 -34 -27 22 -25 74
3 80 2 1 1 -10 -1 -24z m510 -253 c-1 -4 2 -19 6 -33 9 -32 -15 -85 -41 -93
-18 -5 -74 -9 -104 -7 -19 1 -53 66 -46 85 3 8 0 19 -6 25 -8 8 1 11 34 11 24
0 64 6 89 14 43 13 71 12 68 -2z m-236 -42 c-2 -7 2 -16 8 -20 16 -10 -5 -43
-41 -64 -28 -17 -94 -22 -103 -8 -8 13 43 92 60 92 8 0 13 3 13 8 -3 17 3 19
34 12 19 -4 31 -12 29 -20z m-92 -120 c-20 -13 -33 -13 -25 0 3 6 14 10 23 10
15 0 15 -2 2 -10z"/>
<path d="M743 1403 c-21 -8 -16 -61 7 -73 11 -6 21 -9 21 -8 5 11 7 56 3 71
-5 18 -10 19 -31 10z"/>
<path d="M884 1375 c-6 -15 12 -45 27 -45 15 0 22 42 8 51 -20 13 -29 11 -35
-6z"/>
<path d="M516 1221 c-3 -4 -1 -35 4 -67 5 -32 7 -139 4 -236 -4 -150 -3 -178
9 -178 16 0 27 76 27 195 0 39 1 77 2 85 3 16 -10 139 -18 183 -6 27 -18 35
-28 18z"/>
<path d="M938 393 c7 -3 16 -2 19 1 4 3 -2 6 -13 5 -11 0 -14 -3 -6 -6z"/>
<path d="M1738 1402 c-16 -9 -28 -19 -28 -22 1 -11 72 -38 90 -33 22 6 27 28
8 37 -7 4 -2 4 12 2 l25 -5 -24 20 c-28 23 -48 24 -83 1z m47 -42 c3 -5 2 -10
-4 -10 -5 0 -13 5 -16 10 -3 6 -2 10 4 10 5 0 13 -4 16 -10z"/>
<path d="M1982 1341 c-10 -6 -13 -23 -9 -58 6 -63 -13 -110 -50 -124 -20 -8
-24 -12 -14 -19 8 -4 11 -15 8 -23 -8 -22 -95 -79 -122 -81 -16 -1 -23 -7 -22
-18 1 -21 10 -22 40 -7 12 7 19 8 15 4 -4 -4 2 -17 13 -29 11 -11 38 -57 60
-102 37 -75 39 -85 35 -152 -3 -49 -11 -83 -25 -108 -25 -43 -26 -45 -3 -37 9
4 -3 -10 -26 -30 -24 -20 -56 -38 -70 -39 -15 -1 -37 -2 -49 -3 -12 0 -25 -4
-28 -7 -4 -3 -18 -3 -33 1 -22 6 -26 13 -24 34 1 14 -2 28 -8 32 -6 3 -11 -4
-12 -17 0 -13 -2 -29 -2 -36 -1 -7 -12 -18 -26 -25 -30 -15 -50 -52 -50 -94 0
-17 -4 -34 -9 -38 -9 -5 -4 -34 14 -77 8 -20 79 -33 130 -24 41 8 66 40 76
100 l6 41 2 -38 c1 -42 39 -93 62 -84 10 4 9 6 -3 6 -27 1 -40 37 -37 100 1
32 -1 63 -5 69 -9 15 1 32 20 32 8 0 28 7 44 15 21 11 30 12 30 4 0 -16 11 -5
14 14 1 8 8 22 15 31 15 18 34 157 28 206 -6 47 -59 170 -98 227 -31 44 -32
47 -14 57 28 16 130 117 142 141 6 12 8 50 4 92 -5 57 -9 71 -19 64z m-200
-922 c-5 -136 -83 -190 -167 -116 -25 22 -25 23 -14 85 15 81 40 100 127 96
l57 -3 -3 -62z"/>
<path d="M2293 1290 c-29 -12 -30 -36 -2 -43 19 -5 21 -11 15 -44 -12 -67 -16
-75 -31 -63 -8 6 -22 33 -31 58 -25 68 -39 82 -69 68 -14 -6 -25 -13 -25 -16
1 -15 42 -51 53 -47 14 5 84 -109 74 -120 -7 -6 -87 58 -87 70 0 14 -22 7 -66
-23 -24 -17 -44 -36 -44 -42 0 -7 20 -30 45 -54 25 -23 45 -47 45 -54 0 -7
-12 -33 -26 -57 -31 -53 -29 -96 2 -48 12 20 25 29 38 27 32 -7 60 41 30 52
-8 3 -14 13 -14 23 0 9 -24 39 -52 66 -51 46 -52 49 -34 63 26 19 53 19 37 0
-9 -10 -7 -17 5 -27 14 -11 18 -11 29 4 6 9 16 13 20 9 5 -4 5 1 2 11 -4 9 -3
17 2 17 13 0 51 -45 51 -61 0 -12 2 -12 10 1 6 9 10 10 10 3 0 -6 9 -15 20
-18 16 -5 20 -15 20 -49 0 -27 6 -48 15 -56 19 -16 17 -111 -2 -117 -20 -7
-65 95 -71 161 -5 55 -6 58 -14 31 -10 -37 5 -105 38 -164 40 -73 30 -93 -53
-107 -34 -5 -43 -2 -72 25 -52 49 -70 39 -27 -14 21 -26 31 -30 77 -31 56 -2
85 8 106 35 11 14 12 14 13 1 1 -8 14 -25 30 -37 34 -28 67 -42 56 -25 -4 7
-13 12 -20 12 -16 0 -51 38 -43 46 4 4 22 -7 40 -23 27 -23 41 -29 66 -25 39
6 49 18 13 18 -15 0 -45 12 -67 27 l-40 28 38 -7 c25 -4 37 -3 37 6 0 7 8 9
19 5 16 -5 19 -1 18 15 -1 23 -8 25 -24 9 -8 -8 -17 -5 -32 10 -28 28 -53 28
-49 -1 2 -11 -3 -23 -11 -26 -11 -4 -12 1 -6 19 5 13 8 50 8 81 0 32 3 56 7
53 6 -4 50 30 50 40 0 2 -5 16 -10 31 -9 23 -14 26 -44 21 -33 -5 -34 -4 -34
28 0 24 9 44 33 69 36 40 84 52 65 17 -14 -27 -13 -34 6 -27 15 6 16 0 10 -41
-5 -41 -1 -57 39 -144 25 -53 50 -116 55 -140 l9 -44 -3 48 c-2 31 -19 78 -46
133 -38 77 -41 89 -35 135 16 113 -42 149 -122 76 -13 -11 -26 -17 -30 -14
-11 12 19 117 34 117 19 0 16 20 -4 36 -21 16 -21 16 -50 4z m-99 -355 c-4 -8
-11 -15 -16 -15 -6 0 -5 6 2 15 7 8 14 15 16 15 2 0 1 -7 -2 -15z"/>
<path d="M2383 1138 c-26 -43 -1 -93 30 -58 9 11 12 20 7 20 -6 0 -10 9 -10
19 0 25 -16 36 -27 19z"/>
<path d="M252 1097 c-18 -8 -22 -16 -17 -31 8 -24 7 -93 -1 -119 -8 -25 -24
-17 -51 26 -23 36 -23 37 -3 37 25 0 25 12 0 35 -27 25 -73 13 -68 -18 2 -14
9 -21 20 -19 11 2 25 -13 42 -48 23 -46 24 -50 7 -50 -43 0 -68 -70 -32 -90
18 -9 20 -7 19 20 -1 17 -5 30 -10 30 -5 0 -3 7 6 15 8 8 17 15 20 15 3 0 3
-33 1 -72 -11 -148 -12 -208 -3 -208 4 0 8 -8 9 -17 0 -11 3 -13 6 -5 2 6 8
10 13 7 4 -3 11 17 15 43 3 26 13 71 22 101 10 36 13 69 8 100 -4 25 -8 55
-10 67 -4 27 17 117 31 135 32 41 19 65 -24 46z"/>
<path d="M274 922 c16 -18 17 -31 12 -86 -7 -57 -5 -69 20 -117 15 -30 36 -76
46 -104 16 -42 18 -44 13 -15 -3 19 -22 70 -42 113 -34 73 -36 80 -25 125 11
51 0 91 -28 100 -11 4 -10 0 4 -16z"/>
<path d="M651 918 c-10 -26 -12 -192 -2 -183 5 6 19 205 13 205 -1 0 -6 -10
-11 -22z"/>
<path d="M2423 933 c-18 -7 -16 -43 2 -43 18 0 31 28 19 39 -5 5 -15 6 -21 4z"/>
<path d="M1778 895 c-3 -22 -9 -47 -12 -55 -4 -9 0 -24 8 -35 14 -19 16 -19
32 -3 14 14 16 22 7 40 -6 13 -15 39 -20 58 l-9 35 -6 -40z"/>
<path d="M2180 880 c-11 -7 -12 -12 -3 -21 13 -13 33 -4 33 17 0 16 -9 18 -30
4z"/>
<path d="M1116 783 c-3 -43 -9 -88 -12 -100 -4 -13 -2 -23 4 -23 13 0 19 28
28 123 4 49 3 77 -3 77 -6 0 -13 -35 -17 -77z"/>
<path d="M2191 806 c-9 -11 -8 -15 5 -20 23 -9 54 2 54 20 0 18 -44 19 -59 0z"/>
<path d="M97 758 c-26 -27 -45 -53 -42 -58 4 -6 1 -10 -6 -10 -19 0 -4 -91 17
-107 23 -17 66 -13 72 5 3 11 0 12 -16 3 -31 -17 -52 10 -52 66 0 37 5 50 31
74 17 16 35 29 40 29 4 0 13 9 18 19 22 39 -14 27 -62 -21z"/>
<path d="M1390 791 c0 -9 30 -24 36 -18 2 1 -6 8 -16 15 -11 7 -20 8 -20 3z"/>
<path d="M1886 773 c9 -38 14 -42 14 -10 0 14 -5 29 -10 32 -7 4 -8 -3 -4 -22z"/>
<path d="M1753 733 c-1 -18 2 -31 6 -28 5 2 18 -5 30 -16 12 -12 24 -19 25
-18 9 10 26 49 26 58 0 6 -6 8 -14 5 -8 -3 -12 -13 -9 -25 3 -10 0 -19 -6 -19
-6 0 -11 5 -11 11 0 5 -4 7 -10 4 -6 -4 -10 8 -10 28 0 45 -26 46 -27 0z"/>
<path d="M1711 744 c0 -11 3 -14 6 -6 3 7 2 16 -1 19 -3 4 -6 -2 -5 -13z"/>
<path d="M588 669 c-9 -16 -14 -29 -9 -29 8 0 34 50 29 56 -2 1 -11 -11 -20
-27z"/>
<path d="M1720 690 c0 -5 5 -10 10 -10 6 0 10 5 10 10 0 6 -4 10 -10 10 -5 0
-10 -4 -10 -10z"/>
<path d="M2455 690 l-30 -8 33 -1 c17 0 32 4 32 9 0 6 -1 9 -2 9 -2 -1 -16 -5
-33 -9z"/>
<path d="M1662 609 c2 -7 10 -15 17 -17 8 -3 12 1 9 9 -2 7 -10 15 -17 17 -8
3 -12 -1 -9 -9z"/>
<path d="M370 540 c0 -5 5 -10 11 -10 5 0 7 5 4 10 -3 6 -8 10 -11 10 -2 0 -4
-4 -4 -10z"/>
<path d="M350 480 c-9 -6 -10 -10 -3 -10 6 0 15 5 18 10 8 12 4 12 -15 0z"/>
<path d="M1095 395 c-5 -2 -22 -6 -37 -9 -16 -4 -28 -11 -28 -18 0 -7 20 -9
64 -4 38 4 66 2 68 -3 3 -9 66 -13 183 -12 92 1 53 23 -57 31 -51 4 -113 10
-138 13 -25 4 -49 5 -55 2z"/>
<path d="M2098 393 c-10 -2 -18 -11 -18 -18 0 -12 6 -12 35 1 40 16 102 19
107 3 8 -23 184 -36 205 -16 10 10 45 8 39 -2 -3 -5 6 -8 19 -8 33 0 42 15 13
21 -97 22 -346 33 -400 19z"/>
<path d="M2040 366 c0 -7 7 -13 15 -13 8 0 15 4 15 8 0 4 -7 9 -15 13 -9 3
-15 0 -15 -8z"/>
<path d="M1498 363 c6 -2 12 -11 12 -19 0 -8 5 -14 12 -14 6 0 8 3 5 7 -4 3
-2 12 4 20 9 10 6 13 -17 12 -16 0 -23 -3 -16 -6z"/>
<path d="M2552 340 c0 -14 2 -19 5 -12 2 6 2 18 0 25 -3 6 -5 1 -5 -13z"/>
<path d="M1978 283 c6 -2 18 -2 25 0 6 3 1 5 -13 5 -14 0 -19 -2 -12 -5z"/>
<path d="M0 85 l0 -85 1280 0 1280 0 0 85 0 85 -1280 0 -1280 0 0 -85z m194
23 c10 -65 8 -68 -51 -68 l-53 0 0 50 0 50 50 0 c48 0 49 -1 54 -32z m103 -30
c-2 -13 -4 -3 -4 22 0 25 2 35 4 23 2 -13 2 -33 0 -45z m429 33 c20 17 17 1
-6 -28 l-20 -26 1 44 c1 24 4 34 6 21 4 -19 7 -21 19 -11z m143 -31 c-2 -23
-2 -23 -6 -2 -5 28 -23 29 -23 2 0 -12 -6 -20 -12 -19 -31 4 -47 -2 -51 -18
-3 -10 -5 1 -6 23 -1 50 20 65 45 31 l16 -22 -7 22 c-9 33 2 45 25 25 11 -9
19 -28 19 -42z m-283 9 c0 -16 -3 -29 -8 -29 -4 0 -8 17 -8 37 0 42 15 35 16
-8z m365 3 c1 -22 2 -23 6 -5 5 27 28 36 43 18 25 -30 4 -45 -60 -44 -56 1
-60 3 -60 24 0 30 16 41 35 25 12 -10 15 -9 15 4 0 28 20 7 21 -22z m-673 -5
c3 -23 0 -27 -22 -27 -29 0 -37 29 -8 31 15 1 14 2 -2 6 -15 4 -16 7 -5 14 21
13 34 5 37 -24z m70 21 c22 -22 14 -48 -13 -48 -29 0 -36 29 -7 31 16 1 16 2
-1 6 -9 2 -15 9 -12 14 8 12 19 11 33 -3z m89 -24 c1 -20 0 -22 -4 -6 -2 12
-9 22 -14 22 -5 0 -10 -10 -10 -22 l-2 -23 -4 23 c-2 12 -9 22 -14 22 -5 0 -9
-10 -10 -22 -1 -22 -1 -22 -8 2 -8 27 5 38 43 35 16 -1 21 -9 23 -31z m43 14
c0 6 4 12 10 12 11 0 -14 -63 -27 -67 -4 -2 -9 15 -10 38 -1 36 0 38 13 22 8
-11 13 -13 14 -5z m69 1 c-10 -6 -11 -9 -1 -9 6 0 12 -7 12 -15 0 -9 -9 -15
-22 -14 -19 1 -19 2 -5 6 18 5 18 5 0 19 -15 12 -16 15 -3 23 8 5 18 7 23 4 5
-3 3 -9 -4 -14z m86 11 c4 -7 12 -7 25 0 24 13 30 13 30 0 0 -5 -7 -10 -15
-10 -20 0 -19 -17 1 -28 11 -6 2 -9 -30 -9 -41 -1 -46 1 -46 21 0 33 21 49 35
26z m1735 -1 c0 -5 -9 -9 -20 -9 -11 0 -20 4 -20 8 0 4 9 8 20 9 11 1 20 -2
20 -8z m40 -1 c0 -4 -7 -8 -15 -8 -8 0 -15 4 -15 8 0 5 7 9 15 9 8 0 15 -4 15
-9z m40 2 c0 -5 -7 -10 -16 -10 -8 0 -12 5 -9 10 3 6 10 10 16 10 5 0 9 -4 9
-10z m-1715 -40 c3 -5 1 -10 -4 -10 -6 0 -11 5 -11 10 0 6 2 10 4 10 3 0 8 -4
11 -10z m1533 -17 c-10 -2 -28 -2 -40 0 -13 2 -5 4 17 4 22 1 32 -1 23 -4z"/>
<path d="M120 75 c0 -8 4 -15 10 -15 5 0 7 7 4 15 -4 8 -8 15 -10 15 -2 0 -4
-7 -4 -15z"/>
<path d="M780 85 c0 -9 5 -15 11 -13 6 2 11 8 11 13 0 5 -5 11 -11 13 -6 2
-11 -4 -11 -13z"/>
<path d="M890 85 c0 -8 5 -15 10 -15 6 0 10 7 10 15 0 8 -4 15 -10 15 -5 0
-10 -7 -10 -15z"/>
<path d="M970 85 c0 -9 5 -15 11 -13 6 2 11 8 11 13 0 5 -5 11 -11 13 -6 2
-11 -4 -11 -13z"/>
<path d="M610 85 c0 -8 5 -15 10 -15 6 0 10 7 10 15 0 8 -4 15 -10 15 -5 0
-10 -7 -10 -15z"/>
</g>
</svg>
