<svg xmlns="http://www.w3.org/2000/svg" xmlns:xlink="http://www.w3.org/1999/xlink" version="1.1" x="0px" y="0px" viewBox="-143.5 22.5 140 126.25" enable-background="new -143.5 22.5 140 101" xml:space="preserve"><rect x="-90.652" y="76.72" width="34.931" height="7.401"/><rect x="-90.652" y="61.919" width="34.931" height="7.397"/><path d="M-115.421,43.552c3.943,0,7.151-3.208,7.151-7.151s-3.208-7.151-7.151-7.151c-3.942,0-7.15,3.208-7.15,7.151  S-119.364,43.552-115.421,43.552z M-115.421,30.249c3.392,0,6.151,2.76,6.151,6.151s-2.759,6.151-6.151,6.151s-6.15-2.76-6.15-6.151  S-118.813,30.249-115.421,30.249z"/><path d="M-131.225,77.657c0.078,1.673,1.45,2.983,3.123,2.983l0.148-0.004c0.836-0.038,1.605-0.4,2.168-1.02  c0.563-0.618,0.852-1.419,0.812-2.255c-0.305-6.501,0.262-12.31,1.641-16.89l0.021,52.607c0,2.033,1.654,3.688,3.688,3.688  c2.033,0,3.688-1.654,3.688-3.688V80.448h1.347v32.655c0,2.032,1.654,3.687,3.688,3.687c2.034,0,3.688-1.654,3.688-3.687  l0.021-52.982c1.481,4.641,2.1,10.584,1.789,17.243c-0.04,0.837,0.249,1.639,0.813,2.258c0.563,0.617,1.332,0.979,2.167,1.017  l0.147,0.004c1.677,0,3.049-1.312,3.125-2.985c0.717-15.355-3.17-27.104-10.398-31.428c-3.591-2.149-7.776-2.15-11.362-0.007  C-128.092,50.522-131.948,62.273-131.225,77.657z M-120.395,47.08c3.269-1.956,7.059-1.953,10.335,0.007  c6.907,4.133,10.613,15.543,9.915,30.525c-0.053,1.139-0.987,2.031-2.128,2.031l-0.103-0.002c-0.566-0.026-1.09-0.272-1.473-0.692  c-0.385-0.422-0.581-0.968-0.555-1.537c0.332-7.097-0.38-13.411-2.056-18.26c-0.231-0.671-0.492-1.336-0.773-1.977l-0.958-2.179  l-0.021,58.107c0,1.48-1.206,2.687-2.688,2.687c-1.482,0-2.688-1.206-2.688-2.687V79.448h-3.347v33.632  c0,1.481-1.206,2.688-2.688,2.688c-1.482,0-2.688-1.206-2.688-2.688l-0.021-57.908l-0.959,2.234  c-0.229,0.534-0.449,1.107-0.653,1.705c-1.66,4.844-2.36,11.17-2.026,18.298c0.026,0.568-0.171,1.114-0.553,1.535  c-0.384,0.422-0.907,0.668-1.476,0.694l-0.103,0.002c-1.138,0-2.071-0.892-2.125-2.03C-130.933,62.601-127.257,51.188-120.395,47.08  z"/><circle cx="-31.417" cy="36.4" r="6.651"/><path d="M-43.971,80.138c1.451-0.066,2.572-1.301,2.505-2.752c-0.33-7.063,0.36-13.327,2-18.112c0.198-0.58,0.411-1.138,0.64-1.67  v22.345h0.021v33.132c0,1.761,1.43,3.188,3.188,3.188c1.762,0,3.188-1.427,3.188-3.188V79.948h2.347v33.155  c0,1.759,1.427,3.187,3.187,3.187s3.188-1.428,3.188-3.187V79.948h0.021V57.376c0.271,0.615,0.524,1.26,0.759,1.938  c1.656,4.791,2.357,11.041,2.029,18.073c-0.067,1.451,1.053,2.686,2.503,2.752c0.043,0.002,0.083,0.003,0.125,0.003  c1.397,0,2.562-1.099,2.627-2.509c0.708-15.168-3.089-26.747-10.157-30.976c-3.449-2.064-7.404-2.066-10.848-0.007  c-7.02,4.204-10.789,15.786-10.074,30.983C-46.652,79.085-45.421,80.206-43.971,80.138z"/><text x="-143.5" y="138.5" fill="#000000" font-size="5px" font-weight="bold" font-family="'Helvetica Neue', Helvetica, Arial-Unicode, Arial, Sans-serif">Created by corpus delicti</text><text x="-143.5" y="143.5" fill="#000000" font-size="5px" font-weight="bold" font-family="'Helvetica Neue', Helvetica, Arial-Unicode, Arial, Sans-serif">from the Noun Project</text></svg>