<?xml version="1.0" standalone="no"?>
<!DOCTYPE svg PUBLIC "-//W3C//DTD SVG 20010904//EN"
 "http://www.w3.org/TR/2001/REC-SVG-20010904/DTD/svg10.dtd">
<svg version="1.0" xmlns="http://www.w3.org/2000/svg"
 width="263.000000pt" height="191.000000pt" viewBox="0 0 263.000000 191.000000"
 preserveAspectRatio="xMidYMid meet">
<metadata>
Created by potrace 1.16, written by Peter Selinger 2001-2019
</metadata>
<g transform="translate(0.000000,191.000000) scale(0.100000,-0.100000)"
fill="#000000" stroke="none">
<path d="M391 1674 c-149 -75 -158 -290 -16 -371 54 -31 62 -29 31 8 -62 73
-3 179 99 179 40 0 85 50 85 95 0 104 -89 144 -199 89z m130 -65 c9 -18 7 -25
-9 -41 -16 -16 -23 -18 -41 -9 -23 13 -28 40 -9 59 19 19 46 14 59 -9z"/>
<path d="M1507 1650 c-8 -22 -19 -70 -24 -106 -4 -26 -1 -32 19 -36 136 -30
181 -39 184 -35 2 2 -41 14 -95 26 l-99 22 14 61 c13 56 14 104 1 68z"/>
<path d="M2064 1585 c-10 -24 5 -36 27 -24 16 8 18 13 8 25 -15 18 -28 18 -35
-1z"/>
<path d="M1208 1573 c7 -3 16 -2 19 1 4 3 -2 6 -13 5 -11 0 -14 -3 -6 -6z"/>
<path d="M2027 1545 c20 -26 65 -47 88 -40 8 3 22 7 30 10 13 4 13 8 3 24 -9
15 -16 17 -29 10 -26 -14 -66 -11 -83 6 -23 23 -29 18 -9 -10z"/>
<path d="M1933 1539 c-37 -11 -38 -14 -19 -47 11 -21 14 -22 25 -8 8 9 26 16
42 16 22 0 29 -5 29 -20 0 -15 -7 -20 -26 -20 -21 0 -25 -4 -22 -22 2 -13 10
-23 18 -23 45 -1 55 -50 14 -66 -34 -12 -90 5 -105 33 -17 32 -21 13 -5 -26
25 -60 108 -77 145 -30 12 15 21 32 21 40 0 7 19 31 42 54 36 35 44 39 56 26
10 -10 12 -25 7 -56 -8 -46 -27 -60 -57 -41 -31 19 -33 5 -4 -24 21 -21 29
-24 46 -15 26 14 37 35 45 92 6 39 4 49 -14 67 -29 29 -49 26 -85 -12 -40 -43
-58 -38 -50 12 5 33 3 41 -21 59 -30 24 -35 25 -82 11z"/>
<path d="M1073 1423 c-29 -5 -29 -20 -2 -49 11 -12 28 -37 37 -55 22 -42 46
-52 36 -15 -6 24 -2 28 22 25 4 0 10 3 13 8 9 14 68 -5 75 -24 6 -15 4 -15
-14 2 -11 10 -20 14 -20 8 0 -5 9 -18 21 -29 17 -16 22 -16 30 -4 32 50 11
110 -39 110 -15 1 -38 7 -52 15 -24 14 -62 17 -107 8z"/>
<path d="M1455 1418 c-2 -7 -6 -26 -9 -43 -2 -16 -14 -73 -26 -125 -11 -52
-25 -117 -29 -145 -5 -27 -16 -79 -24 -115 -27 -114 -39 -181 -34 -186 6 -6
10 14 77 331 65 308 63 295 55 295 -3 0 -8 -6 -10 -12z"/>
<path d="M461 1396 c-26 -31 14 -71 45 -45 21 17 14 53 -12 57 -11 2 -26 -4
-33 -12z"/>
<path d="M756 1388 c-9 -12 -16 -34 -16 -48 1 -22 2 -23 13 -9 18 24 52 39 86
39 26 0 30 -4 34 -32 3 -19 4 -11 3 17 l-1 50 -52 3 c-44 3 -53 0 -67 -20z"/>
<path d="M1644 1363 c-27 -64 -23 -93 6 -58 21 25 35 11 32 -32 -3 -29 1 -42
12 -46 9 -4 16 -14 16 -22 0 -9 7 -23 15 -31 13 -14 15 -12 16 13 1 15 2 35 3
43 2 23 29 60 44 60 16 0 32 -41 32 -83 1 -28 2 -30 14 -15 19 26 18 89 -2
116 -11 13 -33 25 -57 29 -22 3 -49 17 -61 30 -29 31 -56 29 -70 -4z"/>
<path d="M166 1311 c-20 -22 -45 -86 -46 -117 0 -14 11 -26 36 -37 45 -22 56
-15 48 33 -6 33 -3 40 20 55 21 14 29 15 41 5 17 -14 13 -44 -13 -95 -3 -5 4
-1 16 9 16 14 22 15 22 5 0 -9 7 -7 21 7 20 20 20 23 4 60 -35 83 -108 120
-149 75z"/>
<path d="M1160 1321 c0 -5 7 -12 16 -15 14 -5 15 -4 4 9 -14 17 -20 19 -20 6z"/>
<path d="M1200 1314 c0 -13 18 -39 24 -34 2 3 -2 14 -10 24 -8 11 -14 16 -14
10z"/>
<path d="M2230 1292 c0 -28 28 -92 40 -92 6 0 15 -10 19 -22 9 -23 9 -23 16 3
6 25 70 67 83 54 3 -3 1 -25 -5 -48 -6 -23 -10 -43 -9 -45 8 -7 55 41 60 63 7
27 -8 65 -25 65 -5 0 -23 10 -39 22 -27 19 -33 20 -70 9 -32 -9 -45 -10 -56 0
-11 9 -14 8 -14 -9z"/>
<path d="M750 1277 c0 -5 5 -17 10 -28 16 -28 84 -27 104 3 20 28 21 44 2 29
-10 -8 -16 -9 -21 -1 -7 12 -95 9 -95 -3z"/>
<path d="M1192 1274 c10 -10 20 -16 22 -13 3 3 -5 11 -17 18 -21 13 -21 12 -5
-5z"/>
<path d="M1185 1244 c13 -14 19 -14 28 -4 9 10 9 11 0 6 -6 -3 -14 -2 -18 4
-3 5 -11 10 -16 10 -6 0 -3 -7 6 -16z"/>
<path d="M222 1224 c-7 -8 -9 -14 -5 -15 4 0 16 -2 25 -4 9 -2 19 4 23 13 3 9
3 13 -1 9 -4 -4 -12 -3 -18 2 -7 6 -16 4 -24 -5z"/>
<path d="M1455 1201 c-3 -5 -1 -12 4 -15 5 -3 11 1 15 9 6 16 -9 21 -19 6z"/>
<path d="M1737 1151 c-26 -8 -58 -46 -67 -81 -6 -22 -19 -41 -33 -47 -29 -13
-54 -60 -40 -74 7 -7 2 -25 -14 -56 -12 -26 -23 -52 -23 -60 0 -7 -7 -13 -15
-13 -8 0 -15 -9 -15 -20 0 -11 7 -20 15 -20 8 0 15 -6 15 -13 0 -8 10 -34 23
-59 17 -33 20 -49 13 -61 -14 -23 7 -45 27 -29 10 9 23 7 52 -8 22 -11 47 -20
56 -20 11 0 19 -9 21 -22 2 -13 10 -23 18 -23 8 0 16 10 18 23 2 13 10 22 21
22 9 0 34 9 56 20 29 15 42 17 52 8 22 -18 41 6 26 31 -10 15 -9 22 3 32 8 6
19 31 25 54 7 28 18 45 30 48 25 7 24 27 0 34 -25 6 -31 34 -11 50 12 10 13
15 3 30 -7 10 -36 60 -64 112 -71 128 -86 144 -137 145 -23 1 -48 -1 -55 -3z
m-49 -189 c3 -16 -2 -22 -16 -22 -28 0 -45 23 -29 39 17 17 42 9 45 -17z m-46
-102 c-3 -31 -8 -40 -23 -40 -23 0 -23 3 -3 46 22 45 30 43 26 -6z m325 14 c2
-6 -6 -21 -17 -34 -18 -20 -23 -22 -30 -10 -6 8 -10 24 -10 36 0 16 6 21 27
20 14 -1 28 -6 30 -12z m-337 -122 c0 -15 5 -33 12 -40 9 -9 9 -12 -1 -12 -6
0 -19 16 -27 35 -18 43 -17 45 1 45 10 0 15 -10 15 -28z m310 18 c0 -16 -29
-70 -38 -70 -10 0 -32 22 -32 32 0 4 11 8 25 8 18 0 25 5 25 20 0 11 5 20 10
20 6 0 10 -5 10 -10z m-190 -89 l0 -50 -30 9 c-52 15 -54 20 -19 56 18 19 37
34 41 34 4 0 8 -22 8 -49z m89 15 c35 -36 33 -41 -19 -56 l-30 -9 0 50 c0 27
4 49 8 49 4 0 23 -15 41 -34z"/>
<path d="M259 1126 c10 -11 9 -16 -5 -24 -15 -8 -15 -9 0 -15 10 -4 15 -3 11
2 -3 5 0 11 6 13 12 4 1 38 -13 38 -6 0 -6 -6 1 -14z"/>
<path d="M730 1071 c-89 -27 -150 -86 -150 -143 0 -31 -4 -41 -20 -45 -17 -5
-20 -14 -20 -67 0 -75 33 -149 87 -196 32 -28 36 -38 45 -108 5 -42 10 -77 11
-78 1 -1 35 -6 75 -9 l72 -8 0 69 c0 48 3 64 10 54 5 -8 10 -39 10 -67 l0 -53
68 0 68 0 -9 94 -8 94 34 46 c19 25 41 62 47 82 16 46 8 150 -13 189 -31 58
-34 60 -51 46 -27 -22 -47 -6 -44 36 3 36 2 37 -47 54 -52 19 -122 23 -165 10z
m146 -80 c48 -22 71 -47 29 -31 -107 41 -227 -50 -212 -161 12 -89 107 -154
191 -132 54 15 57 9 7 -16 -84 -43 -198 -15 -248 61 -104 157 62 356 233 279z
m116 -161 c9 0 9 -3 0 -12 -7 -7 -12 -20 -12 -29 0 -13 -8 -17 -35 -16 -25 1
-35 6 -35 17 0 9 -5 21 -11 27 -8 8 -6 13 9 17 11 4 23 13 26 22 5 12 9 11 26
-6 11 -11 25 -20 32 -20z"/>
<path d="M2186 718 c-16 -52 -46 -192 -46 -215 0 -15 16 -81 37 -146 33 -103
40 -117 58 -115 19 3 20 12 26 138 4 74 7 142 8 150 1 8 10 -5 21 -28 11 -24
47 -75 79 -112 33 -38 66 -78 74 -90 9 -14 20 -18 32 -14 23 9 17 45 -31 164
-34 83 -39 106 -39 177 0 44 -3 79 -7 77 -6 -4 -141 12 -186 21 -13 3 -24 0
-26 -7z"/>
<path d="M1091 713 l-34 -4 6 -52 c3 -29 15 -134 27 -235 17 -145 19 -187 9
-198 -16 -19 0 -34 26 -24 19 7 22 25 39 191 9 101 20 191 23 199 3 8 18 -55
33 -141 45 -252 49 -266 70 -272 24 -6 36 9 21 27 -8 10 -7 77 5 249 9 129 14
243 11 251 -5 13 -23 16 -104 14 -54 0 -113 -3 -132 -5z"/>
<path d="M2487 269 c-9 -6 -17 -18 -17 -27 0 -10 -6 -24 -12 -31 -11 -10 -8
-12 11 -9 19 2 27 12 33 37 11 39 9 43 -15 30z"/>
<path d="M220 235 c0 -24 5 -35 15 -35 10 0 15 10 15 29 0 16 -6 31 -15 35
-12 4 -15 -3 -15 -29z"/>
<path d="M350 250 c0 -5 7 -7 15 -4 8 4 15 8 15 10 0 2 -7 4 -15 4 -8 0 -15
-4 -15 -10z"/>
<path d="M1600 235 c0 -8 -5 -24 -12 -35 -7 -10 -9 -23 -5 -27 11 -11 39 9 48
35 6 17 4 24 -11 32 -16 9 -20 8 -20 -5z"/>
<path d="M1770 225 c0 -14 7 -28 15 -32 22 -8 27 0 19 31 -8 34 -34 34 -34 1z"/>
<path d="M880 222 c0 -18 40 -44 56 -38 15 6 15 8 -1 26 -18 20 -55 28 -55 12z"/>
<path d="M2203 217 c-37 -17 -28 -33 17 -29 43 4 51 16 23 30 -11 6 -27 6 -40
-1z"/>
<path d="M361 212 c-1 -7 -5 -10 -11 -7 -5 3 -10 -1 -10 -9 0 -9 0 -19 0 -23
-1 -12 59 -22 66 -12 3 5 -2 12 -11 15 -9 4 -21 16 -25 28 -5 12 -9 15 -9 8z"/>
<path d="M720 207 c0 -19 21 -37 42 -37 17 0 17 1 2 25 -17 27 -44 34 -44 12z"/>
</g>
</svg>
