<?xml version="1.0" standalone="no"?>
<!DOCTYPE svg PUBLIC "-//W3C//DTD SVG 20010904//EN"
 "http://www.w3.org/TR/2001/REC-SVG-20010904/DTD/svg10.dtd">
<svg version="1.0" xmlns="http://www.w3.org/2000/svg"
 width="300.000000pt" height="168.000000pt" viewBox="0 0 300.000000 168.000000"
 preserveAspectRatio="xMidYMid meet">
<metadata>
Created by potrace 1.16, written by Peter Selinger 2001-2019
</metadata>
<g transform="translate(0.000000,168.000000) scale(0.100000,-0.100000)"
fill="#000000" stroke="none">
<path d="M633 1674 c3 -3 36 -8 74 -9 37 -2 85 -10 105 -19 21 -9 46 -16 57
-16 11 0 22 -8 24 -17 4 -16 5 -16 6 -1 1 15 4 15 30 2 26 -13 27 -16 17 -48
-10 -33 -12 -34 -51 -29 -22 3 -51 6 -65 7 -14 1 -24 7 -23 14 5 20 -17 63
-27 57 -6 -4 -17 -1 -25 5 -12 10 -15 9 -15 -3 0 -8 -7 -20 -15 -27 -12 -10
-15 -10 -15 0 0 7 -7 10 -15 6 -12 -4 -14 0 -9 18 3 13 1 27 -5 30 -7 5 -11
-3 -11 -18 0 -28 -50 -71 -57 -49 -3 7 -20 17 -39 23 -19 6 -34 18 -34 26 0
15 -16 17 -157 18 -42 1 -71 -3 -70 -9 1 -5 -10 -9 -26 -7 -33 3 -34 -2 -2
-33 18 -19 35 -25 66 -25 23 0 39 -3 36 -6 -16 -16 77 -62 111 -56 6 2 12 -5
12 -15 0 -15 2 -16 10 -3 7 11 10 11 10 2 0 -7 4 -10 10 -7 10 6 20 -26 18
-58 -1 -21 2 -21 -115 22 -86 31 -183 91 -195 119 -5 14 -7 12 -7 -5 -1 -13
-6 -23 -11 -23 -6 0 -9 5 -8 11 3 12 -91 54 -144 64 -35 7 -37 5 -56 -33 -12
-25 -19 -63 -20 -101 -1 -66 -2 -66 53 -25 17 12 51 28 77 34 43 11 50 10 83
-10 35 -21 47 -37 22 -27 -17 6 -77 -19 -77 -33 0 -5 -8 -10 -18 -10 -10 0
-23 -5 -29 -11 -9 -9 -18 -8 -37 4 -20 14 -30 15 -51 5 -28 -12 -33 -28 -10
-28 20 0 20 -85 0 -120 -9 -16 -14 -55 -15 -107 0 -81 0 -83 24 -81 15 1 30
14 41 35 10 18 22 33 26 33 4 0 21 12 39 26 29 25 32 25 49 10 22 -20 32 -20
24 0 -5 13 -2 15 14 10 14 -4 21 -2 20 6 -2 55 4 64 59 96 71 40 104 50 104
29 0 -8 12 -24 28 -35 l27 -21 -25 -9 c-55 -22 -131 -80 -187 -142 -71 -78
-103 -123 -103 -143 0 -8 -8 -25 -18 -37 l-19 -23 -22 36 c-12 20 -20 41 -16
47 14 22 -6 50 -36 50 -25 0 -29 -4 -29 -30 0 -29 18 -80 29 -80 3 0 4 -22 3
-50 -3 -37 -8 -50 -19 -50 -13 0 -15 -10 -10 -61 4 -48 10 -65 32 -85 15 -14
25 -30 22 -37 -3 -8 4 -13 19 -13 13 0 24 6 24 13 0 15 16 17 25 3 3 -5 1 -10
-4 -10 -6 0 -11 -6 -11 -14 0 -8 -6 -17 -12 -19 -8 -3 -5 -6 6 -6 13 -1 17 -6
13 -21 -3 -11 -1 -18 4 -14 5 3 9 11 9 19 0 7 6 15 14 18 10 4 15 -6 20 -33
11 -70 25 -54 19 23 -6 76 5 112 56 192 11 17 20 40 20 51 1 12 8 24 16 28 8
3 15 12 15 19 0 8 6 20 14 26 8 6 16 21 19 32 5 18 2 20 -18 15 -33 -8 -39 7
-14 38 15 19 27 25 40 21 11 -4 19 -2 19 4 0 6 9 11 19 11 23 0 36 -44 27 -87
-4 -16 -8 -37 -11 -48 -9 -41 -12 -60 -8 -47 3 7 12 11 21 10 10 -2 18 7 22
22 6 23 7 23 12 5 3 -11 4 -3 1 19 -5 54 14 105 44 117 27 10 76 2 68 -11 -3
-5 4 -11 15 -15 15 -5 20 -15 19 -43 0 -20 -3 -31 -6 -24 -2 6 -11 12 -19 12
-8 0 -17 7 -20 15 -8 19 -23 19 -45 -1 -14 -13 -16 -21 -8 -42 6 -15 8 -56 5
-92 -8 -90 -16 -399 -9 -377 2 9 8 17 11 17 4 0 7 24 8 52 0 29 4 75 7 103 3
27 9 110 13 185 4 74 10 126 14 115 4 -11 6 -23 3 -27 -2 -5 0 -8 4 -8 5 0 15
-28 23 -62 10 -43 16 -55 18 -39 3 19 6 21 13 10 11 -15 7 54 -5 101 -4 14 -3
18 1 10 9 -18 33 -25 33 -9 0 6 -5 19 -11 30 -21 41 24 88 55 57 14 -14 7 -50
-12 -62 -12 -7 -14 -213 -2 -252 8 -27 8 -26 9 16 2 44 2 45 16 20 12 -20 14
-22 15 -7 0 11 9 21 19 24 12 3 17 11 14 19 -3 8 3 21 12 28 23 16 13 46 -14
46 -16 0 -22 11 -32 55 -9 42 -9 59 -1 67 13 13 14 10 32 -59 6 -24 15 -43 21
-43 5 0 7 10 4 23 -4 16 0 29 14 41 20 18 21 18 27 0 3 -11 10 -31 16 -45 7
-21 5 -35 -11 -65 -12 -21 -22 -32 -22 -24 -2 17 -12 -34 -32 -170 -8 -52 -16
-97 -17 -100 -1 -3 -1 -15 0 -28 1 -13 -3 -28 -8 -35 -5 -7 -17 -39 -26 -72
-10 -33 -19 -66 -22 -72 -2 -7 -10 -13 -18 -13 -8 0 -16 -10 -18 -22 -2 -12
-10 -23 -18 -25 -13 -4 -13 -3 0 6 12 8 12 13 2 23 -9 9 -12 9 -13 -2 0 -8 -2
-23 -4 -33 -2 -9 1 -15 5 -12 10 6 25 -14 17 -22 -8 -8 -70 29 -87 52 -8 11
-18 36 -22 55 -3 19 -12 51 -20 70 -10 28 -18 34 -35 32 -28 -4 -30 -22 -3
-22 16 0 19 -6 16 -30 -4 -38 -34 -74 -50 -60 -8 6 -16 3 -24 -11 -7 -10 -19
-19 -27 -19 -9 0 -20 -11 -25 -25 -6 -15 -17 -25 -29 -25 -17 0 -22 11 -32 59
-11 49 -17 61 -36 66 -13 3 -21 10 -17 16 3 6 -2 9 -12 7 -11 -2 -18 2 -17 10
2 6 -2 13 -7 13 -6 1 -15 2 -21 3 -6 0 -16 9 -23 18 -7 10 -19 18 -25 18 -8 0
-10 7 -6 19 4 12 0 21 -12 25 -10 3 -25 9 -33 13 -12 5 -13 4 -3 -9 7 -8 9
-19 5 -23 -4 -5 -2 -5 5 -1 6 3 14 2 18 -4 3 -5 -3 -10 -14 -10 -13 0 -21 7
-21 17 0 9 -8 25 -17 35 -16 18 -16 18 0 12 13 -5 17 -1 17 16 0 11 -4 19 -9
16 -5 -3 -16 5 -25 18 -9 15 -12 26 -5 30 5 2 4 3 -3 2 -19 -4 -22 -43 -7 -79
10 -24 10 -32 1 -35 -18 -6 -16 -92 2 -92 7 0 19 7 26 15 7 8 22 13 34 11 11
-3 28 -5 36 -5 9 -1 21 -15 27 -31 10 -27 9 -33 -12 -53 -57 -54 -74 -67 -84
-67 -6 0 -11 -4 -11 -10 0 -5 -7 -10 -15 -10 -12 0 -15 -15 -15 -78 l0 -78 97
-2 c53 -2 99 -5 102 -7 2 -3 -4 -14 -14 -25 -10 -11 -13 -20 -7 -20 6 0 19 10
29 23 14 18 28 22 70 22 28 0 49 -3 47 -7 -2 -4 16 -10 41 -13 25 -4 42 -11
39 -16 -3 -5 27 -8 65 -7 39 1 71 6 71 10 0 10 38 20 51 12 8 -5 8 -9 -1 -14
-7 -5 200 -8 461 -8 261 0 466 2 457 5 -61 16 42 36 136 26 42 -4 56 -10 52
-19 -4 -11 113 -13 649 -14 l655 0 0 85 c0 72 -3 89 -20 107 -15 17 -19 31
-15 57 3 20 6 43 7 51 0 8 5 17 9 20 4 3 11 78 15 167 l7 162 -24 20 -24 20
23 1 c21 0 22 3 22 93 0 59 -4 97 -12 105 -9 9 -9 12 0 12 7 0 12 14 12 33 0
33 -30 64 -57 59 -27 -6 -11 19 22 35 31 15 35 21 35 56 l0 39 -36 -23 -36
-22 15 30 c9 16 23 35 31 42 9 8 16 18 16 23 0 11 -104 -2 -108 -14 -2 -4 -9
-5 -15 -1 -6 4 -8 0 -4 -9 3 -9 -2 -23 -13 -33 -16 -15 -34 -66 -31 -90 2 -20
-39 -14 -50 6 -11 22 5 51 71 129 27 31 35 34 95 38 l65 4 0 54 c0 30 -2 54
-5 54 -3 0 -23 -8 -44 -18 -52 -26 -85 -22 -89 9 -2 13 -8 28 -13 34 -5 5 -9
13 -9 17 0 13 28 9 33 -4 3 -7 6 -3 6 10 1 28 4 28 49 -3 65 -44 72 -38 72 65
l0 89 -44 31 c-25 16 -48 30 -52 30 -5 0 -28 7 -52 17 -40 15 -43 18 -40 49 4
43 -15 45 -23 2 l-6 -33 -4 35 -4 35 -141 1 c-114 1 -141 -2 -140 -13 1 -8
-26 -26 -59 -41 -33 -15 -71 -34 -85 -42 -14 -8 -27 -15 -30 -16 -3 0 -31 -13
-63 -27 -32 -15 -64 -27 -72 -27 -24 0 3 57 38 82 18 11 37 27 43 34 5 7 37
21 70 32 l59 21 -133 0 c-103 1 -133 -2 -129 -11 2 -7 -12 -25 -32 -40 -28
-21 -40 -24 -55 -16 -16 9 -18 8 -12 -8 7 -17 6 -17 -14 1 -26 24 -25 33 5 47
13 6 22 15 19 19 -6 11 -252 5 -262 -6 -4 -5 0 -6 9 -3 10 4 16 1 16 -8 0 -9
-6 -13 -15 -9 -10 3 -12 0 -8 -10 3 -9 0 -15 -9 -15 -8 0 -15 -5 -15 -11 0 -6
-8 -3 -17 7 -10 9 -16 28 -15 41 3 21 0 23 -41 23 -37 0 -48 -5 -71 -32 -14
-17 -26 -36 -26 -41 0 -4 -4 -6 -9 -3 -11 7 -2 56 11 56 5 0 6 5 3 10 -7 11
-98 14 -108 3 -4 -3 4 -21 18 -39 l26 -34 -31 6 c-18 4 -36 1 -46 -7 -12 -10
-17 -10 -23 0 -10 16 -2 61 11 61 5 0 6 5 3 10 -4 6 -152 10 -412 10 -224 0
-404 -3 -400 -6z m650 -16 c-30 -15 -29 -27 2 -25 21 2 29 -6 45 -41 13 -28
15 -42 7 -39 -6 2 -22 0 -34 -4 -16 -6 -23 -5 -23 4 0 8 -3 8 -9 -2 -14 -22
-31 19 -31 73 0 45 0 46 33 45 30 0 31 -1 10 -11z m409 -25 c22 -19 23 -36 4
-52 -15 -13 -69 -4 -61 9 3 5 1 12 -5 15 -8 5 -7 11 1 21 6 7 15 11 20 8 5 -3
9 0 9 5 0 16 11 14 32 -6z m1032 -21 c-6 -9 -31 -24 -55 -32 -24 -9 -53 -21
-64 -27 -11 -6 -36 -14 -55 -18 -32 -7 -70 -37 -70 -56 0 -7 -8 -10 -62 -25
-12 -4 -8 5 12 25 17 16 30 36 30 44 0 15 70 57 95 57 8 0 29 9 47 20 18 11
41 20 51 20 9 0 17 4 17 9 0 13 42 19 55 9 6 -6 6 -15 -1 -26z m-706 -32 l33
-25 -33 -12 c-18 -6 -46 -12 -63 -12 -20 -1 -26 -4 -17 -10 10 -6 8 -10 -10
-14 -12 -4 -33 -7 -46 -7 -13 0 -21 -4 -17 -9 3 -5 -4 -12 -15 -16 -11 -3 -20
-11 -20 -16 0 -6 -4 -7 -10 -4 -5 3 -10 1 -10 -4 0 -6 -4 -11 -10 -11 -5 0
-10 9 -10 20 0 11 4 20 9 20 5 0 12 11 15 25 8 32 41 63 91 85 50 22 72 20
113 -10z m-490 7 c22 -1 27 -46 6 -62 -19 -14 -64 -21 -51 -8 4 3 2 12 -4 19
-5 6 -7 24 -3 39 5 19 11 24 23 19 9 -3 22 -7 29 -7z m-436 -14 c21 -19 24
-56 4 -72 -11 -9 -15 -9 -18 0 -3 8 -9 9 -19 4 -27 -18 -46 -14 -57 10 -15 32
-7 52 26 64 38 13 43 13 64 -6z m264 -64 c4 -8 9 -7 15 2 7 11 9 11 9 -1 0
-38 -46 -52 -75 -24 -13 14 -14 19 -3 25 18 12 46 11 54 -2z m182 -9 c-11 -18
-38 -36 -38 -25 0 5 42 45 47 45 2 0 -2 -9 -9 -20z m872 -5 c-7 -8 -20 -15
-29 -15 -12 1 -11 5 8 21 26 22 41 18 21 -6z m-2130 0 c10 -12 10 -15 -3 -15
-23 0 -47 11 -47 21 0 15 37 10 50 -6z m1478 -24 c3 -16 -2 -24 -17 -28 -12
-3 -21 -9 -21 -14 0 -5 -5 -9 -12 -9 -6 0 -8 3 -5 7 4 3 1 13 -5 21 -10 12 -8
18 11 33 29 24 45 20 49 -10z m-1083 -24 c11 -6 38 -12 60 -14 22 -3 49 -6 60
-8 11 -2 29 -4 40 -4 17 -1 20 -8 20 -46 0 -25 -3 -45 -7 -45 -5 0 -8 5 -8 10
0 5 -3 9 -7 8 -14 -3 -78 14 -83 22 -3 5 -30 10 -60 12 -71 4 -102 26 -105 71
l-2 35 36 -15 c20 -8 45 -20 56 -26z m702 -2 c-24 -24 -29 -18 -10 11 9 15 19
22 21 15 2 -6 -3 -18 -11 -26z m735 12 c4 -18 -2 -26 -23 -36 -41 -18 -81 -20
-96 -5 -15 14 -18 48 -4 40 5 -3 24 1 42 9 51 22 76 19 81 -8z m685 -5 c17
-20 -6 -42 -45 -42 -20 0 -32 -7 -42 -25 -7 -14 -17 -25 -22 -25 -12 0 -10 48
2 55 6 4 8 15 5 25 -5 15 1 21 27 28 37 10 58 6 75 -16z m-208 -14 c-17 -32
-31 -44 -70 -62 -50 -23 -104 -57 -107 -67 -2 -6 -11 -4 -20 3 -13 11 -15 11
-8 -2 4 -9 1 -8 -7 3 -8 9 -19 17 -26 17 -6 0 -11 5 -11 10 0 6 9 10 20 10 11
0 29 9 40 20 11 11 26 20 34 20 20 0 116 51 116 61 0 5 11 9 25 9 23 0 25 -2
14 -22z m-1398 -83 c7 -7 10 -7 9 0 -6 28 1 56 13 52 6 -2 11 -10 10 -16 -3
-12 10 -15 21 -4 10 10 46 11 40 1 -3 -4 -3 -8 0 -8 2 0 12 -3 22 -7 12 -4 15
-3 10 5 -10 16 7 15 22 0 10 -10 15 -10 22 2 7 12 12 12 29 -4 11 -10 26 -16
33 -13 7 2 18 5 23 6 6 2 14 9 18 17 5 9 16 13 28 9 12 -4 19 -2 19 7 0 17 42
21 52 5 6 -9 11 -7 19 6 18 31 29 8 31 -66 2 -70 2 -70 5 -14 4 63 22 78 25
20 1 -38 1 -38 5 -5 3 19 9 30 15 26 6 -4 14 0 19 7 7 11 9 10 9 -5 0 -12 5
-16 15 -12 8 3 14 0 12 -7 -1 -6 9 -13 22 -15 14 -2 26 -13 29 -25 6 -21 6
-21 13 3 6 22 7 20 8 -12 1 -24 -4 -38 -11 -38 -9 0 -8 -4 2 -10 21 -14 6 -23
-107 -60 -80 -27 -97 -37 -132 -78 -23 -26 -41 -53 -42 -62 -5 -79 -5 -98 1
-116 10 -26 -16 -44 -53 -37 -21 4 -28 12 -31 37 -3 17 -8 47 -11 66 -3 19 -5
47 -5 61 0 30 -73 109 -101 109 -15 0 -58 15 -114 40 -59 26 -139 11 -175 -32
-11 -13 -20 -21 -21 -18 -5 22 -4 58 2 54 9 -5 59 95 59 119 0 10 4 17 9 17 5
0 11 9 14 20 3 12 14 20 25 20 12 0 24 5 27 10 10 16 33 12 38 -7 3 -11 6 -7
8 12 2 26 3 24 6 -10 3 -22 9 -44 14 -50z m1079 76 c0 -9 -75 -61 -89 -61 -5
0 -14 6 -20 14 -9 11 -8 15 5 20 9 3 19 4 23 2 3 -3 18 4 31 15 26 20 50 25
50 10z m-330 -13 c0 -23 -16 -39 -33 -32 -17 6 -22 25 -10 37 11 12 43 8 43
-5z m-1710 -27 c0 -5 -7 -11 -14 -14 -10 -4 -13 -1 -9 9 6 15 23 19 23 5z m66
-6 c16 -8 40 -15 54 -15 14 0 32 -4 39 -9 12 -8 9 -11 -11 -16 -36 -9 -138 21
-138 40 0 19 20 19 56 0z m655 -7 c4 -42 -14 -62 -43 -47 -21 11 -24 45 -5 52
23 10 47 7 48 -5z m1143 -17 c-14 -27 -17 -29 -44 -19 -17 5 -33 15 -37 21 -3
6 -1 7 5 3 7 -4 12 -3 12 3 0 9 23 17 62 20 15 1 15 -2 2 -28z m566 -10 c-6
-12 -22 -24 -35 -27 -14 -3 -25 -11 -25 -17 0 -13 -100 -110 -107 -103 -9 9 7
41 34 72 16 18 36 41 46 53 10 12 22 19 28 16 5 -4 17 -1 26 7 12 9 15 9 9 1
-4 -7 -3 -13 3 -13 6 0 14 12 18 27 3 16 8 23 10 16 3 -7 -1 -21 -7 -32z m140
-9 c0 -3 -8 -14 -17 -25 -17 -19 -17 -20 0 -14 21 8 21 8 1 -31 -9 -20 -26
-35 -42 -39 -15 -3 -43 -14 -62 -25 -43 -22 -50 -23 -50 0 0 15 2 15 11 2 8
-11 9 -7 4 17 -7 35 7 52 83 103 38 25 72 31 72 12z m-2333 -38 c3 -8 3 -17 1
-20 -8 -8 -59 37 -52 47 7 12 43 -7 51 -27z m1883 -9 c0 -30 -23 -75 -39 -75
-9 0 -22 -5 -28 -11 -8 -8 -15 -2 -27 21 l-16 33 41 40 c39 40 42 41 55 22 8
-10 14 -24 14 -30z m-315 17 c-3 -3 -11 0 -18 7 -9 10 -8 11 6 5 10 -3 15 -9
12 -12z m-219 -28 c-3 -7 3 -18 12 -23 15 -9 14 -10 -5 -8 -18 1 -23 7 -23 30
0 17 4 26 11 22 6 -4 8 -13 5 -21z m39 -2 c-3 -3 0 -11 6 -19 6 -7 7 -13 3
-13 -5 0 -14 8 -21 18 -9 15 -8 19 3 19 8 0 12 -3 9 -5z m-1252 -21 c27 -5 50
-5 53 0 12 20 31 8 28 -17 -1 -14 -4 -28 -7 -30 -14 -14 -60 -11 -118 7 -63
20 -70 26 -60 56 1 1 13 0 29 -3 15 -2 48 -8 75 -13z m155 -3 c4 -19 -35 -35
-50 -20 -6 6 -3 15 8 26 19 19 38 17 42 -6z m-643 -34 c-23 -17 -32 -10 -15
11 7 8 17 12 23 8 6 -4 3 -11 -8 -19z m2105 -27 c-1 -16 -36 -57 -49 -57 -6 0
-12 7 -12 15 -1 8 -2 23 -3 32 -1 10 9 20 24 23 29 8 40 4 40 -13z m248 -35
c-14 -17 -31 -26 -44 -24 -20 3 -19 6 14 43 30 33 37 37 45 24 6 -11 1 -24
-15 -43z m124 31 c23 -20 22 -25 -1 -51 -26 -31 -30 -28 -29 23 1 50 3 52 30
28z m-1995 -40 c28 -16 41 -29 35 -35 -5 -5 -7 -18 -5 -29 5 -18 6 -18 18 -3
16 22 42 26 83 13 l34 -11 -24 -16 c-13 -9 -26 -16 -30 -14 -5 1 -8 -7 -8 -18
0 -25 -11 -25 -43 0 -14 11 -31 20 -39 20 -8 0 -18 4 -23 9 -6 6 -24 12 -41
15 -17 3 -51 15 -75 26 -24 11 -50 20 -58 20 -22 0 -50 -30 -44 -46 6 -16 2
-17 -21 -8 -9 3 -16 14 -16 25 0 20 57 70 92 81 39 12 120 -2 165 -29z m1929
-8 c-4 -14 -11 -25 -17 -25 -19 0 -21 31 -3 51 21 23 29 12 20 -26z m-1351 -7
c61 -26 74 -42 21 -27 -39 11 -86 5 -132 -17 -23 -11 -38 -13 -50 -6 -16 9
-15 11 6 28 12 11 28 24 34 31 17 19 60 15 121 -9z m709 -11 c28 -18 32 -26
25 -45 l-9 -23 -47 26 c-37 19 -63 25 -112 25 -72 0 -73 7 -4 26 71 19 110 17
147 -9z m850 15 c2 -4 -5 -29 -17 -55 -17 -36 -27 -47 -44 -47 -13 0 -23 5
-23 11 0 16 20 51 43 77 22 23 33 27 41 14z m-294 -50 c0 -34 -16 -52 -47 -52
-16 0 -25 8 -29 27 -8 30 15 53 53 53 19 0 23 -5 23 -28z m-1127 1 c19 -6 22
-19 7 -28 -19 -12 -11 -33 10 -28 16 4 20 1 18 -18 -3 -28 -57 -91 -70 -83 -5
3 -1 12 9 19 15 11 13 12 -15 9 -20 -2 -31 0 -27 6 3 6 2 10 -4 10 -5 0 -12
-4 -16 -10 -3 -5 -13 -6 -22 -3 -12 5 -15 2 -10 -9 3 -10 0 -19 -9 -22 -11 -4
-14 -1 -9 13 4 14 0 19 -18 19 -32 0 -97 31 -97 47 0 6 8 19 18 27 32 28 39
29 35 4 -6 -31 30 -69 60 -64 12 2 21 9 19 16 -1 6 4 11 10 10 8 -2 14 10 16
28 3 31 4 31 32 21 24 -9 27 -14 20 -33 -7 -19 -5 -23 18 -27 25 -5 25 -4 7 9
-10 8 -15 14 -9 14 5 0 10 11 10 25 1 14 -1 25 -5 25 -3 0 -12 10 -20 21 -12
20 -11 21 6 14 10 -4 26 -10 36 -12z m335 5 c-2 -7 -12 -17 -23 -21 -17 -7
-17 -10 -5 -18 12 -8 12 -10 1 -7 -8 2 -15 12 -17 22 -1 10 0 15 3 12 3 -3 12
1 20 9 18 18 24 19 21 3z m-858 -57 c14 -28 13 -31 -13 -31 -25 0 -62 32 -50
43 13 14 53 6 63 -12z m892 -15 c-3 -26 1 -37 19 -50 13 -9 30 -16 38 -16 25
0 51 32 51 62 0 31 20 38 40 13 11 -13 11 -20 0 -40 -7 -14 -15 -23 -18 -20
-2 2 -11 -2 -19 -10 -21 -22 -131 -16 -118 5 3 4 -6 11 -19 14 -18 4 -22 11
-19 30 3 13 15 28 26 34 12 6 22 11 22 11 1 1 -1 -14 -3 -33z m26 -7 c0 -22
-2 -29 -10 -21 -5 5 -7 19 -3 31 9 29 12 26 13 -10z m312 7 c4 -13 8 -56 8
-95 -1 -61 -3 -71 -18 -71 -10 0 -20 -9 -23 -20 -3 -13 -14 -20 -30 -20 -19 0
-26 6 -31 31 -4 19 -10 28 -17 23 -7 -4 -3 11 8 32 11 21 26 57 33 79 22 69
52 87 70 41z m-1746 -18 c-3 -13 -13 -35 -20 -50 -8 -15 -14 -33 -14 -41 0 -7
-15 -31 -34 -53 -38 -43 -53 -40 -60 13 -2 24 5 41 31 74 33 41 78 79 96 79 5
0 5 -10 1 -22z m1316 12 c-12 -8 -13 -13 -3 -29 10 -16 9 -18 -8 -14 -12 3
-19 0 -19 -8 0 -11 -2 -11 -10 1 -15 23 -12 34 13 46 28 14 47 17 27 4z m1190
-20 c0 -12 -29 -6 -43 10 -9 10 -9 11 1 6 6 -4 12 -2 12 5 0 8 4 8 15 -1 8 -7
15 -16 15 -20z m-1745 -20 c9 -16 23 -30 32 -30 9 0 13 -3 9 -7 -3 -4 4 -13
16 -21 22 -13 22 -13 -7 -7 -16 3 -34 12 -40 18 -5 7 -27 11 -47 10 l-37 -2
17 34 c21 43 37 44 57 5z m820 10 c-10 -11 -21 -18 -23 -15 -3 3 3 12 14 20
27 20 30 18 9 -5z m-1047 -2 c-3 -7 -18 -14 -34 -16 l-29 -3 25 15 c32 18 43
19 38 4z m962 2 c0 -5 -2 -10 -4 -10 -3 0 -8 5 -11 10 -3 6 -1 10 4 10 6 0 11
-4 11 -10z m1140 0 c0 -5 -7 -10 -16 -10 -8 0 -12 5 -9 10 3 6 10 10 16 10 5
0 9 -4 9 -10z m-1643 -50 c1 -11 -1 -20 -5 -21 -4 0 -15 -2 -24 -4 -24 -4 -23
4 4 26 26 23 23 23 25 -1z m1683 1 c0 -16 -51 -42 -70 -36 -30 9 -24 21 18 38
36 15 52 14 52 -2z m-1370 -1 c0 -5 -2 -10 -4 -10 -3 0 -8 5 -11 10 -3 6 -1
10 4 10 6 0 11 -4 11 -10z m25 -20 c3 -5 1 -10 -4 -10 -6 0 -11 5 -11 10 0 6
2 10 4 10 3 0 8 -4 11 -10z m915 -2 c0 20 18 14 36 -13 9 -14 13 -32 9 -45 -6
-20 -8 -20 -32 -5 -28 19 -83 12 -83 -11 0 -8 -4 -14 -10 -14 -14 0 -13 13 5
46 18 34 56 58 67 41 6 -9 8 -9 8 1z m300 -44 c0 -8 6 -14 14 -14 16 0 27 -35
21 -65 -2 -11 -4 -22 -4 -25 -1 -3 -6 2 -11 10 -7 12 -10 8 -10 -15 -1 -25 -5
-21 -24 30 -13 33 -31 77 -40 97 l-16 37 35 -20 c19 -12 35 -27 35 -35z
m-1606 4 c8 -13 8 -23 1 -34 -13 -21 -223 -86 -250 -78 -19 6 -19 6 -2 -13 23
-26 22 -33 -7 -33 -25 0 -48 -20 -24 -20 7 -1 1 -8 -15 -16 -15 -8 -32 -12
-37 -9 -6 3 -10 -4 -10 -17 0 -18 2 -20 10 -8 5 8 12 11 17 7 4 -5 -3 -16 -15
-26 -15 -11 -21 -23 -17 -34 6 -14 12 -13 43 13 21 16 64 41 97 56 33 15 85
44 115 66 159 111 256 160 272 135 6 -9 8 -9 8 0 0 16 332 18 394 2 55 -14 85
-42 67 -63 -16 -19 -38 -10 -56 23 -8 14 -14 20 -15 13 0 -17 20 -55 34 -64 6
-4 8 -10 4 -13 -11 -11 -48 15 -48 33 -1 15 -1 15 -10 1 -8 -13 -18 -15 -49
-9 -26 4 -47 2 -62 -6 -13 -7 -39 -13 -56 -14 -27 0 -33 4 -33 21 0 11 -4 18
-9 14 -5 -3 -16 4 -25 16 -14 21 -15 21 -18 -12 -4 -43 -36 -51 -67 -18 -21
22 -21 23 -21 2 0 -23 -24 -36 -50 -28 -9 3 -27 -4 -41 -16 -13 -12 -50 -33
-81 -46 -46 -20 -57 -30 -55 -47 2 -18 -4 -21 -35 -24 -21 -2 -38 -7 -38 -13
0 -5 5 -9 10 -9 7 0 7 -6 0 -19 -5 -11 -10 -27 -10 -36 0 -9 -9 -25 -20 -37
-10 -11 -22 -35 -25 -52 -3 -17 -16 -53 -28 -80 -13 -29 -18 -51 -12 -53 6 -2
9 -24 8 -51 -2 -34 0 -40 5 -22 7 22 9 23 15 7 4 -10 7 -32 7 -48 0 -23 4 -29
22 -29 12 0 19 -3 15 -6 -11 -11 -155 -15 -162 -4 -3 6 -10 8 -15 5 -17 -11
-140 -13 -147 -2 -12 20 -11 163 2 222 8 33 16 102 20 153 4 67 11 104 26 130
102 186 121 206 188 198 31 -4 51 -12 60 -26 16 -24 63 -27 81 -4 12 13 10 14
-13 3 -26 -12 -66 -5 -53 9 11 11 69 31 85 29 8 -1 19 -10 25 -19z m1164 -31
l3 -48 -23 15 c-18 12 -32 13 -57 6 -28 -8 -32 -7 -27 6 3 9 6 20 6 25 0 19
37 45 65 44 29 0 30 -2 33 -48z m277 43 c-9 -14 18 -12 34 3 11 10 13 10 7 0
-4 -7 -2 -13 3 -13 6 0 11 -4 11 -9 0 -15 -69 -18 -75 -3 -9 23 -6 32 11 32 8
0 12 -4 9 -10z m335 -50 c0 -30 -4 -39 -22 -43 -12 -4 -24 -4 -27 -2 -2 3 1 5
8 5 8 0 10 11 5 34 -7 40 0 58 21 49 10 -3 15 -19 15 -43z m-785 -23 c15 -36
10 -51 -13 -42 -21 8 -32 -12 -32 -57 0 -27 6 -41 20 -50 28 -18 25 -36 -5
-34 -14 0 -23 6 -21 11 2 6 -4 18 -13 28 -10 13 -17 44 -20 95 -3 63 -1 78 14
88 24 18 53 2 70 -39z m310 2 c0 -8 4 -17 9 -20 12 -10 -2 -29 -22 -29 -14 0
-14 -2 -3 -9 11 -7 9 -11 -8 -20 -19 -10 -21 -9 -21 12 0 12 -5 28 -10 33 -7
7 -3 18 11 33 22 23 44 24 44 0z m188 5 c3 -4 -1 -17 -10 -31 -9 -13 -21 -52
-27 -85 -6 -34 -16 -63 -23 -65 -14 -5 -34 79 -20 88 5 4 5 9 -1 13 -18 11 0
47 32 67 34 21 40 22 49 13z m-2532 -72 c-12 -17 -21 -35 -21 -41 0 -17 -15
-13 -34 8 -15 17 -15 19 -1 25 9 3 14 10 10 16 -5 8 55 31 64 24 2 -2 -6 -16
-18 -32z m2163 20 c-14 -9 -13 -150 1 -160 6 -4 16 -18 22 -32 l12 -25 1 30
c0 26 2 28 11 12 6 -10 13 -37 16 -60 2 -23 8 -60 13 -82 12 -51 13 -112 1
-119 -4 -3 -23 40 -40 97 -18 56 -36 110 -42 119 -5 10 -9 34 -9 53 0 19 -4
35 -10 35 -5 0 -10 14 -10 31 0 16 -4 28 -9 25 -15 -9 -41 5 -41 22 0 16 28
52 41 52 4 0 10 -12 12 -27 4 -26 4 -26 6 5 1 23 6 32 19 32 10 0 13 -3 6 -8z
m-297 -38 c10 -14 32 -42 49 -62 25 -29 33 -48 35 -90 2 -28 1 -52 -3 -52 -11
0 -28 36 -21 44 3 3 1 6 -5 6 -7 0 -12 7 -12 15 0 8 -4 15 -8 15 -4 0 -16 14
-26 30 -9 17 -21 28 -26 25 -5 -3 -12 6 -16 20 -3 14 -9 24 -12 21 -3 -3 -11
-1 -18 5 -10 8 -11 15 -1 30 17 27 43 24 64 -7z m938 16 c3 -5 2 -10 -4 -10
-5 0 -13 5 -16 10 -3 6 -2 10 4 10 5 0 13 -4 16 -10z m-1214 -42 c1 -14 3 -17
6 -7 3 11 12 14 33 11 16 -2 43 0 59 6 16 6 40 8 52 5 22 -6 22 -7 3 -14 -15
-6 -13 -8 11 -8 35 -1 55 -17 55 -42 0 -21 -31 -34 -41 -17 -4 7 -14 22 -22
32 -13 18 -14 18 -21 -7 -3 -15 -11 -27 -17 -27 -9 0 -43 9 -229 61 l-45 12
30 8 c17 3 51 7 78 8 42 1 47 -1 48 -21z m-151 -8 c14 -5 70 -21 125 -35 55
-15 114 -32 130 -37 46 -17 135 -71 135 -83 0 -5 22 -22 49 -38 64 -35 90 -67
143 -174 69 -141 48 -197 -43 -113 -24 22 -55 43 -69 46 -14 3 -34 10 -45 15
-14 7 -30 7 -48 0 -22 -9 -31 -7 -46 8 -13 13 -22 16 -29 9 -7 -7 -19 -4 -38
11 -15 11 -34 21 -44 21 -11 0 -16 8 -16 22 1 14 -5 23 -14 23 -8 0 -19 9 -25
20 -9 18 -20 20 -105 21 -117 1 -172 16 -217 59 -31 31 -37 32 -69 23 -41 -11
-64 -5 -64 17 0 17 -16 20 -25 5 -3 -5 -22 -10 -40 -10 -41 0 -71 36 -62 73 6
21 6 21 -8 3 -13 -17 -15 -17 -15 -3 0 20 38 47 65 46 19 0 19 -1 1 -8 -17 -6
-16 -9 10 -18 64 -24 71 -25 44 -3 l-25 20 36 0 c19 0 58 -11 84 -25 49 -24
224 -77 300 -90 48 -8 117 -38 134 -59 7 -8 29 -20 49 -26 20 -7 53 -19 72
-27 40 -18 99 -23 100 -8 0 6 -13 13 -29 18 -36 9 -65 58 -47 78 8 9 8 10 -4
4 -13 -8 -13 -7 -1 8 12 15 11 17 -2 17 -11 0 -14 5 -10 18 6 15 5 15 -10 4
-9 -8 -21 -11 -27 -7 -6 4 -17 0 -23 -9 -10 -14 -16 -15 -39 -4 -16 7 -28 16
-28 21 0 4 -6 7 -14 7 -7 0 -27 7 -42 15 -16 8 -43 15 -61 15 -17 0 -34 4 -38
9 -11 18 -65 40 -71 29 -4 -5 -15 9 -25 31 -11 25 -28 45 -44 51 -41 15 -43
12 -7 -11 18 -12 32 -29 32 -40 0 -18 -5 -19 -42 -14 -53 8 -71 22 -64 49 5
19 4 19 -15 -3 -10 -13 -19 -17 -19 -10 0 7 10 23 22 36 21 22 28 24 88 18 36
-4 76 -10 90 -15z m877 -2 c-3 -8 -6 -5 -6 6 -1 11 2 17 5 13 3 -3 4 -12 1
-19z m463 -41 c0 -19 -4 -27 -12 -24 -7 2 -13 9 -12 15 1 7 2 24 3 40 1 21 3
24 11 12 5 -8 10 -28 10 -43z m-183 4 c-4 -19 -2 -31 6 -34 17 -6 13 -197 -4
-208 -7 -4 -9 -13 -6 -21 3 -8 1 -21 -4 -29 -19 -29 -30 21 -34 156 -3 132 -3
135 18 136 12 0 16 3 10 6 -18 7 -16 23 3 23 13 0 15 -7 11 -29z m213 -5 c0
-3 -4 -8 -10 -11 -5 -3 -10 -1 -10 4 0 6 5 11 10 11 6 0 10 -2 10 -4z m-1585
-44 c-6 -7 -34 11 -29 19 3 5 11 3 19 -4 7 -6 12 -13 10 -15z m1161 -83 c8
-57 17 -115 20 -129 9 -43 -12 -9 -29 45 -19 62 -30 155 -21 178 3 10 8 16 11
14 2 -2 10 -51 19 -108z m370 78 c20 7 19 -41 -1 -57 -13 -11 -17 -8 -28 19
-6 17 -15 31 -19 31 -4 0 -8 5 -8 11 0 5 4 8 9 4 5 -3 13 0 18 7 6 10 8 9 11
-4 2 -10 9 -15 18 -11z m44 11 c0 -7 -4 -19 -9 -27 -6 -9 -8 -5 -8 13 0 14 3
26 8 26 5 0 9 -6 9 -12z m-803 -12 c-3 -8 -3 -16 1 -18 4 -2 15 -19 24 -38
l17 -35 -3 41 c-2 23 -6 46 -10 53 -4 6 -1 11 7 11 17 0 28 -65 20 -114 -5
-32 29 -133 50 -147 4 -3 7 -26 5 -50 l-3 -44 -35 36 c-45 46 -90 161 -97 251
-5 60 -4 68 12 68 11 0 15 -5 12 -14z m340 -68 c-3 -8 -6 -5 -6 6 -1 11 2 17
5 13 3 -3 4 -12 1 -19z m383 -37 c-1 -25 -1 -25 -15 -7 -8 11 -15 31 -15 45 1
25 1 25 15 7 8 -11 15 -31 15 -45z m-234 -19 c-12 -11 -18 7 -10 30 l8 23 4
-23 c2 -13 1 -26 -2 -30z m4 -22 c0 -5 -4 -10 -10 -10 -5 0 -10 5 -10 10 0 6
5 10 10 10 6 0 10 -4 10 -10z m-1499 -27 c-12 -20 -14 -14 -5 12 4 9 9 14 11
11 3 -2 0 -13 -6 -23z m93 4 c20 -17 27 -29 23 -41 -4 -10 -11 -14 -17 -11 -5
3 -10 2 -10 -3 0 -16 -35 -9 -52 11 -18 20 -23 48 -11 60 12 13 38 7 67 -16z
m-81 -53 c-8 -21 -23 -17 -23 6 0 13 5 18 14 14 8 -3 12 -12 9 -20z m252 -37
c25 -24 35 -28 67 -24 30 4 38 1 43 -13 3 -11 12 -17 20 -14 7 3 26 -1 42 -9
15 -7 55 -19 87 -26 39 -9 54 -16 45 -21 -7 -5 -16 -7 -21 -4 -4 2 -12 -5 -18
-16 -8 -15 -8 -20 2 -20 9 0 9 -3 0 -12 -20 -20 -146 -13 -179 10 -25 18 -109
55 -257 114 -27 10 -58 25 -68 33 -22 15 -10 29 12 14 24 -15 68 -10 82 9 7 9
24 22 38 28 28 13 54 0 105 -49z m1152 -9 c-3 -7 -5 -2 -5 12 0 14 2 19 5 13
2 -7 2 -19 0 -25z m-280 -70 c-3 -7 -5 -2 -5 12 0 14 2 19 5 13 2 -7 2 -19 0
-25z m-982 -32 c30 -28 20 -41 -25 -31 -17 4 -30 2 -30 -3 0 -5 16 -13 36 -17
50 -9 37 -17 -15 -9 -25 4 -41 12 -41 20 0 12 38 64 46 64 2 0 15 -11 29 -24z
m-910 4 c-3 -5 -12 -10 -18 -10 -7 0 -6 4 3 10 19 12 23 12 15 0z m1427 -24
c21 -26 9 -36 -44 -36 -35 0 -38 2 -36 28 1 15 3 30 5 35 7 13 57 -5 75 -27z
m438 -22 c0 -8 -4 -14 -10 -14 -5 0 -10 9 -10 21 0 11 5 17 10 14 6 -3 10 -13
10 -21z m-203 -10 c-3 -3 -12 -4 -19 -1 -8 3 -5 6 6 6 11 1 17 -2 13 -5z m608
-14 c3 -5 2 -10 -4 -10 -5 0 -13 5 -16 10 -3 6 -2 10 4 10 5 0 13 -4 16 -10z
m-38 -6 c-3 -3 -12 -4 -19 -1 -8 3 -5 6 6 6 11 1 17 -2 13 -5z m-1052 -13
c-14 -12 -82 -24 -70 -12 10 9 38 18 65 20 8 1 10 -2 5 -8z m-1442 -38 c-7 -2
-19 -2 -25 0 -7 3 -2 5 12 5 14 0 19 -2 13 -5z m502 -2 c2 -5 -11 -8 -30 -8
-19 1 -35 4 -35 8 0 9 59 9 65 0z m900 -21 c3 -5 1 -10 -4 -10 -6 0 -11 5 -11
10 0 6 2 10 4 10 3 0 8 -4 11 -10z m-1295 -7 c-14 -3 -29 -8 -34 -13 -5 -5
-15 -6 -24 -2 -13 5 -12 7 4 13 10 4 33 7 49 7 27 -1 27 -1 5 -5z m803 -10
c-7 -2 -19 -2 -25 0 -7 3 -2 5 12 5 14 0 19 -2 13 -5z m434 -9 c-3 -3 -12 -4
-19 -1 -8 3 -5 6 6 6 11 1 17 -2 13 -5z m1011 -3 c11 -6 10 -11 -3 -25 -20
-19 -35 -13 -35 15 0 20 16 24 38 10z m-2025 -28 c-7 -2 -21 -2 -30 0 -10 3
-4 5 12 5 17 0 24 -2 18 -5z m54 -9 c-3 -3 -12 -4 -19 -1 -8 3 -5 6 6 6 11 1
17 -2 13 -5z m-64 -11 c-7 -2 -19 -2 -25 0 -7 3 -2 5 12 5 14 0 19 -2 13 -5z"/>
<path d="M1070 1551 c0 -17 5 -31 10 -31 6 0 10 11 10 24 0 14 -4 28 -10 31
-6 4 -10 -7 -10 -24z"/>
<path d="M1717 1289 c-3 -13 -1 -19 6 -16 15 5 22 37 9 37 -5 0 -12 -9 -15
-21z"/>
<path d="M998 599 c-22 -34 -25 -45 -16 -65 11 -23 12 -23 24 -5 21 30 83 88
100 95 9 4 15 9 12 12 -3 2 -18 0 -33 -6 -20 -7 -31 -8 -39 0 -16 16 -20 13
-48 -31z"/>
<path d="M868 467 c-18 -7 -28 -19 -29 -31 0 -12 -2 -40 -5 -63 -3 -24 -3 -43
0 -43 8 0 60 81 74 115 12 29 12 29 -4 10 -16 -20 -16 -20 -11 3 3 12 4 22 4
21 -1 -1 -14 -6 -29 -12z"/>
<path d="M2096 369 c-15 -15 -17 -22 -8 -31 7 -7 12 -8 12 -4 0 5 6 4 13 -1 6
-6 24 -13 40 -17 34 -8 37 12 4 40 -36 32 -41 33 -61 13z"/>
<path d="M360 1010 c0 -5 5 -10 10 -10 6 0 10 5 10 10 0 6 -4 10 -10 10 -5 0
-10 -4 -10 -10z"/>
<path d="M432 810 c0 -19 2 -27 5 -17 2 9 2 25 0 35 -3 9 -5 1 -5 -18z"/>
<path d="M273 774 c3 -4 2 -15 -4 -25 -7 -15 -6 -19 6 -19 9 0 15 9 15 25 0
14 -5 25 -12 25 -6 0 -8 -3 -5 -6z"/>
<path d="M266 666 c-5 -40 -3 -62 8 -83 14 -26 14 -23 9 52 -3 44 -7 81 -8 83
-1 2 -6 -22 -9 -52z"/>
<path d="M141 554 c0 -11 3 -14 6 -6 3 7 2 16 -1 19 -3 4 -6 -2 -5 -13z"/>
<path d="M341 533 c-1 -29 -21 -60 -21 -32 0 7 -3 9 -7 5 -9 -9 -10 -116 0
-116 4 0 7 21 8 48 0 33 3 41 8 27 8 -19 8 -19 18 0 7 12 8 36 3 60 -7 38 -8
38 -9 8z"/>
<path d="M627 546 c-6 -16 2 -28 14 -20 12 7 11 34 0 34 -5 0 -11 -6 -14 -14z"/>
<path d="M111 534 c0 -11 3 -14 6 -6 3 7 2 16 -1 19 -3 4 -6 -2 -5 -13z"/>
<path d="M240 496 c0 -8 7 -16 15 -20 13 -4 14 -2 5 14 -13 23 -20 26 -20 6z"/>
<path d="M597 493 c-2 -5 -1 -19 2 -32 l7 -24 17 26 c9 14 17 29 17 32 0 8
-38 6 -43 -2z"/>
<path d="M592 388 c-15 -18 -25 -65 -17 -78 4 -7 13 -3 26 11 20 24 24 46 10
67 -6 11 -10 11 -19 0z"/>
<path d="M530 256 c0 -7 9 -16 19 -19 17 -4 18 -2 8 14 -14 22 -27 25 -27 5z"/>
<path d="M0 30 c0 -5 7 -10 15 -10 8 0 15 5 15 10 0 6 -7 10 -15 10 -8 0 -15
-4 -15 -10z"/>
</g>
</svg>
