<?xml version="1.0" standalone="no"?>
<!DOCTYPE svg PUBLIC "-//W3C//DTD SVG 20010904//EN"
 "http://www.w3.org/TR/2001/REC-SVG-20010904/DTD/svg10.dtd">
<svg version="1.0" xmlns="http://www.w3.org/2000/svg"
 width="228.000000pt" height="144.000000pt" viewBox="0 0 228.000000 144.000000"
 preserveAspectRatio="xMidYMid meet">
<metadata>
Created by potrace 1.16, written by Peter Selinger 2001-2019
</metadata>
<g transform="translate(0.000000,144.000000) scale(0.100000,-0.100000)"
fill="#000000" stroke="none">
<path d="M300 1245 l0 -195 40 0 c39 0 40 1 40 35 l0 35 55 0 55 0 0 35 0 35
-55 0 -55 0 0 85 0 85 70 0 70 0 0 40 0 40 -110 0 -110 0 0 -195z"/>
<path d="M570 1185 l0 -165 25 0 c24 0 25 2 25 63 0 71 4 81 31 67 14 -8 19
-24 21 -68 3 -52 5 -57 28 -60 25 -3 25 -2 22 65 -2 37 -8 73 -14 80 -6 8 -6
19 1 32 6 11 11 42 11 70 0 63 -22 81 -97 81 l-53 0 0 -165z"/>
<path d="M780 1185 l0 -165 71 0 c67 0 70 1 67 22 -3 20 -8 22 -45 20 l-43 -4
0 51 0 51 35 0 c31 0 35 3 35 25 0 22 -4 25 -35 25 -35 0 -35 0 -35 44 l0 45
43 3 c35 2 43 7 45 26 3 21 0 22 -67 22 l-71 0 0 -165z"/>
<path d="M970 1185 l0 -165 70 0 c63 0 70 2 70 19 0 16 -8 20 -42 23 l-43 3
-3 48 -3 47 35 0 c32 0 36 3 36 25 0 22 -4 25 -35 25 -35 0 -35 0 -35 44 l0
45 43 3 c35 2 43 7 45 26 3 21 0 22 -67 22 l-71 0 0 -165z"/>
<path d="M1160 1185 l0 -165 55 0 c46 0 60 4 80 25 24 23 25 30 25 140 0 110
-1 117 -25 140 -20 21 -34 25 -80 25 l-55 0 0 -165z"/>
<path d="M1390 1330 c-18 -18 -20 -33 -20 -145 0 -145 9 -165 78 -165 65 0 72
16 72 168 0 124 -1 132 -22 146 -31 22 -84 20 -108 -4z"/>
<path d="M1580 1185 c0 -157 1 -165 20 -165 18 0 20 8 22 108 3 112 6 108 29
-35 10 -67 13 -73 35 -73 13 0 24 3 24 8 1 25 30 195 34 200 3 3 6 -43 6 -101
0 -100 1 -107 20 -107 19 0 20 7 20 165 l0 165 -34 0 c-32 0 -33 -1 -39 -47
-3 -27 -11 -79 -18 -118 l-13 -70 -12 70 c-6 39 -15 91 -18 118 -7 46 -8 47
-42 47 l-34 0 0 -165z"/>
<path d="M196 1015 c-53 -26 -116 -82 -146 -131 -11 -17 -27 -59 -36 -94 -51
-200 110 -400 322 -400 84 0 84 0 84 96 l0 84 59 0 c63 0 71 -7 71 -69 l0 -24
25 23 c70 65 101 201 70 305 -29 102 -89 170 -185 214 -75 34 -80 31 -80 -44
l0 -65 -45 0 -45 0 0 65 c0 61 -1 65 -22 65 -13 0 -45 -11 -72 -25z"/>
<path d="M750 765 l0 -155 25 0 c24 0 25 2 25 65 l0 65 30 0 c23 0 30 4 30 20
0 16 -7 20 -30 20 -29 0 -30 2 -30 44 0 44 0 45 38 48 30 2 38 7 40 26 3 21 0
22 -62 22 l-66 0 0 -155z"/>
<path d="M636 363 c-15 -104 -29 -189 -31 -191 -3 -3 -8 25 -31 171 -11 64
-23 117 -27 117 -5 0 -22 -9 -38 -20 -15 -12 -42 -26 -59 -31 l-30 -11 2 -197
3 -196 35 0 35 0 0 178 c0 97 2 177 5 177 3 0 16 -69 29 -152 31 -206 30 -202
74 -206 20 -2 37 -1 37 1 0 2 11 80 25 173 14 93 26 176 27 184 1 8 5 -68 8
-170 l5 -185 38 -3 37 -3 0 275 0 276 -58 0 -58 0 -28 -187z"/>
<path d="M860 460 c-18 -18 -20 -33 -20 -148 0 -149 6 -162 78 -162 63 0 72
20 72 165 0 114 -1 123 -23 143 -30 28 -80 29 -107 2z"/>
<path d="M1035 458 c6 -26 45 -286 45 -299 0 -5 18 -9 40 -9 22 0 40 4 40 9 0
13 39 273 45 299 4 18 1 22 -18 22 -25 0 -24 3 -53 -203 -3 -27 -10 -45 -14
-40 -4 4 -12 51 -19 104 -16 132 -19 139 -47 139 -20 0 -23 -4 -19 -22z"/>
<path d="M1250 315 l0 -165 70 0 c63 0 70 2 70 19 0 16 -8 20 -42 23 l-43 3
-3 47 -3 47 38 3 c30 2 38 7 38 23 0 16 -8 21 -37 23 -38 3 -38 4 -38 48 l0
44 45 0 c41 0 45 2 45 25 0 24 -2 25 -70 25 l-70 0 0 -165z"/>
<path d="M1450 316 c0 -159 1 -166 20 -166 19 0 20 7 21 108 l1 107 19 -105
c10 -58 18 -106 18 -107 1 -2 12 -3 25 -3 22 0 24 6 38 102 l15 103 2 -102 c1
-103 1 -103 26 -103 l25 0 0 165 0 165 -35 0 c-19 0 -35 -2 -35 -5 0 -17 -31
-210 -35 -213 -2 -2 -6 11 -9 29 -33 198 -28 184 -64 187 l-32 3 0 -165z"/>
<path d="M1720 315 l0 -165 70 0 c63 0 70 2 70 20 0 17 -7 20 -45 20 l-45 0 0
50 0 50 35 0 c31 0 35 3 35 25 0 22 -4 25 -35 25 -35 0 -35 0 -35 45 l0 45 45
0 c41 0 45 2 45 25 0 24 -2 25 -70 25 l-70 0 0 -165z"/>
<path d="M1910 316 l0 -166 26 0 26 0 -4 110 c-1 60 0 106 3 102 5 -6 16 -43
49 -169 9 -36 15 -43 35 -43 l25 0 0 165 c0 158 -1 165 -20 165 -19 0 -20 -7
-20 -92 0 -50 -2 -89 -5 -86 -3 3 -16 43 -29 89 -22 82 -23 84 -54 87 l-32 3
0 -165z"/>
<path d="M2120 455 c0 -20 5 -25 25 -25 l25 0 0 -140 0 -140 25 0 25 0 0 139
0 140 28 3 c19 2 27 9 27 23 0 18 -8 20 -77 23 -78 3 -78 3 -78 -23z"/>
</g>
</svg>
