<?xml version="1.0" standalone="no"?>
<!DOCTYPE svg PUBLIC "-//W3C//DTD SVG 20010904//EN"
 "http://www.w3.org/TR/2001/REC-SVG-20010904/DTD/svg10.dtd">
<svg version="1.0" xmlns="http://www.w3.org/2000/svg"
 width="263.000000pt" height="192.000000pt" viewBox="0 0 263.000000 192.000000"
 preserveAspectRatio="xMidYMid meet">
<metadata>
Created by potrace 1.16, written by Peter Selinger 2001-2019
</metadata>
<g transform="translate(0.000000,192.000000) scale(0.100000,-0.100000)"
fill="#000000" stroke="none">
<path d="M1325 1280 c-13 -22 -32 -179 -27 -232 3 -47 2 -58 -10 -58 -9 0 -20
18 -27 43 -7 23 -19 60 -27 82 -8 23 -14 50 -14 61 0 30 -22 55 -39 45 -12 -7
-12 -24 -1 -107 6 -54 16 -109 21 -123 13 -33 -9 -161 -28 -168 -8 -3 -21 4
-30 17 -46 66 -101 99 -132 80 -12 -7 -12 -12 3 -35 11 -16 15 -34 10 -47 -3
-12 -9 -64 -13 -117 -9 -136 -33 -132 -61 12 -9 43 -18 67 -27 67 -9 0 -13
-11 -12 -32 2 -39 -38 -131 -52 -122 -7 4 -8 44 -3 110 5 71 3 104 -4 104 -10
0 -15 -17 -27 -97 -4 -24 -10 -45 -15 -48 -11 -7 -21 93 -13 138 8 49 -13 49
-26 0 -6 -21 -11 -68 -11 -105 0 -53 -3 -68 -15 -68 -8 0 -17 12 -21 28 -3 15
-10 37 -15 50 -5 13 -9 29 -9 37 0 7 -5 26 -11 42 -9 25 -11 26 -21 10 -7 -13
-5 -41 6 -95 12 -57 13 -87 6 -112 -16 -56 -13 -69 18 -75 15 -3 57 -13 94
-21 77 -18 98 -14 98 18 0 13 5 41 11 62 9 34 12 37 21 22 6 -11 8 -42 4 -76
l-7 -57 88 -17 c48 -10 96 -19 106 -21 21 -4 37 29 37 75 0 23 20 82 37 109 4
7 58 -41 70 -62 7 -12 12 -44 13 -71 l0 -49 63 7 c121 14 117 12 117 70 0 65
15 92 29 54 5 -14 13 -42 16 -61 9 -44 33 -52 139 -42 99 10 101 11 86 72 -10
39 -11 69 -1 140 11 87 8 123 -9 123 -5 0 -16 -42 -25 -94 -9 -52 -22 -97 -29
-99 -8 -3 -16 25 -25 90 -22 168 -56 200 -45 43 4 -55 4 -100 2 -100 -7 0 -34
84 -43 133 -12 62 -29 44 -21 -23 3 -33 9 -87 12 -120 8 -70 -4 -78 -36 -23
-20 34 -21 46 -15 123 9 117 21 173 50 246 29 72 30 84 10 84 -8 0 -33 -34
-56 -75 -22 -41 -44 -73 -47 -71 -4 2 -4 64 -1 137 7 139 5 159 -16 159 -14 0
-17 -11 -36 -140 -7 -47 -16 -89 -21 -95 -8 -9 -12 94 -8 213 1 50 -1 62 -13
62 -9 0 -19 -4 -22 -10z"/>
<path d="M2245 778 c-4 -10 -4 -21 -1 -26 7 -11 -4 -75 -11 -68 -3 2 -11 22
-18 43 -14 38 -14 37 -15 -44 0 -46 -4 -83 -9 -83 -13 0 -41 64 -41 96 0 41
-20 17 -35 -42 -17 -70 -31 -65 -40 12 -10 93 -19 109 -25 44 -6 -63 -18 -70
-36 -20 -13 34 -14 33 -11 -34 2 -81 -11 -94 -43 -41 -23 37 -40 38 -40 1 0
-12 -6 -30 -14 -41 -12 -17 -13 -17 -20 8 -3 14 -3 34 1 44 6 17 5 17 -15 -1
-14 -12 -31 -17 -47 -14 -17 4 -25 1 -25 -9 0 -8 -7 -27 -15 -42 -12 -25 -13
-31 0 -41 21 -17 48 -8 55 18 6 29 24 30 28 2 3 -16 10 -20 30 -18 22 2 28 9
30 36 4 40 25 38 32 -3 6 -34 44 -48 123 -43 l52 3 6 40 5 40 12 -28 c7 -16
12 -32 12 -37 0 -11 85 -24 98 -16 5 3 34 1 63 -4 30 -5 97 -14 149 -19 52 -6
107 -13 123 -17 l27 -6 -1 153 c-1 139 -2 151 -14 124 -8 -16 -14 -42 -15 -56
0 -15 -7 -32 -15 -39 -23 -19 -41 3 -49 60 -10 72 -32 66 -40 -10 -12 -103
-36 -80 -36 35 0 91 -22 54 -29 -51 -3 -48 -11 -89 -17 -91 -9 -3 -32 63 -49
140 -7 34 -29 31 -33 -4 -5 -34 -33 -109 -42 -109 -13 0 -20 30 -20 88 0 62
-14 100 -25 70z"/>
<path d="M25 650 c-4 -17 -11 -28 -16 -24 -5 3 -9 -35 -9 -90 l0 -95 38 -6
c56 -10 72 -15 72 -26 0 -5 17 -9 38 -9 20 0 54 -4 74 -9 45 -11 53 -3 62 62
8 55 21 61 29 15 16 -88 19 -97 49 -111 l31 -15 -32 -7 c-27 -6 -31 -11 -31
-41 0 -34 1 -34 44 -34 24 0 51 3 60 6 18 7 21 45 6 60 -6 6 7 28 39 64 27 30
51 53 54 50 2 -3 12 -35 22 -72 10 -38 22 -68 26 -68 15 0 10 -28 -6 -34 -12
-4 -15 -24 -15 -90 l0 -85 38 6 c54 8 73 28 67 72 -17 142 -17 149 14 183 16
18 32 30 36 26 9 -9 8 -155 -1 -203 -6 -35 -6 -35 29 -35 20 0 38 4 41 9 3 5
22 12 41 15 l35 7 0 119 c0 74 4 121 11 125 12 8 76 -58 90 -93 5 -13 9 -48 9
-79 l0 -56 42 7 c85 14 92 21 101 115 5 46 7 84 5 86 -2 2 -52 12 -113 24 -60
11 -121 23 -135 26 -14 4 -56 11 -93 16 -38 4 -74 13 -81 19 -17 13 -155 31
-184 23 -13 -3 -22 -1 -22 6 0 15 -59 38 -131 51 -54 10 -63 9 -80 -6 -18 -16
-19 -16 -19 8 0 20 -7 29 -31 37 -41 14 -39 15 -39 -14 0 -38 -18 -30 -36 15
-13 31 -22 40 -40 40 -18 0 -24 -5 -24 -22 0 -27 -16 -55 -26 -46 -3 4 -9 28
-11 53 -7 55 -19 66 -28 25z"/>
<path d="M1607 422 c-76 -3 -79 -4 -73 -25 3 -12 8 -52 12 -89 7 -75 7 -74
104 -81 l35 -2 5 66 c5 64 26 109 52 109 6 0 29 -21 53 -47 37 -40 44 -55 45
-89 0 -47 13 -57 57 -45 24 6 29 14 36 57 4 27 11 69 16 94 5 24 7 48 5 52 -5
7 -163 7 -347 0z"/>
<path d="M1997 332 c3 -53 10 -102 17 -109 6 -6 29 -13 51 -15 l40 -3 3 77 c3
70 5 80 32 107 17 16 30 32 30 34 0 3 -40 5 -89 6 l-89 0 5 -97z"/>
<path d="M2195 417 c-3 -7 -1 -57 3 -112 l7 -99 44 -9 c28 -6 47 -5 54 2 5 5
9 47 8 95 -3 98 6 106 55 55 25 -26 30 -40 34 -97 l5 -67 55 0 55 0 5 58 c3
31 8 57 13 57 4 0 12 0 17 0 6 0 10 -27 10 -60 0 -56 2 -61 26 -70 14 -6 30
-10 35 -10 5 0 9 48 9 109 l0 109 -32 6 c-18 4 -67 9 -108 12 -41 2 -97 9
-125 14 -90 17 -166 20 -170 7z"/>
<path d="M1273 398 c-4 -7 -13 -43 -18 -80 l-11 -66 29 -6 c16 -3 67 -6 112
-6 l82 0 -4 73 c-3 39 -6 78 -8 85 -6 17 -171 17 -182 0z"/>
<path d="M0 284 l0 -114 23 9 c12 5 24 9 27 9 35 4 40 16 40 87 0 52 4 76 15
85 25 21 54 -25 55 -85 0 -28 5 -56 11 -62 9 -9 6 -19 -8 -40 -11 -15 -23 -40
-27 -56 -8 -35 -21 -34 -34 2 -9 25 -14 29 -34 23 -55 -16 -68 -34 -68 -89 l0
-53 130 0 131 0 -3 98 -3 97 -33 3 c-28 3 -31 6 -21 18 6 8 17 14 25 14 42 0
63 99 25 120 -11 5 -29 10 -41 10 -12 0 -36 6 -53 14 -18 8 -60 16 -94 19
l-63 5 0 -114z"/>
<path d="M380 228 c-19 -12 -36 -22 -37 -23 -8 -4 -14 -126 -8 -162 6 -38 9
-43 33 -43 28 0 122 53 122 69 0 5 -5 22 -11 38 -6 15 -16 53 -23 83 -13 63
-25 70 -76 38z"/>
<path d="M1256 190 c-58 -18 -68 -36 -80 -148 l-4 -42 138 0 c159 0 148 -8
157 111 6 74 5 76 -18 82 -34 9 -158 7 -193 -3z"/>
<path d="M1605 190 l-50 -5 -3 -92 -3 -93 101 0 c55 0 100 3 100 8 0 4 -9 31
-20 60 -11 29 -20 63 -20 76 0 41 -30 54 -105 46z"/>
<path d="M1843 168 c-6 -7 -22 -48 -36 -90 l-26 -78 80 0 79 0 0 80 c0 79 0
80 -27 86 -16 3 -35 8 -44 10 -9 3 -21 -1 -26 -8z"/>
<path d="M1065 153 c-88 -10 -99 -18 -121 -88 l-22 -65 100 0 100 0 -5 73 c-4
39 -6 75 -7 80 0 4 -3 6 -7 6 -5 -1 -21 -4 -38 -6z"/>
<path d="M1995 139 c-4 -11 -4 -47 0 -80 l7 -59 84 0 c80 0 84 1 84 23 0 12
-7 35 -15 51 -8 15 -15 34 -15 41 0 26 -36 45 -88 45 -42 0 -52 -3 -57 -21z"/>
<path d="M2197 133 c-4 -3 -7 -35 -7 -70 l0 -63 220 0 220 0 0 55 0 55 -35 0
c-25 0 -37 -6 -47 -22 l-12 -23 -6 25 c-6 27 -33 37 -107 39 -34 1 -43 -3 -48
-20 -7 -21 -7 -21 -31 5 -21 22 -33 26 -83 26 -32 0 -61 -3 -64 -7z"/>
</g>
</svg>
