<?xml version="1.0" standalone="no"?>
<!DOCTYPE svg PUBLIC "-//W3C//DTD SVG 20010904//EN"
 "http://www.w3.org/TR/2001/REC-SVG-20010904/DTD/svg10.dtd">
<svg version="1.0" xmlns="http://www.w3.org/2000/svg"
 width="225.000000pt" height="225.000000pt" viewBox="0 0 225.000000 225.000000"
 preserveAspectRatio="xMidYMid meet">
<metadata>
Created by potrace 1.16, written by Peter Selinger 2001-2019
</metadata>
<g transform="translate(0.000000,225.000000) scale(0.100000,-0.100000)"
fill="#000000" stroke="none">
<path d="M517 1554 c-130 -96 -197 -152 -197 -164 0 -22 374 -303 405 -304 18
-1 21 7 25 69 4 62 7 70 26 73 15 2 27 17 39 47 51 136 220 229 368 205 112
-18 221 -102 263 -202 10 -27 24 -46 29 -45 6 2 10 64 10 158 l0 154 -365 5
-365 5 -5 70 c-4 51 -9 71 -20 73 -8 1 -104 -63 -213 -144z"/>
<path d="M1045 1437 c-94 -31 -159 -89 -198 -176 -29 -63 -28 -177 1 -243 58
-131 206 -207 345 -178 235 48 325 338 158 513 -76 81 -207 116 -306 84z m115
-77 c0 -13 11 -25 33 -34 19 -7 44 -26 56 -42 l22 -29 -26 -8 c-21 -7 -31 -5
-49 12 -12 12 -25 21 -29 21 -4 0 -7 -22 -7 -49 0 -48 1 -49 34 -55 82 -15
115 -119 57 -177 -16 -16 -43 -32 -60 -35 -23 -5 -31 -12 -33 -33 -4 -36 -38
-42 -38 -6 0 16 -7 28 -17 31 -53 16 -85 37 -103 66 l-20 33 32 9 c24 8 33 7
36 -3 7 -21 41 -51 57 -51 11 0 15 13 15 55 0 54 0 54 -36 64 -57 16 -84 47
-84 96 0 54 28 91 81 106 27 9 39 18 39 31 0 11 7 18 20 18 13 0 20 -7 20 -20z"/>
<path d="M1072 1268 c-19 -19 -14 -45 10 -62 33 -24 38 -20 38 29 0 37 -3 45
-18 45 -10 0 -23 -5 -30 -12z"/>
<path d="M1160 1060 c0 -54 9 -61 40 -30 25 25 25 42 2 63 -32 29 -42 21 -42
-33z"/>
<path d="M1505 1158 c-2 -7 -6 -40 -7 -73 -3 -52 -6 -60 -24 -63 -12 -2 -28
-17 -37 -38 -27 -55 -91 -118 -154 -150 -52 -26 -68 -29 -153 -29 -80 0 -103
4 -145 25 -60 29 -134 101 -159 153 -13 29 -23 37 -39 35 -22 -3 -22 -6 -22
-158 l0 -155 365 -5 365 -5 5 -70 c4 -62 7 -70 25 -69 11 0 107 65 213 144
150 111 192 148 190 163 -3 21 -381 307 -405 307 -8 0 -16 -6 -18 -12z"/>
</g>
</svg>
