<?xml version="1.0" standalone="no"?>
<!DOCTYPE svg PUBLIC "-//W3C//DTD SVG 20010904//EN"
 "http://www.w3.org/TR/2001/REC-SVG-20010904/DTD/svg10.dtd">
<svg version="1.0" xmlns="http://www.w3.org/2000/svg"
 width="263.000000pt" height="191.000000pt" viewBox="0 0 263.000000 191.000000"
 preserveAspectRatio="xMidYMid meet">
<metadata>
Created by potrace 1.16, written by Peter Selinger 2001-2019
</metadata>
<g transform="translate(0.000000,191.000000) scale(0.100000,-0.100000)"
fill="#000000" stroke="none">
<path d="M391 1674 c-149 -75 -158 -290 -16 -371 54 -31 62 -29 31 8 -62 73
-3 179 99 179 40 0 85 50 85 95 0 104 -89 144 -199 89z"/>
<path d="M1932 1535 c-29 -13 -32 -17 -22 -35 12 -22 25 -26 35 -10 3 6 19 10
36 10 22 0 29 -5 29 -20 0 -15 -7 -20 -25 -20 -18 0 -25 -5 -25 -20 0 -13 7
-20 18 -20 23 0 42 -19 42 -42 0 -43 -95 -48 -124 -6 -23 32 -28 17 -8 -23 33
-66 133 -63 157 5 5 16 28 47 49 68 42 41 66 38 66 -8 0 -60 -37 -93 -68 -62
-6 6 -14 9 -18 5 -3 -3 6 -17 20 -32 21 -21 29 -24 46 -15 29 15 42 46 44 102
1 39 -3 53 -18 64 -30 21 -46 17 -83 -22 -28 -30 -36 -34 -49 -23 -10 8 -12
15 -4 23 16 16 12 51 -7 68 -28 24 -55 28 -91 13z"/>
<path d="M1068 1423 c-24 -6 -23 -26 3 -49 11 -10 26 -32 33 -49 7 -17 29 -42
49 -55 20 -14 37 -33 37 -42 0 -10 7 -18 15 -18 8 0 15 5 15 11 0 5 -6 7 -12
3 -7 -4 -2 5 12 21 14 16 19 25 11 20 -11 -6 -13 -4 -8 7 3 9 -1 24 -8 35 -8
10 -15 14 -15 10 0 -4 -9 -3 -19 3 -13 7 -22 7 -26 0 -3 -5 1 -10 9 -10 8 0
18 -5 22 -12 5 -8 2 -9 -10 -5 -12 5 -15 3 -11 -6 4 -6 -1 -3 -9 7 -17 21 -20
35 -8 37 59 7 72 6 72 -4 0 -7 9 -23 19 -37 l19 -24 18 38 c17 34 17 40 3 64
-10 18 -26 29 -49 33 -19 3 -45 11 -57 17 -21 12 -71 14 -105 5z"/>
<path d="M1644 1363 c-27 -64 -23 -93 6 -58 21 25 35 11 32 -32 -3 -29 1 -42
12 -46 9 -4 16 -14 16 -22 0 -9 7 -23 15 -31 13 -14 15 -12 16 13 1 15 2 35 3
43 2 23 29 60 44 60 16 0 32 -41 32 -83 1 -30 1 -31 15 -13 20 27 18 86 -3
114 -10 13 -33 25 -57 29 -22 3 -49 17 -61 30 -29 31 -56 29 -70 -4z"/>
<path d="M166 1311 c-20 -22 -45 -86 -46 -117 0 -14 11 -26 36 -37 44 -22 55
-15 50 29 -6 49 26 78 63 55 10 -7 11 -13 2 -27 -8 -15 -11 -16 -12 -4 -1 8
-1 18 0 23 2 14 -27 7 -40 -10 -12 -15 -12 -16 3 -11 25 10 30 -3 11 -26 -17
-20 -17 -20 0 -7 11 9 17 10 17 2 0 -22 -2 -26 -12 -23 -5 1 -6 -2 -3 -9 5 -7
15 -3 31 12 16 15 24 18 24 9 0 -10 6 -8 21 6 20 20 20 23 4 60 -35 83 -108
120 -149 75z"/>
<path d="M2230 1292 c0 -28 28 -92 40 -92 6 0 15 -10 19 -22 9 -23 9 -23 16 3
6 25 70 67 83 54 3 -3 1 -25 -5 -48 -6 -23 -10 -43 -9 -45 8 -7 55 41 60 63 7
27 -8 65 -25 65 -5 0 -23 10 -39 22 -27 19 -33 20 -70 9 -32 -9 -45 -10 -56 0
-11 9 -14 8 -14 -9z"/>
<path d="M1737 1151 c-26 -8 -58 -46 -67 -81 -6 -22 -19 -41 -33 -47 -29 -13
-54 -60 -40 -74 7 -7 2 -25 -14 -56 -12 -26 -23 -52 -23 -60 0 -7 -6 -13 -14
-13 -23 0 -29 -31 -6 -37 11 -3 20 -11 20 -17 0 -7 10 -33 23 -58 17 -33 20
-49 13 -61 -14 -23 7 -45 27 -29 10 9 23 7 52 -8 22 -11 47 -20 56 -20 10 0
19 -9 21 -22 4 -31 26 -34 38 -4 5 14 15 26 23 26 7 0 30 9 52 20 28 14 42 17
51 9 19 -16 36 0 30 27 -4 14 0 34 8 47 8 12 17 36 21 53 4 20 14 34 26 37 25
7 25 27 0 34 -25 6 -31 34 -11 50 12 10 13 15 3 30 -7 10 -36 60 -64 112 -71
128 -86 144 -137 145 -23 1 -48 -1 -55 -3z"/>
<path d="M705 1060 c-50 -19 -119 -79 -121 -103 0 -7 -2 -25 -2 -40 -2 -20 -8
-31 -22 -34 -17 -5 -20 -14 -20 -67 0 -75 33 -149 87 -196 32 -28 36 -38 45
-108 5 -42 10 -77 11 -78 1 -1 35 -6 75 -9 l72 -8 1 69 c1 79 17 62 18 -18 l1
-48 68 0 68 0 -9 94 -8 94 34 46 c19 25 41 62 47 82 16 46 8 150 -13 189 -31
58 -34 60 -51 46 -22 -18 -48 -6 -46 21 4 41 0 47 -30 63 -51 26 -147 28 -205
5z m171 -69 c48 -22 71 -47 29 -31 -107 41 -227 -50 -212 -161 12 -89 107
-154 191 -132 54 15 57 9 7 -16 -84 -43 -198 -15 -248 60 -65 98 -26 231 82
280 51 24 99 23 151 0z"/>
<path d="M2185 716 c-17 -59 -45 -191 -45 -213 0 -15 16 -81 37 -146 33 -103
40 -117 58 -115 19 3 20 12 26 143 4 77 7 145 8 150 1 6 10 -10 21 -33 11 -24
47 -75 79 -112 33 -38 66 -78 74 -90 9 -14 20 -18 32 -14 23 9 17 45 -31 164
-29 72 -39 113 -42 171 l-4 76 -105 15 c-73 10 -106 11 -108 4z"/>
<path d="M1088 713 c-18 -3 -28 -10 -28 -21 0 -9 12 -115 26 -235 21 -175 23
-221 13 -233 -16 -20 0 -34 27 -24 19 7 22 24 39 199 10 105 22 191 25 191 3
0 18 -70 33 -155 41 -236 46 -252 68 -258 23 -6 35 9 20 27 -8 9 -6 80 5 249
9 130 14 243 11 251 -5 13 -25 16 -109 15 -57 -1 -115 -4 -130 -6z"/>
</g>
</svg>
