<?xml version="1.0" standalone="no"?>
<!DOCTYPE svg PUBLIC "-//W3C//DTD SVG 20010904//EN"
 "http://www.w3.org/TR/2001/REC-SVG-20010904/DTD/svg10.dtd">
<svg version="1.0" xmlns="http://www.w3.org/2000/svg"
 width="300.000000pt" height="168.000000pt" viewBox="0 0 300.000000 168.000000"
 preserveAspectRatio="xMidYMid meet">
<metadata>
Created by potrace 1.16, written by Peter Selinger 2001-2019
</metadata>
<g transform="translate(0.000000,168.000000) scale(0.100000,-0.100000)"
fill="#000000" stroke="none">
<path d="M633 1674 c3 -3 36 -8 74 -9 37 -2 85 -10 105 -19 21 -9 47 -16 58
-16 12 0 20 -7 21 -17 0 -16 1 -15 8 2 6 16 9 17 17 5 5 -8 15 -15 22 -15 14
0 14 -3 6 -44 -6 -31 -12 -32 -109 -16 -11 2 -24 4 -28 4 -5 1 -6 5 -3 10 10
16 -13 63 -28 58 -7 -3 -19 0 -25 6 -8 8 -11 7 -11 -5 0 -8 -7 -21 -15 -28
-12 -10 -15 -10 -15 0 0 7 -7 10 -14 7 -10 -4 -13 -1 -9 9 3 7 2 22 -3 32 -6
14 -8 11 -13 -13 -6 -29 -52 -65 -59 -45 -2 5 -19 14 -38 20 -19 6 -34 18 -34
26 0 15 -12 16 -157 18 -42 1 -71 -3 -70 -9 1 -5 -10 -9 -26 -7 -33 3 -34 -2
-2 -33 18 -19 35 -25 66 -25 23 0 39 -3 36 -6 -16 -16 77 -62 111 -56 6 2 12
-5 13 -15 0 -10 3 -13 6 -6 8 22 43 -21 41 -50 -1 -15 -4 -27 -5 -27 -1 0 -36
14 -78 30 -42 17 -81 30 -88 30 -19 0 -131 79 -139 98 -5 14 -7 12 -7 -5 -1
-13 -6 -23 -12 -23 -5 0 -8 4 -4 9 7 13 -95 58 -150 66 -35 6 -45 4 -45 -6 0
-8 -6 -26 -14 -40 -7 -14 -14 -54 -14 -88 -1 -66 -2 -66 53 -25 17 12 51 28
77 34 43 11 50 10 83 -10 35 -21 47 -37 22 -27 -17 6 -77 -19 -77 -33 0 -5
-11 -10 -24 -10 -13 0 -26 -5 -28 -12 -3 -7 -12 -6 -30 6 -21 14 -30 15 -52 5
-29 -13 -35 -29 -11 -29 11 0 15 -11 15 -40 0 -22 -7 -57 -15 -77 -9 -21 -15
-67 -15 -114 0 -77 1 -79 24 -77 15 1 30 14 41 35 10 18 23 33 29 33 5 0 22
12 38 27 26 25 29 25 46 10 23 -21 33 -22 25 -1 -5 13 -2 15 14 10 14 -4 21
-2 20 6 -2 55 4 64 59 96 71 40 104 50 104 29 0 -8 12 -24 28 -35 l27 -21 -25
-9 c-55 -22 -131 -80 -187 -142 -71 -78 -103 -123 -103 -143 0 -8 -8 -25 -18
-37 l-19 -23 -22 36 c-12 20 -20 41 -16 47 14 22 -6 50 -36 50 -25 0 -29 -4
-29 -30 0 -30 18 -80 29 -80 13 0 -1 -96 -16 -107 -25 -20 -11 -109 23 -139
14 -14 24 -31 21 -38 -7 -18 35 -15 49 3 8 10 13 11 18 3 4 -7 2 -12 -3 -12
-6 0 -11 -6 -11 -14 0 -8 -6 -17 -12 -19 -8 -3 -5 -6 5 -6 14 -1 17 -6 12 -22
-5 -15 -4 -19 4 -15 6 4 11 13 11 21 0 7 7 15 15 19 10 4 15 -1 15 -17 1 -12
7 -35 15 -52 12 -27 13 -23 8 50 -6 85 0 105 52 193 14 23 25 51 25 61 0 10 7
21 15 25 8 3 15 12 15 19 0 8 6 20 14 26 8 6 16 21 19 32 5 18 2 20 -18 15
-13 -3 -26 -2 -29 3 -9 13 35 63 50 57 7 -3 16 -1 19 4 4 6 15 10 25 10 28 0
35 -54 15 -129 -9 -35 -14 -66 -11 -69 3 -3 6 3 6 12 0 12 5 16 15 13 8 -4 17
-1 21 5 4 7 10 6 16 -3 6 -9 8 3 4 37 -8 63 9 112 41 125 27 10 76 2 68 -11
-3 -5 4 -11 15 -15 15 -5 20 -15 19 -43 0 -20 -3 -31 -6 -24 -2 6 -11 12 -19
12 -8 0 -17 7 -20 15 -8 19 -23 19 -45 -1 -14 -13 -16 -21 -8 -42 6 -15 8 -56
5 -92 -3 -36 -8 -139 -11 -230 -4 -127 -3 -161 6 -146 7 11 13 47 15 80 2 34
6 77 8 96 2 19 8 98 12 175 4 77 10 131 14 120 4 -11 6 -23 3 -27 -2 -5 0 -8
4 -8 5 0 15 -28 23 -62 9 -39 16 -54 18 -40 2 12 8 19 14 16 10 -7 7 43 -6 96
-4 14 -3 18 1 10 9 -18 33 -25 33 -9 0 6 -5 19 -11 30 -21 41 24 88 55 57 14
-14 7 -50 -12 -62 -12 -7 -14 -213 -2 -252 8 -27 8 -26 9 16 2 44 2 45 16 20
14 -25 14 -25 15 -2 0 13 6 22 15 22 8 0 15 7 15 16 0 9 7 22 17 29 25 18 9
49 -22 43 -13 -3 -22 -2 -20 3 3 4 0 30 -7 58 -9 39 -9 54 0 63 13 13 14 10
32 -59 6 -24 15 -43 21 -43 6 0 8 9 4 21 -4 13 -1 27 10 39 20 22 35 18 35
-10 0 -10 6 -25 14 -32 11 -12 10 -20 -9 -56 -14 -26 -25 -38 -28 -30 -3 7 -6
-3 -5 -22 0 -19 -4 -47 -10 -62 -6 -15 -14 -61 -18 -103 -4 -41 -10 -78 -15
-81 -4 -2 -6 -11 -3 -18 3 -8 -6 -48 -20 -90 -14 -42 -26 -83 -26 -92 0 -9 -9
-18 -19 -21 -11 -3 -21 -14 -23 -26 -2 -11 -10 -22 -18 -24 -11 -3 -11 -2 -3
4 8 6 9 14 3 23 -9 13 -10 13 -11 0 0 -8 -2 -23 -4 -33 -2 -9 1 -15 5 -12 10
6 25 -14 17 -22 -8 -7 -68 28 -89 52 -9 11 -17 31 -18 44 0 13 -8 45 -17 72
-14 39 -21 48 -35 43 -11 -3 -18 0 -18 8 0 10 -3 9 -9 -2 -12 -18 -5 -30 19
-30 16 0 19 -6 16 -30 -4 -38 -34 -74 -50 -60 -8 6 -16 3 -24 -11 -7 -10 -19
-19 -27 -19 -9 0 -20 -11 -25 -24 -6 -16 -16 -24 -30 -23 -16 1 -22 12 -32 59
-10 46 -16 58 -35 63 -13 3 -22 9 -19 13 5 8 -43 42 -55 39 -12 -4 -57 47 -52
59 2 6 -5 14 -16 17 -15 4 -19 10 -15 24 5 15 4 15 -5 3 -6 -8 -11 -10 -11 -5
0 6 -4 4 -9 -3 -6 -10 -10 -10 -21 3 -11 13 -10 15 4 9 12 -4 16 0 16 16 0 11
-4 19 -9 16 -5 -3 -16 5 -25 18 -9 15 -12 26 -5 30 5 2 4 3 -3 2 -19 -4 -22
-43 -7 -79 10 -24 10 -32 1 -35 -18 -6 -16 -92 2 -92 7 0 19 7 26 15 7 8 22
13 34 11 11 -3 28 -5 36 -5 9 -1 21 -15 27 -31 10 -27 9 -33 -12 -53 -57 -54
-74 -67 -84 -67 -6 0 -11 -4 -11 -10 0 -5 -7 -10 -15 -10 -12 0 -15 -15 -15
-78 l0 -79 97 -2 c53 -1 99 -4 101 -6 3 -3 -3 -14 -13 -25 -10 -11 -13 -20 -7
-20 6 0 19 10 29 23 14 18 28 22 70 22 28 0 49 -3 47 -7 -2 -4 16 -10 41 -13
25 -4 42 -11 39 -16 -9 -14 129 -6 144 8 18 18 46 17 39 -1 -5 -12 63 -14 466
-15 260 0 463 4 452 9 -27 11 -6 19 55 22 95 5 143 -1 136 -17 -4 -13 77 -15
649 -15 l655 0 0 85 c0 72 -3 89 -20 107 -14 15 -18 31 -15 52 3 17 6 40 7 51
2 11 6 22 10 25 4 3 10 80 14 171 6 149 5 166 -10 172 -20 8 -21 27 -1 27 12
0 15 17 15 93 0 59 -4 97 -12 105 -9 9 -9 12 0 12 7 0 12 14 12 33 0 33 -30
64 -57 59 -27 -6 -11 19 22 35 31 15 35 21 35 55 0 40 -10 48 -30 23 -14 -17
-30 -20 -30 -6 0 5 12 24 26 41 15 17 25 33 22 35 -8 8 -108 -8 -108 -17 0 -5
-4 -6 -10 -3 -5 3 -10 -3 -10 -13 0 -11 -6 -25 -14 -31 -13 -11 -30 -65 -27
-86 2 -20 -39 -14 -50 6 -11 22 5 52 70 128 26 30 36 34 95 38 l66 6 0 53 c0
30 -2 54 -5 54 -3 0 -23 -8 -44 -18 -52 -26 -85 -22 -89 9 -2 13 -8 28 -13 34
-14 14 -11 25 6 25 8 0 15 -6 16 -12 1 -7 4 -3 8 10 l6 23 38 -25 c21 -14 47
-26 57 -26 18 0 20 7 20 84 0 88 -5 116 -22 116 -5 0 -21 9 -35 20 -14 11 -44
25 -67 31 -55 15 -67 27 -64 60 4 40 -16 37 -23 -3 l-6 -33 -4 35 -4 35 -141
1 c-114 1 -141 -2 -140 -13 1 -8 -29 -27 -69 -45 -38 -17 -78 -38 -89 -47 -10
-9 -21 -16 -25 -15 -3 0 -30 -10 -59 -23 -72 -32 -84 -31 -71 7 13 36 96 98
164 121 l50 18 -132 0 c-109 1 -133 -2 -133 -13 0 -8 -14 -26 -32 -40 -25 -20
-36 -22 -51 -14 -17 9 -19 8 -13 -8 7 -17 6 -17 -14 1 -26 24 -25 33 5 47 13
6 22 15 19 19 -7 11 -251 5 -261 -6 -5 -4 -1 -6 8 -3 10 4 16 1 16 -8 0 -9 -6
-13 -15 -9 -9 3 -12 0 -9 -8 4 -10 -4 -14 -26 -13 -29 1 -32 4 -29 29 3 26 2
27 -41 27 -37 0 -48 -5 -71 -32 -14 -17 -26 -36 -26 -41 0 -4 -4 -6 -9 -3 -11
7 -2 56 11 56 5 0 6 5 3 10 -7 11 -98 14 -108 3 -4 -3 4 -21 18 -39 l25 -33
-34 6 c-19 3 -36 1 -40 -6 -14 -22 -26 -10 -26 24 0 19 5 35 10 35 6 0 10 5
10 10 0 7 -144 10 -412 10 -226 0 -409 -3 -405 -6z m1385 -94 l33 -25 -33 -12
c-18 -6 -46 -12 -61 -12 -16 -1 -26 -5 -23 -10 7 -11 -17 -21 -50 -21 -14 0
-23 -4 -20 -9 3 -5 -8 -14 -24 -21 -17 -7 -30 -16 -30 -21 0 -5 -4 -9 -10 -9
-5 0 -10 9 -10 20 0 11 5 20 10 20 6 0 10 5 10 11 0 26 62 88 102 101 54 18
67 17 106 -12z m-1375 -121 c23 -11 62 -23 87 -26 25 -2 54 -6 65 -8 11 -2 29
-4 40 -4 17 -1 20 -8 20 -46 0 -25 -3 -45 -7 -45 -5 0 -8 5 -8 11 0 5 -4 8 -8
5 -5 -3 -20 1 -35 9 -14 7 -28 10 -32 7 -3 -4 -9 -2 -13 4 -4 6 -33 14 -64 17
-71 6 -101 26 -102 67 -1 36 2 36 57 9z m548 -104 c7 -7 10 -7 9 0 -6 28 1 56
13 52 6 -2 11 -11 9 -20 -2 -15 1 -15 33 -1 25 10 34 11 33 2 -2 -6 5 -14 16
-16 11 -2 16 0 12 7 -4 6 -3 11 3 11 5 0 13 -4 16 -10 3 -5 13 -10 21 -10 8 0
12 5 9 10 -10 16 6 12 26 -6 10 -9 24 -14 31 -11 7 2 18 5 23 6 6 2 14 9 18
17 5 9 16 13 28 9 14 -5 19 -2 19 12 0 14 2 15 9 4 6 -10 10 -10 16 -1 5 8 11
6 21 -7 13 -17 14 -17 25 0 18 30 29 8 31 -61 l2 -67 3 58 c4 63 22 78 25 20
1 -38 1 -38 5 -5 3 19 9 30 15 26 6 -4 14 0 19 7 6 10 9 11 9 2 0 -21 38 -53
55 -46 11 4 18 -2 22 -18 6 -22 7 -22 14 -3 6 15 8 12 8 -13 1 -20 -4 -33 -11
-33 -9 0 -8 -4 2 -10 21 -14 6 -23 -107 -60 -80 -27 -97 -37 -132 -78 -23 -26
-42 -53 -42 -62 -6 -60 -5 -98 1 -116 10 -26 -16 -44 -53 -37 -21 4 -28 12
-31 37 -3 17 -8 47 -11 66 -3 19 -5 47 -5 63 0 20 -11 38 -42 67 -24 22 -51
40 -60 40 -9 0 -38 10 -65 21 -100 45 -179 40 -223 -13 -11 -13 -20 -20 -21
-15 -5 21 -4 33 2 37 10 8 59 115 59 129 0 17 33 50 66 68 26 13 30 12 41 -3
12 -16 13 -15 15 12 1 22 2 19 5 -11 3 -22 9 -44 14 -50z m-593 -203 c27 -15
40 -28 34 -34 -5 -5 -7 -18 -5 -29 5 -18 6 -18 18 -3 16 22 42 26 83 13 l34
-11 -24 -16 c-13 -9 -26 -16 -30 -14 -5 1 -8 -7 -8 -18 0 -25 -11 -25 -43 0
-14 11 -31 20 -39 20 -8 0 -18 4 -23 9 -6 6 -24 12 -41 15 -17 3 -51 15 -75
26 -24 11 -50 20 -58 20 -22 0 -50 -30 -44 -46 6 -16 2 -17 -21 -8 -9 3 -16
14 -16 25 0 20 57 70 92 81 39 11 121 -3 166 -30z m715 -59 c12 -4 16 -11 12
-22 -4 -9 -9 -21 -12 -28 -3 -8 2 -11 14 -9 14 3 19 -1 19 -17 -1 -26 -55 -89
-68 -81 -5 3 -2 12 8 18 15 12 14 13 -7 11 -13 -1 -27 2 -30 8 -4 5 -13 6 -20
1 -36 -22 -169 10 -169 41 0 6 8 19 18 27 32 28 39 29 35 4 -3 -16 2 -31 16
-45 25 -25 76 -29 67 -6 -3 8 0 14 7 12 7 -1 13 11 15 29 3 31 4 31 32 21 24
-9 27 -14 20 -33 -7 -19 -5 -23 18 -27 25 -5 25 -4 7 9 -10 8 -14 14 -9 14 14
0 12 43 -2 57 -6 7 -14 9 -18 6 -3 -4 -6 2 -6 11 0 13 5 16 18 11 9 -4 25 -10
35 -12z m703 -55 c4 -6 9 -49 10 -95 3 -75 2 -83 -15 -83 -10 0 -21 -9 -24
-20 -8 -32 -46 -26 -58 10 -6 17 -16 27 -21 23 -6 -3 -2 12 9 33 11 21 26 57
33 79 19 61 47 84 66 53z m-802 -160 c8 -13 8 -23 1 -34 -13 -21 -223 -86
-250 -78 -19 6 -19 6 -2 -13 23 -26 22 -31 -10 -35 -16 -2 -27 -8 -26 -15 3
-15 -33 -36 -47 -28 -6 3 -10 -4 -10 -17 0 -18 2 -20 10 -8 5 8 12 11 17 7 4
-5 -3 -16 -15 -26 -15 -11 -21 -23 -17 -34 6 -14 12 -13 43 13 21 16 64 41 97
56 33 15 85 44 115 66 159 111 256 160 272 135 6 -9 8 -9 8 0 0 16 332 18 394
2 55 -14 85 -42 67 -63 -16 -19 -38 -10 -56 23 -8 14 -14 20 -15 13 0 -17 20
-55 34 -64 6 -4 8 -10 4 -13 -11 -11 -48 15 -48 33 -1 16 -1 16 -10 1 -8 -14
-17 -15 -47 -9 -26 6 -44 5 -63 -5 -39 -20 -90 -17 -90 7 0 10 -7 18 -15 18
-9 0 -19 8 -23 18 -5 13 -8 8 -12 -18 -6 -44 -38 -52 -69 -19 -21 22 -21 23
-21 2 0 -23 -24 -36 -50 -28 -9 3 -27 -4 -41 -16 -13 -12 -50 -33 -81 -46 -46
-20 -57 -30 -55 -47 2 -17 -4 -22 -33 -24 -34 -3 -35 -4 -37 -47 -1 -29 -9
-52 -22 -66 -11 -13 -24 -39 -27 -58 -4 -20 -15 -52 -24 -71 -14 -28 -16 -47
-10 -95 4 -33 8 -49 9 -35 2 37 21 4 21 -37 0 -19 5 -33 12 -33 6 0 9 -3 5 -6
-11 -11 -137 -14 -137 -3 0 6 -8 8 -19 4 -36 -11 -141 -13 -148 -2 -12 20 -11
163 2 222 8 33 16 102 20 153 4 67 11 104 26 130 102 186 121 206 188 198 31
-4 51 -12 60 -26 16 -24 63 -27 81 -4 12 13 10 14 -13 3 -26 -12 -66 -5 -53 9
11 11 69 31 85 29 8 -1 19 -10 25 -19z m1120 -106 c-14 -9 -13 -150 1 -160 6
-4 16 -18 22 -32 l12 -25 1 30 c0 26 2 28 11 12 6 -10 13 -37 15 -60 3 -23 7
-48 10 -56 10 -29 15 -139 6 -145 -5 -3 -15 14 -22 37 -7 23 -16 51 -20 62
-29 74 -50 147 -50 174 0 17 -4 31 -10 31 -5 0 -10 17 -10 38 0 25 -3 33 -9
23 -8 -12 -12 -12 -25 2 -20 20 -20 26 1 49 22 25 31 23 36 -9 4 -26 4 -26 6
5 1 23 6 32 19 32 10 0 13 -3 6 -8z m-573 -69 c1 -21 3 -23 6 -7 3 16 10 20
33 16 16 -2 43 0 59 6 16 6 40 8 52 5 22 -6 22 -7 3 -14 -15 -6 -13 -8 11 -8
35 -1 55 -17 55 -42 0 -21 -31 -34 -41 -17 -4 7 -14 22 -22 32 -13 18 -14 18
-21 -7 -3 -15 -11 -27 -17 -27 -9 0 -43 9 -229 61 l-45 12 30 8 c17 3 51 7 78
8 45 1 47 0 48 -26z m-151 -3 c14 -5 70 -21 125 -35 55 -15 114 -32 130 -37
46 -17 135 -71 135 -83 0 -5 22 -22 49 -38 63 -35 90 -67 140 -168 67 -133 51
-203 -30 -128 -48 45 -71 59 -96 59 -13 0 -23 5 -23 10 0 7 -18 8 -49 4 -38
-5 -49 -3 -54 9 -4 10 -13 13 -26 10 -11 -3 -30 2 -43 11 -12 9 -30 16 -39 16
-10 0 -15 8 -15 22 1 14 -5 23 -14 23 -8 0 -19 9 -25 20 -9 18 -20 20 -100 20
-110 0 -174 18 -221 60 -33 30 -38 32 -75 24 -44 -10 -59 -6 -59 17 0 16 -16
19 -25 4 -3 -5 -22 -10 -40 -10 -41 0 -71 36 -62 73 6 21 6 21 -8 3 -13 -17
-15 -17 -15 -3 0 20 38 47 65 46 19 0 19 -1 1 -8 -17 -6 -16 -9 10 -18 64 -24
71 -25 44 -3 l-25 20 36 0 c19 0 58 -11 84 -25 49 -24 224 -77 300 -90 48 -8
117 -38 134 -59 7 -8 29 -20 49 -26 20 -7 52 -18 70 -27 46 -20 98 -27 106
-14 4 6 -1 14 -11 17 -59 19 -92 60 -69 85 8 9 7 10 -4 4 -13 -8 -13 -7 -1 8
12 15 11 17 -2 17 -10 0 -14 6 -11 14 3 8 0 17 -6 21 -6 4 -9 1 -8 -7 2 -8 -5
-12 -16 -11 -11 1 -25 -5 -31 -13 -8 -12 -15 -12 -37 -2 -16 7 -28 16 -28 21
0 4 -6 7 -14 7 -7 0 -27 7 -42 15 -16 8 -43 15 -61 15 -17 0 -34 4 -38 9 -11
18 -65 40 -71 29 -4 -5 -15 9 -25 31 -11 25 -28 45 -44 51 -41 15 -43 12 -7
-11 18 -12 32 -29 32 -40 0 -17 -5 -18 -42 -13 -53 8 -71 22 -64 48 5 19 4 19
-15 -3 -10 -13 -19 -17 -19 -10 0 7 10 23 22 36 21 22 28 24 88 18 36 -4 76
-10 90 -15z m556 -95 c-3 -8 -2 -15 3 -15 4 0 12 -14 17 -32 5 -17 16 -34 23
-36 10 -3 12 0 6 14 -15 37 -17 54 -7 54 14 0 23 -43 16 -79 -7 -32 32 -151
48 -151 5 0 8 -21 8 -46 0 -46 0 -46 -22 -32 -70 45 -158 338 -102 338 10 0
14 -6 10 -15z m-788 -220 c15 -8 38 -26 51 -40 19 -20 32 -26 59 -23 23 2 38
-3 46 -15 7 -9 16 -14 19 -10 4 3 24 -1 44 -10 21 -9 62 -21 92 -28 34 -7 49
-14 40 -20 -7 -4 -16 -6 -21 -3 -4 2 -12 -5 -18 -16 -8 -15 -8 -20 2 -20 9 0
9 -3 0 -12 -20 -20 -146 -13 -179 10 -25 18 -109 55 -257 114 -27 10 -58 25
-68 33 -22 15 -10 29 12 14 25 -15 68 -10 82 9 23 33 56 39 96 17z"/>
</g>
</svg>
