<?xml version="1.0" standalone="no"?>
<!DOCTYPE svg PUBLIC "-//W3C//DTD SVG 20010904//EN"
 "http://www.w3.org/TR/2001/REC-SVG-20010904/DTD/svg10.dtd">
<svg version="1.0" xmlns="http://www.w3.org/2000/svg"
 width="225.000000pt" height="225.000000pt" viewBox="0 0 225.000000 225.000000"
 preserveAspectRatio="xMidYMid meet">
<metadata>
Created by potrace 1.16, written by Peter Selinger 2001-2019
</metadata>
<g transform="translate(0.000000,225.000000) scale(0.100000,-0.100000)"
fill="#000000" stroke="none">
<path d="M1399 2049 c-13 -3 -159 -4 -324 -3 l-300 4 40 -20 40 -20 -93 2
c-50 1 -95 -2 -99 -5 -3 -4 1 -7 11 -7 9 0 15 -4 12 -9 -8 -12 29 -21 87 -21
32 0 46 4 45 12 -2 9 24 15 87 20 50 3 110 9 135 12 l45 5 -43 -11 c-41 -11
-51 -28 -21 -36 11 -3 11 -2 -1 7 -12 9 -11 11 7 11 12 0 30 3 40 6 15 5 16 4
3 -6 -13 -10 -12 -11 3 -6 10 3 28 6 40 7 20 1 20 2 -3 10 -44 15 56 2 154
-20 50 -12 101 -21 115 -21 13 0 22 -3 18 -6 -10 -10 -257 -14 -257 -3 0 5
-10 9 -22 9 -19 0 -20 -2 -8 -10 9 -6 10 -10 3 -10 -6 0 -15 5 -18 10 -9 15
-45 12 -51 -5 -7 -17 -49 -20 -59 -5 -9 14 -35 12 -33 -2 2 -10 -22 -13 -94
-13 -53 0 -92 -3 -86 -6 12 -8 -42 -28 -59 -22 -7 3 -13 11 -13 19 0 8 -4 14
-10 14 -5 0 -10 -9 -10 -20 0 -16 -6 -20 -32 -19 -18 0 -100 -1 -183 -4 -115
-3 -156 -1 -178 10 -21 11 -27 11 -25 1 3 -13 -51 -16 -142 -8 -19 1 -44 2
-55 1 -17 -1 -18 -3 -5 -11 12 -8 11 -10 -7 -10 -43 0 -53 -10 -53 -56 0 -24
1 -44 3 -44 1 -1 56 -7 122 -15 195 -23 246 -47 123 -58 -47 -4 -58 -2 -61 12
-4 15 -5 15 -6 0 0 -9 -8 -20 -17 -23 -12 -4 -15 -2 -10 9 3 8 1 15 -4 15 -6
0 -10 -5 -10 -10 0 -6 -15 -9 -35 -7 -20 3 -33 0 -32 -6 3 -16 -34 -21 -43 -7
-26 43 -29 -28 -30 -840 l-1 -840 467 0 c256 1 464 3 461 6 -3 3 4 28 14 57
10 28 19 53 19 54 0 2 -9 -2 -19 -9 -11 -7 -18 -14 -16 -18 5 -7 -63 -86 -69
-79 -3 3 1 18 9 33 8 16 15 33 15 39 0 6 10 21 22 34 12 13 19 25 16 29 -7 6
-58 -43 -58 -56 0 -6 -7 -10 -15 -10 -21 0 -19 27 6 61 11 16 16 29 10 29 -21
0 -11 21 15 30 14 6 23 14 20 19 -8 13 -106 -21 -106 -36 0 -7 -11 -13 -25
-13 -22 0 -25 4 -25 40 0 29 -4 40 -15 40 -8 0 -15 4 -15 9 0 5 14 8 31 7 32
-2 45 7 34 24 -5 8 -11 8 -20 0 -9 -7 -16 -6 -24 4 -15 18 1 30 29 21 11 -4
20 -2 20 4 0 6 -7 11 -16 11 -11 0 -14 6 -9 20 5 16 2 20 -14 20 -12 0 -21 5
-21 11 0 7 7 8 17 4 35 -15 63 -17 63 -6 0 6 -5 11 -11 11 -6 0 -17 7 -25 15
-15 15 -12 20 40 63 16 12 12 42 -6 42 -5 0 -7 -4 -4 -8 6 -11 -82 -54 -95
-47 -15 10 -10 28 6 22 8 -4 17 -1 21 5 5 7 2 8 -7 4 -8 -5 1 4 19 19 24 20
32 34 28 47 -4 16 -1 19 15 15 10 -3 19 -1 19 4 0 5 -7 9 -15 9 -8 0 -15 5
-15 10 0 18 -33 10 -94 -23 -34 -19 -78 -37 -99 -41 -21 -4 -41 -14 -44 -22
-3 -7 -12 -14 -20 -14 -8 0 -12 4 -9 9 3 5 -1 14 -9 21 -10 9 -15 9 -15 1 0
-6 -19 -11 -47 -11 -27 0 -65 -4 -86 -9 -20 -5 -39 -5 -42 0 -3 4 -12 6 -20 2
-9 -3 -15 1 -15 8 0 12 -2 12 -9 1 -7 -11 -9 -11 -14 0 -4 11 4 14 32 14 39
-1 41 5 27 71 -7 28 -5 31 13 26 16 -4 21 0 22 13 0 11 3 14 6 7 6 -16 33 -17
33 -2 0 5 5 7 10 4 6 -3 10 -2 10 3 0 15 41 22 63 10 15 -7 18 -7 12 2 -5 9
-1 10 16 6 23 -7 23 -6 5 8 -13 10 -23 12 -31 6 -7 -6 -16 -5 -23 2 -9 9 -15
9 -24 0 -7 -7 -18 -12 -26 -12 -12 0 -12 3 -2 15 7 8 16 12 21 9 5 -3 9 0 9 7
0 10 3 10 12 1 18 -18 38 -14 38 6 0 11 10 24 23 29 18 9 25 7 43 -15 26 -32
44 -22 37 22 -5 30 -2 34 26 44 25 9 31 8 31 -3 0 -8 7 -11 20 -8 11 3 20 14
20 24 0 25 14 24 34 -3 l17 -23 -4 22 c-5 20 -1 19 40 -12 25 -19 50 -35 55
-35 5 0 6 -4 3 -10 -3 -5 3 -10 14 -10 11 0 22 -4 25 -9 9 -15 78 -47 131 -61
28 -7 52 -17 55 -20 10 -13 79 -19 84 -7 2 7 5 2 5 -10 1 -12 6 -25 12 -29 11
-6 8 -121 -5 -179 -2 -11 -7 -49 -11 -85 -13 -121 -29 -195 -45 -215 -5 -6 -7
-21 -4 -33 4 -13 -2 -32 -15 -51 l-22 -30 606 -1 605 0 -1 412 c0 227 -3 406
-6 398 -9 -22 -24 -30 -60 -30 -25 0 -31 4 -27 15 4 8 2 15 -4 15 -5 0 -13
-11 -16 -25 -4 -14 -13 -25 -21 -25 -19 0 -19 16 0 24 9 3 15 18 15 36 0 18 6
33 15 36 8 4 15 12 15 20 0 16 -46 19 -55 4 -9 -15 -25 -12 -25 6 0 8 -5 12
-11 8 -7 -4 -9 0 -5 14 4 11 2 23 -4 27 -6 3 -10 -3 -10 -14 0 -29 -2 -34 -22
-55 -20 -22 -37 -14 -19 8 15 18 6 36 -17 36 -9 0 6 15 33 32 61 40 63 43 59
82 -1 17 -3 35 -3 40 -1 13 -15 -2 -17 -17 0 -7 -2 -26 -2 -43 -2 -39 -37 -50
-72 -22 -12 10 -26 16 -30 13 -4 -3 -6 19 -4 48 10 150 25 178 111 203 29 8
55 20 58 25 4 5 14 9 23 8 14 0 13 -2 -3 -9 l-20 -8 20 -8 c17 -8 15 -10 -15
-14 l-35 -6 43 -13 c46 -13 47 -14 36 -108 -5 -35 -11 -53 -20 -53 -8 0 -14
-5 -14 -10 0 -6 11 -8 25 -4 24 6 25 4 25 -35 0 -30 4 -41 15 -41 11 0 15 -11
15 -36 0 -19 7 -42 15 -50 12 -13 14 59 15 571 l0 585 -32 0 c-18 1 -76 3
-128 5 -61 3 -84 1 -65 -4 29 -8 29 -9 4 -10 -14 0 -51 4 -82 10 -63 11 -509
18 -548 8z m-472 -15 c-3 -3 -12 -4 -19 -1 -8 3 -5 6 6 6 11 1 17 -2 13 -5z
m678 -4 c18 -5 -27 -8 -110 -7 -91 0 -124 2 -95 7 60 9 168 9 205 0z m-307
-17 c-10 -2 -26 -2 -35 0 -10 3 -2 5 17 5 19 0 27 -2 18 -5z m202 -13 c22 -7
21 -8 -12 -9 -21 -1 -38 4 -38 9 0 11 14 11 50 0z m440 0 c0 -13 -41 -23 -76
-17 -22 3 -19 4 14 6 23 0 42 6 42 11 0 6 5 10 10 10 6 0 10 -4 10 -10z
m-1147 -17 c-7 -2 -19 -2 -25 0 -7 3 -2 5 12 5 14 0 19 -2 13 -5z m824 -9 c-3
-3 -12 -4 -19 -1 -8 3 -5 6 6 6 11 1 17 -2 13 -5z m196 -11 c-7 -2 -19 -2 -25
0 -7 3 -2 5 12 5 14 0 19 -2 13 -5z m-103 -7 c0 -2 -9 -6 -20 -9 -11 -3 -18
-1 -14 4 5 9 34 13 34 5z m-244 -54 c-10 -2 -22 0 -28 6 -6 6 0 7 19 4 21 -5
23 -7 9 -10z m101 12 c-3 -3 -12 -4 -19 -1 -8 3 -5 6 6 6 11 1 17 -2 13 -5z
m606 -1 c-7 -2 -19 -2 -25 0 -7 3 -2 5 12 5 14 0 19 -2 13 -5z m-1073 -19 c0
-2 -9 -4 -21 -4 -11 0 -18 4 -14 10 5 8 35 3 35 -6z m68 9 c-10 -2 -26 -2 -35
0 -10 3 -2 5 17 5 19 0 27 -2 18 -5z m207 -3 c-3 -5 1 -10 10 -10 9 0 13 5 10
10 -3 6 1 10 9 10 21 0 20 -13 -2 -27 -12 -7 -24 -8 -33 -2 -8 5 -27 9 -44 10
l-30 1 30 8 c44 11 57 11 50 0z m360 -10 c-7 -11 -135 -10 -135 1 0 5 32 9 71
9 42 0 68 -4 64 -10z m-809 -29 c-8 -13 -66 -11 -66 2 0 6 3 8 6 5 3 -3 17 -3
32 2 30 8 37 6 28 -9z m684 12 l55 -7 -60 -13 c-100 -22 -147 -24 -175 -5
l-25 17 40 6 c59 9 103 10 165 2z m-1120 -13 c20 -7 16 -8 -22 -9 -26 -1 -67
-6 -91 -13 -44 -11 -49 -10 -97 17 -23 13 -16 15 80 14 58 -1 116 -5 130 -9z
m176 3 c-4 -5 -21 -8 -37 -8 -16 0 -29 3 -29 8 0 4 17 7 37 7 20 0 33 -3 29
-7z m169 -13 c-3 -5 3 -10 15 -10 44 0 9 -16 -39 -19 -39 -1 -51 1 -51 13 0
14 20 21 63 25 10 0 15 -3 12 -9z m182 4 c-3 -3 -12 -4 -19 -1 -8 3 -5 6 6 6
11 1 17 -2 13 -5z m723 -4 c0 -5 -4 -10 -9 -10 -6 0 -13 5 -16 10 -3 6 1 10 9
10 9 0 16 -4 16 -10z m50 -4 c0 -3 -4 -8 -10 -11 -5 -3 -10 -1 -10 4 0 6 5 11
10 11 6 0 10 -2 10 -4z m-359 -23 c8 -9 27 -22 44 -29 l30 -13 -30 -1 c-16 -1
-52 -3 -80 -4 -35 -3 -61 2 -88 16 -45 23 -42 29 16 39 71 11 94 10 108 -8z
m-775 -8 c-11 -8 -35 -15 -54 -15 -30 0 -33 2 -22 15 7 9 29 15 54 15 38 -1
40 -2 22 -15z m-104 -13 c6 -6 -23 -9 -74 -9 -46 0 -75 2 -65 4 9 2 17 9 17
15 0 13 108 4 122 -10z m711 -12 c-9 -9 -223 -5 -223 4 0 5 34 6 76 4 41 -3
70 -2 63 3 -8 5 2 9 27 11 36 3 69 -10 57 -22z m-517 0 c0 -21 -11 -27 -21
-11 -3 5 -22 8 -43 5 -36 -4 -36 -4 8 10 25 7 47 14 50 15 3 0 6 -8 6 -19z
m127 10 c21 0 36 -4 33 -9 -4 -5 -30 -8 -59 -6 -28 2 -60 4 -69 4 -10 1 -18 6
-18 12 0 8 13 10 38 5 20 -3 54 -6 75 -6z m-578 -10 c-28 -12 -47 -12 -40 0 3
6 18 10 33 9 24 0 25 -1 7 -9z m649 -5 c-25 -19 -35 -19 -28 0 4 8 16 15 27
15 20 0 20 0 1 -15z m599 8 c-7 -2 -19 -2 -25 0 -7 3 -2 5 12 5 14 0 19 -2 13
-5z m187 -28 c-11 -13 -39 -15 -70 -5 -3 1 13 9 35 19 41 19 56 12 35 -14z
m-1497 18 c-7 -2 -19 -2 -25 0 -7 3 -2 5 12 5 14 0 19 -2 13 -5z m407 -11 c0
-4 -18 -8 -40 -9 -48 -1 -54 14 -7 19 34 4 47 1 47 -10z m363 11 c-7 -2 -19
-2 -25 0 -7 3 -2 5 12 5 14 0 19 -2 13 -5z m-826 -9 c-3 -3 -12 -4 -19 -1 -8
3 -5 6 6 6 11 1 17 -2 13 -5z m1083 -20 c0 -14 -3 -14 -15 -4 -8 7 -15 14 -15
16 0 2 7 4 15 4 8 0 15 -7 15 -16z m383 9 c-7 -2 -19 -2 -25 0 -7 3 -2 5 12 5
14 0 19 -2 13 -5z m-1009 -13 l49 0 -21 -23 c-12 -13 -19 -26 -16 -30 7 -7
-79 -2 -186 11 l-65 8 60 21 c37 14 74 21 95 18 19 -3 57 -5 84 -5z m961 0 c3
-6 -1 -7 -9 -4 -18 7 -21 14 -7 14 6 0 13 -4 16 -10z m-787 -11 c-5 -14 -79
-20 -95 -7 -8 6 -15 3 -22 -9 -6 -10 -11 -13 -11 -7 0 21 22 31 76 33 39 1 55
-1 52 -10z m250 -15 c74 -17 89 -27 50 -38 -41 -11 -54 -7 -32 9 19 14 19 14
-2 15 -13 0 -24 -8 -27 -20 -4 -17 -11 -19 -39 -14 -18 4 -42 11 -53 17 -13 7
-20 6 -23 -2 -4 -13 -51 -15 -70 -3 -10 7 -8 12 5 24 49 42 53 42 191 12z
m-205 9 c-7 -2 -19 -2 -25 0 -7 3 -2 5 12 5 14 0 19 -2 13 -5z m546 -2 c7 -5
-16 -11 -54 -14 -37 -4 -73 -3 -79 1 -22 14 108 26 133 13z m-160 -27 c2 -2
-2 -4 -10 -5 -8 0 -29 -2 -46 -3 -32 -4 -45 8 -20 17 13 5 68 -1 76 -9z m-818
-11 c16 -3 26 -9 23 -14 -3 -5 3 -10 13 -10 10 -1 0 -5 -22 -9 l-40 -7 47 -2
c40 -1 46 2 41 15 -4 12 -2 15 8 12 8 -3 15 -12 17 -21 2 -12 -7 -17 -35 -22
-21 -3 -58 -10 -83 -15 -52 -10 -217 -14 -207 -4 3 4 46 17 94 29 62 15 81 23
65 27 -13 4 -22 2 -22 -5 0 -6 -3 -7 -7 -4 -13 14 31 46 56 41 13 -3 36 -8 52
-11z m307 -20 c-16 -2 -28 -9 -28 -14 0 -6 -5 -7 -10 -4 -19 11 1 25 33 24 30
-2 31 -2 5 -6z m-118 -10 c0 -5 -11 -8 -24 -8 -13 0 -22 3 -19 8 2 4 13 7 24
7 10 0 19 -3 19 -7z m-393 -9 c-3 -3 -12 -4 -19 -1 -8 3 -5 6 6 6 11 1 17 -2
13 -5z m880 0 c-3 -3 -12 -4 -19 -1 -8 3 -5 6 6 6 11 1 17 -2 13 -5z m48 -3
c-3 -5 -1 -12 5 -16 5 -3 10 1 10 9 0 10 8 16 23 15 19 -1 19 -2 3 -6 -15 -4
-16 -7 -5 -14 12 -7 12 -9 -1 -10 -8 0 -25 -2 -37 -3 -12 -1 -20 1 -17 6 3 4
-1 8 -8 9 -7 0 -4 4 7 9 27 11 27 11 20 1z m279 1 c3 -5 -1 -9 -9 -9 -8 0 -12
4 -9 9 3 4 7 8 9 8 2 0 6 -4 9 -8z m-609 -22 c4 -6 -6 -10 -22 -9 -25 0 -26 1
-8 9 11 5 21 9 22 9 1 1 5 -3 8 -9z m-689 -16 c17 -14 17 -15 1 -10 -10 3 -28
6 -40 6 -18 0 -19 2 -7 10 20 13 23 13 46 -6z m1330 1 c9 -8 11 -15 6 -15 -5
0 -15 7 -22 15 -7 8 -9 15 -6 15 4 0 14 -7 22 -15z m-1036 1 c0 -2 -7 -7 -16
-10 -8 -3 -12 -2 -9 4 6 10 25 14 25 6z m-240 -32 c0 -8 -4 -14 -10 -14 -5 0
-10 9 -10 21 0 11 5 17 10 14 6 -3 10 -13 10 -21z m940 18 c0 -13 -12 -22 -22
-16 -10 6 -1 24 13 24 5 0 9 -4 9 -8z m-1010 -32 c-18 -11 -22 -7 -14 14 5 13
10 14 18 6 8 -8 7 -13 -4 -20z m-53 14 c-3 -3 -12 -4 -19 -1 -8 3 -5 6 6 6 11
1 17 -2 13 -5z m568 -46 c-5 -25 -4 -29 4 -18 6 8 11 23 11 34 0 11 5 16 14
13 32 -13 178 -37 277 -46 58 -6 116 -15 130 -21 20 -9 20 -10 3 -7 -12 3 -27
1 -33 -3 -7 -4 1 -7 18 -8 17 0 40 -4 52 -7 20 -7 20 -7 2 -21 -14 -11 -14
-13 -2 -8 12 4 18 -2 21 -20 3 -14 2 -23 -2 -21 -4 3 -8 -8 -8 -23 -1 -43 -23
-125 -39 -141 -13 -12 -16 -12 -24 0 -5 9 -9 10 -9 2 0 -6 5 -15 10 -18 6 -4
8 -11 5 -16 -4 -5 -2 -9 4 -9 5 0 12 6 14 13 4 8 6 9 6 0 1 -6 -7 -19 -16 -29
-10 -9 -23 -28 -30 -42 -11 -21 -11 -23 3 -18 8 3 12 2 9 -4 -3 -6 -18 -7 -33
-4 -22 5 -24 3 -12 -6 12 -10 11 -11 -7 -7 -13 3 -23 1 -23 -3 0 -15 -37 -21
-65 -10 -15 6 -30 8 -33 5 -3 -2 6 -9 19 -13 21 -8 18 -10 -28 -22 -44 -11
-49 -15 -37 -27 8 -8 14 -18 14 -22 0 -11 -51 -33 -58 -26 -4 3 4 8 16 12 12
3 22 9 22 13 0 5 -14 3 -30 -3 -18 -7 -28 -17 -25 -25 3 -7 -10 -19 -31 -29
-30 -15 -36 -15 -44 -3 -10 16 7 33 23 23 5 -3 3 -9 -4 -14 -8 -5 -9 -9 -4 -9
6 1 19 8 30 17 16 13 17 15 3 10 -14 -5 -18 -1 -18 18 0 32 -5 31 -35 -2 -23
-26 -24 -27 -25 -7 0 11 -9 47 -20 80 -12 32 -29 88 -40 124 -10 36 -30 96
-44 133 -28 76 -24 120 12 110 12 -3 22 2 25 11 4 9 13 16 22 16 13 0 14 2 3
14 -11 12 -14 11 -20 -3 -4 -9 -7 -10 -7 -3 -1 6 -5 12 -11 12 -5 0 -7 -8 -4
-17 5 -17 5 -17 -6 -1 -14 22 12 88 34 88 9 0 16 5 16 10 0 6 3 10 6 10 3 0 3
-15 -1 -32z m-445 -12 c0 -2 -8 -10 -17 -17 -16 -13 -17 -12 -4 4 13 16 21 21
21 13z m940 -11 c0 -8 -7 -15 -16 -15 -14 0 -14 3 -4 15 7 8 14 15 16 15 2 0
4 -7 4 -15z m144 -4 c3 -4 -6 -6 -19 -3 -14 2 -25 6 -25 8 0 8 39 4 44 -5z
m-847 -31 c3 -9 1 -11 -4 -5 -4 6 -19 11 -33 13 -20 2 -22 1 -10 -8 13 -9 12
-11 -4 -8 -11 2 -21 9 -24 16 -3 10 6 12 34 10 23 -2 39 -9 41 -18z m815 13
c-6 -2 -10 -9 -6 -14 3 -5 -2 -9 -12 -9 -13 0 -14 3 -4 15 7 8 18 15 24 14 7
0 6 -2 -2 -6z m-928 -29 c6 -15 4 -15 -11 -3 -10 7 -20 15 -22 16 -2 2 3 3 11
3 9 0 19 -7 22 -16z m-181 -24 c12 0 29 5 37 11 13 9 12 10 -2 5 -10 -3 -18 0
-18 5 0 7 8 9 23 4 12 -4 34 -7 50 -7 25 1 31 -6 28 -34 -1 -6 9 -16 21 -22
17 -8 19 -11 6 -11 -25 -1 -49 10 -42 20 3 5 0 9 -5 9 -6 0 -11 -7 -11 -14 0
-12 -15 -14 -76 -11 -79 4 -119 20 -76 31 14 4 22 14 22 28 1 19 2 19 11 4 5
-10 20 -18 32 -18z m1357 26 c0 -2 -11 -6 -25 -8 -13 -3 -22 -1 -19 3 5 9 44
13 44 5z m-960 -46 c0 -5 -7 -10 -16 -10 -8 0 -12 5 -9 10 3 6 10 10 16 10 5
0 9 -4 9 -10z m-194 -9 c-5 -8 -56 -3 -56 5 0 2 14 4 31 4 16 0 28 -4 25 -9z
m191 -34 c0 -8 -6 -14 -14 -14 -17 0 -17 14 0 20 6 3 12 6 13 6 0 1 1 -5 1
-12z m1591 -6 c10 -6 8 -10 -10 -14 -22 -6 -22 -7 -3 -22 11 -9 13 -14 5 -11
-8 3 -23 9 -32 12 -25 9 -23 24 3 24 11 0 17 5 14 10 -8 12 5 13 23 1z m-1638
-42 c-7 -11 -14 -18 -17 -15 -3 3 0 12 7 21 18 21 23 19 10 -6z m1557 -6 c-9
-9 -19 -14 -23 -11 -10 10 6 28 24 28 15 0 15 -1 -1 -17z m-1677 -57 c0 -2 -7
-9 -15 -16 -13 -11 -14 -10 -9 4 5 14 24 23 24 12z m790 -30 c0 -3 -4 -8 -10
-11 -5 -3 -10 -1 -10 4 0 6 5 11 10 11 6 0 10 -2 10 -4z m180 -16 c18 -12 2
-12 -25 0 -13 6 -15 9 -5 9 8 0 22 -4 30 -9z m-300 -134 c0 -2 -7 -7 -16 -10
-8 -3 -12 -2 -9 4 6 10 25 14 25 6z m-127 -33 c-7 -2 -13 -9 -13 -14 0 -6 5
-7 12 -3 7 4 8 3 4 -5 -6 -9 -11 -9 -22 0 -12 10 -12 14 -2 20 7 5 18 8 23 8
6 0 4 -3 -2 -6z m-154 -166 c12 -15 12 -17 -3 -11 -9 3 -16 13 -16 22 0 8 1
13 3 11 1 -2 9 -12 16 -22z m1338 -47 c2 -25 -12 -26 -26 -2 -6 10 -11 12 -11
4 0 -7 -5 -10 -10 -7 -16 10 -1 25 23 25 16 0 23 -6 24 -20z m-1236 -41 c19
-16 20 -18 4 -10 -34 17 -51 31 -39 31 7 0 22 -9 35 -21z m1279 7 c0 -3 -4 -8
-10 -11 -5 -3 -10 -1 -10 4 0 6 5 11 10 11 6 0 10 -2 10 -4z m-1299 -33 c13
-16 12 -17 -3 -4 -10 7 -18 15 -18 17 0 8 8 3 21 -13z m855 -90 c-10 -10 -34
17 -31 35 16 77 18 79 28 24 5 -30 6 -56 3 -59z m54 81 c0 -11 6 -15 20 -11
16 4 20 0 19 -21 0 -15 -3 -21 -6 -13 -4 9 -11 2 -20 -20 -14 -31 -16 -32 -23
-14 -12 29 -12 95 0 95 6 0 10 -7 10 -16z m-815 -4 c3 -5 2 -10 -4 -10 -5 0
-13 5 -16 10 -3 6 -2 10 4 10 5 0 13 -4 16 -10z m1226 -20 c5 0 9 -5 9 -11 0
-6 -7 -9 -15 -5 -11 4 -15 -3 -17 -27 -2 -50 -3 -55 -10 -62 -4 -4 -6 20 -5
54 2 46 5 60 15 56 8 -3 18 -5 23 -5z m-1216 -30 c3 -6 -1 -7 -9 -4 -18 7 -21
14 -7 14 6 0 13 -4 16 -10z m77 -24 c7 4 8 3 4 -4 -10 -16 -18 -15 -42 4 -18
14 -18 15 4 4 12 -6 28 -8 34 -4z m197 -2 c8 -7 -54 -2 -79 6 -17 6 -9 7 25 3
28 -3 52 -7 54 -9z m-80 -30 c9 -8 -55 -2 -74 6 -13 6 -5 7 25 3 25 -3 47 -7
49 -9z m1081 -24 c-11 -21 -35 -27 -45 -10 -10 16 4 30 31 30 22 0 23 -3 14
-20z m-2001 -9 c-7 -10 -20 -23 -31 -30 -17 -11 -17 -10 -6 11 14 24 28 38 41
38 4 0 2 -8 -4 -19z m991 -18 c0 -21 -3 -24 -9 -14 -5 8 -7 20 -4 28 8 21 13
15 13 -14z m940 12 c0 -9 -9 -15 -22 -15 -21 0 -21 0 -2 15 24 18 24 18 24 0z
m-1890 -27 c0 -6 -7 -5 -15 2 -8 7 -15 17 -15 22 0 6 7 5 15 -2 8 -7 15 -17
15 -22z m1890 -19 c0 -11 4 -18 8 -15 5 3 9 -1 9 -8 0 -8 -8 -11 -19 -8 -10 2
-16 8 -13 12 3 5 1 11 -5 15 -12 7 -4 25 11 25 5 0 9 -9 9 -21z m-900 -4 c0
-8 -4 -15 -10 -15 -5 0 -7 7 -4 15 4 8 8 15 10 15 2 0 4 -7 4 -15z m780 -28
c0 -5 -4 -5 -10 -2 -5 3 -10 14 -10 23 0 15 2 15 10 2 5 -8 10 -19 10 -23z
m-73 -9 c-3 -7 -5 -2 -5 12 0 14 2 19 5 13 2 -7 2 -19 0 -25z m-56 -40 c-6
-13 -9 -15 -7 -5 4 11 0 17 -10 17 -12 0 -13 3 -2 14 19 21 34 1 19 -26z m304
24 c-3 -3 -11 0 -18 7 -9 10 -8 11 6 5 10 -3 15 -9 12 -12z m-1505 -7 c-7 -8
-20 -15 -29 -15 -11 1 -8 5 9 15 32 18 35 18 20 0z m495 -93 c-4 -42 -10 -71
-12 -64 -3 8 -2 48 2 90 4 42 10 71 12 64 3 -8 2 -48 -2 -90z m799 82 c3 -8 2
-12 -4 -9 -6 3 -10 10 -10 16 0 14 7 11 14 -7z m71 -33 c7 -22 6 -22 -14 -4
-12 9 -21 26 -21 36 0 16 2 16 14 5 7 -8 17 -24 21 -37z m-227 25 c-7 -8 -15
-12 -17 -11 -5 6 10 25 20 25 5 0 4 -6 -3 -14z m-1268 -16 c-42 -23 -75 -27
-45 -6 19 13 47 23 70 24 6 1 -6 -7 -25 -18z m1377 -22 c-3 -7 -5 -2 -5 12 0
14 2 19 5 13 2 -7 2 -19 0 -25z m65 -23 c-2 -21 3 -37 12 -42 10 -6 12 -13 6
-23 -7 -11 -11 -8 -19 13 -12 31 -15 104 -4 93 4 -4 6 -22 5 -41z m-1552 31
c0 -2 -9 -6 -20 -9 -11 -3 -20 -1 -20 4 0 5 9 9 20 9 11 0 20 -2 20 -4z m161
-9 c-6 -8 -8 -17 -4 -20 3 -4 1 -7 -6 -7 -6 0 -21 -9 -33 -20 -22 -21 -38 -26
-38 -12 0 4 10 12 23 17 12 6 20 14 17 18 -3 5 6 15 20 22 32 18 35 18 21 2z
m1285 -14 c-4 -9 -1 -20 6 -25 9 -5 10 -8 1 -8 -6 0 -14 4 -17 9 -6 10 3 41
11 41 3 0 2 -8 -1 -17z m71 -5 c-3 -8 -6 -5 -6 6 -1 11 2 17 5 13 3 -3 4 -12
1 -19z m-55 -80 l-5 -22 -8 22 c-5 12 -13 22 -19 22 -6 0 -8 5 -5 10 12 19 44
-8 37 -32z m-562 8 c0 -2 -7 -7 -16 -10 -8 -3 -12 -2 -9 4 6 10 25 14 25 6z
m686 -62 c-17 -17 -19 -12 -9 25 5 20 7 21 15 7 6 -11 4 -21 -6 -32z m-869
-31 c-3 -10 -5 -4 -5 12 0 17 2 24 5 18 2 -7 2 -21 0 -30z m887 -9 c-5 -19 -4
-25 5 -20 6 4 11 0 11 -10 0 -13 -3 -14 -15 -4 -17 14 -21 60 -5 60 6 0 8 -11
4 -26z m-1324 -24 c0 -5 -2 -10 -4 -10 -3 0 -8 5 -11 10 -3 6 -1 10 4 10 6 0
11 -4 11 -10z m-30 -14 c0 -3 -4 -8 -10 -11 -5 -3 -10 -1 -10 4 0 6 5 11 10
11 6 0 10 -2 10 -4z m41 -56 c5 0 9 -4 9 -9 0 -6 -8 -10 -17 -10 -10 1 -29 -3
-43 -7 -24 -7 -24 -7 5 23 20 21 31 26 33 17 2 -8 8 -14 13 -14z m1369 11 c0
-6 -4 -12 -8 -15 -5 -3 -9 1 -9 9 0 8 4 15 9 15 4 0 8 -4 8 -9z m3 -46 c-3 -9
-8 -14 -10 -11 -3 3 -2 9 2 15 9 16 15 13 8 -4z"/>
<path d="M590 1515 c0 -8 2 -15 4 -15 2 0 6 7 10 15 3 8 1 15 -4 15 -6 0 -10
-7 -10 -15z"/>
<path d="M637 1510 c-3 -11 -2 -22 2 -25 11 -6 74 13 96 30 18 13 16 14 -36
15 -48 0 -57 -3 -62 -20z"/>
<path d="M968 1473 c7 -3 16 -2 19 1 4 3 -2 6 -13 5 -11 0 -14 -3 -6 -6z"/>
<path d="M838 1253 c7 -3 16 -2 19 1 4 3 -2 6 -13 5 -11 0 -14 -3 -6 -6z"/>
<path d="M905 1170 c-3 -5 -2 -10 4 -10 5 0 13 5 16 10 3 6 2 10 -4 10 -5 0
-13 -4 -16 -10z"/>
<path d="M860 1155 c19 -7 42 -13 50 -13 8 0 -1 6 -20 13 -19 7 -42 13 -50 13
-8 0 1 -6 20 -13z"/>
<path d="M805 1150 c2 -4 -16 -6 -40 -5 -24 0 -42 -2 -39 -6 2 -4 -8 -10 -23
-14 -25 -6 -26 -8 -9 -17 13 -7 26 -7 43 1 13 6 36 9 51 6 15 -3 20 -2 12 2
-10 4 -5 10 20 18 l35 12 -27 5 c-15 3 -25 2 -23 -2z"/>
<path d="M650 1100 c8 -5 20 -10 25 -10 6 0 3 5 -5 10 -8 5 -19 10 -25 10 -5
0 -3 -5 5 -10z"/>
<path d="M805 1100 c-13 -5 -14 -9 -5 -9 8 0 24 4 35 9 13 5 14 9 5 9 -8 0
-24 -4 -35 -9z"/>
<path d="M940 1100 c-9 -6 -10 -10 -3 -10 6 0 15 5 18 10 8 12 4 12 -15 0z"/>
<path d="M758 1083 c7 -3 16 -2 19 1 4 3 -2 6 -13 5 -11 0 -14 -3 -6 -6z"/>
<path d="M748 1023 c7 -3 16 -2 19 1 4 3 -2 6 -13 5 -11 0 -14 -3 -6 -6z"/>
<path d="M193 1435 c-16 -12 -22 -12 -26 -2 -3 7 -6 4 -6 -6 -1 -15 -7 -18
-33 -13 -30 6 -31 5 -9 -4 28 -12 84 -4 75 11 -5 9 9 13 35 10 7 -2 10 2 6 8
-8 15 -17 14 -42 -4z"/>
<path d="M58 1413 c7 -3 16 -2 19 1 4 3 -2 6 -13 5 -11 0 -14 -3 -6 -6z"/>
<path d="M539 2041 c12 -8 51 -4 51 5 0 2 -15 4 -32 4 -23 0 -29 -3 -19 -9z"/>
<path d="M928 1983 c6 -2 9 -9 6 -14 -3 -6 9 -9 30 -7 19 1 32 6 30 10 -3 5
-15 6 -26 2 -14 -4 -18 -2 -14 5 5 7 -1 11 -16 10 -13 0 -17 -3 -10 -6z"/>
<path d="M1183 1964 c3 -3 22 -6 42 -6 20 0 39 3 42 6 4 3 -15 6 -42 6 -27 0
-46 -3 -42 -6z"/>
<path d="M1010 1950 c0 -5 5 -10 10 -10 6 0 10 5 10 10 0 6 -4 10 -10 10 -5 0
-10 -4 -10 -10z"/>
<path d="M178 1943 c6 -2 18 -2 25 0 6 3 1 5 -13 5 -14 0 -19 -2 -12 -5z"/>
<path d="M268 1933 c7 -3 16 -2 19 1 4 3 -2 6 -13 5 -11 0 -14 -3 -6 -6z"/>
<path d="M387 1933 c-3 -5 14 -8 38 -8 24 0 38 3 32 7 -16 10 -65 10 -70 1z"/>
<path d="M500 1930 c-17 -11 -15 -11 53 -14 26 -1 50 1 53 6 3 4 2 8 -3 9 -4
0 -26 2 -48 5 -22 2 -47 0 -55 -6z"/>
<path d="M28 1723 c7 -3 16 -2 19 1 4 3 -2 6 -13 5 -11 0 -14 -3 -6 -6z"/>
<path d="M2058 1213 c7 -3 16 -2 19 1 4 3 -2 6 -13 5 -11 0 -14 -3 -6 -6z"/>
<path d="M2110 1020 c0 -5 5 -10 11 -10 7 0 18 -8 25 -17 9 -12 13 -14 14 -5
0 16 -24 42 -39 42 -6 0 -11 -4 -11 -10z"/>
<path d="M2118 973 c7 -3 16 -2 19 1 4 3 -2 6 -13 5 -11 0 -14 -3 -6 -6z"/>
<path d="M597 773 c-12 -11 -8 -23 8 -23 8 0 15 7 15 15 0 16 -12 20 -23 8z"/>
<path d="M628 733 c7 -3 16 -2 19 1 4 3 -2 6 -13 5 -11 0 -14 -3 -6 -6z"/>
<path d="M718 723 c7 -3 16 -2 19 1 4 3 -2 6 -13 5 -11 0 -14 -3 -6 -6z"/>
<path d="M480 710 c0 -5 9 -10 21 -10 11 0 17 5 14 10 -3 6 -13 10 -21 10 -8
0 -14 -4 -14 -10z"/>
<path d="M745 690 c-3 -5 3 -10 14 -10 11 0 23 5 26 10 3 6 -3 10 -14 10 -11
0 -23 -4 -26 -10z"/>
<path d="M690 670 c-8 -5 -25 -10 -37 -10 -13 0 -23 -4 -23 -9 0 -5 -18 -11
-39 -15 -22 -3 -47 -9 -57 -13 -12 -4 -15 -3 -10 5 9 15 1 15 -25 1 -20 -10
-20 -11 -2 -26 17 -14 17 -14 -1 -9 -13 5 -17 2 -13 -8 4 -10 1 -13 -9 -9 -8
3 -13 12 -10 20 5 11 -1 13 -27 8 -17 -3 -51 -7 -74 -8 -33 -2 -41 -6 -40 -20
1 -19 2 -19 101 0 19 4 27 2 23 -4 -4 -6 -34 -13 -68 -17 -55 -7 -59 -9 -43
-21 21 -16 128 -11 150 7 7 5 27 10 45 12 19 2 47 9 62 15 16 6 33 11 38 11
13 0 69 55 69 69 0 6 5 11 10 11 6 0 10 5 10 10 0 13 -11 13 -30 0z m-10 -26
c0 -12 -46 -43 -64 -44 -17 0 -17 2 5 24 22 22 59 34 59 20z m-116 -50 c3 -8
2 -12 -4 -9 -6 3 -10 10 -10 16 0 14 7 11 14 -7z"/>
<path d="M775 660 c-3 -5 3 -10 15 -10 12 0 18 5 15 10 -3 6 -10 10 -15 10 -5
0 -12 -4 -15 -10z"/>
<path d="M820 635 c0 -8 4 -15 9 -15 5 0 11 7 15 15 3 9 0 15 -9 15 -8 0 -15
-7 -15 -15z"/>
<path d="M845 460 c-3 -5 -1 -10 4 -10 6 0 11 5 11 10 0 6 -2 10 -4 10 -3 0
-8 -4 -11 -10z"/>
<path d="M813 353 c-14 -5 -18 -33 -5 -33 5 0 17 9 27 20 18 20 8 26 -22 13z"/>
<path d="M906 331 c-4 -7 -5 -15 -2 -18 9 -9 19 4 14 18 -4 11 -6 11 -12 0z"/>
<path d="M850 269 c0 -5 5 -7 10 -4 6 3 10 8 10 11 0 2 -4 4 -10 4 -5 0 -10
-5 -10 -11z"/>
<path d="M961 74 c0 -11 3 -14 6 -6 3 7 2 16 -1 19 -3 4 -6 -2 -5 -13z"/>
</g>
</svg>
