<?xml version="1.0" standalone="no"?>
<!DOCTYPE svg PUBLIC "-//W3C//DTD SVG 20010904//EN"
 "http://www.w3.org/TR/2001/REC-SVG-20010904/DTD/svg10.dtd">
<svg version="1.0" xmlns="http://www.w3.org/2000/svg"
 width="293.000000pt" height="172.000000pt" viewBox="0 0 293.000000 172.000000"
 preserveAspectRatio="xMidYMid meet">
<metadata>
Created by potrace 1.16, written by Peter Selinger 2001-2019
</metadata>
<g transform="translate(0.000000,172.000000) scale(0.100000,-0.100000)"
fill="#000000" stroke="none">
<path d="M1327 1506 c-7 -18 8 -181 19 -209 3 -8 1 -18 -4 -21 -13 -8 -21 23
-29 112 -6 74 -19 101 -27 60 -9 -43 -13 -168 -6 -163 10 6 20 -20 20 -50 0
-29 -19 -43 -31 -24 -9 13 -11 22 -25 85 -9 48 -29 8 -29 -59 0 -59 1 -62 42
-100 25 -23 48 -55 54 -78 11 -36 14 -38 43 -31 17 4 55 7 84 7 l52 0 -5 145
c-3 80 -8 159 -11 177 -5 36 -22 52 -34 33 -4 -7 -12 5 -18 32 -13 49 -28 75
-37 66 -12 -11 16 -166 31 -172 10 -4 14 2 14 19 0 14 5 25 10 25 6 0 10 -24
10 -52 -1 -41 -3 -49 -11 -35 -5 9 -21 17 -33 17 -22 0 -24 5 -36 100 -13 102
-30 150 -43 116z"/>
<path d="M2213 1383 c4 -43 9 -94 13 -113 5 -31 3 -37 -20 -49 -14 -8 -23 -18
-20 -23 3 -4 1 -8 -4 -8 -5 0 -15 20 -21 44 -14 55 -14 59 -1 51 6 -3 10 -15
10 -26 0 -21 10 -25 26 -9 13 13 -6 172 -20 167 -6 -2 -14 -30 -17 -63 -3 -32
-6 -53 -7 -46 -1 6 -6 12 -12 12 -18 0 -10 -83 20 -205 16 -66 30 -136 30
-155 0 -19 4 -30 8 -25 4 6 12 10 17 10 6 1 44 7 86 15 l76 13 -10 38 c-8 33
-6 45 17 89 14 27 26 61 26 75 0 39 13 24 54 -61 30 -61 36 -83 31 -110 -6
-37 9 -48 20 -13 7 19 7 20 21 2 12 -17 13 -16 14 7 1 22 2 23 11 8 14 -25 29
-22 29 5 1 20 2 20 11 4 6 -9 15 -15 20 -12 5 4 7 10 4 15 -3 5 -1 11 4 14 5
3 11 -1 15 -9 3 -8 13 -15 21 -15 13 0 15 6 10 29 -4 19 3 52 25 106 40 101
37 122 -12 73 l-36 -38 -7 73 c-9 88 -23 130 -25 77 -5 -108 -35 -115 -44 -10
-4 44 -11 80 -15 80 -9 0 -21 -73 -21 -127 0 -56 -23 -34 -39 36 -18 86 -31
64 -18 -32 6 -42 7 -80 4 -83 -11 -12 -40 20 -60 66 -11 25 -22 39 -25 32 -3
-10 -7 -10 -18 -1 -15 13 -15 13 -18 -71 -1 -32 -5 -45 -17 -48 -20 -4 -28 24
-30 93 -1 59 -28 147 -48 153 -9 3 -11 -2 -8 -14 15 -53 28 -167 20 -175 -5
-5 -14 27 -22 79 -15 104 -29 152 -43 152 -7 0 -9 -25 -5 -77z"/>
<path d="M408 1293 c-15 -54 -32 -111 -39 -128 -14 -30 -14 -29 -17 28 -3 56
-14 73 -26 41 -3 -9 -6 -61 -7 -116 0 -56 -5 -110 -9 -122 -5 -11 -11 -38 -15
-58 -3 -21 -10 -38 -16 -38 -7 0 -8 25 -3 69 8 82 -3 192 -17 170 -5 -8 -9
-32 -9 -54 0 -22 -5 -47 -10 -55 -12 -19 -13 -14 -10 83 1 42 -2 77 -7 77 -13
0 -36 -68 -43 -124 -3 -30 -11 -51 -19 -54 -11 -4 -13 7 -8 59 10 100 -7 106
-36 14 -22 -71 -41 -88 -37 -32 5 53 -2 61 -16 22 -18 -46 -13 -109 15 -225
18 -74 18 -75 57 -83 43 -9 109 -26 129 -33 7 -3 21 16 36 51 26 62 21 60 127
39 19 -4 32 -2 32 3 0 6 -27 16 -60 23 -59 13 -60 13 -60 47 l0 35 43 -7 c23
-4 47 -11 53 -16 8 -7 15 9 23 50 6 32 20 70 30 83 29 36 91 165 83 172 -3 4
0 11 8 16 11 7 11 10 2 10 -7 0 -26 -21 -43 -47 -21 -32 -29 -40 -25 -23 27
104 33 141 26 145 -5 3 -7 13 -4 23 5 14 4 15 -5 2 -6 -8 -16 -40 -22 -70 -13
-62 -28 -98 -28 -65 0 11 6 49 14 85 10 48 11 67 2 72 -7 4 -16 -11 -25 -45
-31 -122 -33 -130 -44 -119 -7 7 -4 34 7 85 11 49 13 82 8 92 -7 12 -16 -9
-35 -82z"/>
<path d="M1846 1273 c7 -73 7 -79 -2 -130 -3 -24 -10 -43 -14 -43 -4 0 -13
-39 -20 -87 -7 -47 -22 -107 -33 -132 l-21 -46 -8 40 c-4 22 -5 81 -2 131 6
84 5 92 -12 98 -22 7 -134 -10 -146 -22 -4 -4 -8 -75 -8 -157 -1 -247 1 -315
11 -321 5 -3 9 10 9 30 0 41 8 66 23 66 14 0 3 -115 -19 -210 -10 -41 -19 -77
-20 -79 -2 -2 -22 6 -46 18 -44 21 -65 25 -106 23 -42 -3 -12 -22 34 -22 55 0
119 -31 128 -62 13 -44 19 -314 8 -334 -9 -15 -11 9 -12 102 0 67 -3 136 -6
153 -8 41 -59 72 -121 74 l-47 2 -27 -100 c-14 -55 -32 -120 -40 -145 l-13
-45 -8 95 c-10 116 -34 260 -46 272 -11 11 -140 13 -170 4 -14 -5 -22 -3 -22
5 0 10 -19 55 -49 118 -8 17 -26 16 -26 -1 0 -7 6 -12 13 -11 14 3 15 -6 3
-26 -12 -18 -31 -5 -31 21 0 11 8 36 17 56 l17 35 13 -39 c7 -21 11 -28 9 -14
-2 14 0 45 4 70 7 38 8 32 6 -32 -2 -43 0 -78 4 -78 4 0 10 -12 13 -27 l6 -28
98 0 98 0 34 70 c67 135 71 146 71 183 0 43 -16 77 -24 52 -25 -79 -24 -78
-25 -29 -1 26 -4 61 -7 78 -10 47 -31 22 -40 -45 -9 -78 -26 -80 -18 -2 3 38
1 74 -5 92 -11 28 -12 28 -30 10 -11 -11 -15 -23 -10 -29 4 -6 4 -17 -1 -25
-8 -12 -10 -10 -11 8 -3 42 -4 45 -18 50 -8 3 -11 1 -8 -4 3 -5 -5 -9 -16 -10
-12 0 -31 -4 -41 -9 -14 -6 -17 -5 -12 3 4 8 0 12 -11 12 -14 0 -15 2 -5 9 19
11 -8 21 -58 21 -44 0 -70 -8 -70 -21 0 -6 8 -5 19 1 25 13 58 13 66 0 3 -6
-1 -7 -10 -4 -26 10 -13 -20 15 -33 32 -15 9 -17 -24 -2 -14 7 -22 17 -19 25
7 19 -3 18 -27 -3 -11 -10 -20 -24 -19 -33 0 -10 2 -11 6 -2 2 6 9 12 15 12 6
0 8 -6 5 -13 -3 -9 6 -12 32 -11 46 1 84 -9 89 -24 2 -7 -5 -12 -15 -12 -15 0
-16 2 -3 10 11 7 4 10 -27 10 -43 0 -59 -15 -25 -23 9 -2 4 -2 -13 0 -53 8
-60 10 -58 22 2 6 0 11 -5 11 -14 0 -30 -36 -42 -96 -15 -71 -33 -108 -25 -49
17 113 40 208 67 275 26 67 49 180 36 180 -3 0 -15 -26 -27 -59 -27 -74 -47
-94 -57 -56 -4 15 -4 50 -1 79 6 65 -2 82 -29 61 -14 -11 -16 -17 -7 -23 9 -6
10 -20 4 -52 -10 -57 -14 -48 -38 88 -10 58 -28 29 -33 -53 -5 -74 -6 -77 -17
-52 -7 15 -13 46 -13 67 0 22 -4 40 -9 40 -12 0 -21 -37 -21 -90 0 -25 -3 -55
-6 -67 l-6 -21 -34 20 c-19 11 -38 18 -41 14 -3 -3 2 -25 11 -49 21 -55 21
-55 -11 -50 -87 15 -103 15 -104 2 -1 -32 -10 -63 -21 -76 -6 -7 -11 -51 -11
-101 0 -50 -2 -64 -4 -32 -5 81 -12 105 -26 91 -6 -6 -11 -37 -10 -70 1 -32
-2 -71 -7 -87 -7 -24 -8 -18 -9 33 -1 74 -6 78 -103 88 -67 7 -68 7 -68 -16 0
-41 -33 -289 -38 -284 -3 3 -8 47 -11 97 l-6 93 -65 22 c-36 12 -78 22 -95 22
-28 0 -33 -5 -67 -83 l-38 -83 0 -282 0 -281 328 0 327 0 1 233 c1 212 4 247
33 411 17 99 31 183 31 188 0 4 30 8 66 8 l67 0 -7 -42 c-4 -24 -17 -79 -29
-123 l-22 -80 -6 58 c-7 63 -12 73 -29 62 -9 -6 -10 -48 -6 -160 5 -102 3
-155 -4 -160 -16 -10 -12 -65 5 -65 18 0 19 -12 3 -28 -9 -9 -9 -17 2 -36 12
-24 9 -144 -6 -233 l-6 -33 96 0 96 0 -8 33 c-4 17 -7 97 -7 177 0 114 -3 147
-14 156 -16 12 -12 78 8 127 18 47 39 13 40 -63 0 -35 4 -66 8 -69 4 -3 9 -22
9 -41 1 -19 6 -36 13 -38 7 -2 11 -34 11 -88 0 -65 -5 -95 -20 -126 -11 -23
-20 -48 -20 -55 0 -11 104 -13 555 -13 437 0 555 3 555 13 0 19 -27 118 -44
162 -8 22 -15 63 -16 91 0 37 -5 56 -19 68 -20 18 -20 19 5 73 27 62 35 175
12 171 -8 -2 -13 8 -13 25 1 26 0 27 -12 11 -7 -10 -13 -35 -13 -56 0 -21 -4
-38 -9 -38 -15 0 -17 30 -8 92 12 74 1 188 -19 188 -8 0 -14 9 -14 21 0 14 5
19 14 16 10 -4 15 10 20 56 4 34 13 85 21 112 8 28 13 66 13 87 -1 20 5 44 13
54 7 9 13 26 11 37 -2 10 1 16 6 13 19 -12 20 22 1 40 -17 16 -19 16 -19 1 0
-10 8 -17 17 -17 15 0 15 -1 -1 -13 -10 -7 -16 -22 -14 -33 2 -13 -2 -19 -13
-18 -12 1 -15 -5 -13 -20 2 -11 2 -15 -2 -8 -8 17 -27 15 -20 -3 3 -8 1 -15
-4 -15 -6 0 -10 8 -10 18 -1 23 -27 57 -32 41 -9 -26 -30 4 -26 37 2 19 0 34
-4 34 -4 0 -8 -7 -8 -17 0 -24 -6 -13 -13 24 -6 31 -5 32 18 23 27 -10 31 -4
15 20 -6 10 -10 11 -10 3 0 -7 -4 -13 -10 -13 -5 0 -10 11 -10 25 0 14 -5 25
-10 25 -7 0 -8 -21 -4 -57z"/>
<path d="M2554 972 c-6 -4 -18 -20 -28 -37 -14 -25 -16 -41 -8 -102 4 -40 5
-73 2 -73 -4 0 -5 -32 -2 -71 5 -70 4 -71 -16 -60 -11 6 -27 8 -35 5 -13 -5
-15 12 -14 107 2 84 -1 113 -11 115 -7 1 -8 0 -2 -3 5 -2 10 -12 10 -21 0 -15
-2 -15 -10 -2 -7 12 -11 8 -16 -19 l-7 -33 -12 28 c-11 29 -11 29 -18 5 -3
-12 -10 -20 -15 -17 -5 3 -15 -22 -21 -57 -7 -34 -16 -77 -22 -94 -6 -18 -8
-36 -5 -41 2 -4 1 -23 -4 -42 -6 -27 -8 -16 -9 53 -1 53 -5 86 -11 82 -5 -3
-7 -12 -3 -20 3 -9 -1 -15 -10 -15 -29 0 -38 -124 -13 -182 21 -49 22 -102 1
-94 -8 3 -15 0 -15 -5 0 -7 8 -9 23 -4 12 4 49 9 82 10 l60 3 -57 -7 c-31 -3
-58 -8 -60 -11 -2 -3 -1 -25 3 -50 l6 -45 1 48 2 47 55 2 c115 4 110 5 107
-17 -2 -16 -1 -17 7 -5 8 11 11 4 13 -30 1 -25 1 -58 0 -73 -1 -17 2 -26 8
-22 13 8 13 -46 -1 -65 -8 -12 -9 -10 -4 8 4 13 2 28 -3 35 -6 7 -12 23 -15
37 -2 15 -5 7 -5 -20 -1 -30 1 -40 7 -31 6 9 8 -26 6 -90 -2 -84 -1 -95 6 -59
5 25 11 60 12 77 8 89 25 11 18 -84 -2 -30 1 -33 27 -33 29 0 29 0 36 75 4 41
16 114 27 162 10 49 24 152 29 230 11 163 17 193 36 193 8 0 14 10 14 25 0 31
16 32 105 4 36 -11 72 -18 78 -16 12 4 -55 26 -141 48 -73 17 -47 34 48 32
102 -3 97 13 -6 23 l-71 7 -13 69 c-6 38 -9 80 -6 93 5 19 2 24 -16 27 -25 4
-34 1 -87 -26 -26 -13 -37 -14 -45 -5 -8 9 -8 10 2 5 7 -4 15 -1 18 9 8 19 2
27 -12 17z"/>
</g>
</svg>
