<?xml version="1.0" standalone="no"?>
<!DOCTYPE svg PUBLIC "-//W3C//DTD SVG 20010904//EN"
 "http://www.w3.org/TR/2001/REC-SVG-20010904/DTD/svg10.dtd">
<svg version="1.0" xmlns="http://www.w3.org/2000/svg"
 width="225.000000pt" height="225.000000pt" viewBox="0 0 225.000000 225.000000"
 preserveAspectRatio="xMidYMid meet">
<metadata>
Created by potrace 1.16, written by Peter Selinger 2001-2019
</metadata>
<g transform="translate(0.000000,225.000000) scale(0.100000,-0.100000)"
fill="#000000" stroke="none">
<path d="M1428 2147 c-28 -26 -32 -38 -52 -177 -8 -52 -21 -125 -30 -163 -9
-37 -15 -71 -14 -75 1 -4 -4 -20 -10 -35 -14 -33 -16 -101 -3 -93 5 3 7 16 4
29 -3 12 -3 19 0 16 4 -3 11 -23 16 -45 5 -22 9 -30 10 -17 1 17 7 21 29 20
18 -1 26 2 24 12 -2 9 3 11 13 7 9 -3 20 -6 24 -6 9 0 -4 -106 -17 -141 -5
-13 -8 -40 -7 -59 1 -19 -5 -43 -13 -52 -12 -15 -12 -16 9 -11 18 5 21 3 15
-12 -5 -14 -4 -16 7 -7 10 9 17 8 25 0 6 -6 15 -9 18 -5 4 4 -4 15 -17 26
l-24 20 25 -6 c22 -5 23 -4 8 8 -15 13 -14 22 8 129 13 63 28 160 34 215 5 55
17 143 24 195 26 168 26 171 10 202 -14 27 -48 48 -78 48 -7 0 -24 -11 -38
-23z"/>
<path d="M1018 2019 l-31 -30 7 -122 c16 -262 18 -269 51 -288 17 -9 40 -15
53 -12 12 3 22 1 22 -5 0 -18 39 -21 43 -3 3 9 5 4 6 -11 0 -16 5 -28 11 -28
5 0 7 -6 4 -14 -3 -8 -1 -17 5 -21 16 -9 16 -8 -25 185 -7 36 -15 126 -18 200
-5 130 -6 136 -31 158 -35 30 -61 28 -97 -9z"/>
<path d="M1736 1978 c-13 -24 -34 -83 -46 -132 -11 -49 -30 -106 -41 -128 -11
-21 -17 -43 -14 -48 3 -6 2 -10 -3 -10 -5 0 -14 -12 -21 -26 -10 -24 -9 -30
11 -52 l23 -24 -25 7 c-22 7 -23 6 -12 -8 7 -9 26 -19 42 -22 16 -3 31 -12 33
-18 2 -7 3 -4 2 5 -3 16 18 32 28 22 6 -7 -13 -86 -25 -101 -5 -6 -15 -10 -23
-7 -7 3 -16 1 -20 -5 -9 -16 -25 -13 -25 4 0 8 -4 15 -9 15 -5 0 -11 12 -13
28 l-4 27 -14 -30 c-7 -16 -12 -39 -11 -49 3 -24 29 -65 54 -88 18 -17 18 -18
-10 -60 l-29 -43 45 -43 c52 -50 55 -48 71 51 6 37 28 118 51 180 22 61 51
162 64 222 14 61 31 135 40 165 8 30 15 80 15 110 0 67 -26 100 -78 100 -26 0
-35 -7 -56 -42z"/>
<path d="M583 1671 c-41 -34 -22 -112 59 -236 39 -59 56 -75 109 -103 48 -26
59 -29 45 -14 -17 20 -17 21 2 33 12 7 18 19 14 28 -4 10 -1 13 11 8 11 -4 14
-2 10 9 -3 7 -8 14 -12 14 -13 0 -51 -46 -44 -53 3 -4 0 -7 -9 -7 -20 0 -60
48 -52 62 4 7 3 8 -5 4 -7 -5 -13 4 -18 24 -3 18 -12 34 -19 37 -8 3 -14 11
-14 19 0 8 -4 14 -10 14 -5 0 -9 10 -7 23 1 14 -3 21 -12 19 -9 -2 -12 4 -8
17 3 11 0 19 -5 18 -5 -1 -14 8 -19 21 -8 21 -8 22 16 6 14 -9 25 -12 25 -6 0
6 -5 12 -12 14 -13 5 -4 38 11 38 5 0 13 -9 16 -20 3 -11 12 -20 18 -20 8 0 7
-3 -2 -9 -7 -5 -9 -11 -5 -14 5 -3 14 1 21 8 9 10 4 21 -22 49 -37 41 -50 43
-82 17z"/>
<path d="M770 1195 c0 -4 6 -18 14 -33 21 -40 43 -158 56 -303 7 -70 16 -133
20 -140 6 -9 21 -2 57 28 26 22 94 71 151 108 57 37 102 71 100 75 -2 4 -82
61 -178 125 -96 64 -182 123 -191 131 -16 14 -29 18 -29 9z"/>
<path d="M1975 1051 c3 -5 -4 -12 -15 -16 -11 -3 -20 -15 -20 -25 0 -12 -8
-20 -22 -22 -13 -2 -23 -8 -23 -15 0 -6 -3 -15 -7 -19 -5 -4 -8 -2 -8 4 0 7
-5 12 -11 12 -5 0 -8 -4 -5 -9 3 -5 2 -29 -3 -54 -6 -37 -5 -44 6 -40 9 4 11
0 7 -11 -3 -9 -11 -16 -16 -16 -6 0 -8 -7 -4 -15 3 -8 3 -15 0 -15 -2 0 -9 10
-14 23 -8 21 -9 21 -9 2 -1 -12 -6 -26 -13 -33 -9 -9 -8 -12 8 -12 10 0 28 -3
40 -6 17 -5 25 3 47 49 15 30 63 93 108 141 l81 86 -67 0 c-38 0 -64 -4 -60
-9z"/>
<path d="M1112 764 c-23 -14 -40 -29 -37 -34 3 -5 -7 -17 -22 -28 -37 -25 -63
-38 -40 -19 38 31 14 25 -40 -10 -85 -55 -82 -52 -62 -98 10 -22 28 -80 40
-130 12 -49 25 -94 30 -99 4 -5 64 34 133 85 69 52 144 107 166 124 22 16 39
34 36 41 -3 7 5 12 19 12 13 0 34 10 47 22 12 13 17 19 9 15 -8 -4 -17 -2 -23
6 -7 11 -8 9 -6 -6 2 -14 -3 -19 -19 -18 -41 1 -44 3 -38 13 4 6 16 8 28 5 12
-2 16 -2 10 1 -8 3 -13 24 -13 47 l0 42 -24 -30 c-25 -31 -40 -75 -25 -75 5 0
9 -9 9 -19 0 -11 5 -21 12 -23 7 -3 5 -7 -6 -11 -9 -4 -15 -3 -13 1 3 4 1 16
-4 27 -7 16 -8 13 -6 -13 3 -25 0 -32 -10 -28 -8 3 -11 1 -8 -4 3 -5 0 -8 -7
-5 -9 4 -12 24 -11 67 3 69 -12 68 -22 -2 -4 -24 -9 -48 -12 -53 -2 -4 1 -15
9 -24 9 -12 9 -14 1 -9 -7 4 -22 2 -33 -4 -19 -10 -39 -4 -89 28 -3 1 -6 16
-7 32 -1 22 4 34 18 41 17 9 18 13 7 20 -11 7 -11 9 3 9 16 0 42 55 33 70 -3
5 3 6 14 3 10 -3 22 1 27 8 5 8 3 11 -8 7 -11 -5 -14 0 -12 18 3 30 -1 30 -54
-2z"/>
<path d="M1525 598 c-155 -107 -241 -165 -408 -276 l-126 -83 -6 -57 c-4 -31
-11 -81 -16 -111 -5 -30 -9 -58 -9 -63 0 -4 123 -8 273 -8 l272 0 -3 117 c-4
120 9 216 34 265 8 15 77 90 154 167 l140 141 -87 -1 -88 0 -130 -91z"/>
<path d="M330 139 c-63 -33 -117 -62 -118 -64 -2 -2 -7 -20 -12 -39 l-8 -36
89 0 c78 0 89 2 89 18 0 51 23 92 70 130 38 30 46 41 34 46 -23 9 -21 10 -144
-55z"/>
</g>
</svg>
