<?xml version="1.0" standalone="no"?>
<!DOCTYPE svg PUBLIC "-//W3C//DTD SVG 20010904//EN"
 "http://www.w3.org/TR/2001/REC-SVG-20010904/DTD/svg10.dtd">
<svg version="1.0" xmlns="http://www.w3.org/2000/svg"
 width="318.000000pt" height="158.000000pt" viewBox="0 0 318.000000 158.000000"
 preserveAspectRatio="xMidYMid meet">
<metadata>
Created by potrace 1.16, written by Peter Selinger 2001-2019
</metadata>
<g transform="translate(0.000000,158.000000) scale(0.100000,-0.100000)"
fill="#000000" stroke="none">
<path d="M1932 1350 c-21 -9 -48 -57 -37 -68 3 -3 13 2 23 11 31 28 59 20 53
-15 -1 -10 5 -10 49 3 30 9 43 8 69 -5 17 -9 29 -21 26 -26 -4 -6 3 -10 14
-10 21 0 37 -17 26 -28 -3 -3 -9 -1 -13 5 -11 18 -139 7 -206 -17 -41 -16 -54
-25 -45 -31 24 -15 48 -10 115 22 l65 31 44 -17 c25 -9 45 -21 45 -27 0 -6 7
-8 15 -5 8 4 17 2 21 -4 3 -6 -3 -13 -15 -16 -12 -3 -21 -9 -21 -14 0 -5 -18
-2 -40 7 -55 22 -118 13 -147 -20 -23 -27 -56 -36 -47 -13 6 15 -42 41 -58 31
-6 -4 -14 0 -19 7 -15 24 -10 65 11 92 25 32 25 37 -1 37 -16 0 -20 -5 -16
-20 3 -10 -1 -24 -9 -30 -20 -18 -54 -93 -54 -122 0 -15 12 -41 27 -59 17 -19
26 -42 25 -55 -5 -37 61 -123 96 -124 7 0 18 -11 24 -25 6 -14 17 -25 25 -25
7 0 13 -9 13 -19 0 -11 11 -33 26 -50 l25 -30 -41 -21 c-23 -12 -40 -23 -38
-25 9 -9 94 28 109 47 29 37 178 79 167 47 -3 -8 -11 -15 -19 -16 -8 -1 -35
-5 -61 -8 -27 -3 -48 -10 -48 -15 0 -19 35 -50 55 -50 11 0 34 -9 50 -20 17
-11 44 -20 61 -20 19 0 34 -6 38 -15 3 -9 0 -15 -9 -15 -8 0 -30 -10 -50 -21
-43 -26 -123 -23 -155 6 -11 10 -20 13 -20 7 0 -7 -4 -12 -10 -12 -5 0 -10 7
-10 15 0 8 4 15 10 15 5 0 7 7 3 16 -5 13 -8 12 -27 -5 -16 -15 -25 -17 -39
-10 -13 8 -25 6 -42 -5 -13 -9 -30 -16 -37 -16 -7 0 -29 -15 -49 -33 -31 -28
-42 -33 -70 -29 -19 3 -28 7 -21 9 20 7 14 23 -9 23 -11 0 -17 4 -14 10 9 15
-47 9 -66 -7 -15 -12 -13 -17 17 -50 41 -44 46 -80 12 -67 -13 4 -62 8 -110 8
-93 1 -98 6 -47 51 16 14 23 16 26 7 4 -9 11 -8 33 5 24 14 26 18 15 30 -20
20 -74 -5 -124 -57 -33 -35 -42 -39 -63 -31 -19 7 -27 5 -36 -9 -6 -10 -9 -26
-6 -36 5 -24 -4 -36 -38 -51 -36 -16 -59 -54 -65 -106 -6 -56 8 -89 53 -124
31 -23 46 -28 86 -26 42 2 48 0 48 -17 0 -11 4 -20 8 -20 16 0 42 36 42 58 0
24 19 29 37 11 25 -25 168 82 192 144 6 15 13 13 60 -22 30 -22 73 -48 97 -57
43 -16 44 -17 41 -62 -2 -41 1 -48 26 -60 23 -11 27 -19 27 -53 l0 -39 475 0
c310 0 475 3 475 10 0 6 -7 10 -16 10 -8 0 -30 14 -47 32 -18 18 -59 45 -92
61 -61 30 -61 30 -126 3 -11 -5 -18 -1 -22 13 -3 15 -13 21 -32 21 -25 0 -26
2 -24 50 2 27 0 52 -3 56 -4 3 -20 -2 -37 -10 -16 -9 -36 -16 -43 -16 -26 0
-66 97 -59 144 2 11 -2 17 -10 14 -8 -3 -14 -15 -14 -29 0 -34 -27 -30 -37 6
-6 23 -3 34 10 47 15 15 27 17 87 9 39 -5 71 -5 73 0 8 20 44 7 60 -21 9 -16
23 -30 30 -30 8 0 26 -6 40 -14 15 -8 35 -17 44 -20 9 -3 33 -30 52 -60 33
-52 77 -86 110 -86 25 0 93 -92 90 -123 -2 -22 1 -27 20 -27 13 0 31 -9 41
-20 12 -14 31 -20 59 -20 l41 0 3 110 c3 68 0 110 -6 110 -9 0 -28 -65 -24
-83 1 -4 -8 -7 -21 -7 -37 0 -90 69 -91 119 -1 18 -9 26 -36 35 -26 8 -36 18
-38 36 -6 36 -30 49 -93 50 -59 0 -86 16 -75 45 3 8 1 15 -4 15 -6 0 -10 13
-10 28 0 26 -15 52 -31 52 -3 0 -4 -11 -1 -25 3 -20 0 -25 -17 -25 -14 0 -21
6 -21 18 0 10 -5 23 -11 29 -9 9 -4 20 20 43 l31 32 34 -21 c18 -12 41 -21 51
-21 10 0 57 -25 105 -55 80 -51 228 -135 236 -135 2 0 4 44 4 98 l0 97 -100
64 c-54 35 -113 77 -130 94 l-31 30 -15 -22 c-13 -17 -19 -20 -30 -10 -18 15
-18 33 1 49 8 7 15 16 15 21 0 10 -60 6 -78 -5 -19 -11 -27 1 -13 18 26 31
-40 94 -107 103 -55 7 -181 -55 -182 -89 0 -4 14 -23 31 -43 18 -20 29 -38 26
-42 -9 -8 -108 83 -129 118 -10 16 -23 29 -29 29 -7 0 -5 -8 6 -20 25 -28 6
-25 -35 5 -47 35 -74 31 -160 -20 -88 -53 -109 -57 -58 -11 31 28 37 39 33 64
-2 17 -6 35 -9 40 -7 12 22 52 38 52 7 0 24 -12 37 -27 21 -24 32 -28 81 -29
38 0 64 -6 76 -17 17 -15 18 -14 16 34 -1 28 -6 54 -10 57 -4 4 -4 -2 -1 -13
5 -12 -4 -7 -22 15 -19 22 -26 39 -20 45 5 5 9 25 9 45 0 27 -7 43 -30 65 -16
15 -27 32 -24 36 3 5 -8 21 -23 35 -15 14 -28 33 -28 43 0 9 -14 21 -35 28
-19 6 -34 16 -33 22 4 16 -57 28 -107 20 -55 -8 -64 -4 -19 10 l34 9 -37 1
c-20 1 -45 4 -55 7 -16 6 -16 5 2 -9 26 -21 1 -22 -35 -2 -29 17 -37 17 -68 5z
m338 -184 c0 -3 -4 -8 -10 -11 -5 -3 -10 -1 -10 4 0 6 5 11 10 11 6 0 10 -2
10 -4z m-40 -32 c0 -2 -9 -4 -20 -4 -11 0 -20 4 -20 9 0 5 9 7 20 4 11 -3 20
-7 20 -9z m135 -82 c4 -11 -2 -9 -19 7 -15 14 -26 21 -26 16 0 -11 -29 27 -30
38 0 13 68 -42 75 -61z m-372 21 c-7 -2 -19 -2 -25 0 -7 3 -2 5 12 5 14 0 19
-2 13 -5z m-98 -22 c-2 -5 -9 -21 -15 -36 -15 -40 -24 -23 -10 19 6 20 16 34
21 30 5 -3 7 -9 4 -13z m110 -11 c-3 -5 -13 -10 -21 -10 -8 0 -12 5 -9 10 3 6
13 10 21 10 8 0 12 -4 9 -10z m155 -35 c0 -24 -6 -37 -19 -45 -30 -15 -48 -12
-54 10 -3 14 -17 21 -46 26 -23 4 -40 9 -37 11 12 12 85 32 119 33 36 0 37 -1
37 -35z m109 1 c-3 -3 -11 5 -18 17 -13 21 -12 21 5 5 10 -10 16 -20 13 -22z
m-332 -18 c-3 -8 -6 -5 -6 6 -1 11 2 17 5 13 3 -3 4 -12 1 -19z m678 -168 c3
-5 8 -19 10 -31 2 -11 7 -30 11 -41 5 -17 3 -18 -13 -10 -25 14 -47 57 -40 76
7 18 23 21 32 6z m-505 -47 c-8 -3 -22 -11 -30 -17 -13 -10 -13 -9 -1 7 7 9
21 17 30 16 13 0 14 -1 1 -6z m275 -41 c-3 -3 -11 0 -18 7 -9 10 -8 11 6 5 10
-3 15 -9 12 -12z m85 8 c0 -5 -4 -10 -10 -10 -5 0 -10 5 -10 10 0 6 5 10 10
10 6 0 10 -4 10 -10z m44 -55 c19 -14 46 -25 64 -25 43 0 62 -9 62 -31 0 -13
-5 -17 -17 -13 -17 5 -17 5 0 -6 18 -12 24 -40 8 -40 -22 0 -41 13 -41 29 0
18 -94 91 -117 91 -8 0 -11 5 -8 10 9 14 12 13 49 -15z m-43 -85 c32 -18 22
-30 -25 -30 -41 0 -74 19 -59 33 10 11 62 8 84 -3z m19 -61 c0 -5 -4 -9 -10
-9 -5 0 -10 7 -10 16 0 8 5 12 10 9 6 -3 10 -10 10 -16z m-865 1 c-3 -5 -11
-10 -16 -10 -6 0 -7 5 -4 10 3 6 11 10 16 10 6 0 7 -4 4 -10z m165 -30 c0 -5
-7 -7 -15 -4 -8 4 -15 8 -15 10 0 2 7 4 15 4 8 0 15 -4 15 -10z m-336 -71 c-3
-5 -10 -7 -15 -3 -5 3 -7 10 -3 15 3 5 10 7 15 3 5 -3 7 -10 3 -15z m746 11
c0 -18 -40 -30 -104 -30 -71 0 -86 14 -33 29 43 12 137 13 137 1z m-376 -23
c10 -7 17 -22 15 -33 -5 -26 -70 -32 -90 -8 -12 14 -10 19 10 35 27 22 41 24
65 6z m576 -37 c0 -5 -7 -7 -15 -4 -8 4 -15 8 -15 10 0 2 7 4 15 4 8 0 15 -4
15 -10z m-490 -20 c6 -11 9 -20 7 -20 -2 0 -12 9 -22 20 -10 11 -13 20 -7 20
6 0 16 -9 22 -20z m458 -97 c-7 -35 -190 -70 -223 -43 -26 22 -16 29 33 24 36
-4 55 -1 82 15 46 26 113 28 108 4z"/>
<path d="M1351 1264 c-31 -31 -24 -31 19 1 19 14 27 25 19 24 -8 -1 -25 -12
-38 -25z"/>
<path d="M1400 1258 c-12 -22 -12 -22 6 -6 10 10 15 20 12 24 -4 3 -12 -5 -18
-18z"/>
<path d="M1233 1244 c-54 -26 -83 -62 -41 -50 13 3 27 6 32 6 4 0 6 7 3 15 -8
19 10 30 26 16 9 -7 22 -4 45 11 18 11 32 22 32 24 0 12 -51 0 -97 -22z"/>
<path d="M1927 1258 c-7 -4 -7 -8 -2 -8 6 0 -1 -9 -15 -20 -14 -11 -19 -20
-11 -20 15 0 144 28 181 40 23 8 22 9 -10 10 -19 0 -57 2 -83 3 -26 2 -53 -1
-60 -5z"/>
<path d="M1318 1182 c-16 -9 -28 -26 -28 -37 0 -19 1 -18 15 2 9 12 26 29 38
38 29 21 9 19 -25 -3z"/>
<path d="M843 1162 c-31 -31 -29 -36 6 -18 16 9 38 13 50 11 23 -4 28 9 9 21
-23 14 -43 10 -65 -14z"/>
<path d="M1120 1180 c0 -6 -18 -7 -47 -3 -34 4 -44 3 -39 -5 5 -8 0 -12 -13
-12 -12 0 -21 -5 -21 -11 0 -5 4 -8 9 -5 5 3 29 8 52 11 24 3 52 8 62 11 18 6
24 24 7 24 -5 0 -10 -4 -10 -10z"/>
<path d="M1855 1179 c-4 -6 -5 -12 -2 -15 2 -3 7 2 10 11 7 17 1 20 -8 4z"/>
<path d="M1250 1168 c0 -10 -7 -18 -16 -18 -8 0 -12 5 -9 10 7 11 -8 14 -19 3
-3 -4 -14 -8 -24 -9 -87 -13 -103 -17 -90 -26 8 -6 0 -7 -24 -3 -26 4 -38 2
-38 -6 0 -6 -7 -9 -15 -6 -8 4 -17 2 -20 -3 -4 -6 -16 -10 -28 -10 l-22 1 24
19 c13 11 19 20 13 20 -6 0 -17 -7 -26 -15 -8 -8 -19 -15 -25 -15 -6 0 -11 -5
-11 -11 0 -6 7 -8 16 -5 12 4 14 1 9 -13 -3 -11 -1 -22 5 -26 14 -9 13 -21 -5
-39 -8 -8 -11 -17 -6 -21 5 -3 12 4 16 15 4 11 11 17 17 14 6 -4 14 -1 18 5 4
7 27 17 51 22 24 5 73 21 109 34 36 13 77 26 93 30 28 6 35 27 17 55 -8 13
-10 12 -10 -2z"/>
<path d="M1300 1110 c0 -5 5 -10 11 -10 5 0 7 5 4 10 -3 6 -8 10 -11 10 -2 0
-4 -4 -4 -10z"/>
<path d="M1280 1078 c0 -35 25 -66 40 -51 9 8 7 14 -9 22 -11 6 -18 17 -15 25
3 8 1 17 -5 21 -7 4 -11 -3 -11 -17z"/>
<path d="M795 1052 c3 -17 -1 -22 -16 -22 -10 0 -19 -5 -19 -11 0 -7 7 -8 18
-4 9 4 26 10 37 12 20 5 20 5 0 -10 -11 -8 -17 -19 -12 -23 4 -4 7 -2 7 4 0 7
7 12 15 12 8 0 12 -6 9 -13 -7 -19 -76 -56 -92 -50 -7 3 -11 0 -10 -7 4 -17
-33 -39 -39 -22 -5 14 -33 17 -33 3 0 -5 8 -11 18 -14 14 -3 12 -6 -10 -15
-14 -6 -29 -16 -34 -23 -12 -20 21 -4 128 62 53 32 102 59 110 59 8 0 13 12
13 31 0 24 -6 34 -23 40 -15 6 -21 5 -17 -1 9 -14 -29 -12 -43 2 -9 9 -11 6
-7 -10z"/>
<path d="M730 1039 c0 -5 5 -7 10 -4 6 3 10 8 10 11 0 2 -4 4 -10 4 -5 0 -10
-5 -10 -11z"/>
<path d="M675 1022 c3 -8 5 -16 5 -18 0 -3 9 0 20 6 27 15 25 25 -5 25 -17 0
-24 -4 -20 -13z"/>
<path d="M1345 1030 c3 -5 8 -10 11 -10 2 0 4 5 4 10 0 6 -5 10 -11 10 -5 0
-7 -4 -4 -10z"/>
<path d="M960 989 c-9 -15 -8 -24 1 -35 7 -8 7 -14 1 -14 -5 0 -13 7 -16 16
-3 9 -13 14 -20 11 -8 -3 -17 -1 -20 6 -3 8 -5 9 -5 1 -1 -17 85 -132 144
-191 51 -51 133 -107 247 -172 l57 -32 -2 33 c-1 18 -6 39 -11 46 -4 7 -3 19
4 27 8 10 8 15 0 20 -6 4 -9 13 -7 20 6 13 -91 115 -109 115 -6 0 -19 9 -29
20 -20 22 -35 26 -35 10 0 -5 5 -10 10 -10 20 0 80 -67 80 -89 0 -28 -16 -27
-52 7 -42 38 -59 73 -46 96 5 9 8 19 6 20 -77 59 -161 116 -173 116 -8 0 -19
-9 -25 -21z m48 -11 c8 -10 4 -13 -14 -14 -24 -2 -31 6 -17 19 10 10 19 8 31
-5z m-52 -60 l29 -33 -32 29 c-31 28 -38 36 -30 36 2 0 16 -15 33 -32z m79
-88 c16 -20 13 -19 -13 4 -17 17 -32 34 -32 39 0 9 12 -3 45 -43z"/>
<path d="M1300 995 c0 -9 5 -15 11 -13 6 2 11 8 11 13 0 5 -5 11 -11 13 -6 2
-11 -4 -11 -13z"/>
<path d="M1327 957 c-3 -7 4 -19 14 -25 20 -13 24 -6 13 22 -7 19 -20 21 -27
3z"/>
<path d="M554 949 c-3 -5 -15 -9 -27 -10 -17 -1 -15 -3 8 -10 18 -5 43 -5 60
0 17 5 24 10 17 10 -7 1 -11 5 -8 10 3 5 -6 9 -19 9 -14 0 -28 -4 -31 -9z"/>
<path d="M665 950 c3 -5 8 -10 11 -10 2 0 4 5 4 10 0 6 -5 10 -11 10 -5 0 -7
-4 -4 -10z"/>
<path d="M481 913 c-1 -7 -7 -13 -15 -13 -7 0 -20 -8 -27 -17 -12 -16 -12 -17
2 -6 8 7 24 10 35 7 21 -6 52 21 40 33 -4 4 -11 1 -15 -6 -7 -11 -10 -11 -14
0 -4 10 -6 10 -6 2z"/>
<path d="M578 894 c-34 -18 -36 -34 -5 -34 22 0 57 27 57 43 0 11 -23 7 -52
-9z"/>
<path d="M1360 885 c0 -8 5 -15 10 -15 6 0 10 7 10 15 0 8 -4 15 -10 15 -5 0
-10 -7 -10 -15z"/>
<path d="M1418 893 c7 -3 16 -2 19 1 4 3 -2 6 -13 5 -11 0 -14 -3 -6 -6z"/>
<path d="M375 850 c-5 -9 45 -33 53 -25 3 3 0 5 -7 5 -7 0 -10 4 -7 8 6 11 64
3 72 -9 3 -5 -7 -9 -23 -9 -24 -1 -25 -2 -11 -11 12 -7 31 -6 60 2 30 9 37 14
24 17 -11 2 -26 11 -34 18 -14 15 -118 18 -127 4z"/>
<path d="M580 851 c-14 -4 -20 -10 -15 -13 6 -3 21 0 35 8 27 14 20 16 -20 5z"/>
<path d="M1360 850 c0 -5 5 -10 11 -10 5 0 7 5 4 10 -3 6 -8 10 -11 10 -2 0
-4 -4 -4 -10z"/>
<path d="M1438 843 c7 -3 16 -2 19 1 4 3 -2 6 -13 5 -11 0 -14 -3 -6 -6z"/>
<path d="M1475 800 c-3 -5 -1 -10 4 -10 6 0 11 5 11 10 0 6 -2 10 -4 10 -3 0
-8 -4 -11 -10z"/>
<path d="M535 780 c3 -5 10 -10 16 -10 5 0 9 5 9 10 0 6 -7 10 -16 10 -8 0
-12 -4 -9 -10z"/>
<path d="M586 777 c3 -10 9 -15 12 -12 3 3 0 11 -7 18 -10 9 -11 8 -5 -6z"/>
<path d="M2950 762 c0 -10 22 -32 32 -32 12 0 -2 28 -18 34 -8 3 -14 2 -14 -2z"/>
<path d="M544 739 c4 -13 8 -35 9 -49 1 -14 6 -31 10 -38 5 -7 4 -19 -2 -26
-8 -10 -7 -17 4 -26 13 -10 13 -15 3 -21 -9 -6 -8 -10 5 -15 21 -8 22 -22 1
-26 -14 -3 -13 -7 6 -30 24 -31 40 -36 40 -13 0 8 -7 15 -15 15 -8 0 -15 4
-15 10 0 5 7 7 16 3 13 -5 14 0 8 33 -3 22 -12 45 -18 53 -9 12 -6 13 18 9 30
-6 30 -6 8 11 -16 12 -20 23 -17 43 3 17 0 30 -9 35 -7 4 -15 17 -18 28 -2 11
-12 21 -22 23 -16 3 -18 0 -12 -19z m43 -72 c2 -23 0 -28 -7 -17 -12 18 -13
50 -2 50 4 0 8 -15 9 -33z"/>
<path d="M1400 704 c0 -11 5 -14 17 -10 9 4 20 1 25 -6 14 -23 9 -30 -16 -24
-20 5 -23 3 -19 -14 4 -14 11 -19 23 -15 14 4 21 -5 34 -44 20 -63 20 -64 -4
-58 -11 3 -20 1 -20 -4 0 -5 8 -9 18 -9 10 0 24 -6 31 -12 10 -11 15 -10 24 2
7 9 26 26 42 39 17 12 30 28 30 34 0 14 75 19 91 6 7 -6 16 -4 23 5 9 11 5 15
-21 19 -18 2 -34 2 -36 -2 -1 -3 -19 -6 -39 -5 -33 2 -47 11 -43 29 2 12 -48
44 -99 65 -62 24 -61 24 -61 4z"/>
<path d="M2110 674 c0 -16 56 -73 81 -83 18 -6 30 -5 44 5 18 14 18 14 -1 29
-10 8 -35 17 -54 21 -19 4 -43 13 -52 22 -10 8 -18 11 -18 6z"/>
<path d="M1577 649 c7 -7 15 -10 18 -7 3 3 -2 9 -12 12 -14 6 -15 5 -6 -5z"/>
<path d="M1415 589 c-4 -6 -4 -13 -1 -16 8 -8 36 5 36 17 0 13 -27 13 -35 -1z"/>
<path d="M650 565 c7 -8 17 -15 22 -15 6 0 5 7 -2 15 -7 8 -17 15 -22 15 -6 0
-5 -7 2 -15z"/>
<path d="M661 527 c2 -1 13 -9 24 -17 19 -14 19 -14 6 3 -7 9 -18 17 -24 17
-6 0 -8 -1 -6 -3z"/>
<path d="M570 483 c0 -13 47 -53 54 -46 11 11 6 23 -9 23 -9 0 -18 7 -21 15
-6 15 -24 21 -24 8z"/>
<path d="M686 481 c-4 -6 3 -15 14 -21 23 -12 27 2 6 19 -9 8 -16 8 -20 2z"/>
<path d="M570 425 c0 -8 5 -15 10 -15 6 0 10 7 10 15 0 8 -4 15 -10 15 -5 0
-10 -7 -10 -15z"/>
<path d="M705 430 c-7 -11 18 -24 35 -18 6 2 1 9 -9 15 -13 8 -22 9 -26 3z"/>
<path d="M602 385 c4 -17 0 -29 -11 -34 -14 -9 -14 -11 1 -28 10 -11 16 -32
14 -58 -2 -47 -11 -65 -32 -65 -8 0 -14 -5 -14 -11 0 -6 6 -8 13 -5 6 3 20 9
30 12 9 4 17 13 17 21 0 8 5 11 10 8 6 -4 10 7 10 25 0 20 -4 29 -11 24 -8 -5
-8 -1 0 13 7 14 7 23 -2 32 -9 9 -8 14 3 22 11 8 12 12 3 16 -8 3 -11 14 -7
29 5 18 2 24 -11 24 -13 0 -16 -6 -13 -25z"/>
<path d="M740 370 c0 -5 7 -10 16 -10 8 0 12 5 9 10 -3 6 -10 10 -16 10 -5 0
-9 -4 -9 -10z"/>
<path d="M760 323 c0 -5 11 -13 25 -19 23 -11 24 -10 14 7 -9 18 -39 27 -39
12z"/>
<path d="M777 273 c-9 -9 12 -32 26 -29 7 1 9 1 5 -1 -7 -5 -3 -25 15 -60 7
-15 19 -23 37 -23 14 0 31 -5 38 -12 6 -6 14 -9 17 -6 4 3 -8 16 -24 28 -17
12 -31 26 -31 31 0 5 -10 25 -22 44 -21 32 -46 44 -61 28z"/>
<path d="M3115 210 c3 -5 8 -10 11 -10 2 0 4 5 4 10 0 6 -5 10 -11 10 -5 0 -7
-4 -4 -10z"/>
<path d="M0 90 l0 -90 510 0 c281 0 510 3 510 8 0 18 -33 52 -49 52 -11 0 -21
6 -24 13 -3 8 -27 20 -54 27 -26 8 -59 22 -73 32 -30 21 -142 27 -164 9 -11
-9 -15 -9 -19 1 -2 7 -7 -2 -11 -19 -9 -38 -18 -46 -41 -37 -11 4 -15 15 -13
28 4 17 -1 22 -20 24 -20 2 -22 -1 -13 -12 10 -12 8 -16 -11 -21 -12 -4 -23
-4 -25 1 -2 5 -48 7 -104 6 -65 -3 -136 2 -202 14 -56 9 -114 16 -129 15 -16
-1 -28 3 -28 8 0 6 -9 15 -20 21 -19 10 -20 8 -20 -80z"/>
</g>
</svg>
