<?xml version="1.0" standalone="no"?>
<!DOCTYPE svg PUBLIC "-//W3C//DTD SVG 20010904//EN"
 "http://www.w3.org/TR/2001/REC-SVG-20010904/DTD/svg10.dtd">
<svg version="1.0" xmlns="http://www.w3.org/2000/svg"
 width="297.000000pt" height="170.000000pt" viewBox="0 0 297.000000 170.000000"
 preserveAspectRatio="xMidYMid meet">
<metadata>
Created by potrace 1.16, written by Peter Selinger 2001-2019
</metadata>
<g transform="translate(0.000000,170.000000) scale(0.100000,-0.100000)"
fill="#000000" stroke="none">
<path d="M0 850 l0 -850 1485 0 1485 0 0 850 0 850 -237 -1 c-131 0 -229 -5
-218 -9 17 -7 14 -11 -25 -29 l-45 -21 40 -2 c22 -1 50 -2 63 -2 27 0 28 -6 5
-28 -10 -9 -29 -32 -43 -50 -32 -42 -217 -227 -295 -295 -109 -95 -176 -136
-162 -100 4 10 -2 13 -19 9 -13 -2 -22 -9 -21 -14 1 -6 -11 -12 -28 -14 -19
-2 -25 0 -16 5 17 11 5 18 -47 30 -40 8 -62 -2 -24 -12 14 -4 14 -5 -3 -6 -11
0 -27 4 -35 9 -11 7 -11 10 -2 10 7 0 10 5 7 10 -3 6 -18 10 -33 10 -22 0 -24
2 -12 11 12 8 10 9 -10 5 -14 -3 -29 -6 -33 -6 -5 0 -5 -6 -1 -12 4 -7 -1 -6
-12 3 -10 9 -28 19 -39 21 -11 3 -29 9 -40 13 -16 5 -17 5 -5 -4 12 -9 10 -11
-11 -11 -14 0 -31 -6 -38 -12 -11 -10 -13 -10 -7 0 5 8 -2 12 -21 13 -66 3
-95 7 -105 17 -6 6 -33 8 -64 5 -35 -4 -59 -2 -68 6 -10 9 -33 10 -73 5 -46
-5 -53 -9 -35 -15 30 -11 28 -27 -3 -21 -14 2 -25 11 -25 19 0 9 -6 13 -15 9
-9 -3 -15 0 -15 10 0 9 -6 14 -12 11 -7 -2 -12 -9 -11 -15 3 -12 -28 -20 -114
-26 -34 -3 -75 -8 -90 -11 -15 -3 -22 -2 -16 1 19 9 16 24 -5 24 -24 0 -292
270 -374 377 l-63 82 -257 0 -258 1 0 -850z m1360 317 c14 -6 84 -12 155 -14
251 -7 256 -7 266 -26 6 -9 17 -17 24 -17 19 0 18 -7 -4 -45 -15 -25 -24 -30
-62 -32 -24 -1 -58 -5 -75 -8 -19 -4 -41 -2 -55 6 -38 20 -88 28 -92 15 -3 -8
-13 -8 -39 2 -19 6 -42 12 -51 12 -10 0 -17 8 -17 18 0 15 -8 17 -47 15 -45
-3 -49 -1 -73 35 -14 20 -29 41 -35 45 -14 11 75 6 105 -6z m-1017 -188 c76
-12 98 -21 77 -34 -5 -3 -10 -11 -10 -16 0 -6 5 -7 10 -4 10 6 14 -7 11 -33
-1 -8 2 -19 8 -25 16 -20 31 -120 19 -135 -7 -8 -8 -43 -4 -97 6 -72 5 -85 -8
-85 -8 0 -17 4 -20 9 -3 5 -15 7 -25 4 -35 -9 -61 14 -61 56 0 34 3 39 35 48
25 8 35 8 35 0 0 -6 2 -8 5 -5 15 14 -10 36 -48 41 -23 3 -43 10 -45 16 -2 5
-9 8 -17 5 -7 -3 -16 -1 -20 5 -3 6 2 11 12 11 17 1 17 1 0 11 -11 7 -16 17
-12 29 3 10 1 22 -6 25 -8 6 -8 9 1 15 15 9 4 30 -15 30 -7 0 -16 -8 -18 -17
-3 -10 -3 2 -1 27 3 32 2 39 -5 25 -6 -14 -8 0 -7 46 1 52 4 65 16 63 8 -1 50
-8 93 -15z m1332 -15 c22 -3 47 -8 55 -11 8 -3 18 -5 23 -5 13 3 7 -17 -28
-90 -19 -40 -53 -116 -76 -168 -23 -52 -54 -111 -69 -130 -46 -59 -98 -145
-103 -171 -2 -14 -5 -7 -6 20 -2 62 -16 41 -18 -27 -1 -31 -2 -63 -2 -69 -2
-35 -48 5 -78 67 -42 88 -63 181 -65 294 -3 107 -3 108 25 131 17 16 34 22 45
18 16 -7 16 -6 0 11 -10 9 -18 22 -18 27 0 12 40 -8 41 -21 1 -6 3 -14 4 -20
1 -5 4 -18 6 -27 1 -10 5 17 8 60 3 42 9 76 12 75 3 -2 13 3 21 10 8 6 37 15
64 18 27 3 51 10 53 16 2 6 16 7 35 3 17 -3 49 -8 71 -11z"/>
</g>
</svg>
