<?xml version="1.0" standalone="no"?>
<!DOCTYPE svg PUBLIC "-//W3C//DTD SVG 20010904//EN"
 "http://www.w3.org/TR/2001/REC-SVG-20010904/DTD/svg10.dtd">
<svg version="1.0" xmlns="http://www.w3.org/2000/svg"
 width="225.000000pt" height="225.000000pt" viewBox="0 0 225.000000 225.000000"
 preserveAspectRatio="xMidYMid meet">
<metadata>
Created by potrace 1.16, written by Peter Selinger 2001-2019
</metadata>
<g transform="translate(0.000000,225.000000) scale(0.100000,-0.100000)"
fill="#000000" stroke="none">
<path d="M1049 2218 c-20 -11 -46 -38 -58 -58 -21 -38 -21 -39 -21 -1035 0
-997 0 -997 21 -1035 26 -46 83 -80 134 -80 51 0 108 34 134 80 21 38 21 38
21 1035 0 997 0 997 -21 1035 -42 74 -138 101 -210 58z"/>
<path d="M424 1591 c-21 -16 -123 -113 -225 -217 -195 -197 -209 -218 -194
-284 4 -20 65 -88 203 -227 109 -109 210 -208 226 -220 63 -50 160 -17 186 62
18 56 0 91 -100 190 -50 49 -90 93 -90 97 0 5 79 8 175 8 l175 0 35 33 c44 39
55 89 31 139 -29 61 -53 68 -245 68 -94 0 -171 3 -171 8 0 4 40 48 90 97 100
99 118 134 100 190 -28 84 -121 111 -196 56z"/>
<path d="M1671 1595 c-39 -34 -56 -84 -42 -128 7 -19 49 -70 101 -122 50 -49
90 -93 90 -97 0 -5 -77 -8 -171 -8 -143 0 -176 -3 -200 -17 -31 -18 -59 -67
-59 -103 0 -36 28 -85 59 -103 24 -14 57 -17 200 -17 94 0 171 -3 171 -8 0 -4
-40 -48 -90 -97 -52 -52 -94 -103 -101 -122 -24 -73 37 -153 114 -153 23 0 48
4 55 9 7 4 109 104 227 221 149 147 216 221 220 241 15 65 0 86 -194 283 -102
104 -204 201 -225 217 -52 38 -112 40 -155 4z"/>
</g>
</svg>
