<?xml version="1.0" encoding="UTF-8"?>
<svg width="28px" height="28px" viewBox="0 0 28 28" version="1.1" xmlns="http://www.w3.org/2000/svg" xmlns:xlink="http://www.w3.org/1999/xlink">
    <title>icons/menu/Help</title>
    <defs>
        <polygon id="path-1" points="0 0.0277296552 26.9731862 0.0277296552 26.9731862 27.9999228 0 27.9999228"></polygon>
        <path d="M0.0341463415,3.54666667 C0.0341463415,3.93814815 0.385756098,4.25611111 0.818926829,4.25611111 L0.818926829,4.25611111 C1.25209756,4.25611111 1.60370732,3.93814815 1.60370732,3.54666667 L1.60370732,3.54666667 C1.60370732,2.37333333 2.66009756,1.4187037 3.95804878,1.4187037 L3.95804878,1.4187037 C5.256,1.4187037 6.31239024,2.37333333 6.31239024,3.54666667 L6.31239024,3.54666667 C6.31239024,4.23185185 5.96078049,4.85888889 5.34868293,5.26481481 L5.34868293,5.26481481 C3.96585366,6.17981481 3.17307317,7.4862963 3.17307317,8.84814815 L3.17307317,8.84814815 L3.17307317,9.22148148 C3.17307317,9.61296296 3.52468293,9.93074074 3.95804878,9.93074074 L3.95804878,9.93074074 C4.39121951,9.93074074 4.74282927,9.61296296 4.74282927,9.22148148 L4.74282927,9.22148148 L4.74282927,8.84814815 C4.74282927,7.60833333 5.70341463,6.78833333 6.27629268,6.40962963 L6.27629268,6.40962963 C7.28214634,5.7412963 7.88195122,4.67166667 7.88195122,3.54666667 L7.88195122,3.54666667 C7.88195122,1.59166667 6.12078049,0 3.95804878,0 L3.95804878,0 C1.79512195,0 0.0341463415,1.59166667 0.0341463415,3.54666667 L0.0341463415,3.54666667 Z" id="path-3"></path>
    </defs>
    <g id="icons/menu/Help" stroke="none" stroke-width="1" fill="none" fill-rule="evenodd">
        <g id="Group-9" transform="translate(1.000000, 0.000000)">
            <g id="Group-3">
                <mask id="mask-2" fill="white">
                    <use xlink:href="#path-1"></use>
                </mask>
                <g id="Clip-2"></g>
                <path d="M13.4865372,2.15186759 C7.17952345,2.15186759 2.04822,7.47321931 2.04822,14.0140193 C2.04822,20.5546262 7.17952345,25.8757848 13.4865372,25.8757848 C19.7937372,25.8757848 24.9250407,20.5546262 24.9250407,14.0140193 C24.9250407,7.47321931 19.7937372,2.15186759 13.4865372,2.15186759 M13.4865372,27.9999228 C6.04999241,27.9999228 -5.5862069e-05,21.7257986 -5.5862069e-05,14.0140193 C-5.5862069e-05,6.30185379 6.04999241,0.0277296552 13.4865372,0.0277296552 C20.9232683,0.0277296552 26.9733166,6.30185379 26.9733166,14.0140193 C26.9733166,21.7257986 20.9232683,27.9999228 13.4865372,27.9999228" id="Fill-1" fill="#4A4A4A" mask="url(#mask-2)"></path>
            </g>
            <g id="Group-6" transform="translate(10.000000, 7.000000)">
                <mask id="mask-4" fill="white">
                    <use xlink:href="#path-3"></use>
                </mask>
                <g id="Clip-5"></g>
                <polygon id="Fill-4" fill="#4A4A4A" mask="url(#mask-4)" points="-6.74790244 16.3674074 14.6638049 16.3674074 14.6638049 -6.43666667 -6.74790244 -6.43666667"></polygon>
            </g>
            <path d="M15,19.9999038 C15,19.4476951 14.552391,19 14.0000962,19 C13.4478014,19 13,19.4476951 13,19.9999038 C13,20.5523049 13.4478014,21 14.0000962,21 C14.552391,21 15,20.5523049 15,19.9999038" id="Fill-7" fill="#4A4A4A"></path>
        </g>
    </g>
</svg>