<?xml version="1.0" encoding="UTF-8"?>
<svg width="28px" height="28px" viewBox="0 0 28 28" version="1.1" xmlns="http://www.w3.org/2000/svg" xmlns:xlink="http://www.w3.org/1999/xlink">
    <title>icons/menu/home</title>
    <defs>
        <polygon id="path-1" points="0 0.0217368421 28.9959874 0.0217368421 28.9959874 13.9762854 0 13.9762854"></polygon>
    </defs>
    <g id="icons/menu/home" stroke="none" stroke-width="1" fill="none" fill-rule="evenodd">
        <g id="Group-8" transform="translate(0.000000, -0.500000)">
            <g id="Group-3" transform="translate(0.000000, 0.500000)">
                <mask id="mask-2" fill="white">
                    <use xlink:href="#path-1"></use>
                </mask>
                <g id="Clip-2"></g>
                <path d="M0.256877987,13.6401632 L0.256877987,13.6401632 C-0.113373585,13.2240316 -0.0794490566,12.5835316 0.332752201,12.2094 L13.1668025,0.564715789 C13.5251987,0.214163158 13.9968591,0.0216631579 14.4984314,0.0216631579 C15.0001862,0.0216631579 15.4716642,0.214163158 15.8300604,0.5649 L28.6631987,12.2086632 C29.0754,12.5826105 29.1093245,13.2231105 28.739073,13.6392421 C28.3688214,14.0555579 27.7346516,14.0898211 27.3226327,13.7158737 L15.1688969,2.68866316 C14.7875195,2.34271579 14.2093434,2.34271579 13.827966,2.68884737 L1.67368302,13.7167947 C1.26148176,14.0907421 0.62712956,14.0564789 0.256877987,13.6401632" id="Fill-1" fill="#4A4A4A" mask="url(#mask-2)"></path>
            </g>
            <path d="M22.964,25.475006 L19.468,25.475006 C18.909192,25.475006 18.456,25.0217755 18.456,24.4625089 L18.456,19.7682046 C18.456,18.1415821 17.138008,16.8227587 15.512,16.8227587 L13.488,16.8227587 C11.862176,16.8227587 10.544,18.1415821 10.544,19.7682046 L10.544,24.4625089 C10.544,25.0217755 10.090992,25.475006 9.532,25.475006 L6.036,25.475006 C5.477192,25.475006 5.024,25.0217755 5.024,24.4625089 L5.024,15.5146126 C5.024,14.6385265 3.98716,14.1759074 3.335616,14.7614989 C3.121992,14.9535051 3,15.2272475 3,15.5146126 L3,24.5545541 C3,26.1813607 4.318176,27.5 5.944,27.5 L9.624,27.5 C11.250008,27.5 12.568,26.1813607 12.568,24.5545541 L12.568,19.8602498 C12.568,19.3011673 13.021192,18.8477528 13.58,18.8477528 L15.42,18.8477528 C15.978992,18.8477528 16.432,19.3011673 16.432,19.8602498 L16.432,24.5545541 C16.432,26.1813607 17.750176,27.5 19.376,27.5 L23.056,27.5 C24.682008,27.5 26,26.1813607 26,24.5545541 L26,15.5146126 C26,15.2272475 25.878008,14.9535051 25.664384,14.7613148 C25.013024,14.1757234 23.976,14.6383424 23.976,15.5146126 L23.976,24.4625089 C23.976,25.0217755 23.522992,25.475006 22.964,25.475006" id="Fill-4" fill="#4A4A4A"></path>
            <path d="M25,1.5 L25,1.5 C24.4478182,1.5 24,1.9305846 24,2.46151656 L24,4.53664411 C24,4.80953999 24.1205455,5.0694991 24.3316364,5.2518376 C24.9754545,5.80794381 26,5.36861816 26,4.53664411 L26,2.46151656 C26,1.9305846 25.5523636,1.5 25,1.5" id="Fill-6" fill="#4A4A4A"></path>
        </g>
    </g>
</svg>