<?xml version="1.0" encoding="UTF-8"?>
<svg width="28px" height="28px" viewBox="0 0 28 28" version="1.1" xmlns="http://www.w3.org/2000/svg" xmlns:xlink="http://www.w3.org/1999/xlink">
    <title>icons/menu/Rules_of_the_Assembly</title>
    <defs>
        <polygon id="path-1" points="0 1.72839506e-05 27.8549531 1.72839506e-05 27.8549531 23.2433012 0 23.2433012"></polygon>
        <polygon id="path-3" points="0.0132222222 0.0624469136 11.6810988 0.0624469136 11.6810988 2.7654321 0.0132222222 2.7654321"></polygon>
    </defs>
    <g id="icons/menu/Rules_of_the_Assembly" stroke="none" stroke-width="1" fill="none" fill-rule="evenodd">
        <g id="Group-7" transform="translate(0.000000, 1.000000)">
            <g id="Group-3">
                <mask id="mask-2" fill="white">
                    <use xlink:href="#path-1"></use>
                </mask>
                <g id="Clip-2"></g>
                <path d="M20.4925086,16.8612025 L25.788484,16.8612025 C25.3978667,17.9459432 24.358237,18.723721 23.1404099,18.723721 C21.9225827,18.723721 20.8831259,17.9459432 20.4925086,16.8612025 Z M23.1404099,8.47502963 L25.2834469,14.5664123 L20.9973728,14.5664123 L23.1404099,8.47502963 Z M2.57129877,14.5664123 L4.71450864,8.47502963 L6.85754568,14.5664123 L2.57129877,14.5664123 Z M2.06643457,16.8612025 L7.36240988,16.8612025 C6.97161975,17.9459432 5.93216296,18.723721 4.71450864,18.723721 C3.49668148,18.723721 2.45722469,17.9459432 2.06643457,16.8612025 Z M27.6843605,15.2477457 L24.4472494,6.04611605 L25.5981877,6.04611605 L25.5981877,4.14488148 L16.1673728,4.14488148 C15.9435457,3.48515309 15.4462864,2.95056049 14.8092,2.68075802 L14.8092,-0.972270345 L12.9079654,-0.972270345 L12.9079654,2.68456049 C12.2748543,2.95557284 11.7805333,3.48809136 11.5577432,4.14488148 L2.19191605,4.14488148 L2.19191605,6.04611605 L3.40766914,6.04611605 L0.170558025,15.2477457 C0.148261728,15.3110049 0.134261728,15.3758198 0.124755556,15.4411531 C0.0457679012,15.5797704 -3.45679014e-05,15.7394741 -3.45679014e-05,15.9105852 C-3.45679014e-05,18.5100914 2.11500247,20.6249556 4.71450864,20.6249556 C7.31401481,20.6249556 9.42887901,18.5100914 9.42887901,15.9105852 C9.42887901,15.7394741 9.38307654,15.5797704 9.30408889,15.4411531 C9.29475556,15.3758198 9.28075556,15.3110049 9.25845926,15.2477457 L6.02117531,6.04611605 L11.7039654,6.04611605 C11.9635704,6.54372099 12.3891012,6.94159753 12.9079654,7.16352346 L12.9079654,21.230758 C12.0966568,21.572116 11.5058914,22.3333012 11.4106568,23.2433012 L16.3146321,23.2433012 C16.2190519,22.3301901 15.6246568,21.566758 14.8092,21.2271284 L14.8092,7.16749877 C15.3316938,6.94609136 15.7603358,6.54648642 16.0213235,6.04611605 L21.8335704,6.04611605 L18.5964593,15.2477457 C18.574163,15.3110049 18.560163,15.3758198 18.5506568,15.4411531 C18.4716691,15.5797704 18.4260395,15.7394741 18.4260395,15.9105852 C18.4260395,18.5100914 20.5409037,20.6249556 23.1404099,20.6249556 C25.7400889,20.6249556 27.8549531,18.5100914 27.8549531,15.9105852 C27.8549531,15.7394741 27.8091506,15.5794247 27.730163,15.4406346 C27.7206568,15.3756469 27.7066568,15.3108321 27.6843605,15.2477457 Z" id="Fill-1" fill="#4A4A4A" mask="url(#mask-2)"></path>
            </g>
            <g id="Group-6" transform="translate(7.950617, 24.024691)">
                <mask id="mask-4" fill="white">
                    <use xlink:href="#path-3"></use>
                </mask>
                <g id="Clip-5"></g>
                <path d="M9.54601235,0.0624469136 L2.1481358,0.0624469136 C1.00912346,0.0624469136 0.0806296296,1.64340988 0.0132222222,2.76548395 L11.6810988,2.76548395 C11.6135185,1.64340988 10.6848519,0.0624469136 9.54601235,0.0624469136" id="Fill-4" fill="#4A4A4A" mask="url(#mask-4)"></path>
            </g>
        </g>
    </g>
</svg>