<?xml version="1.0" encoding="UTF-8"?>
<svg width="28px" height="28px" viewBox="0 0 28 28" version="1.1" xmlns="http://www.w3.org/2000/svg" xmlns:xlink="http://www.w3.org/1999/xlink">
    <title>icons/menu/Search</title>
    <defs>
        <polygon id="path-1" points="0.613793103 0 27.6137931 0 27.6137931 28 0.613793103 28"></polygon>
    </defs>
    <g id="icons/menu/Search" stroke="none" stroke-width="1" fill="none" fill-rule="evenodd">
        <g id="Group-3" transform="translate(0.386207, 0.000000)">
            <mask id="mask-2" fill="white">
                <use xlink:href="#path-1"></use>
            </mask>
            <g id="Clip-2"></g>
            <path d="M2.7220451,11.5990859 C2.7220451,6.37582419 6.93490757,2.12649908 12.1133494,2.12649908 C17.2917913,2.12649908 21.5046538,6.37582419 21.5046538,11.5990859 C21.5046538,16.8223476 17.2917913,21.0716727 12.1133494,21.0716727 C6.93490757,21.0716727 2.7220451,16.8223476 2.7220451,11.5990859 M27.30503,26.1849364 L20.5977221,19.4195762 C22.4690833,17.3557122 23.6129058,14.6098219 23.6129058,11.5990859 C23.6129058,5.20334993 18.4542048,0 12.1133494,0 C5.77249408,0 0.613793103,5.20334993 0.613793103,11.5990859 C0.613793103,17.9948218 5.77249408,23.1981718 12.1133494,23.1981718 C14.7112909,23.1981718 17.109715,22.323794 19.037424,20.8526433 L25.8143042,27.6885645 C26.0201463,27.8961882 26.2900025,28 26.5596671,28 C26.8293317,28 27.099188,27.8961882 27.30503,27.6885645 C27.7167141,27.2733173 27.7167141,26.6001837 27.30503,26.1849364" id="Fill-1" fill="#4A4A4A" mask="url(#mask-2)"></path>
        </g>
    </g>
</svg>