<?xml version="1.0" encoding="UTF-8"?>
<svg width="45px" height="69px" viewBox="0 0 45 69" version="1.1" xmlns="http://www.w3.org/2000/svg" xmlns:xlink="http://www.w3.org/1999/xlink">
    <title>Group 6</title>
    <defs>
        <polygon id="path-1" points="0 0 45 0 45 43.7475164 0 43.7475164"></polygon>
    </defs>
    <g id="Landing-Page" stroke="none" stroke-width="1" fill="none" fill-rule="evenodd">
        <g id="Desktop" transform="translate(-120.000000, -34.000000)">
            <g id="Group-6" transform="translate(120.000000, 34.000000)">
                <g id="Group-3" transform="translate(0.000000, 25.252484)">
                    <mask id="mask-2" fill="white">
                        <use xlink:href="#path-1"></use>
                    </mask>
                    <g id="Clip-2"></g>
                    <path d="M43.3213032,9.83450517 L40.2614969,9.83450517 L4.29129831,9.83450517 L2.20757781,9.83450517 L2.20757781,8.94850163 L22.1359975,1.68427773 C22.1388971,1.68336401 22.1419492,1.68229801 22.1448488,1.68107971 C22.1526319,1.68397316 22.1605675,1.68686661 22.1685032,1.68960776 L43.3213032,8.95718197 L43.3213032,9.83450517 Z M40.8345429,12.0814942 L40.8345429,13.0075491 C40.8345429,13.3227824 40.5773971,13.5793854 40.2614969,13.5793854 L38.3515978,13.5793854 L35.0369347,13.5793854 L28.9696668,13.5793854 L25.6551563,13.5793854 L19.5878884,13.5793854 L16.273378,13.5793854 L10.1244643,13.5793854 L6.80995389,13.5793854 L4.29129831,13.5793854 C3.97539811,13.5793854 3.71825228,13.3227824 3.71825228,13.0075491 L3.71825228,12.0814942 C3.71825228,11.7662609 3.97539811,11.509658 4.29129831,11.509658 L40.2614969,11.509658 C40.5773971,11.509658 40.8345429,11.7662609 40.8345429,12.0814942 L40.8345429,12.0814942 Z M40.8345429,36.8298968 L40.8345429,37.7557995 C40.8345429,38.0710328 40.5773971,38.3276357 40.2614969,38.3276357 L4.29129831,38.3276357 C3.97539811,38.3276357 3.71825228,38.0710328 3.71825228,37.7557995 L3.71825228,36.8298968 C3.71825228,36.5145113 3.97539811,36.2580606 4.29129831,36.2580606 L6.80995389,36.2580606 L10.1244643,36.2580606 L16.273378,36.2580606 L19.5878884,36.2580606 L25.6551563,36.2580606 L28.9696668,36.2580606 L35.0369347,36.2580606 L38.3515978,36.2580606 L40.2614969,36.2580606 C40.5773971,36.2580606 40.8345429,36.5145113 40.8345429,36.8298968 L40.8345429,36.8298968 Z M42.8740069,40.5744725 L42.8740069,41.5005274 C42.8740069,41.815913 42.6170136,42.0723636 42.3009608,42.0723636 L2.25168175,42.0723636 C1.93578154,42.0723636 1.67863572,41.815913 1.67863572,41.5005274 L1.67863572,40.5744725 C1.67863572,40.2592392 1.93578154,40.0027885 2.25168175,40.0027885 L4.29129831,40.0027885 L40.2614969,40.0027885 L42.3009608,40.0027885 C42.6170136,40.0027885 42.8740069,40.2592392 42.8740069,40.5744725 L42.8740069,40.5744725 Z M6.26239353,34.0365034 C6.26239353,33.7351282 6.50794108,33.4900991 6.80995389,33.4900991 L10.1244643,33.4900991 C10.4264772,33.4900991 10.6720247,33.7351282 10.6720247,34.0365034 C10.6720247,34.3377264 10.4264772,34.5829078 10.1244643,34.5829078 L6.80995389,34.5829078 C6.50794108,34.5829078 6.26239353,34.3377264 6.26239353,34.0365034 L6.26239353,34.0365034 Z M10.6720247,15.8009425 C10.6720247,16.1021655 10.4264772,16.3473469 10.1244643,16.3473469 L6.80995389,16.3473469 C6.50794108,16.3473469 6.26239353,16.1021655 6.26239353,15.8009425 C6.26239353,15.4995673 6.50794108,15.2545381 6.80995389,15.2545381 L10.1244643,15.2545381 C10.4264772,15.2545381 10.6720247,15.4995673 10.6720247,15.8009425 L10.6720247,15.8009425 Z M7.30776379,31.7334729 L9.62650184,31.7334729 L9.62650184,18.0224997 L7.30776379,18.0224997 L7.30776379,31.7334729 Z M15.0924911,17.6807685 L15.0924911,32.1565252 C14.4657268,32.5500338 14.0471208,33.244613 14.0471208,34.0365034 C14.0471208,34.2253388 14.0733696,34.4076259 14.1180839,34.5829078 L12.2797584,34.5829078 C12.3244728,34.4076259 12.3507215,34.2253388 12.3507215,34.0365034 C12.3507215,33.244613 11.9321155,32.5500338 11.3051986,32.1565252 L11.3051986,17.6807685 C11.9321155,17.2872599 12.3507215,16.5928329 12.3507215,15.8009425 C12.3507215,15.6119548 12.3244728,15.4296678 12.2797584,15.2545381 L14.1180839,15.2545381 C14.0733696,15.4296678 14.0471208,15.6119548 14.0471208,15.8009425 C14.0471208,16.5928329 14.4657268,17.2872599 15.0924911,17.6807685 L15.0924911,17.6807685 Z M20.1354488,15.8009425 C20.1354488,16.1021655 19.8899012,16.3473469 19.5878884,16.3473469 L16.273378,16.3473469 C15.9713652,16.3473469 15.7258176,16.1021655 15.7258176,15.8009425 C15.7258176,15.4995673 15.9713652,15.2545381 16.273378,15.2545381 L19.5878884,15.2545381 C19.8899012,15.2545381 20.1354488,15.4995673 20.1354488,15.8009425 L20.1354488,15.8009425 Z M15.7258176,34.0365034 C15.7258176,33.7351282 15.9713652,33.4900991 16.273378,33.4900991 L19.5878884,33.4900991 C19.8899012,33.4900991 20.1354488,33.7351282 20.1354488,34.0365034 C20.1354488,34.3377264 19.8899012,34.5829078 19.5878884,34.5829078 L16.273378,34.5829078 C15.9713652,34.5829078 15.7258176,34.3377264 15.7258176,34.0365034 L15.7258176,34.0365034 Z M16.7713405,31.7334729 L19.0900785,31.7334729 L19.0900785,18.0224997 L16.7713405,18.0224997 L16.7713405,31.7334729 Z M24.4742695,17.6806162 L24.4742695,32.1565252 C23.8476578,32.5500338 23.4288992,33.244613 23.4288992,34.0365034 C23.4288992,34.2253388 23.4553005,34.4076259 23.4998623,34.5829078 L21.7431825,34.5829078 C21.7878968,34.4076259 21.8141455,34.2253388 21.8141455,34.0365034 C21.8141455,33.244613 21.3955396,32.5500338 20.7687753,32.1565252 L20.7687753,17.6807685 C21.3955396,17.2872599 21.8141455,16.5928329 21.8141455,15.8009425 C21.8141455,15.6119548 21.7878968,15.4296678 21.7431825,15.2545381 L23.4998623,15.2545381 C23.4553005,15.4296678 23.4288992,15.6119548 23.4288992,15.8009425 C23.4288992,16.5928329 23.8476578,17.2872599 24.4742695,17.6806162 L24.4742695,17.6806162 Z M29.5172272,15.8009425 C29.5172272,16.1021655 29.2716796,16.3473469 28.9696668,16.3473469 L25.6551563,16.3473469 C25.3532961,16.3473469 25.107596,16.1021655 25.107596,15.8009425 C25.107596,15.4995673 25.3532961,15.2545381 25.6551563,15.2545381 L28.9696668,15.2545381 C29.2716796,15.2545381 29.5172272,15.4995673 29.5172272,15.8009425 L29.5172272,15.8009425 Z M25.107596,34.0365034 C25.107596,33.7351282 25.3532961,33.4900991 25.6551563,33.4900991 L28.9696668,33.4900991 C29.2716796,33.4900991 29.5172272,33.7351282 29.5172272,34.0365034 C29.5172272,34.3377264 29.2716796,34.5829078 28.9696668,34.5829078 L25.6551563,34.5829078 C25.3532961,34.5829078 25.107596,34.3377264 25.107596,34.0365034 L25.107596,34.0365034 Z M26.1531188,31.7334729 L28.4718569,31.7334729 L28.4718569,18.0224997 L26.1531188,18.0224997 L26.1531188,31.7334729 Z M33.8562005,17.6807685 L33.8562005,32.1565252 C33.2294361,32.5500338 32.8106776,33.244613 32.8106776,34.0365034 C32.8106776,34.2253388 32.8370789,34.4076259 32.8816407,34.5829078 L31.1251134,34.5829078 C31.1696752,34.4076259 31.1959239,34.2253388 31.1959239,34.0365034 C31.1959239,33.244613 30.777318,32.5500338 30.1505537,32.1565252 L30.1505537,17.6807685 C30.777318,17.2872599 31.1959239,16.5928329 31.1959239,15.8009425 C31.1959239,15.6119548 31.1696752,15.4296678 31.1251134,15.2545381 L32.8816407,15.2545381 C32.8370789,15.4296678 32.8106776,15.6119548 32.8106776,15.8009425 C32.8106776,16.5928329 33.2294361,17.2872599 33.8562005,17.6807685 L33.8562005,17.6807685 Z M35.5348972,31.7334729 L37.8536353,31.7334729 L37.8536353,18.0224997 L35.5348972,18.0224997 L35.5348972,31.7334729 Z M34.4893744,34.0365034 C34.4893744,33.7351282 34.7350745,33.4900991 35.0369347,33.4900991 L38.3515978,33.4900991 C38.6536106,33.4900991 38.8991581,33.7351282 38.8991581,34.0365034 C38.8991581,34.3377264 38.6536106,34.5829078 38.3515978,34.5829078 L35.0369347,34.5829078 C34.7350745,34.5829078 34.4893744,34.3377264 34.4893744,34.0365034 L34.4893744,34.0365034 Z M38.8991581,15.8009425 C38.8991581,16.1021655 38.6536106,16.3473469 38.3515978,16.3473469 L35.0369347,16.3473469 C34.7350745,16.3473469 34.4893744,16.1021655 34.4893744,15.8009425 C34.4893744,15.4995673 34.7350745,15.2545381 35.0369347,15.2545381 L38.3515978,15.2545381 C38.6536106,15.2545381 38.8991581,15.4995673 38.8991581,15.8009425 L38.8991581,15.8009425 Z M45,9.91871967 L45,8.89504903 C45,8.25742497 44.6203093,7.68315214 44.0326128,7.43233608 C44.0139946,7.42426489 43.9949185,7.41695513 43.9756898,7.41040681 L22.7381918,0.113745856 C22.356212,-0.0391499076 21.9240239,-0.037779328 21.5428071,0.117096161 L1.53838823,7.40888394 C1.52419562,7.41406168 1.510003,7.41969629 1.4961156,7.42563547 C0.908571731,7.67660381 0.528881045,8.25087664 0.528881045,8.88850071 L0.528881045,9.91871967 C0.528881045,10.7936063 1.24034325,11.5056985 2.11647036,11.5092011 C2.06794076,11.6924019 2.03955552,11.8833693 2.03955552,12.0814942 L2.03955552,13.0075491 C2.03955552,14.246553 3.04967315,15.2545381 4.29129831,15.2545381 L4.65465986,15.2545381 C4.60994548,15.4296678 4.58369677,15.6119548 4.58369677,15.8009425 C4.58369677,16.5928329 5.00245531,17.2872599 5.62906702,17.6806162 L5.62906702,32.1565252 C5.00245531,32.5500338 4.58369677,33.244613 4.58369677,34.0365034 C4.58369677,34.2253388 4.60994548,34.4076259 4.65465986,34.5829078 L4.29129831,34.5829078 C3.04967315,34.5829078 2.03955552,35.5908929 2.03955552,36.8298968 L2.03955552,37.7557995 C2.03955552,37.9560564 2.06855119,38.1493081 2.11799644,38.3343363 C0.938788273,38.4039313 -6.10435186e-05,39.3806977 -6.10435186e-05,40.5744725 L-6.10435186e-05,41.5005274 C-6.10435186e-05,42.7395313 1.01020919,43.7475164 2.25168175,43.7475164 L42.3009608,43.7475164 C43.542586,43.7475164 44.5527036,42.7395313 44.5527036,41.5005274 L44.5527036,40.5744725 C44.5527036,39.3806977 43.6138543,38.4039313 42.4346461,38.3343363 C42.484244,38.1493081 42.5132397,37.9560564 42.5132397,37.7557995 L42.5132397,36.8298968 C42.5132397,35.6725186 41.6316186,34.7172246 40.5035344,34.5964613 C40.5502327,34.4170677 40.5778549,34.230212 40.5778549,34.0365034 C40.5778549,33.244613 40.159249,32.5500338 39.532332,32.1565252 L39.532332,17.6807685 C40.159249,17.2872599 40.5778549,16.5928329 40.5778549,15.8009425 C40.5778549,15.6072339 40.5502327,15.420226 40.5035344,15.2411369 C41.6316186,15.1200691 42.5132397,14.1649274 42.5132397,13.0075491 L42.5132397,12.0814942 C42.5132397,11.8836739 42.4848544,11.6925542 42.4364774,11.509658 L43.4056959,11.509658 C44.2847226,11.509658 45,10.7958906 45,9.91871967 L45,9.91871967 Z" id="Fill-1" fill="#262626" mask="url(#mask-2)"></path>
                </g>
                <path d="M22.6170967,17.5172249 L16.7256341,20.6264608 L22.6170967,5.26150261 L22.6170967,17.5172249 Z M32.2158848,24.8342923 L22.6934011,0 L13.1709174,24.8342923 L22.6934011,19.8088339 L32.2158848,24.8342923 Z" id="Fill-4" fill="#262626"></path>
            </g>
        </g>
    </g>
</svg>