<svg id="Layer_1" height="512" viewBox="0 0 512 512" width="512" xmlns="http://www.w3.org/2000/svg" data-name="Layer 1"><path d="m37.187 22h20a0 0 0 0 1 0 0v471a0 0 0 0 1 0 0h-20a10 10 0 0 1 -10-10v-451a10 10 0 0 1 10-10z" fill="#d4e1f4"/><g fill="#004682FF"><path d="m41.852 502 281.054-1.664-.071-12-281.018 1.664a14.732 14.732 0 0 1 -14.817-14.611v-438.779a14.731 14.731 0 0 1 14.817-14.61h306.237a14.731 14.731 0 0 1 14.817 14.61v159.99h12v-159.99a26.745 26.745 0 0 0 -26.817-26.61h-306.237a26.745 26.745 0 0 0 -26.817 26.61v438.779a26.752 26.752 0 0 0 26.852 26.611z"/><path d="m55.406 67.664h124.921a6 6 0 0 0 0-12h-124.921a6 6 0 1 0 0 12z"/><path d="m40.058 431.884a6 6 0 0 0 6 6h124.921a6 6 0 1 0 0-12h-124.921a6 6 0 0 0 -6 6z"/><path d="m310.017 101.942h-260.241a6 6 0 1 0 0 12h260.241a6 6 0 0 0 0-12z"/><path d="m310.017 148.219h-260.241a6 6 0 0 0 0 12h260.241a6 6 0 0 0 0-12z"/><path d="m310.017 194.5h-260.241a6 6 0 0 0 0 12h260.241a6 6 0 0 0 0-12z"/><path d="m310.017 240.775h-260.241a6 6 0 1 0 0 12h260.241a6 6 0 0 0 0-12z"/><path d="m316.017 293.052a6 6 0 0 0 -6-6h-260.241a6 6 0 0 0 0 12h260.241a6 6 0 0 0 6-6z"/><path d="m288.091 339.33a6 6 0 0 0 -6-6h-232.315a6 6 0 0 0 0 12h232.315a6 6 0 0 0 6-6z"/><path d="m90.494 381.942c2.57-5.572 2.538-10.883-.091-14.955-2.216-3.433-6.215-5.784-11.261-6.621-6.722-1.115-14.123.582-18.853 4.323-5.213 4.122-8.1 11.252-8.036 19.534l-.112-.048a6 6 0 0 0 -4.729 11.025 43.6 43.6 0 0 0 7.491 2.45c2.664 6.535 7.167 11.715 12.765 14.369a26.456 26.456 0 0 0 11.266 2.381 30.167 30.167 0 0 0 15.856-4.411 32.234 32.234 0 0 0 8.688-8.595c.394-.525.869-1.157 1.286-1.667a27.154 27.154 0 0 0 5.339 3.707 35.575 35.575 0 0 0 16.051 4.1 36.633 36.633 0 0 0 19.167-5.042 6 6 0 0 0 -6.041-10.368 24.544 24.544 0 0 1 -12.862 3.413 23.518 23.518 0 0 1 -10.638-2.67 16.128 16.128 0 0 1 -3.524-2.532 10.572 10.572 0 0 0 -7.146-3.253c-5.768-.153-8.923 4.04-11.229 7.113a21.219 21.219 0 0 1 -5.491 5.648c-4.433 2.794-11.277 3.385-15.581 1.345a11.62 11.62 0 0 1 -3.768-2.967 28.092 28.092 0 0 0 12.906-5.493 30.279 30.279 0 0 0 8.547-10.786zm-15.951 1.334a17.246 17.246 0 0 1 -10.143 3.388c-.6-5.467.73-10.509 3.328-12.562a12.268 12.268 0 0 1 7.216-2.075 13.7 13.7 0 0 1 2.231.178c2.111.35 3 1.066 3.142 1.29.639.983-1.305 6.279-5.774 9.781z"/></g><path d="m494.813 390.344a6 6 0 0 0 -5.252-1.192l-38.823 9.594-21.193-36.735a20.676 20.676 0 0 1 -1.265-15.387c.038-.124.072-.25.1-.377l17.27-72.387a93.75 93.75 0 0 0 -5.583-59.224 5.928 5.928 0 0 0 -.412-.77l-65.713-103.89a6 6 0 0 0 -10.142 6.415l65.475 103.509a81.665 81.665 0 0 1 4.7 51.189l-17.22 72.189a32.627 32.627 0 0 0 2.156 24.289c.049.1.1.193.155.287l19.549 33.884-79.857 19.735a53.26 53.26 0 0 0 -10.351-20.21l-10.219-12.438a73.47 73.47 0 0 1 -3.793-77.713l2.712-4.891a63.333 63.333 0 0 0 7.844-27.486l2.373-48.6a30.407 30.407 0 0 1 25.941-28.314l-3.281 34.479a207.954 207.954 0 0 0 -.069 38.54 6 6 0 1 0 11.95-1.094 195.905 195.905 0 0 1 .065-36.309l3.934-41.36a6 6 0 0 0 -5.681-6.561c-23.6-1.15-43.712 16.815-44.847 40.042l-2.373 48.6a51.284 51.284 0 0 1 -6.351 22.25l-2.712 4.892a85.4 85.4 0 0 0 4.557 90.561q.141.2.3.395l10.379 12.632a41.269 41.269 0 0 1 7.964 15.474l-22.811 5.638a6 6 0 0 0 -4.554 5.532l-2.857 58.516a6 6 0 0 0 5.993 6.293c.14 0 .282 0 .423-.016l163.843-11.584a6 6 0 0 0 5.57-5.692l4.286-87.775a6 6 0 0 0 -2.18-4.93zm-13.832 86.8-151.787 10.73 2.309-47.3 117.808-29.114.023-.006 35.28-8.719z" fill="#2f2f2f"/><path d="m442.22 441.2a17.485 17.485 0 0 0 4.673 12.81 17.926 17.926 0 0 0 12.376 5.758q.448.022.892.022a17.838 17.838 0 0 0 17.882-16.846 17.488 17.488 0 0 0 -4.672-12.809 17.981 17.981 0 0 0 -31.151 11.065zm23.838 1.159a5.829 5.829 0 0 1 -6.206 5.423 5.994 5.994 0 0 1 -4.145-1.915 5.575 5.575 0 0 1 -1.5-4.082 5.824 5.824 0 0 1 5.9-5.43c.1 0 .2 0 .3.007a6 6 0 0 1 4.145 1.916 5.583 5.583 0 0 1 1.506 4.085z" fill="#2f2f2f"/></svg>
