<?xml version="1.0" standalone="no"?>
<!DOCTYPE svg PUBLIC "-//W3C//DTD SVG 20010904//EN"
 "http://www.w3.org/TR/2001/REC-SVG-20010904/DTD/svg10.dtd">
<svg version="1.0" xmlns="http://www.w3.org/2000/svg"
 width="225.000000pt" height="225.000000pt" viewBox="0 0 225.000000 225.000000"
 preserveAspectRatio="xMidYMid meet">
<metadata>
Created by potrace 1.16, written by Peter Selinger 2001-2019
</metadata>
<g transform="translate(0.000000,225.000000) scale(0.100000,-0.100000)"
fill="#000000" stroke="none">
<path d="M1135 2151 c-48 -12 -92 -39 -114 -69 -40 -57 -46 -147 -13 -208 13
-25 78 -84 92 -84 6 0 10 -18 10 -40 l0 -40 -147 0 c-114 -1 -159 -5 -198 -18
-52 -18 -565 -358 -565 -374 0 -12 59 -98 67 -98 3 0 46 27 95 61 49 34 91 59
93 58 2 -2 -36 -103 -84 -224 l-88 -220 -62 -3 -63 -3 4 -92 c5 -111 26 -164
88 -224 164 -158 463 -164 634 -12 72 64 96 122 96 237 l0 92 -58 0 -58 0 -56
143 c-31 78 -82 207 -113 287 l-57 144 26 21 c54 43 138 88 179 96 23 4 93 8
155 9 l112 0 0 -665 0 -665 -200 0 c-187 0 -201 -1 -220 -20 -20 -20 -26 -56
-12 -76 21 -32 53 -34 500 -34 439 0 450 0 476 21 31 25 34 61 6 89 -19 19
-33 20 -220 20 l-200 0 0 665 0 665 113 0 c61 -1 131 -5 154 -9 49 -9 206
-108 199 -125 -10 -27 -151 -380 -185 -466 l-38 -95 -63 -3 -62 -3 4 -97 c5
-111 23 -157 88 -222 155 -155 472 -159 636 -8 71 65 94 122 94 236 l0 92 -55
0 c-44 0 -56 4 -65 19 -22 41 -171 424 -166 428 2 2 43 -23 92 -56 48 -34 91
-61 95 -61 8 0 72 100 67 104 -2 2 -46 32 -98 68 -314 214 -435 292 -477 304
-30 9 -95 14 -190 14 l-143 0 0 38 c0 34 5 42 37 63 81 52 107 161 60 250 -36
68 -127 108 -202 90z m-472 -926 c36 -88 79 -193 96 -234 17 -41 31 -80 31
-87 0 -11 -41 -14 -220 -14 -121 0 -220 3 -220 6 0 3 43 113 95 244 52 131 95
243 95 249 0 5 8 17 17 26 21 21 19 24 106 -190z m1223 -60 c53 -132 98 -248
101 -257 5 -17 -10 -18 -210 -18 -119 0 -218 4 -221 8 -3 5 42 125 100 268 57
142 104 261 104 263 0 3 7 -1 14 -9 8 -8 58 -123 112 -255z m-1033 -402 c11
-20 -17 -74 -57 -111 -57 -52 -107 -67 -231 -67 -90 0 -106 3 -158 28 -63 31
-103 76 -113 125 l-6 32 280 0 c155 0 283 -3 285 -7z m1207 -2 c0 -25 -25 -70
-58 -104 -27 -28 -55 -43 -105 -59 -178 -54 -378 16 -403 140 l-6 32 286 0
c171 0 286 -4 286 -9z"/>
</g>
</svg>
