<svg id="Layer_1" height="512" viewBox="0 0 512 512" width="512" xmlns="http://www.w3.org/2000/svg" data-name="Layer 1"><g fill="#d4e1f4"><path d="m65.254 350.849c0-13.974 9.439-25.844 22.454-29.943a33.229 33.229 0 0 0 -10-1.536c-17.895 0-32.454 14.121-32.454 31.479s14.559 31.48 32.454 31.48a33.229 33.229 0 0 0 10-1.536c-13.015-4.1-22.454-15.97-22.454-29.944z"/><path d="m83.486 418h-20a43.535 43.535 0 0 0 -43.486 43.489v28.511h20v-28.511a43.535 43.535 0 0 1 43.486-43.489z"/><path d="m243.546 350.849c0-13.974 9.438-25.844 22.454-29.943a33.229 33.229 0 0 0 -10-1.536c-17.9 0-32.454 14.121-32.454 31.479s14.559 31.48 32.454 31.48a33.229 33.229 0 0 0 10-1.536c-13.016-4.1-22.454-15.97-22.454-29.944z"/><path d="m421.838 350.849c0-13.974 9.438-25.844 22.454-29.943a33.229 33.229 0 0 0 -10-1.536c-17.895 0-32.454 14.121-32.454 31.479s14.559 31.48 32.454 31.48a33.229 33.229 0 0 0 10-1.536c-13.016-4.1-22.454-15.97-22.454-29.944z"/><path d="m261.777 418h-20a43.534 43.534 0 0 0 -43.485 43.485v28.515h20v-28.511a43.534 43.534 0 0 1 43.485-43.489z"/><path d="m440.069 418h-20a43.535 43.535 0 0 0 -43.486 43.485v28.515h20v-28.511a43.535 43.535 0 0 1 43.486-43.489z"/></g><path d="m147.416 496v-34.511a55.548 55.548 0 0 0 -55.485-55.489h-28.445a55.549 55.549 0 0 0 -55.486 55.489v34.511a6 6 0 0 0 6 6h127.416a6 6 0 0 0 6-6zm-12-6h-115.416v-28.511a43.535 43.535 0 0 1 43.486-43.489h28.445a43.534 43.534 0 0 1 43.485 43.485z" fill="#004682FF"/><path d="m448.514 406h-28.445a55.549 55.549 0 0 0 -55.486 55.485v34.515a6 6 0 0 0 6 6h127.417a6 6 0 0 0 6-6v-34.511a55.549 55.549 0 0 0 -55.486-55.489zm43.486 84h-115.417v-28.511a43.535 43.535 0 0 1 43.486-43.489h28.445a43.535 43.535 0 0 1 43.486 43.489z" fill="#004682FF"/><path d="m241.777 406a55.548 55.548 0 0 0 -55.485 55.485v34.515a6 6 0 0 0 6 6h127.416a6 6 0 0 0 6-6v-34.511a55.548 55.548 0 0 0 -55.485-55.489zm71.931 55.485v28.515h-115.416v-28.511a43.534 43.534 0 0 1 43.485-43.489h28.446a43.534 43.534 0 0 1 43.485 43.489z" fill="#004682FF"/><path d="m262 208.341h-12v57.23h-151.248a27 27 0 0 0 -27.044 26.9v15.308c-21.683 2.875-38.454 21.089-38.454 43.072 0 23.975 19.942 43.48 44.454 43.48s44.454-19.5 44.454-43.48c0-21.983-16.771-40.2-38.454-43.072v-15.31a14.989 14.989 0 0 1 15.044-14.9h151.248v30.206c-21.683 2.875-38.454 21.089-38.454 43.072 0 23.975 19.942 43.48 44.454 43.48s44.454-19.5 44.454-43.48c0-21.983-16.771-40.2-38.454-43.072v-30.204h151.248a14.989 14.989 0 0 1 15.044 14.9v15.308c-21.683 2.875-38.454 21.089-38.454 43.072 0 23.975 19.942 43.48 44.454 43.48s44.454-19.5 44.454-43.48c0-21.983-16.771-40.2-38.454-43.072v-15.31a27 27 0 0 0 -27.044-26.9h-151.248zm-151.838 142.508c0 17.358-14.559 31.48-32.454 31.48s-32.454-14.122-32.454-31.48 14.559-31.479 32.454-31.479 32.454 14.121 32.454 31.479zm178.292 0c0 17.358-14.559 31.48-32.454 31.48s-32.454-14.122-32.454-31.48 14.559-31.479 32.454-31.479 32.454 14.121 32.454 31.479zm178.292 0c0 17.358-14.559 31.48-32.454 31.48s-32.454-14.122-32.454-31.48 14.562-31.479 32.454-31.479 32.454 14.121 32.454 31.479z" fill="#004682FF"/><path d="m256 60.43a51.608 51.608 0 1 0 51.926 51.608 51.826 51.826 0 0 0 -51.926-51.608zm0 91.215a39.609 39.609 0 1 1 39.926-39.607 39.812 39.812 0 0 1 -39.926 39.607z" fill="#2f2f2f"/><path d="m308.914 193.317a7.718 7.718 0 0 0 10.845 0l17.893-17.77a7.67 7.67 0 0 0 0-10.888l-7.182-7.132a85.54 85.54 0 0 0 10.52-25.112h10.161a7.694 7.694 0 0 0 7.691-7.679v-25.129a7.694 7.694 0 0 0 -7.691-7.679h-10.1a85.53 85.53 0 0 0 -10.48-25.213l7.08-7.032a7.67 7.67 0 0 0 0-10.888l-17.891-17.768a7.715 7.715 0 0 0 -10.847 0l-7.094 7.044a86.7 86.7 0 0 0 -25.476-10.513v-9.879a7.694 7.694 0 0 0 -7.691-7.679h-25.3a7.694 7.694 0 0 0 -7.691 7.679v9.878a86.713 86.713 0 0 0 -25.48 10.513l-7.093-7.043a7.715 7.715 0 0 0 -10.847 0l-17.893 17.773a7.671 7.671 0 0 0 0 10.889l7.08 7.031a85.5 85.5 0 0 0 -10.48 25.213h-10.1a7.694 7.694 0 0 0 -7.691 7.679v25.128a7.694 7.694 0 0 0 7.691 7.679h10.162a85.529 85.529 0 0 0 10.52 25.112l-7.181 7.131a7.671 7.671 0 0 0 0 10.89l17.894 17.77a7.718 7.718 0 0 0 10.845 0l7.26-7.21a86.7 86.7 0 0 0 25.31 10.412v10.145a7.693 7.693 0 0 0 7.691 7.678h25.3a7.693 7.693 0 0 0 7.691-7.678v-10.151a86.681 86.681 0 0 0 25.31-10.412zm-38.343-7.829a7.7 7.7 0 0 0 -6.228 7.532v9.321h-16.686v-9.321a7.7 7.7 0 0 0 -6.23-7.533 74.929 74.929 0 0 1 -27.394-11.26 7.722 7.722 0 0 0 -9.693.933l-6.676 6.63-11.764-11.69 6.59-6.545a7.68 7.68 0 0 0 .933-9.755 73.767 73.767 0 0 1 -11.4-27.2 7.706 7.706 0 0 0 -7.538-6.193h-9.321v-16.479h9.27a7.7 7.7 0 0 0 7.543-6.217 73.753 73.753 0 0 1 11.35-27.294 7.681 7.681 0 0 0 -.943-9.741l-6.484-6.437 11.768-11.687 6.515 6.471a7.72 7.72 0 0 0 9.708.923 74.928 74.928 0 0 1 27.539-11.358 7.694 7.694 0 0 0 6.231-7.532v-9.056h16.686v9.056a7.694 7.694 0 0 0 6.229 7.532 74.923 74.923 0 0 1 27.541 11.358 7.721 7.721 0 0 0 9.708-.924l6.515-6.47 11.76 11.687-6.484 6.439a7.682 7.682 0 0 0 -.941 9.739 73.746 73.746 0 0 1 11.35 27.294 7.7 7.7 0 0 0 7.543 6.217h9.27v16.486h-9.321a7.706 7.706 0 0 0 -7.538 6.193 73.776 73.776 0 0 1 -11.4 27.2 7.679 7.679 0 0 0 .935 9.754l6.586 6.539-11.764 11.69-6.675-6.63a7.724 7.724 0 0 0 -9.694-.934 74.928 74.928 0 0 1 -27.396 11.262z" fill="#2f2f2f"/></svg>
