<svg id="Layer_1" height="512" viewBox="0 0 512 512" width="512" xmlns="http://www.w3.org/2000/svg" data-name="Layer 1"><path d="m10 310h26v162h-26z" fill="#d4e1f4"/><path d="m471.405 129h-.405v-81.6a22.353 22.353 0 0 0 -22.5-22.4h-2.375a22.567 22.567 0 0 0 -21.584 15.729l-138.932 71a27.5 27.5 0 0 0 -54.58 4.271h-44.772a36.236 36.236 0 0 0 -36.257 35.971v28.147c0 17.936 13 32.846 31 35.557v40.325h-10.372c-3.313 0-5.628 2.966-5.628 6.279v69.721h12v-64h51v67h12v-72.721a6.13 6.13 0 0 0 -5.862-6.279h-10.138v-40h7.029a27.506 27.506 0 0 0 54.583 4.382l138.932 70.918a22.541 22.541 0 0 0 21.584 15.7h2.372a22.279 22.279 0 0 0 22.5-22.316v-81.684h.4a37 37 0 0 0 0-74zm-259.405 127h-19v-40h19zm19-52h-44.743a24.148 24.148 0 0 1 -24.257-23.882v-28.147a24.223 24.223 0 0 1 24.257-23.971h44.743zm43 11.62a15.5 15.5 0 1 1 -31 0v-99.151a15.5 15.5 0 1 1 31 0zm150 61.839-107-54.472v-63.987a6 6 0 0 0 -12 0v57.849l-19-9.7v-82.212l138-70.308zm36 7.916a10.625 10.625 0 0 1 -10.625 10.625h-2.75a10.625 10.625 0 0 1 -10.625-10.625v-237.75a10.625 10.625 0 0 1 10.625-10.625h2.75a10.625 10.625 0 0 1 10.625 10.625zm11.405-94.375h-.405v-50h.4a25 25 0 0 1 0 50z" fill="#2f2f2f"/><path d="m311 147a6 6 0 0 0 6-6v-8a6 6 0 0 0 -12 0v8a6 6 0 0 0 6 6z" fill="#2f2f2f"/><path d="m269.056 388.249a25.267 25.267 0 0 0 -8.326-18.756 23.534 23.534 0 0 0 -14.99-41.493h-66.876a8.083 8.083 0 0 1 -8.24-7.162 5.915 5.915 0 0 0 -6.615-5.2 5.842 5.842 0 0 0 -5.314 6.445 20.112 20.112 0 0 0 20.169 17.917h66.876a11.5 11.5 0 0 1 0 23h-38.528a6 6 0 0 0 0 12h36.758a13 13 0 1 1 0 26h-28.309a6 6 0 1 0 .015 12h28.87a12.5 12.5 0 1 1 0 25h-29.137a6 6 0 0 0 0 12h20.691a12.5 12.5 0 0 1 0 25h-53.931c-18.5 0-36.344-.654-51.217-9.881-.611-.378-1.224-.8-1.841-1.161a108.472 108.472 0 0 0 -55.365-14.958h-9.746v-112h3.167a52.834 52.834 0 0 0 48.139-30.567c3.059-6.592 8-13.433 21.445-13.433h28.249v-12h-28.249c-15.422 0-26 6.762-32.331 20.409a41.27 41.27 0 0 1 -37.253 23.591h-3.167v-15.07a5.839 5.839 0 0 0 -5.879-5.93h-48.249a5.833 5.833 0 0 0 -5.872 5.93v162.215a5.77 5.77 0 0 0 5.872 5.855h48.249a5.776 5.776 0 0 0 5.879-5.855v-11.145h9.746a96.518 96.518 0 0 1 49.241 13.333c.55.326 1.1.6 1.639.934 17.557 10.892 37.238 11.733 57.543 11.733h53.931a24.288 24.288 0 0 0 19.288-39.232 24.443 24.443 0 0 0 5.015-40.6 25.017 25.017 0 0 0 8.653-18.919zm-217.056 77.751h-36v-150h36z" fill="#004682FF"/></svg>
