<svg height="493pt" viewBox="0 -87 493.72477 493" width="493pt" xmlns="http://www.w3.org/2000/svg"><path d="m432.585938 13.453125c-15.59375 16.484375-26.984376 36.492187-33.191407 58.320313-3.902343 13.898437-5.703125 28.507812-9.042969 42.527343-2.148437 9.050781-4.949218 17.851563-9.367187 26.050781-27.058594 50.226563-91.421875 57.101563-135.050781 29.753907 1.582031 2.589843 3.296875 5.089843 5.140625 7.5 38.828125 50.8125 126.988281 53.859375 159.910156-7.25 4.417969-8.199219 7.21875-17 9.367187-26.046875 3.339844-14.023438 5.140626-28.632813 9.042969-42.53125 8.820313-31 27.996094-58.039063 54.328125-76.621094-16.683594-5.339844-33.789062-9.253906-51.136718-11.703125zm0 0" fill="#d4e1f4"/><path d="m104.753906 213.59375c-3.761718-5.917969-6.734375-12.300781-8.839844-18.992188-3.480468-10.328124-5.839843-21.21875-9.730468-31.417968-7.214844-18.691406-19.542969-34.976563-35.578125-46.996094-13.898438 3.09375-27.488281 7.445312-40.597657 13 21.113282 12.1875 37.410157 31.242188 46.179688 53.988281 3.890625 10.203125 6.25 21.09375 9.730469 31.421875 2.105469 6.6875 5.078125 13.074219 8.839843 18.988282 26.515626 40.042968 84.167969 36.46875 113.53125 4.238281-29.199218 10.816406-64.441406 4.601562-83.535156-24.230469zm0 0" fill="#d4e1f4"/><path d="m486.78125 15.632812c-42.574219-13.589843-87.503906-18.183593-131.941406-13.484374-48.78125 5.226562-86.480469 22.667968-109.023438 50.441406-25.855468 32.746094-30.796875 77.367187-12.726562 114.976562 1.917968 3.835938 4.078125 7.546875 6.476562 11.101563-8.265625 18.371093-14.84375 37.453125-19.65625 57.011719-3.371094-4.125-6.871094-8.15625-10.5-12.089844.5-1.128906.988282-2.265625 1.433594-3.414063 11.609375-29.871093 4.378906-65.367187-17.992188-88.335937-19.34375-19.839844-49.53125-30.644532-87.300781-31.253906-34.136719-.5-68.007812 6.109374-99.457031 19.398437-3.496094 1.484375-5.851562 4.820313-6.0742188 8.613281-.2265622 3.789063 1.7148438 7.382813 5.0117188 9.269532 19.074219 11.078124 33.816406 28.3125 41.804688 48.871093 2.078124 5.453125 3.703124 11.15625 5.417968 17.195313 1.289063 4.535156 2.621094 9.226562 4.175782 13.847656 2.371093 7.515625 5.730468 14.6875 9.984374 21.324219 14.257813 21.535156 37.550782 33.703125 64.257813 33.703125 1.027344 0 2.0625-.019532 3.101563-.058594 25.632812-.898438 49.375-12.648438 64.699218-31.421875 6.644532 7.542969 12.824219 15.480469 18.503906 23.773437 20.238282 29.617188 26.332032 53.039063 26.386719 53.273438l19.398438-4.855469c-.257813-1.046875-6.414063-25.140625-27.011719-56.324219 3.9375-21.066406 10.042969-41.667968 18.21875-61.480468 20.257812 19.199218 48.25 30.25 77.328125 30.25 3.015625 0 6.039063-.121094 9.074219-.359375 34.648437-2.75 63.589844-21.164063 79.398437-50.515625 4.308594-7.988282 7.578125-17.039063 10.300781-28.484375 1.472657-6.1875 2.65625-12.476563 3.800782-18.554688 1.550781-8.234375 3.011718-16.011719 5.136718-23.582031 8.261719-28.746094 26.054688-53.828125 50.457032-71.128906 3.109375-2.179688 4.714844-5.933594 4.148437-9.6875-.570312-3.753906-3.214843-6.863282-6.832031-8.023438zm-353.703125 237.144532c-.785156.027344-1.566406.039062-2.347656.039062-19.898438 0-37.171875-8.933594-47.636719-24.742187-3.285156-5.191407-5.875-10.789063-7.703125-16.65625v-.007813c-1.398437-4.167968-2.613281-8.425781-3.894531-12.9375-1.757813-6.1875-3.574219-12.585937-5.96875-18.859375-7.117188-18.585937-18.898438-35.03125-34.207032-47.75 23.839844-7.832031 48.820313-11.644531 73.914063-11.28125 22.574219.363281 53.617187 5.035157 73.300781 25.21875 15.515625 15.9375 21.46875 40.828125 15.328125 62.1875-29.351562-27.257812-65.070312-48.898437-106.417969-64.378906l-7.019531 18.730469c40.917969 15.324218 75.898438 36.949218 104.097657 64.34375-11.585938 15.355468-31.011719 25.378906-51.445313 26.09375zm286.683594-153.707032c-2.359375 8.417969-3.972657 16.996094-5.535157 25.289063-1.152343 6.121094-2.238281 11.898437-3.601562 17.625v.007813c-2.296875 9.699218-4.988281 17.207031-8.445312 23.617187-12.527344 23.257813-35.628907 37.863281-63.375 40.066406-2.519532.199219-5.035157.300781-7.539063.300781-26.402344 0-51.640625-10.972656-68.371094-29.765624 12.542969-24.949219 27.945313-46.175782 45.835938-63.15625 23.785156-22.726563 53.445312-38.347657 85.640625-45.101563l-4.191406-19.554687c-72.675782 15.578124-115.476563 64.824218-139.867188 108.816406-13.804688-29.277344-9.367188-66.878906 11.035156-92.015625 24.1875-29.800781 65.351563-39.917969 95.625-43.160157 10.515625-1.125 21.082032-1.6875 31.65625-1.6875 24.890625.003907 49.6875 3.066407 73.832032 9.125-20.386719 18.808594-35.164063 42.898438-42.699219 69.59375zm0 0" fill="#004682FF"/></svg>
