<svg id="Layer_1" height="512" viewBox="0 0 512 512" width="512" xmlns="http://www.w3.org/2000/svg" data-name="Layer 1"><path d="m197.275 209.924a78.832 78.832 0 0 1 68.73-78.074 78.731 78.731 0 1 0 0 156.148 78.832 78.832 0 0 1 -68.73-78.074z" fill="#d4e1f4"/><path d="m465.585 255.4a9.388 9.388 0 0 0 -6-7.442q-.252-.094-.511-.165l-112.6-30.944q.26-3.427.262-6.923a90.892 90.892 0 0 0 -68.388-87.945l-5.213-33.946h33.7a6 6 0 0 0 0-12h-35.542l-9.357-60.944a6 6 0 0 0 -11.861 0l-9.357 60.944h-35.556a6 6 0 0 0 0 12h33.713l-5.212 33.946a90.892 90.892 0 0 0 -68.388 87.945q0 3.379.247 6.7l-112.609 31.164q-.259.072-.511.167a9.389 9.389 0 0 0 -2.353 16.282l12.054 9.1a9.409 9.409 0 0 0 7.058 1.791l35.448-3.541v3.242a18.709 18.709 0 1 0 12 0v-4.441l66.408-6.634a90.639 90.639 0 0 0 145.81.228l66.489 6.5v4.347a18.71 18.71 0 1 0 12 0v-3.173l35.552 3.476a9.423 9.423 0 0 0 7.037-1.8l12.047-9.095a9.39 9.39 0 0 0 3.633-8.839zm-214.049-170.757a5.806 5.806 0 0 0 .534-3.478l3.935-25.629 3.936 25.63a5.907 5.907 0 0 0 -.07.867 5.976 5.976 0 0 0 .6 2.61l5.388 35.087a90.725 90.725 0 0 0 -19.713 0zm-134.218 207.893a6.71 6.71 0 1 1 -9.982-5.851 5.979 5.979 0 0 0 6.545 0 6.711 6.711 0 0 1 3.437 5.851zm-48.818-29.4-6.988-5.276 105.7-29.254a90.075 90.075 0 0 0 8.646 23.806zm187.5 25.519a78.731 78.731 0 1 1 78.731-78.731 78.82 78.82 0 0 1 -78.726 78.731zm152.021 3.881a6.71 6.71 0 1 1 -9.982-5.851 5.979 5.979 0 0 0 6.545 0 6.711 6.711 0 0 1 3.442 5.851zm35.475-29.4-107.46-10.505a90.066 90.066 0 0 0 8.715-23.812l105.723 29.054z" fill="#2f2f2f"/><path d="m216.108 319.65a18.71 18.71 0 1 0 18.709-18.71 18.731 18.731 0 0 0 -18.709 18.71zm25.419 0a6.71 6.71 0 1 1 -6.71-6.71 6.717 6.717 0 0 1 6.71 6.71z" fill="#2f2f2f"/><path d="m258.473 319.65a18.71 18.71 0 1 0 18.71-18.71 18.731 18.731 0 0 0 -18.71 18.71zm25.419 0a6.71 6.71 0 1 1 -6.709-6.71 6.717 6.717 0 0 1 6.709 6.71z" fill="#2f2f2f"/><g fill="#004682FF"><path d="m207.348 209.632a142.587 142.587 0 0 0 97.3 0 6 6 0 0 0 3.95-5.638v-34.3a6 6 0 0 0 -8.051-5.638 130.575 130.575 0 0 1 -89.1 0 6 6 0 0 0 -8.051 5.638v34.3a6 6 0 0 0 3.952 5.638zm8.05-31.643a142.684 142.684 0 0 0 81.2 0v21.73a130.6 130.6 0 0 1 -81.2 0z"/><path d="m294.053 348.055a6 6 0 0 0 -2.683 8.049l71.289 142.579a6 6 0 1 0 10.733-5.366l-71.292-142.579a6 6 0 0 0 -8.047-2.683z"/><path d="m141.291 501.367a6 6 0 0 0 8.05-2.684l71.289-142.583a6 6 0 0 0 -10.733-5.366l-71.289 142.583a6 6 0 0 0 2.683 8.05z"/><path d="m262.005 363.309a6 6 0 0 0 -12 0v33.033a6 6 0 0 0 12 0z"/><path d="m256.005 422.19a6 6 0 0 0 -6 6v67.81a6 6 0 0 0 12 0v-67.81a6 6 0 0 0 -6-6z"/></g></svg>
