<?xml version="1.0"?>
<svg xmlns="http://www.w3.org/2000/svg" id="Layer_1" data-name="Layer 1" viewBox="0 0 512 512" width="512" height="512"><title>Business Achievement</title><polygon points="328.188 368.732 318.186 361.599 282.451 387.094 237.033 491 257.033 491 302.451 387.094 328.188 368.732" style="fill:#d4e1f4"/><path d="M319.385,348.39l8.8-20.145-10-22.89-26.37,60.359L314.7,349.371A5.981,5.981,0,0,1,319.385,348.39Z" style="fill:#d4e1f4"/><polygon points="334 203 334 161 324 161 324 213 378 213 378 203 334 203" style="fill:#d4e1f4"/><path d="M389.853,220a6.463,6.463,0,0,1-6.078,5H359v5h64.166l-6.413-10Z" style="fill:#d4e1f4"/><path d="M393.775,215A6.44,6.44,0,0,0,400,208.721V179H390v36Z" style="fill:#d4e1f4"/><path d="M441.378,169.231A6.09,6.09,0,0,0,436.105,166H392V153.638c0-3.314-3.016-5.638-6.329-5.638H320.057A5.751,5.751,0,0,0,314,153.638V288.179l-39.352,90.138-.073.063.045.053L224.257,493.717a5.884,5.884,0,0,0,.48,5.628A5.946,5.946,0,0,0,229.759,502H410.4a5.921,5.921,0,0,0,5.5-8.313L365.535,378.418l.038-.046-.117-.059L326,288.068V224h23v10.6a6.63,6.63,0,0,0,6.312,6.4h80.793a6.251,6.251,0,0,0,5.034-9.569l-18.122-27.987,18.123-28.01A6.136,6.136,0,0,0,441.378,169.231ZM238.928,490l45.419-103.9,35.734-25.492,35.733,25.477L401.233,490Zm84.64-141.62a6,6,0,0,0-6.974,0l-22.882,16.342,26.369-60.358,26.369,60.358ZM326,160h54v52H326Zm84.831,40.033a6.433,6.433,0,0,0,0,6.781L425.062,229H361v-5h24.671A6.525,6.525,0,0,0,392,217.729V178h33.062Z" style="fill:#004682FF"/><path d="M277.945,61,206.751,132.24a12.65,12.65,0,0,1-8.968,3.76h-1.2a46.291,46.291,0,0,0,1.4-14.876L197,107.185v-13.6a16.051,16.051,0,0,0,9.033-14.046,15.623,15.623,0,0,0-.43-3.688,13.131,13.131,0,0,0-8.177-9.172l.579-8.357a45.172,45.172,0,0,0-9.658-31.246c-3.839-4.855-9.037-9.024-15.889-12.744-18.954-10.288-39.475.1-45.019,3.342a6,6,0,0,0-1.088.62,45.118,45.118,0,0,0-18.865,40.027l.577,8.387a13.077,13.077,0,0,0-8.209,9.145,15.787,15.787,0,0,0-.661,3.686A15.846,15.846,0,0,0,108,93.6v13.639l-.736,13.844a45.142,45.142,0,0,0,4.013,21.789L90.612,149.13a5.666,5.666,0,0,0-.811.324,34.7,34.7,0,0,0-19.844,28.07c-.016.175.043.35.043.525V318.862c0,12.45,10.464,22.579,23.391,22.579a30.009,30.009,0,0,0,6.834-.842l5.725,140.547c0,.125.007.18.02.3A20.5,20.5,0,0,0,126.363,500h53.912a20.507,20.507,0,0,0,20.4-18.551c.014-.139.024-.245.029-.386l9.7-296.3,95.66-95.652A19.884,19.884,0,1,0,277.945,61ZM172,136v-6.648a50.567,50.567,0,0,0,13.68-12.143l.339,4.74A34.942,34.942,0,0,1,183.982,136ZM146,282V183.419a25.9,25.9,0,0,0,7.521,1.024,27.211,27.211,0,0,0,6.479-.758V282Zm6.872-147.184a31.211,31.211,0,0,0,7.128-.772v16.083c-5,1.828-10,1.671-14-.458V134.093A31.532,31.532,0,0,0,152.872,134.816ZM146,162.388a25.945,25.945,0,0,0,7.529,1.025,27.26,27.26,0,0,0,6.471-.756v8.5c-5,1.828-10,1.669-14-.459ZM134,177l-5.5-8.768,5.5-6.8Zm-.586,11.489c.149-.078.586-.165.586-.255v43.011L126.213,192.3Zm38.586-3.2c0,.435.958.809,1.512,1.1l7.247,3.8L172,233.432Zm0-8.562V160.136l6.356,7.854ZM190.1,77.9a6.006,6.006,0,0,0,.959.1h.27a6.072,6.072,0,0,0,1.115-.124c.008,0,1.259-.217,1.518.837A3.461,3.461,0,0,1,190.584,83h-.642a6.007,6.007,0,0,0-6,5.812c-.521,16.048-13.974,34-31.2,34s-30.677-17.954-31.2-34a6.006,6.006,0,0,0-6-5.811h-.668a3.471,3.471,0,0,1-3.473-3.466,3.434,3.434,0,0,1,.1-.829,1.137,1.137,0,0,1,1.22-.822,2.289,2.289,0,0,1,.3.017,5.98,5.98,0,0,0,1.117.1h.3a5.969,5.969,0,0,0,5.77-4.371c3.967-12.471,11.273-19.017,17.724-22.458,6.616,5.808,16.167,9.092,31.252,10.4C171.68,67.166,177.629,76.433,190.1,77.9ZM166.733,24.882c5.4,2.93,9.389,6.083,12.2,9.64a33.2,33.2,0,0,1,7.1,22.977l-.429,6.208a18.092,18.092,0,0,1-6.3-9.283,6,6,0,0,0-5.458-4.551c-26.885-1.647-32.146-8.6-36.836-23.734C143.221,23.231,155.76,18.926,166.733,24.882ZM127.039,33.9a60.07,60.07,0,0,0,3.432,7.682,45.664,45.664,0,0,0-10.742,8.769A33.026,33.026,0,0,1,127.039,33.9Zm-7.586,88,.479-4.7c3.862,5.028,8.068,9.25,14.068,12.3v6.624l-10.839,3.23A33.242,33.242,0,0,1,119.453,121.9ZM94.648,160.479l32.317-9.777-10.792,13.319a6,6,0,0,0-.424,6.964l6.2,9.881-5.5,2.875a5.938,5.938,0,0,0-3.108,6.437L131.521,282h-21.7l-3.291-80.551a5.96,5.96,0,0,0-6.24-5.727,6.228,6.228,0,0,0-5.75,6.49L98.439,298H82V178.328A23.228,23.228,0,0,1,94.648,160.479ZM93.391,329.441C87.081,329.441,82,324.7,82,318.862V310H98.929l.788,18.418A17.42,17.42,0,0,1,93.391,329.441Zm24.527,150.892L110.309,294H147V488H126.363A8.572,8.572,0,0,1,117.918,480.333ZM180.275,488H159V294h35.822l-6.1,186.354A8.572,8.572,0,0,1,180.275,488Zm19.973-310.024a5.89,5.89,0,0,0-1.755,4L195.216,282H174.464l19-93.9a5.968,5.968,0,0,0-3.1-6.484l-5.093-2.651,5.565-7.646a5.926,5.926,0,0,0-.188-7.254L177.6,148h20.182a24.565,24.565,0,0,0,17.453-7.276l53.008-53.031L279.4,98.836Zm97.337-97.338-9.7,9.7L276.729,79.185l9.7-9.7a7.888,7.888,0,0,1,11.155,11.155Z" style="fill:#2f2f2f"/></svg>
