<svg id="Layer_1" height="512" viewBox="0 0 512 512" width="512" xmlns="http://www.w3.org/2000/svg" data-name="Layer 1"><g fill="#d4e1f4"><path d="m130.43 189.09a.871.871 0 0 0 .54-.86c-8.519-120.777 55.93-150.319 94.43-157.264q3.69-1.083 7.457-1.876s-133.937-11.69-121.887 159.14a.871.871 0 0 1 -.54.86c-153.78 62.65-73.47 198.75-73.47 198.75a96.339 96.339 0 0 1 -6.35-37.2 95.292 95.292 0 0 1 5.835-30.435c-3.456-43.405 11.977-97.705 93.985-131.115z"/><path d="m324.9 42.26a97.933 97.933 0 0 0 -13.871-7.35 171.581 171.581 0 0 0 -41.319-6.41 96.943 96.943 0 0 1 35.19 13.76c37.86 24.14 53.25 70.89 39.7 111.87a96.573 96.573 0 0 1 -72.591 64.242 16.954 16.954 0 0 0 8.669 1.628 96.641 96.641 0 0 0 83.922-65.87c13.55-40.98-1.84-87.73-39.7-111.87z"/><path d="m224.16 355.21a95.606 95.606 0 0 1 -5.61 30.45 97.278 97.278 0 0 1 -81.218 63.709 96.823 96.823 0 0 0 101.218-63.709 95.606 95.606 0 0 0 5.61-30.45c.377-18.869-10.064-48.836-20.193-66.39l-16.757 9.76a96.062 96.062 0 0 1 16.95 56.63z"/></g><path d="m408.951 189.343c7.012-49.829-2.136-89.8-27.2-118.811-41.01-47.476-109.163-48.032-112.044-48.032a6 6 0 0 0 -1.049 11.907 90.6 90.6 0 0 1 33.015 12.909c41.363 26.374 54.153 81.861 28.51 123.69a90.759 90.759 0 1 1 -96.093-136.043 6 6 0 0 0 -.71-11.85c-2.154-.188-53.18-4.178-90.87 32.887-28.485 28.014-41.184 71.386-37.766 128.952-46.39 19.656-76.134 48.081-88.432 84.524-20.2 59.858 14.014 118.92 15.48 121.4a6 6 0 0 0 10.769-5.2 90.163 90.163 0 0 1 -5.953-34.876c1.286-48.769 41.945-88.2 90.785-88.2h.654a90.647 90.647 0 0 1 .731 181.279 91.143 91.143 0 0 1 -67.913-28.927 6 6 0 0 0 -9.823 6.636c.919 1.961 23.087 48.17 73.794 61.69 38.329 10.221 81.9-1.146 129.551-33.784 37 26.625 71.881 40.024 104.06 40.023a110.471 110.471 0 0 0 25.286-2.891c51.361-12.041 75.154-57.212 76.141-59.129a6 6 0 0 0 -9.628-6.939 90.715 90.715 0 0 1 -130.507-.558 90.568 90.568 0 0 1 66.878-153.3c49.123.782 89.213 41.283 89.369 90.284a90.2 90.2 0 0 1 -6.761 34.741 6 6 0 0 0 10.7 5.358c1.453-2.431 35.357-60.218 16.352-120.264-11.759-37.153-41.135-66.577-87.326-87.476zm78.049 153.835c-6.9-49.117-49.256-87.667-100.2-88.478a102.144 102.144 0 0 0 -73.673 29.416q-3.385 3.321-6.416 6.9l-24.195-13.06-5.7 10.561 22.594 12.183a102.8 102.8 0 0 0 81.813 159.2 102.962 102.962 0 0 0 42.961-7.621 100.809 100.809 0 0 1 -43.329 22.7c-36.11 8.41-77.243-4.127-122.258-37.258a6.974 6.974 0 0 0 -8.147-.094c-45.706 32.036-86.884 43.508-122.389 34.1-18.519-4.909-32.924-14.97-43.493-25.176a102.9 102.9 0 0 0 145.589-91.221 101.9 101.9 0 0 0 -14.494-54.73l19.789-11.52-6.037-10.38-20.545 11.96a104.534 104.534 0 0 0 -7.765-8.948 102.134 102.134 0 0 0 -72.971-31.112c-51.978-.369-95.954 38.745-102.67 89.155-4.242-19.455-5.663-43.084 2.218-66.442 11.432-33.879 40.034-60.347 85.016-78.671a6.859 6.859 0 0 0 4.256-6.842c-3.927-55.671 7.469-97.1 33.869-123.145a101.1 101.1 0 0 1 42.194-24.5 102.676 102.676 0 0 0 56.983 186.169v14.317h12v-14.724a104.491 104.491 0 0 0 14.191-2.3 102.047 102.047 0 0 0 64.221-46.338c27.359-44.629 16.088-102.979-24.473-134.565 19.122 6.153 40.565 16.914 56.79 35.729 22.894 26.548 31.012 63.789 24.13 110.688a9.99 9.99 0 0 0 5.8 10.542c43.691 19.462 71.329 46.6 82.146 80.676 7.015 22.085 5.971 44.222 2.195 62.829z" fill="#2f2f2f"/><path d="m256 115.093c-77.817 0-141.125 63.211-141.125 140.907s63.308 140.907 141.125 140.907 141.125-63.207 141.125-140.907-63.308-140.907-141.125-140.907zm0 269.814c-71.2 0-129.125-57.827-129.125-128.907s57.925-128.907 129.125-128.907 129.125 57.827 129.125 128.907-57.925 128.907-129.125 128.907z" fill="#004682FF"/><path d="m256 234.641a33.925 33.925 0 1 0 33.971 33.925 33.986 33.986 0 0 0 -33.971-33.925zm0 55.85a21.925 21.925 0 1 1 21.971-21.925 21.972 21.972 0 0 1 -21.971 21.925z" fill="#004682FF"/></svg>
