<?xml version="1.0"?>
<svg xmlns="http://www.w3.org/2000/svg" id="Layer_1" data-name="Layer 1" viewBox="0 0 512 512" width="512" height="512"><title>Gumbaz 01</title><path d="M257.816,73.934l4.693-14.043-5-14.961-9.888,29.585a87.089,87.089,0,0,1,10.026-.583Z" style="fill:#d4e1f4"/><path d="M262.575,74.082q2.418.146,4.817.42l-.189-.564Q264.88,73.95,262.575,74.082Z" style="fill:#d4e1f4"/><path d="M198,164.617v-8.986a19.574,19.574,0,0,0-5.841-13.795c10.667-31.446,38.7-53.588,70.46-55.72-1.652-.111-3.308-.184-4.972-.184-33.8,0-64.261,22.807-75.488,55.9A19.574,19.574,0,0,1,188,155.631v8.986l139,.032v0Z" style="fill:#d4e1f4"/><polygon points="201 193.043 201 176.62 191 176.618 191 193.043 324 193.074 324 193.072 201 193.043" style="fill:#d4e1f4"/><rect x="191" y="205.045" width="10" height="19.955" style="fill:#d4e1f4"/><path d="M173.5,150.033a7.485,7.485,0,0,0-12.5,5.6V165h10v-9.369A7.511,7.511,0,0,1,173.5,150.033Z" style="fill:#d4e1f4"/><rect x="157" y="177" width="10" height="48" style="fill:#d4e1f4"/><path d="M103.769,215h-1.538a5.4,5.4,0,0,0,1.538,0Z" style="fill:#d4e1f4"/><path d="M93.769,215a5.4,5.4,0,0,1-1.538,0H92v10h10V215Z" style="fill:#d4e1f4"/><path d="M111.5,189.931a7.485,7.485,0,0,0-12.5,5.6V203h10v-7.471A7.511,7.511,0,0,1,111.5,189.931Z" style="fill:#d4e1f4"/><path d="M66,247.631v-.282A10.6,10.6,0,0,1,76.4,237h-10A10.6,10.6,0,0,0,56,247.349v.282A10.617,10.617,0,0,0,66.4,258h10A10.617,10.617,0,0,1,66,247.631Z" style="fill:#d4e1f4"/><path d="M257.509,44.93l13.075,39.124,11.381-3.8L263.2,24.1a6,6,0,0,0-11.381,0L233.053,80.25l11.381,3.8Z" style="fill:#2f2f2f"/><path d="M395,215.055a6,6,0,0,0,6-6V195.529a7.5,7.5,0,1,1,15,0v13.526a6,6,0,1,0,12,0V195.529a19.247,19.247,0,0,0-15-19.065V150a6,6,0,0,0-12,0v27.652a19.818,19.818,0,0,0-12,17.877v13.526A6,6,0,0,0,395,215.055Z" style="fill:#2f2f2f"/><path d="M93,215.055a6,6,0,0,0,6-6V195.529a7.5,7.5,0,1,1,15,0v13.526a6,6,0,0,0,12,0V195.529a19.8,19.8,0,0,0-15-18.9V150a6,6,0,0,0-12,0v27.394a19.251,19.251,0,0,0-12,18.135v13.526A6,6,0,0,0,93,215.055Z" style="fill:#2f2f2f"/><path d="M72.744,296H84V434H75.77a6,6,0,1,0,0,12h2.486l-6.8,16.881L82.6,467.393,91.181,446h79.638l8.579,21.338,11.142-4.4L183.744,446h2.486a6,6,0,1,0,0-12H177V296h12.256a6,6,0,0,0,0-12H182.55l7.024-18.465-11.227-4.311L169.724,284H91.268l-8.623-22.7L71.417,265.46,78.441,284h-5.7a6,6,0,0,0,0,12ZM96,296h6V434H96Zm28,138H114V296h10Zm12-138h11V434H136Zm29,138h-6V296h6Z" style="fill:#2f2f2f"/><path d="M323.744,296H335V434h-8.23a6,6,0,0,0,0,12h2.486l-6.8,16.881,11.142,4.512L342.181,446h79.638l8.579,21.338,11.142-4.4L434.744,446h2.486a6,6,0,0,0,0-12H428V296h12.256a6,6,0,0,0,0-12H433.55l7.024-18.465-11.227-4.311L420.724,284H342.268l-8.623-22.7-11.228,4.161L329.441,284h-5.7a6,6,0,0,0,0,12ZM347,296h6V434h-6Zm28,138H365V296h10Zm12-138h11V434H387Zm29,138h-6V296h6Z" style="fill:#2f2f2f"/><path d="M66.4,270H448.613A22.611,22.611,0,0,0,471,247.631v-.282A22.593,22.593,0,0,0,448.613,225H435V209.055c0-3.314-3.132-6.055-6.445-6.055H387.077A6.113,6.113,0,0,0,381,209.055V225H370V170.616c0-2.462-2-4.576-4-5.5v-9.485a19.273,19.273,0,0,0-14-18.8V113a6,6,0,0,0-12,0v14.225a99.4,99.4,0,0,0-26.895-33.4c-16.33-13.016-35.507-19.9-55.458-19.9-36.789,0-70.222,23.34-84.647,57.909V113a6,6,0,0,0-12,0v24.51a19.287,19.287,0,0,0-12,18.121v9.485c-2,.924-4,3.038-4,5.5V225H134V209.055A6.1,6.1,0,0,0,127.941,203H86.462C83.149,203,80,205.741,80,209.055V225H66.4A22.608,22.608,0,0,0,44,247.349v.282A22.626,22.626,0,0,0,66.4,270ZM393,215h30v10H393Zm-57,10V177h22v48Zm-12-31.926-133-.031V176.618l133,.03ZM191,205.043l21,0V225H191Zm33,.008,28,.006V225H224Zm40,.009,27,.007V225H264Zm39,.01,21,0V225H303Zm51-49.439V165H339v-9.369a7.5,7.5,0,1,1,15,0Zm-96.353-69.7c17.2,0,33.8,5.975,47.978,17.28a86.827,86.827,0,0,1,27.387,38.476A19.575,19.575,0,0,0,327,155.631v9.018l-139-.032v-8.986a19.574,19.574,0,0,0-5.841-13.795C193.386,108.739,223.845,85.932,257.647,85.932ZM168.5,148.1a7.513,7.513,0,0,1,7.5,7.526V165H161v-9.369A7.513,7.513,0,0,1,168.5,148.1ZM157,177h22v48H157ZM92,215h30v10H92ZM56,247.349A10.6,10.6,0,0,1,66.4,237H448.613A10.583,10.583,0,0,1,459,247.349v.282A10.6,10.6,0,0,1,448.613,258H66.4A10.617,10.617,0,0,1,56,247.631Z" style="fill:#004682FF"/><path d="M59,459a6,6,0,0,0,0,12H452a6,6,0,0,0,0-12Z" style="fill:#004682FF"/><path d="M34,492H477a6,6,0,0,0,0-12H34a6,6,0,0,0,0,12Z" style="fill:#004682FF"/></svg>
