<?xml version="1.0"?>
<svg xmlns="http://www.w3.org/2000/svg" id="Layer_1" data-name="Layer 1" viewBox="0 0 512 512" width="512" height="512"><title>Piller</title><path d="M190.305,53h4.06C193,53,191.643,52.928,190.305,53Z" style="fill:#d4e1f4"/><path d="M188.31,52.727a8.864,8.864,0,0,1,0-17.727h-20a8.864,8.864,0,0,0,0,17.727,6.339,6.339,0,0,1,1.154.331,45.134,45.134,0,0,1,4.9-.058h14.9A3.209,3.209,0,0,0,188.31,52.727Z" style="fill:#d4e1f4"/><path d="M341.8,53c.244.014.489.023.732.05a1.611,1.611,0,0,0,.169-.05Z" style="fill:#d4e1f4"/><path d="M161.957,97.184A32.258,32.258,0,0,1,194.365,65h-20a32.184,32.184,0,1,0,9.955,62.792A32.15,32.15,0,0,1,161.957,97.184Z" style="fill:#d4e1f4"/><rect x="204" y="166" width="20" height="12" style="fill:#d4e1f4"/><rect x="219" y="190" width="10" height="203" style="fill:#d4e1f4"/><path d="M214.931,414.69a9.721,9.721,0,0,1,9.58-9.69h-20a9.721,9.721,0,0,0-9.58,9.69,9.364,9.364,0,0,0,9.582,9.31h20A9.364,9.364,0,0,1,214.931,414.69Z" style="fill:#d4e1f4"/><path d="M224.513,436h-20c-.62,0-1.229.264-1.836.212L195.544,449h20l7.133-12.788C223.284,436.264,223.893,436,224.513,436Z" style="fill:#d4e1f4"/><path d="M174.283,470.5a9.522,9.522,0,0,1,9.581-9.5h-20a9.5,9.5,0,1,0,0,19h20A9.523,9.523,0,0,1,174.283,470.5Z" style="fill:#d4e1f4"/><rect x="207" y="184" width="12" height="215" style="fill:#2f2f2f"/><rect x="293" y="184" width="12" height="215" style="fill:#2f2f2f"/><rect x="236" y="184" width="12" height="215" style="fill:#2f2f2f"/><rect x="263" y="184" width="12" height="215" style="fill:#2f2f2f"/><path d="M358.95,58.027A20.843,20.843,0,0,0,343.69,23H168.31a20.831,20.831,0,0,0-15.26,35.011,44.4,44.4,0,0,0,21.115,83.353A43.647,43.647,0,0,0,207,126.6V154h-8.743A6.153,6.153,0,0,0,192,159.914v24A6.3,6.3,0,0,0,198.257,190h115A5.861,5.861,0,0,0,319,183.914v-24A5.714,5.714,0,0,0,313.257,154H305V127.513c9,8.529,19.755,13.855,32.416,13.855A44.432,44.432,0,0,0,358.95,58.027Zm-190.64-5.3a8.864,8.864,0,0,1,0-17.727H343.69a8.855,8.855,0,0,1,0,17.71,6.366,6.366,0,0,0-1.154.34,44.9,44.9,0,0,0-4.9-.05H174.365a45.134,45.134,0,0,0-4.9.058A6.339,6.339,0,0,0,168.31,52.727ZM307,178H204V166H307Zm30.416-48.632A32.8,32.8,0,0,1,305,100.632V96.457a5.813,5.813,0,0,0-4.633-5.89,5.878,5.878,0,0,0-6.6,3.638l-.151.509a6.256,6.256,0,0,0-.63,2.252c0,1.448.014,2.882.014,4.3V154H219V96.457a5.773,5.773,0,0,0-9.459-4.676l-.583.509a5.977,5.977,0,0,0-2.215,4.676A32.395,32.395,0,1,1,174.365,65h163.27a32.185,32.185,0,1,1-.219,64.368Z" style="fill:#004682FF"/><path d="M174.7,75.812a22,22,0,1,0,22,22A22.025,22.025,0,0,0,174.7,75.812Zm0,32a10,10,0,1,1,10-10A10.012,10.012,0,0,1,174.7,107.812Z" style="fill:#004682FF"/><path d="M337.3,75.812a22,22,0,1,0,22,22A22.025,22.025,0,0,0,337.3,75.812Zm0,32a10,10,0,1,1,10-10A10.012,10.012,0,0,1,337.3,107.812Z" style="fill:#004682FF"/><path d="M298,73H214a6,6,0,0,0,0,12h84a6,6,0,0,0,0-12Z" style="fill:#004682FF"/><path d="M280,95H232a6,6,0,0,0,0,12h48a6,6,0,0,0,0-12Z" style="fill:#004682FF"/><path d="M273,117H239a6,6,0,0,0,0,12h34a6,6,0,0,0,0-12Z" style="fill:#004682FF"/><path d="M348.136,449H330.277l-9.651-16.971a21.612,21.612,0,0,0,8.443-17.122A22.133,22.133,0,0,0,307.6,392.979c-.087,0-.173.021-.26.021H204.361c-.09,0-.178-.045-.268-.042a22,22,0,0,0-21.162,21.932,21.67,21.67,0,0,0,8.443,17.151L181.723,449H163.864a21.5,21.5,0,1,0,0,43H348.136a21.5,21.5,0,1,0,0-43ZM204.511,405H307.192a9.752,9.752,0,0,1,9.877,9.69,9.364,9.364,0,0,1-9.582,9.31H204.513a9.364,9.364,0,0,1-9.582-9.31A9.721,9.721,0,0,1,204.511,405Zm-1.834,31.212c.607.052,1.216-.212,1.836-.212H307.487c.62,0,1.229.264,1.836.212L316.456,449H195.544ZM348.136,480H163.864a9.5,9.5,0,1,1,0-19H348.136a9.5,9.5,0,1,1,0,19Z" style="fill:#004682FF"/></svg>
