<svg id="Layer_1" height="512" viewBox="0 0 512 512" width="512" xmlns="http://www.w3.org/2000/svg" data-name="Layer 1"><path d="m201.35 463.46a75.056 75.056 0 0 1 -32.52-20.73c-27.787-30.816-22.6-84.079-21.464-91.8-22.081 8.166-29.946.643-29.946.643-.769 4.815-4.4 38.2 6.816 67.624l-.056-.044c-23.612-18.68-49.712-52.573-56.212-112.753-8.9-5.254-22.394-17.516-28.348-37.123-2.89 85.87 29.14 130.39 57.56 152.87 21.89 17.33 41.65 21.58 41.65 21.58a75.056 75.056 0 0 0 32.52 20.73 95.937 95.937 0 0 0 44.82 3.59c1.049-.177 2.022-.377 2.931-.6a94.014 94.014 0 0 1 -17.751-3.987zm-72.7-34.474c-.029-.054-.056-.108-.084-.163.023.055.05.109.079.163zm7.764 11.9c.064.079.13.157.2.236-.075-.081-.141-.159-.205-.238zm-6.16-9c.062.1.122.211.184.316-.067-.112-.127-.218-.189-.323zm1.873 3.056.24.368zm2.051 3.007c.084.118.171.233.256.35-.09-.124-.177-.239-.261-.357z" fill="#d4e1f4"/><g fill="#2f2f2f"><path d="m345.221 47.418a208.583 208.583 0 0 0 -87.331-19.4 201.074 201.074 0 0 0 -201.703 228.282l7.1 51.652 11.888-1.634-7.1-51.652a189.073 189.073 0 0 1 189.7-214.653 196.7 196.7 0 0 1 82.364 18.274 183.407 183.407 0 0 1 62.37 47.467 181.533 181.533 0 0 1 41.037 145.283c-.01.066-.019.132-.026.2l-6.7 56.423 11.916 1.416 6.692-56.325a193.926 193.926 0 0 0 -110.2-205.332z"/><path d="m378.76 120.248a164.365 164.365 0 0 0 -119.652-52.955 165.68 165.68 0 0 0 -166.983 181.207 48.7 48.7 0 0 0 3.555 14.027l11.083-4.6a36.718 36.718 0 0 1 -2.693-10.572 152.864 152.864 0 0 1 8.07-65.5 168.954 168.954 0 0 1 45.633 26.587c24.73 19.981 56.463 56.991 67.2 119.833l11.827-2.025c-11.368-66.533-45.151-105.866-71.489-127.146a180.355 180.355 0 0 0 -48.736-28.415 153.146 153.146 0 0 1 42.36-55.972c14.278 15.057 65.349 76.739 77.636 199.411l11.94-1.2c-7.673-76.6-30.3-129.686-47.925-160.727-13.092-23.056-25.318-37.635-32.05-44.827a154.131 154.131 0 0 1 80.068-27.845l2.507 229.244 12-.131-2.506-229.31a152.455 152.455 0 0 1 82.1 25.769c-8.05 5.241-20.271 15.3-32.632 33.42-27.086 39.7-42.082 97.767-44.573 172.582l11.994.4c1.642-49.345 10.221-118.052 41.765-165.144 14.15-21.125 28-30.312 33.934-33.547a156.558 156.558 0 0 1 16.771 15.6 154.446 154.446 0 0 1 27.536 41.22 171.242 171.242 0 0 0 -48.331 26.131c-26.315 20.081-60.154 57.837-71.923 123.667l11.813 2.112c8.864-49.583 31.388-88.577 66.946-115.9a160.2 160.2 0 0 1 46.041-24.856 152.427 152.427 0 0 1 8.686 61.465 91.661 91.661 0 0 1 -2.007 14.057l-1.609 7.257 11.716 2.6 1.609-7.258a103.641 103.641 0 0 0 2.267-15.9 163.782 163.782 0 0 0 -43.948-122.759z"/><path d="m135.584 155.77a20.441 20.441 0 1 0 20.441-20.42 20.454 20.454 0 0 0 -20.441 20.42zm28.882 0a8.441 8.441 0 1 1 -8.441-8.42 8.44 8.44 0 0 1 8.441 8.42z"/><path d="m133.177 211a20.42 20.42 0 1 0 20.441 20.42 20.454 20.454 0 0 0 -20.441-20.42zm0 28.84a8.42 8.42 0 1 1 8.441-8.42 8.44 8.44 0 0 1 -8.441 8.422z"/><path d="m377.5 209.979a20.42 20.42 0 1 0 20.441 20.42 20.454 20.454 0 0 0 -20.441-20.42zm0 28.84a8.42 8.42 0 1 1 8.441-8.42 8.44 8.44 0 0 1 -8.441 8.42z"/><path d="m197.646 112.05a20.441 20.441 0 1 0 20.441-20.42 20.454 20.454 0 0 0 -20.441 20.42zm28.882 0a8.441 8.441 0 1 1 -8.441-8.42 8.44 8.44 0 0 1 8.441 8.42z"/><path d="m311.6 111.185a20.441 20.441 0 1 0 -20.442 20.415 20.454 20.454 0 0 0 20.442-20.415zm-28.882 0a8.441 8.441 0 1 1 8.441 8.419 8.44 8.44 0 0 1 -8.442-8.419z"/><path d="m348.137 177.3a20.42 20.42 0 1 0 -20.441-20.42 20.454 20.454 0 0 0 20.441 20.42zm0-28.84a8.42 8.42 0 1 1 -8.441 8.42 8.44 8.44 0 0 1 8.441-8.417z"/></g><path d="m209.737 378.675c-17.345-6.873-37.939-3.03-61.209 11.424a6 6 0 0 0 -2.306 7.558c.243.54 6.115 13.335 20.774 23.273 12.648 8.574 26.561 11.559 39.8 11.559a111.585 111.585 0 0 0 33.057-5.462 6 6 0 0 0 4-7.267c-.334-1.26-8.499-30.931-34.116-41.085zm-49.87 18.66c17.689-9.9 32.935-12.431 45.38-7.531 14.117 5.56 21.735 19.633 25.015 27.5-43.499 11.335-63.647-10.039-70.395-19.969z" fill="#004682FF"/><path d="m367.2 390.1c-23.269-14.455-43.862-18.3-61.208-11.424-25.617 10.154-33.783 39.826-34.117 41.085a6 6 0 0 0 4 7.267 111.558 111.558 0 0 0 33.057 5.462c13.242 0 27.158-2.986 39.8-11.559 14.659-9.938 20.531-22.733 20.774-23.273a6 6 0 0 0 -2.306-7.558zm-25.2 20.9c-14.922 10.115-33.924 12.23-56.551 6.306 3.246-7.847 10.807-21.861 24.967-27.473 12.446-4.934 27.7-2.416 45.4 7.478a53.3 53.3 0 0 1 -13.816 13.689z" fill="#004682FF"/><path d="m491.58 396.98c-4.155-3.162-9.089-4.594-15.1-4.39-12.814.442-20.8 5.61-30.261 14.387l-12.34 11.446c-.84-.22-1.685-.422-2.537-.6 14.583-14.629 25.991-32.793 33.9-54.013 9.82-26.339 14.241-57.477 13.16-92.551a75.33 75.33 0 0 0 2.642-13.979 6 6 0 0 0 -11.949-1.109c-2.394 25.817-19.475 41.642-29.19 46.924a51.339 51.339 0 0 1 -13.412 4.982c2.781-5.778 5.029-12.87 3.918-20.258a48.73 48.73 0 0 0 -12.144-25.784 34.158 34.158 0 0 0 -10.3-11.486 6 6 0 1 0 -6.775 9.9c1.666 1.139 7.786 6.338 7.288 10.957-.412 3.825-5.788 8.105-14.75 11.74-20.379 8.267-31.833 24.165-38.147 37.611 8.636-20.947 3.511-42.9-2.493-57.887a6 6 0 0 0 -11.139 4.462c1.016 2.536 1.883 4.988 2.629 7.365-6.822 13.913-17.124 18.921-27.1 23.766-10.537 5.115-21.354 10.367-25.6 24.806a36.5 36.5 0 0 0 -65.283-.857c-5.355-13.646-17.635-19.246-28.8-24.329-12.044-5.484-23.446-10.684-30.361-24.606.738-2.386 1.6-4.842 2.616-7.377a6 6 0 0 0 -11.139-4.461c-11.344 28.316-6.61 49.04-.641 61.439a61.576 61.576 0 0 0 8.4 12.978c-1.165.412-2.329.84-3.494 1.3-3.821-13.849-15.225-43.405-44.907-55.445-8.946-3.629-14.322-7.9-14.748-11.722-.5-4.475 5.25-9.56 7.286-10.975a6 6 0 0 0 -6.775-9.906 33.965 33.965 0 0 0 -10.434 11.75 47.778 47.778 0 0 0 -12.012 25.53c-1.111 7.388 1.137 14.48 3.918 20.258a51.288 51.288 0 0 1 -13.406-4.983c-9.716-5.281-26.8-21.107-29.191-46.923a6 6 0 0 0 -11.949 1.108 75.269 75.269 0 0 0 2.64 13.981c-1.079 35.1 3.546 66.321 13.766 92.806 8.138 21.088 19.816 39.219 34.7 53.933-1.166.241-2.32.528-3.466.849l-12.815-11.872c-9.462-8.777-17.447-13.945-30.261-14.387-6-.2-10.949 1.228-15.1 4.39-7.863 5.983-11.629 15.133-10.073 24.477 1.407 8.449 6.839 15.409 13.839 17.732a15.879 15.879 0 0 0 5.014.817 18.329 18.329 0 0 0 12.658-5.52 6 6 0 1 0 -8.312-8.655c-2.957 2.84-4.933 2.184-5.582 1.968-2.7-.895-5.127-4.391-5.78-8.313-.484-2.907-.413-8.455 5.5-12.956 1.369-1.042 3.328-2.089 7.424-1.947 9.174.316 14.779 4.017 22.517 11.195l8.709 8.066c-28 14.938-47.338 49.309-48.413 51.251a6 6 0 0 0 9.129 7.483c.235-.2 23.882-19.76 58.262-7.679 35.215 12.374 76.022.443 86.009-2.859a102.284 102.284 0 0 0 29.965 4.45 95.539 95.539 0 0 0 15.89-1.291c9.951-1.689 14.48-5.244 18.607-9.048a30.872 30.872 0 0 1 19.677-8.055h4.8a30.872 30.872 0 0 1 19.677 8.055c4.127 3.8 8.656 7.359 18.607 9.048a102.012 102.012 0 0 0 41.852-2.018c9.481 3.162 50.731 15.443 86.285 2.95 34.117-11.987 57.309 6.885 58.262 7.679a6 6 0 0 0 9.188-7.373c-1.037-1.969-19.843-37.117-47.878-51.9l8.118-7.53c7.735-7.174 13.34-10.875 22.514-11.191 4.108-.144 6.055.9 7.425 1.948 5.915 4.5 5.986 10.048 5.5 12.955-.653 3.923-3.084 7.419-5.78 8.313-.649.214-2.624.872-5.582-1.968a6 6 0 1 0 -8.312 8.655 18.329 18.329 0 0 0 12.658 5.52 15.852 15.852 0 0 0 5.014-.818c7-2.321 12.432-9.281 13.839-17.73 1.559-9.346-2.207-18.496-10.071-24.479zm-45.944-83.341a66.9 66.9 0 0 0 20.6-18.183c-1.127 23.646-5.161 44.987-12.061 63.672-7.317 19.814-17.862 36.717-31.341 50.237a117.15 117.15 0 0 1 -30.234 21.977c15.818-30.534 12.966-68.752 11.916-78.418 2.476-3.71 9.736-12.756 20.574-10.762 4.248.781 6.906 3.2 7.9 7.187 1.141 4.58-.359 10.232-3.344 12.6-1.068.846-2.675 1.621-5.648.095a6 6 0 1 0 -5.481 10.675 18.727 18.727 0 0 0 8.56 2.19 15.95 15.95 0 0 0 10.024-3.556c6.647-5.27 9.815-15.743 7.533-24.9-2.139-8.587-8.471-14.45-17.371-16.088-9.2-1.693-18.1 1.022-25.725 7.853a43.613 43.613 0 0 0 -7.763 9.239c-1.695.833-9.264 3.54-25.592-3.029a147.077 147.077 0 0 1 37.317-18.793 163.262 163.262 0 0 1 17.653-4.53c7.694-1.631 14.34-3.04 22.483-7.466zm-47.4-19.367q12.865-5.219 18.333-12.335a38.379 38.379 0 0 1 1.973 7.667c1.146 7.625-4.4 16.432-7.379 21.163-.2.323-.389.618-.568.905-2.693.691-5.594 1.509-8.8 2.547a157.668 157.668 0 0 0 -38.246 18.855c4.477-12.314 14.296-30.529 34.689-38.802zm-44.047 29.6a95.142 95.142 0 0 0 -4.319 12.492q-1.494-.545-2.986-1.036a57.1 57.1 0 0 0 7.307-11.458zm-31.478-14.606c8.013-3.889 17.423-8.461 25.27-17.833 1.984 23.476-9.649 36.341-14.345 40.52a110.687 110.687 0 0 0 -31.142-1.128c1.933-12.673 9.513-16.364 20.219-21.561zm-63.7 5.4a24.521 24.521 0 0 1 24.029 19.716 111.619 111.619 0 0 0 -25.51 9.992 108.568 108.568 0 0 0 -22.69-9.2 24.517 24.517 0 0 1 24.174-20.506zm-94.841-24.619c8.572 9.816 19.427 14.762 28.653 18.964 12.619 5.746 21.572 9.833 23.911 22.347a110.41 110.41 0 0 0 -37.019 1.076c-4.966-4.482-17.407-18.258-15.545-42.387zm-70.714-1.675a38.258 38.258 0 0 1 1.97-7.672q5.444 7.1 18.336 12.34c20.868 8.465 31.138 28.258 35.805 41.27-10.51-7.652-24.191-16.405-39.366-21.323-3.2-1.038-6.1-1.856-8.8-2.547-.179-.287-.365-.583-.568-.9-2.978-4.74-8.523-13.54-7.377-21.168zm-35.071 69.687c-7.175-18.759-11.385-40.138-12.585-63.785a66.865 66.865 0 0 0 20.565 18.132c8.143 4.427 14.789 5.836 22.485 7.468a162.994 162.994 0 0 1 17.65 4.526c14.693 4.762 27.861 13.517 38.106 21.149-14.791 5.318-21.425 2.535-22.919 1.7-3.224-4.269-17.7-21.665-36.953-18.126-8.9 1.638-15.233 7.5-17.372 16.09-2.281 9.159.887 19.633 7.535 24.9a15.945 15.945 0 0 0 10.023 3.556 18.748 18.748 0 0 0 8.561-2.191 6 6 0 0 0 -5.481-10.668c-2.974 1.526-4.581.751-5.648-.1-2.985-2.366-4.485-8.018-3.344-12.6.993-3.989 3.651-6.407 7.9-7.189 11.1-2.04 20.826 8.21 24.261 12.373-1.08 10.253-3.677 48.005 12.031 78.187a123.886 123.886 0 0 1 -32.21-22.761c-14.016-13.694-24.99-30.741-32.605-50.661zm30.907 104.287c-19.456-6.837-36-5.141-48.125-1.386 2.483-3.161 5.276-6.477 8.333-9.736 10.926-11.653 27.53-24.955 45.313-23.3 18.494 14.27 35.274 19.682 40.836 21.191a77.936 77.936 0 0 0 17.977 14.074c-16.133 3.633-41.926 7.031-64.334-.843zm211.265-.21c-6.761-1.148-9.331-3.136-12.482-6.041a42.893 42.893 0 0 0 -27.466-11.227c-.075 0-.151 0-.226 0h-5.039c-.075 0-.151 0-.226 0a42.887 42.887 0 0 0 -27.466 11.232c-3.15 2.9-5.721 4.892-12.482 6.04-22.3 3.787-53.174-1.683-71.885-22.428-21.778-24.145-21.791-63.183-20.685-79.569a30.932 30.932 0 0 0 3.228.46c9.581.866 21.319-2.159 34.887-8.985 21.352-10.744 42.855-10.284 57.136-8.007 17.592 2.807 30.805 9.157 35.839 12.467a6.993 6.993 0 0 0 7.679 0c7.769-5.1 38.813-18.862 72.411-11.855h.028a86.274 86.274 0 0 1 21.2 7.388c13.568 6.826 25.308 9.851 34.887 8.985a30.932 30.932 0 0 0 3.228-.46c1.106 16.386 1.093 55.424-20.684 79.569-18.708 20.749-49.584 26.216-71.882 22.431zm170.976.276c-12.179-3.9-29-5.8-48.825 1.166-21.873 7.685-47.059 4.6-63.266 1.062a78.432 78.432 0 0 0 20.618-15.519c5.37-1.451 21.152-6.558 38.64-20.12 21.64-2.055 41.022 17.699 52.833 33.411z" fill="#004682FF"/></svg>
