<svg height="416pt" viewBox="-35 0 416 416.29945" width="416pt" xmlns="http://www.w3.org/2000/svg"><path d="m236.929688 10-86.769532 289.261719h60l56.769532-189.25zm0 0" fill="#b9f9ec"/><path d="m70.039062 111.121094-55.839843 218.03125h40l35.839843-139.933594zm0 0" fill="#d4e1f4"/><path d="m79.726562 108.640625c-1.132812-4.425781-5.121093-7.519531-9.6875-7.519531-4.566406 0-8.554687 3.09375-9.6875 7.519531l-55.839843 218.03125c-1.367188 5.347656 1.859375 10.796875 7.210937 12.167969.808594.207031 1.640625.3125 2.476563.3125h44.949219v66.148437h20v-66.148437h46.722656c5.523437 0 10-4.480469 9.996094-10.003906 0-.835938-.101563-1.667969-.308594-2.476563zm11.023438 123.660156h-41.421875l7.429687-29h26.566407zm5.121094 20 7.167968 28h-66l7.171876-28zm-25.832032-100.871093 8.160157 31.871093h-16.324219zm-42.957031 167.722656 4.828125-18.851563h76.25l4.828125 18.851563zm0 0" fill="#004682FF"/><path d="m246.148438 309.261719h77.550781c5.523437 0 10-4.480469 10-10 0-.972657-.140625-1.941407-.421875-2.875l-86.769532-289.257813c-1.585937-5.289062-7.164062-8.292968-12.453124-6.703125-3.21875.964844-5.738282 3.484375-6.703126 6.703125l-86.769531 289.257813c-1.585937 5.289062 1.414063 10.867187 6.703125 12.453125.933594.277344 1.902344.421875 2.875.421875h75.988282v87.039062h-226v20h346v-20h-100zm17.628906-174.960938h-53.695313l11.101563-37h31.492187zm6 20 10.5 35h-86.691406l10.5-35zm16.5 55 10.796875 36h-120.289063l10.800782-36zm-49.347656-164.496093 9.746093 32.5h-19.5zm-66.140626 220.5h132.28125l7.1875 23.960937h-146.65625zm0 0" fill="#2f2f2f"/></svg>
