<?xml version="1.0" encoding="iso-8859-1"?>
<!-- Generator: Adobe Illustrator 19.0.0, SVG Export Plug-In . SVG Version: 6.00 Build 0)  -->
<svg version="1.1" id="Capa_1" xmlns="http://www.w3.org/2000/svg" xmlns:xlink="http://www.w3.org/1999/xlink" x="0px" y="0px"
	 viewBox="0 0 512 512" style="enable-background:new 0 0 512 512;" xml:space="preserve">
<path style="fill:#B1FFFF;" d="M340.3,472.86c-11.58,0-22.87-3.5-33.55-10.39c-30.846-20.106-70.654-20.106-101.5,0
	c-10.68,6.9-22,10.39-33.55,10.39c-31.1,0-60.81-21-79.49-56.18l-16.8-31.64C50.94,338.95,38,284.86,38,228.62
	c0-47,21.35-90,53.13-107.16l11.42-6.16c42.1-22.71,91.92-17.37,132.67,21.76l20.78,20l20.78-20
	c40.75-39.13,90.57-44.47,132.67-21.76l11.42,6.16C452.65,138.6,474,181.66,474,228.62c0,56.24-12.94,110.33-37.41,156.43
	l-16.8,31.64C401.11,451.86,371.4,472.86,340.3,472.86z"/>
<path style="fill:#304FFE;" d="M438.91,88.02l-11.42-6.16C374.42,53.23,313.65,59.35,265,97.11c6.27-30.54,41.32-70.51,55.62-84.53
	L309.4,1.14c-22.93,22.45-56.4,64.45-60.86,97.15C199.61,59.48,138.13,52.93,84.51,81.86l-11.42,6.16
	C28.69,111.96,0,167.15,0,228.62c0,62.43,14.47,122.68,41.85,174.24l16.8,31.64C84,482.32,126.3,510.86,171.7,510.86
	c19.263-0.159,38.07-5.878,54.16-16.47c18.304-11.992,41.976-11.992,60.28,0c16.09,10.592,34.897,16.311,54.16,16.47
	c45.4,0,87.67-28.54,113.05-76.36l16.8-31.64C497.53,351.3,512,291.05,512,228.62C512,167.15,483.31,111.96,438.91,88.02z
	 M456,395.36L439.2,427c-22.54,42.49-59.52,67.86-98.9,67.86c-16.183-0.159-31.977-4.989-45.48-13.91
	c-23.568-15.459-54.062-15.459-77.63,0c-13.506,8.923-29.303,13.753-45.49,13.91c-39.38,0-76.36-25.37-98.92-67.86L56,395.36
	C29.83,346.1,16,288.44,16,228.62c0-55.67,25.39-105.33,64.68-126.52l11.42-6.16c52.63-28.39,112.63-18.66,158.35,25.26l5.54,5.32
	l5.54-5.32C307.3,77.25,367.3,67.57,419.89,95.94l11.42,6.16l0,0c39.3,21.19,64.69,70.85,64.69,126.52
	C496,288.44,482.17,346.1,456,395.36z"/>
<g>
</g>
<g>
</g>
<g>
</g>
<g>
</g>
<g>
</g>
<g>
</g>
<g>
</g>
<g>
</g>
<g>
</g>
<g>
</g>
<g>
</g>
<g>
</g>
<g>
</g>
<g>
</g>
<g>
</g>
</svg>
