<?xml version="1.0" encoding="iso-8859-1"?>
<!-- Generator: Adobe Illustrator 19.0.0, SVG Export Plug-In . SVG Version: 6.00 Build 0)  -->
<svg xmlns="http://www.w3.org/2000/svg" xmlns:xlink="http://www.w3.org/1999/xlink" version="1.1" id="Layer_1" x="0px" y="0px" viewBox="0 0 512 512" style="enable-background:new 0 0 512 512;" xml:space="preserve" width="512" height="512">
<g>
	<g>
		<path style="fill-rule:evenodd;clip-rule:evenodd;fill:#B0E7F8;" d="M10.071,140.779v99.783c0,12.153,9.918,22.065,22.075,22.065    h42.337H97.89V118.715H32.146C19.989,118.715,10.071,128.627,10.071,140.779L10.071,140.779z"/>
	</g>
	<g>
		<polygon style="fill-rule:evenodd;clip-rule:evenodd;fill:#52CBF0;" points="97.89,118.715 97.89,262.627 159.099,262.627     159.099,118.715 147.055,118.715 107.327,118.715   "/>
	</g>
	<g>
		<polygon style="fill-rule:evenodd;clip-rule:evenodd;fill:#B0E7F8;" points="159.099,118.715 159.099,262.627 182.478,262.627     329.494,262.627 352.901,262.627 352.901,118.715   "/>
	</g>
	<g>
		<polygon style="fill-rule:evenodd;clip-rule:evenodd;fill:#52CBF0;" points="352.901,118.715 352.901,262.627 414.11,262.627     414.11,118.715 397.845,118.715 358.143,118.715   "/>
	</g>
	<g>
		<path style="fill-rule:evenodd;clip-rule:evenodd;fill:#B0E7F8;" d="M414.11,118.715v143.912h23.407h42.336    c12.129,0,22.076-9.911,22.076-22.065v-99.783c0-12.152-9.947-22.064-22.076-22.064H414.11z"/>
	</g>
	<g>
		<polygon style="fill-rule:evenodd;clip-rule:evenodd;fill:#FFCB7C;" points="329.494,262.627 329.494,311.855 437.518,311.855     437.518,262.627 414.11,262.627 352.901,262.627   "/>
	</g>
	<g>
		<polygon style="fill-rule:evenodd;clip-rule:evenodd;fill:#FFCB7C;" points="74.482,262.627 74.482,311.855 182.478,311.855     182.478,262.627 159.099,262.627 97.89,262.627   "/>
	</g>
	<g>
		<path style="fill-rule:evenodd;clip-rule:evenodd;fill:#52CBF0;" d="M160.998,26.066c-29.585,0-53.671,24.048-53.671,53.646    v39.003h39.729V79.712c0-7.676,6.264-13.936,13.943-13.936h183.175c7.679,0,13.97,6.26,13.97,13.936v39.003h39.702V79.712    c0-29.598-24.059-53.646-53.671-53.646H160.998z"/>
	</g>
	<g>
		<path style="fill-rule:evenodd;clip-rule:evenodd;fill:#52CBF0;" d="M10.071,240.563v183.852v39.485    c0,12.121,9.918,22.034,22.075,22.034h447.708c12.129,0,22.076-9.913,22.076-22.034v-39.485V240.563    c0,12.153-9.947,22.065-22.076,22.065h-42.336v49.228H329.494v-49.228H182.478v49.228H74.482v-49.228H32.146    C19.989,262.627,10.071,252.716,10.071,240.563L10.071,240.563z"/>
	</g>
	<g>
		<path d="M479.853,108.643h-71.938V79.712c0-35.134-28.595-63.717-63.742-63.717H160.998c-35.147,0-63.742,28.583-63.742,63.717    v28.931h-65.11C14.42,108.643,0,123.06,0,140.779v323.12c0,17.702,14.42,32.105,32.146,32.105h447.708    c17.726,0,32.147-14.403,32.147-32.105v-323.12C512,123.06,497.579,108.643,479.853,108.643z M491.858,414.343H20.142V270.365    c3.711,1.499,7.761,2.333,12.004,2.333h32.266v39.157c0,5.561,4.509,10.07,10.071,10.07h107.996    c5.562,0,10.071-4.509,10.071-10.07v-39.157h126.875v39.157c0,5.561,4.509,10.07,10.071,10.07h108.023    c5.562,0,10.071-4.509,10.071-10.07v-39.157h32.265c4.243,0,8.293-0.834,12.005-2.333V414.343z M172.407,272.698v29.085H84.553    v-29.085H172.407z M107.96,128.785h41.067v123.77H107.96V128.785z M404.04,128.785v123.77h-41.067v-123.77H404.04z     M339.565,272.698h87.882v29.085h-87.882V272.698z M348.072,108.643h-52.159c-5.561,0-10.071,4.51-10.071,10.072    c0,5.562,4.509,10.07,10.071,10.07h46.917v123.77H169.169v-123.77h44.593c5.562,0,10.071-4.509,10.071-10.07    c0-5.563-4.509-10.072-10.071-10.072h-56.636V79.712c0-2.131,1.737-3.864,3.872-3.864h183.175c2.113,0,3.899,1.77,3.899,3.864    V108.643z M491.858,140.779v99.783c0,6.614-5.386,11.993-12.005,11.993h-55.672v-123.77h55.672    C486.473,128.785,491.858,134.166,491.858,140.779z M160.998,36.138h183.175c24.042,0,43.601,19.547,43.601,43.574v28.931h-19.56    V79.712c0-13.237-10.785-24.007-24.041-24.007H160.998c-13.241,0-24.014,10.77-24.014,24.007v28.931h-19.587V79.712    C117.397,55.685,136.956,36.138,160.998,36.138z M20.142,140.779c0-6.613,5.385-11.994,12.004-11.994h55.673v123.77H32.146    c-6.619,0-12.004-5.379-12.004-11.993V140.779z M479.853,475.862H32.146c-6.619,0-12.004-5.366-12.004-11.963v-29.414h471.717    v29.414C491.858,470.496,486.473,475.862,479.853,475.862z"/>
		<path d="M256.184,108.643h-0.199c-5.562,0-10.071,4.51-10.071,10.072c0,5.562,4.509,10.07,10.071,10.07h0.199    c5.562,0,10.071-4.509,10.071-10.07C266.255,113.152,261.746,108.643,256.184,108.643z"/>
	</g>
</g>















</svg>
