<svg height="500pt" viewBox="-44 0 500 500.623" width="500pt" xmlns="http://www.w3.org/2000/svg"><path d="m55.25 333.238281v-19.226562c.019531-15.992188 11.664062-29.59375 27.460938-32.074219-9.367188-1.457031-18.90625 1.25-26.109376 7.417969-7.199218 6.167969-11.347656 15.171875-11.347656 24.65625v19.226562c0 9.480469 4.148438 18.488281 11.347656 24.652344 7.203126 6.167969 16.742188 8.878906 26.109376 7.421875-15.796876-2.484375-27.441407-16.085938-27.460938-32.074219zm0 0" fill="#d4e1f4"/><path d="m178.460938 313.378906v-21.96875c.027343-19.007812 14.097656-35.074218 32.9375-37.601562-10.839844-1.457032-21.78125 1.839844-30.011719 9.042968-8.230469 7.207032-12.941407 17.621094-12.925781 28.558594v21.96875c-.019532 10.941406 4.691406 21.351563 12.921874 28.558594 8.230469 7.207031 19.175782 10.503906 30.015626 9.042969-18.839844-2.527344-32.914063-18.59375-32.9375-37.601563zm0 0" fill="#d4e1f4"/><path d="m148.066406 399.214844.023438-.039063c1.503906-2.253906 3.210937-4.363281 5.101562-6.300781 5.125-5.261719 11.503906-9.132812 18.539063-11.246094-.5-.542968-1-1.09375-1.484375-1.660156-10.269532.933594-19.867188 5.511719-27.054688 12.90625-1.890625 1.9375-3.597656 4.046875-5.101562 6.300781l-.023438.039063c-4.734375 7.109375-7.25 15.464844-7.234375 24.003906v65.402344h10v-65.402344c-.015625-8.539062 2.5-16.894531 7.234375-24.003906zm0 0" fill="#d4e1f4"/><path d="m334.910156 281.554688c-1.671875-.003907-3.34375.125-5 .382812 15.796875 2.484375 27.441406 16.085938 27.460938 32.074219v19.226562c-.023438 15.988281-11.664063 29.589844-27.460938 32.074219 9.371094 1.457031 18.90625-1.253906 26.109375-7.421875 7.203125-6.164063 11.347657-15.171875 11.351563-24.652344v-19.226562c-.023438-17.917969-14.542969-32.4375-32.460938-32.457031zm0 0" fill="#d4e1f4"/><path d="m368.195312 392.464844c-.625.714844-1.277343 1.398437-1.941406 2.0625 14.46875 5.507812 24.039063 19.375 24.058594 34.855468v37.269532h10v-37.269532c-.019531-18.585937-13.710938-34.324218-32.117188-36.917968zm0 0" fill="#d4e1f4"/><path d="m156.460938 291.410156v21.96875c0 27.578125 22.359374 49.9375 49.9375 49.9375 27.578124 0 49.9375-22.359375 49.9375-49.9375v-21.96875c0-27.578125-22.359376-49.9375-49.9375-49.9375-27.578126 0-49.9375 22.359375-49.9375 49.9375zm49.9375-37.9375c20.941406.023438 37.914062 16.996094 37.9375 37.9375v21.96875c0 20.953125-16.984376 37.9375-37.9375 37.9375-20.953126 0-37.9375-16.984375-37.9375-37.9375v-21.96875c.023437-20.941406 16.996093-37.914062 37.9375-37.9375zm0 0" fill="#b8001c"/><path d="m290.457031 314.011719v19.226562c-.074219 15.933594 8.382813 30.6875 22.167969 38.679688 13.785156 7.988281 30.792969 7.988281 44.582031 0 13.785157-7.992188 22.242188-22.746094 22.167969-38.679688v-19.226562c.074219-15.933594-8.382812-30.691407-22.167969-38.679688-13.789062-7.988281-30.796875-7.988281-44.582031 0s-22.242188 22.746094-22.167969 38.679688zm44.453125-32.457031c17.917969.019531 32.4375 14.539062 32.460938 32.457031v19.226562c.0625 11.640625-6.109375 22.421875-16.175782 28.261719-10.070312 5.839844-22.496093 5.839844-32.566406 0-10.066406-5.839844-16.238281-16.621094-16.175781-28.261719v-19.226562c.019531-17.917969 14.539063-32.4375 32.457031-32.457031zm0 0" fill="#b8001c"/><path d="m359.839844 383.765625c-6.105469 7.460937-15.3125 11.6875-24.953125 11.453125-9.640625-.238281-18.632813-4.910156-24.363281-12.660156-1.175782-1.5625-3.023438-2.46875-4.976563-2.433594-8.738281.195312-17.261719 2.730469-24.683594 7.347656-9.75-11.585937-23.828125-18.667968-38.941406-19.585937-3.160156-.191407-4.722656 1.726562-6.382813 3.753906-7.144531 8.730469-17.917968 13.675781-29.195312 13.398437-11.273438-.273437-21.792969-5.738281-28.5-14.808593-1.160156-1.578125-3.019531-2.488281-4.976562-2.429688-14.445313.332031-28.183594 6.324219-38.253907 16.683594-.964843.988281-1.875 2.011719-2.753906 3.058594-6.957031-4.332031-14.886719-6.859375-23.066406-7.34375-3.109375-.152344-4.660157 1.734375-6.160157 3.566406-6.105468 7.460937-15.3125 11.6875-24.953124 11.453125-9.640626-.238281-18.628907-4.910156-24.363282-12.660156-1.175781-1.5625-3.023437-2.464844-4.976562-2.433594-26.71875.679688-48.023438 22.53125-48.027344 49.257812v43.269532c0 3.3125 2.683594 6 6 6h112.519531v15.96875c0 3.316406 2.6875 6 6 6h163.132813c3.316406 0 6-2.683594 6-6v-15.96875h112.347656c3.3125 0 6-2.6875 6-6v-43.269532c-.03125-26.046874-20.308594-47.585937-46.308594-49.183593-3.125-.152344-4.664062 1.734375-6.164062 3.566406zm-347.527344 82.886719v-37.269532c.117188-19.054687 14.5-35 33.445312-37.074218 8.191407 9.445312 20.074219 14.886718 32.578126 14.917968 12.507812.03125 24.414062-5.351562 32.65625-14.761718 5.007812.699218 9.820312 2.414062 14.140624 5.046875-4.15625 7.929687-6.316406 16.753906-6.300781 25.707031v43.433594zm269.652344 21.96875h-151.132813v-65.398438c-.015625-8.542968 2.5-16.894531 7.234375-24.003906l.023438-.039062c1.503906-2.253907 3.210937-4.363282 5.101562-6.300782 7.1875-7.394531 16.785156-11.972656 27.054688-12.90625 9.203125 10.808594 22.675781 17.050782 36.875 17.085938 14.195312.03125 27.699218-6.148438 36.949218-16.917969 21.65625 2.8125 37.871094 21.25 37.890626 43.085937zm86.230468-96.15625c18.40625 2.59375 32.097657 18.332031 32.117188 36.917968v37.269532h-106.347656v-43.433594c.007812-8.984375-2.183594-17.835938-6.378906-25.78125 4.679687-2.835938 9.929687-4.589844 15.371093-5.132812 7.9375 9.21875 19.414063 14.636718 31.574219 14.90625.375.011718.75.015624 1.128906.015624 12.472656.027344 24.34375-5.355468 32.535156-14.761718zm0 0" fill="#b8001c"/><path d="m122.167969 333.238281v-19.226562c.074219-15.933594-8.382813-30.691407-22.167969-38.679688-13.789062-7.988281-30.796875-7.988281-44.582031 0-13.785157 7.988281-22.242188 22.746094-22.167969 38.679688v19.226562c-.074219 15.933594 8.382812 30.6875 22.167969 38.679688 13.785156 7.988281 30.792969 7.988281 44.582031 0 13.785156-7.992188 22.242188-22.746094 22.167969-38.679688zm-76.917969 0v-19.226562c-.066406-11.640625 6.105469-22.421875 16.175781-28.261719 10.070313-5.839844 22.496094-5.839844 32.5625 0 10.070313 5.839844 16.242188 16.621094 16.179688 28.261719v19.226562c.0625 11.640625-6.109375 22.421875-16.179688 28.261719-10.066406 5.835938-22.492187 5.835938-32.5625 0-10.070312-5.839844-16.242187-16.621094-16.175781-28.261719zm0 0" fill="#b8001c"/><g fill="#2f2f2f"><path d="m298.675781 52.507812-.585937-.25c-31.308594-13.472656-60.90625-30.613281-88.179688-51.058593-2.132812-1.597657-5.066406-1.597657-7.199218 0-27.269532 20.445312-56.867188 37.582031-88.171876 51.054687l-.59375.253906c-2.203124.945313-3.632812 3.113282-3.632812 5.515626v52.210937c0 33.777344 16.140625 63.445313 46.675781 85.792969 14.019531 10.238281 29.574219 18.191406 46.078125 23.566406 1.082032.316406 2.230469.320312 3.316406.015625 16.988282-5.335937 33.050782-13.273437 47.613282-23.523437 31.605468-22.347657 48.316406-52.03125 48.316406-85.851563v-52.210937c0-2.402344-1.429688-4.570313-3.636719-5.515626zm-8.363281 57.726563c0 22.621094-8.179688 42.664063-24.363281 59.828125-.273438-3.191406-3.003907-5.605469-6.203125-5.484375-3.199219.117187-5.742188 2.730469-5.777344 5.929687v5.5c0 1.429688.511719 2.808594 1.441406 3.890626-2.554687 2.113281-5.242187 4.175781-8.066406 6.191406-13.082031 9.160156-27.417969 16.386718-42.5625 21.449218-14.53125-5.035156-28.246094-12.175781-40.703125-21.199218-2.597656-1.902344-5.078125-3.851563-7.441406-5.851563 1.285156-1.132812 2.019531-2.765625 2.019531-4.480469v-5.5c0-3.3125-2.6875-6-6-6s-6 2.6875-6 6v.484376c-16.167969-17.363282-24.34375-37.71875-24.34375-60.757813v-48.273437c29.6875-13.039063 57.859375-29.300782 84-48.488282 26.140625 19.1875 54.308594 35.445313 84 48.488282zm0 0"/><path d="m206.3125 164.507812c-3.316406 0-6 2.6875-6 6v5.5c0 3.316407 2.683594 6 6 6 3.3125 0 6-2.683593 6-6v-5.5c0-3.3125-2.6875-6-6-6zm0 0"/><path d="m224.199219 164.507812c-3.3125 0-6 2.6875-6 6v5.5c0 3.316407 2.6875 6 6 6s6-2.683593 6-6v-5.5c0-3.3125-2.6875-6-6-6zm0 0"/><path d="m236.085938 170.507812v5.5c0 3.316407 2.683593 6 6 6 3.3125 0 6-2.683593 6-6v-5.5c0-3.3125-2.6875-6-6-6-3.316407 0-6 2.6875-6 6zm0 0"/><path d="m188.425781 164.507812c-3.316406 0-6 2.6875-6 6v5.5c0 3.316407 2.683594 6 6 6 3.3125 0 6-2.683593 6-6v-5.5c0-3.3125-2.6875-6-6-6zm0 0"/><path d="m170.539062 164.507812c-3.3125 0-6 2.6875-6 6v5.5c0 3.316407 2.6875 6 6 6s6-2.683593 6-6v-5.5c0-3.3125-2.6875-6-6-6zm0 0"/><path d="m182.453125 103.210938c-1.507813-1.550782-3.734375-2.167969-5.824219-1.617188-2.09375.546875-3.726562 2.183594-4.277344 4.273438-.550781 2.09375.066407 4.316406 1.617188 5.828124l20.375 20.375c2.34375 2.34375 6.144531 2.34375 8.488281 0l35.824219-35.824218c1.546875-1.507813 2.167969-3.734375 1.617188-5.824219-.550782-2.09375-2.1875-3.726563-4.277344-4.277344-2.09375-.550781-4.316406.066407-5.828125 1.617188l-31.582031 31.582031zm0 0"/></g><path d="m47.464844 394.164062c-.585938-.601562-1.15625-1.21875-1.707032-1.855468-18.945312 2.074218-33.328124 18.019531-33.445312 37.074218v37.269532h10v-37.269532c.097656-15.875 10.167969-29.972656 25.152344-35.21875zm0 0" fill="#d4e1f4"/></svg>