<?xml version="1.0" standalone="no"?>
<!DOCTYPE svg PUBLIC "-//W3C//DTD SVG 20010904//EN"
 "http://www.w3.org/TR/2001/REC-SVG-20010904/DTD/svg10.dtd">
<svg version="1.0" xmlns="http://www.w3.org/2000/svg"
 width="128.000000pt" height="128.000000pt" viewBox="0 0 128.000000 128.000000"
 preserveAspectRatio="xMidYMid meet">
<metadata>
Created by potrace 1.16, written by Peter Selinger 2001-2019
</metadata>
<g transform="translate(0.000000,128.000000) scale(0.100000,-0.100000)"
fill="#000000" stroke="none">
<path d="M782 1098 c-26 -28 -62 -93 -62 -113 0 -3 45 -5 100 -5 55 0 100 2
100 5 0 30 -79 145 -99 145 -4 0 -21 -15 -39 -32z"/>
<path d="M226 800 l-141 -140 315 0 315 0 -141 140 c-125 124 -144 140 -174
140 -30 0 -49 -16 -174 -140z m216 83 c10 -9 18 -22 18 -30 0 -16 -32 -17 -48
-1 -9 9 -15 9 -24 -1 -11 -11 -9 -15 6 -25 68 -42 82 -72 49 -108 -29 -32
-103 -12 -103 29 0 16 32 17 48 1 9 -9 15 -9 25 1 10 11 8 15 -7 25 -46 28
-66 49 -66 68 0 50 64 76 102 41z"/>
<path d="M580 892 c0 -36 5 -54 20 -67 20 -18 20 -17 20 28 l0 47 80 0 80 0 0
-60 0 -60 40 0 40 0 0 60 0 60 80 0 80 0 0 -60 c0 -53 2 -60 20 -60 18 0 20 7
20 80 l0 80 -240 0 -240 0 0 -48z"/>
<path d="M734 690 c53 -57 59 -88 21 -125 l-24 -25 81 0 c60 0 79 3 75 13 -2
6 -17 51 -33 100 l-28 87 -69 0 -70 0 47 -50z"/>
<path d="M873 728 c2 -7 17 -52 33 -100 l28 -88 49 0 c35 0 48 4 44 13 -2 6
-17 51 -33 100 l-28 87 -49 0 c-35 0 -48 -4 -44 -12z"/>
<path d="M1013 728 c2 -7 17 -52 33 -100 l28 -88 49 0 c35 0 48 4 44 13 -2 6
-17 51 -33 100 l-28 87 -49 0 c-35 0 -48 -4 -44 -12z"/>
<path d="M60 612 c0 -29 29 -32 340 -32 311 0 340 3 340 32 0 4 -153 8 -340 8
-187 0 -340 -4 -340 -8z"/>
<path d="M80 520 c0 -11 9 -25 20 -32 18 -12 20 -24 20 -148 0 -124 -2 -136
-20 -148 -12 -7 -20 -23 -20 -40 0 -16 -8 -32 -20 -40 -13 -8 -20 -23 -20 -42
l0 -30 600 0 600 0 0 28 c0 51 -5 52 -272 52 l-248 0 0 30 c0 19 -7 34 -20 42
-18 12 -20 24 -20 148 0 124 2 136 20 148 11 7 20 21 20 32 0 18 -7 20 -80 20
-73 0 -80 -2 -80 -20 0 -11 9 -25 20 -32 18 -12 20 -24 20 -148 0 -124 -2
-136 -20 -148 -13 -8 -20 -23 -20 -42 0 -28 -2 -30 -40 -30 -38 0 -40 2 -40
30 0 19 -7 34 -20 42 -18 12 -20 24 -20 148 0 124 2 136 20 148 11 7 20 21 20
32 0 18 -7 20 -80 20 -73 0 -80 -2 -80 -20 0 -11 9 -25 20 -32 18 -12 20 -24
20 -148 0 -124 -2 -136 -20 -148 -13 -8 -20 -23 -20 -42 0 -28 -2 -30 -40 -30
-38 0 -40 2 -40 30 0 19 -7 34 -20 42 -18 12 -20 24 -20 148 0 124 2 136 20
148 11 7 20 21 20 32 0 18 -7 20 -80 20 -73 0 -80 -2 -80 -20z"/>
<path d="M742 470 c-19 -26 -22 -42 -22 -135 0 -92 3 -108 20 -125 11 -11 20
-27 20 -35 0 -13 28 -15 190 -15 l190 0 0 170 0 170 -188 0 -188 0 -22 -30z"/>
</g>
</svg>
