<?xml version="1.0"?>
<svg xmlns="http://www.w3.org/2000/svg" id="Layer_1" data-name="Layer 1" viewBox="0 0 512 512" width="512" height="512"><title>Corporate strategy</title><path d="M337.715,258.912a71.454,71.454,0,0,1,63.912-75.98q-3.636-.364-7.352-.368a71.433,71.433,0,0,0-71.264,76.348l1.012,14.672a39.343,39.343,0,0,1,14.07-9.2Z" style="fill:#d4e1f4"/><path d="M362.14,365.091a66.511,66.511,0,0,1-20.409-45.906,4.269,4.269,0,0,0-4.409-4.1h-1.287A14.01,14.01,0,0,1,322.2,301.067a15.454,15.454,0,0,1,.4-3.487,9.269,9.269,0,0,1,9.307-7.042,10.2,10.2,0,0,1,1.889.192,4.451,4.451,0,0,0,.82.094h.555c.007,0,.013-.016.02-.016s.031-.012.046-.012a4.517,4.517,0,0,0,.508-.04c.056-.007.111-.019.166-.028.141-.024.28-.055.417-.091.044-.012.089-.022.133-.036a4.254,4.254,0,0,0,.523-.192c.024-.01.046-.024.07-.035a4.291,4.291,0,0,0,.423-.226l.135-.085a4.338,4.338,0,0,0,.368-.27c.029-.023.059-.044.088-.069a4.449,4.449,0,0,0,.352-.336c.015-.016.028-.034.043-.051.034-.037.065-.077.1-.116q.146-.173.271-.356c.027-.041.055-.08.082-.121a4.409,4.409,0,0,0,.282-.513l.008-.015a30.321,30.321,0,0,1,27.532-17.583,65.6,65.6,0,0,0,48.4-21.13,74.269,74.269,0,0,1-1.485-15.929l-9.932,12.1a65.643,65.643,0,0,1-51.687,24.958,30.321,30.321,0,0,0-27.532,17.583l-.008.015a4.273,4.273,0,0,1-.283.513c-.026.041-.054.08-.081.121-.084.122-.175.241-.271.356-.033.039-.064.079-.1.116-.016.017-.028.035-.044.051a4.271,4.271,0,0,1-.351.336c-.029.025-.06.046-.089.069a4.183,4.183,0,0,1-.368.27c-.044.029-.089.057-.134.085a4.291,4.291,0,0,1-.423.226c-.024.011-.046.025-.07.035a4.254,4.254,0,0,1-.523.192c-.044.014-.089.024-.133.036-.137.036-.276.067-.417.091-.055.009-.11.021-.166.028a4.517,4.517,0,0,1-.508.04c-.015,0-.031.012-.046.012s-.014.016-.02.016H319.9a4.441,4.441,0,0,1-.82-.094,10.2,10.2,0,0,0-1.889-.192,9.269,9.269,0,0,0-9.307,7.042,15.454,15.454,0,0,0-.4,3.487,14.01,14.01,0,0,0,13.838,14.019h1.287a4.27,4.27,0,0,1,4.409,4.1,67.335,67.335,0,0,0,67.248,64.909,68.475,68.475,0,0,0,7.367-.41A66.926,66.926,0,0,1,362.14,365.091Z" style="fill:#d4e1f4"/><path d="M351.559,379.751a75.51,75.51,0,0,1-7.063-5.5,29.552,29.552,0,0,1-10.825-.168A29.071,29.071,0,0,1,310.454,345.6a29.207,29.207,0,0,1,8.216-20.206c-.076-.675-.162-1.347-.22-2.025a22.486,22.486,0,0,1-8.372-2.821,29.08,29.08,0,0,0,1.293,50.838,28.769,28.769,0,0,0,7.6,2.7,29.5,29.5,0,0,0,12.2-.1,4.422,4.422,0,0,1,5.342,3.741A29.11,29.11,0,0,0,351.9,399.744a28.935,28.935,0,0,0,7.672,2.7,30.26,30.26,0,0,0,6.57.581v-3.545A29.117,29.117,0,0,1,351.559,379.751Z" style="fill:#d4e1f4"/><path d="M322.766,444.578a35.349,35.349,0,0,0-7.354-6.821c-8.21,5.668-13.964,14.834-14.7,24.884v39.923h14.7V462.641A32.6,32.6,0,0,1,322.766,444.578Z" style="fill:#d4e1f4"/><path d="M353.577,462.086a42.956,42.956,0,0,0-14.386-28.477l32.6-11.791-3.1-4.2-44.208,15.988a42.951,42.951,0,0,1,14.385,28.477c.011.122.072.244.072.366v40.112h14.7V462.452C353.648,462.33,353.587,462.208,353.577,462.086Z" style="fill:#d4e1f4"/><path d="M71.209,462.856a44.417,44.417,0,0,0-13.3-28.17l7.257-2.61-.958-2.235a6.1,6.1,0,0,1-.325-.9L47.91,434.686a44.417,44.417,0,0,1,13.3,28.17c.014.165-.209.332-.209.5V493H71V463.354C71,463.188,71.223,463.021,71.209,462.856Z" style="fill:#d4e1f4"/><path d="M123.955,409.954a78.019,78.019,0,0,0,7.922-.411v-1.671a78.5,78.5,0,0,1-12.923,1.917C120.611,409.9,122.279,409.954,123.955,409.954Z" style="fill:#d4e1f4"/><path d="M106,434.147l-.009-24.608a78.579,78.579,0,0,1-10-1.678L96,434.147l17.95,20.942,5-5.833Z" style="fill:#d4e1f4"/><path d="M169.8,269.067a6,6,0,0,0-5.458-4.551c-28.365-1.738-45.926-6.662-56.939-15.965-9.834-8.309-15.191-20.485-20.509-38.314,6.335-3.362,19.782-9.5,35.245-10.669-19.48-1.542-37.576,6.6-45.245,10.669,5.318,17.829,10.675,30,20.509,38.314,11.013,9.3,28.574,14.227,56.939,15.965a6,6,0,0,1,5.458,4.551c.221.871,5.237,19.8,22.579,25.264l.355-5.154C173.083,281.485,169.974,269.749,169.8,269.067Z" style="fill:#d4e1f4"/><path d="M119.132,168.4a38.2,38.2,0,0,0-42.005,28.409,113.332,113.332,0,0,1,11.464-4.521A38.3,38.3,0,0,1,119.132,168.4Z" style="fill:#d4e1f4"/><path d="M122.24,187.521a65.342,65.342,0,0,1,27.1,7.736c.55.3,1.087.6,1.625.9a37.8,37.8,0,0,0-1.936-5.384A69.873,69.873,0,0,0,122.24,187.521Z" style="fill:#d4e1f4"/><path d="M69.262,225.518q-1.365-3.777-2.643-7.854a69.531,69.531,0,0,0-22.487,56.387l.218,3.154a87.849,87.849,0,0,1,9.807-13.316A69.327,69.327,0,0,1,69.262,225.518Z" style="fill:#d4e1f4"/><path d="M78.127,379.228a65.692,65.692,0,0,1-19.969-45.174,6.219,6.219,0,0,0-6-6.054H50.872a12.088,12.088,0,0,1-12.284-12.036,11.333,11.333,0,0,1,.352-2.812,7.684,7.684,0,0,1,7.789-5.789,8.9,8.9,0,0,1,1.6.34,6.427,6.427,0,0,0,1.115.3h.579a6.164,6.164,0,0,0,4.386-2.067,6.273,6.273,0,0,0,1.458-2.828C63.526,279.087,77.275,265.621,90,258.1q-1.93-1.594-3.673-3.331c-14.23,6.6-31.506,20.262-40.459,48.338a6.273,6.273,0,0,1-1.458,2.828A6.164,6.164,0,0,1,40.023,308h-.579a6.427,6.427,0,0,1-1.115-.3,8.9,8.9,0,0,0-1.6-.34,7.684,7.684,0,0,0-7.789,5.789,11.333,11.333,0,0,0-.352,2.812A12.088,12.088,0,0,0,40.872,328h1.289a6.219,6.219,0,0,1,6,6.054,65.995,65.995,0,0,0,65.8,63.838c1.68,0,3.347-.082,5.006-.208A65.617,65.617,0,0,1,78.127,379.228Z" style="fill:#d4e1f4"/><path d="M40.552,444.339a35.053,35.053,0,0,0-5.056-4.311A32.277,32.277,0,0,0,22,463.615V493H32V463.615A32.59,32.59,0,0,1,40.552,444.339Z" style="fill:#d4e1f4"/><path d="M371.549,7h-231.1A30.582,30.582,0,0,0,110,37.564v71.573C110,125.928,123.66,140,140.451,140h79.778l30.716,47.642A5.651,5.651,0,0,0,256,190h.009a5.645,5.645,0,0,0,5.061-2.38L291.47,140h80.081C388.341,140,402,125.927,402,109.137V37.564A30.582,30.582,0,0,0,371.549,7ZM390,109.137C390,119.31,381.724,128,371.551,128H288.166a5.818,5.818,0,0,0-5.07,2.585l-27.12,42.748L228.57,130.614A5.859,5.859,0,0,0,223.515,128H140.451C130.277,128,122,119.311,122,109.137V37.564A18.569,18.569,0,0,1,140.451,19h231.1A18.569,18.569,0,0,1,390,37.564Z" style="fill:#2f2f2f"/><path d="M232.419,49.953,198.825,83.546,180.9,65.625a6,6,0,0,0-8.484,8.486l22.164,22.163a6,6,0,0,0,8.484,0L240.9,58.438a6,6,0,0,0-8.484-8.485Z" style="fill:#2f2f2f"/><path d="M339.581,51.275a6,6,0,0,0-8.484,0L317.661,64.711,304.226,51.275a6,6,0,0,0-8.485,8.485l13.436,13.435L295.741,86.631a6,6,0,1,0,8.485,8.484L317.661,81.68,331.1,95.115a6,6,0,0,0,8.484-8.484L326.146,73.195,339.581,59.76A6,6,0,0,0,339.581,51.275Z" style="fill:#2f2f2f"/><path d="M440.236,409.715a39.59,39.59,0,0,0,19.653-23.987,40.041,40.041,0,0,0,10.547-.718A39.519,39.519,0,0,0,502,346.291c0-12.195-7.455-23.478-16.2-30.9a24.286,24.286,0,0,0,3.7-19.7,19.883,19.883,0,0,0-16.254-14.843l1.428-20.7a81.988,81.988,0,1,0-163.588,0l1.433,20.781a19.791,19.791,0,0,0-16.309,14.762,24.2,24.2,0,0,0,3.27,19.043,39.535,39.535,0,0,0,5.507,66.613,39.348,39.348,0,0,0,10.35,3.683,39.862,39.862,0,0,0,10.563.72,39.586,39.586,0,0,0,24.678,26.2c.7.251,1.421.469,2.141.68l-38.785,14a5.789,5.789,0,0,0-.648.277,44.532,44.532,0,0,0-24.3,35.953c-.014.165.016.332.016.5v35.533A6.036,6.036,0,0,0,294.927,505H491.2a5.932,5.932,0,0,0,5.8-6.113V463.354c0-.166.092-.333.079-.5A44.52,44.52,0,0,0,472.786,426.9a5.48,5.48,0,0,0-.622-.277l-38.986-14.073c.686-.2,1.377-.409,2.047-.649A39.483,39.483,0,0,0,440.236,409.715ZM341.718,206.747a69.989,69.989,0,0,1,120.987,52.571l-1.446,20.97c-13.525-1.83-23.6-7.055-29.988-15.577-13-17.328-7.294-43.221-7.238-43.47a6,6,0,0,0-10.483-5.16l-19.289,23.5-.064.078a55.407,55.407,0,0,1-43.645,21.091,40.914,40.914,0,0,0-26.708,9.945l-.785-11.378A69.292,69.292,0,0,1,341.718,206.747Zm-33.851,91.8a7.739,7.739,0,0,1,7.789-5.852,8.68,8.68,0,0,1,1.6.176,6,6,0,0,0,1.115.132h.574c.013,0,.026-.03.037-.03a5.942,5.942,0,0,0,.721-.064c.072-.009.144-.029.216-.041a5.631,5.631,0,0,0,.576-.127c.06-.016.118-.03.177-.048a6.04,6.04,0,0,0,.71-.261c.036-.016.07-.036.105-.053a6.056,6.056,0,0,0,.562-.3c.065-.04.131-.082.2-.124.164-.108.321-.224.475-.348.048-.038.1-.073.144-.113a6.108,6.108,0,0,0,.473-.452c.018-.02.034-.043.053-.063.051-.057.1-.118.149-.177q.188-.224.352-.462c.041-.06.083-.118.121-.179a6.125,6.125,0,0,0,.381-.692.139.139,0,0,0,.011-.021,28.8,28.8,0,0,1,26.149-16.694,67.339,67.339,0,0,0,53.016-25.595l7.214-8.789c.425,10.279,2.908,22.862,10.837,33.474,9.5,12.717,24.587,19.781,44.842,21,.058,0,.113.075.171.077s.125.085.188.085h.522a6.169,6.169,0,0,0,1.115-.18,7.924,7.924,0,0,1,9.39,5.764,13.191,13.191,0,0,1,.351,3.034A12.382,12.382,0,0,1,465.913,314h-1.238a5.9,5.9,0,0,0-6,5.688,65.836,65.836,0,0,1-131.592.008,5.907,5.907,0,0,0-6-5.7H319.8a12.4,12.4,0,0,1-12.285-12.4A13.337,13.337,0,0,1,307.867,298.544ZM447,463.354V493H339V463.354c0-.166-.05-.333-.063-.5a44.575,44.575,0,0,0-13.028-27.786l40.925-14.746L387,447.417v23.139a6,6,0,1,0,12,0V447.417l20.12-27.21,41.153,14.863a44.694,44.694,0,0,0-13.129,27.786C447.13,463.021,447,463.188,447,463.354Zm-36-52.171-18,24.182-18-24.182V393.128a78.612,78.612,0,0,0,36,.011Zm-74.438-32.918a6,6,0,0,0-7.25-5.089,27.916,27.916,0,0,1-11.57.1,27.39,27.39,0,0,1-7.189-2.56A27.547,27.547,0,0,1,308.591,323a24.09,24.09,0,0,0,6.863,2.38A77.97,77.97,0,0,0,363,389.239v12.979a23.483,23.483,0,0,1-4.626-.53,27.547,27.547,0,0,1-21.812-23.423ZM301,463.615a33.107,33.107,0,0,1,13-23.05,33.109,33.109,0,0,1,13,23.05V493H301Zm184,0V493H459V463.615a33.109,33.109,0,0,1,13-23.049A33.1,33.1,0,0,1,485,463.615ZM431.193,400.6a25.925,25.925,0,0,1-3.6,1.036,35.25,35.25,0,0,1-4.589.535V389.261a76.362,76.362,0,0,0,24.164-16,77.319,77.319,0,0,0,23.2-47.9,23.916,23.916,0,0,0,6.18-2.047c7.089,5.455,13.472,14.388,13.472,22.971a27.512,27.512,0,0,1-21.978,26.962,28.02,28.02,0,0,1-11.553-.1,6,6,0,0,0-7.252,5.089A27.53,27.53,0,0,1,431.193,400.6Z" style="fill:#004682FF"/><path d="M193.909,426.9a6.948,6.948,0,0,0-.72-.277L164,416.119v-3.381a5.825,5.825,0,0,0,.007-.835c-.007-.056.02-.112.01-.168a5.768,5.768,0,0,0-.167-.783c-.009-.03-.012-.058-.022-.088a6.133,6.133,0,0,0-.267-.674c-.025-.053-.047-.106-.073-.157a5.877,5.877,0,0,0-.4-.68c-.024-.034-.049-.066-.072-.1a5.878,5.878,0,0,0-.469-.577c-.025-.026-.047-.054-.072-.08a5.75,5.75,0,0,0-.6-.549c-.036-.029-.073-.055-.11-.083a6.075,6.075,0,0,0-.621-.412c-.033-.019-.064-.04-.1-.058a5.965,5.965,0,0,0-.612-.3l-12.382-5.1a77.9,77.9,0,0,0,43.336-62,24.307,24.307,0,0,0,19.191-29.677,19.881,19.881,0,0,0-16.254-14.845l1.428-20.7a81.631,81.631,0,0,0-17.456-56.463,78,78,0,0,0-14-13.578,50.183,50.183,0,0,0-100.3-.613,81.5,81.5,0,0,0-31.83,70.655l1.433,20.781a19.8,19.8,0,0,0-16.309,14.764,24.3,24.3,0,0,0,19.242,29.686,77.9,77.9,0,0,0,43.248,61.948l-12.308,5.069a5.886,5.886,0,0,0-3.588,5.588c0,.011.121.022.121.033v3.508L35.133,426.626a6.779,6.779,0,0,0-.71.277,44.6,44.6,0,0,0-24.371,35.953c-.014.165-.052.332-.052.5v35.533A6.1,6.1,0,0,0,16,505H212.271A5.874,5.874,0,0,0,218,498.887V463.354c0-.166.128-.332.115-.5A44.426,44.426,0,0,0,193.909,426.9ZM166,463.354V493H61V463.354c0-.166.223-.333.209-.5a44.412,44.412,0,0,0-13.3-28.17l15.974-5.743a6.1,6.1,0,0,0,.325.9L86.321,481.4a6.012,6.012,0,0,0,8.855,2.629l18.771-12.512,18.77,12.512a6,6,0,0,0,8.843-2.629l22.1-51.562a5.991,5.991,0,0,0,.328-1.022l15.726,5.674a44.6,44.6,0,0,0-13.655,28.363C166.044,463.021,166,463.188,166,463.354Zm-23.692-22.912c.1-.11.2-.222.291-.339l7.214-8.417-16.441,38.361-10.462-6.975Zm1.573-20.274,0-6.808,4.315,1.777Zm-12-12.3.01,26.29-17.938,20.927L96,434.147l-.01-26.286a78.167,78.167,0,0,0,35.888.011ZM85.364,440.181l.02.022,19.6,22.869-10.463,6.975-16.44-38.361Zm-1.371-20.04-4.336-5.058L83.99,413.3ZM182.5,255a70.181,70.181,0,0,1,1.274,19.054l-1.4,20.28c-17.342-5.465-22.358-24.393-22.579-25.264a6,6,0,0,0-5.458-4.551c-28.365-1.738-45.926-6.662-56.939-15.965-9.834-8.309-15.191-20.485-20.509-38.314,10.473-5.559,40.384-18.729,66.719-4.433,11.1,6.023,19.361,12.583,25.268,20.052A70.126,70.126,0,0,1,182.5,255Zm-68.368-86.923a38.257,38.257,0,0,1,36.827,28.085c-.538-.3-1.075-.6-1.625-.9-27.234-14.786-56.569-5.623-72.211,1.554A38.263,38.263,0,0,1,114.136,168.074Zm-47.517,49.59c3.367,10.7,7.029,19.82,11.985,27.469A83.79,83.79,0,0,0,44.35,277.205l-.218-3.154A69.531,69.531,0,0,1,66.619,217.664ZM48.158,334.054a6.219,6.219,0,0,0-6-6.054H40.872a12.088,12.088,0,0,1-12.284-12.036,11.333,11.333,0,0,1,.352-2.812,7.684,7.684,0,0,1,7.789-5.789,8.9,8.9,0,0,1,1.6.34,6.427,6.427,0,0,0,1.115.3h.579a6.164,6.164,0,0,0,4.386-2.067,6.273,6.273,0,0,0,1.458-2.828c8.953-28.076,26.229-41.74,40.459-48.338,12.215,12.164,30.907,19.051,63.2,21.47,3.327,8.858,13.327,28.694,37.285,31.466a6.468,6.468,0,0,0,1.081.3h.522a6.6,6.6,0,0,0,1.116-.314c3.687-.7,8.237.991,9.389,5.7a9.983,9.983,0,0,1,.351,2.633A12.044,12.044,0,0,1,186.986,328h-1.238a6.219,6.219,0,0,0-6,6.055,65.83,65.83,0,0,1-131.593,0ZM22,463.615a32.274,32.274,0,0,1,13.5-23.587C43.233,445.437,49,454.1,49,463.615V493H22ZM206,493H178V463.615a32.8,32.8,0,0,1,14-23.847,32.8,32.8,0,0,1,14,23.846Z" style="fill:#004682FF"/></svg>
