<?xml version="1.0" standalone="no"?>
<!DOCTYPE svg PUBLIC "-//W3C//DTD SVG 20010904//EN"
 "http://www.w3.org/TR/2001/REC-SVG-20010904/DTD/svg10.dtd">
<svg version="1.0" xmlns="http://www.w3.org/2000/svg"
 width="360.000000pt" height="360.000000pt" viewBox="0 0 360.000000 360.000000"
 preserveAspectRatio="xMidYMid meet">
<metadata>
Created by potrace 1.16, written by Peter Selinger 2001-2019
</metadata>
<g transform="translate(0.000000,360.000000) scale(0.100000,-0.100000)"
fill="#000000" stroke="none">
<path d="M1175 2869 c-341 -98 -623 -178 -627 -179 -5 0 -8 -56 -8 -125 l0
-125 1260 0 1260 0 0 125 0 124 -42 12 c-24 6 -302 85 -618 175 -316 91 -582
166 -590 168 -8 2 -294 -76 -635 -175z"/>
<path d="M627 2403 c-13 -12 -7 -40 14 -67 l20 -26 188 0 c209 0 221 4 221 68
l0 32 -218 0 c-120 0 -222 -3 -225 -7z"/>
<path d="M1260 2385 c0 -14 7 -37 16 -50 l16 -25 190 0 c185 0 190 1 209 23
10 12 18 34 19 50 l0 27 -225 0 -225 0 0 -25z"/>
<path d="M1890 2383 c1 -16 9 -38 19 -50 19 -22 24 -23 209 -23 l190 0 16 25
c9 13 16 36 16 50 l0 25 -225 0 -225 0 0 -27z"/>
<path d="M2530 2377 c0 -63 14 -67 223 -67 l186 0 21 27 c11 15 20 36 18 47
-3 20 -10 21 -225 24 l-223 2 0 -33z"/>
<path d="M660 2253 c0 -22 9 -49 20 -63 19 -24 20 -43 20 -409 0 -317 -2 -386
-14 -395 -8 -6 -17 -21 -21 -33 l-6 -23 190 0 c105 0 191 4 191 9 0 4 -9 20
-20 34 -19 24 -20 40 -20 409 0 365 1 384 20 413 11 17 20 45 20 63 l0 32
-190 0 -190 0 0 -37z m138 -364 c3 -295 -3 -449 -19 -449 -5 0 -9 155 -9 371
0 292 3 370 13 367 9 -4 13 -73 15 -289z m132 -79 c0 -322 -2 -370 -15 -370
-13 0 -15 47 -15 363 0 200 3 367 7 370 3 4 10 7 15 7 4 0 8 -166 8 -370z"/>
<path d="M1300 2246 c0 -26 6 -48 15 -56 13 -11 15 -68 15 -405 0 -337 -2
-394 -15 -405 -8 -7 -15 -21 -15 -31 0 -18 11 -19 185 -19 201 0 205 1 165 53
-19 24 -20 40 -20 399 0 355 1 375 20 406 11 18 20 48 20 67 l0 35 -185 0
-185 0 0 -44z"/>
<path d="M1930 2255 c0 -19 9 -49 20 -67 19 -31 20 -51 20 -406 0 -359 -1
-375 -20 -399 -40 -52 -36 -53 165 -53 174 0 185 1 185 19 0 10 -7 24 -15 31
-13 11 -15 68 -15 405 0 337 2 394 15 405 9 8 15 30 15 56 l0 44 -185 0 -185
0 0 -35z"/>
<path d="M2560 2258 c0 -18 9 -46 20 -63 19 -29 20 -48 20 -416 0 -318 -2
-389 -14 -398 -8 -6 -16 -21 -19 -31 -5 -19 1 -20 185 -20 l189 0 -6 23 c-4
12 -13 27 -21 33 -12 9 -14 78 -14 395 0 366 1 385 20 409 11 14 20 41 20 63
l0 37 -190 0 -190 0 0 -32z m138 -451 c2 -322 0 -367 -13 -367 -13 0 -15 47
-15 371 0 292 3 370 13 367 9 -4 13 -89 15 -371z m132 3 c0 -337 -6 -426 -24
-339 -8 40 -8 672 0 693 19 51 24 -18 24 -354z"/>
<path d="M637 1292 c-15 -10 -24 -22 -20 -26 10 -10 463 -6 463 4 0 5 -10 16
-22 24 -18 13 -56 16 -208 16 -162 0 -188 -2 -213 -18z"/>
<path d="M1267 1292 c-10 -10 -17 -21 -17 -25 0 -3 106 -6 235 -7 129 0 235 2
235 6 0 3 -10 14 -22 25 -21 16 -42 18 -219 19 -177 0 -197 -2 -212 -18z"/>
<path d="M1903 1291 c-13 -11 -23 -22 -23 -25 0 -4 106 -6 235 -6 129 1 235 5
235 9 0 4 -8 15 -18 24 -16 15 -46 17 -213 17 -175 -1 -196 -3 -216 -19z"/>
<path d="M2542 1294 c-12 -8 -22 -19 -22 -25 0 -10 453 -13 463 -2 4 3 -5 15
-20 25 -25 16 -51 18 -213 18 -152 0 -190 -3 -208 -16z"/>
<path d="M520 1155 l0 -75 -35 0 -35 0 0 -105 0 -105 1350 0 1350 0 0 105 0
105 -35 0 -35 0 0 75 0 75 -1280 0 -1280 0 0 -75z"/>
<path d="M900 708 c-52 -56 -13 -158 61 -158 71 0 109 108 56 158 -31 30 -89
30 -117 0z"/>
<path d="M1610 640 c0 -53 4 -90 10 -90 6 0 10 18 10 40 0 38 2 40 30 40 24 0
35 -8 56 -40 15 -22 31 -40 35 -40 15 0 10 15 -16 50 -24 33 -24 34 -5 47 22
16 26 53 8 71 -7 7 -38 12 -70 12 l-58 0 0 -90z"/>
</g>
</svg>
