<svg id="Layer_1" height="512" viewBox="0 0 512 512" width="512" xmlns="http://www.w3.org/2000/svg" data-name="Layer 1"><path d="m51.27 311.89h30l30.67-89.66h-30z" fill="#d4e1f4"/><path d="m51.27 311.89-35.27 103.11h30l35.206-102.923z" fill="#d4e1f4"/><g fill="#2f2f2f"><path d="m259.374 115.848a40.626 40.626 0 1 0 40.726 40.625 40.723 40.723 0 0 0 -40.726-40.625zm0 69.251a28.626 28.626 0 1 1 28.726-28.626 28.71 28.71 0 0 1 -28.726 28.627z"/><path d="m126.963 257.1a28.122 28.122 0 1 0 28.188 28.121 28.186 28.186 0 0 0 -28.188-28.121zm0 44.243a16.122 16.122 0 1 1 16.188-16.122 16.174 16.174 0 0 1 -16.188 16.126z"/><path d="m305.041 309.382a24.1 24.1 0 1 0 24.154 24.1 24.154 24.154 0 0 0 -24.154-24.1zm0 36.2a12.1 12.1 0 1 1 12.154-12.1 12.141 12.141 0 0 1 -12.154 12.099z"/><path d="m433.349 179.115a24.1 24.1 0 1 0 24.153 24.1 24.155 24.155 0 0 0 -24.153-24.1zm0 36.2a12.1 12.1 0 1 1 12.153-12.1 12.14 12.14 0 0 1 -12.153 12.1z"/></g><path d="m449.931 247.638-11.453 3.582 10.311 32.961-93.03.021-6.741-55.091 55.776-1.023-.22-12-120.342 2.212.22 12 52.5-.963 7.536 61.6a6 6 0 0 0 5.956 5.271l102.094-.023 15.062 48.122-130.569.221.02 12 134.3-.228 16.485 52.7h-226l-.029-52.537 13.4.2.178-12-19.494-.29a5.834 5.834 0 0 0 -4.3 1.727 6 6 0 0 0 -1.788 4.275l.03 58.625h-78.456l-.386-100.424-12 .047.386 100.377h-134.983l31.17-91.125 38.436-.117-.036-12-34.29.1 26.563-77.657 148.369-.974-.079-12-152.628 1a6 6 0 0 0 -5.638 4.059l-65.938 192.773a6 6 0 0 0 5.677 7.941h480a6 6 0 0 0 5.726-7.791z" fill="#004682FF"/><path d="m311.9 197.707a66.771 66.771 0 0 0 13.672-44.5 67.663 67.663 0 0 0 -19.571-43.4 64.164 64.164 0 0 0 -90.777 0 67.655 67.655 0 0 0 -19.57 43.39c-1.02 15.251 3.818 31.034 13.666 44.5l46.493 61.969a6 6 0 0 0 9.6 0zm-51.287 48.364-41.65-55.512c-8.142-11.133-12.168-24.117-11.335-36.567a55.664 55.664 0 0 1 16.093-35.708 52.165 52.165 0 0 1 73.783 0 55.68 55.68 0 0 1 16.1 35.725 54.789 54.789 0 0 1 -11.294 36.491z" fill="#2f2f2f"/><path d="m128.357 236.993c-25.465 0-46.74 20.361-48.435 46.342-.761 11.372 2.836 23.124 10.17 33.152l33.466 44.606a6 6 0 0 0 9.6 0l33.462-44.6a49.735 49.735 0 0 0 10.175-33.148c-1.695-25.991-22.973-46.352-48.438-46.352zm28.667 72.293-28.667 38.208-28.623-38.149c-5.627-7.7-8.412-16.649-7.838-25.219 1.126-17.27 15.073-35.133 36.461-35.133s35.335 17.863 36.463 35.15a37.764 37.764 0 0 1 -7.796 25.143z" fill="#2f2f2f"/><path d="m306.182 292.928c-21.409 0-39.294 17.106-40.718 38.934a42.656 42.656 0 0 0 8.536 27.853l27.381 36.5a6 6 0 0 0 9.6 0l27.377-36.489a41.785 41.785 0 0 0 8.542-27.849c-1.424-21.843-19.31-38.949-40.718-38.949zm22.582 59.586-22.582 30.1-22.538-30.039a30.606 30.606 0 0 1 -6.206-19.919c.889-13.629 11.884-27.725 28.744-27.725s27.855 14.1 28.745 27.742a29.815 29.815 0 0 1 -6.163 19.841z" fill="#2f2f2f"/><path d="m434.49 162.662c-21.409 0-39.294 17.107-40.718 38.934a42.645 42.645 0 0 0 8.537 27.852l27.381 36.5a6 6 0 0 0 9.6 0l27.377-36.489a41.791 41.791 0 0 0 8.542-27.85c-1.426-21.84-19.309-38.947-40.719-38.947zm22.582 59.585-22.582 30.1-22.539-30.04a30.609 30.609 0 0 1 -6.205-19.919c.889-13.628 11.883-27.725 28.744-27.725s27.854 14.1 28.744 27.741a29.8 29.8 0 0 1 -6.162 19.843z" fill="#2f2f2f"/></svg>
