<?xml version="1.0" standalone="no"?>
<!DOCTYPE svg PUBLIC "-//W3C//DTD SVG 20010904//EN"
 "http://www.w3.org/TR/2001/REC-SVG-20010904/DTD/svg10.dtd">
<svg version="1.0" xmlns="http://www.w3.org/2000/svg"
 width="217.000000pt" height="233.000000pt" viewBox="0 0 217.000000 233.000000"
 preserveAspectRatio="xMidYMid meet">
<metadata>
Created by potrace 1.16, written by Peter Selinger 2001-2019
</metadata>
<g transform="translate(0.000000,233.000000) scale(0.100000,-0.100000)"
fill="#000000" stroke="none">
<path d="M1080 1516 l-5 -89 -48 -12 c-67 -17 -118 -61 -142 -123 -17 -44 -24
-52 -46 -52 -19 0 -28 -6 -32 -21 -5 -19 -11 -21 -66 -17 l-61 4 0 -143 0
-143 65 0 64 0 3 73 3 72 30 0 30 0 3 -72 c3 -70 4 -73 27 -73 24 0 25 2 25
70 l0 70 35 0 35 0 0 -70 c0 -68 1 -70 25 -70 23 0 24 3 27 72 l3 73 30 0 30
0 3 -72 c3 -70 4 -73 27 -73 24 0 25 2 25 70 l0 70 35 0 35 0 1 -52 c1 -29 1
-61 0 -70 -2 -13 5 -18 23 -18 24 0 25 3 28 72 3 61 6 72 22 74 11 2 28 -2 39
-7 16 -9 18 -20 15 -75 l-3 -64 68 0 67 0 0 140 0 140 -27 2 c-16 0 -35 1 -43
0 -31 -3 -70 10 -70 24 0 9 -11 14 -29 14 -25 0 -30 5 -35 35 -13 65 -82 126
-163 143 l-38 8 -5 89 -6 90 -4 -89z"/>
<path d="M640 890 c0 -7 155 -10 445 -10 290 0 445 3 445 10 0 7 -155 10 -445
10 -290 0 -445 -3 -445 -10z"/>
<path d="M610 850 c0 -7 167 -10 481 -10 317 0 478 3 474 10 -4 6 -175 10
-481 10 -309 0 -474 -3 -474 -10z"/>
<path d="M575 810 c4 -6 187 -10 516 -10 333 0 509 3 509 10 0 7 -179 10 -516
10 -341 0 -513 -3 -509 -10z"/>
</g>
</svg>
