<?xml version="1.0"?>
<svg xmlns="http://www.w3.org/2000/svg" id="Layer_1" data-name="Layer 1" viewBox="0 0 512 512" width="512" height="512"><title>Gear</title><path d="M276.151,295.732a59.708,59.708,0,0,1-51.025-90.757,59.72,59.72,0,1,0,82.049,82.05A59.369,59.369,0,0,1,276.151,295.732Z" style="fill:#d4e1f4"/><path d="M447.249,197.572a6,6,0,0,0-10.035,0l-53.768,81.984a6.137,6.137,0,0,0-.262,6.217A6.071,6.071,0,0,0,388.463,289h45.868a188.129,188.129,0,0,1-64.316,117.562c-33.182,28.453-74.867,44.732-114.365,44.732-25.76,0-52.694-6.963-77.89-20.1a193.59,193.59,0,0,1-66.345-56.918,6,6,0,1,0-9.682,7.083,205.626,205.626,0,0,0,70.479,60.458c26.9,14.026,55.754,21.439,83.438,21.439,42.32,0,86.852-17.295,122.176-47.584A201.5,201.5,0,0,0,446.432,289H496a6.095,6.095,0,0,0,5.017-9.406ZM399.574,277l42.657-65.043L484.89,277Z" style="fill:#1ae5be"/><path d="M128.816,226.227A6.071,6.071,0,0,0,123.537,223H77.669a188.129,188.129,0,0,1,64.316-117.562c33.182-28.453,74.867-44.732,114.365-44.732,25.76,0,52.694,6.963,77.89,20.1a193.59,193.59,0,0,1,66.345,56.918,6,6,0,1,0,9.682-7.083,205.626,205.626,0,0,0-70.479-60.458c-26.9-14.026-55.754-21.439-83.438-21.439-42.32,0-86.852,17.3-122.176,47.584A201.491,201.491,0,0,0,65.569,223H16a6.095,6.095,0,0,0-5.017,9.406l53.768,82a6,6,0,0,0,10.035.015l53.768-82.02A6.062,6.062,0,0,0,128.816,226.227ZM69.769,300.043,27.11,235h85.316Z" style="fill:#1ae5be"/><path d="M279,371.65l2-20.726a96.778,96.778,0,0,0,24.708-10.378l15.943,13.211a6,6,0,0,0,8.069-.374l23.814-23.81a6,6,0,0,0,.378-8.069l-13.232-15.979a98.824,98.824,0,0,0,10.425-24.676l20.473-2A6,6,0,0,0,377,272.881V239.119a6,6,0,0,0-5.424-5.973l-20.765-2a96.879,96.879,0,0,0-10.4-24.708l13.2-15.943a6,6,0,0,0-.352-8.043l-23.512-23.813a6,6,0,0,0-8.1-.406l-15.98,13.233a98.772,98.772,0,0,0-24.671-10.424l-2-20.692a5.934,5.934,0,0,0-5.972-5.35H239.27a5.934,5.934,0,0,0-5.972,5.35l-2,20.726a96.793,96.793,0,0,0-24.708,10.378l-15.942-13.211a6,6,0,0,0-8.069.374l-23.814,23.81a6,6,0,0,0-.379,8.069l13.233,15.979a98.828,98.828,0,0,0-10.425,24.671l-20.768,2A6,6,0,0,0,135,239.119v33.762a6,6,0,0,0,5.424,5.973l20.765,2a96.879,96.879,0,0,0,10.4,24.708l-13.2,15.943a6,6,0,0,0,.379,8.07l23.814,23.813a6,6,0,0,0,8.069.379l15.979-13.233A98.788,98.788,0,0,0,231.3,350.958l2,20.692A5.934,5.934,0,0,0,239.27,377h33.761A5.934,5.934,0,0,0,279,371.65Zm-9.532-26.17L267.582,365H244.719l-1.888-19.52a5.958,5.958,0,0,0-4.7-5.251,86.9,86.9,0,0,1-28.762-12.121,6,6,0,0,0-7.08.43l-15.085,12.5L171.11,324.95,183.6,309.865a6,6,0,0,0,.371-7.155,84.3,84.3,0,0,1-12.09-28.686,6,6,0,0,0-5.289-4.7L147,267.432V244.568l19.6-1.887a6,6,0,0,0,5.289-4.705,86.965,86.965,0,0,1,12.139-28.762,6,6,0,0,0-.42-7.08L171.11,187.048,187.2,170.96l15.085,12.492a6,6,0,0,0,7.155.371,84.333,84.333,0,0,1,28.687-12.09,5.914,5.914,0,0,0,4.7-5.213L244.719,147h22.863l1.889,19.52a5.956,5.956,0,0,0,4.7,5.251,86.9,86.9,0,0,1,28.762,12.121,6,6,0,0,0,7.08-.43l15.058-12.475,15.837,16.037L328.4,202.135a6,6,0,0,0-.371,7.155,84.3,84.3,0,0,1,12.09,28.686,6,6,0,0,0,5.289,4.705l19.6,1.887v22.87l-19.3,1.882a6,6,0,0,0-5.282,4.7,86.944,86.944,0,0,1-12.139,28.762,6,6,0,0,0,.421,7.08l12.492,15.086L325.1,341.04l-15.085-12.492a6,6,0,0,0-7.156-.371,84.22,84.22,0,0,1-28.686,12.052A5.956,5.956,0,0,0,269.471,345.48Z" style="fill:#0635c9"/><path d="M327.883,256a71.733,71.733,0,1,0-71.732,71.732A71.813,71.813,0,0,0,327.883,256Zm-71.732,59.732A59.732,59.732,0,1,1,315.883,256,59.8,59.8,0,0,1,256.151,315.732Z" style="fill:#0635c9"/><path d="M256.151,212a44,44,0,1,0,44,44A44.049,44.049,0,0,0,256.151,212Zm0,76a32,32,0,1,1,32-32A32.036,32.036,0,0,1,256.151,288Z" style="fill:#0635c9"/></svg>
