<?xml version="1.0" standalone="no"?>
<!DOCTYPE svg PUBLIC "-//W3C//DTD SVG 20010904//EN"
 "http://www.w3.org/TR/2001/REC-SVG-20010904/DTD/svg10.dtd">
<svg version="1.0" xmlns="http://www.w3.org/2000/svg"
 width="200.000000pt" height="200.000000pt" viewBox="0 0 200.000000 200.000000"
 preserveAspectRatio="xMidYMid meet">
<metadata>
Created by potrace 1.16, written by Peter Selinger 2001-2019
</metadata>
<g transform="translate(0.000000,200.000000) scale(0.100000,-0.100000)"
fill="#000000" stroke="none">
<path d="M1042 1958 c-7 -7 -12 -27 -12 -44 l0 -33 -194 -3 c-107 -2 -198 -7
-202 -11 -14 -13 -17 -133 -5 -156 12 -21 12 -21 374 -19 450 4 436 -7 218
162 -82 64 -153 116 -158 116 -5 0 -14 -5 -21 -12z m133 -148 l78 -60 -282 0
-281 0 0 30 0 30 184 0 c101 0 191 3 200 6 9 3 16 17 16 30 0 13 2 24 4 24 2
0 38 -27 81 -60z"/>
<path d="M618 1623 c-25 -6 -29 -30 -10 -51 9 -11 79 -67 155 -126 117 -90
141 -104 158 -96 14 8 19 21 19 50 l0 40 198 2 197 3 3 86 c3 83 2 87 -20 93
-26 6 -674 6 -700 -1z m662 -93 l0 -30 -195 0 c-191 0 -194 0 -206 -22 -6 -13
-13 -24 -15 -26 -3 -4 -134 98 -134 104 0 2 124 4 275 4 l275 0 0 -30z"/>
<path d="M1504 1514 c-51 -18 -107 -70 -136 -127 -39 -77 -23 -203 34 -264 25
-27 25 -26 -28 -41 -98 -28 -124 -76 -124 -227 l0 -105 -55 0 c-43 0 -56 -4
-65 -19 -14 -27 -14 -625 0 -652 10 -18 24 -19 273 -19 191 0 266 3 275 12 8
8 12 50 12 125 l0 113 113 0 c75 0 117 4 125 12 18 18 17 617 -2 661 -19 45
-57 77 -116 97 -45 15 -49 19 -34 31 54 44 81 188 50 263 -51 121 -196 185
-322 140z m161 -63 c52 -23 113 -90 93 -102 -7 -5 -20 -9 -28 -9 -17 0 -86 32
-116 55 -19 14 -23 13 -54 -10 -39 -29 -100 -48 -124 -39 -14 6 -14 9 2 36 44
77 144 107 227 69z m-21 -147 c40 -18 69 -25 97 -22 35 3 39 1 39 -20 0 -28
-25 -78 -54 -110 -43 -48 -115 -68 -177 -52 -72 20 -139 98 -139 162 0 21 5
23 54 24 47 0 66 7 122 43 1 1 27 -11 58 -25z m-127 -286 c-57 -152 -56 -126
-9 -255 3 -10 -20 -13 -97 -13 l-101 0 0 101 c0 111 7 131 53 159 38 24 163
29 154 8z m118 -89 c17 -54 17 -56 -5 -118 -29 -77 -45 -76 -75 4 -24 65 -23
68 25 190 l12 30 13 -25 c7 -14 21 -50 30 -81z m169 91 c14 -5 34 -18 46 -30
19 -19 20 -31 20 -315 l0 -295 -90 0 -90 0 0 174 c0 103 -4 177 -10 181 -6 3
1 33 16 73 l25 67 -26 71 c-14 40 -25 75 -25 78 0 10 107 7 134 -4z m-184
-610 l0 -280 -215 0 -215 0 0 280 0 280 215 0 215 0 0 -280z"/>
<path d="M340 1491 c-73 -23 -136 -79 -165 -148 -19 -45 -19 -140 0 -186 8
-19 25 -48 39 -64 l25 -29 -44 -12 c-54 -14 -110 -68 -124 -119 -16 -56 -15
-625 1 -641 8 -8 47 -12 110 -12 l98 0 0 30 0 30 -75 0 -75 0 0 293 c0 325 0
326 66 353 33 14 134 20 134 8 0 -4 -11 -38 -25 -77 l-26 -70 47 -129 c26 -70
53 -136 60 -145 23 -32 44 -2 97 137 l50 135 -23 65 c-13 36 -25 71 -28 78 -7
19 106 16 148 -6 50 -24 60 -52 60 -164 l0 -98 -38 0 c-55 0 -62 -12 -62 -106
l0 -83 -42 -3 -43 -3 -3 -93 -3 -92 -49 0 c-55 0 -47 -14 -85 140 -27 113 -25
110 -105 110 l-70 0 0 -30 c0 -29 1 -30 49 -30 l49 0 36 -147 c61 -244 53
-223 86 -223 27 0 30 -3 30 -34 0 -46 34 -85 81 -92 28 -5 41 -1 67 21 26 22
32 34 32 66 l0 39 95 0 95 0 0 -25 c0 -124 171 -140 187 -18 5 36 9 42 32 45
26 3 26 4 26 88 l0 85 -57 3 -58 3 0 82 c0 95 -7 107 -62 107 l-37 0 -3 93 -3
92 -42 3 -43 3 0 106 c0 77 -4 114 -17 140 -18 39 -73 79 -121 89 -36 7 -40
15 -15 35 51 43 72 176 39 254 -47 112 -185 179 -296 146z m147 -77 c50 -24
98 -78 86 -97 -9 -16 -86 3 -119 28 -41 31 -59 31 -95 1 -32 -27 -105 -44
-121 -28 -15 15 59 90 107 107 57 20 84 18 142 -11z m61 -164 c39 0 42 -2 42
-27 0 -65 -75 -140 -157 -158 -91 -19 -213 75 -213 163 0 16 9 20 53 24 30 2
71 13 93 25 l39 20 50 -23 c27 -13 69 -24 93 -24z m-107 -333 l26 -72 -24 -65
c-14 -35 -28 -71 -32 -78 -12 -21 -65 132 -57 164 13 52 48 135 54 129 4 -4
19 -39 33 -78z m339 -322 l0 -65 -60 0 -60 0 0 65 0 65 60 0 60 0 0 -65z m-92
-187 l-3 -63 -60 0 -60 0 -3 63 -3 62 66 0 66 0 -3 -62z m182 -3 l0 -65 -60 0
-60 0 0 65 0 65 60 0 60 0 0 -65z m130 -155 l0 -30 -284 0 c-250 0 -285 2
-290 16 -17 45 -22 44 284 44 l290 0 0 -30z"/>
</g>
</svg>
