<svg id="Layer_1" height="512" viewBox="0 0 512 512" width="512" xmlns="http://www.w3.org/2000/svg" data-name="Layer 1"><path d="m48 269h30v116h-30z" fill="#d4e1f4"/><g fill="#2f2f2f"><path d="m416.945 16.046a96.6 96.6 0 0 0 -117.3 148.277 95.8 95.8 0 0 0 21.1 18.741l-2.776 34.791a6 6 0 0 0 8.835 5.755l45.56-24.635a96.477 96.477 0 0 0 93.049-127.129 95.934 95.934 0 0 0 -48.468-55.8zm-16.319 166.616a84.255 84.255 0 0 1 -29.516 4.28 6.039 6.039 0 0 0 -3.047.719l-37.25 20.139 2.187-27.4a6 6 0 0 0 -2.881-5.614 84.516 84.516 0 1 1 70.507 7.878z"/><path d="m429.812 58h-.138a6 6 0 0 0 0 12h.138a6 6 0 0 0 0-12z"/><path d="m360.827 70h50.46a6 6 0 0 0 0-12h-50.46a6 6 0 0 0 0 12z"/><path d="m317.972 70h17.745a6 6 0 0 0 0-12h-17.745a6 6 0 0 0 0 12z"/><path d="m429.812 84h-47.687a6 6 0 0 0 0 12h47.687a6 6 0 0 0 0-12z"/><path d="m337.468 90a6 6 0 0 0 6 6h20.27a6 6 0 0 0 0-12h-20.27a6 6 0 0 0 -6 6z"/><path d="m317.972 96h.386a6 6 0 0 0 0-12h-.386a6 6 0 0 0 0 12z"/><path d="m429.812 109h-47.687a6 6 0 0 0 0 12h47.687a6 6 0 0 0 0-12z"/><path d="m363.846 121a6 6 0 0 0 0-12h-.108a6 6 0 0 0 0 12z"/><path d="m317.972 121h20.764a6 6 0 0 0 0-12h-20.764a6 6 0 0 0 0 12z"/><path d="m429.812 134h-.138a6 6 0 0 0 0 12h.138a6 6 0 0 0 0-12z"/><path d="m411.4 134h-45.4a6 6 0 0 0 0 12h45.4a6 6 0 0 0 0-12z"/><path d="m341 134h-23.028a6 6 0 0 0 0 12h23.028a6 6 0 0 0 0-12z"/></g><path d="m47.583 391h44.563l8.754 109.429a5.981 5.981 0 0 0 5.974 5.5l75.032.072h.007a6.024 6.024 0 0 0 5.98-5.538l8.958-109.463h44.82c3.313 0 6.329-2.492 6.329-5.806v-115.81a6.627 6.627 0 0 0 -6.329-6.384h-35.812l2.631-37.428a93.429 93.429 0 0 0 30.021-68.107c0-.024 0 0 0-.024s0 0 0-.019c0-.147 0-.281 0-.428a93.891 93.891 0 1 0 -157.752 68.571l2.575 37.435h-35.751c-3.313 0-5.583 3.07-5.583 6.384v115.81a5.494 5.494 0 0 0 5.583 5.806zm64.838 103.064-4.01-50.064h72.08l-4.105 50.15zm69.052-62.064h-74.023l-3.265-41h80.626zm27.127-326a112.7 112.7 0 0 1 10.245 16h-148.435a112.7 112.7 0 0 1 10.245-16zm14.734 28a100.636 100.636 0 0 1 2.978 17h-163.369a100.536 100.536 0 0 1 2.978-17zm-160.317 29h163.221a82.063 82.063 0 0 1 -3.562 19h-156.097a82.063 82.063 0 0 1 -3.562-19zm133.821-69h-104.421a81.718 81.718 0 0 1 104.421 0zm-125.338 100h146.26a77.173 77.173 0 0 1 -11 16h-124.26a77.173 77.173 0 0 1 -11-16zm122.531 28c-13.742 11-30.857 16.63-49.4 16.63s-35.66-5.63-49.402-16.63zm-100.564 13.5a93.074 93.074 0 0 0 102.3-.033l-1.937 27.533h-98.469zm-39.467 39.5h182v104h-182z" fill="#b8001c"/><path d="m208.14 310h-33.6a35.235 35.235 0 0 0 -59.815 0h-33.61a6.175 6.175 0 0 0 -6.115 6.089v22.4c0 3.311 2.8 5.511 6.115 5.511h33.605c6.381 11 17.736 16.606 29.907 16.606s23.527-5.606 29.908-16.606h33.6c3.314 0 5.86-2.2 5.86-5.511v-22.4a5.959 5.959 0 0 0 -5.855-6.089zm-6.14 22h-31a6.235 6.235 0 0 0 -5.41 3.649 23.13 23.13 0 0 1 -41.925-.061 6.175 6.175 0 0 0 -5.41-3.588h-31.255v-10h31.255a5.959 5.959 0 0 0 5.41-3.36 23.265 23.265 0 0 1 41.925-.011 5.968 5.968 0 0 0 5.41 3.371h31z" fill="#b8001c"/></svg>