<?xml version="1.0" standalone="no"?>
<!DOCTYPE svg PUBLIC "-//W3C//DTD SVG 20010904//EN"
 "http://www.w3.org/TR/2001/REC-SVG-20010904/DTD/svg10.dtd">
<svg version="1.0" xmlns="http://www.w3.org/2000/svg"
 width="300.000000pt" height="168.000000pt" viewBox="0 0 300.000000 168.000000"
 preserveAspectRatio="xMidYMid meet">
<metadata>
Created by potrace 1.16, written by Peter Selinger 2001-2019
</metadata>
<g transform="translate(0.000000,168.000000) scale(0.100000,-0.100000)"
fill="#000000" stroke="none">
<path d="M2556 1213 c-15 -38 -37 -174 -30 -186 4 -6 3 -9 -1 -4 -5 4 -14 -7
-19 -25 -6 -18 -21 -37 -34 -43 -12 -6 -20 -16 -17 -23 3 -8 5 -18 5 -23 0
-14 26 -11 40 6 7 8 23 15 36 15 20 0 24 5 24 28 0 15 -5 33 -12 40 -9 9 -9
12 0 12 7 0 9 7 5 17 -5 12 -2 15 9 10 14 -5 18 6 23 66 8 84 5 119 -11 124
-6 2 -15 -4 -18 -14z"/>
<path d="M925 1080 c-4 -6 -4 -34 -1 -63 l5 -52 -10 43 c-9 36 -14 43 -32 40
-21 -3 -22 -8 -19 -78 2 -78 27 -174 42 -165 5 3 12 0 16 -6 5 -8 3 -9 -6 -4
-10 6 -12 2 -7 -16 4 -13 7 -31 7 -39 3 -45 21 47 25 123 3 58 11 104 24 133
15 33 18 51 11 69 -10 26 -43 34 -55 15z"/>
<path d="M1554 959 c-8 -14 5 -171 17 -190 8 -12 10 -12 20 1 8 11 9 0 4 -42
-6 -57 -6 -58 18 -58 14 0 28 6 31 13 3 6 5 -2 3 -19 -3 -26 0 -30 15 -26 22
5 42 38 33 52 -3 6 -15 10 -25 10 -21 0 -30 24 -56 160 -20 101 -39 133 -60
99z"/>
<path d="M2337 885 c-15 -36 -21 -41 -42 -37 -20 3 -27 -1 -35 -23 -14 -37
-12 -92 4 -145 8 -25 15 -43 17 -40 1 3 9 48 18 100 12 69 20 95 31 96 8 1 25
2 38 3 19 1 22 5 17 21 -5 16 -2 20 18 20 14 0 31 8 38 17 12 15 12 16 -5 10
-14 -5 -17 -3 -12 8 4 12 -3 15 -32 13 -35 -1 -40 -5 -55 -43z"/>
<path d="M1388 870 c4 -25 2 -29 -13 -24 -15 6 -16 4 -6 -14 9 -18 9 -22 -2
-22 -13 0 -16 -25 -6 -45 9 -17 10 -167 1 -161 -15 9 -44 -185 -30 -199 3 -4
9 4 13 17 8 24 23 58 70 163 26 55 28 58 35 35 5 -14 8 -19 9 -12 2 26 20 10
27 -23 3 -20 12 -35 20 -35 8 0 14 -5 14 -11 0 -6 -9 -9 -20 -6 -25 6 -25 5 0
-42 20 -41 40 -54 66 -44 9 3 20 0 24 -7 5 -8 7 0 6 21 -2 19 -4 50 -5 69 -2
19 -5 29 -8 23 -8 -20 -31 -15 -38 8 -4 11 -9 18 -12 15 -8 -7 -33 13 -33 26
0 6 7 5 16 -2 13 -12 14 -10 3 16 -7 16 -22 42 -32 57 -16 23 -17 33 -8 59 6
17 9 33 7 36 -13 12 -49 -14 -67 -50 -11 -22 -23 -38 -26 -35 -2 3 0 15 6 26
7 12 9 49 7 88 -2 37 -5 76 -5 86 -1 9 -5 17 -9 17 -5 0 -7 -14 -4 -30z"/>
<path d="M1021 718 c-30 -70 -16 -161 41 -270 l46 -87 -5 -123 c-3 -68 -9
-130 -14 -138 -6 -10 -8 -3 -9 22 0 20 -5 40 -12 44 -6 4 -8 3 -5 -3 7 -11
-41 -28 -51 -18 -3 3 3 5 14 5 17 1 17 2 2 10 -17 11 -48 4 -48 -11 0 -5 -10
-7 -22 -6 -25 4 -24 -10 -12 231 5 112 4 147 -4 142 -7 -4 -12 -16 -12 -27 0
-10 -7 -19 -15 -19 -17 0 -20 -16 -5 -25 15 -9 2 -25 -15 -18 -18 6 -20 -13
-2 -21 10 -5 10 -7 0 -12 -20 -9 -15 -24 7 -24 11 0 20 -5 20 -10 0 -6 -5 -9
-11 -8 -6 2 -13 -9 -14 -24 -3 -20 0 -25 11 -21 15 6 17 -8 4 -47 -4 -14 -8
-19 -9 -12 -1 7 -5 11 -10 8 -5 -3 -7 -16 -4 -29 3 -16 2 -18 -5 -9 -7 11 -10
11 -15 -2 -4 -9 1 -16 11 -18 13 -3 12 -5 -5 -10 -16 -4 -23 -2 -23 8 0 8 -4
14 -9 14 -5 0 -7 -9 -4 -20 6 -21 -13 -28 -20 -7 -4 14 -21 -33 -41 -120 l-14
-63 145 0 c127 0 147 2 159 18 13 16 13 16 14 0 0 -13 8 -18 28 -18 39 0 41 5
25 53 -16 45 -11 163 8 198 5 11 7 24 4 29 -3 6 -2 10 2 10 11 0 16 52 15 164
0 83 2 90 26 113 26 24 37 69 27 110 -5 20 -8 21 -26 10 -17 -10 -22 -9 -34 7
-13 17 -15 15 -26 -28 -21 -84 -42 -75 -49 22 -4 53 -9 67 -23 70 -12 3 -22
-9 -36 -40z"/>
<path d="M2343 743 c-3 -10 -14 -38 -24 -62 -22 -51 -24 -67 -6 -74 6 -3 1 -6
-12 -6 -21 -1 -23 -4 -17 -35 4 -20 2 -37 -4 -41 -5 -3 -10 -18 -10 -32 0 -18
4 -24 15 -19 8 3 15 1 15 -5 0 -6 5 -7 11 -3 7 4 10 -1 7 -12 -2 -11 -13 -20
-26 -22 -32 -5 -40 -26 -48 -135 -6 -86 -5 -100 11 -117 19 -20 8 -29 -12 -9
-7 7 -13 -9 -18 -58 -3 -37 -9 -79 -12 -92 l-6 -24 92 5 c91 5 116 12 95 26
-17 11 -2 37 21 37 17 0 20 6 18 43 -2 38 0 43 15 37 31 -12 37 -10 36 13 0
12 -1 76 -2 142 l-2 120 -40 0 c-35 0 -40 3 -40 23 0 13 -3 18 -8 10 -4 -6
-20 -16 -35 -22 -25 -10 -27 -9 -26 17 2 54 17 138 39 210 17 58 19 76 10 88
-16 19 -29 18 -37 -3z"/>
<path d="M1280 368 c-1 -5 -4 -20 -5 -35 -2 -16 -6 -48 -8 -73 -3 -25 -7 -52
-10 -60 -6 -17 -16 -82 -23 -152 l-5 -48 62 0 61 0 -6 37 c-4 21 -9 103 -11
182 -2 79 -7 146 -10 149 -5 5 -9 -33 -6 -51 1 -5 -4 -7 -11 -5 -7 3 -16 18
-19 34 -4 16 -8 26 -9 22z"/>
<path d="M1800 190 c0 -11 -4 -20 -10 -20 -5 0 -10 7 -10 16 0 9 -6 14 -12 11
-7 -2 -12 -12 -12 -21 2 -13 -5 -17 -25 -16 -52 4 -51 4 -49 -75 1 -41 6 -75
11 -75 5 0 21 8 35 18 50 34 62 35 62 2 0 -22 5 -30 18 -29 11 0 12 2 4 6 -10
4 -10 8 -1 19 8 10 8 14 0 14 -6 0 -11 5 -11 11 0 7 10 9 25 7 13 -3 26 -1 28
5 2 6 15 2 30 -8 15 -9 27 -13 28 -9 3 23 -4 71 -12 86 -8 15 -50 43 -76 51
-4 1 -7 8 -5 15 2 6 -2 12 -8 12 -5 0 -10 -9 -10 -20z"/>
</g>
</svg>
