<svg id="Layer_1" height="512" viewBox="0 0 512 512" width="512" xmlns="http://www.w3.org/2000/svg" data-name="Layer 1"><path d="m29.04 236h-.04v235.29a29.717 29.717 0 0 0 9.53 22.02l20.837-17.245-.367-213.065z" fill="#d4e1f4"/><g fill="#1ae5be"><path d="m209.125 75.639a13.054 13.054 0 0 0 0 14.389l2.849 4.322a1.082 1.082 0 0 1 .175.647l-.288 5.224a13.068 13.068 0 0 0 7.157 12.385l4.631 2.34a1.071 1.071 0 0 1 .473.473l2.339 4.63a13.048 13.048 0 0 0 12.385 7.158l5.226-.288a1.089 1.089 0 0 1 .647.176l4.321 2.848a13.057 13.057 0 0 0 14.389 0l4.32-2.848a1.054 1.054 0 0 1 .649-.176l5.225.288a13.048 13.048 0 0 0 12.385-7.158l2.338-4.629a1.075 1.075 0 0 1 .474-.474l4.63-2.34a13.068 13.068 0 0 0 7.158-12.384l-.288-5.222a1.076 1.076 0 0 1 .176-.647l2.848-4.32a13.056 13.056 0 0 0 0-14.39l-2.848-4.32a1.075 1.075 0 0 1 -.176-.649l.288-5.225a13.069 13.069 0 0 0 -7.157-12.384l-4.63-2.339a1.068 1.068 0 0 1 -.474-.473l-2.339-4.632a13.062 13.062 0 0 0 -12.385-7.157l-5.226.288a1.068 1.068 0 0 1 -.647-.176l-4.321-2.848a13.054 13.054 0 0 0 -14.389 0l-4.321 2.848a1.069 1.069 0 0 1 -.648.176l-5.225-.288a13.056 13.056 0 0 0 -12.385 7.157l-2.339 4.632a1.074 1.074 0 0 1 -.473.472l-4.631 2.34a13.068 13.068 0 0 0 -7.157 12.384l.287 5.224a1.059 1.059 0 0 1 -.175.649zm10.018 6.605 2.848-4.32a13.154 13.154 0 0 0 2.139-7.913l-.287-5.226a1.07 1.07 0 0 1 .586-1.014l4.632-2.339a12.992 12.992 0 0 0 5.772-5.773l2.339-4.631a1.06 1.06 0 0 1 1.015-.587l5.224.288a13.123 13.123 0 0 0 7.914-2.138l4.32-2.849a1.07 1.07 0 0 1 1.179 0l4.321 2.849a13.118 13.118 0 0 0 7.912 2.138l5.225-.288a1.061 1.061 0 0 1 1.015.587l2.339 4.632a12.992 12.992 0 0 0 5.773 5.772l4.631 2.339a1.073 1.073 0 0 1 .586 1.015l-.287 5.224a13.164 13.164 0 0 0 2.138 7.914l2.849 4.321a1.069 1.069 0 0 1 0 1.178l-2.849 4.32a13.159 13.159 0 0 0 -2.138 7.913l.287 5.225a1.073 1.073 0 0 1 -.586 1.015l-4.631 2.339a12.984 12.984 0 0 0 -5.773 5.773l-2.339 4.631a1.062 1.062 0 0 1 -1.015.587l-5.224-.288a13.142 13.142 0 0 0 -7.914 2.138l-4.32 2.849a1.07 1.07 0 0 1 -1.179 0l-4.32-2.849a13.168 13.168 0 0 0 -7.209-2.158q-.353 0-.7.02l-5.225.288a1.06 1.06 0 0 1 -1.015-.587l-2.339-4.631a13.16 13.16 0 0 0 -5.773-5.773l-4.631-2.339a1.071 1.071 0 0 1 -.586-1.015l.288-5.226a13.163 13.163 0 0 0 -2.139-7.912l-2.849-4.32a1.07 1.07 0 0 1 -.004-1.179z"/><path d="m256 111.272a28.439 28.439 0 1 0 -28.439-28.439 28.471 28.471 0 0 0 28.439 28.439zm0-44.872a16.439 16.439 0 1 1 -16.439 16.438 16.457 16.457 0 0 1 16.439-16.438z"/><path d="m340.059 193h-11.152a6 6 0 1 0 0 12h11.152a6 6 0 0 0 0-12z"/><path d="m172.41 205h133.659a6 6 0 0 0 0-12h-133.659a6 6 0 1 0 0 12z"/><path d="m198.9 165a6 6 0 0 0 6 6h134.325a6 6 0 0 0 0-12h-134.325a6 6 0 0 0 -6 6z"/><path d="m172.41 171h9.652a6 6 0 0 0 0-12h-9.652a6 6 0 1 0 0 12z"/><path d="m215.023 233a6 6 0 0 0 6 6h118.2a6 6 0 0 0 0-12h-118.2a6 6 0 0 0 -6 6z"/><path d="m172.41 239h25.007a6 6 0 1 0 0-12h-25.007a6 6 0 1 0 0 12z"/><path d="m340.059 258h-26.507a6 6 0 0 0 0 12h26.507a6 6 0 0 0 0-12z"/><path d="m172.41 270h118.3a6 6 0 0 0 0-12h-118.3a6 6 0 1 0 0 12z"/><path d="m340.059 289h-116.337a6 6 0 1 0 0 12h116.337a6 6 0 0 0 0-12z"/><path d="m200.116 289h-27.706a6 6 0 1 0 0 12h27.706a6 6 0 0 0 0-12z"/><path d="m149 35a6 6 0 0 0 -6 6v8a6 6 0 0 0 12 0v-8a6 6 0 0 0 -6-6z"/><path d="m149 61a6 6 0 0 0 -6 6v67a6 6 0 0 0 12 0v-67a6 6 0 0 0 -6-6z"/></g><path d="m486.893 230.875-90.014-72.832-7.515 9.332 84.824 68.574-144.709 130.216-50.306-41.665a36.035 36.035 0 0 0 -45.894-.023l-50.786 41.973-144.893-130.35 85.809-69.383-7.545-9.331-90.757 73.489a5.891 5.891 0 0 0 -2.107 4.666v235.749a35.588 35.588 0 0 0 35.759 35.71h394.482a35.588 35.588 0 0 0 35.759-35.71v-235.749a5.891 5.891 0 0 0 -2.107-4.666zm-447.704 254.112a23.76 23.76 0 0 1 -4.189-13.697v-221.606l138.324 124.494zm19.57 10.013a23.766 23.766 0 0 1 -10.431-2.243l192.6-159.1a24.028 24.028 0 0 1 30.6.051l192.17 159.023a23.765 23.765 0 0 1 -10.457 2.269zm414.064-10.029-134.175-111.071 138.352-124.543v221.933a23.766 23.766 0 0 1 -4.177 13.681z" fill="#0635c9"/><path d="m392.828 5h-273.186a5.462 5.462 0 0 0 -5.642 5.71v294.29l12 11v-299h261v298l12-10v-294.29a5.91 5.91 0 0 0 -6.172-5.71z" fill="#1ae5be"/></svg>