<?xml version="1.0" standalone="no"?>
<!DOCTYPE svg PUBLIC "-//W3C//DTD SVG 20010904//EN"
 "http://www.w3.org/TR/2001/REC-SVG-20010904/DTD/svg10.dtd">
<svg version="1.0" xmlns="http://www.w3.org/2000/svg"
 width="256.000000pt" height="197.000000pt" viewBox="0 0 256.000000 197.000000"
 preserveAspectRatio="xMidYMid meet">
<metadata>
Created by potrace 1.16, written by Peter Selinger 2001-2019
</metadata>
<g transform="translate(0.000000,197.000000) scale(0.100000,-0.100000)"
fill="#000000" stroke="none">
<path d="M0 1465 c0 -278 2 -505 5 -505 3 0 21 9 41 19 21 12 30 21 22 24 -7
3 10 6 37 6 36 1 46 4 35 11 -13 8 -12 10 3 10 9 0 17 7 17 16 0 12 9 15 43
13 32 -2 51 3 70 18 15 11 23 23 20 27 -3 3 1 6 10 6 10 0 14 5 11 14 -5 12 3
14 38 11 27 -3 38 -1 29 4 -11 7 -10 10 5 14 12 3 7 5 -13 6 -17 0 -34 -3 -38
-8 -3 -6 -14 -8 -24 -6 -11 2 -22 -3 -25 -11 -3 -8 -11 -14 -18 -13 -10 0 -10
2 0 6 6 2 12 11 12 19 0 23 44 34 136 34 76 0 84 2 84 19 0 11 -6 22 -12 24
-7 3 2 4 19 4 19 -1 33 -7 33 -14 0 -7 5 -13 10 -13 6 0 8 11 4 25 -5 20 -3
24 9 19 8 -3 18 0 22 5 4 8 -21 11 -82 10 -102 -1 -155 8 -129 23 12 7 16 24
16 68 0 57 -1 60 -25 60 -14 0 -25 5 -25 10 0 7 65 10 188 8 l187 -3 3 -69 3
-68 35 7 c20 3 41 2 48 -4 10 -8 19 15 40 104 16 64 35 122 43 130 8 8 32 15
54 15 21 0 70 5 109 12 64 11 70 14 81 42 l11 31 13 -31 c13 -28 20 -32 84
-42 38 -7 90 -12 115 -12 25 0 46 -2 46 -5 0 -2 7 -30 16 -62 8 -32 16 -70 18
-85 1 -15 6 -31 10 -35 5 -4 5 15 2 42 l-6 50 18 -40 c10 -24 25 -41 36 -43
15 -3 18 -1 10 10 -6 7 -11 42 -13 78 l-3 65 34 13 c43 15 48 15 48 -2 0 -8
-11 -17 -25 -20 -33 -8 -32 -28 2 -24 37 4 41 -19 4 -27 -25 -5 -31 -12 -31
-32 0 -21 3 -24 23 -19 12 3 26 6 30 6 5 0 5 6 2 13 -4 6 1 3 10 -8 16 -19 17
-19 15 10 -5 77 0 115 15 115 8 0 15 -6 15 -12 0 -7 9 -2 19 11 21 28 28 20
36 -40 11 -75 15 -90 26 -83 7 4 7 -1 0 -15 -7 -11 -16 -21 -22 -21 -6 0 -7
-5 -3 -11 4 -8 9 -8 17 0 6 6 15 11 20 11 5 0 2 -7 -7 -15 -20 -21 -33 -19
-47 6 -8 15 -8 19 0 15 14 -9 14 -5 0 48 -14 55 -39 58 -39 5 0 -21 5 -41 11
-44 6 -4 -1 -13 -16 -21 -33 -17 -35 -17 -35 -3 0 5 5 7 10 4 6 -3 10 -1 10 5
0 12 -50 3 -65 -13 -7 -7 -4 -8 9 -3 11 4 22 3 25 -2 3 -5 22 -13 41 -17 33
-7 34 -6 15 9 -16 13 -17 15 -4 16 9 0 28 -9 42 -20 21 -17 27 -18 37 -5 15
19 39 8 51 -23 12 -30 18 -26 21 14 2 25 6 29 27 28 15 0 26 -7 26 -15 0 -8
-5 -13 -11 -12 -6 1 -11 -3 -12 -10 0 -7 -4 -22 -7 -34 -5 -14 -3 -23 4 -23 5
0 8 7 5 15 -4 10 0 15 15 15 12 0 21 5 21 11 0 5 -5 7 -12 3 -7 -5 -8 -3 -3 5
10 18 27 -2 19 -22 -3 -9 -10 -17 -16 -17 -5 0 -6 -5 -3 -10 4 -6 12 -4 21 5
12 11 14 26 9 56 -6 32 -4 40 6 37 7 -2 17 -19 21 -36 11 -43 40 -34 31 10 -5
24 -3 30 8 26 8 -2 18 -27 23 -54 11 -59 12 -60 29 -46 8 7 17 9 20 5 4 -3 -1
-12 -11 -20 -9 -8 -11 -11 -3 -7 11 5 13 3 8 -12 -7 -18 -7 -18 8 0 24 31 19
65 -10 72 -14 3 -25 10 -25 15 0 6 9 5 20 -1 17 -9 20 -8 20 10 0 15 -7 20
-25 20 -26 0 -35 18 -12 24 6 2 26 8 44 13 31 11 31 10 22 -15 -13 -34 -5 -38
15 -7 18 27 46 34 46 11 0 -8 -7 -16 -15 -20 -21 -8 -19 -23 5 -29 10 -3 22
-17 26 -33 5 -21 2 -31 -14 -45 -27 -21 -29 -34 -4 -18 14 9 23 9 38 0 17 -11
17 -11 -5 -5 -17 4 -21 3 -16 -6 5 -9 27 -11 69 -8 33 3 52 3 42 0 -13 -3 -15
-6 -7 -12 7 -4 -18 -10 -57 -14 -38 -4 -82 -11 -98 -16 -23 -7 -19 -8 18 -4
42 6 120 8 173 5 11 -1 25 -11 30 -23 14 -31 62 -31 93 0 46 48 93 182 63 182
-14 0 -14 20 -1 40 16 25 28 -5 23 -58 -5 -54 -38 -146 -59 -163 -17 -14 -19
-33 -1 -23 6 4 4 -2 -6 -13 -18 -21 -18 -22 5 -36 12 -7 35 -21 51 -31 15 -9
27 -23 27 -32 0 -8 4 -12 10 -9 6 3 7 -1 4 -9 -3 -9 -10 -16 -16 -16 -5 0 -7
4 -3 9 3 5 1 12 -3 15 -7 4 -9 -28 -3 -42 4 -9 41 22 41 35 0 12 3 13 13 4 35
-28 37 2 37 491 l0 478 -1280 0 -1280 0 0 -505z m272 432 c-24 -25 -32 -42
-32 -69 0 -44 -12 -54 -72 -63 l-48 -7 0 50 0 50 55 7 c46 5 59 12 77 36 12
16 29 29 37 29 10 0 4 -11 -17 -33z m716 -26 c3 -26 0 -32 -11 -28 -9 3 -27
-9 -47 -34 -26 -33 -34 -38 -46 -28 -12 10 -20 7 -43 -15 -25 -24 -29 -25 -41
-11 -11 14 -8 21 25 55 31 31 42 37 56 29 14 -7 21 -5 29 10 7 13 7 22 0 26
-15 9 -12 25 6 25 8 0 13 -4 9 -9 -3 -5 0 -13 6 -17 8 -4 9 -3 5 4 -4 7 -2 12
4 12 6 0 8 5 4 11 -4 7 2 9 17 7 19 -2 25 -10 27 -37z m432 -11 c8 -16 7 -26
-7 -45 -23 -32 -40 -32 -19 0 9 13 16 28 16 34 0 15 -32 22 -46 10 -16 -13
-19 -43 -4 -34 6 3 10 1 10 -4 0 -6 -7 -11 -15 -11 -18 0 -20 41 -3 58 19 19
56 14 68 -8z m602 8 c-8 -10 3 -12 53 -10 52 3 75 -1 123 -23 59 -26 122 -79
109 -91 -3 -4 -26 11 -51 33 -66 58 -183 91 -226 63 -11 -7 -11 -10 -2 -10 7
0 11 -4 8 -9 -7 -11 -44 -3 -53 12 -3 6 4 19 17 29 26 21 37 24 22 6z m-1625
-25 c12 8 51 -19 42 -28 -4 -3 -14 1 -23 10 -14 14 -16 15 -16 1 0 -24 -26 -8
-27 17 -2 15 0 18 6 8 5 -7 13 -11 18 -8z m759 -18 c-5 -14 -9 -15 -21 -5 -17
14 -21 35 -5 25 6 -3 10 -1 10 6 0 10 3 10 11 2 7 -7 9 -19 5 -28z m-553 -15
c-3 -11 -10 -20 -15 -20 -6 0 -7 7 -4 16 3 9 6 20 6 25 0 6 4 8 9 5 5 -3 7
-15 4 -26z m-259 -14 c10 -16 13 -25 7 -22 -6 4 -11 0 -11 -8 0 -9 -7 -16 -15
-16 -8 0 -15 -5 -15 -11 0 -8 -4 -8 -15 1 -12 10 -15 7 -21 -15 l-7 -27 -20
20 c-26 27 -16 56 17 48 27 -7 84 18 67 29 -6 3 -11 13 -11 22 0 9 1 14 3 12
2 -2 11 -17 21 -33z m35 -11 c0 -5 -6 -1 -14 9 -8 11 -15 24 -15 30 0 5 7 1
15 -10 8 -10 14 -23 14 -29z m749 21 c3 -12 -1 -17 -10 -14 -7 3 -15 13 -16
22 -3 12 1 17 10 14 7 -3 15 -13 16 -22z m-18 -29 c0 -5 -4 -5 -10 -2 -5 3
-10 1 -10 -4 0 -6 -8 -3 -19 7 -16 15 -16 18 -3 29 12 10 18 9 28 -5 7 -9 14
-21 14 -25z m-579 -25 c65 3 100 -27 98 -86 l-2 -41 -7 44 c-8 52 -30 71 -82
71 -96 0 -162 -86 -108 -140 11 -11 16 -20 11 -20 -17 0 -41 31 -42 53 -2 42
2 52 37 84 30 27 34 34 25 52 -6 11 -11 26 -10 33 0 7 8 -2 16 -19 16 -31 20
-33 64 -31z m1370 29 c33 -33 35 -50 14 -91 -23 -44 -46 -52 -99 -38 -43 11
-47 11 -73 -13 -47 -42 -60 -50 -77 -43 -29 11 -17 34 38 69 47 30 55 39 54
65 -2 73 88 106 143 51z m-853 -3 c17 -17 15 -24 -13 -42 -22 -15 -24 -15 -18
0 5 14 3 14 -15 3 -11 -7 -19 -17 -16 -21 3 -4 -2 -5 -12 -1 -13 5 -15 2 -9
-18 8 -24 7 -24 -13 -6 -20 18 -20 18 -18 -7 4 -32 -5 -33 -23 -4 -12 19 -11
23 10 39 13 10 27 15 31 13 4 -3 8 -1 8 5 0 5 9 8 19 6 14 -3 18 1 14 11 -6
17 1 18 30 3 18 -9 20 -9 10 2 -24 25 -9 41 15 17z m262 -39 c0 -10 -5 -21
-10 -24 -6 -4 -18 -25 -27 -48 -9 -22 -18 -36 -20 -30 -2 6 5 29 16 51 16 32
18 42 8 50 -10 8 -19 0 -36 -34 -13 -24 -28 -44 -32 -44 -15 0 -10 16 11 35
11 10 20 26 20 36 0 25 40 52 57 37 7 -6 13 -19 13 -29z m103 16 c4 -8 3 -16
-1 -19 -13 -8 -35 11 -28 23 10 15 23 14 29 -4z m141 -80 c4 -35 3 -46 -5 -38
-5 5 -11 24 -11 42 -1 18 -6 31 -14 31 -8 0 -12 -11 -10 -32 2 -18 1 -24 -1
-13 -3 11 -9 24 -14 30 -13 13 -11 39 3 53 20 20 45 -16 52 -73z m-1154 49 c0
-2 -7 -4 -15 -4 -8 0 -15 4 -15 10 0 5 7 7 15 4 8 -4 15 -8 15 -10z m1001 -36
c-2 -7 -6 -28 -9 -46 -2 -18 -8 -35 -13 -38 -11 -7 -11 3 0 44 5 17 8 32 6 32
-2 0 -10 3 -18 6 -11 4 -17 -4 -22 -25 -4 -17 -11 -34 -17 -38 -8 -4 -9 0 -3
13 5 10 9 30 9 44 1 36 25 53 51 35 11 -7 18 -19 16 -27z m67 30 c7 -7 12 -35
11 -62 -1 -47 -1 -48 -10 -21 -5 17 -7 35 -5 42 3 6 -2 14 -10 17 -11 4 -14
-5 -14 -39 0 -25 -4 -45 -10 -45 -5 0 -7 13 -4 29 3 16 1 32 -5 35 -11 7 -3
37 13 48 15 10 20 10 34 -4z m962 -8 c0 -4 9 -10 20 -13 11 -3 20 -12 20 -21
0 -9 4 -16 9 -16 29 0 -10 -121 -43 -133 -18 -7 -9 -55 13 -66 21 -12 46 7 47
36 1 13 -2 21 -5 18 -11 -6 -36 13 -28 22 13 13 42 -13 45 -41 2 -14 -3 -33
-12 -41 -16 -17 -66 -20 -66 -5 0 19 -25 10 -35 -12 -27 -60 -122 -35 -118 32
2 31 25 59 51 60 6 0 12 4 12 10 0 5 -7 7 -15 4 -13 -5 -16 -1 -15 21 1 3 -6
13 -15 21 -11 12 -13 20 -5 29 8 10 7 15 -2 18 -10 5 -9 9 3 19 8 7 18 21 22
31 3 9 13 17 22 17 8 0 15 4 15 9 0 4 18 8 40 8 22 0 40 -3 40 -7z m-1532 -32
c15 -15 16 -32 2 -23 -5 3 -10 1 -10 -5 0 -6 -4 -9 -9 -6 -5 3 -12 -1 -15 -10
-3 -8 -10 -12 -16 -9 -5 3 -10 -1 -10 -9 0 -9 -9 -16 -20 -16 -15 0 -20 7 -20
25 0 14 4 25 9 25 5 0 7 -9 4 -20 -3 -11 0 -20 6 -20 6 0 12 6 12 13 1 6 2 17
3 24 1 11 35 42 47 43 3 0 10 -5 17 -12z m-118 -18 c0 -21 -20 -29 -20 -7 0 6
-16 -5 -35 -25 -33 -36 -62 -109 -50 -128 3 -6 1 -10 -4 -10 -32 0 4 114 48
154 16 15 18 21 9 28 -8 5 -1 8 20 8 25 0 32 -4 32 -20z m-229 -12 l0 -23 9
23 c14 34 20 26 20 -29 0 -31 -4 -48 -10 -44 -5 3 -10 15 -10 26 0 10 -6 19
-13 19 -22 0 -26 -10 -17 -41 5 -16 5 -29 0 -29 -5 0 -11 14 -15 30 -5 21 -13
30 -26 30 -23 0 -36 27 -21 42 9 9 16 7 30 -5 20 -19 37 -23 27 -7 -7 12 2 30
16 30 5 0 9 -10 10 -22z m1687 -56 c2 -7 -7 -12 -22 -12 -17 0 -26 -5 -26 -16
0 -12 7 -14 31 -9 24 6 30 4 27 -6 -3 -8 -15 -15 -27 -17 -16 -3 -21 -9 -19
-25 2 -18 9 -21 32 -19 19 2 27 -1 24 -9 -5 -15 -60 -32 -69 -21 -11 12 -29
126 -22 133 9 8 44 17 57 15 6 -1 12 -8 14 -14z m-1860 1 c-10 -2 -26 -2 -35
0 -10 3 -2 5 17 5 19 0 27 -2 18 -5z m1752 -2 c0 -5 -9 -11 -20 -14 -30 -8
-26 -39 5 -35 13 2 25 -1 27 -7 2 -5 -8 -11 -20 -13 -19 -3 -23 -8 -18 -25 3
-12 6 -26 6 -30 0 -4 9 -3 20 3 16 8 20 8 20 -4 0 -20 -39 -41 -51 -29 -13 13
-33 127 -26 147 7 16 57 23 57 7z m-86 -54 c-9 -26 -12 -56 -9 -79 7 -39 -11
-56 -21 -20 -2 9 -16 38 -29 65 -14 26 -25 52 -25 57 0 20 20 10 34 -17 l14
-27 16 38 c21 52 39 37 20 -17z m-100 11 c30 -43 14 -138 -23 -138 -24 0 -51
46 -51 87 0 33 25 73 45 73 8 0 21 -10 29 -22z m-156 0 c9 -9 12 -9 12 0 0 7
6 12 14 12 13 0 26 -48 26 -102 0 -21 5 -28 20 -28 11 0 20 -4 20 -10 0 -11
-48 -26 -56 -17 -3 2 -9 33 -13 68 -5 35 -9 52 -10 37 -1 -21 -7 -29 -26 -34
-14 -3 -25 -11 -25 -18 0 -29 14 -55 33 -65 l22 -11 -22 5 c-18 5 -20 2 -16
-15 3 -11 0 -20 -6 -20 -6 0 -8 7 -4 17 5 12 3 14 -8 8 -8 -4 -11 -5 -7 0 4 4
4 13 -1 19 -5 6 -17 42 -25 80 -13 56 -14 71 -4 78 19 12 62 10 76 -4z m-1705
-26 c-2 -6 16 -9 43 -8 48 3 68 -14 45 -37 -10 -9 -15 -8 -24 4 -11 14 -14 14
-26 2 -9 -10 -17 -11 -23 -5 -6 6 -17 8 -24 5 -10 -4 -14 4 -14 27 0 21 4 30
13 27 6 -2 11 -9 10 -15z m307 -21 l115 3 2 -35 c2 -32 2 -32 -7 -9 -10 25
-12 25 -120 25 -66 0 -110 -4 -110 -10 0 -5 -7 -2 -14 8 -12 16 -15 16 -18 3
-2 -11 -7 -13 -18 -6 -12 8 -13 12 -2 19 11 7 11 9 -2 14 -12 5 -16 0 -17 -16
0 -21 -1 -21 -8 -2 -11 26 -4 37 20 30 11 -4 19 -2 19 5 0 6 10 1 23 -10 20
-19 32 -21 137 -19z m210 5 c0 -8 -12 -17 -26 -20 -30 -8 -39 -3 -31 16 7 18
57 22 57 4z m1875 -6 c11 -17 -5 -32 -21 -19 -7 6 -11 15 -8 20 7 12 21 11 29
-1z m-265 -88 c0 -19 -32 -102 -40 -102 -4 0 -10 17 -14 38 -11 66 -9 72 24
72 17 0 30 -4 30 -8z m-2000 -52 c0 -20 -5 -30 -15 -30 -10 0 -15 10 -15 30 0
20 5 30 15 30 10 0 15 -10 15 -30z m-105 11 c-3 -5 -1 -12 4 -15 5 -4 11 2 13
11 3 15 6 15 17 -6 11 -20 11 -26 -3 -39 -15 -15 -16 -15 -16 1 0 11 -5 14
-17 10 -10 -4 -14 -2 -10 4 4 6 2 13 -5 15 -13 5 -2 28 13 28 6 0 8 -4 4 -9z
m707 -15 c3 -14 2 -30 -2 -36 -4 -6 -7 5 -8 25 -2 40 4 46 10 11z m-645 -23
c-3 -10 -5 -4 -5 12 0 17 2 24 5 18 2 -7 2 -21 0 -30z m198 17 c4 -6 -22 -10
-72 -9 -57 1 -70 3 -48 9 45 11 113 11 120 0z m1812 -67 c15 -20 6 -43 -18
-43 -10 0 -19 3 -20 8 -5 51 -4 59 11 54 8 -2 20 -11 27 -19z m-2080 -103 c-6
-25 8 -26 22 -2 9 15 12 15 21 2 5 -8 10 -10 10 -4 0 6 7 11 15 11 9 0 14 -9
13 -22 -2 -17 -7 -20 -27 -17 -16 3 -22 1 -17 -7 4 -6 2 -11 -3 -11 -6 0 -11
4 -11 9 0 5 -9 7 -20 4 -22 -6 -36 17 -26 42 8 23 29 18 23 -5z m175 -11 c-6
-25 -22 -34 -23 -13 0 17 -1 16 -9 -4 -8 -19 -13 -21 -30 -12 -11 6 -20 19
-20 28 0 15 8 18 43 17 30 -1 41 -6 39 -16z m2082 -7 c2 -4 -4 -8 -14 -8 -10
0 -16 4 -14 8 3 4 9 8 14 8 5 0 11 -4 14 -8z m-2100 -64 c3 -13 0 -27 -6 -33
-8 -7 -9 -5 -5 8 4 9 3 17 -2 17 -4 0 -8 7 -8 15 0 23 14 18 21 -7z m-44 2 c0
-5 -2 -10 -4 -10 -3 0 -8 5 -11 10 -3 6 -1 10 4 10 6 0 11 -4 11 -10z"/>
<path d="M136 1834 c-3 -9 -6 -27 -6 -40 0 -23 2 -24 38 -18 47 8 48 9 55 34
7 26 -8 26 -27 -1 -16 -24 -31 -19 -39 11 -5 21 18 30 25 9 2 -7 9 -5 17 5 12
14 9 16 -22 16 -23 0 -37 -6 -41 -16z"/>
<path d="M246 1751 c-4 -5 -2 -12 3 -15 5 -4 12 -2 15 3 4 5 2 12 -3 15 -5 4
-12 2 -15 -3z"/>
<path d="M1075 1790 c3 -5 8 -10 11 -10 2 0 4 5 4 10 0 6 -5 10 -11 10 -5 0
-7 -4 -4 -10z"/>
<path d="M1792 1767 c-12 -13 -22 -29 -22 -36 0 -21 48 -61 73 -61 53 0 77 75
35 104 -32 22 -61 20 -86 -7z"/>
<path d="M1740 1670 c-8 -5 -10 -10 -5 -10 6 0 17 5 25 10 8 5 11 10 5 10 -5
0 -17 -5 -25 -10z"/>
<path d="M2360 1693 c0 -8 -8 -13 -17 -11 -10 2 -18 -3 -18 -10 0 -7 -4 -16
-10 -20 -13 -9 -17 -62 -4 -62 5 0 9 -8 7 -17 -2 -12 3 -17 15 -15 9 2 17 -1
17 -7 0 -5 16 -9 35 -8 19 1 35 5 35 9 0 4 9 8 20 8 13 0 18 5 14 15 -4 9 0
15 8 15 19 0 20 57 2 64 -8 3 -11 12 -7 22 5 14 3 16 -11 11 -10 -4 -19 -1
-22 7 -7 17 -64 17 -64 -1z m74 -55 c25 -40 -37 -75 -79 -45 -17 13 -18 18 -7
42 10 22 18 26 44 23 17 -2 36 -11 42 -20z"/>
<path d="M2373 1643 c-20 -7 -15 -31 8 -44 25 -13 43 0 37 27 -3 19 -23 27
-45 17z"/>
<path d="M2380 1529 c0 -8 9 -25 19 -38 l19 -25 -5 27 c-6 29 -33 60 -33 36z"/>
<path d="M2303 1506 c-6 -8 -9 -17 -6 -20 4 -3 1 -6 -5 -6 -8 0 -8 -8 -1 -30
6 -16 15 -28 19 -25 5 3 11 1 14 -4 9 -15 45 -1 51 20 4 10 10 19 15 19 11 0
1 30 -14 45 -17 16 -60 16 -73 1z m62 -36 c0 -20 -5 -25 -25 -25 -28 0 -41 32
-18 46 23 15 43 5 43 -21z"/>
<path d="M2334 1476 c-8 -22 -2 -27 16 -16 12 7 12 12 3 21 -10 10 -14 9 -19
-5z"/>
<path d="M480 1630 c0 -5 5 -10 11 -10 5 0 7 5 4 10 -3 6 -8 10 -11 10 -2 0
-4 -4 -4 -10z"/>
<path d="M1904 1527 c-9 -24 0 -80 14 -85 8 -2 12 10 12 42 0 45 -15 70 -26
43z"/>
<path d="M1730 1523 c0 -17 19 -35 29 -29 18 12 12 36 -9 36 -11 0 -20 -3 -20
-7z"/>
<path d="M1141 1568 c-1 -9 -11 -19 -23 -21 -13 -2 -6 -5 17 -5 22 -1 35 2 29
6 -6 4 -14 14 -17 22 -4 12 -6 12 -6 -2z"/>
<path d="M1058 1533 c7 -3 16 -2 19 1 4 3 -2 6 -13 5 -11 0 -14 -3 -6 -6z"/>
<path d="M963 1523 c9 -2 25 -2 35 0 9 3 1 5 -18 5 -19 0 -27 -2 -17 -5z"/>
<path d="M1180 1505 c0 -5 -3 -21 -7 -35 -6 -21 -4 -23 9 -13 12 10 15 10 15
-2 0 -7 -5 -13 -11 -12 -6 1 -12 -15 -14 -35 -2 -21 1 -38 7 -38 5 0 8 10 6
23 -4 19 -2 20 8 7 15 -19 88 -20 110 -2 9 8 18 22 20 33 4 16 5 15 5 -3 0
-45 4 -42 23 17 10 32 17 60 16 61 -9 8 -187 7 -187 -1z"/>
<path d="M900 1508 c0 -2 6 -36 14 -76 13 -71 25 -101 27 -71 1 8 5 3 9 -11 7
-23 8 -23 9 -3 1 18 7 21 41 20 32 -2 40 -6 41 -22 1 -17 2 -17 7 3 4 13 10
23 15 23 4 -1 12 -1 17 -1 6 0 11 -17 11 -37 1 -21 6 -1 10 44 6 51 5 92 -1
108 -9 24 -12 25 -105 25 -52 0 -95 -1 -95 -2z"/>
<path d="M1150 1499 c0 -6 -7 -9 -14 -6 -10 4 -13 1 -10 -8 7 -17 34 -8 34 11
0 8 -2 14 -5 14 -3 0 -5 -5 -5 -11z"/>
<path d="M1387 1500 c-11 -24 -27 -103 -26 -130 0 -24 0 -24 14 -6 8 11 16 31
16 45 1 18 4 14 9 -14 6 -33 7 -35 8 -10 1 50 -14 131 -21 115z"/>
<path d="M871 1427 c-23 -120 -23 -123 -12 -107 5 8 7 18 4 24 -3 5 -1 6 5 3
5 -4 8 -17 5 -30 -4 -18 -3 -19 6 -7 9 13 11 13 11 1 0 -11 3 -12 11 -4 7 7 7
35 -1 94 -6 46 -13 85 -14 86 -1 2 -8 -25 -15 -60z"/>
<path d="M1135 1400 c0 -16 3 -31 6 -34 3 -3 5 7 5 23 -1 16 -3 32 -6 35 -3 3
-5 -8 -5 -24z"/>
<path d="M410 1400 c0 -5 10 -9 22 -7 16 1 24 -4 26 -18 2 -18 10 -20 62 -20
55 0 60 2 60 23 0 12 5 22 10 22 6 0 10 -5 10 -11 0 -20 29 -39 59 -39 23 0
31 -5 34 -22 2 -13 5 -2 6 23 1 34 -3 48 -15 53 -27 10 -274 7 -274 -4z"/>
<path d="M1331 1344 c0 -11 3 -14 6 -6 3 7 2 16 -1 19 -3 4 -6 -2 -5 -13z"/>
<path d="M413 1320 l2 -35 132 -2 c72 0 136 -4 141 -7 5 -3 9 1 9 9 0 13 -17
20 -39 16 -5 0 -8 4 -8 9 0 7 -7 7 -21 -1 -15 -8 -19 -8 -15 0 4 6 3 11 -3 11
-5 0 -12 -4 -16 -9 -3 -5 -18 -6 -33 -2 -15 4 -38 6 -52 5 -14 -1 -31 5 -39
14 -12 15 -13 15 -8 -5 3 -16 1 -20 -10 -16 -8 3 -12 12 -9 19 3 8 1 14 -4 14
-6 0 -10 -8 -11 -17 -1 -12 -4 -10 -9 7 -8 22 -9 21 -7 -10z"/>
<path d="M1570 1336 c0 -2 7 -7 16 -10 8 -3 12 -2 9 4 -6 10 -25 14 -25 6z"/>
<path d="M931 1314 c0 -11 3 -14 6 -6 3 7 2 16 -1 19 -3 4 -6 -2 -5 -13z"/>
<path d="M2045 1295 c3 -22 5 -48 5 -57 0 -10 5 -18 11 -18 7 0 9 9 6 21 -3
12 0 22 9 26 21 8 17 33 -5 33 -11 0 -22 8 -25 18 -3 9 -3 -1 -1 -23z"/>
<path d="M1689 1293 c-13 -17 -13 -17 6 -3 11 8 22 16 24 17 2 2 0 3 -6 3 -6
0 -17 -8 -24 -17z"/>
<path d="M1753 1278 c2 -12 10 -24 18 -26 12 -3 12 -2 0 6 -7 6 -9 11 -3 13 6
2 4 9 -4 17 -12 11 -13 9 -11 -10z"/>
<path d="M911 1264 c0 -11 3 -14 6 -6 3 7 2 16 -1 19 -3 4 -6 -2 -5 -13z"/>
<path d="M1900 1269 c0 -6 7 -8 16 -5 15 6 15 4 3 -11 -8 -9 -9 -14 -2 -10 6
4 14 1 16 -5 3 -7 6 -1 6 15 1 21 -4 27 -19 27 -11 0 -20 -5 -20 -11z"/>
<path d="M638 1253 c7 -3 16 -2 19 1 4 3 -2 6 -13 5 -11 0 -14 -3 -6 -6z"/>
<path d="M1705 1250 c-3 -5 -1 -10 4 -10 6 0 11 5 11 10 0 6 -2 10 -4 10 -3 0
-8 -4 -11 -10z"/>
<path d="M520 1194 c0 -8 5 -12 10 -9 6 4 8 11 5 16 -9 14 -15 11 -15 -7z"/>
<path d="M1997 1199 c7 -7 15 -10 18 -7 3 3 -2 9 -12 12 -14 6 -15 5 -6 -5z"/>
<path d="M2073 1203 c9 -2 23 -2 30 0 6 3 -1 5 -18 5 -16 0 -22 -2 -12 -5z"/>
<path d="M490 1140 c0 -5 5 -10 11 -10 5 0 7 5 4 10 -3 6 -8 10 -11 10 -2 0
-4 -4 -4 -10z"/>
<path d="M621 1134 c0 -11 3 -14 6 -6 3 7 2 16 -1 19 -3 4 -6 -2 -5 -13z"/>
<path d="M2194 1141 c3 -5 15 -7 26 -4 28 7 25 13 -6 13 -14 0 -23 -4 -20 -9z"/>
<path d="M335 1110 c-3 -5 -1 -10 4 -10 6 0 11 5 11 10 0 6 -2 10 -4 10 -3 0
-8 -4 -11 -10z"/>
<path d="M2327 1112 c-13 -3 -15 -8 -7 -21 5 -10 6 -21 3 -25 -3 -3 -4 -6 -1
-6 3 0 12 8 19 17 10 11 10 14 2 9 -8 -4 -13 -2 -13 4 0 7 6 10 13 8 6 -3 12
-9 12 -14 0 -5 10 -22 22 -38 l23 -29 -2 27 c-1 15 -8 32 -15 38 -9 7 -10 15
-4 22 9 11 -15 15 -52 8z m58 -42 c3 -5 1 -10 -4 -10 -6 0 -11 5 -11 10 0 6 2
10 4 10 3 0 8 -4 11 -10z"/>
<path d="M360 1096 c0 -2 7 -7 16 -10 8 -3 12 -2 9 4 -6 10 -25 14 -25 6z"/>
<path d="M301 1076 c2 -2 20 -6 39 -10 25 -4 31 -3 20 4 -14 9 -69 15 -59 6z"/>
<path d="M335 1040 c-3 -5 -1 -10 4 -10 6 0 11 5 11 10 0 6 -2 10 -4 10 -3 0
-8 -4 -11 -10z"/>
<path d="M2350 1030 c-9 -6 -10 -10 -3 -10 6 0 15 5 18 10 8 12 4 12 -15 0z"/>
<path d="M252 1000 c0 -14 2 -19 5 -12 2 6 2 18 0 25 -3 6 -5 1 -5 -13z"/>
<path d="M2347 995 c-4 -8 -3 -16 1 -19 4 -3 9 4 9 15 2 23 -3 25 -10 4z"/>
<path d="M2406 994 c-4 -9 -4 -19 -1 -22 3 -3 5 0 5 7 0 6 10 16 23 21 22 9
22 9 1 9 -12 1 -25 -6 -28 -15z"/>
<path d="M2434 965 c8 -8 18 -15 22 -15 3 0 1 7 -6 15 -7 8 -17 15 -22 15 -5
0 -3 -7 6 -15z"/>
<path d="M2541 954 c0 -11 3 -14 6 -6 3 7 2 16 -1 19 -3 4 -6 -2 -5 -13z"/>
<path d="M2496 943 c-6 -14 -5 -15 5 -6 7 7 10 15 7 18 -3 3 -9 -2 -12 -12z"/>
<path d="M665 768 c-3 -8 -4 -29 -3 -48 3 -28 -1 -36 -24 -47 -17 -9 -29 -25
-33 -44 -6 -27 -10 -30 -33 -24 -34 8 -59 45 -32 45 16 0 12 56 -5 70 -13 11
-20 11 -39 0 -18 -9 -29 -9 -44 -1 -31 17 -42 14 -53 -15 -8 -21 -6 -31 8 -46
17 -19 17 -21 -7 -40 -18 -14 -24 -29 -23 -55 1 -20 -6 -54 -14 -77 -8 -23
-17 -70 -19 -106 -4 -57 0 -73 26 -125 l29 -60 -20 -18 c-12 -9 -33 -17 -48
-18 -14 0 -52 -2 -84 -5 -71 -7 -74 0 -58 99 12 71 28 174 36 231 3 17 16 40
30 52 14 12 25 26 25 31 0 5 12 15 26 21 14 7 23 16 20 20 -10 17 -46 5 -76
-23 -18 -18 -34 -25 -39 -19 -14 14 -24 74 -12 74 16 0 22 35 11 64 -8 22 -15
27 -38 24 -22 -2 -27 -8 -28 -33 0 -16 -10 -46 -22 -65 -25 -40 -27 -69 -8
-122 13 -37 14 -280 1 -339 -7 -29 -28 -39 -82 -39 l-33 0 0 -65 0 -65 1280 0
1280 0 0 75 0 75 -47 0 c-79 0 -77 -3 -68 172 14 246 13 263 -13 291 -14 15
-20 30 -16 41 10 26 -24 58 -47 45 -22 -11 -26 -68 -7 -87 17 -17 3 -25 -21
-12 -15 7 -21 20 -21 44 0 35 -17 50 -45 40 -18 -7 -21 -69 -3 -80 7 -5 4 -10
-10 -15 -17 -6 -22 -17 -22 -44 0 -32 -2 -34 -19 -23 -26 16 -37 80 -20 119
10 26 10 33 -4 46 -25 26 -43 9 -66 -63 -25 -79 -26 -100 -7 -111 12 -7 13
-16 4 -49 -10 -36 -9 -47 9 -80 18 -34 19 -47 10 -104 -14 -93 -11 -90 -61
-90 l-45 0 -5 47 c-4 27 -11 66 -17 88 -23 89 -28 139 -12 152 12 10 12 16 -1
48 -9 21 -16 64 -16 95 0 57 -1 59 -30 65 -16 3 -32 15 -35 25 -9 27 -32 42
-54 35 -24 -7 -35 -33 -21 -50 14 -17 21 -53 11 -59 -4 -3 -8 -23 -9 -46 -1
-29 3 -42 14 -47 12 -5 15 -15 10 -47 -5 -34 1 -133 17 -261 2 -17 -5 -20 -49
-23 -33 -2 -54 2 -61 10 -7 9 -5 46 4 113 8 55 15 126 15 158 1 37 5 57 14 57
34 0 18 98 -20 124 -21 13 -23 21 -19 55 4 32 2 42 -11 47 -27 10 -47 -15 -40
-50 5 -28 2 -34 -20 -44 -14 -6 -28 -23 -32 -37 -8 -32 -17 -32 -43 1 l-21 27
20 14 c28 20 27 69 -2 76 -28 8 -48 -9 -48 -38 0 -12 -9 -34 -20 -48 -23 -30
-26 -71 -6 -109 9 -18 12 -37 7 -55 -4 -15 -4 -45 1 -66 6 -26 4 -62 -7 -112
-8 -41 -15 -83 -15 -94 0 -18 -6 -20 -44 -19 l-44 2 -7 104 c-4 58 -4 107 1
111 5 3 10 54 11 112 2 95 0 109 -18 124 -11 11 -19 31 -19 51 0 43 -27 60
-58 38 -27 -19 -28 -44 -2 -76 14 -19 17 -32 12 -53 l-8 -28 -15 24 c-9 13
-20 35 -24 49 -12 41 -24 51 -47 39 -15 -8 -18 -17 -13 -39 5 -22 0 -34 -20
-55 -30 -29 -46 -26 -27 5 27 44 6 89 -34 73 -12 -4 -15 -14 -11 -39 6 -36 -1
-41 -34 -23 -13 7 -18 17 -14 28 8 26 -20 48 -40 31 -19 -16 -19 -49 0 -56 13
-5 13 -9 0 -34 -11 -21 -13 -45 -8 -89 4 -43 2 -61 -6 -61 -6 0 -11 -11 -11
-25 0 -14 5 -25 10 -25 6 0 10 -10 10 -22 0 -13 7 -54 15 -93 8 -38 11 -73 7
-77 -4 -4 -39 -10 -78 -14 -71 -7 -71 -6 -76 19 -3 15 -1 50 4 79 10 62 3 117
-17 124 -13 5 -26 44 -30 89 -1 11 7 28 17 37 16 13 17 21 8 37 -7 14 -7 21 0
21 15 0 12 46 -5 60 -33 27 -84 -29 -57 -63 7 -8 8 -26 3 -48 -4 -19 -4 -43 0
-54 4 -11 5 -30 2 -42 -3 -12 -2 -27 3 -34 4 -7 8 -61 8 -121 l1 -108 -46 0
-47 0 -6 63 c-9 104 -12 267 -5 267 4 0 11 10 15 23 4 12 10 24 14 27 4 3 10
22 14 43 6 34 5 37 -17 37 -14 0 -40 6 -58 14 -31 13 -34 18 -34 58 0 37 -3
43 -23 46 -12 2 -24 -3 -27 -10z m1009 -259 c-2 -3 -4 -70 -5 -148 -1 -127 -2
-141 -18 -141 -19 0 -20 4 -22 78 -1 51 18 234 28 267 5 16 8 14 14 -15 4 -19
6 -37 3 -41z m-1029 -146 l0 -178 -55 0 -55 0 3 70 c1 38 7 72 12 75 4 3 10
43 12 90 l3 85 33 11 c18 5 29 13 26 17 -4 4 -1 7 7 7 12 0 14 -31 14 -177z
m1586 89 c-2 -26 2 -84 9 -130 7 -45 9 -98 6 -116 -6 -32 -8 -33 -39 -27 -26
6 -33 12 -35 36 -2 16 2 48 9 70 16 48 16 47 18 153 1 76 2 81 19 71 13 -8 16
-21 13 -57z m-1009 -154 c-3 -51 -9 -79 -18 -82 -22 -8 -24 8 -13 85 6 41 13
103 17 139 l6 65 7 -65 c4 -36 4 -100 1 -142z m149 -8 l4 -65 -38 -3 c-36 -3
-38 -2 -32 19 4 12 9 49 10 82 2 43 7 63 19 69 9 5 17 19 17 31 2 34 16 -61
20 -133z m372 -62 c-14 -26 -23 4 -23 80 0 135 14 156 21 32 3 -58 4 -108 2
-112z m-1004 10 c1 -42 -2 -48 -19 -48 -26 0 -27 11 -14 155 l7 80 13 -70 c7
-38 13 -91 13 -117z m-265 57 c-4 -47 -11 -88 -15 -91 -11 -6 -12 93 -2 161
11 81 25 25 17 -70z m1911 -83 c4 -12 -14 -52 -25 -52 -3 0 -6 55 -7 123 l-2
122 15 -90 c7 -49 16 -96 19 -103z m-1105 88 c0 -75 -1 -80 -21 -80 -17 0 -20
5 -16 23 3 12 11 48 18 80 7 31 14 57 16 57 1 0 3 -36 3 -80z m680 28 c7 -22
6 -28 -6 -28 -8 0 -13 4 -9 9 3 5 1 12 -3 15 -5 3 -7 18 -4 33 3 16 7 22 9 13
3 -8 8 -27 13 -42z m-1563 -20 c-3 -7 -5 -2 -5 12 0 14 2 19 5 13 2 -7 2 -19
0 -25z m1915 -71 c2 -48 0 -67 -9 -67 -9 0 -13 22 -13 77 0 95 18 88 22 -10z
m-1815 -29 c-3 -7 -5 -2 -5 12 0 14 2 19 5 13 2 -7 2 -19 0 -25z m1490 0 c-3
-8 -6 -5 -6 6 -1 11 2 17 5 13 3 -3 4 -12 1 -19z"/>
</g>
</svg>
