<svg id="Layer_1" height="512" viewBox="0 0 512 512" width="512" xmlns="http://www.w3.org/2000/svg" data-name="Layer 1"><path d="m83.99 159.48h18.62v-41.81h-30v41.81h-18.62v24.19l26.71 35.37h30l-26.71-35.37z" fill="#d4e1f4"/><path d="m282.321 218.919-1.148 59.071a34.178 34.178 0 0 1 -33.994 33.339h-56.6l19-52.427 6.255 6.255a53.071 53.071 0 0 0 51.138 13.717 6 6 0 0 0 3.411-9.172l-34.769-52.042-11.922 4.751 31.446 46.213a41.11 41.11 0 0 1 -30.815-11.953l-10.223-10.224 9.2-25.366-148.233-4.09-63.552 175.299a6 6 0 0 0 5.64 8.045h136.952a6 6 0 0 0 5.641-3.955l26.481-73.051h60.95a46.239 46.239 0 0 0 45.992-45.105l1.148-59.072zm-209.835 40.381h79.514l-8.334 22h-79.155zm-12.325 34h78.956l-8.555 22.582h-78.587zm-12.536 34.585h78.391l-8.334 22h-78.032zm102.275 60.45h-124.188l9.588-26.45h86.525a6 6 0 0 0 5.612-3.875l38.863-102.582a6 6 0 0 0 -5.611-8.125h-83.853l8.072-22.267h124.192z" fill="#1ae5be"/><g fill="#0635c9"><path d="m119.109 192.053a6 6 0 0 0 0-12h-5.15a6 6 0 0 0 0 12z"/><path d="m308.956 192.053a6 6 0 0 0 0-12h-167.886a6 6 0 0 0 0 12z"/><path d="m494.845 127.717h-24.677v-10.052a6 6 0 0 0 -6-6h-391.555a6 6 0 0 0 -6 6v35.813h-12.624a6 6 0 0 0 -6 6v24.194a6.005 6.005 0 0 0 1.212 3.617l27.412 37.747h387.555a6 6 0 0 0 6-6v-8.61h24.677a6 6 0 0 0 6-6v-70.709a6 6 0 0 0 -6-6zm-36.677 85.319h-374.48l-23.7-31.375v-16.183h398.18zm0-59.558h-379.555v-29.813h379.555zm30.677 44.948h-18.677v-58.709h18.677z"/></g></svg>