<?xml version="1.0" standalone="no"?>
<!DOCTYPE svg PUBLIC "-//W3C//DTD SVG 20010904//EN"
 "http://www.w3.org/TR/2001/REC-SVG-20010904/DTD/svg10.dtd">
<svg version="1.0" xmlns="http://www.w3.org/2000/svg"
 width="225.000000pt" height="225.000000pt" viewBox="0 0 225.000000 225.000000"
 preserveAspectRatio="xMidYMid meet">
<metadata>
Created by potrace 1.16, written by Peter Selinger 2001-2019
</metadata>
<g transform="translate(0.000000,225.000000) scale(0.100000,-0.100000)"
fill="#000000" stroke="none">
<path d="M980 1885 c-198 -54 -355 -213 -405 -410 -32 -125 -14 -278 46 -396
37 -74 135 -179 208 -223 98 -60 171 -79 296 -79 93 0 120 4 177 25 195 73
318 208 368 404 24 92 25 154 5 248 -41 192 -173 345 -360 416 -78 30 -253 37
-335 15z m281 -65 c35 -11 75 -27 89 -35 l25 -14 -32 -7 c-18 -3 -33 -8 -33
-10 0 -9 92 -116 134 -157 l46 -44 -2 -100 c-3 -100 -3 -101 32 -152 28 -40
41 -51 63 -51 33 0 33 -3 5 -77 -52 -141 -157 -251 -287 -303 -66 -26 -67 -11
-7 60 25 29 57 77 71 107 26 52 26 55 10 73 -10 11 -65 45 -122 75 -99 52
-106 54 -146 45 -71 -16 -109 -12 -163 20 -72 41 -94 72 -94 130 0 46 1 48 34
54 39 7 81 -6 89 -28 7 -18 37 -22 37 -4 0 6 -5 26 -12 44 -12 33 -11 33 60
99 40 37 72 71 72 76 0 16 -51 59 -77 65 -18 5 -32 -1 -52 -20 -32 -31 -41
-32 -41 -8 0 10 -5 23 -12 30 -9 9 -5 19 18 43 28 29 28 31 10 44 -16 12 -23
12 -47 0 -35 -18 -39 -19 -39 -1 0 17 80 46 125 46 22 0 40 -10 65 -35 38 -40
46 -42 71 -19 13 12 16 25 12 45 -7 36 8 37 98 9z m-531 -284 c6 -61 14 -94
29 -115 11 -16 26 -46 33 -67 11 -32 29 -49 113 -107 134 -91 128 -83 115
-144 -14 -63 -1 -94 59 -138 44 -33 47 -42 29 -92 -14 -39 -35 -42 -119 -17
-90 27 -150 63 -220 133 -129 129 -175 290 -134 469 15 65 71 180 82 168 3 -3
9 -44 13 -90z"/>
<path d="M244 1687 c-24 -21 -34 -55 -105 -363 -81 -353 -91 -424 -65 -497 8
-21 62 -115 121 -208 83 -131 109 -181 113 -215 l5 -43 -135 -153 c-74 -84
-137 -159 -142 -165 -6 -10 38 -13 206 -13 l213 1 134 217 c117 189 135 224
139 268 3 38 -1 64 -17 99 -28 63 -294 486 -321 510 -35 31 -87 25 -122 -14
-24 -27 -29 -40 -25 -65 3 -18 55 -111 116 -207 108 -172 126 -211 97 -222
-23 -9 -40 11 -145 176 -127 198 -131 207 -131 257 0 63 26 108 80 138 l46 26
47 204 c43 188 46 206 33 237 -25 59 -93 74 -142 32z"/>
<path d="M1885 1685 c-34 -33 -32 -65 19 -284 33 -144 47 -187 62 -195 87 -48
125 -114 107 -185 -12 -44 -230 -397 -252 -406 -19 -7 -43 15 -38 35 2 10 54
96 116 192 114 180 126 212 100 260 -6 11 -26 26 -45 34 -68 29 -82 15 -253
-257 -85 -134 -160 -263 -169 -287 -27 -81 -17 -108 133 -349 l137 -223 147 1
c80 1 175 4 209 8 l64 6 -141 163 c-100 115 -141 170 -141 188 0 38 21 79 115
230 48 76 98 162 111 189 39 82 33 141 -46 491 -89 390 -86 380 -113 399 -34
24 -94 19 -122 -10z"/>
</g>
</svg>
