<?xml version="1.0"?>
<svg xmlns="http://www.w3.org/2000/svg" id="Layer_1" data-name="Layer 1" viewBox="0 0 512 512" width="512" height="512"><title>Global community</title><path d="M182.1,197.974a104.128,104.128,0,0,0,17.558,13.709,140.684,140.684,0,0,0-6.6,38.317H162.2A93.529,93.529,0,0,1,182.1,197.974Z" style="fill:#d4e1f4"/><path d="M227.853,345.693a94.1,94.1,0,0,1-37.745-22.724,92.139,92.139,0,0,1,13.921-11.207A102.835,102.835,0,0,0,227.853,345.693Z" style="fill:#d4e1f4"/><path d="M204.029,200.238a92.139,92.139,0,0,1-13.921-11.207,94.115,94.115,0,0,1,37.745-22.725A102.85,102.85,0,0,0,204.029,200.238Z" style="fill:#d4e1f4"/><path d="M193.055,262a140.684,140.684,0,0,0,6.6,38.317A104.088,104.088,0,0,0,182.1,314.026,93.529,93.529,0,0,1,162.2,262Z" style="fill:#d4e1f4"/><path d="M256,362A106,106,0,1,0,150,256,106.12,106.12,0,0,0,256,362ZM182.1,197.974a104.128,104.128,0,0,0,17.558,13.709,140.684,140.684,0,0,0-6.6,38.317H162.2A93.529,93.529,0,0,1,182.1,197.974ZM349.8,250H318.945a140.587,140.587,0,0,0-6.674-38.547,104.592,104.592,0,0,0,17.417-13.748A93.528,93.528,0,0,1,349.8,250Zm-20.115,64.3a104.592,104.592,0,0,0-17.417-13.748A140.587,140.587,0,0,0,318.945,262H349.8A93.528,93.528,0,0,1,329.688,314.3ZM262,347.352v-50.81a93.574,93.574,0,0,1,35.393,9.419C289.685,323.824,277.61,338.148,262,347.352Zm0-62.836V262h44.936a129.37,129.37,0,0,1-5.385,32.644A105.581,105.581,0,0,0,262,284.516ZM262,250V227.484a105.581,105.581,0,0,0,39.551-10.128A129.37,129.37,0,0,1,306.936,250Zm0-34.542v-50.81c15.61,9.2,27.685,23.528,35.392,41.391A93.564,93.564,0,0,1,262,215.458Zm-12-50.81v50.815a94.872,94.872,0,0,1-35.462-9.263C222.242,188.261,234.343,173.88,250,164.648Zm0,62.84V250H205.064a129.482,129.482,0,0,1,5.334-32.488A106.912,106.912,0,0,0,250,227.488ZM250,262v22.512a106.912,106.912,0,0,0-39.6,9.976A129.482,129.482,0,0,1,205.064,262Zm0,34.537v50.815c-15.657-9.232-27.758-23.613-35.462-41.552A94.872,94.872,0,0,1,250,296.537Zm-22.147,49.156a94.1,94.1,0,0,1-37.745-22.724,92.139,92.139,0,0,1,13.921-11.207A102.835,102.835,0,0,0,227.853,345.693Zm80.016-33.7a92.528,92.528,0,0,1,13.769,11.225,94.094,94.094,0,0,1-37.491,22.476A102.768,102.768,0,0,0,307.869,311.992Zm0-111.984a102.783,102.783,0,0,0-23.722-33.7,94.1,94.1,0,0,1,37.491,22.477A92.528,92.528,0,0,1,307.869,200.008Zm-103.84.23a92.139,92.139,0,0,1-13.921-11.207,94.115,94.115,0,0,1,37.745-22.725A102.85,102.85,0,0,0,204.029,200.238ZM193.055,262a140.684,140.684,0,0,0,6.6,38.317A104.088,104.088,0,0,0,182.1,314.026,93.529,93.529,0,0,1,162.2,262Z" style="fill:#b8001c"/><path d="M469.588,223.477A32.478,32.478,0,0,0,437.7,250H390.893a134.125,134.125,0,0,0-35.761-85.473l33.2-33.144a32.472,32.472,0,0,0,18.724,5.956A31.826,31.826,0,0,0,430,127.876v.007c13-12.638,12.611-33.2-.026-45.835a32.427,32.427,0,0,0-50,40.78l-33.357,33.361A134.23,134.23,0,0,0,261,121.291V74.44c15-2.407,27.418-15.852,27.418-32.028a32.412,32.412,0,1,0-64.823,0A31.971,31.971,0,0,0,249,74.052V121.37a133.439,133.439,0,0,0-84.511,35.658l-33.175-33.171a32.372,32.372,0,1,0-8.682,8.29l33.4,33.279A134.01,134.01,0,0,0,121.068,251h-46.6c-2.313-15-15.806-27.529-32.059-27.529a32.4,32.4,0,1,0,0,64.8A31.923,31.923,0,0,0,74,263h47.147a133.554,133.554,0,0,0,35.507,84.46L123.643,380.5C111,371.562,93,372.769,82,384.081v.015c-13,12.637-12.611,33.208.026,45.845a32.424,32.424,0,0,0,50-40.77l33.128-33.128A134.515,134.515,0,0,0,250,391.115v46.627a32.412,32.412,0,1,0,12,0V391.115a134.522,134.522,0,0,0,85.422-35.609l33.007,33.006a32.416,32.416,0,1,0,8.561-8.408l-33.106-33.216A133.815,133.815,0,0,0,390.893,262h46.888a32.4,32.4,0,1,0,31.807-38.523ZM392.6,90.537a20.411,20.411,0,1,1-5.979,14.434A20.35,20.35,0,0,1,392.6,90.537ZM235.588,42.412A20.412,20.412,0,1,1,256,62.824,20.435,20.435,0,0,1,235.588,42.412ZM90.537,119.4a20.413,20.413,0,1,1,28.867,0A20.435,20.435,0,0,1,90.537,119.4ZM42.412,276.412A20.412,20.412,0,1,1,62.824,256,20.435,20.435,0,0,1,42.412,276.412ZM119.4,421.463A20.412,20.412,0,1,1,90.537,392.6h0a20.422,20.422,0,0,1,28.228-.579,5.737,5.737,0,0,0,1.811,1.87,20.39,20.39,0,0,1-1.171,27.576Zm157.008,48.125a20.412,20.412,0,1,1-21.724-20.346,5.851,5.851,0,0,0,2.624,0A20.422,20.422,0,0,1,276.412,469.588ZM421.463,392.6a20.435,20.435,0,1,1-14.434-5.969A20.435,20.435,0,0,1,421.463,392.6ZM256,379.255A123.033,123.033,0,1,1,379.033,256.222,123.172,123.172,0,0,1,256,379.255ZM469.588,276.412A20.412,20.412,0,1,1,490,256,20.435,20.435,0,0,1,469.588,276.412Z" style="fill:#2f2f2f"/></svg>
