<?xml version="1.0" standalone="no"?>
<!DOCTYPE svg PUBLIC "-//W3C//DTD SVG 20010904//EN"
 "http://www.w3.org/TR/2001/REC-SVG-20010904/DTD/svg10.dtd">
<svg version="1.0" xmlns="http://www.w3.org/2000/svg"
 width="216.000000pt" height="233.000000pt" viewBox="0 0 216.000000 233.000000"
 preserveAspectRatio="xMidYMid meet">
<metadata>
Created by potrace 1.16, written by Peter Selinger 2001-2019
</metadata>
<g transform="translate(0.000000,233.000000) scale(0.100000,-0.100000)"
fill="#000000" stroke="none">
<path d="M941 2034 c-25 -32 -26 -62 -6 -111 8 -19 15 -40 15 -45 0 -5 -22
-18 -49 -30 l-50 -20 -39 -112 c-25 -70 -42 -139 -47 -188 l-7 -77 -37 -3
c-36 -3 -36 -4 -39 -51 -3 -42 0 -49 17 -54 17 -4 21 -13 21 -49 0 -36 -3 -44
-19 -44 -10 0 -29 -9 -43 -19 -24 -19 -24 -19 -47 5 -30 31 -88 32 -125 3 -19
-15 -26 -17 -26 -6 0 28 -45 57 -89 57 -83 0 -120 -88 -71 -168 11 -18 20 -45
20 -60 0 -24 -8 -32 -52 -53 l-52 -24 -48 -145 c-26 -79 -48 -150 -48 -156 0
-6 25 -42 55 -79 50 -61 55 -71 55 -116 l0 -49 856 0 855 0 -6 52 -6 53 57 69
57 68 -49 151 -49 151 -57 25 c-51 23 -58 29 -58 54 0 15 7 42 17 60 43 84 8
167 -72 167 -22 0 -50 -7 -61 -15 -17 -11 -27 -12 -52 -3 -56 21 -96 -1 -128
-70 -1 -2 -13 8 -27 22 -35 35 -94 36 -135 1 l-29 -24 -22 22 c-30 33 -30 112
0 120 17 5 20 12 17 54 l-3 48 -92 3 c-103 3 -100 0 -110 94 -4 40 -2 58 6 58
6 0 11 -7 11 -15 0 -16 34 -55 48 -55 11 0 182 234 182 249 0 14 -37 14 -46 0
-5 -8 -9 -8 -14 1 -6 9 -11 6 -20 -9 -6 -13 -19 -30 -28 -39 -9 -10 -26 -30
-38 -46 l-20 -28 -19 81 -18 81 -59 27 c-32 14 -58 31 -58 38 0 7 7 29 16 50
29 70 -3 125 -72 125 -34 0 -47 -5 -63 -26z m389 -639 l0 -35 -317 2 c-297 3
-318 4 -321 21 -9 47 -13 47 323 47 l315 0 0 -35z m-40 -105 c0 -46 -2 -50
-24 -50 -13 0 -35 -9 -50 -21 l-26 -20 0 25 c0 70 -51 112 -124 103 -29 -4
-48 -14 -66 -35 -23 -27 -27 -29 -44 -16 -43 31 -125 4 -141 -46 -6 -20 -7
-20 -32 0 -14 11 -32 20 -39 20 -10 0 -14 14 -14 45 l0 45 280 0 280 0 0 -50z
m-330 -40 c24 -24 26 -76 5 -127 -19 -46 -19 -72 1 -80 12 -4 2 -13 -34 -30
-49 -23 -52 -23 -83 -7 -31 16 -32 17 -14 30 10 8 22 14 27 14 14 0 9 28 -12
62 -12 19 -20 51 -20 76 0 53 26 82 75 82 22 0 43 -8 55 -20z m720 -50 c3 -30
8 -60 12 -66 4 -6 1 -20 -7 -30 -19 -25 -19 -64 0 -64 30 0 14 -18 -30 -35
-41 -15 -49 -15 -83 -2 l-37 15 28 13 c32 15 34 37 7 81 -26 43 -26 98 1 127
16 17 30 21 62 19 l42 -3 5 -55z m-1077 22 c21 -19 22 -86 2 -122 -20 -34 -19
-66 3 -75 14 -5 12 -9 -13 -22 -16 -9 -32 -19 -35 -23 -3 -3 -22 4 -44 16 -35
20 -37 22 -17 29 25 8 27 24 6 51 -26 34 -38 93 -25 125 20 47 81 58 123 21z
m717 -20 c28 -23 31 -89 5 -128 -9 -14 -15 -37 -12 -50 2 -14 -1 -25 -10 -28
-18 -7 -63 14 -63 30 0 8 -9 28 -20 46 -28 46 -27 112 2 132 30 21 71 20 98
-2z"/>
<path d="M0 85 l0 -85 1080 0 1080 0 0 85 0 85 -1080 0 -1080 0 0 -85z"/>
</g>
</svg>
