<svg id="Layer_1" height="512" viewBox="0 0 512 512" width="512" xmlns="http://www.w3.org/2000/svg" data-name="Layer 1"><path d="m179.13 33.42c-11.66 5.291-22.33 10.18-31.89 12.53l33.811 83.35 28.7-20.395z" fill="#d4e1f4"/><path d="m144.85 403.58a43.69 43.69 0 0 0 -29.93 41.34v53.9h30v-53.9a43.69 43.69 0 0 1 29.93-41.34l19.511-6.549-7.651-7.5z" fill="#d4e1f4"/><g fill="#2f2f2f"><path d="m214.137 290.115a6.036 6.036 0 0 0 1.127-.107 225.641 225.641 0 0 1 84.219 0 6 6 0 0 0 2.241-11.789 238.247 238.247 0 0 0 -44.356-4.175c-.339 0-.68 0-1.017 0a238.237 238.237 0 0 0 -43.328 4.173 6 6 0 0 0 1.114 11.9z"/><path d="m214.144 311.194h86.456a6 6 0 0 0 0-12h-86.46a6 6 0 1 0 0 12z"/><path d="m302.029 331.186a6 6 0 1 0 -2.851-11.656 175.869 175.869 0 0 1 -83.609 0 6 6 0 1 0 -2.851 11.656 188.1 188.1 0 0 0 44.66 5.385h1.048a188.117 188.117 0 0 0 43.603-5.385z"/><path d="m182.042 181.291a5.994 5.994 0 0 0 7.528-3.915 84.694 84.694 0 0 1 6.665-15.5 6 6 0 1 0 -10.5-5.814 96.79 96.79 0 0 0 -7.61 17.7 6 6 0 0 0 3.917 7.529z"/><path d="m196.286 150.186a6 6 0 0 0 8.443-.861 84.194 84.194 0 0 1 40.628-27.433 6 6 0 1 0 -3.523-11.471 96.156 96.156 0 0 0 -46.408 31.323 6 6 0 0 0 .86 8.442z"/></g><path d="m250.094 7.186c-28.012.144-52.53 11.275-74.16 21.1-10.953 4.973-21.3 9.669-30.125 11.845a6 6 0 0 0 -4.137 8.048l34.543 86.636 11.146-4.445-32.1-80.506c8.06-2.673 16.651-6.574 25.632-10.651 20.537-9.324 43.814-19.892 69.262-20.022h.52c26.98 0 51.428 10.758 73.011 20.257 9.133 4.02 17.868 7.864 26.021 10.506-9.3 25.555-16.23 39.075-28.14 62.293-1.448 2.824-2.966 5.784-4.566 8.917l10.687 5.457c1.6-3.126 3.111-6.079 4.557-8.9 12.615-24.595 20.231-39.441 30.923-69.77a6 6 0 0 0 -4.222-7.821c-8.9-2.194-19.358-6.795-30.426-11.667-22.82-10.047-48.703-21.463-78.426-21.277z" fill="#b8001c"/><path d="m250.741 81.524a6 6 0 0 0 6-6v-12.271h12.272a6 6 0 0 0 0-12h-12.272v-12.271a6 6 0 1 0 -12 0v12.271h-12.27a6 6 0 0 0 0 12h12.27v12.271a6 6 0 0 0 6 6z" fill="#b8001c"/><path d="m355.9 271.1a27.2 27.2 0 0 0 12.036-29.5 21.617 21.617 0 0 0 -13.916-15.46l.132-36.927a98.5 98.5 0 0 0 -28.786-70.543 97.272 97.272 0 0 0 -69.449-28.945c-54.169 0-98.238 44.357-98.238 98.9l.093 31.823v.116l.125 5.61a21.616 21.616 0 0 0 -13.829 15.426 27.373 27.373 0 0 0 -.77 6.45 27.031 27.031 0 0 0 15.955 24.729l-9.688 34.347a65.791 65.791 0 0 0 10.12 54.694c10.974 15.617 27.755 25.491 46.04 27.09l1.045-11.954c-14.749-1.29-28.332-9.322-37.267-22.036a53.774 53.774 0 0 1 -8.362-44.632l4.469-15.847c6.482 17.671 18.195 34.42 28.716 45.687a25 25 0 0 0 8.559 6.182 73.763 73.763 0 0 0 54.591 24.19c19.862 0 42.137-13.035 55.493-26.009a29.863 29.863 0 0 0 5.467-4.248 29.927 29.927 0 0 0 3.372-4c10.043-11.509 20.556-27.88 25.937-45.131l4.073 19.869a56.784 56.784 0 0 1 -11.28 46.319c-9.52 11.908-22.707 18.624-37.131 18.91l.239 12c17.788-.354 34.651-8.888 46.265-23.415a68.912 68.912 0 0 0 13.664-56.227zm-99.988-169.374a85.355 85.355 0 0 1 60.938 25.405 86.588 86.588 0 0 1 25.3 62.025l-.112 31.235a106.705 106.705 0 0 1 -66.3-28.03c11.048-8.788 21.855-20.59 31.544-36.493a6.009 6.009 0 0 0 -2.182-8.368 5.983 5.983 0 0 0 -8.038 2.082c-32.483 53.388-77.454 55.918-99.4 57.151l-.332.019c-5.511.31-10.707 4.21-13.562 10.177a8 8 0 0 1 -13.012 2.022l-.994-1-.086-29.343c-.002-47.908 38.684-86.882 86.236-86.882zm-67.5 178.406c-.658 5.58-1.1 11.253-1.3 16.86-.176 4.843-.2 9.388-.1 13.778-8.313-13.46-14.413-28.6-14.413-41.83v-.126a6 6 0 0 0 -4.958-5.909 15 15 0 0 1 -12.341-14.856 15.225 15.225 0 0 1 .431-3.613 9.528 9.528 0 0 1 5.923-6.837l28.659 35.862a22.125 22.125 0 0 0 -1.899 6.671zm69.064 78.368a61.731 61.731 0 0 1 -27.244-6.359 215.032 215.032 0 0 0 27.405 1.727h.17a191.121 191.121 0 0 0 22.51-1.294c-8.702 4.003-16.867 5.926-22.841 5.926zm57.375-35.461a17.936 17.936 0 0 1 -4.851 8.671 18.131 18.131 0 0 1 -8.191 4.629 170.346 170.346 0 0 1 -44 5.529h-.16a190.11 190.11 0 0 1 -47.985-5.868 13.113 13.113 0 0 1 -9.711-11.19 185.327 185.327 0 0 1 -.846-27.386c.192-5.283.6-10.629 1.225-15.888a10.4 10.4 0 0 1 7.022-8.6 159.128 159.128 0 0 1 39.982-7.86c3.536-.231 6.94-.337 10.22-.337a140.928 140.928 0 0 1 49.383 8.794 10.469 10.469 0 0 1 6.442 6.775 80.559 80.559 0 0 1 3.724 21.365 82.145 82.145 0 0 1 -2.254 21.366zm.52-58.648a22.177 22.177 0 0 0 -4.35-2.143 153.553 153.553 0 0 0 -64.468-9.147 171.15 171.15 0 0 0 -43 8.451 22.209 22.209 0 0 0 -5.311 2.615l-24.763-30.986a19.984 19.984 0 0 0 21.108-11.073c.979-2.047 2.5-3.324 3.413-3.375l.331-.019c14.358-.807 40.846-2.3 67.451-19.249a118.7 118.7 0 0 0 73.763 32.79zm28.981-1.486a6 6 0 0 0 -4.958 5.909v.126c0 11.86-4.262 24.35-10.261 35.64.008-1.086 0-2.173-.033-3.26a92.171 92.171 0 0 0 -4.233-24.485 22.1 22.1 0 0 0 -1.324-3.345l26.957-35.83a9.522 9.522 0 0 1 5.773 6.778 15.267 15.267 0 0 1 .429 3.611 15 15 0 0 1 -12.35 14.851z" fill="#2f2f2f"/><path d="m369.055 397.892-70.034-23.5.022-19.383-12 6.988-.022 12.184-31.021 31.151-31-31.132.078-11.587-12-7.044-.078 18.814-70.054 23.509a49.662 49.662 0 0 0 -34.026 47.031v53.892a6 6 0 0 0 6 6h282.161a6 6 0 0 0 6-6v-53.892a49.662 49.662 0 0 0 -34.026-47.031zm-119.138 94.923h-129v-47.892a37.673 37.673 0 0 1 25.845-35.654l38.375-12.878 64.813 63.557zm.053-49.657-52.062-51.052 20.978-7.04 31.114 31.244zm12.03-26.843 31.117-31.249 21.082 7.075-52.227 51.1zm129.084 76.5h-129.167l.034-32.769 65.022-63.618 38.263 12.841a37.673 37.673 0 0 1 25.845 35.654z" fill="#b8001c"/></svg>