<svg id="Layer_1" height="512" viewBox="0 0 512 512" width="512" xmlns="http://www.w3.org/2000/svg" data-name="Layer 1"><path d="m156.53 311.531v-.01l.74-262.59a33.1 33.1 0 0 1 33.27-32.931h-30a33.1 33.1 0 0 0 -33.27 32.931l-.74 262.59v.01l129.47 79.25 15-9.182z" fill="#d4e1f4"/><g fill="#0635c9"><path d="m202.225 88.435h66.528a6 6 0 0 0 0-12h-66.528a6 6 0 1 0 0 12z"/><path d="m161.767 68.152a14.283 14.283 0 1 0 14.241 14.283 14.279 14.279 0 0 0 -14.241-14.283zm0 16.566a2.283 2.283 0 1 1 2.241-2.283 2.265 2.265 0 0 1 -2.241 2.283z"/><path d="m352.44 141.2h-150.215a6 6 0 0 0 0 12h150.215a6 6 0 0 0 0-12z"/><path d="m161.767 132.912a14.283 14.283 0 1 0 14.241 14.288 14.279 14.279 0 0 0 -14.241-14.288zm0 16.566a2.283 2.283 0 1 1 2.241-2.282 2.265 2.265 0 0 1 -2.241 2.282z"/><path d="m352.44 205.956h-150.215a6 6 0 0 0 0 12h150.215a6 6 0 0 0 0-12z"/><path d="m161.767 197.673a14.283 14.283 0 1 0 14.241 14.283 14.279 14.279 0 0 0 -14.241-14.283zm0 16.566a2.283 2.283 0 1 1 2.241-2.283 2.265 2.265 0 0 1 -2.241 2.283z"/><path d="m352.44 270.717h-150.215a6 6 0 0 0 0 12h150.215a6 6 0 0 0 0-12z"/><path d="m161.767 262.433a14.283 14.283 0 1 0 14.241 14.284 14.279 14.279 0 0 0 -14.241-14.284zm0 16.566a2.283 2.283 0 1 1 2.241-2.282 2.265 2.265 0 0 1 -2.241 2.283z"/></g><path d="m454.856 227.351-68.434-43.9-6.479 10.1 68.483 43.933.107.067a14.679 14.679 0 0 1 6.967 12.449v11.625l-199.5 122.125-199.5-122.127v-11.623a14.715 14.715 0 0 1 7.036-12.491l66.2-41.779-6.406-10.15-66.13 41.735a26.756 26.756 0 0 0 -12.7 22.685v200.255a51.764 51.764 0 0 0 51.667 51.745h319.666a51.764 51.764 0 0 0 51.667-51.745v-200.255a26.756 26.756 0 0 0 -12.644-22.649zm-39.023 262.649h-319.666a39.751 39.751 0 0 1 -39.667-39.745v-174.562l196.367 120.207a6.005 6.005 0 0 0 6.266 0l196.367-120.207v174.562a39.751 39.751 0 0 1 -39.667 39.745z" fill="#1ae5be"/><path d="m303.273 11.736a6 6 0 0 0 -4.221-1.736h-138.51a39.146 39.146 0 0 0 -39.273 38.918l-.737 252.594 12 7.035.737-259.612a27.137 27.137 0 0 1 27.273-26.935h132.51v44.341a39.15 39.15 0 0 0 39.273 38.935h44.858v204.652l12-7v-203.652a6 6 0 0 0 -1.779-4.265zm1.779 54.6v-35.955l63.54 62.9h-36.267a27.137 27.137 0 0 1 -27.273-26.94z" fill="#0635c9"/></svg>