<svg height="468pt" viewBox="-36 0 468 468.448" width="468pt" xmlns="http://www.w3.org/2000/svg"><path d="m234.3125 360.792969-166.277344.664062c-18.617187.089844-33.78125-14.925781-33.871094-33.542969l-1.441406-300.898437c-.019531-4.027344.679688-8.027344 2.070313-11.808594-13.308594 4.914063-22.125 17.621094-22.070313 31.808594l1.441406 300.898437c.089844 18.617188 15.253907 33.636719 33.871094 33.546876l173.152344-.78125c-.664062-4.839844 13.042969-18.164063 13.125-19.886719zm0 0" fill="#d4e1f4"/><g fill="#004682FF"><path d="m48.371094 393.984375h.226562l164.867188-.820313-.058594-12-164.867188.820313c-19.167968.09375-34.78125-15.371094-34.875-34.539063l-1.441406-299.894531c-.089844-19.167969 15.375-34.78125 34.542969-34.875l138.792969-.660156.273437 56.347656c.121094 25.707031 20.992188 46.480469 46.699219 46.484375h.230469l56.347656-.269531.78125 189.195313 12-.050782-.800781-193.699218-.007813-1.722657c-.007812-1.59375-.648437-3.117187-1.78125-4.238281l-103.335937-102.136719c-.984375-.96875-2.273438-1.570312-3.652344-1.699219l-2.148438-.1992182c-.199218-.0195313-.386718-.0195313-.597656-.0273438l-142.863281.6875c-25.789063.125-46.597656 21.132812-46.480469 46.921875l1.441406 299.894531c.152344 25.695313 21.011719 46.453125 46.707032 46.480469zm184.332031-291.140625c-19.167969.089844-34.78125-15.375-34.871094-34.542969l-.234375-47.886719 83.164063 82.199219zm0 0"/><path d="m145.195312 221.515625c-3.3125 0-6 2.6875-6 6s2.6875 6 6 6h20.347657c3.3125 0 6-2.6875 6-6s-2.6875-6-6-6zm0 0"/><path d="m241.691406 176.628906c0-3.3125-2.683594-6-6-6h-168.941406c-3.3125 0-6 2.6875-6 6 0 3.316406 2.6875 6 6 6h168.941406c3.316406 0 6-2.683594 6-6zm0 0"/><path d="m66.75 221.515625c-3.3125 0-6 2.6875-6 6s2.6875 6 6 6h52.660156c3.3125 0 6-2.6875 6-6s-2.6875-6-6-6zm0 0"/></g><path d="m185.792969 468.449219c.644531 0 1.285156-.105469 1.898437-.308594l71.125-23.707031c.039063-.015625.078125-.035156.121094-.050782.160156-.058593.320312-.121093.476562-.195312.066407-.03125.132813-.058594.199219-.09375.167969-.082031.328125-.175781.488281-.273438.035157-.023437.078126-.046874.117188-.070312.191406-.125.371094-.261719.546875-.410156.046875-.039063.089844-.082032.136719-.125.085937-.074219.175781-.148438.257812-.230469l132.761719-132.769531c2.34375-2.34375 2.34375-6.140625 0-8.484375l-47.417969-47.414063c-2.339844-2.34375-6.140625-2.34375-8.484375 0l-132.761719 132.765625c-.035156.03125-.054687.070313-.085937.101563-.238281.242187-.453125.507812-.644531.789062-.015625.019532-.035156.042969-.046875.0625-.183594.285156-.34375.585938-.476563.902344-.039062.085938-.074218.175781-.105468.265625-.035157.089844-.066407.144531-.09375.21875l-23.707032 71.125c-.609375 1.832031-.304687 3.84375.824219 5.40625 1.128906 1.566406 2.941406 2.496094 4.871094 2.492187zm156.46875-201.402344 38.933593 38.933594-17.597656 17.589843-38.929687-38.929687zm-26.078125 26.078125 38.929687 38.929688-98.199219 98.199218-19.460937-19.464844-19.46875-19.464843zm-104.0625 109.308594 16.84375 16.84375 16.839844 16.835937-50.527344 16.84375zm0 0" fill="#2f2f2f"/></svg>
