<?xml version="1.0"?>
<svg xmlns="http://www.w3.org/2000/svg" id="Layer_1" data-name="Layer 1" viewBox="0 0 512 512" width="512" height="512"><title>Network Affiliate marketing</title><path d="M336.5,125.842A86.756,86.756,0,0,1,451.614,43.856,86.715,86.715,0,0,0,346.656,181.54V166.548A86.209,86.209,0,0,1,336.5,125.842Z" style="fill:#d4e1f4"/><path d="M336.5,396.158a86.874,86.874,0,0,1,76.752-86.172,86.718,86.718,0,0,0-66.592,151.871V445.613a36.114,36.114,0,0,1,.761-7.363A86.217,86.217,0,0,1,336.5,396.158Z" style="fill:#d4e1f4"/><path d="M402.439,130.419h1.618A32.479,32.479,0,0,0,436.5,97.977V82.733A32.48,32.48,0,0,0,404.057,50.29h-1.618A32.48,32.48,0,0,0,370,82.733V97.977A32.48,32.48,0,0,0,402.439,130.419ZM382,82.733A20.467,20.467,0,0,1,402.439,62.29h1.618A20.466,20.466,0,0,1,424.5,82.733V97.977a20.465,20.465,0,0,1-20.442,20.442h-1.618A20.466,20.466,0,0,1,382,97.977Z" style="fill:#0635c9"/><path d="M502,115.842a98.748,98.748,0,0,0-197.428-3.69l-135.76,70.286,5.517,10.656,130.637-67.633a98.9,98.9,0,0,0,92.282,88.945v83.188a98.9,98.9,0,0,0-92.315,89.316L178.354,313.83l-6,10.393L304.6,400.574a98.749,98.749,0,1,0,104.648-102.98V214.406A98.873,98.873,0,0,0,502,115.842Zm-54.16,74.387a86.589,86.589,0,0,1-89.184,0V165.3a24.844,24.844,0,0,1,21.252-24.426,32.408,32.408,0,0,0,47.586.139A24.7,24.7,0,0,1,447.84,165.3ZM316.5,115.842a86.752,86.752,0,1,1,143.344,65.7V165.3a36.688,36.688,0,0,0-34.351-36.591c-3.168-.23-4.828,1.811-5.929,3.155a20.4,20.4,0,0,1-32.19-.784,6.034,6.034,0,0,0-4.975-2.432A36.891,36.891,0,0,0,346.656,165.3V181.54A86.584,86.584,0,0,1,316.5,115.842Zm42.16,354.7V445.613a24.842,24.842,0,0,1,21.252-24.425,32.409,32.409,0,0,0,47.586.138,24.7,24.7,0,0,1,20.346,24.287v24.933a86.589,86.589,0,0,1-89.184,0ZM490,396.158a86.585,86.585,0,0,1-30.16,65.7V445.613a36.689,36.689,0,0,0-34.351-36.591c-3.168-.235-4.828,1.811-5.929,3.156a20.4,20.4,0,0,1-32.19-.784,6.035,6.035,0,0,0-4.975-2.433,36.892,36.892,0,0,0-35.739,36.652v16.244A86.736,86.736,0,1,1,490,396.158Z" style="fill:#0635c9"/><path d="M370,363.051v15.243a32.479,32.479,0,0,0,32.443,32.442h1.618A32.479,32.479,0,0,0,436.5,378.294V363.051a32.48,32.48,0,0,0-32.442-32.444h-1.618A32.48,32.48,0,0,0,370,363.051Zm54.5,0v15.243a20.465,20.465,0,0,1-20.442,20.442h-1.618A20.466,20.466,0,0,1,382,378.294V363.051a20.467,20.467,0,0,1,20.443-20.444h1.618A20.466,20.466,0,0,1,424.5,363.051Z" style="fill:#0635c9"/><path d="M109.561,190.449h-1.618A32.48,32.48,0,0,0,75.5,222.892v15.243a32.48,32.48,0,0,0,32.443,32.443h1.618A32.479,32.479,0,0,0,142,238.135V222.892A32.479,32.479,0,0,0,109.561,190.449ZM130,238.135a20.466,20.466,0,0,1-20.442,20.443h-1.618A20.467,20.467,0,0,1,87.5,238.135V222.892a20.466,20.466,0,0,1,20.443-20.443h1.618A20.465,20.465,0,0,1,130,222.892Z" style="fill:#1ae5be"/><path d="M108.752,157.248A98.752,98.752,0,1,0,207.5,256,98.864,98.864,0,0,0,108.752,157.248ZM64.16,330.387V305.455a24.844,24.844,0,0,1,21.253-24.426,32.41,32.41,0,0,0,47.586.139,24.7,24.7,0,0,1,20.345,24.287v24.931a86.586,86.586,0,0,1-89.184,0ZM165.344,321.7V305.455a36.689,36.689,0,0,0-34.356-36.592c-3.159-.211-4.822,1.812-5.925,3.157a20.4,20.4,0,0,1-32.189-.785A6,6,0,0,0,87.9,268.8,36.891,36.891,0,0,0,52.16,305.455V321.7a86.752,86.752,0,1,1,113.184,0Z" style="fill:#1ae5be"/><path d="M42,266a86.753,86.753,0,0,1,115.118-81.984A86.714,86.714,0,0,0,52.16,321.7V306.706A86.209,86.209,0,0,1,42,266Z" style="fill:#d4e1f4"/><path d="M154.275,279.218a36.628,36.628,0,0,1,11.069,26.237V321.7a87.447,87.447,0,0,0,17.235-20.2A36.7,36.7,0,0,0,154.275,279.218Z" style="fill:#1ae5be"/></svg>
