<svg id="Layer_1" height="512" viewBox="0 0 512 512" width="512" xmlns="http://www.w3.org/2000/svg" data-name="Layer 1"><g fill="#2f2f2f"><path d="m437.333 39.531a31.744 31.744 0 0 0 -22.594 9.359l-369.031 369.031a31.953 31.953 0 1 0 45.192 45.189l257.241-257.244-8.486-8.485-14.11 14.111-28.219-28.219 26.874-26.873 18.319 18.319 8.481-8.482-18.318-18.319 19.8-19.8 28.218 28.219-5.48 5.481 8.48 8.482 76.224-76.224a31.954 31.954 0 0 0 -22.595-54.548zm-28.284 32.02 28.218 28.218-19.8 19.8-28.217-28.219zm-91.99 148.426-234.647 234.648a19.954 19.954 0 0 1 -28.219-28.219l234.648-234.647zm43.907-100.343 19.8-19.8 28.218 28.218-19.8 19.8zm90.477-34.04-5.69 5.69-28.218-28.219 5.689-5.69a19.954 19.954 0 0 1 28.219 28.219z"/><path d="m248.342 257.17a5.982 5.982 0 0 0 4.242-1.757l4.862-4.862a6 6 0 0 0 -8.485-8.486l-4.862 4.862a6 6 0 0 0 4.243 10.243z"/><path d="m128.506 377.005a5.984 5.984 0 0 0 4.243-1.757l106.263-106.263a6 6 0 0 0 -8.485-8.485l-106.263 106.263a6 6 0 0 0 4.242 10.242z"/></g><path d="m388.829 165.8a31.953 31.953 0 1 0 -45.189 45.189l77.46 77.466a31.953 31.953 0 1 0 45.189-45.189zm68.978 114.166a19.978 19.978 0 0 1 -28.219 0l-77.463-77.463a19.953 19.953 0 1 1 28.219-28.218l77.463 77.463a19.977 19.977 0 0 1 0 28.221z" fill="#b8001c"/></svg>