<?xml version="1.0"?>
<svg xmlns="http://www.w3.org/2000/svg" id="Layer_1" data-name="Layer 1" viewBox="0 0 512 512" width="512" height="512"><title>Information Check</title><path d="M140.015,186.407a64.247,64.247,0,0,0-74.247,63.465V279.7a2.491,2.491,0,0,0,.4-1.277l1.178-25.87a7,7,0,0,1,7.351-6.672c.161.008,4.407.2,11.209.028A64.357,64.357,0,0,1,140.015,186.407Z" style="fill:#d4e1f4"/><path d="M91.63,329.782c-.042-.223-.095-.444-.158-.661l-3.536-12.163a7,7,0,0,0-5.668-5.575,10.927,10.927,0,0,1-8.7-13.35,6.266,6.266,0,0,1,3.78-4.417,16.547,16.547,0,0,0,22.8-14.561l.756-16.6q-1.893-1.47-3.746-3.032c-6.559.445-12.114.565-16.142.57l-.868,19.064a16.506,16.506,0,0,1-22.8,14.561,6.266,6.266,0,0,0-3.78,4.417,10.927,10.927,0,0,0,8.7,13.35,7,7,0,0,1,5.668,5.575l3.536,12.163c.063.217.116.438.158.661A59.36,59.36,0,0,0,140,377.347,59.44,59.44,0,0,1,91.63,329.782Z" style="fill:#d4e1f4"/><path d="M150,392.2c1.575,0,3.136-.067,4.689-.167v-4.118A73.237,73.237,0,0,1,140,391.508,73.3,73.3,0,0,0,150,392.2Z" style="fill:#d4e1f4"/><path d="M125.311,401.591v-9.558a73.123,73.123,0,0,1-20-4.118v13.676A60.265,60.265,0,0,0,140,406.035,59.582,59.582,0,0,1,125.311,401.591Z" style="fill:#d4e1f4"/><path d="M150,420.872a74.336,74.336,0,0,0,23.494-3.81l-11.132-3.61A73.6,73.6,0,0,1,140,420.194,74.544,74.544,0,0,0,150,420.872Z" style="fill:#d4e1f4"/><path d="M47.668,451.2c.09-.384.186-.766.292-1.148a30.136,30.136,0,0,1,20.047-20.512l38.5-12.482a73.048,73.048,0,0,1-8.868-3.61L48.007,429.544A30.136,30.136,0,0,0,27.96,450.056c-.106.382-.2.764-.292,1.148A27.987,27.987,0,0,0,27,457.6v28.772H47V457.6A27.987,27.987,0,0,1,47.668,451.2Z" style="fill:#d4e1f4"/><path d="M337.015,253.183a65.018,65.018,0,0,1,54.93-64.148,65.849,65.849,0,0,0-10.013-.77,64.991,64.991,0,0,0-64.917,64.918l.062,21.732.171.17a3.983,3.983,0,0,0,4.513.78,3.855,3.855,0,0,0,1.832-1.785c2.6-5.387,7.4-8.911,12.534-9.2l.259-.014.662-.037Z" style="fill:#d4e1f4"/><path d="M355.93,358.1a64.566,64.566,0,0,1-16.63-42.809,7,7,0,0,0-5.793-6.895,9.3,9.3,0,0,1-7.7-9.183,9.451,9.451,0,0,1,.266-2.231,5.328,5.328,0,0,1,4.84-4.055,6.994,6.994,0,0,0,5.2-3.12,17.944,17.944,0,0,0,20.089-9.646,3.794,3.794,0,0,1,.987-1.312c8.912-.5,23.674-1.338,39.775-8.021a93.3,93.3,0,0,1-7.6-6.273c-20.659,12.52-41,13.67-52.17,14.294a3.794,3.794,0,0,0-.987,1.312,17.944,17.944,0,0,1-20.089,9.646,6.994,6.994,0,0,1-5.2,3.12,5.328,5.328,0,0,0-4.84,4.055,9.451,9.451,0,0,0-.266,2.231,9.3,9.3,0,0,0,7.7,9.183,7,7,0,0,1,5.793,6.895A64.566,64.566,0,0,0,335.93,358.1c10.818,11.956,24.956,18.541,39.81,18.541h12.519c1.253,0,2.5-.064,3.741-.157C378.526,375.47,365.835,369.043,355.93,358.1Z" style="fill:#d4e1f4"/><path d="M325.9,379.385a37.724,37.724,0,0,1-6.826-20.137,79.737,79.737,0,0,1-7.884-14.631l-.884,3.321a37.7,37.7,0,0,0,31.892,47.173l3.79-1.285A37.467,37.467,0,0,1,325.9,379.385Z" style="fill:#d4e1f4"/><path d="M317.588,425.011l12.595-4.269-5.169-5.026-27.426,9.3A27.363,27.363,0,0,0,279,450.938v35.438h20V450.938A27.363,27.363,0,0,1,317.588,425.011Z" style="fill:#d4e1f4"/><polygon points="357.505 413.452 351.271 406.816 339.905 410.669 346.577 417.156 357.505 413.452" style="fill:#d4e1f4"/><path d="M370.139,395.887v-5.5a64.918,64.918,0,0,1-10-1.689v7.193L382,417.69l5-4.987Z" style="fill:#d4e1f4"/><path d="M193,100a73.1,73.1,0,0,1,63-72.3A72.994,72.994,0,1,0,246,173a72.263,72.263,0,0,0,10-.7A73.1,73.1,0,0,1,193,100Z" style="fill:#d4e1f4"/><path d="M20,500.376H240a7,7,0,0,0,7-7V457.6a41.805,41.805,0,0,0-1.037-9.593c-.131-.558-.273-1.115-.423-1.662a44.09,44.09,0,0,0-29.228-30.122l-47.623-15.441V381.151a73.344,73.344,0,0,0,33.375-48.44l2.544-8.751A24.932,24.932,0,0,0,220.027,294.7a20.265,20.265,0,0,0-11.764-13.948V249.872a78.248,78.248,0,1,0-156.495,0v30.87A20.259,20.259,0,0,0,39.974,294.7a24.932,24.932,0,0,0,15.418,29.26l2.544,8.751a73.344,73.344,0,0,0,33.375,48.44v19.635L43.688,416.227a44.088,44.088,0,0,0-29.227,30.118q-.226.827-.426,1.673A41.814,41.814,0,0,0,13,457.6v35.772A7,7,0,0,0,20,500.376ZM135.481,253.66c5.893,6,20,18.016,43.169,24.187-16.736-2.167-40.211-7.523-60.926-20.677Q127.045,255.743,135.481,253.66Zm-69.713-3.788a64.248,64.248,0,1,1,128.5,0v16.849c-21.031-2.85-35.162-11.368-43.111-17.732A109.9,109.9,0,0,0,181.319,233.1a7,7,0,0,0-8.519-11.11c-34.868,26.742-97.48,23.92-98.107,23.889a7,7,0,0,0-7.351,6.672l-1.178,25.87a2.491,2.491,0,0,1-.4,1.277Zm5.862,79.91c-.042-.223-.095-.444-.158-.661l-3.536-12.163a7,7,0,0,0-5.668-5.575,10.927,10.927,0,0,1-8.7-13.35,6.265,6.265,0,0,1,3.781-4.417,16.547,16.547,0,0,0,22.8-14.561l.868-19.064c4.028,0,9.583-.125,16.142-.57,42.342,35.791,101.813,33.943,104.371,33.845.02,0,.039,0,.059-.006a6.374,6.374,0,0,1,4.84,4.776,10.924,10.924,0,0,1-8.7,13.347,7,7,0,0,0-5.668,5.575l-3.536,12.163c-.063.217-.116.438-.158.661a59.393,59.393,0,0,1-116.74,0ZM130,392.2a73.154,73.154,0,0,0,24.689-4.285v13.676a60.292,60.292,0,0,1-49.378,0V387.915A73.154,73.154,0,0,0,130,392.2ZM27,457.6a27.987,27.987,0,0,1,.668-6.4c.09-.384.186-.766.292-1.148a30.136,30.136,0,0,1,20.047-20.512l49.631-16.092a74.283,74.283,0,0,0,64.724,0l49.631,16.092a30.137,30.137,0,0,1,20.048,20.516c.1.378.2.76.289,1.137A27.976,27.976,0,0,1,233,457.6v28.772H27Z" style="fill:#b8001c"/><path d="M404.561,463.393h-6.869a7,7,0,0,0,0,14h6.869a7,7,0,0,0,0-14Z" style="fill:#b8001c"/><path d="M272,500.376H492a7,7,0,0,0,7-7V450.938a41.356,41.356,0,0,0-28.094-39.186l-29.312-9.934a51.741,51.741,0,0,0,26.554-56.232l-5.659-27.437a23.355,23.355,0,0,0,9.035-24.5,19.087,19.087,0,0,0-10.775-13.009l.1-26.972a78.917,78.917,0,1,0-157.832-.465l.071,24.617c0,.054,0,.107,0,.161l.06,2.7a19.085,19.085,0,0,0-10.673,12.962,23.345,23.345,0,0,0,10.94,25.729l-6.643,24.96a51.793,51.793,0,0,0,23.939,58.055l-27.617,9.36A41.356,41.356,0,0,0,265,450.938v42.438A7,7,0,0,0,272,500.376Zm79.271-93.56,23.66,23.6v14.316l-35.026-34.059Zm24.469-16.179h12.519a64.187,64.187,0,0,0,15.6-1.943v7.193L382,417.69l-21.861-21.8v-7.193A64.179,64.179,0,0,0,375.74,390.637ZM424.1,410.669l-35.164,34.194V430.551l23.8-23.735ZM485,450.938v35.438H388.931V464.391l50.055-48.675,27.426,9.3A27.363,27.363,0,0,1,485,450.938ZM446.964,379.6a37.651,37.651,0,0,1-28.758,14.189l0,.105-.347-.117V383.428a72.293,72.293,0,0,0,20.59-15.939,78.779,78.779,0,0,0,14.917-24.26l1.07,5.185A37.653,37.653,0,0,1,446.964,379.6ZM381.932,188.265A64.916,64.916,0,0,1,446.847,253.6l-.078,21.579a80.273,80.273,0,0,1-45.75-18.994c8.989-7.554,17.717-17.692,25.431-31.346a7,7,0,1,0-12.189-6.887c-24.832,43.954-60.658,45.954-77.875,46.916l-.259.014c-5.135.287-9.938,3.811-12.534,9.2a3.855,3.855,0,0,1-1.832,1.785,3.983,3.983,0,0,1-4.513-.78l-.171-.17-.062-21.732A64.991,64.991,0,0,1,381.932,188.265Zm-75.86,108.713a5.328,5.328,0,0,1,4.84-4.055,6.994,6.994,0,0,0,5.2-3.12,17.944,17.944,0,0,0,20.089-9.646,3.794,3.794,0,0,1,.987-1.312c11.165-.624,31.511-1.774,52.17-14.294a94.334,94.334,0,0,0,58.219,24.736,6.991,6.991,0,0,0,5.506,3.636,5.328,5.328,0,0,1,4.84,4.056,9.345,9.345,0,0,1-7.435,11.413,7.1,7.1,0,0,0-5.793,6.992,64.509,64.509,0,0,1-16.63,42.712c-10.818,11.956-24.956,18.541-39.81,18.541H375.74c-14.854,0-28.992-6.585-39.81-18.541a64.566,64.566,0,0,1-16.63-42.809,7,7,0,0,0-5.793-6.895,9.3,9.3,0,0,1-7.7-9.183A9.451,9.451,0,0,1,306.072,296.978Zm9.824,82.407a37.723,37.723,0,0,1-5.594-31.447l.884-3.321a78.754,78.754,0,0,0,14.362,22.872,72.279,72.279,0,0,0,20.591,15.939v10.346l-3.945,1.337A37.478,37.478,0,0,1,315.9,379.385ZM279,450.938a27.363,27.363,0,0,1,18.588-25.927l27.426-9.3,49.917,48.54v22.12H279Z" style="fill:#b8001c"/><path d="M320.221,190.119a7,7,0,0,0,6.44-9.74l-11.673-27.448A86.115,86.115,0,0,0,333,100a87.114,87.114,0,1,0-58.616,82.207l44.63,7.807A7.029,7.029,0,0,0,320.221,190.119Zm-19.763-35.582L308.736,174,274.973,168.1a6.993,6.993,0,0,0-3.638.331,73.581,73.581,0,1,1,30.234-21.169A7,7,0,0,0,300.458,154.537Z" style="fill:#2f2f2f"/><path d="M272.479,74.062l-40.145,40.145-12.813-12.813a7,7,0,0,0-9.9,9.9l17.763,17.763a7,7,0,0,0,9.9,0l45.1-45.094a7,7,0,0,0-9.9-9.9Z" style="fill:#2f2f2f"/></svg>
