<?xml version="1.0" standalone="no"?>
<!DOCTYPE svg PUBLIC "-//W3C//DTD SVG 20010904//EN"
 "http://www.w3.org/TR/2001/REC-SVG-20010904/DTD/svg10.dtd">
<svg version="1.0" xmlns="http://www.w3.org/2000/svg"
 width="275.000000pt" height="183.000000pt" viewBox="0 0 275.000000 183.000000"
 preserveAspectRatio="xMidYMid meet">
<metadata>
Created by potrace 1.16, written by Peter Selinger 2001-2019
</metadata>
<g transform="translate(0.000000,183.000000) scale(0.100000,-0.100000)"
fill="#000000" stroke="none">
<path d="M1860 1186 c0 -9 3 -16 8 -16 4 0 129 -2 277 -4 149 -2 345 -7 438
-11 152 -7 167 -7 167 8 0 15 -27 17 -287 17 -312 0 -580 7 -594 16 -5 3 -9
-2 -9 -10z"/>
<path d="M367 1170 c-197 -4 -361 -10 -365 -14 -3 -4 194 -6 439 -5 349 1 451
5 470 15 28 15 44 15 -544 4z"/>
<path d="M1945 1028 c-11 -26 1 -48 27 -49 17 -1 18 -2 6 -6 -22 -6 -23 -2 6
-65 35 -78 76 -176 76 -184 0 -4 -71 -4 -157 0 -429 18 -858 39 -1132 56 -168
11 -307 18 -309 16 -2 -3 23 -7 55 -11 32 -3 90 -11 128 -17 39 -6 77 -11 85
-10 8 0 47 -3 85 -8 39 -5 124 -14 190 -21 66 -7 126 -16 132 -22 7 -5 20 -7
28 -3 9 3 13 2 10 -3 -3 -5 3 -12 12 -14 13 -3 10 -5 -7 -6 -14 -1 -32 -6 -40
-11 -18 -12 -10 -13 56 -10 24 1 45 -4 50 -11 5 -9 -4 -11 -40 -6 -30 4 -45 3
-41 -3 3 -6 2 -10 -4 -10 -5 0 -13 5 -17 11 -9 15 -201 6 -216 -9 -16 -16 -8
-21 33 -25 32 -3 34 -5 33 -41 -1 -21 2 -33 6 -26 4 6 10 -36 13 -93 4 -58 9
-111 12 -118 3 -8 22 -15 43 -16 27 -2 33 0 22 7 -13 9 -13 10 0 10 13 0 13 1
0 11 -11 8 -7 9 19 5 38 -7 48 -13 38 -22 -4 -4 -13 -1 -22 6 -12 10 -15 10
-15 -4 0 -10 3 -15 8 -13 4 3 16 1 27 -4 13 -5 0 -8 -42 -8 -35 -1 -63 -5 -63
-11 0 -5 10 -10 23 -11 20 0 20 -1 3 -8 -10 -4 -40 -4 -66 -1 -36 5 -47 3 -43
-6 3 -9 -13 -14 -59 -17 l-63 -3 63 -2 c92 -3 76 -22 -20 -23 l-83 -2 63 -7
c34 -4 65 -9 67 -12 3 -3 -32 -8 -79 -10 -46 -3 -92 -11 -102 -17 -15 -10 -5
-11 51 -7 61 4 64 4 25 -4 -25 -5 -83 -14 -130 -18 -75 -8 -79 -10 -35 -12 28
-2 64 -3 80 -2 29 1 29 1 5 -8 -14 -4 -70 -9 -125 -10 l-100 -3 80 -12 80 -12
-85 -3 c-127 -3 -180 -7 -187 -14 -4 -3 12 -6 35 -6 23 0 42 -4 42 -10 0 -5
-18 -10 -40 -10 -22 0 -40 -4 -40 -10 0 -6 33 -10 80 -10 47 0 80 -4 80 -10 0
-7 372 -10 1095 -10 l1095 0 0 399 c0 372 -1 400 -17 404 -17 4 -17 5 0 6 9 0
17 5 17 11 0 5 -26 11 -57 13 l-58 3 58 2 c31 1 57 7 57 12 0 6 -26 11 -57 12
l-58 1 60 7 60 6 -45 5 -45 6 43 1 c60 3 52 20 -10 25 l-53 3 53 2 c45 2 52 5
52 22 0 18 -7 20 -57 21 l-58 1 53 8 c106 16 63 22 -113 18 -99 -2 -157 -1
-130 3 28 4 82 8 120 9 139 4 127 16 -15 14 -114 -1 -128 0 -65 5 63 6 41 8
-106 9 -155 2 -189 -1 -199 -13 -18 -22 -185 -22 -194 1 -3 8 -10 13 -15 10
-5 -4 -11 0 -14 6 -3 9 -7 7 -12 -4z m-766 -420 c-7 -13 -17 -26 -23 -30 -8
-5 -7 -8 2 -8 17 0 15 -17 -4 -24 -10 -4 -13 -2 -8 7 4 6 -2 3 -14 -7 -26 -22
-30 -76 -7 -76 8 0 15 5 15 11 0 5 -5 7 -11 3 -7 -4 -10 0 -7 10 1 10 7 16 12
16 5 -1 13 4 17 12 16 24 10 -21 -6 -52 -9 -18 -13 -40 -9 -55 5 -19 2 -25
-10 -25 -11 0 -16 9 -16 27 0 34 -5 27 -14 -17 -4 -25 -3 -31 4 -20 5 8 10 11
10 5 0 -5 21 -10 47 -10 36 0 48 -4 48 -15 0 -8 -9 -15 -20 -16 -15 -1 -16 0
-2 3 39 10 13 19 -42 15 l-58 -4 -6 48 c-4 27 -9 84 -13 127 l-7 77 39 1 c22
0 48 4 59 9 32 14 36 11 24 -12z"/>
<path d="M464 649 c-10 -17 -7 -300 4 -311 6 -6 18 -8 28 -6 15 2 19 12 19 41
-4 292 -4 287 -24 287 -11 0 -23 -5 -27 -11z"/>
<path d="M856 647 c-16 -12 -17 -26 -13 -140 3 -70 8 -131 12 -137 3 -5 22 -7
43 -4 40 6 56 14 29 14 -9 0 -17 1 -17 3 0 1 -3 58 -6 127 -7 134 -16 160 -48
137z"/>
<path d="M592 637 c-10 -12 -19 -58 -49 -250 -6 -38 -5 -39 23 -35 26 3 29 7
34 48 l5 45 23 -60 c13 -33 28 -63 34 -66 17 -11 48 2 49 20 1 43 12 107 19
115 5 4 11 -17 15 -48 7 -53 9 -56 36 -56 34 0 33 -3 14 115 -8 50 -15 106
-15 126 0 44 -22 68 -45 49 -8 -7 -22 -38 -31 -69 -9 -31 -21 -69 -27 -85
l-11 -29 -13 44 c-7 24 -13 59 -13 77 0 35 -15 72 -29 72 -5 0 -13 -6 -19 -13z"/>
<path d="M277 633 c-4 -3 -7 -66 -7 -140 l0 -133 43 1 c54 1 112 22 112 40 0
15 -35 18 -71 6 -27 -10 -31 2 -33 123 -2 60 -7 97 -14 102 -15 10 -22 10 -30
1z"/>
</g>
</svg>
