<svg height="463pt" viewBox="0 -93 463.26195 463" width="463pt" xmlns="http://www.w3.org/2000/svg"><path d="m141.871094 120.046875 48.039062-73.414063c7.035156-10.734374 21.433594-13.742187 32.179688-6.722656l211.582031 138.449219 12.890625-9.023437-234.472656-153.425782c-10.746094-7.019531-25.144532-4.011718-32.179688 6.722656l-48.039062 73.414063c-7.011719 10.714844-4.035156 25.082031 6.65625 32.128906.589844-2.898437 1.722656-5.65625 3.34375-8.128906zm0 0" fill="#d4e1f4"/><g fill="#0635c9"><path d="m12 167.015625 76.722656 100.785156c1.496094 1.964844 4.046875 2.8125 6.421875 2.132813l81.367188-23.25 26.472656 17.324218c2.773437 1.808594 6.488281 1.03125 8.300781-1.738281l19.5-29.796875 9.101563 5.953125c2.769531 1.8125 6.488281 1.035157 8.304687-1.738281l13.546875-20.707031-10.039062-6.570313-10.265625 15.6875-74.664063-48.859375 10.261719-15.683593-10.042969-6.570313-13.546875 20.707031c-1.816406 2.773438-1.039062 6.492188 1.734375 8.304688l9.101563 5.953125-19.5 29.800781c-1.816406 2.773438-1.039063 6.492188 1.734375 8.304688l16.71875 10.941406-67.449219 19.273437-83.78125-110.066406v-82.292969c0-3.3125-2.6875-6-6-6s-6 2.6875-6 6v169.472656c0 3.3125 2.6875 6 6 6s6-2.6875 6-6zm162.320312 28.5 46.429688 30.382813-16.21875 24.78125-46.429688-30.382813zm0 0"/><path d="m393.394531 264.035156-39.21875-25.660156-6.570312 10.039062 44.238281 28.949219c2.773438 1.8125 6.492188 1.035157 8.304688-1.738281l35.101562-53.648438c1.8125-2.769531 1.035156-6.488281-1.734375-8.304687l-22.585937-14.78125-6.570313 10.042969 17.570313 11.492187zm0 0"/><path d="m196.90625 40.476562-3.597656 5.5c-1.179688 1.792969-1.308594 4.078126-.34375 5.996094.96875 1.914063 2.882812 3.167969 5.027344 3.289063 2.140624.117187 4.183593-.917969 5.355468-2.714844l3.601563-5.5c1.808593-2.769531 1.027343-6.484375-1.742188-8.296875s-6.484375-1.039062-8.300781 1.726562zm0 0"/><path d="m224.195312 58.332031-3.601562 5.5c-1.175781 1.792969-1.304688 4.078125-.339844 5.996094.964844 1.914063 2.882813 3.167969 5.023438 3.289063 2.144531.117187 4.1875-.917969 5.359375-2.714844l3.597656-5.5c1.816406-2.773438 1.039063-6.492188-1.734375-8.304688-2.769531-1.816406-6.488281-1.039062-8.304688 1.734375zm0 0"/><path d="m251.484375 76.1875-3.601563 5.5c-1.175781 1.792969-1.304687 4.078125-.339843 5.996094.964843 1.914062 2.882812 3.167968 5.023437 3.289062 2.144532.117188 4.1875-.917968 5.359375-2.714844l3.597657-5.5c1.808593-2.769531 1.03125-6.484374-1.738282-8.296874-2.769531-1.8125-6.484375-1.039063-8.300781 1.726562zm0 0"/><path d="m278.773438 94.042969-3.601563 5.5c-1.175781 1.792969-1.308594 4.082031-.339844 5.996093.964844 1.914063 2.882813 3.167969 5.023438 3.289063 2.140625.117187 4.183593-.917969 5.359375-2.714844l3.597656-5.5c1.808594-2.769531 1.03125-6.484375-1.738281-8.296875s-6.484375-1.039062-8.300781 1.726563zm0 0"/><path d="m306.058594 111.898438-3.597656 5.5c-1.816407 2.773437-1.039063 6.492187 1.734374 8.308593 2.773438 1.8125 6.492188 1.039063 8.304688-1.734375l3.601562-5.5c1.808594-2.773437 1.03125-6.488281-1.738281-8.300781-2.773437-1.8125-6.488281-1.039063-8.304687 1.730469zm0 0"/><path d="m333.347656 129.757812-3.601562 5.5c-1.8125 2.773438-1.035156 6.492188 1.738281 8.304688 2.769531 1.8125 6.492187 1.035156 8.304687-1.738281l3.601563-5.5c1.8125-2.773438 1.035156-6.492188-1.738281-8.304688-2.773438-1.8125-6.492188-1.035156-8.304688 1.738281zm0 0"/><path d="m358.769531 161.417969c2.773438 1.8125 6.492188 1.039062 8.304688-1.734375l3.601562-5.5c1.816407-2.773438 1.035157-6.492188-1.738281-8.308594s-6.492188-1.035156-8.304688 1.738281l-3.601562 5.5c-1.8125 2.773438-1.035156 6.492188 1.738281 8.304688zm0 0"/><path d="m386.058594 179.273438c2.773437 1.8125 6.492187 1.039062 8.304687-1.734376l3.601563-5.5c1.8125-2.773437 1.039062-6.492187-1.734375-8.304687-2.773438-1.816406-6.492188-1.039063-8.308594 1.734375l-3.597656 5.5c-1.816407 2.769531-1.039063 6.492188 1.734375 8.304688zm0 0"/></g><path d="m460.546875 164.148438-241.890625-158.28125c-16.289062-10.632813-38.117188-6.074219-48.789062 10.195312l-48.035157 73.414062c-10.660156 16.289063-6.09375 38.132813 10.195313 48.789063l192.945312 126.253906c2.050782 1.34375 4.714844 1.300781 6.722656-.105469l129.007813-90.328124c1.632813-1.144532 2.589844-3.019532 2.558594-5.011719-.03125-1.992188-1.046875-3.835938-2.714844-4.925781zm-132.398437 88.105468-189.554688-124.027344c-10.742188-7.027343-13.75-21.433593-6.722656-32.175781l48.039062-73.414062c7.035156-10.734375 21.433594-13.742188 32.179688-6.726563l234.472656 153.425782zm0 0" fill="#1ae5be"/></svg>