<?xml version="1.0"?>
<svg xmlns="http://www.w3.org/2000/svg" id="Layer_1" data-name="Layer 1" viewBox="0 0 512 512" width="512" height="512"><title>Approved</title><path d="M137.293,124.106A97.718,97.718,0,0,1,234.9,26.5a98.739,98.739,0,0,1,18.027,1.657,97.716,97.716,0,0,0-135.634,89.949l.1,32.933,1.176,1.175a8.978,8.978,0,0,0,10.18,1.759,8.794,8.794,0,0,0,4.166-4.09,22.994,22.994,0,0,1,4.439-6.3Z" style="fill:#d4e1f4"/><path d="M194.136,299.925a87,87,0,0,1-28.507-21.082,97.055,97.055,0,0,1-25.011-64.261v-.141a7,7,0,0,0-5.793-6.9,16.772,16.772,0,0,1-13.356-20.493,10.86,10.86,0,0,1,9.839-8.31,7,7,0,0,0,6.121-5.162,22.933,22.933,0,0,0,28.1-11.621c1.062-2.205,2.753-3.627,3.71-3.68l.377-.021c13.1-.732,35.032-1.957,58.426-12.015,3.58-1.54,7.069-3.255,10.485-5.108a132.176,132.176,0,0,1-12.382-10.45,128.874,128.874,0,0,1-18.1,9.558c-23.394,10.058-45.324,11.283-58.426,12.015l-.377.021c-.957.053-2.648,1.475-3.71,3.68a22.933,22.933,0,0,1-28.095,11.621,7,7,0,0,1-6.121,5.162,10.86,10.86,0,0,0-9.839,8.31,16.772,16.772,0,0,0,13.356,20.493,7,7,0,0,1,5.793,6.9v.141a97.055,97.055,0,0,0,25.011,64.261,85.639,85.639,0,0,0,34.222,23.42h.169v.061A76.916,76.916,0,0,0,194.136,299.925Z" style="fill:#d4e1f4"/><path d="M125.39,269.555a112.833,112.833,0,0,1-13.853-29.1l-22.726,85.4c3.294.578,7.661,1.253,12.919,1.864l11.378-12.013Z" style="fill:#d4e1f4"/><path d="M159.63,310.889a7,7,0,0,0-12.072-4.439l-7.425,7.839.729,13.625q1.681.06,3.427.13c3.732.146,7.58.29,11.454.324l4.736-1.605Z" style="fill:#d4e1f4"/><path d="M82,411.751a42.982,42.982,0,0,1,29.2-40.725l31.481-10.67-9.744-9.476L91.2,365.026A42.982,42.982,0,0,0,62,405.751v54.728H82Z" style="fill:#d4e1f4"/><polygon points="167.826 351.833 180.716 347.464 171.153 337.927 147.826 345.833 207.9 404.251 207.9 390.802 167.826 351.833" style="fill:#d4e1f4"/><path d="M200.02,333V317.069a90.2,90.2,0,0,0,25.875,3.79H244.1c1.968,0,3.926-.074,5.876-.2v-9.59a90.178,90.178,0,0,1-25.876,3.791H205.9a90.2,90.2,0,0,1-25.875-3.79V327L215,361.884l6.992-6.973Z" style="fill:#d4e1f4"/><path d="M304,414.5a82.935,82.935,0,0,1,96.6-81.866A82.984,82.984,0,1,0,353.4,490.366,83.1,83.1,0,0,1,304,414.5Z" style="fill:#d4e1f4"/><path d="M237.825,427.049a7,7,0,0,0,0,14h9.99a7,7,0,1,0,0-14Z" style="fill:#0635c9"/><path d="M55,474.479H299.018v-14H221.9v-36.5l75.166-73.094,3.488,1.182,4.494-13.258-18.924-6.414,9.778-12,18.75,16.946,9.387-10.386-24.216-21.887a7,7,0,0,0-10.12.772l-17.729,21.76-7.994-2.709V305.6a101.54,101.54,0,0,0,30.771-23.368,111.934,111.934,0,0,0,24.781-45.391L337.27,322.85l13.711-2.828L328.526,211.143a30.774,30.774,0,0,0,13.6-33.419A24.631,24.631,0,0,0,326.354,160.2l.149-41.4a111.606,111.606,0,1,0-223.21-.666l.1,35.811c0,.056,0,.112,0,.167l.138,6.13a24.632,24.632,0,0,0-15.667,17.488,30.789,30.789,0,0,0,16.546,35.051L73.365,329.455a7,7,0,0,0,5.093,8.6,201.689,201.689,0,0,0,25.251,3.964,7.008,7.008,0,0,0,5.8-2.15L126.52,321.9l.707,13.221a6.956,6.956,0,0,0,.691,2.673L86.7,351.767A56.974,56.974,0,0,0,48,405.751v61.728A7,7,0,0,0,55,474.479ZM171.153,337.927,207.9,374.575v29.676l-60.074-58.418Zm111.021,7.906L221.9,404.446V374.775l36.947-36.848ZM249.98,327,215,361.884,180.02,327V311.069a90.2,90.2,0,0,0,25.875,3.79H224.1a90.178,90.178,0,0,0,25.876-3.791Zm1.335-216.95c8.568,17.211,23.775,31.709,42.81,41.136A120,120,0,0,1,237.772,122.4,140.873,140.873,0,0,0,251.315,110.048ZM214.9,20.5a97.606,97.606,0,0,1,97.6,98.225l-.09,24.9c-24.138-8.106-43.137-24.831-50.945-45.22a180.6,180.6,0,0,0,15.416-23.088A7,7,0,1,0,264.7,68.428c-36.975,65.446-90.259,68.422-115.866,69.852l-.378.021c-6.314.354-12.269,4.792-15.541,11.582a8.794,8.794,0,0,1-4.166,4.09,8.978,8.978,0,0,1-10.18-1.759l-1.176-1.175-.1-32.933A97.718,97.718,0,0,1,214.9,20.5ZM101.469,181.053a10.86,10.86,0,0,1,9.839-8.31,7,7,0,0,0,6.121-5.162,22.933,22.933,0,0,0,28.1-11.621c1.062-2.205,2.753-3.627,3.71-3.68l.377-.021c13.1-.732,35.032-1.957,58.426-12.015a128.874,128.874,0,0,0,18.1-9.558,133.96,133.96,0,0,0,86.427,36.861,7,7,0,0,0,6.124,5.2,10.858,10.858,0,0,1,9.838,8.31,16.768,16.768,0,0,1-13.356,20.493,7,7,0,0,0-5.792,6.9v.141a97.055,97.055,0,0,1-25.011,64.261,85.646,85.646,0,0,1-34.222,23.42h-.168v.06a76.25,76.25,0,0,1-25.876,4.536H205.9a76.268,76.268,0,0,1-25.875-4.535v-.061h-.169a85.639,85.639,0,0,1-34.222-23.42,97.055,97.055,0,0,1-25.011-64.261v-.141a7,7,0,0,0-5.793-6.9,16.772,16.772,0,0,1-13.356-20.493Zm42.82,146.991q-1.746-.067-3.427-.13l-1.232-23.025a7,7,0,0,0-12.072-4.439L101.73,327.718c-5.258-.611-9.625-1.286-12.919-1.864l22.726-85.4a111.833,111.833,0,0,0,23.71,41.777A101.551,101.551,0,0,0,166.02,305.6v19.281l-10.277,3.483C151.869,328.334,148.021,328.19,144.289,328.044ZM62,405.751a42.982,42.982,0,0,1,29.2-40.725l41.737-14.146,74.966,72.9v36.7H62Z" style="fill:#0635c9"/><path d="M367,505.5a97,97,0,1,0-97-97A97.11,97.11,0,0,0,367,505.5Zm0-180a83,83,0,1,1-83,83A83.094,83.094,0,0,1,367,325.5Z" style="fill:#1ae5be"/><path d="M351.448,437.49a7,7,0,0,0,4.957,2.074h.017a7,7,0,0,0,4.95-2.05L409.5,389.385a7,7,0,0,0-9.9-9.9l-43.156,43.155L334.423,400.4a7,7,0,0,0-9.948,9.851Z" style="fill:#1ae5be"/></svg>
