<svg id="Layer_1" viewBox="0 0 512 512" xmlns="http://www.w3.org/2000/svg" data-name="Layer 1"><g fill="#d4e1f4"><path d="m392.668 218.421-7.104-9.754-120.71 88.606 25.513 33.612 14.937-9.839-18.45-23.773z"/><path d="m48.872 344.554a4.005 4.005 0 0 1 .816-5.6l14.719-11.049-7.456-9.99-30.971 23.2 28.77 39.385 13.272-10.248z"/><path d="m86.574 311.469 129.55-96.653-7.14-9.582-142.41 106.235 28.682 38.489 12.859-9.582z"/><path d="m208.286 158.415 73.738-54.95-7.14-9.583-86.598 64.533 88.435 118.673 12.859-9.583z"/><path d="m268.187 51.421-7.104-9.754-118.711 88.606 22.628 30.727 12.938-9.839-15.566-20.888z"/></g><path d="m489.922 480.564a6 6 0 0 0 0-12h-24v-14a16.019 16.019 0 0 0 -16-16h-160a16.019 16.019 0 0 0 -16 16v14h-24a6 6 0 1 0 0 12zm-204-26a4 4 0 0 1 4-4h160a4 4 0 0 1 4 4v14h-168z" fill="#0635c9"/><path d="m249.6 435.581 47.735-23.938a6 6 0 0 0 -5.379-10.727l-47.735 23.938a6 6 0 1 0 5.379 10.727z" fill="#0635c9"/><path d="m294.646 378.534a6 6 0 0 0 2.021-11.651l-58.644-20.983a6 6 0 0 0 -4.043 11.3l58.644 20.981a5.993 5.993 0 0 0 2.022.353z" fill="#0635c9"/><path d="m469.335 257.99a6 6 0 0 0 -8.343-1.546l-46.292 31.821a6 6 0 1 0 6.8 9.888l46.294-31.82a6 6 0 0 0 1.541-8.343z" fill="#0635c9"/><path d="m428 332.921 50.764 8.623a6 6 0 1 0 2.009-11.83l-50.763-8.623a6 6 0 1 0 -2.01 11.83z" fill="#0635c9"/><path d="m422.44 238.338-29.876-40.092a6 6 0 0 0 -8.4-1.226l-11.226 8.365-88.431-118.674 11.225-8.365a6 6 0 0 0 1.227-8.4l-29.876-40.089a6 6 0 0 0 -8.4-1.226l-128.3 95.605a6 6 0 0 0 -1.227 8.4l29.877 40.092a6 6 0 0 0 8.4 1.226l11.225-8.366 22.706 30.47-186.864 139.251a6 6 0 0 0 -1.227 8.4l35.854 48.11a6 6 0 0 0 8.395 1.227l186.87-139.254 22.708 30.467-11.226 8.365a6 6 0 0 0 -1.226 8.4l29.875 40.091a6 6 0 0 0 8.4 1.227l128.3-95.6a6 6 0 0 0 1.217-8.404zm-257.362-77.594-22.706-30.471 118.674-88.434 22.7 30.47-11.226 8.365zm-109.915 219.09-28.682-38.488 30.47-22.706 28.682 38.488zm40.092-29.876-28.681-38.489 141.966-105.792 28.681 38.489zm93.031-191.543 86.6-64.533 88.435 118.674-86.6 64.532zm102.273 170.716-22.705-30.47 118.673-88.434 22.705 30.47z" fill="#1ae5be"/></svg>