<svg height="454pt" viewBox="-81 0 454 454" width="454pt" xmlns="http://www.w3.org/2000/svg"><path d="m42 308c0-68.816406 52.148438-125.675781 119-133.15625-4.980469-.558594-9.988281-.839844-15-.84375-73.886719 0-134 60.113281-134 134s60.113281 134 134 134c5.011719-.003906 10.019531-.285156 15-.84375-66.851562-7.480469-119-64.339844-119-133.15625zm0 0" fill="#d4e1f4"/><g fill="#b8001c"><path d="m146 0c-61.273438.0703125-110.929688 49.726562-111 111v102.269531c-22.613281 26.378907-35.03125 59.984375-35 94.730469 0 80.503906 65.5 146 146 146s146-65.496094 146-146c.03125-34.746094-12.386719-68.351562-35-94.730469v-102.269531c-.070312-61.273438-49.726562-110.9296875-111-111zm0 12c54.652344.0625 98.9375 44.347656 99 99v89.800781c-5.621094-5.195312-11.640625-9.941406-18-14.199219v-75.601562c0-44.734375-36.265625-81-81-81s-81 36.265625-81 81v75.589844c-6.359375 4.257812-12.378906 9.007812-18 14.199218v-89.789062c.0625-54.652344 44.347656-98.9375 99-99zm69 167.363281c-43.085938-23.152343-94.914062-23.152343-138 0v-68.363281c0-38.109375 30.890625-69 69-69s69 30.890625 69 69zm-69 262.636719c-73.886719 0-134-60.113281-134-134s60.113281-134 134-134 134 60.113281 134 134-60.113281 134-134 134zm0 0"/><path d="m166.730469 408.738281c-6.824219 1.394531-13.769531 2.09375-20.730469 2.089844-3.3125 0-6 2.6875-6 6 0 3.316406 2.6875 6 6 6 7.769531.003906 15.523438-.777344 23.136719-2.332031 3.246093-.664063 5.339843-3.835938 4.675781-7.082032-.667969-3.246093-3.835938-5.339843-7.082031-4.675781zm0 0"/><path d="m186.976562 402.34375c-2.019531.820312-3.433593 2.667969-3.695312 4.832031-.265625 2.160157.664062 4.296875 2.425781 5.578125s4.082031 1.503906 6.054688.589844c41.945312-18.230469 69.074219-59.609375 69.066406-105.34375 0-3.3125-2.683594-6-6-6-3.3125 0-6 2.6875-6 6 .007813 40.957031-24.289063 78.015625-61.851563 94.34375zm0 0"/><path d="m152 199.171875c0-3.316406-2.6875-6-6-6-6.988281 0-13.964844.628906-20.839844 1.886719-2.148437.34375-3.945312 1.824218-4.691406 3.867187-.746094 2.046875-.324219 4.335938 1.097656 5.980469 1.421875 1.648438 3.628906 2.394531 5.757813 1.953125 6.164062-1.125 12.414062-1.691406 18.675781-1.6875 3.3125 0 6-2.6875 6-6zm0 0"/><path d="m101.300781 202.199219c-42.542969 17.933593-70.183593 59.632812-70.128906 105.800781 0 3.3125 2.683594 6 6 6 3.3125 0 6-2.6875 6-6-.050781-41.347656 24.703125-78.691406 62.804687-94.75 2.015626-.808594 3.4375-2.640625 3.71875-4.792969.28125-2.15625-.625-4.292969-2.363281-5.589843-1.742187-1.296876-4.050781-1.550782-6.03125-.667969zm0 0"/></g><path d="m146 374.625c8.832031-.011719 15.988281-7.167969 16-16v-22.015625c8.75-6.832031 12.195312-18.460937 8.585938-28.953125-3.613282-10.496094-13.488282-17.542969-24.585938-17.542969s-20.972656 7.046875-24.585938 17.542969c-3.609374 10.492188-.164062 22.121094 8.585938 28.953125v22.015625c.011719 8.832031 7.167969 15.988281 16 16zm0-72.5c6.332031.003906 11.871094 4.257812 13.511719 10.375s-1.03125 12.570312-6.511719 15.742188c-1.855469 1.074218-3 3.050781-3 5.195312v25.1875c0 2.210938-1.789062 4-4 4s-4-1.789062-4-4v-25.1875c0-2.144531-1.144531-4.121094-3-5.195312-5.480469-3.171876-8.152344-9.625-6.511719-15.742188s7.179688-10.371094 13.511719-10.375zm0 0" fill="#2f2f2f"/></svg>