<svg height="470.348pt" viewBox="0 0 470.348 470.348" width="470.348pt" xmlns="http://www.w3.org/2000/svg"><g fill="#0635c9"><path d="m137.980469 240.917969c.085937-.125.167969-.25.25-.378907.082031-.125.171875-.277343.253906-.417968.082031-.144532.148437-.265625.214844-.402344.066406-.136719.144531-.289062.210937-.4375s.121094-.277344.179688-.421875c.058594-.140625.113281-.300781.167968-.453125.050782-.152344.097657-.289062.140626-.433594.039062-.148437.085937-.324218.121093-.484375.035157-.144531.070313-.285156.101563-.429687.035156-.1875.0625-.375.085937-.566406.015625-.121094.035157-.242188.050781-.367188.058594-.632812.058594-1.273438 0-1.910156-.015624-.121094-.035156-.242188-.050781-.367188-.023437-.1875-.050781-.375-.085937-.5625-.027344-.144531-.0625-.289062-.101563-.429687-.035156-.164063-.078125-.324219-.121093-.484375-.046876-.160156-.09375-.292969-.140626-.4375-.050781-.144532-.109374-.296875-.167968-.453125-.058594-.152344-.117188-.28125-.179688-.417969s-.136718-.300781-.210937-.441406-.140625-.265625-.214844-.398438c-.074219-.132812-.164063-.28125-.253906-.421875-.089844-.140625-.164063-.253906-.25-.375-.085938-.125-.191407-.261719-.292969-.390625-.097656-.128906-.191406-.246094-.292969-.363281-.039062-.046875-.074219-.097656-.113281-.140625l-37.070312-41.757812c-3.671876-4.105469-9.972657-4.46875-14.089844-.8125-4.121094 3.65625-4.507813 9.957031-.867188 14.089843l22.300782 25.125h-97.554688c-5.523438 0-10 4.476563-10 10 0 5.519531 4.476562 10 10 10h97.554688l-22.300782 25.125c-3.726562 4.074219-3.445312 10.402344.628906 14.128907 4.078126 3.726562 10.402344 3.445312 14.128907-.628907.066406-.074219.132812-.148437.203125-.226562l37.066406-41.761719c.042969-.046875.078125-.101562.117188-.144531.097656-.117188.199218-.238281.292968-.359375.089844-.125.195313-.257813.289063-.390625zm0 0"/><path d="m460.347656 225.175781h-97.554687l22.300781-25.128906c3.566406-4.140625 3.148438-10.375-.941406-14.003906-4.085938-3.628907-10.328125-3.300781-14.015625.730469l-37.070313 41.765624c-.039062.046876-.074218.097657-.113281.140626-.101563.117187-.199219.238281-.292969.363281-.09375.121093-.199218.257812-.292968.390625-.089844.128906-.167969.25-.25.375-.082032.128906-.171876.28125-.253907.421875s-.144531.261719-.214843.398437c-.066407.136719-.144532.292969-.210938.441406-.066406.148438-.121094.277344-.179688.417969-.058593.144531-.113281.300781-.164062.453125-.054688.15625-.101562.289063-.144531.4375-.039063.148438-.085938.320313-.121094.484375-.035156.140625-.070313.285157-.101563.429688-.035156.1875-.0625.375-.085937.5625-.015625.125-.035156.246093-.046875.367187-.0625.636719-.0625 1.277344 0 1.910156.011719.125.03125.246094.046875.371094.023437.1875.050781.375.085937.5625.027344.144532.0625.285156.101563.429688.035156.160156.078125.324218.121094.484375.046875.160156.09375.289062.144531.433593.046875.144532.105469.300782.164062.453126.058594.152343.117188.28125.179688.421874.0625.140626.136719.292969.210938.4375.074218.144532.140624.269532.214843.402344.074219.132813.164063.28125.253907.417969.089843.140625.164062.253906.25.378906.085937.125.191406.261719.292968.390625.101563.128906.191406.242188.292969.359375.039063.046875.074219.101563.113281.144531l37.070313 41.753907c3.671875 4.105469 9.972656 4.46875 14.089843.8125 4.121094-3.65625 4.507813-9.957031.867188-14.089844l-22.300781-25.121094h97.554687c5.523438 0 10-4.480469 10-10 0-5.523437-4.476562-10-10-10zm0 0"/><path d="m270.300781 85.253906-25.125 22.300782v-97.554688c0-5.523438-4.480469-10-10-10-5.523437 0-10 4.476562-10 10v97.554688l-25.128906-22.300782c-4.140625-3.566406-10.375-3.148437-14.003906.941406-3.628907 4.085938-3.300781 10.328126.730469 14.015626l41.765624 37.070312c.046876.039062.097657.074219.140626.113281.121093.101563.242187.203125.363281.292969.121093.09375.257812.199219.390625.292969.128906.089843.25.167969.375.25.128906.082031.28125.171875.421875.253906s.261719.148437.398437.214844c.136719.070312.289063.144531.4375.210937.148438.066406.28125.121094.421875.179688s.300781.113281.453125.167968c.152344.050782.289063.097657.4375.140626.148438.039062.320313.082031.480469.121093.144531.035157.285156.070313.429687.101563.1875.035156.375.0625.5625.085937.125.015625.246094.035157.371094.050781.316406.027344.636719.046876.953125.046876.320313 0 .636719-.019532.957031-.046876.125-.015624.246094-.035156.367188-.050781.1875-.023437.378906-.050781.5625-.085937.148438-.027344.289062-.0625.433594-.101563.160156-.039062.320312-.078125.480468-.121093.160157-.046876.292969-.09375.4375-.140626.144532-.050781.300782-.109374.453126-.167968.152343-.058594.28125-.117188.417968-.179688.140625-.0625.292969-.136718.441406-.210937.144532-.074219.265626-.140625.398438-.214844s.28125-.164063.417969-.253906c.140625-.085938.253906-.164063.378906-.25.125-.089844.261719-.191407.390625-.292969.128906-.097656.242188-.191406.359375-.292969.046875-.039062.101563-.074219.144531-.113281l41.757813-37.070312c4.105469-3.671876 4.46875-9.972657.8125-14.089844-3.65625-4.121094-9.957031-4.507813-14.089844-.867188zm0 0"/><path d="m283.574219 370.136719-41.765625-37.070313c-.042969-.039062-.097656-.074218-.140625-.113281-.117188-.101563-.238281-.199219-.363281-.292969-.121094-.089844-.257813-.199218-.390626-.292968-.132812-.09375-.25-.167969-.375-.25-.128906-.082032-.277343-.175782-.421874-.253907-.140626-.082031-.261719-.144531-.398438-.214843-.136719-.066407-.292969-.144532-.441406-.210938-.148438-.066406-.277344-.121094-.417969-.179688-.140625-.058593-.300781-.113281-.457031-.164062-.152344-.054688-.285156-.101562-.433594-.144531-.148438-.039063-.320312-.082031-.484375-.121094-.140625-.035156-.285156-.070313-.429687-.101563-.1875-.035156-.375-.0625-.5625-.085937-.125-.015625-.246094-.039063-.367188-.046875-.636719-.0625-1.277344-.0625-1.910156 0-.125.007812-.246094.03125-.367188.046875-.191406.023437-.378906.050781-.566406.085937-.144531.027344-.285156.0625-.429688.101563-.160156.039063-.324218.078125-.484374.121094-.15625.046875-.289063.09375-.433594.144531-.144532.046875-.300782.105469-.453125.164062-.152344.058594-.28125.117188-.421875.179688-.136719.0625-.292969.136719-.4375.210938-.144532.074218-.265625.140624-.402344.214843-.132812.074219-.28125.167969-.417969.253907-.140625.089843-.253906.164062-.378906.25-.121094.085937-.261719.191406-.390625.292968-.128906.101563-.242188.191406-.359375.292969-.046875.039063-.101563.074219-.144531.113281l-41.753906 37.070313c-4.105469 3.671875-4.46875 9.972656-.8125 14.089843 3.65625 4.121094 9.957031 4.507813 14.089843.867188l25.125-22.300781v97.554687c0 5.523438 4.476563 10 10 10 5.519531 0 10-4.476562 10-10v-97.554687l25.125 22.300781c4.074219 3.726562 10.398438 3.445312 14.128907-.628906 3.726562-4.074219 3.445312-10.398438-.628907-14.128906-.074219-.0625-.152343-.132813-.226562-.199219zm0 0"/></g></svg>