<svg id="Layer_1" height="512" viewBox="0 0 512 512" width="512" xmlns="http://www.w3.org/2000/svg" data-name="Layer 1"><path d="m112.7 120.43h30v277.47h-30z" fill="#d4e1f4"/><path d="m112.698 391.896h286.604v12h-286.604z" fill="#b8001c"/><path d="m112.698 114.425h286.604v12h-286.604z" fill="#b8001c"/><path d="m130.816 86.99a21.2 21.2 0 0 0 -21.171-21.171h-8.128v-6.127a24.644 24.644 0 1 0 -49.288 0v6.127h-8.129a21.154 21.154 0 0 0 -9.054 40.28v299.801a21.154 21.154 0 0 0 9.054 40.28h8.128v6.128a24.644 24.644 0 0 0 49.288 0v-6.128h8.128a21.153 21.153 0 0 0 9.056-40.28v-299.8a21.177 21.177 0 0 0 12.116-19.11zm-83.769 316.849v-295.677h59.653v295.677zm17.182-344.147a12.644 12.644 0 1 1 25.288 0v6.127h-25.288zm-20.129 18.127h65.544a9.172 9.172 0 0 1 0 18.343h-65.544a9.172 9.172 0 0 1 0-18.343zm45.416 374.49a12.644 12.644 0 0 1 -25.288 0v-6.128h25.289zm20.128-18.128h-65.544a9.171 9.171 0 0 1 0-18.342h65.544a9.171 9.171 0 1 1 0 18.342z" fill="#2f2f2f"/><path d="m489.07 86.99a21.2 21.2 0 0 0 -21.17-21.171h-8.128v-6.127a24.672 24.672 0 0 0 -24.644-24.645h-1.356c-13.276 0-23.288 10.6-23.288 24.645v6.127h-8.128a21.153 21.153 0 0 0 -9.056 40.281v299.8a21.153 21.153 0 0 0 9.053 40.28h8.128v6.128a24.644 24.644 0 0 0 49.288 0v-6.128h8.131a21.154 21.154 0 0 0 9.054-40.28v-299.8a21.178 21.178 0 0 0 12.116-19.11zm-83.77 316.849v-295.677h59.651v295.677zm17.183-344.147c0-6.284 3.877-12.645 11.288-12.645h1.356a12.659 12.659 0 0 1 12.644 12.645v6.127h-25.288zm-20.128 18.127h65.545a9.172 9.172 0 0 1 0 18.343h-65.545a9.172 9.172 0 0 1 0-18.343zm45.416 374.49a12.644 12.644 0 0 1 -25.288 0v-6.128h25.288zm20.129-18.128h-65.545a9.171 9.171 0 0 1 0-18.342h65.545a9.171 9.171 0 0 1 0 18.342z" fill="#2f2f2f"/><path d="m69.457 126.554a6 6 0 0 0 -6 6v7.151a6 6 0 0 0 12 0v-7.151a6 6 0 0 0 -6-6z" fill="#2f2f2f"/><path d="m69.457 153.666a6 6 0 0 0 -6 6v143.886a6 6 0 0 0 12 0v-143.886a6 6 0 0 0 -6-6z" fill="#2f2f2f"/><g fill="#b8001c"><path d="m153.466 179.956h96.434a6 6 0 0 0 0-12h-96.434a6 6 0 0 0 0 12z"/><path d="m153.466 221.477h205.068a6 6 0 0 0 0-12h-205.068a6 6 0 0 0 0 12z"/><path d="m153.466 263h205.068a6 6 0 0 0 0-12h-205.068a6 6 0 0 0 0 12z"/><path d="m153.466 303.521h205.068a6 6 0 0 0 0-12h-205.068a6 6 0 0 0 0 12z"/><path d="m153.466 344.044h205.068a6 6 0 0 0 0-12h-205.068a6 6 0 0 0 0 12z"/></g></svg>