<svg height="456pt" viewBox="-21 0 456 456.111" width="456pt" xmlns="http://www.w3.org/2000/svg"><path d="m294.285156 414.109375h-159.238281v-285.609375h-22.132813v32.0625h-27.867187v286.546875h253.984375v-33zm0 0" fill="#d4e1f4"/><g fill="#2f2f2f"><path d="m212 251.679688h-94.628906c-4.96875 0-9-4.027344-9-9 0-4.96875 4.03125-9 9-9h94.628906c4.96875 0 9 4.03125 9 9 0 4.972656-4.03125 9-9 9zm0 0"/><path d="m212 295.210938h-94.628906c-4.96875 0-9-4.03125-9-9s4.03125-9 9-9h94.628906c4.96875 0 9 4.03125 9 9s-4.03125 9-9 9zm0 0"/><path d="m212 338.738281h-94.628906c-4.96875 0-9-4.03125-9-9 0-4.972656 4.03125-9 9-9h94.628906c4.96875 0 9 4.027344 9 9 0 4.96875-4.03125 9-9 9zm0 0"/><path d="m212 208.152344h-94.628906c-4.96875 0-9-4.03125-9-9 0-4.972656 4.03125-9 9-9h94.628906c4.96875 0 9 4.027344 9 9 0 4.96875-4.03125 9-9 9zm0 0"/><path d="m311.359375 337.789062h-40.691406c-4.96875 0-9-4.027343-9-9 0-4.96875 4.03125-9 9-9h40.691406c4.96875 0 9 4.03125 9 9 0 4.972657-4.03125 9-9 9zm0 0"/><path d="m311.359375 373.75h-40.691406c-4.96875 0-9-4.03125-9-9s4.03125-9 9-9h40.691406c4.96875 0 9 4.03125 9 9s-4.03125 9-9 9zm0 0"/><path d="m311.359375 412.546875h-40.691406c-4.96875 0-9-4.027344-9-9 0-4.96875 4.03125-9 9-9h40.691406c4.96875 0 9 4.03125 9 9 0 4.972656-4.03125 9-9 9zm0 0"/><path d="m311.359375 298.992188h-40.691406c-4.96875 0-9-4.027344-9-9 0-4.96875 4.03125-9 9-9h40.691406c4.96875 0 9 4.03125 9 9 0 4.972656-4.03125 9-9 9zm0 0"/><path d="m232.773438 77.195312c-1.160157 0-2.296876-.289062-3.316407-.835937l-17.125-9.214844-17.300781 8.882813c-2.371094 1.214844-5.226562.976562-7.363281-.609375-2.140625-1.585938-3.191407-4.25-2.71875-6.871094l3.472656-19.136719-13.796875-13.707031c-1.886719-1.878906-2.546875-4.664063-1.699219-7.191406.851563-2.527344 3.058594-4.351563 5.699219-4.707031l19.273438-2.609376 8.773437-17.355468c1.191406-2.355469 3.605469-3.839844 6.246094-3.839844h.070312c2.664063.0273438 5.082031 1.5625 6.238281 3.964844l8.4375 17.519531 19.214844 2.984375c2.632813.40625 4.804688 2.273438 5.605469 4.816406.796875 2.542969.085937 5.316406-1.839844 7.160156l-14.0625 13.4375 3.101563 19.199219c.324218 2.023438-.253906 4.089844-1.582032 5.652344-1.332031 1.5625-3.277343 2.464844-5.332031 2.464844zm-20.367188-24.960937c1.160156 0 2.296875.289063 3.316406.835937l7.878906 4.242188-1.425781-8.832031c-.371093-2.273438.40625-4.582031 2.070313-6.175781l6.464844-6.179688-8.835938-1.371094c-2.277344-.355468-4.234375-1.804687-5.234375-3.882812l-3.878906-8.058594-4.035157 7.980469c-1.042968 2.054687-3.027343 3.46875-5.308593 3.777343l-8.863281 1.199219 6.34375 6.300781c1.632812 1.621094 2.363281 3.945313 1.953124 6.214844l-1.597656 8.800782 7.957032-4.074219c.988281-.507813 2.082031-.773438 3.195312-.777344zm0 0"/><path d="m325.84375 103.238281c-1.15625 0-2.296875-.285156-3.316406-.835937l-13.050782-7.023438-13.1875 6.769532c-2.367187 1.21875-5.226562.984374-7.363281-.601563-2.140625-1.589844-3.195312-4.253906-2.71875-6.875l2.644531-14.582031-10.511718-10.449219c-1.886719-1.878906-2.546875-4.667969-1.699219-7.195313.851563-2.523437 3.058594-4.347656 5.699219-4.707031l14.6875-1.988281 6.6875-13.226562c1.191406-2.355469 3.605468-3.839844 6.246094-3.839844h.070312c2.664062.023437 5.082031 1.5625 6.238281 3.960937l6.429688 13.355469 14.648437 2.273438c2.628906.410156 4.804688 2.277343 5.601563 4.816406.796875 2.542968.085937 5.316406-1.839844 7.160156l-10.714844 10.242188 2.367188 14.628906c.324219 2.027344-.253907 4.09375-1.582031 5.65625-1.332032 1.5625-3.277344 2.460937-5.332032 2.460937zm-16.292969-22.765625c1.15625 0 2.296875.285156 3.316407.835938l3.800781 2.042968-.6875-4.261718c-.367188-2.273438.40625-4.582032 2.070312-6.175782l3.121094-2.984374-4.265625-.660157c-2.277344-.355469-4.234375-1.804687-5.234375-3.882812l-1.871094-3.890625-1.949219 3.855468c-1.039062 2.054688-3.023437 3.46875-5.304687 3.777344l-4.28125.578125 3.0625 3.046875c1.632813 1.621094 2.363281 3.945313 1.953125 6.214844l-.769531 4.246094 3.839843-1.972656c.988282-.507813 2.085938-.773438 3.199219-.769532zm0 0"/><path d="m131.664062 103.238281c-1.160156 0-2.296874-.285156-3.316406-.835937l-13.050781-7.023438-13.1875 6.769532c-2.371094 1.21875-5.226563.984374-7.367187-.601563-2.140626-1.589844-3.195313-4.253906-2.71875-6.875l2.648437-14.582031-10.511719-10.449219c-1.890625-1.878906-2.546875-4.667969-1.699218-7.191406.847656-2.527344 3.054687-4.351563 5.695312-4.710938l14.6875-1.988281 6.683594-13.226562c1.191406-2.355469 3.609375-3.839844 6.25-3.839844h.066406c2.664062.023437 5.082031 1.5625 6.238281 3.960937l6.433594 13.355469 14.644531 2.273438c2.632813.410156 4.804688 2.277343 5.605469 4.816406.796875 2.542968.082031 5.316406-1.839844 7.160156l-10.714843 10.242188 2.363281 14.628906c.328125 2.027344-.25 4.09375-1.582031 5.65625-1.328126 1.5625-3.277344 2.460937-5.328126 2.460937zm-16.292968-22.765625c1.160156 0 2.296875.285156 3.316406.835938l3.800781 2.042968-.6875-4.261718c-.367187-2.273438.40625-4.582032 2.074219-6.175782l3.121094-2.984374-4.269532-.660157c-2.273437-.355469-4.230468-1.804687-5.230468-3.882812l-1.875-3.890625-1.949219 3.855468c-1.039063 2.054688-3.023437 3.46875-5.304687 3.777344l-4.28125.578125 3.0625 3.046875c1.636718 1.621094 2.367187 3.945313 1.953124 6.214844l-.769531 4.246094 3.839844-1.972656c.992187-.507813 2.085937-.773438 3.199219-.769532zm0 0"/><path d="m398.488281 163.449219c-1.15625.003906-2.296875-.285157-3.316406-.835938l-10.144531-5.457031-10.242188 5.261719c-2.371094 1.21875-5.226562.984375-7.367187-.605469-2.140625-1.585938-3.195313-4.25-2.71875-6.871094l2.058593-11.332031-8.171874-8.121094c-1.886719-1.878906-2.546876-4.664062-1.699219-7.191406.851562-2.527344 3.058593-4.351563 5.699219-4.707031l11.414062-1.546875 5.199219-10.277344c1.21875-2.359375 3.65625-3.84375 6.316406-3.839844 2.664063.027344 5.082031 1.5625 6.238281 3.960938l5 10.378906 11.382813 1.765625c2.628906.410156 4.804687 2.277344 5.601562 4.820312.796875 2.539063.085938 5.316407-1.839843 7.15625l-8.324219 7.960938 1.835937 11.367188c.328125 2.027343-.25 4.09375-1.582031 5.65625-1.328125 1.5625-3.277344 2.460937-5.328125 2.460937zm-13.382812-21.199219c1.160156 0 2.296875.289062 3.320312.835938l.890625.480468-.160156-1c-.367188-2.273437.40625-4.582031 2.070312-6.175781l.734376-.699219-1-.15625c-2.277344-.351562-4.234376-1.804687-5.234376-3.878906l-.4375-.914062-.460937.902343c-1.039063 2.054688-3.023437 3.46875-5.304687 3.777344l-1 .136719.71875.714844c1.632812 1.625 2.363281 3.949218 1.953124 6.214843l-.183593 1 .902343-.464843c.988282-.507813 2.082032-.773438 3.191407-.773438zm0 0"/><path d="m42.777344 163.902344c-1.15625 0-2.296875-.285156-3.316406-.835938l-10.433594-5.613281-10.539063 5.410156c-2.371093 1.21875-5.226562.984375-7.367187-.601562-2.140625-1.589844-3.195313-4.253907-2.71875-6.875l2.117187-11.65625-8.402343-8.351563c-1.886719-1.882812-2.546876-4.667968-1.695313-7.195312.847656-2.527344 3.054687-4.351563 5.695313-4.707032l11.742187-1.589843 5.335937-10.574219c1.214844-2.367188 3.65625-3.851562 6.316407-3.84375 2.664062.027344 5.082031 1.5625 6.238281 3.964844l5.140625 10.675781 11.707031 1.816406c2.632813.40625 4.804688 2.273438 5.605469 4.816407.796875 2.542968.085937 5.316406-1.839844 7.160156l-8.5625 8.1875 1.886719 11.699218c.328125 2.023438-.25 4.089844-1.578125 5.652344-1.332031 1.5625-3.28125 2.464844-5.332031 2.464844zm-13.671875-21.359375c1.15625 0 2.296875.289062 3.316406.835937l1.183594.636719-.214844-1.324219c-.367187-2.277344.40625-4.585937 2.074219-6.179687l.96875-.929688-1.324219-.207031c-2.277344-.351562-4.234375-1.804688-5.234375-3.878906l-.585938-1.210938-.605468 1.199219c-1.039063 2.054687-3.023438 3.46875-5.304688 3.777344l-1.335937.179687.953125.949219c1.636718 1.625 2.367187 3.953125 1.953125 6.21875l-.238281 1.324219 1.199218-.613282c.988282-.507812 2.082032-.773437 3.195313-.777343zm0 0"/><path d="m311.359375 261.144531h-40.691406c-4.96875 0-9-4.03125-9-9 0-4.972656 4.03125-9 9-9h40.691406c4.96875 0 9 4.027344 9 9 0 4.96875-4.03125 9-9 9zm0 0"/></g><path d="m339.03125 190.300781h-8.734375v-22.632812c0-4.96875-4.03125-9-9-9h-16.246094v-8.15625c0-4.972657-4.03125-9-9-9-4.972656 0-9 4.027343-9 9v8.15625h-16.722656c-4.96875 0-9 4.03125-9 9v22.632812h-8.042969v-29.738281c0-4.96875-4.027344-9-9-9h-18.863281v-23.0625c0-4.96875-4.03125-9-9-9h-43.683594v-13.089844c0-4.96875-4.03125-9-9-9-4.972656 0-9 4.03125-9 9v13.085938h-41.824219c-4.96875 0-9 4.03125-9 9v23.0625h-18.863281c-4.972656 0-9 4.03125-9 9v286.550781c0 4.972656 4.027344 9 9 9h253.980469c4.972656 0 9-4.027344 9-9v-247.808594c0-4.96875-4.027344-9-9-9zm-217.117188-52.800781h85.507813v14.0625h-85.5zm65.601563 300.609375h-14.777344v-45.414063h14.777344zm-32.777344 0h-12.917969v-45.414063h12.917969zm80.546875 0h-29.769531v-54.414063c0-4.96875-4.03125-9-9-9h-63.695313c-4.972656 0-9 4.03125-9 9v54.414063h-29.769531v-268.546875h141.234375zm44.042969-261.4375h32.96875v13.628906h-32.96875zm50.699219 261.4375h-76.742188v-229.808594h76.746094zm0 0" fill="#004682FF"/></svg>
