<?xml version="1.0" standalone="no"?>
<!DOCTYPE svg PUBLIC "-//W3C//DTD SVG 20010904//EN"
 "http://www.w3.org/TR/2001/REC-SVG-20010904/DTD/svg10.dtd">
<svg version="1.0" xmlns="http://www.w3.org/2000/svg"
 width="318.000000pt" height="158.000000pt" viewBox="0 0 318.000000 158.000000"
 preserveAspectRatio="xMidYMid meet">

<g transform="translate(0.000000,158.000000) scale(0.100000,-0.100000)"
fill="#000000" stroke="none">
<path d="M1931 1347 c-29 -14 -48 -57 -26 -57 7 0 17 5 20 10 3 6 15 10 26 10
17 0 24 -11 20 -32 -1 -10 5 -10 49 3 30 9 43 8 68 -5 18 -9 32 -20 32 -25 0
-5 9 -11 20 -14 23 -6 27 -27 5 -27 -8 0 -15 4 -15 9 0 5 -30 8 -67 6 -77 -4
-194 -42 -172 -56 24 -15 48 -10 115 22 l65 31 44 -17 c25 -9 45 -21 45 -27 0
-6 7 -8 15 -5 8 4 17 2 21 -4 3 -6 -4 -13 -16 -16 -16 -4 -18 -8 -8 -14 24
-16 -22 -10 -58 7 -31 15 -49 15 -111 1 -9 -2 -24 -13 -34 -25 -19 -25 -52
-30 -43 -8 6 15 -25 30 -61 31 -30 0 -32 56 -5 100 l22 35 -22 0 c-17 0 -21
-5 -17 -20 3 -10 -1 -24 -9 -30 -20 -18 -54 -93 -54 -122 0 -31 47 -91 63 -82
8 5 7 2 0 -7 -18 -18 -16 -54 2 -69 8 -7 15 -18 15 -24 0 -13 44 -48 73 -59
11 -4 21 -16 24 -27 3 -11 12 -20 19 -20 8 0 14 -9 14 -19 0 -11 11 -33 26
-50 l25 -30 -41 -21 c-23 -12 -40 -23 -38 -25 9 -9 94 28 109 47 29 37 178 79
167 47 -3 -8 -28 -17 -59 -22 -29 -4 -57 -11 -62 -16 -13 -13 24 -51 48 -51
11 0 32 -8 45 -17 13 -10 42 -20 64 -23 37 -5 64 -30 32 -30 -8 0 -31 -10 -51
-21 -43 -26 -123 -23 -155 6 -11 10 -20 13 -20 7 0 -7 -5 -12 -11 -12 -7 0 -9
11 -5 30 l6 30 -22 -19 c-15 -15 -25 -18 -39 -11 -20 11 -98 -24 -141 -63 -20
-18 -33 -23 -59 -19 -19 3 -28 7 -21 9 20 7 14 23 -9 23 -11 0 -18 4 -15 9 10
16 -53 6 -71 -12 -9 -9 -13 -17 -7 -17 6 0 25 -18 43 -40 27 -33 30 -44 21
-56 -10 -11 -16 -11 -26 -3 -8 6 -54 12 -103 13 -76 1 -88 3 -81 16 14 25 48
52 59 46 5 -4 21 -1 35 5 21 10 23 14 11 26 -21 20 -80 -7 -122 -57 -28 -33
-39 -39 -59 -34 -32 8 -52 -10 -46 -41 5 -29 -13 -55 -39 -55 -49 0 -84 -118
-52 -180 22 -43 97 -88 122 -74 21 13 51 6 51 -12 0 -8 6 -14 13 -14 20 0 37
22 37 47 0 25 19 30 37 12 22 -22 142 64 181 128 l19 33 53 -40 c29 -22 72
-47 96 -56 43 -16 44 -17 41 -62 -2 -41 1 -48 26 -60 23 -11 27 -19 27 -53 l0
-39 478 1 c373 0 473 3 457 12 -10 7 -33 25 -50 41 -16 16 -59 43 -94 59 -62
30 -65 30 -93 14 -38 -22 -45 -21 -51 3 -3 14 -14 20 -31 20 -28 0 -29 2 -26
67 l1 43 -45 -17 c-44 -17 -46 -17 -61 2 -20 27 -47 123 -39 137 4 6 1 9 -7 6
-7 -2 -14 -15 -14 -29 0 -34 -27 -30 -37 6 -6 23 -3 34 10 47 15 15 27 17 87
9 39 -5 71 -5 73 0 8 20 44 7 60 -21 9 -16 22 -30 28 -30 6 0 32 -9 58 -20 35
-16 54 -34 81 -75 32 -51 76 -85 109 -85 8 0 32 -21 54 -46 30 -35 38 -53 36
-75 -3 -25 0 -29 20 -29 12 0 31 -9 41 -20 11 -12 31 -20 50 -20 28 0 33 4 43
39 16 52 15 93 -3 117 -14 19 -14 18 -15 -3 0 -17 -6 -23 -23 -23 -37 0 -90
69 -91 119 -1 18 -9 26 -36 35 -26 8 -36 18 -38 36 -6 36 -30 49 -93 50 -65 0
-75 8 -85 70 -7 44 -19 70 -34 70 -4 0 -5 -11 -2 -25 3 -20 0 -25 -17 -25 -14
0 -21 6 -21 18 0 10 -5 23 -11 29 -9 9 -4 20 20 43 l31 32 34 -21 c18 -12 41
-21 51 -21 10 0 57 -25 105 -55 80 -51 228 -135 236 -135 2 0 4 44 4 98 l0 97
-100 64 c-54 35 -113 77 -130 94 l-31 30 -15 -22 c-13 -17 -19 -20 -30 -10
-18 15 -18 33 1 49 8 7 15 16 15 21 0 10 -60 6 -78 -5 -19 -11 -27 1 -13 18
25 30 -37 92 -103 103 -53 8 -186 -55 -186 -89 0 -4 14 -23 31 -43 18 -20 29
-38 26 -42 -8 -8 -108 82 -127 114 -9 15 -22 29 -30 31 -11 4 -9 -2 4 -17 26
-29 8 -27 -34 4 -43 32 -77 32 -124 0 -42 -28 -111 -65 -123 -65 -4 0 9 15 29
33 31 28 37 39 34 65 -3 17 -7 35 -10 40 -7 11 22 52 37 52 6 0 23 -12 38 -26
21 -20 38 -26 83 -28 34 -2 63 -9 74 -19 17 -15 18 -14 16 34 -1 28 -6 54 -10
57 -4 4 -4 -2 -1 -13 5 -12 -4 -7 -22 15 -19 22 -26 39 -20 45 5 5 9 25 9 45
0 27 -7 43 -30 65 -16 15 -27 32 -24 36 3 5 -8 21 -23 35 -15 14 -28 33 -28
43 0 10 -14 20 -35 27 -19 7 -34 16 -33 20 5 23 -85 35 -141 18 -14 -4 -18 -3
-11 4 6 6 21 12 35 15 16 3 9 5 -18 6 -27 0 -41 -3 -37 -9 9 -14 -16 -12 -45
5 -31 18 -39 18 -69 2z m339 -181 c0 -3 -4 -8 -10 -11 -5 -3 -10 -1 -10 4 0 6
5 11 10 11 6 0 10 -2 10 -4z m-40 -32 c0 -2 -9 -4 -20 -4 -11 0 -20 4 -20 9 0
5 9 7 20 4 11 -3 20 -7 20 -9z m135 -82 c4 -11 -2 -9 -19 7 -15 14 -26 21 -26
16 0 -11 -29 27 -30 38 0 13 68 -42 75 -61z m-372 21 c-7 -2 -19 -2 -25 0 -7
3 -2 5 12 5 14 0 19 -2 13 -5z m-109 -52 c-21 -42 -30 -33 -14 14 7 22 16 33
21 28 6 -6 3 -22 -7 -42z m112 14 c-26 -19 -42 -19 -26 0 7 8 20 15 29 15 13
-1 13 -3 -3 -15z m164 -30 c0 -24 -6 -37 -19 -45 -27 -14 -51 -13 -51 3 0 16
-41 37 -72 37 -14 0 -18 4 -12 9 13 14 73 29 117 30 36 1 37 0 37 -34z m109 1
c-3 -3 -11 5 -18 17 -13 21 -12 21 5 5 10 -10 16 -20 13 -22z m-332 -18 c-3
-8 -6 -5 -6 6 -1 11 2 17 5 13 3 -3 4 -12 1 -19z m678 -168 c3 -5 8 -19 10
-31 2 -11 7 -30 11 -41 5 -17 3 -18 -13 -10 -25 14 -47 57 -40 76 7 18 23 21
32 6z m-505 -47 c-8 -3 -22 -11 -30 -17 -13 -10 -13 -9 -1 7 7 9 21 17 30 16
13 0 14 -1 1 -6z m275 -41 c-3 -3 -11 0 -18 7 -9 10 -8 11 6 5 10 -3 15 -9 12
-12z m85 8 c0 -5 -4 -10 -10 -10 -5 0 -10 5 -10 10 0 6 5 10 10 10 6 0 10 -4
10 -10z m46 -55 c20 -14 49 -25 65 -25 41 0 59 -10 59 -32 0 -11 -4 -16 -11
-13 -6 4 -5 -2 2 -13 7 -12 10 -24 7 -27 -12 -12 -48 6 -48 23 -1 20 -91 92
-115 92 -9 0 -13 5 -10 10 8 14 9 13 51 -15z m-45 -85 c32 -18 22 -30 -25 -30
-41 0 -74 19 -59 33 10 11 62 8 84 -3z m19 -61 c0 -5 -4 -9 -10 -9 -5 0 -10 7
-10 16 0 8 5 12 10 9 6 -3 10 -10 10 -16z m-860 1 c-20 -13 -33 -13 -25 0 3 6
14 10 23 10 15 0 15 -2 2 -10z m160 -30 c0 -5 -7 -7 -15 -4 -8 4 -15 8 -15 10
0 2 7 4 15 4 8 0 15 -4 15 -10z m-330 -65 c0 -8 -4 -15 -9 -15 -13 0 -22 16
-14 24 11 11 23 6 23 -9z m740 5 c0 -18 -40 -30 -104 -30 -71 0 -86 14 -33 29
43 12 137 13 137 1z m-362 -53 c-2 -18 -9 -22 -42 -22 -53 0 -71 28 -38 55 22
18 26 18 53 4 22 -11 29 -21 27 -37z m562 -7 c0 -5 -7 -7 -15 -4 -8 4 -15 8
-15 10 0 2 7 4 15 4 8 0 15 -4 15 -10z m-495 -11 c11 -17 -1 -21 -15 -4 -8 9
-8 15 -2 15 6 0 14 -5 17 -11z m463 -106 c-7 -35 -190 -70 -223 -43 -26 22
-16 29 33 24 36 -4 55 -1 82 15 46 26 113 28 108 4z"/>
<path d="M1364 1268 l-19 -23 23 19 c21 18 27 26 19 26 -2 0 -12 -10 -23 -22z"/>
<path d="M1280 1263 c-50 -17 -100 -47 -100 -59 0 -17 5 -17 31 -3 11 5 17 14
14 19 -8 14 14 23 28 11 9 -7 22 -4 45 11 18 11 32 22 32 24 0 5 -31 4 -50 -3z"/>
<path d="M1927 1258 c-7 -4 -7 -8 -2 -8 6 0 -1 -10 -15 -21 l-25 -20 35 6 c55
10 133 27 160 36 23 7 22 8 -10 9 -19 0 -57 2 -83 3 -26 2 -53 -1 -60 -5z"/>
<path d="M1330 1190 c-8 -5 -12 -12 -9 -15 4 -3 12 1 19 10 14 17 11 19 -10 5z"/>
<path d="M1125 1180 c-4 -6 -24 -9 -46 -7 -21 2 -39 0 -39 -4 0 -15 77 -10 90
6 7 8 10 15 7 15 -3 0 -9 -5 -12 -10z"/>
<path d="M1855 1179 c-4 -6 -5 -12 -2 -15 2 -3 7 2 10 11 7 17 1 20 -8 4z"/>
<path d="M864 1164 c-18 -14 -18 -15 4 -4 12 6 22 13 22 15 0 8 -5 6 -26 -11z"/>
<path d="M1254 1168 c4 -13 0 -18 -14 -18 -11 0 -20 5 -20 11 0 8 -6 7 -16 -2
-9 -8 -30 -14 -46 -15 -16 -1 -38 -10 -49 -20 -14 -13 -36 -18 -73 -19 -61 0
-91 -18 -76 -45 5 -9 6 -20 3 -24 -3 -3 0 -6 9 -6 8 0 18 3 22 7 3 4 34 14 69
23 34 10 82 24 107 33 25 9 57 19 73 22 29 6 35 28 16 55 -9 13 -10 12 -5 -2z
m-91 -45 c-7 -2 -21 -2 -30 0 -10 3 -4 5 12 5 17 0 24 -2 18 -5z m-128 -33 c3
-6 -1 -7 -9 -4 -18 7 -21 14 -7 14 6 0 13 -4 16 -10z m-35 -4 c0 -2 -9 -6 -20
-9 -11 -3 -18 -1 -14 4 5 9 34 13 34 5z m85 -6 c-3 -5 -13 -10 -21 -10 -8 0
-14 5 -14 10 0 6 9 10 21 10 11 0 17 -4 14 -10z"/>
<path d="M905 1160 c3 -5 8 -10 11 -10 2 0 4 5 4 10 0 6 -5 10 -11 10 -5 0 -7
-4 -4 -10z"/>
<path d="M1295 1159 c-4 -6 -5 -12 -2 -15 2 -3 7 2 10 11 7 17 1 20 -8 4z"/>
<path d="M1280 1074 c0 -21 18 -54 30 -54 16 0 12 27 -5 34 -8 3 -12 12 -9 21
3 8 1 15 -5 15 -6 0 -11 -7 -11 -16z"/>
<path d="M832 1030 c-11 -18 -10 -19 15 -9 24 9 25 8 12 -8 -19 -25 -38 -38
-84 -62 -22 -12 -51 -30 -65 -42 l-25 -20 25 12 c14 7 52 29 86 51 34 21 68
38 77 38 20 0 11 37 -12 50 -12 6 -20 3 -29 -10z"/>
<path d="M1300 1001 c0 -6 5 -13 10 -16 6 -3 10 1 10 9 0 9 -4 16 -10 16 -5 0
-10 -4 -10 -9z"/>
<path d="M1326 951 c-3 -5 3 -11 13 -14 14 -3 18 -1 14 9 -6 16 -19 18 -27 5z"/>
<path d="M551 941 c-8 -6 -9 -11 -3 -15 6 -3 14 -1 17 5 9 14 2 20 -14 10z"/>
<path d="M944 905 c81 -116 176 -197 348 -294 l57 -32 -3 34 c-2 19 -6 39 -10
46 -4 7 -3 18 3 25 9 10 8 15 -5 20 -12 5 -13 10 -5 19 8 10 -3 26 -44 67 -30
30 -58 51 -61 47 -4 -4 1 -15 12 -24 19 -18 22 -73 3 -73 -5 0 -31 23 -57 51
-115 123 -130 138 -143 139 -26 4 -39 0 -39 -11 0 -8 5 -8 15 1 18 15 20 -1 3
-18 -9 -9 -16 -8 -30 5 -22 19 -24 8 -3 -13 8 -9 15 -21 15 -27 0 -7 -21 11
-46 38 l-45 50 35 -50z m83 -42 c-4 -3 0 -17 9 -30 l15 -24 -25 16 c-29 19
-33 31 -13 38 18 8 21 8 14 0z m84 -100 c13 -16 12 -17 -3 -4 -10 7 -18 15
-18 17 0 8 8 3 21 -13z"/>
<path d="M1076 926 c16 -14 33 -25 38 -25 5 1 12 -5 17 -12 4 -8 11 -10 16 -5
4 4 0 12 -11 18 -10 5 -25 19 -34 29 -9 10 -25 19 -36 19 -17 0 -16 -3 10 -24z"/>
<path d="M500 910 c0 -5 5 -10 11 -10 5 0 7 5 4 10 -3 6 -8 10 -11 10 -2 0 -4
-4 -4 -10z"/>
<path d="M1360 885 c0 -8 5 -15 10 -15 6 0 10 7 10 15 0 8 -4 15 -10 15 -5 0
-10 -7 -10 -15z"/>
<path d="M1418 893 c7 -3 16 -2 19 1 4 3 -2 6 -13 5 -11 0 -14 -3 -6 -6z"/>
<path d="M575 880 c-3 -5 -2 -10 4 -10 5 0 13 5 16 10 3 6 2 10 -4 10 -5 0
-13 -4 -16 -10z"/>
<path d="M645 880 c-3 -5 1 -10 9 -10 8 0 18 5 21 10 3 6 -1 10 -9 10 -8 0
-18 -4 -21 -10z"/>
<path d="M1360 850 c0 -5 5 -10 11 -10 5 0 7 5 4 10 -3 6 -8 10 -11 10 -2 0
-4 -4 -4 -10z"/>
<path d="M490 832 c0 -6 -10 -13 -22 -15 -13 -2 -4 -5 19 -6 23 0 45 4 48 9 3
6 2 10 -4 10 -5 0 -16 3 -25 6 -9 3 -16 1 -16 -4z"/>
<path d="M1475 800 c-3 -5 -1 -10 4 -10 6 0 11 5 11 10 0 6 -2 10 -4 10 -3 0
-8 -4 -11 -10z"/>
<path d="M530 786 c0 -2 7 -7 16 -10 8 -3 12 -2 9 4 -6 10 -25 14 -25 6z"/>
<path d="M2950 762 c0 -10 22 -32 32 -32 12 0 -2 28 -18 34 -8 3 -14 2 -14 -2z"/>
<path d="M550 750 c13 -9 13 -10 0 -11 -10 0 -8 -3 5 -8 11 -5 22 -7 24 -5 6
6 -21 34 -33 34 -6 0 -4 -5 4 -10z"/>
<path d="M555 690 c0 -16 3 -32 8 -36 4 -4 7 7 7 24 0 17 -3 33 -7 35 -5 3 -8
-8 -8 -23z"/>
<path d="M1403 709 c2 -8 10 -13 17 -11 13 3 30 -15 30 -30 0 -5 -9 -8 -20 -8
-11 0 -20 -7 -20 -16 0 -10 6 -13 19 -9 15 5 21 -3 35 -44 9 -27 16 -57 16
-65 0 -22 21 -31 34 -15 6 8 25 25 41 38 17 12 30 28 30 34 0 14 75 19 91 6 7
-6 16 -4 23 5 9 11 5 14 -24 18 -19 2 -35 1 -35 -2 0 -6 -70 -5 -74 2 -1 1
-10 16 -20 31 -22 36 -155 96 -143 66z"/>
<path d="M585 668 c2 -37 5 -43 26 -46 19 -2 21 -1 9 7 -8 6 -15 25 -15 42 0
18 -5 34 -11 36 -7 2 -10 -12 -9 -39z"/>
<path d="M2110 674 c1 -15 59 -74 83 -83 15 -6 29 -4 42 5 18 14 18 14 -1 29
-10 8 -35 17 -54 21 -19 4 -43 13 -52 22 -10 8 -18 11 -18 6z"/>
<path d="M555 620 c-3 -5 4 -14 16 -21 13 -6 17 -14 11 -18 -6 -4 0 -18 15
-36 24 -29 25 -29 19 -5 -3 14 -6 32 -6 41 0 20 -46 53 -55 39z"/>
<path d="M1420 584 c0 -17 22 -14 28 4 2 7 -3 12 -12 12 -9 0 -16 -7 -16 -16z"/>
<path d="M570 529 c0 -9 11 -24 25 -33 22 -14 25 -15 25 -1 0 8 -5 15 -11 15
-7 0 -18 8 -25 18 -12 15 -13 15 -14 1z"/>
<path d="M1440 530 c0 -5 5 -10 11 -10 5 0 7 5 4 10 -3 6 -8 10 -11 10 -2 0
-4 -4 -4 -10z"/>
<path d="M575 470 c3 -5 8 -10 11 -10 2 0 4 5 4 10 0 6 -5 10 -11 10 -5 0 -7
-4 -4 -10z"/>
<path d="M690 470 c0 -5 5 -10 11 -10 5 0 7 5 4 10 -3 6 -8 10 -11 10 -2 0 -4
-4 -4 -10z"/>
<path d="M602 451 c4 -13 18 -16 19 -4 0 4 -5 9 -11 12 -7 2 -11 -2 -8 -8z"/>
<path d="M707 434 c-11 -11 3 -24 26 -23 15 0 17 2 7 6 -8 3 -18 10 -21 15 -3
4 -8 5 -12 2z"/>
<path d="M570 420 c0 -5 5 -10 10 -10 6 0 10 5 10 10 0 6 -4 10 -10 10 -5 0
-10 -4 -10 -10z"/>
<path d="M602 398 c6 -18 28 -21 28 -4 0 9 -7 16 -16 16 -9 0 -14 -5 -12 -12z"/>
<path d="M740 370 c0 -5 7 -10 16 -10 8 0 12 5 9 10 -3 6 -10 10 -16 10 -5 0
-9 -4 -9 -10z"/>
<path d="M601 356 c-11 -13 6 -66 22 -66 11 0 8 28 -4 35 -6 5 -4 11 7 19 15
11 15 13 1 19 -8 3 -20 0 -26 -7z"/>
<path d="M766 322 c-2 -4 6 -12 19 -18 22 -11 23 -10 12 7 -13 20 -23 24 -31
11z"/>
<path d="M611 258 c10 -19 29 -16 29 5 0 7 -9 13 -19 13 -16 0 -18 -4 -10 -18z"/>
<path d="M780 265 c0 -17 2 -18 24 -9 23 9 20 24 -4 24 -11 0 -20 -7 -20 -15z"/>
<path d="M815 231 c-9 -29 22 -71 53 -71 24 0 24 1 9 18 -10 10 -17 23 -17 29
0 5 -9 18 -19 27 -18 17 -19 16 -26 -3z"/>
<path d="M600 214 c0 -8 5 -12 10 -9 6 4 8 11 5 16 -9 14 -15 11 -15 -7z"/>
<path d="M565 190 c-3 -5 -1 -10 4 -10 6 0 11 5 11 10 0 6 -2 10 -4 10 -3 0
-8 -4 -11 -10z"/>
<path d="M674 138 c-30 -6 -44 -16 -53 -34 -14 -32 -43 -28 -52 6 -4 14 -7 19
-8 13 -1 -18 -64 -49 -69 -34 -2 7 -39 11 -108 11 -124 0 -298 18 -302 31 -2
5 -21 9 -43 9 l-39 0 0 -70 0 -70 510 0 c307 0 510 4 510 9 0 5 -12 19 -27 30
-16 12 -35 26 -43 33 -20 18 -136 58 -190 67 -25 4 -63 3 -86 -1z"/>
</g>
</svg>
