<svg height="431pt" viewBox="0 -31 431.72692 431" width="431pt" xmlns="http://www.w3.org/2000/svg"><path d="m159.078125 328.226562v-239.246093l-30-30.753907v300h292.652344l-29.265625-30zm0 0" fill="#d4e1f4"/><path d="m40.269531 328.226562v-317.726562h-30v347.726562h79.410157v-30zm0 0" fill="#d4e1f4"/><g fill="#1ae5be"><path d="m281.476562 312.8125h-88.875c-5.523437 0-10-4.476562-10-10v-96.480469c0-4.121093 2.523438-7.820312 6.363282-9.316406 3.835937-1.5 8.199218-.492187 10.988281 2.539063l88.882813 96.484374c2.691406 2.917969 3.398437 7.152344 1.804687 10.789063s-5.1875 5.984375-9.160156 5.984375zm-78.878906-20h56.070313l-56.066407-60.867188zm0 0"/><path d="m149.800781 213.550781h-20.722656c-5.523437 0-10-4.476562-10-10 0-5.519531 4.476563-10 10-10h20.722656c5.523438 0 10 4.480469 10 10 0 5.523438-4.476562 10-10 10zm0 0"/><path d="m149.800781 311.847656h-20.722656c-5.523437 0-10-4.476562-10-10 0-5.523437 4.476563-10 10-10h20.722656c5.523438 0 10 4.476563 10 10 0 5.523438-4.476562 10-10 10zm0 0"/><path d="m38.699219 167.664062h-28.429688c-5.523437 0-10-4.476562-10-10 0-5.523437 4.476563-10 10-10h28.429688c5.523437 0 10 4.476563 10 10 0 5.523438-4.476563 10-10 10zm0 0"/><path d="m43.453125 325.925781h-20.960937c-5.519532 0-10-4.476562-10-10 0-5.523437 4.480468-10 10-10h20.960937c5.523437 0 10 4.476563 10 10 0 5.523438-4.476563 10-10 10zm0 0"/></g><path d="m99 10.363281c0-5.523437-4.476562-10-10-10h-79c-5.523438 0-10 4.476563-10 10v348c0 5.523438 4.476562 10 10 10h79c5.523438 0 10-4.476562 10-10zm-19 338h-60v-95h34.171875c5.523437 0 10-4.476562 10-10 0-5.523437-4.476563-10-10-10h-34.171875v-152h34.171875c5.523437 0 10-4.476562 10-10 0-5.523437-4.476563-10-10-10h-34.171875v-41h60zm0 0" fill="#0635c9"/><path d="m136.234375 51.246094c-2.851563-2.914063-7.179687-3.8125-10.957031-2.285156-3.777344 1.53125-6.257813 5.191406-6.277344 9.265624v300c.023438 5.566407 4.511719 10.078126 10.078125 10.136719h292.652344c4.03125-.03125 7.65625-2.460937 9.214843-6.179687 1.558594-3.71875.75-8.007813-2.054687-10.902344zm2.765625 297.117187v-86h21.542969c5.523437 0 10-4.476562 10-10 0-5.523437-4.476563-10-10-10h-21.542969v-78h21.542969c5.523437 0 10-4.476562 10-10 0-5.523437-4.476563-10-10-10h-21.542969v-61.5625l259.003906 265.5625zm0 0" fill="#0635c9"/></svg>