<?xml version="1.0" standalone="no"?>
<!DOCTYPE svg PUBLIC "-//W3C//DTD SVG 20010904//EN"
 "http://www.w3.org/TR/2001/REC-SVG-20010904/DTD/svg10.dtd">
<svg version="1.0" xmlns="http://www.w3.org/2000/svg"
 width="300.000000pt" height="168.000000pt" viewBox="0 0 300.000000 168.000000"
 preserveAspectRatio="xMidYMid meet">
<metadata>
Created by potrace 1.16, written by Peter Selinger 2001-2019
</metadata>
<g transform="translate(0.000000,168.000000) scale(0.100000,-0.100000)"
fill="#000000" stroke="none">
<path d="M0 840 l0 -840 145 0 145 0 -7 31 c-11 58 39 109 100 101 37 -5 35
-23 -2 -20 -40 3 -71 -26 -71 -67 0 -37 12 -45 69 -45 63 0 94 53 49 84 -16
12 -19 19 -11 27 8 8 17 5 32 -10 22 -22 28 -65 11 -76 -5 -3 -10 -10 -10 -16
0 -5 485 -9 1275 -9 l1275 0 0 840 0 840 -132 0 c-73 0 -128 -4 -123 -8 6 -4
23 -31 38 -60 27 -52 42 -110 40 -162 -1 -76 -8 -128 -16 -123 -5 3 -6 -3 -3
-13 3 -11 2 -34 -3 -52 -8 -28 -6 -39 15 -69 13 -20 25 -43 25 -52 1 -9 3 -29
5 -46 11 -92 -104 -223 -201 -229 -15 -1 -21 -7 -20 -21 2 -25 -30 -112 -48
-134 -8 -9 -23 -26 -33 -39 -36 -45 -109 -73 -200 -78 -72 -5 -96 -2 -170 22
l-86 28 -17 -21 c-9 -11 -34 -33 -56 -49 -22 -16 -42 -32 -45 -35 -11 -15
-110 -56 -110 -47 0 7 -5 7 -13 -1 -8 -6 -17 -8 -20 -4 -4 3 -7 1 -7 -6 0 -7
-4 -9 -10 -6 -5 3 -10 2 -10 -3 0 -9 -104 2 -145 15 -11 3 -20 5 -20 3 0 -2
-18 6 -40 18 -54 28 -96 70 -120 119 -11 23 -27 42 -35 42 -42 3 -66 7 -77 14
-7 5 -13 6 -13 2 0 -10 -84 37 -112 64 -15 14 -33 38 -39 53 -10 25 -26 33
-52 29 -17 -3 -105 23 -153 45 -54 25 -98 68 -116 112 -13 33 -12 108 2 142
11 27 50 58 50 40 0 -5 -4 -10 -10 -10 -5 0 -10 -6 -10 -14 0 -8 -6 -21 -12
-28 -17 -17 -20 -75 -8 -114 22 -64 115 -124 196 -124 18 0 35 -4 38 -9 3 -5
16 -11 30 -13 22 -5 23 -3 15 26 -19 67 -6 79 14 13 13 -39 36 -86 55 -108 60
-71 165 -107 263 -89 33 6 41 4 50 -11 9 -17 6 -19 -31 -19 -22 0 -40 -3 -40
-8 0 -20 95 -113 137 -133 39 -19 64 -24 134 -24 82 0 91 2 173 44 47 24 86
48 86 53 0 6 7 7 16 4 8 -3 12 -2 9 4 -3 6 1 13 10 16 12 5 15 14 11 30 -6 23
2 30 28 25 5 -1 13 4 17 11 6 8 9 9 9 2 0 -6 12 -11 27 -11 14 0 32 -8 38 -17
7 -8 15 -13 18 -9 4 3 7 1 7 -6 0 -7 5 -9 10 -6 6 3 10 2 10 -3 0 -10 9 -12
73 -16 65 -4 154 9 197 29 27 12 41 29 58 66 13 27 24 63 24 80 1 18 8 34 20
40 31 17 12 26 -50 23 -63 -2 -89 6 -78 25 5 7 44 10 114 8 92 -2 113 1 147
19 49 26 74 66 82 132 7 59 -18 121 -73 179 -19 20 -34 39 -34 44 0 18 22 20
40 4 18 -16 19 -16 25 6 38 165 5 314 -82 374 -37 24 -42 25 -203 25 l-166 0
-47 -30 c-49 -31 -57 -29 -31 8 l15 22 -226 0 -225 0 -10 -24 c-11 -31 -29
-41 -43 -27 -8 8 -8 14 1 23 7 7 12 16 12 20 0 4 -112 8 -250 8 -245 0 -250 0
-270 -22 -11 -13 -23 -33 -26 -45 -4 -13 -12 -23 -20 -23 -21 0 -17 15 12 49
l26 31 -59 0 c-66 0 -152 -21 -191 -46 -15 -9 -44 -35 -64 -56 -25 -26 -38
-34 -38 -24 0 9 5 16 10 16 6 0 10 6 10 13 0 6 16 23 36 37 19 14 42 31 49 38
8 7 24 14 35 15 11 1 20 5 20 9 0 4 -234 8 -520 8 l-520 0 0 -840z m1973 706
c45 -22 107 -111 107 -151 -1 -20 -1 -20 -12 0 -6 11 -16 25 -22 30 -6 6 -20
27 -30 48 -11 20 -21 36 -22 34 -2 -2 5 -21 16 -42 11 -22 20 -46 19 -55 0 -8
-8 1 -17 20 -36 74 -71 97 -160 106 -66 7 -117 -5 -150 -37 -12 -11 -22 -16
-22 -11 0 14 43 49 80 65 52 23 161 19 213 -7z m-168 -258 c0 -21 3 -24 25
-20 23 4 23 3 7 -9 -12 -10 -18 -30 -19 -71 -2 -52 -4 -57 -28 -61 -14 -3 -29
-2 -34 3 -12 12 -37 161 -30 182 12 40 79 20 79 -24z m-526 -694 c13 -3 21 -8
17 -11 -3 -3 19 -19 50 -35 58 -29 89 -57 99 -89 4 -11 11 -19 16 -19 10 0 12
-43 2 -54 -4 -3 -8 -16 -10 -28 -2 -12 -7 -25 -11 -28 -4 -3 -8 -11 -10 -18
-4 -20 -50 -67 -58 -59 -4 4 2 15 13 24 10 10 27 37 36 61 33 83 -6 160 -103
202 -30 13 -58 30 -63 36 -5 9 -25 11 -65 8 -31 -3 -65 -6 -74 -7 -9 -1 -16
-3 -14 -4 2 -2 -11 -18 -30 -37 -42 -42 -52 -92 -30 -151 24 -61 46 -86 102
-115 41 -21 63 -25 132 -25 80 0 82 -1 62 -17 -17 -14 -35 -16 -93 -12 -71 5
-127 21 -127 37 0 5 -4 6 -8 3 -10 -6 -72 48 -72 63 0 6 -4 11 -9 11 -8 0 -18
39 -27 104 -4 34 24 91 64 129 40 38 119 50 211 31z m-476 -293 c26 -1 40 -6
44 -18 7 -18 27 -35 39 -33 12 3 24 -25 18 -42 -3 -10 -1 -18 4 -18 20 0 -3
-57 -32 -84 -52 -46 -146 -52 -184 -10 -79 85 -44 221 53 208 11 -1 37 -3 58
-3z"/>
<path d="M735 292 c-33 -6 -55 -43 -55 -92 0 -78 55 -126 128 -109 39 8 99 64
81 74 -5 4 -9 14 -8 23 3 33 -1 43 -25 53 -17 8 -22 17 -18 32 3 11 1 18 -4
14 -6 -3 -26 -2 -45 2 -18 4 -43 5 -54 3z"/>
</g>
</svg>
