<?xml version="1.0" standalone="no"?>
<!DOCTYPE svg PUBLIC "-//W3C//DTD SVG 20010904//EN"
 "http://www.w3.org/TR/2001/REC-SVG-20010904/DTD/svg10.dtd">
<svg version="1.0" xmlns="http://www.w3.org/2000/svg"
 width="225.000000pt" height="225.000000pt" viewBox="0 0 225.000000 225.000000"
 preserveAspectRatio="xMidYMid meet">

<g transform="translate(0.000000,225.000000) scale(0.100000,-0.100000)"
fill="#000000" stroke="none">
<path d="M900 2075 l0 -175 -170 0 -170 0 0 -220 0 -220 170 0 170 0 0 -175 0
-175 225 0 225 0 0 175 0 175 170 0 170 0 0 220 0 220 -170 0 -170 0 0 175 0
175 -225 0 -225 0 0 -175z"/>
<path d="M209 1300 l-30 -29 3 -328 c3 -318 4 -329 26 -370 12 -23 106 -131
208 -239 102 -109 190 -208 195 -221 5 -14 9 -44 9 -69 l0 -44 175 0 175 0 0
116 c0 64 -5 135 -12 158 -9 34 -53 83 -252 284 -262 263 -270 269 -321 217
-49 -48 -38 -72 96 -216 116 -126 149 -174 149 -219 0 -16 -6 -20 -35 -20 -30
0 -35 3 -35 24 0 28 -17 50 -145 191 -50 55 -99 111 -108 125 -33 48 -12 141
39 175 l24 15 0 211 0 211 -29 29 c-41 40 -91 40 -132 -1z"/>
<path d="M1909 1301 l-29 -29 0 -211 0 -210 25 -19 c53 -42 71 -124 38 -172
-9 -14 -58 -70 -108 -125 -128 -141 -145 -163 -145 -191 0 -21 -5 -24 -35 -24
-29 0 -35 4 -35 20 0 45 33 94 149 219 134 145 144 169 96 216 -51 52 -59 46
-321 -217 -199 -201 -243 -250 -252 -284 -7 -23 -12 -94 -12 -158 l0 -116 175
0 175 0 0 44 c0 25 4 55 9 68 5 13 95 115 199 226 160 170 194 211 211 258 20
51 21 76 21 365 l0 311 -29 29 c-41 40 -91 40 -132 0z"/>
</g>
</svg>
