<svg id="Layer_1" height="512" viewBox="0 0 512 512" width="512" xmlns="http://www.w3.org/2000/svg" data-name="Layer 1"><path d="m137 262.55a152.341 152.341 0 0 1 41.987-10.341q-7.427-.737-14.907-.749c-1.46 0-3.085.02-4.545.07a152.041 152.041 0 0 0 -52.535 11.02v199a151.915 151.915 0 0 1 30-8.673z" fill="#d4e1f4"/><path d="m357.038 242.323a38.3 38.3 0 0 0 -25.38-26.285l-41.658-13.548v-17.736a58.566 58.566 0 0 0 22.5-35.345l1.791-6.379a19.691 19.691 0 0 0 11.868-23.059 16.163 16.163 0 0 0 -7.9-10.378 19.645 19.645 0 0 0 15.589-19.2 6 6 0 0 0 -6-6 13.252 13.252 0 0 1 -12.76-10.048c-7.343-28.516-31.921-49.215-58.518-49.215a60.647 60.647 0 0 0 -60.57 60.621v23.262c-5 2.037-7.854 5.964-9.077 10.959a19.629 19.629 0 0 0 11.877 23.058l1.722 6.378a56.313 56.313 0 0 0 21.478 34.612v18.47l-41.658 13.548a38.39 38.39 0 0 0 -25.442 26.285c-.131.48-.223.893-.338 1.384a35.983 35.983 0 0 0 -.872 8.293h12a24.53 24.53 0 0 1 .589-5.561c.079-.339.164-.639.256-.974a26.493 26.493 0 0 1 17.637-18.03l43.505-14.1a64.907 64.907 0 0 0 56.65.007l43.505 14.106a26.518 26.518 0 0 1 17.635 18.052c.092.335.177.6.255.934a24.541 24.541 0 0 1 .59 5.566h12a35.962 35.962 0 0 0 -.905-8.3c-.114-.484-.237-.9-.369-1.377zm-149.038-156.572a48.633 48.633 0 0 1 48.57-48.621c21.206 0 40.921 16.909 46.914 40.2a25.339 25.339 0 0 0 16.674 17.838 7.628 7.628 0 0 1 -5.936 2.832h-33.16a72.28 72.28 0 0 1 -44.215-15.184 6 6 0 0 0 -8.9 1.77l-6.847 12.126a23.477 23.477 0 0 1 -13.1 10.3zm4.38 61.146q-.054-.286-.135-.567l-2.7-9.294a6 6 0 0 0 -4.853-4.752 7.707 7.707 0 0 1 -6.382-7.611 7.815 7.815 0 0 1 .22-1.849 4.211 4.211 0 0 1 2.675-3.016 6.131 6.131 0 0 0 .695.043 34.1 34.1 0 0 0 29.581-17.2l3.61-6.354a84.4 84.4 0 0 0 45.971 13.703h23.938v3.526a6.028 6.028 0 0 0 5.483 5.974 4.389 4.389 0 0 1 3.986 3.323 7.785 7.785 0 0 1 .229 1.85 7.7 7.7 0 0 1 -6.378 7.611 6.058 6.058 0 0 0 -4.773 4.483l-2.779 9.563q-.081.28-.135.566a44.9 44.9 0 0 1 -88.253 0zm21.62 56.27v-12.21a58.406 58.406 0 0 0 22.507 4.543 59.611 59.611 0 0 0 21.493-4.123v11.79a54.073 54.073 0 0 1 -44 0z" fill="#1ae5be"/><g fill="#0635c9"><path d="m404.668 331.463a6 6 0 0 0 6-6v-62.916a6 6 0 0 0 -3.743-5.56 157.3 157.3 0 0 0 -142.155 12.325l-8.77 5.48-8.769-5.48a157.309 157.309 0 0 0 -142.156-12.325 6 6 0 0 0 -3.743 5.56v62.916a6 6 0 0 0 12 0v-58.816a145.29 145.29 0 0 1 127.539 12.84l9.129 5.706v184.851l-2.769-1.731a157.338 157.338 0 0 0 -133.9-15.406v-84.847a6 6 0 0 0 -12 0v93.489a6 6 0 0 0 8.257 5.559 145.278 145.278 0 0 1 131.282 11.381l11.949 7.469a6 6 0 0 0 6.36 0l11.949-7.469a145.277 145.277 0 0 1 131.282-11.381 6 6 0 0 0 8.257-5.559v-93.649a6 6 0 0 0 -12 0v85.007a157.36 157.36 0 0 0 -133.9 15.406l-2.767 1.732v-184.852l9.129-5.706a145.291 145.291 0 0 1 127.539-12.84v58.816a6 6 0 0 0 6 6z"/><path d="m129.811 348a113.346 113.346 0 0 1 102.43 8.88 6 6 0 0 0 9.18-5.088v-53.357a6 6 0 0 0 -2.82-5.088 125.382 125.382 0 0 0 -113.3-9.823 6 6 0 0 0 -3.743 5.56v53.352a6 6 0 0 0 8.253 5.564zm3.743-54.794a113.4 113.4 0 0 1 95.867 8.616v39.674a125.479 125.479 0 0 0 -95.867-7.631z"/><path d="m122 373.674a6 6 0 0 0 7.816 3.3 113.343 113.343 0 0 1 102.43 8.878 6 6 0 1 0 6.36-10.175 125.388 125.388 0 0 0 -113.3-9.823 6 6 0 0 0 -3.306 7.82z"/><path d="m122 402.654a6 6 0 0 0 7.816 3.3 113.343 113.343 0 0 1 102.43 8.88 6 6 0 1 0 6.36-10.176 125.379 125.379 0 0 0 -113.3-9.823 6 6 0 0 0 -3.306 7.819z"/><path d="m122 431.636a6 6 0 0 0 7.816 3.3 113.343 113.343 0 0 1 102.43 8.879 6 6 0 1 0 6.36-10.175 125.388 125.388 0 0 0 -113.3-9.823 6 6 0 0 0 -3.306 7.819z"/><path d="m387.74 424.18a127.686 127.686 0 0 0 -115.391 10 6 6 0 1 0 6.359 10.175 115.648 115.648 0 0 1 104.519-9.06 6 6 0 0 0 4.513-11.119z"/><path d="m387.74 395.2a127.684 127.684 0 0 0 -115.391 10 6 6 0 1 0 6.359 10.176 115.652 115.652 0 0 1 104.519-9.061 6 6 0 1 0 4.513-11.115z"/><path d="m387.74 366.218a127.686 127.686 0 0 0 -115.391 10 6 6 0 1 0 6.359 10.175 115.651 115.651 0 0 1 104.519-9.06 6 6 0 0 0 4.513-11.119z"/><path d="m387.74 337.236a127.684 127.684 0 0 0 -115.391 10 6 6 0 1 0 6.359 10.176 115.655 115.655 0 0 1 104.519-9.061 6 6 0 1 0 4.513-11.119z"/><path d="m387.74 308.256a127.686 127.686 0 0 0 -115.391 10 6 6 0 1 0 6.359 10.176 115.651 115.651 0 0 1 104.519-9.061 6 6 0 1 0 4.513-11.119z"/></g><path d="m104.723 319h-7.206c-5.517 0-9.517 4.856-9.517 10.371v34.688c0 5.514 4 9.941 9.517 9.941h7.206a27.5 27.5 0 0 0 0-55zm0 43h-4.723v-31h4.723a15.5 15.5 0 0 1 0 31z" fill="#1ae5be"/><path d="m414.483 319h-7.206a27.5 27.5 0 0 0 0 55h7.206c5.517 0 9.517-4.427 9.517-9.941v-34.688c0-5.515-4-10.371-9.517-10.371zm-2.483 43h-4.723a15.5 15.5 0 0 1 0-31h4.723z" fill="#1ae5be"/></svg>