<?xml version="1.0" standalone="no"?>
<!DOCTYPE svg PUBLIC "-//W3C//DTD SVG 20010904//EN"
 "http://www.w3.org/TR/2001/REC-SVG-20010904/DTD/svg10.dtd">
<svg version="1.0" xmlns="http://www.w3.org/2000/svg"
 width="200.000000pt" height="200.000000pt" viewBox="0 0 200.000000 200.000000"
 preserveAspectRatio="xMidYMid meet">

<g transform="translate(0.000000,200.000000) scale(0.100000,-0.100000)"
fill="#000000" stroke="none">
<path d="M227 1772 c-23 -25 -21 -52 8 -177 14 -59 23 -110 21 -113 -16 -15
-33 14 -45 72 -7 36 -17 69 -22 72 -5 3 -18 -10 -30 -28 -17 -28 -19 -43 -15
-98 3 -36 8 -75 12 -87 5 -17 2 -23 -9 -23 -10 0 -18 14 -22 40 -4 22 -11 42
-15 45 -15 9 -60 -79 -60 -116 0 -19 29 -157 65 -307 36 -151 65 -280 65 -287
0 -8 -26 -19 -67 -29 -73 -16 -103 -40 -103 -83 0 -25 40 -73 62 -73 18 0 767
186 773 191 3 4 -24 129 -31 137 -2 3 -169 -39 -255 -64 -13 -3 -19 8 -29 55
l-13 60 41 78 c71 137 71 135 9 396 -34 141 -61 235 -72 247 -26 29 -71 26
-92 -6 -16 -25 -15 -32 15 -162 21 -91 29 -139 22 -146 -6 -6 -13 -6 -19 0 -5
5 -28 94 -52 199 -28 120 -50 196 -61 207 -23 23 -61 23 -81 0z"/>
<path d="M1696 1777 c-13 -9 -32 -72 -66 -212 -43 -183 -58 -222 -74 -197 -3
6 8 71 26 145 30 129 31 137 14 161 -19 30 -65 35 -90 11 -18 -18 -20 -25 -81
-284 -54 -224 -53 -229 17 -364 l41 -78 -13 -60 c-10 -47 -16 -58 -29 -55 -84
24 -254 66 -256 64 -10 -14 -32 -134 -25 -138 5 -3 180 -48 389 -99 366 -91
381 -93 405 -77 33 21 43 62 25 95 -12 20 -30 30 -87 45 -46 12 -72 24 -72 33
0 7 29 137 65 288 36 152 65 289 65 307 0 31 -43 118 -59 118 -5 0 -12 -20
-15 -45 -5 -31 -12 -45 -23 -45 -12 0 -14 7 -9 28 4 15 9 54 12 87 4 49 2 66
-15 93 -11 17 -24 32 -28 32 -5 0 -16 -36 -26 -80 -14 -61 -21 -78 -32 -73
-19 7 -19 4 10 125 31 128 31 152 3 172 -27 19 -48 20 -72 3z"/>
<path d="M967 1214 c-4 -4 -7 -43 -7 -86 l0 -78 30 0 31 0 -3 83 c-3 74 -5 82
-23 85 -12 2 -24 0 -28 -4z"/>
<path d="M750 1105 c-12 -14 -5 -25 53 -83 60 -59 68 -65 82 -51 13 13 8 22
-53 82 -61 61 -70 66 -82 52z"/>
<path d="M1132 1047 c-57 -57 -70 -75 -60 -85 20 -20 31 -14 102 57 59 60 68
72 56 85 -7 9 -15 16 -19 16 -4 0 -39 -33 -79 -73z"/>
<path d="M876 642 c-46 -71 -48 -76 -30 -89 10 -7 20 -13 24 -13 4 0 88 129
98 150 1 4 -8 11 -21 17 -22 10 -26 6 -71 -65z"/>
<path d="M1058 709 c-25 -14 -23 -23 25 -100 43 -70 56 -79 77 -54 10 12 3 28
-35 90 -26 41 -48 75 -49 75 0 0 -9 -5 -18 -11z"/>
<path d="M392 617 c-149 -38 -163 -43 -158 -62 2 -11 23 -99 46 -196 l41 -177
187 5 c103 3 188 6 189 7 1 1 -17 83 -41 182 -24 98 -49 203 -56 232 -9 38
-17 52 -28 51 -10 -1 -90 -20 -180 -42z"/>
<path d="M1356 428 c-31 -127 -55 -232 -54 -233 5 -4 378 -13 378 -9 0 2 20
90 45 196 25 105 44 192 43 193 -5 4 -337 85 -347 85 -5 0 -34 -104 -65 -232z"/>
</g>
</svg>
