<svg id="Layer_1" height="512" viewBox="0 0 512 512" width="512" xmlns="http://www.w3.org/2000/svg" data-name="Layer 1"><g fill="#d4e1f4"><path d="m187.7 158.669a26.155 26.155 0 0 1 26.126-26.126h20.921a23.571 23.571 0 0 0 23.049-28.53c-2.236-10.376-4.586-19.981-6.981-28.549a26.15 26.15 0 0 1 24-33.163 26.142 26.142 0 0 0 -44 25.163c2.4 8.568 4.745 18.173 6.981 28.549a23.571 23.571 0 0 1 -23.049 28.53h-20.926a26.155 26.155 0 0 0 -26.121 26.126v8.064h20z"/><path d="m183 285.531h53a7 7 0 0 0 0-14h-13.08a6.994 6.994 0 0 1 -6.92 6h-53v23.5h20z"/><path d="m183 230.733h166v-8h-186v40.798h20z"/><path d="m183 323.031h33a7 7 0 0 0 0-14h-13.08a6.994 6.994 0 0 1 -6.92 6h-33v23.5h20z"/><path d="m183 472.733v-37.2h53a7 7 0 0 0 0-14h-13.08a6.994 6.994 0 0 1 -6.92 6h-53v37.2a13.015 13.015 0 0 0 13 13h8a12.913 12.913 0 0 1 -1-5z"/><path d="m183 360.531h53a7 7 0 0 0 0-14h-13.08a6.994 6.994 0 0 1 -6.92 6h-53v23.5h20z"/><path d="m183 398.031h33a7 7 0 0 0 0-14h-13.08a6.994 6.994 0 0 1 -6.92 6h-33v23.5h20z"/><path d="m163 183.733a3 3 0 0 1 3-3h203v-5a3 3 0 0 0 -3-3h-220a3 3 0 0 0 -3 3v30a3 3 0 0 0 3 3h17z"/></g><path d="m318.179 110.543h-20.979a9.569 9.569 0 0 1 -9.364-11.573c2.162-10.063 4.446-19.329 6.791-27.558a40.194 40.194 0 0 0 -37.027-51.112 40.179 40.179 0 0 0 -40.272 50.939c2.32 8.3 4.6 17.624 6.778 27.726a9.571 9.571 0 0 1 -9.363 11.58h-20.922a40.171 40.171 0 0 0 -40.121 40.124v16.6h14v-16.6a26.155 26.155 0 0 1 26.126-26.126h20.921a23.571 23.571 0 0 0 23.049-28.53c-2.236-10.376-4.586-19.981-6.981-28.549a26.146 26.146 0 1 1 50.347.127c-2.424 8.507-4.783 18.075-7.01 28.437a23.569 23.569 0 0 0 23.048 28.515h20.98a26.155 26.155 0 0 1 26.126 26.126v16.6h14v-16.6a40.171 40.171 0 0 0 -40.127-40.126z" fill="#1ae5be"/><path d="m146 222.733h3v242a27.03 27.03 0 0 0 27 27h160a27.03 27.03 0 0 0 27-27v-242h3a17.019 17.019 0 0 0 17-17v-30a17.019 17.019 0 0 0 -17-17h-220a17.019 17.019 0 0 0 -17 17v30a17.019 17.019 0 0 0 17 17zm203 242a13.015 13.015 0 0 1 -13 13h-160a13.015 13.015 0 0 1 -13-13v-37.2h53a7 7 0 0 0 0-14h-53v-23.5h33a7 7 0 0 0 0-14h-33v-23.5h53a7 7 0 0 0 0-14h-53v-23.5h33a7 7 0 0 0 0-14h-33v-23.5h53a7 7 0 0 0 0-14h-53v-40.8h186zm-206-289a3 3 0 0 1 3-3h220a3 3 0 0 1 3 3v30a3 3 0 0 1 -3 3h-220a3 3 0 0 1 -3-3z" fill="#0635c9"/></svg>