<?xml version="1.0" standalone="no"?>
<!DOCTYPE svg PUBLIC "-//W3C//DTD SVG 20010904//EN"
 "http://www.w3.org/TR/2001/REC-SVG-20010904/DTD/svg10.dtd">
<svg version="1.0" xmlns="http://www.w3.org/2000/svg"
 width="300.000000pt" height="168.000000pt" viewBox="0 0 300.000000 168.000000"
 preserveAspectRatio="xMidYMid meet">
<metadata>
Created by potrace 1.16, written by Peter Selinger 2001-2019
</metadata>
<g transform="translate(0.000000,168.000000) scale(0.100000,-0.100000)"
fill="#000000" stroke="none">
<path d="M0 870 l0 -811 218 6 c119 4 235 7 257 8 22 1 218 -2 436 -7 l396 -8
84 50 84 51 375 6 c206 3 393 8 415 10 22 2 173 6 335 9 162 4 319 9 347 12
l53 5 0 740 0 739 -412 0 c-259 -1 -417 -5 -424 -11 -8 -7 -14 -7 -19 1 -4 7
-340 10 -1076 10 l-1069 0 0 -810z m1960 791 c0 -39 -28 -53 -51 -25 -10 13
-10 17 2 25 18 11 49 12 49 0z m-166 -47 c8 -3 12 -12 9 -20 -3 -9 -21 -14
-54 -14 -27 0 -49 2 -49 4 0 2 3 11 6 20 6 16 57 22 88 10z m-466 -54 c5 0 16
-14 25 -32 14 -30 14 -34 -4 -56 -10 -14 -19 -32 -19 -42 0 -11 -7 -16 -22
-15 -20 1 -24 9 -31 65 -6 48 -5 65 5 71 7 5 14 14 14 21 3 30 6 32 14 11 5
-13 13 -23 18 -23z m662 4 c0 -8 -10 -14 -25 -14 -23 0 -34 18 -19 32 10 10
44 -4 44 -18z m-768 -32 c3 -9 2 -26 -2 -37 -7 -18 -9 -18 -19 8 -11 28 -8 47
8 47 5 0 11 -8 13 -18z m610 -54 c10 -4 19 -1 22 7 9 25 51 1 74 -42 18 -32
15 -53 -7 -53 -14 0 -21 8 -23 27 -4 33 -24 41 -31 13 -7 -29 -27 -25 -27 6 0
33 -17 22 -25 -16 -4 -19 -13 -30 -23 -30 -13 0 -17 9 -16 43 0 23 4 51 9 61
7 16 10 17 19 4 6 -8 19 -17 28 -20z m-235 -10 c-3 -7 -5 -2 -5 12 0 14 2 19
5 13 2 -7 2 -19 0 -25z m123 -8 c0 -5 -4 -10 -10 -10 -5 0 -10 5 -10 10 0 6 5
10 10 10 6 0 10 -4 10 -10z m-75 -10 c3 -5 1 -10 -4 -10 -6 0 -11 5 -11 10 0
6 2 10 4 10 3 0 8 -4 11 -10z m533 -31 c15 -24 8 -56 -13 -56 -16 0 -17 5 -19
50 -2 32 14 35 32 6z m-1058 1 c0 -5 -5 -10 -11 -10 -5 0 -7 5 -4 10 3 6 8 10
11 10 2 0 4 -4 4 -10z m941 -11 c9 -17 8 -23 -2 -30 -32 -20 -59 2 -45 36 8
22 33 18 47 -6z m-760 -28 c19 -16 22 -22 12 -32 -7 -7 -13 -21 -13 -31 0 -19
-8 -22 -26 -10 -13 8 -17 92 -4 92 4 0 18 -9 31 -19z m-271 -1 c0 -5 -4 -10
-10 -10 -5 0 -10 5 -10 10 0 6 5 10 10 10 6 0 10 -4 10 -10z m1050 -60 c0 -5
7 -10 15 -10 17 0 20 -16 5 -25 -6 -3 -13 1 -16 9 -11 28 -34 18 -34 -14 0
-28 -2 -30 -20 -20 -26 14 -25 35 2 54 26 18 48 21 48 6z m-358 -35 c8 -18 8
-32 -2 -55 -16 -38 -26 -29 -34 33 -4 38 -3 47 9 47 9 0 20 -11 27 -25z m248
-5 c0 -23 -18 -36 -32 -22 -7 7 -6 17 2 31 13 24 30 19 30 -9z m-103 -12 c-3
-8 -6 -5 -6 6 -1 11 2 17 5 13 3 -3 4 -12 1 -19z m-1287 8 c0 -3 -4 -8 -10
-11 -5 -3 -10 -1 -10 4 0 6 5 11 10 11 6 0 10 -2 10 -4z m455 -6 c3 -5 -1 -10
-9 -10 -9 0 -16 5 -16 10 0 6 4 10 9 10 6 0 13 -4 16 -10z m572 -5 c1 -5 -12
-10 -31 -11 -27 0 -31 2 -22 13 12 14 48 13 53 -2z m-422 -16 c-6 -18 -4 -20
28 -14 106 20 207 -67 207 -178 0 -33 -45 -127 -61 -127 -7 0 -9 -12 -5 -34 6
-33 6 -34 -34 -40 -41 -6 -43 -9 -53 -76 -3 -17 -5 -14 -6 12 -2 51 -16 55
-30 8 -15 -51 -41 -66 -80 -45 -27 13 -91 94 -91 114 0 5 -7 11 -15 15 -8 3
-15 16 -15 28 0 13 -4 30 -9 37 -6 9 -6 22 1 34 9 17 8 19 -8 13 -15 -5 -16
-4 -7 4 17 18 125 24 166 11 27 -9 41 -23 56 -55 12 -23 21 -50 21 -59 0 -18
4 -20 37 -11 12 3 19 12 17 18 -3 7 2 19 11 26 13 11 13 15 3 21 -19 13 -30
11 -23 -3 4 -7 1 -6 -7 3 -7 9 -16 16 -20 15 -11 -2 -98 85 -98 97 0 7 -9 23
-19 36 -15 20 -17 30 -9 50 5 14 15 29 21 33 8 5 6 8 -7 8 -15 0 -16 3 -6 15
7 8 8 15 3 15 -5 0 -27 -22 -49 -50 -46 -57 -56 -62 -44 -19 5 18 7 36 4 40
-3 5 1 9 9 9 8 0 21 7 28 17 15 18 69 53 82 53 5 0 5 -9 2 -21z m1003 -37 c2
-7 -3 -12 -12 -12 -9 0 -16 7 -16 16 0 17 22 14 28 -4z m130 -24 c19 -19 14
-30 -10 -26 -13 2 -24 11 -26 21 -4 20 18 23 36 5z m409 -20 c-3 -7 -5 -2 -5
12 0 14 2 19 5 13 2 -7 2 -19 0 -25z m43 -129 c0 -5 -4 -9 -10 -9 -5 0 -10 7
-10 16 0 8 5 12 10 9 6 -3 10 -10 10 -16z m-740 -56 c-1 -5 -6 -18 -13 -31
-11 -20 -15 -21 -32 -9 -25 19 -13 47 20 47 14 0 25 -3 25 -7z m214 -28 c-4
-8 -11 -12 -16 -9 -6 4 -5 10 3 15 19 12 19 11 13 -6z m-166 -13 c2 -7 -6 -12
-17 -12 -21 0 -27 11 -14 24 9 9 26 2 31 -12z m-144 -8 c23 -9 20 -19 -11 -33
-29 -14 -49 -2 -40 23 7 17 25 20 51 10z m-109 -54 c15 -7 16 -9 4 -9 -9 -1
-22 -8 -29 -16 -16 -19 -36 -4 -27 19 7 18 21 19 52 6z m-505 -170 c0 -5 -9
-10 -19 -10 -11 0 -23 5 -26 10 -4 6 5 10 19 10 14 0 26 -4 26 -10z m184 -50
c-4 -18 -1 -36 6 -45 10 -12 10 -16 -1 -20 -46 -16 -274 -25 -639 -25 -372 0
-419 2 -424 16 -11 29 -6 72 9 77 8 4 182 7 387 8 205 0 396 4 423 9 28 4 94
8 147 9 l98 1 -6 -30z m1163 -46 c157 -23 157 -35 -2 -50 -78 -7 -200 -30
-220 -42 -7 -4 26 -8 73 -9 160 -3 337 -42 311 -68 -3 -3 -39 -1 -80 5 -41 5
-110 10 -153 10 -44 0 -93 5 -110 11 -34 12 -96 1 -131 -25 -18 -13 -13 -14
50 -15 90 -1 149 -12 293 -57 149 -46 195 -67 216 -98 20 -32 20 -36 -1 -37
-17 -1 -17 -2 0 -6 9 -2 17 -9 17 -15 0 -13 -140 -6 -418 18 -96 8 -183 12
-195 9 -12 -4 -31 -18 -42 -31 -20 -24 -22 -24 -295 -31 -311 -9 -422 -8 -447
1 -16 7 -15 9 7 27 54 43 75 54 119 60 26 4 9 5 -39 2 -71 -4 -88 -2 -99 11
-21 25 -6 44 41 53 35 7 42 13 40 29 -2 10 -4 25 -4 32 -1 6 -6 12 -11 12 -6
0 -8 3 -5 6 3 3 14 0 25 -6 14 -9 39 -7 113 10 218 49 236 51 305 46 39 -2 81
-7 95 -10 15 -4 9 2 -15 14 -57 28 -139 25 -311 -11 -98 -21 -149 -28 -153
-21 -13 22 -57 30 -98 19 -34 -9 -42 -16 -47 -40 -9 -44 -7 -59 5 -51 17 10 0
-39 -18 -53 -8 -6 -54 -27 -102 -47 l-87 -34 -403 8 c-324 6 -405 10 -412 21
-5 8 -8 34 -7 59 l3 45 410 6 410 5 95 28 c139 41 135 48 -11 20 -73 -14 -137
-16 -474 -10 -311 5 -393 9 -404 20 -14 15 -6 40 10 31 5 -4 9 -1 9 6 0 9 3
10 10 3 6 -6 34 -7 73 -2 34 4 172 12 307 17 205 9 256 14 310 31 67 22 328
62 343 53 5 -3 4 -10 -2 -16 -6 -6 -11 -20 -11 -32 0 -20 2 -21 78 -10 86 13
102 19 102 41 0 8 9 14 20 14 12 0 24 9 29 22 5 15 10 18 15 9 13 -21 -2 -41
-30 -41 -29 0 -26 -12 4 -16 9 -1 78 -9 154 -18 l136 -17 52 39 c96 73 325
100 557 66z m-2457 -224 c0 -5 17 -10 38 -11 37 -1 99 -16 74 -18 -8 -1 -10
-6 -6 -13 13 -21 16 -98 5 -98 -6 0 -10 -3 -9 -7 0 -5 -2 -16 -6 -25 -13 -28
-36 -21 -43 13 -3 17 -18 40 -34 52 -22 15 -28 26 -23 41 5 16 3 18 -6 10 -6
-7 -20 -10 -30 -7 -16 4 -17 9 -7 30 9 19 8 26 -4 34 -10 6 -5 9 19 9 17 0 32
-4 32 -10z m1275 -161 l-1 -51 -99 -53 -98 -53 -171 5 c-520 14 -619 20 -634
40 -13 18 -10 69 6 85 4 4 183 4 397 -1 l390 -9 95 44 c52 24 100 44 105 44 6
0 10 -23 10 -51z"/>
<path d="M1170 1100 c0 -5 7 -10 16 -10 8 0 12 5 9 10 -3 6 -10 10 -16 10 -5
0 -9 -4 -9 -10z"/>
<path d="M1932 408 c-64 -14 -45 -20 24 -7 56 10 139 8 194 -5 21 -5 20 -4 -5
8 -34 17 -146 19 -213 4z"/>
<path d="M2360 387 c-34 -10 -32 -11 45 -18 44 -4 142 -17 217 -28 172 -26
182 -26 83 5 -190 58 -264 67 -345 41z"/>
<path d="M2105 319 c-163 -12 -388 -36 -345 -38 19 0 105 6 190 15 158 16 228
13 285 -11 22 -8 44 -10 66 -5 19 4 26 8 16 9 -11 1 -30 10 -44 21 -14 11 -31
19 -37 19 -6 -1 -65 -6 -131 -10z"/>
<path d="M2393 283 c15 -2 37 -2 50 0 12 2 0 4 -28 4 -27 0 -38 -2 -22 -4z"/>
<path d="M2493 273 c9 -2 25 -2 35 0 9 3 1 5 -18 5 -19 0 -27 -2 -17 -5z"/>
<path d="M2598 263 c6 -2 18 -2 25 0 6 3 1 5 -13 5 -14 0 -19 -2 -12 -5z"/>
<path d="M68 43 c12 -2 30 -2 40 0 9 3 -1 5 -23 4 -22 0 -30 -2 -17 -4z"/>
<path d="M0 15 c0 -13 28 -15 203 -14 111 1 227 4 257 9 39 5 -4 8 -145 9
-110 2 -226 5 -257 7 -47 3 -58 1 -58 -11z"/>
<path d="M980 10 c-11 -7 -7 -10 18 -10 20 0 31 4 27 10 -8 13 -26 13 -45 0z"/>
<path d="M1058 13 c12 -2 32 -2 45 0 12 2 2 4 -23 4 -25 0 -35 -2 -22 -4z"/>
</g>
</svg>
