<svg id="Layer_1" height="512" viewBox="0 0 512 512" width="512" xmlns="http://www.w3.org/2000/svg" data-name="Layer 1"><path d="m161.08 208.83-19.88 19.87 6.016 6.016-111.886 99.544a30.883 30.883 0 0 0 8.212 51.387 30.887 30.887 0 0 1 7.788-35.387l112.41-100.01.51-.5-6.05-6.05 18.88-18.87z" fill="#d4e1f4"/><path d="m459.261 429h-.261v-26.258c0-3.314-2.958-5.742-6.271-5.742h-261.799a5.725 5.725 0 0 0 -5.93 5.742v26.258h-.6a33.551 33.551 0 0 0 -33.4 33.83v9.108a5.756 5.756 0 0 0 5.639 6.062h330.381a6.036 6.036 0 0 0 5.98-6.062v-9.108a33.841 33.841 0 0 0 -33.739-33.83zm-262.261-20h250v20h-250zm284 57h-318v-3.17a21.539 21.539 0 0 1 21.4-21.83h274.861a21.827 21.827 0 0 1 21.739 21.83z" fill="#2f2f2f"/><g fill="#b8001c"><path d="m360.408 176.183a6 6 0 0 0 -8.485 0l-3.305 3.305-10.852-10.853a6 6 0 0 0 -8.486 0l-1.78 1.781-84.727-84.728 1.78-1.78a6 6 0 0 0 0-8.485l-10.853-10.853 3.305-3.3a6 6 0 0 0 0-8.485l-13.205-13.215a18.832 18.832 0 0 0 -26.6 0l-79.594 79.6a18.83 18.83 0 0 0 0 26.6l13.21 13.209a6 6 0 0 0 8.485 0l3.305-3.3 10.852 10.853a6 6 0 0 0 8.485 0l1.781-1.78 27.051 27.051-18.122 18.121-7.33-7.331a6 6 0 0 0 -8.486 0l-19.875 19.876a6 6 0 0 0 0 8.485l2.577 2.577-108.194 96.246a36.879 36.879 0 0 0 24.474 64.432c.37 0 .743 0 1.115-.016a36.529 36.529 0 0 0 26.477-12.35l96.256-108.189 2.577 2.576a6 6 0 0 0 8.485 0l19.876-19.875a6 6 0 0 0 0-8.485l-7.331-7.331 18.126-18.121 27.05 27.051-1.779 1.78a6 6 0 0 0 0 8.485l10.852 10.853-3.305 3.305a6 6 0 0 0 0 8.485l13.21 13.209a18.806 18.806 0 0 0 26.6 0l79.595-79.594a18.83 18.83 0 0 0 0-26.6zm-234.321-38.9a6.809 6.809 0 0 1 0-9.629l79.595-79.594a6.809 6.809 0 0 1 9.629 0l8.966 8.966-89.223 89.224zm25 9.905 74.128-74.128 6.61 6.61-74.125 74.124zm-76.642 226.679a24.879 24.879 0 1 1 -35.123-35.125l108.712-96.721 23.134 23.133zm112.042-110.367-36.8-36.8 11.39-11.39 36.8 36.8zm8.3-31.448-13.652-13.652 18.121-18.121 13.654 13.654zm-22.584-75.8 62.083-62.082 84.729 84.73-62.083 62.082zm87.19 99.235 74.128-74.128 6.61 6.61-74.131 74.131zm105.738-47.984-79.593 79.597a6.809 6.809 0 0 1 -9.629 0l-8.967-8.967 89.224-89.223 8.967 8.967a6.817 6.817 0 0 1 0 9.63z"/><path d="m235.9 114.913a6 6 0 0 0 -8.485 8.485l5.656 5.657a6 6 0 1 0 8.486-8.486z"/><path d="m294.587 173.6-40.3-40.305a6 6 0 0 0 -8.486 8.486l40.3 40.3a6 6 0 0 0 8.485-8.485z"/></g></svg>