<?xml version="1.0" standalone="no"?>
<!DOCTYPE svg PUBLIC "-//W3C//DTD SVG 20010904//EN"
 "http://www.w3.org/TR/2001/REC-SVG-20010904/DTD/svg10.dtd">
<svg version="1.0" xmlns="http://www.w3.org/2000/svg"
 width="216.000000pt" height="233.000000pt" viewBox="0 0 216.000000 233.000000"
 preserveAspectRatio="xMidYMid meet">
<metadata>
Created by potrace 1.16, written by Peter Selinger 2001-2019
</metadata>
<g transform="translate(0.000000,233.000000) scale(0.100000,-0.100000)"
fill="#000000" stroke="none">
<path d="M941 2034 c-25 -32 -26 -62 -6 -111 8 -19 15 -40 15 -45 0 -5 -22
-18 -49 -30 l-50 -20 -39 -112 c-25 -70 -42 -139 -47 -188 l-7 -77 -37 -3
c-36 -3 -36 -4 -39 -51 -3 -42 0 -49 17 -54 17 -4 21 -13 21 -49 0 -36 -3 -44
-19 -44 -10 0 -29 -9 -43 -19 -24 -19 -24 -19 -47 5 -30 31 -88 32 -125 3 -19
-15 -26 -17 -26 -6 0 28 -45 57 -89 57 -83 0 -120 -88 -71 -168 11 -18 20 -45
20 -60 0 -24 -8 -32 -52 -53 l-52 -24 -48 -145 c-26 -79 -48 -150 -48 -156 0
-6 25 -42 55 -79 50 -61 55 -71 55 -116 l0 -49 856 0 855 0 -6 52 -6 53 57 69
57 68 -49 151 -49 151 -57 25 c-51 23 -58 29 -58 54 0 15 7 42 17 60 43 84 8
167 -72 167 -22 0 -50 -7 -61 -15 -17 -11 -27 -12 -52 -3 -56 21 -96 -1 -128
-70 -1 -2 -13 8 -27 22 -35 35 -94 36 -135 1 l-29 -24 -22 22 c-30 33 -30 112
0 120 17 5 20 12 17 54 l-3 48 -92 3 c-103 3 -100 0 -110 94 -4 40 -2 58 6 58
6 0 11 -7 11 -15 0 -16 34 -55 48 -55 11 0 182 234 182 249 0 14 -37 14 -46 0
-5 -8 -9 -8 -14 1 -6 9 -11 6 -20 -9 -6 -13 -19 -30 -28 -39 -9 -10 -26 -30
-38 -46 l-20 -28 -19 81 -18 81 -59 27 c-32 14 -58 31 -58 38 0 7 7 29 16 50
29 70 -3 125 -72 125 -34 0 -47 -5 -63 -26z m32 -495 l-7 -94 -8 90 c-8 94 -5
126 12 109 6 -6 7 -47 3 -105z m99 40 c10 -35 17 -80 17 -99 -1 -29 -3 -25
-15 24 -8 33 -20 67 -28 75 -18 22 -27 51 -20 62 13 22 30 -1 46 -62z m-189
-65 c-7 -52 -11 -59 -32 -62 -23 -4 -24 -3 -17 58 4 34 15 78 24 97 l17 35 8
-34 c5 -20 5 -62 0 -94z m447 -119 l0 -35 -317 2 c-297 3 -318 4 -321 21 -9
47 -13 47 323 47 l315 0 0 -35z m-40 -105 c0 -46 -2 -50 -24 -50 -13 0 -35 -9
-50 -21 l-26 -20 0 25 c0 70 -51 112 -124 103 -29 -4 -48 -14 -66 -35 -23 -27
-27 -29 -44 -16 -43 31 -125 4 -141 -46 -6 -20 -7 -20 -32 0 -14 11 -32 20
-39 20 -10 0 -14 14 -14 45 l0 45 280 0 280 0 0 -50z m-330 -40 c24 -24 26
-76 5 -127 -19 -46 -19 -72 1 -80 12 -4 2 -13 -34 -30 -49 -23 -52 -23 -83 -7
-31 16 -32 17 -14 30 10 8 22 14 27 14 14 0 9 28 -12 62 -12 19 -20 51 -20 76
0 53 26 82 75 82 22 0 43 -8 55 -20z m720 -50 c3 -30 8 -60 12 -66 4 -6 1 -20
-7 -30 -19 -25 -19 -64 0 -64 30 0 14 -18 -30 -35 -41 -15 -49 -15 -83 -2
l-37 15 28 13 c32 15 34 37 7 81 -26 43 -26 98 1 127 16 17 30 21 62 19 l42
-3 5 -55z m-1077 22 c21 -19 22 -86 2 -122 -20 -34 -19 -66 3 -75 14 -5 12 -9
-13 -22 -16 -9 -32 -19 -35 -23 -3 -3 -22 4 -44 16 -35 20 -37 22 -17 29 25 8
27 24 6 51 -26 34 -38 93 -25 125 20 47 81 58 123 21z m717 -20 c28 -23 31
-89 5 -128 -9 -14 -15 -37 -12 -50 2 -14 -1 -25 -10 -28 -18 -7 -63 14 -63 30
0 8 -9 28 -20 46 -28 46 -27 112 2 132 30 21 71 20 98 -2z m-290 -134 c0 -21
-19 -28 -47 -15 -27 12 -28 15 -7 56 l16 33 19 -29 c10 -15 19 -35 19 -45z
m180 -12 c6 -6 10 -15 10 -22 0 -9 -10 -8 -40 3 -45 18 -50 38 -23 80 l17 25
13 -38 c8 -21 18 -43 23 -48z m348 42 l21 -38 -29 -15 c-16 -8 -34 -15 -40
-15 -12 0 -13 37 -1 45 5 3 12 19 16 36 4 17 8 29 9 27 1 -2 12 -20 24 -40z
m-1079 -10 c22 -46 17 -58 -26 -58 -19 0 -23 5 -23 31 0 27 15 69 24 69 2 0
13 -19 25 -42z m371 -16 c0 -12 -61 -45 -69 -37 -2 2 5 24 15 49 l19 46 17
-23 c10 -12 18 -28 18 -35z m-191 -43 c-13 -8 -43 4 -54 21 -3 5 2 21 11 35
l16 25 20 -36 c15 -29 17 -39 7 -45z m1061 41 c0 -22 -4 -28 -15 -24 -15 6
-20 35 -8 47 14 15 23 6 23 -23z m-345 -6 c14 -22 15 -28 4 -35 -22 -14 -49
-10 -49 6 0 12 20 55 26 55 1 0 9 -12 19 -26z m-1135 -381 c0 -19 -3 -24 -10
-17 -6 6 -8 18 -4 27 9 24 14 21 14 -10z m1687 -5 c-3 -8 -6 -5 -6 6 -1 11 2
17 5 13 3 -3 4 -12 1 -19z m-1365 -28 c22 -10 23 -15 20 -100 -3 -80 -6 -90
-22 -90 -15 0 -20 10 -25 58 -3 31 -8 76 -10 100 -5 44 0 48 37 32z m361 -47
c-6 -96 -14 -143 -23 -143 -13 0 -19 27 -22 108 -2 56 1 75 12 82 31 20 37 11
33 -47z m376 22 c1 -10 0 -51 -4 -92 -5 -53 -11 -73 -21 -73 -11 0 -14 15 -14
63 0 34 -3 79 -6 100 -6 36 -6 37 17 29 13 -5 26 -17 28 -27z m337 13 c-3 -13
-6 -58 -6 -100 0 -59 -3 -78 -14 -78 -10 0 -15 23 -19 88 -5 73 -3 89 11 100
24 18 35 15 28 -10z"/>
<path d="M0 85 l0 -85 1080 0 1080 0 0 85 0 85 -1080 0 -1080 0 0 -85z m218
13 c14 5 15 4 2 -10 -9 -10 -17 -12 -21 -6 -4 6 -9 5 -12 -3 -3 -8 -6 -3 -6
11 -1 18 2 21 10 13 6 -6 19 -9 27 -5z m78 3 c-19 -7 -19 -8 2 -13 14 -4 22
-1 25 11 3 9 5 3 6 -13 0 -16 -2 -26 -6 -23 -3 4 -12 2 -20 -5 -11 -8 -17 -8
-26 2 -9 9 -9 11 0 6 6 -3 14 -2 17 3 3 5 -1 11 -9 15 -23 8 -18 26 8 25 20 0
21 -1 3 -8z m143 -7 c4 3 7 -3 7 -13 0 -10 -6 -18 -13 -18 -8 0 -13 11 -12 26
0 14 3 20 6 13 2 -6 8 -10 12 -8z m-41 -5 c-9 -6 -8 -12 3 -25 13 -16 12 -16
-8 -6 -14 8 -24 9 -28 2 -9 -15 -25 -2 -25 20 0 14 7 18 35 17 19 -1 29 -4 23
-8z m1323 -13 c5 3 9 0 9 -6 0 -15 -23 -7 -26 8 -1 7 0 8 3 2 2 -5 9 -8 14 -4z
m79 -7 c0 -5 -4 -9 -10 -9 -5 0 -10 7 -10 16 0 8 5 12 10 9 6 -3 10 -10 10
-16z m150 7 c0 6 7 11 15 11 8 0 16 -5 18 -11 3 -7 -9 -11 -28 -11 -24 0 -31
3 -27 13 4 11 6 11 13 0 5 -7 9 -8 9 -2z m58 -11 c-3 -3 -9 2 -12 12 -6 14 -5
15 5 6 7 -7 10 -15 7 -18z m39 10 c0 -8 -4 -15 -9 -15 -10 0 -11 14 -1 23 9
10 10 9 10 -8z m20 -7 c-3 -8 -6 -5 -6 6 -1 11 2 17 5 13 3 -3 4 -12 1 -19z
m-1943 -4 c3 -8 2 -12 -4 -9 -6 3 -10 10 -10 16 0 14 7 11 14 -7z m126 12 c0
-2 -8 -10 -17 -17 -16 -13 -17 -12 -4 4 13 16 21 21 21 13z m1374 -4 c3 -5 -1
-9 -9 -9 -8 0 -15 4 -15 9 0 4 4 8 9 8 6 0 12 -4 15 -8z m66 -2 c0 -5 -7 -10
-15 -10 -8 0 -15 5 -15 10 0 6 7 10 15 10 8 0 15 -4 15 -10z m80 0 c0 -5 -4
-10 -10 -10 -5 0 -10 5 -10 10 0 6 5 10 10 10 6 0 10 -4 10 -10z m100 0 c0 -5
-7 -10 -15 -10 -8 0 -15 5 -15 10 0 6 7 10 15 10 8 0 15 -4 15 -10z m30 0 c0
-5 -4 -10 -10 -10 -5 0 -10 5 -10 10 0 6 5 10 10 10 6 0 10 -4 10 -10z"/>
<path d="M350 74 c0 -8 5 -12 10 -9 6 3 10 10 10 16 0 5 -4 9 -10 9 -5 0 -10
-7 -10 -16z"/>
</g>
</svg>
