<?xml version="1.0" encoding="UTF-8" standalone="no"?>
<!-- Created with Inkscape (http://www.inkscape.org/) -->

<svg
   xmlns:dc="http://purl.org/dc/elements/1.1/"
   xmlns:cc="http://creativecommons.org/ns#"
   xmlns:rdf="http://www.w3.org/1999/02/22-rdf-syntax-ns#"
   xmlns:svg="http://www.w3.org/2000/svg"
   xmlns="http://www.w3.org/2000/svg"
   xmlns:sodipodi="http://sodipodi.sourceforge.net/DTD/sodipodi-0.dtd"
   xmlns:inkscape="http://www.inkscape.org/namespaces/inkscape"
   version="1.0"
   width="500"
   height="500"
   id="svg2"
   inkscape:version="0.47 r22583"
   sodipodi:docname="co-op activism4.svg">
  <metadata
     id="metadata11">
    <rdf:RDF>
      <cc:Work
         rdf:about="">
        <dc:format>image/svg+xml</dc:format>
        <dc:type
           rdf:resource="http://purl.org/dc/dcmitype/StillImage" />
        <dc:title></dc:title>
      </cc:Work>
    </rdf:RDF>
  </metadata>
  <sodipodi:namedview
     pagecolor="#ffffff"
     bordercolor="#666666"
     borderopacity="1"
     objecttolerance="10"
     gridtolerance="10"
     guidetolerance="10"
     inkscape:pageopacity="0"
     inkscape:pageshadow="2"
     inkscape:window-width="1280"
     inkscape:window-height="904"
     id="namedview9"
     showgrid="false"
     inkscape:zoom="0.472"
     inkscape:cx="250"
     inkscape:cy="250"
     inkscape:window-x="-4"
     inkscape:window-y="-4"
     inkscape:window-maximized="1"
     inkscape:current-layer="svg2" />
  <defs
     id="defs4">
    <inkscape:perspective
       sodipodi:type="inkscape:persp3d"
       inkscape:vp_x="0 : 250 : 1"
       inkscape:vp_y="0 : 1000 : 0"
       inkscape:vp_z="500 : 250 : 1"
       inkscape:persp3d-origin="250 : 166.66667 : 1"
       id="perspective13" />
    <inkscape:perspective
       id="perspective2824"
       inkscape:persp3d-origin="0.5 : 0.33333333 : 1"
       inkscape:vp_z="1 : 0.5 : 1"
       inkscape:vp_y="0 : 1000 : 0"
       inkscape:vp_x="0 : 0.5 : 1"
       sodipodi:type="inkscape:persp3d" />
    <inkscape:perspective
       id="perspective2824-4"
       inkscape:persp3d-origin="0.5 : 0.33333333 : 1"
       inkscape:vp_z="1 : 0.5 : 1"
       inkscape:vp_y="0 : 1000 : 0"
       inkscape:vp_x="0 : 0.5 : 1"
       sodipodi:type="inkscape:persp3d" />
    <inkscape:perspective
       id="perspective2824-5"
       inkscape:persp3d-origin="0.5 : 0.33333333 : 1"
       inkscape:vp_z="1 : 0.5 : 1"
       inkscape:vp_y="0 : 1000 : 0"
       inkscape:vp_x="0 : 0.5 : 1"
       sodipodi:type="inkscape:persp3d" />
  </defs>
  <g
     id="layer1-1"
     style="fill:#800000"
     transform="matrix(0.4098548,0,0,0.46776934,296.04316,-3.9168933)">
    <path
       d="m 391.42858,217.85715 a 97.85714,93.571426 0 1 1 -195.71428,0 97.85714,93.571426 0 1 1 195.71428,0 z"
       transform="matrix(1.2142548,0,0,1.2142548,-99.012508,-31.956818)"
       style="fill:#800000;fill-rule:evenodd;stroke:none"
       id="path2160-7" />
    <path
       d="m 391.42858,217.85715 a 97.85714,93.571426 0 1 1 -195.71428,0 97.85714,93.571426 0 1 1 195.71428,0 z"
       transform="matrix(0.5620437,0,0,0.5620437,-109.99999,-61.438991)"
       style="fill:#800000;fill-rule:evenodd;stroke:none"
       id="path3134-4" />
    <rect
       width="109.92234"
       height="442.2002"
       ry="0.053239305"
       x="-1.0109544e-06"
       y="58.10968"
       style="fill:#800000;fill-opacity:1;stroke:none"
       id="rect3140-0" />
    <path
       d="m 110.16757,252.26009 c -0.82625,68.25339 29.00217,129.25989 160.99475,131.57237 64.37383,1.3812 93.62637,-27.25613 155.11122,-5.05077 90.02562,45.604 66.13437,114.87698 72.74182,123.23861 L 100.0051,500 110.16757,252.26009 z"
       style="fill:#800000;fill-opacity:1;fill-rule:evenodd;stroke:none"
       id="path4113-9" />
  </g>
  <g
     id="layer1-8"
     style="fill:#008000"
     transform="matrix(0.52024167,0,0,0.57936609,84.44994,-3.669546)">
    <path
       d="m 391.42858,217.85715 a 97.85714,93.571426 0 1 1 -195.71428,0 97.85714,93.571426 0 1 1 195.71428,0 z"
       transform="matrix(1.2142548,0,0,1.2142548,-99.012508,-31.956818)"
       style="fill:#008000;fill-rule:evenodd;stroke:none"
       id="path2160-8" />
    <path
       d="m 391.42858,217.85715 a 97.85714,93.571426 0 1 1 -195.71428,0 97.85714,93.571426 0 1 1 195.71428,0 z"
       transform="matrix(0.5620437,0,0,0.5620437,-109.99999,-61.438991)"
       style="fill:#008000;fill-rule:evenodd;stroke:none"
       id="path3134-2" />
    <rect
       width="109.92234"
       height="442.2002"
       ry="0.053239305"
       x="-1.0109544e-06"
       y="58.10968"
       style="fill:#008000;fill-opacity:1;stroke:none"
       id="rect3140-4" />
    <path
       d="m 110.16757,252.26009 c -0.82625,68.25339 29.00217,129.25989 160.99475,131.57237 64.37383,1.3812 93.62637,-27.25613 155.11122,-5.05077 90.02562,45.604 66.13437,114.87698 72.74182,123.23861 L 100.0051,500 110.16757,252.26009 z"
       style="fill:#008000;fill-opacity:1;fill-rule:evenodd;stroke:none"
       id="path4113-5" />
  </g>
  <g
     id="layer1-17"
     style="fill:#808000"
     transform="matrix(0.56269817,0,0,0.64374884,221.89062,176.80563)">
    <path
       d="m 391.42858,217.85715 a 97.85714,93.571426 0 1 1 -195.71428,0 97.85714,93.571426 0 1 1 195.71428,0 z"
       transform="matrix(1.2142548,0,0,1.2142548,-99.012508,-31.956818)"
       style="fill:#808000;fill-rule:evenodd;stroke:none"
       id="path2160-1" />
    <path
       d="m 391.42858,217.85715 a 97.85714,93.571426 0 1 1 -195.71428,0 97.85714,93.571426 0 1 1 195.71428,0 z"
       transform="matrix(0.5620437,0,0,0.5620437,-109.99999,-61.438991)"
       style="fill:#808000;fill-rule:evenodd;stroke:none"
       id="path3134-1" />
    <rect
       width="109.92234"
       height="442.2002"
       ry="0.053239305"
       x="-1.0109544e-06"
       y="58.10968"
       style="fill:#808000;fill-opacity:1;stroke:none"
       id="rect3140-5" />
    <path
       d="m 110.16757,252.26009 c -0.82625,68.25339 29.00217,129.25989 160.99475,131.57237 64.37383,1.3812 93.62637,-27.25613 155.11122,-5.05077 90.02562,45.604 66.13437,114.87698 72.74182,123.23861 L 100.0051,500 110.16757,252.26009 z"
       style="fill:#808000;fill-opacity:1;fill-rule:evenodd;stroke:none"
       id="path4113-2" />
  </g>
  <g
     id="layer1"
     style="fill:#000080"
     transform="matrix(0.64761114,0,0,0.72959248,-3.5624908e-7,135.75007)">
    <path
       d="m 391.42858,217.85715 a 97.85714,93.571426 0 1 1 -195.71428,0 97.85714,93.571426 0 1 1 195.71428,0 z"
       transform="matrix(1.2142548,0,0,1.2142548,-99.012508,-31.956818)"
       style="fill:#000080;fill-rule:evenodd;stroke:none"
       id="path2160" />
    <path
       d="m 391.42858,217.85715 a 97.85714,93.571426 0 1 1 -195.71428,0 97.85714,93.571426 0 1 1 195.71428,0 z"
       transform="matrix(0.5620437,0,0,0.5620437,-109.99999,-61.438991)"
       style="fill:#000080;fill-rule:evenodd;stroke:none"
       id="path3134" />
    <rect
       width="109.92234"
       height="442.2002"
       ry="0.053239305"
       x="-1.0109544e-06"
       y="58.10968"
       style="fill:#000080;fill-opacity:1;stroke:none"
       id="rect3140" />
    <path
       d="m 110.16757,252.26009 c -0.82625,68.25339 29.00217,129.25989 160.99475,131.57237 64.37383,1.3812 93.62637,-27.25613 155.11122,-5.05077 90.02562,45.604 66.13437,114.87698 72.74182,123.23861 L 100.0051,500 110.16757,252.26009 z"
       style="fill:#000080;fill-opacity:1;fill-rule:evenodd;stroke:none"
       id="path4113" />
  </g>
</svg>
