<svg height="500pt" viewBox="0 -44 500.00175 500" width="500pt" xmlns="http://www.w3.org/2000/svg"><path d="m399 369.585938c.390625 0 .789062.011718 1.191406.03125 3.515625-6.632813 8.800782-12.164063 15.269532-15.972657-5.335938-3.371093-11.457032-5.285156-17.761719-5.558593-.570313-.019532-1.148438-.039063-1.738281-.039063-15.003907-.003906-28.773438 8.300781-35.769532 21.570313-.402344-.019532-.800781-.03125-1.191406-.03125-17.042969.003906-30.859375 13.816406-30.859375 30.859374h40c0-17.042968 13.816406-30.855468 30.859375-30.859374zm0 0" fill="#d4e1f4"/><path d="m430.410156 9.996094-59.601562 292.449218h40l39.597656-194.300781zm0 0" fill="#b9f9ec"/><g fill="#d4e1f4"><path d="m276.441406 181.105469v-60.089844h-20v60.089844l34.929688 34.929687v-20zm0 0"/><path d="m174.941406 100.945312-164.941406 164.941407h40l144.941406-144.941407zm0 0"/><path d="m58.308594 265.886719h40v135.460937h-40zm0 0"/></g><path d="m349.117188 269.714844c1.550781-3.738282.695312-8.039063-2.167969-10.902344l-45.578125-45.578125v-92.21875c0-5.523437-4.476563-10-10-10h-34.929688c-5.523437 0-10 4.476563-10 10v37.289063l-64.429687-64.433594c-3.90625-3.902344-10.238281-3.902344-14.144531 0l-164.9375 164.945312c-3.90625 3.90625-3.90625 10.238282 0 14.140625 1.875 1.875 4.417968 2.929688 7.070312 2.929688h38.308594v125.460937c0 5.523438 4.476562 10 10 10h233.261718c5.523438 0 10-4.476562 10-10v-125.460937h38.308594c4.046875 0 7.691406-2.4375 9.238282-6.171875zm-82.675782-102.800782h14.929688v24.980469l-14.929688-14.929687zm14.929688-35.898437v15.898437h-14.929688v-15.898437zm-77.625 260.328125h-57.617188v-96.660156h57.617188zm87.824218-135.460938c-5.523437 0-10 4.476563-10 10v125.460938h-57.824218v-106.660156c0-5.523438-4.476563-10-10-10h-77.617188c-5.523437 0-10 4.476562-10 10v106.664062h-57.820312v-125.460937c0-5.523438-4.476563-10-10-10h-24.167969l140.800781-140.800781 140.800782 140.800781zm0 0" fill="#b8001c"/><path d="m442.035156 374.894531-.078125-.292969c-5.066406-20.625-23.082031-35.632812-43.90625-36.507812-.683593-.023438-1.382812-.046875-2.089843-.046875-16.585938-.019531-32.117188 8.132813-41.519532 21.792969-20.660156 2.347656-36.277344 19.8125-36.300781 40.605468h20c.011719-11.511718 9.34375-20.84375 20.859375-20.859374.226562 0 .457031.007812.691406.019531 3.878906.195312 7.523438-1.878907 9.339844-5.316407 5.261719-9.996093 15.632812-16.253906 26.929688-16.242187.46875 0 .933593.019531 1.316406.03125 11.746094.5 22 9 25.125 20.773437.34375 8.9375-.042969 21.144532-.046875 21.269532l19.988281.652344c.019531-.570313.449219-14.058594-.003906-23.847657-.03125-.6875-.132813-1.367187-.304688-2.03125zm0 0" fill="#b8001c"/><path d="m440.207031 8c-.949219-4.65625-5.046875-8-9.800781-8-4.75 0-8.847656 3.34375-9.796875 8l-59.601563 292.449219c-1.105468 5.414062 2.386719 10.695312 7.796876 11.800781.660156.132812 1.332031.199219 2.003906.199219h51.539062v78.964843h-407.792968v20h456.304687v-20h-28.511719v-78.96875h47.652344c5.523438.003907 10-4.472656 10-9.996093 0-.671875-.066406-1.34375-.199219-2.003907zm-41.136719 205.859375 3.832032-18.808594h55.007812l3.832032 18.808594zm66.75 20 3.832032 18.8125h-78.492188l3.832032-18.808594zm-11.984374-58.808594h-46.859376l3.835938-18.808593h39.1875zm-23.425782-114.972656 15.519532 76.164063h-31.042969zm-47.355468 232.367187 4.027343-19.773437h86.644531l4.03125 19.777344zm0 0" fill="#2f2f2f"/></svg>