<?xml version="1.0" encoding="UTF-8"?>
<svg viewBox="0 0 1052.3622 744.09448" xmlns="http://www.w3.org/2000/svg" xmlns:xlink="http://www.w3.org/1999/xlink">
 <g transform="matrix(.35722 0 0 .35722 195.88 440.11)" fill-rule="evenodd">
  <path d="m58.569 395.17 54.831 73.523-8.723 249.23 51.092-1.2462-11.215-252.97 103.43-81-33.646-29.908-69.784 68.538-1.2462-46.108h-36.138v22.431l-33.646-38.631-14.954 36.138z" fill="#d38d5f"/>
  <path d="m14.954 365.26c-106.63 55.374-124.77-111.96-59.815-153.28 15.702-164.71 119.96-94.76 196.89-97.2 107.4-27.496 114.15 31.767 120.88 98.446 21.815-8.8648 124.04 45.623 66.046 130.85 8.4501 86.804-57.677 89.793-93.461 74.769-48.061-21.272-59.402-46.865-51.092-74.769-26.57 13.186-34.97 41.947-82.246 37.384-12.598-20.467-24.352-29.965-33.646-7.4769 6.7502 64.615-42.44 24.691-63.554-8.723z" fill="#8dd35f"/>
 </g>
 <g transform="matrix(.62637 0 0 .62637 236.16 23.84)" fill-rule="evenodd">
  <path d="m727.83 608.58 91.072 2.3165-26.64-294.2 158.8-55.488-31.046-13.196-131.23 43.202h-28.957l-82.01-77.713-19.918 16.325 98.453 94.978-28.525 283.78z" fill="#d38d5f"/>
  <path d="m625.57 261.88 36.856-14.303" fill="#55d400" stroke="#71c837" stroke-width="3"/>
  <path d="m615.15 278.67 36.856-14.303" fill="#55d400" stroke="#71c837" stroke-width="3"/>
  <path d="m624.41 194.12 36.856-14.303" fill="#55d400" stroke="#71c837" stroke-width="3"/>
  <path d="m575.76 216.13 36.856-14.303" fill="#55d400" stroke="#71c837" stroke-width="3"/>
  <path d="m530.59 235.82 36.856-14.303" fill="#55d400" stroke="#71c837" stroke-width="3"/>
  <path d="m605.88 210.33 36.856-14.303" fill="#55d400" stroke="#71c837" stroke-width="3"/>
  <path d="m563.02 230.02 36.856-14.303" fill="#55d400" stroke="#71c837" stroke-width="3"/>
  <path d="m519.01 247.4 36.856-14.303" fill="#55d400" stroke="#71c837" stroke-width="3"/>
  <path d="m639.47 204.54 36.856-14.303" fill="#55d400" stroke="#71c837" stroke-width="3"/>
  <path d="m595.46 224.23 36.856-14.303" fill="#55d400" stroke="#71c837" stroke-width="3"/>
  <path d="m550.28 242.77 36.856-14.303" fill="#55d400" stroke="#71c837" stroke-width="3"/>
  <path d="m623.25 220.76 36.856-14.303" fill="#55d400" stroke="#71c837" stroke-width="3"/>
  <path d="m535.23 255.51 36.856-14.303" fill="#55d400" stroke="#71c837" stroke-width="3"/>
  <path d="m578.08 239.29 36.856-14.303" fill="#55d400" stroke="#71c837" stroke-width="3"/>
  <path d="m609.35 234.66 36.856-14.303" fill="#55d400" stroke="#71c837" stroke-width="3"/>
  <path d="m546.81 267.09 36.856-14.303" fill="#55d400" stroke="#71c837" stroke-width="3"/>
  <path d="m561.87 274.04 36.856-14.303" fill="#55d400" stroke="#71c837" stroke-width="3"/>
  <path d="m574.61 280.99 36.856-14.303" fill="#55d400" stroke="#71c837" stroke-width="3"/>
  <path d="m559.55 254.35 36.856-14.303" fill="#55d400" stroke="#71c837" stroke-width="3"/>
  <path d="m591.98 248.56 36.856-14.303" fill="#55d400" stroke="#71c837" stroke-width="3"/>
  <path d="m619.78 243.92 36.856-14.303" fill="#55d400" stroke="#71c837" stroke-width="3"/>
  <path d="m572.29 262.46 36.856-14.303" fill="#55d400" stroke="#71c837" stroke-width="3"/>
  <path d="m612.83 253.19 36.856-14.303" fill="#55d400" stroke="#71c837" stroke-width="3"/>
  <path d="m588.51 269.41 36.856-14.303" fill="#55d400" stroke="#71c837" stroke-width="3"/>
  <path d="m634.84 277.51 36.856-14.303" fill="#55d400" stroke="#71c837" stroke-width="3"/>
  <path d="m598.93 278.67 36.856-14.303" fill="#55d400" stroke="#71c837" stroke-width="3"/>
  <g transform="matrix(-.99933 -.036621 .036621 -.99933 1165.6 430.99)" fill="#55d400" stroke="#71c837" stroke-width="3">
   <path d="m625.57 261.88 36.856-14.303"/>
   <path d="m615.15 278.67 36.856-14.303"/>
   <path d="m624.41 194.12 36.856-14.303"/>
   <path d="m575.76 216.13 36.856-14.303"/>
   <path d="m530.59 235.82 36.856-14.303"/>
   <path d="m605.88 210.33 36.856-14.303"/>
   <path d="m563.02 230.02 36.856-14.303"/>
   <path d="m519.01 247.4 36.856-14.303"/>
   <path d="m639.47 204.54 36.856-14.303"/>
   <path d="m595.46 224.23 36.856-14.303"/>
   <path d="m550.28 242.77 36.856-14.303"/>
   <path d="m623.25 220.76 36.856-14.303"/>
   <path d="m535.23 255.51 36.856-14.303"/>
   <path d="m578.08 239.29 36.856-14.303"/>
   <path d="m609.35 234.66 36.856-14.303"/>
   <path d="m546.81 267.09 36.856-14.303"/>
   <path d="m561.87 274.04 36.856-14.303"/>
   <path d="m574.61 280.99 36.856-14.303"/>
   <path d="m559.55 254.35 36.856-14.303"/>
   <path d="m591.98 248.56 36.856-14.303"/>
   <path d="m619.78 243.92 36.856-14.303"/>
   <path d="m572.29 262.46 36.856-14.303"/>
   <path d="m612.83 253.19 36.856-14.303"/>
   <path d="m588.51 269.41 36.856-14.303"/>
   <path d="m634.84 277.51 36.856-14.303"/>
   <path d="m598.93 278.67 36.856-14.303"/>
  </g>
  <g transform="matrix(.99591 .09034 -.09034 .99591 183.17 -95.762)" fill="#55d400" stroke="#71c837" stroke-width="3">
   <path d="m625.57 261.88 36.856-14.303"/>
   <path d="m615.15 278.67 36.856-14.303"/>
   <path d="m624.41 194.12 36.856-14.303"/>
   <path d="m575.76 216.13 36.856-14.303"/>
   <path d="m530.59 235.82 36.856-14.303"/>
   <path d="m605.88 210.33 36.856-14.303"/>
   <path d="m563.02 230.02 36.856-14.303"/>
   <path d="m519.01 247.4 36.856-14.303"/>
   <path d="m639.47 204.54 36.856-14.303"/>
   <path d="m595.46 224.23 36.856-14.303"/>
   <path d="m550.28 242.77 36.856-14.303"/>
   <path d="m623.25 220.76 36.856-14.303"/>
   <path d="m535.23 255.51 36.856-14.303"/>
   <path d="m578.08 239.29 36.856-14.303"/>
   <path d="m609.35 234.66 36.856-14.303"/>
   <path d="m546.81 267.09 36.856-14.303"/>
   <path d="m561.87 274.04 36.856-14.303"/>
   <path d="m574.61 280.99 36.856-14.303"/>
   <path d="m559.55 254.35 36.856-14.303"/>
   <path d="m591.98 248.56 36.856-14.303"/>
   <path d="m619.78 243.92 36.856-14.303"/>
   <path d="m572.29 262.46 36.856-14.303"/>
   <path d="m612.83 253.19 36.856-14.303"/>
   <path d="m588.51 269.41 36.856-14.303"/>
   <path d="m634.84 277.51 36.856-14.303"/>
   <path d="m598.93 278.67 36.856-14.303"/>
  </g>
  <g transform="matrix(-.98817 -.15338 .15338 -.98817 1449.5 513.62)" fill="#55d400" stroke="#71c837" stroke-width="3">
   <path d="m625.57 261.88 36.856-14.303"/>
   <path d="m615.15 278.67 36.856-14.303"/>
   <path d="m624.41 194.12 36.856-14.303"/>
   <path d="m575.76 216.13 36.856-14.303"/>
   <path d="m530.59 235.82 36.856-14.303"/>
   <path d="m605.88 210.33 36.856-14.303"/>
   <path d="m563.02 230.02 36.856-14.303"/>
   <path d="m519.01 247.4 36.856-14.303"/>
   <path d="m639.47 204.54 36.856-14.303"/>
   <path d="m595.46 224.23 36.856-14.303"/>
   <path d="m550.28 242.77 36.856-14.303"/>
   <path d="m623.25 220.76 36.856-14.303"/>
   <path d="m535.23 255.51 36.856-14.303"/>
   <path d="m578.08 239.29 36.856-14.303"/>
   <path d="m609.35 234.66 36.856-14.303"/>
   <path d="m546.81 267.09 36.856-14.303"/>
   <path d="m561.87 274.04 36.856-14.303"/>
   <path d="m574.61 280.99 36.856-14.303"/>
   <path d="m559.55 254.35 36.856-14.303"/>
   <path d="m591.98 248.56 36.856-14.303"/>
   <path d="m619.78 243.92 36.856-14.303"/>
   <path d="m572.29 262.46 36.856-14.303"/>
   <path d="m612.83 253.19 36.856-14.303"/>
   <path d="m588.51 269.41 36.856-14.303"/>
   <path d="m634.84 277.51 36.856-14.303"/>
   <path d="m598.93 278.67 36.856-14.303"/>
  </g>
  <g transform="matrix(.99963 .0271 -.0271 .99963 82.421 -123.99)" fill="#55d400" stroke="#71c837" stroke-width="3">
   <path d="m625.57 261.88 36.856-14.303"/>
   <path d="m615.15 278.67 36.856-14.303"/>
   <path d="m624.41 194.12 36.856-14.303"/>
   <path d="m575.76 216.13 36.856-14.303"/>
   <path d="m530.59 235.82 36.856-14.303"/>
   <path d="m605.88 210.33 36.856-14.303"/>
   <path d="m563.02 230.02 36.856-14.303"/>
   <path d="m519.01 247.4 36.856-14.303"/>
   <path d="m639.47 204.54 36.856-14.303"/>
   <path d="m595.46 224.23 36.856-14.303"/>
   <path d="m550.28 242.77 36.856-14.303"/>
   <path d="m623.25 220.76 36.856-14.303"/>
   <path d="m535.23 255.51 36.856-14.303"/>
   <path d="m578.08 239.29 36.856-14.303"/>
   <path d="m609.35 234.66 36.856-14.303"/>
   <path d="m546.81 267.09 36.856-14.303"/>
   <path d="m561.87 274.04 36.856-14.303"/>
   <path d="m574.61 280.99 36.856-14.303"/>
   <path d="m559.55 254.35 36.856-14.303"/>
   <path d="m591.98 248.56 36.856-14.303"/>
   <path d="m619.78 243.92 36.856-14.303"/>
   <path d="m572.29 262.46 36.856-14.303"/>
   <path d="m612.83 253.19 36.856-14.303"/>
   <path d="m588.51 269.41 36.856-14.303"/>
   <path d="m634.84 277.51 36.856-14.303"/>
   <path d="m598.93 278.67 36.856-14.303"/>
  </g>
  <g transform="matrix(-.9959 -.0905 .0905 -.9959 1384.8 403.99)" fill="#55d400" stroke="#71c837" stroke-width="3">
   <path d="m625.57 261.88 36.856-14.303"/>
   <path d="m615.15 278.67 36.856-14.303"/>
   <path d="m530.59 235.82 36.856-14.303"/>
   <path d="m605.88 210.33 36.856-14.303"/>
   <path d="m563.02 230.02 36.856-14.303"/>
   <path d="m519.01 247.4 36.856-14.303"/>
   <path d="m639.47 204.54 36.856-14.303"/>
   <path d="m595.46 224.23 36.856-14.303"/>
   <path d="m550.28 242.77 36.856-14.303"/>
   <path d="m623.25 220.76 36.856-14.303"/>
   <path d="m535.23 255.51 36.856-14.303"/>
   <path d="m578.08 239.29 36.856-14.303"/>
   <path d="m609.35 234.66 36.856-14.303"/>
   <path d="m546.81 267.09 36.856-14.303"/>
   <path d="m561.87 274.04 36.856-14.303"/>
   <path d="m574.61 280.99 36.856-14.303"/>
   <path d="m559.55 254.35 36.856-14.303"/>
   <path d="m591.98 248.56 36.856-14.303"/>
   <path d="m619.78 243.92 36.856-14.303"/>
   <path d="m572.29 262.46 36.856-14.303"/>
   <path d="m612.83 253.19 36.856-14.303"/>
   <path d="m588.51 269.41 36.856-14.303"/>
   <path d="m634.84 277.51 36.856-14.303"/>
   <path d="m598.93 278.67 36.856-14.303"/>
  </g>
  <g transform="matrix(.99984 -.01765 .01765 .99984 -42.479 -147.87)" fill="#55d400" stroke="#71c837" stroke-width="3">
   <path d="m625.57 261.88 36.856-14.303"/>
   <path d="m615.15 278.67 36.856-14.303"/>
   <path d="m624.41 194.12 36.856-14.303"/>
   <path d="m575.76 216.13 36.856-14.303"/>
   <path d="m530.59 235.82 36.856-14.303"/>
   <path d="m605.88 210.33 36.856-14.303"/>
   <path d="m563.02 230.02 36.856-14.303"/>
   <path d="m519.01 247.4 36.856-14.303"/>
   <path d="m639.47 204.54 36.856-14.303"/>
   <path d="m595.46 224.23 36.856-14.303"/>
   <path d="m550.28 242.77 36.856-14.303"/>
   <path d="m623.25 220.76 36.856-14.303"/>
   <path d="m535.23 255.51 36.856-14.303"/>
   <path d="m578.08 239.29 36.856-14.303"/>
   <path d="m609.35 234.66 36.856-14.303"/>
   <path d="m546.81 267.09 36.856-14.303"/>
   <path d="m561.87 274.04 36.856-14.303"/>
   <path d="m574.61 280.99 36.856-14.303"/>
   <path d="m559.55 254.35 36.856-14.303"/>
   <path d="m591.98 248.56 36.856-14.303"/>
   <path d="m619.78 243.92 36.856-14.303"/>
   <path d="m572.29 262.46 36.856-14.303"/>
   <path d="m612.83 253.19 36.856-14.303"/>
   <path d="m588.51 269.41 36.856-14.303"/>
   <path d="m634.84 277.51 36.856-14.303"/>
   <path d="m598.93 278.67 36.856-14.303"/>
  </g>
  <g transform="matrix(-.99895 -.04586 .04586 -.99895 1282.2 321.31)" fill="#55d400" stroke="#71c837" stroke-width="3">
   <path d="m625.57 261.88 36.856-14.303"/>
   <path d="m615.15 278.67 36.856-14.303"/>
   <path d="m624.41 194.12 36.856-14.303"/>
   <path d="m575.76 216.13 36.856-14.303"/>
   <path d="m530.59 235.82 36.856-14.303"/>
   <path d="m605.88 210.33 36.856-14.303"/>
   <path d="m563.02 230.02 36.856-14.303"/>
   <path d="m519.01 247.4 36.856-14.303"/>
   <path d="m639.47 204.54 36.856-14.303"/>
   <path d="m595.46 224.23 36.856-14.303"/>
   <path d="m550.28 242.77 36.856-14.303"/>
   <path d="m623.25 220.76 36.856-14.303"/>
   <path d="m535.23 255.51 36.856-14.303"/>
   <path d="m578.08 239.29 36.856-14.303"/>
   <path d="m609.35 234.66 36.856-14.303"/>
   <path d="m546.81 267.09 36.856-14.303"/>
   <path d="m561.87 274.04 36.856-14.303"/>
   <path d="m574.61 280.99 36.856-14.303"/>
   <path d="m559.55 254.35 36.856-14.303"/>
   <path d="m591.98 248.56 36.856-14.303"/>
   <path d="m619.78 243.92 36.856-14.303"/>
   <path d="m572.29 262.46 36.856-14.303"/>
   <path d="m612.83 253.19 36.856-14.303"/>
   <path d="m588.51 269.41 36.856-14.303"/>
   <path d="m634.84 277.51 36.856-14.303"/>
   <path d="m598.93 278.67 36.856-14.303"/>
  </g>
  <g transform="matrix(.98933 .14567 -.14567 .98933 422.1 -93.102)" fill="#55d400" stroke="#71c837" stroke-width="3">
   <path d="m625.57 261.88 36.856-14.303"/>
   <path d="m615.15 278.67 36.856-14.303"/>
   <path d="m624.41 194.12 36.856-14.303"/>
   <path d="m575.76 216.13 36.856-14.303"/>
   <path d="m530.59 235.82 36.856-14.303"/>
   <path d="m605.88 210.33 36.856-14.303"/>
   <path d="m563.02 230.02 36.856-14.303"/>
   <path d="m519.01 247.4 36.856-14.303"/>
   <path d="m639.47 204.54 36.856-14.303"/>
   <path d="m595.46 224.23 36.856-14.303"/>
   <path d="m550.28 242.77 36.856-14.303"/>
   <path d="m623.25 220.76 36.856-14.303"/>
   <path d="m535.23 255.51 36.856-14.303"/>
   <path d="m578.08 239.29 36.856-14.303"/>
   <path d="m609.35 234.66 36.856-14.303"/>
   <path d="m546.81 267.09 36.856-14.303"/>
   <path d="m561.87 274.04 36.856-14.303"/>
   <path d="m574.61 280.99 36.856-14.303"/>
   <path d="m559.55 254.35 36.856-14.303"/>
   <path d="m591.98 248.56 36.856-14.303"/>
   <path d="m619.78 243.92 36.856-14.303"/>
   <path d="m572.29 262.46 36.856-14.303"/>
   <path d="m612.83 253.19 36.856-14.303"/>
   <path d="m588.51 269.41 36.856-14.303"/>
   <path d="m634.84 277.51 36.856-14.303"/>
   <path d="m598.93 278.67 36.856-14.303"/>
  </g>
  <g transform="matrix(.98708 .16021 -.16021 .98708 421.12 -199.01)" fill="#55d400" stroke="#71c837" stroke-width="3">
   <path d="m625.57 261.88 36.856-14.303"/>
   <path d="m615.15 278.67 36.856-14.303"/>
   <path d="m624.41 194.12 36.856-14.303"/>
   <path d="m575.76 216.13 36.856-14.303"/>
   <path d="m530.59 235.82 36.856-14.303"/>
   <path d="m605.88 210.33 36.856-14.303"/>
   <path d="m563.02 230.02 36.856-14.303"/>
   <path d="m519.01 247.4 36.856-14.303"/>
   <path d="m639.47 204.54 36.856-14.303"/>
   <path d="m595.46 224.23 36.856-14.303"/>
   <path d="m550.28 242.77 36.856-14.303"/>
   <path d="m623.25 220.76 36.856-14.303"/>
   <path d="m535.23 255.51 36.856-14.303"/>
   <path d="m578.08 239.29 36.856-14.303"/>
   <path d="m609.35 234.66 36.856-14.303"/>
   <path d="m546.81 267.09 36.856-14.303"/>
   <path d="m561.87 274.04 36.856-14.303"/>
   <path d="m574.61 280.99 36.856-14.303"/>
   <path d="m559.55 254.35 36.856-14.303"/>
   <path d="m591.98 248.56 36.856-14.303"/>
   <path d="m619.78 243.92 36.856-14.303"/>
   <path d="m572.29 262.46 36.856-14.303"/>
   <path d="m612.83 253.19 36.856-14.303"/>
   <path d="m588.51 269.41 36.856-14.303"/>
   <path d="m634.84 277.51 36.856-14.303"/>
   <path d="m598.93 278.67 36.856-14.303"/>
  </g>
  <g transform="matrix(-.99308 -.11742 .11742 -.99308 1498 391.47)" fill="#55d400" stroke="#71c837" stroke-width="3">
   <path d="m625.57 261.88 36.856-14.303"/>
   <path d="m615.15 278.67 36.856-14.303"/>
   <path d="m595.46 224.23 36.856-14.303"/>
   <path d="m550.28 242.77 36.856-14.303"/>
   <path d="m623.25 220.76 36.856-14.303"/>
   <path d="m535.23 255.51 36.856-14.303"/>
   <path d="m578.08 239.29 36.856-14.303"/>
   <path d="m609.35 234.66 36.856-14.303"/>
   <path d="m546.81 267.09 36.856-14.303"/>
   <path d="m561.87 274.04 36.856-14.303"/>
   <path d="m574.61 280.99 36.856-14.303"/>
   <path d="m559.55 254.35 36.856-14.303"/>
   <path d="m591.98 248.56 36.856-14.303"/>
   <path d="m619.78 243.92 36.856-14.303"/>
   <path d="m572.29 262.46 36.856-14.303"/>
   <path d="m612.83 253.19 36.856-14.303"/>
   <path d="m588.51 269.41 36.856-14.303"/>
   <path d="m634.84 277.51 36.856-14.303"/>
   <path d="m598.93 278.67 36.856-14.303"/>
  </g>
  <g transform="matrix(.99917 .040717 -.040717 .99917 215.76 -238.14)" fill="#55d400" stroke="#71c837" stroke-width="3">
   <path d="m625.57 261.88 36.856-14.303"/>
   <path d="m615.15 278.67 36.856-14.303"/>
   <path d="m530.59 235.82 36.856-14.303"/>
   <path d="m563.02 230.02 36.856-14.303"/>
   <path d="m519.01 247.4 36.856-14.303"/>
   <path d="m550.28 242.77 36.856-14.303"/>
   <path d="m535.23 255.51 36.856-14.303"/>
   <path d="m578.08 239.29 36.856-14.303"/>
   <path d="m546.81 267.09 36.856-14.303"/>
   <path d="m561.87 274.04 36.856-14.303"/>
   <path d="m574.61 280.99 36.856-14.303"/>
   <path d="m559.55 254.35 36.856-14.303"/>
   <path d="m591.98 248.56 36.856-14.303"/>
   <path d="m619.78 243.92 36.856-14.303"/>
   <path d="m572.29 262.46 36.856-14.303"/>
   <path d="m612.83 253.19 36.856-14.303"/>
   <path d="m588.51 269.41 36.856-14.303"/>
   <path d="m634.84 277.51 36.856-14.303"/>
   <path d="m598.93 278.67 36.856-14.303"/>
  </g>
 </g>
 <g transform="matrix(.75438 0 0 .75438 2.7462 -74.571)" fill-rule="evenodd">
  <path d="m127.23 397.79 54.831 73.523-8.723 249.23 51.092-1.2462-11.215-252.97 103.43-81-33.646-29.908-69.784 68.538-1.2462-46.108h-36.138v22.431l-33.646-38.631-14.954 36.138z" fill="#c87137"/>
  <path d="m334.82 358.96c2.0198-31.57 20.557-51.371 55.613-59.403-1.0774 37.513-30.114 55.104-55.613 59.403z" fill="#71c837"/>
  <path d="m342.51 305.35c5.8034-31.098 26.589-48.525 62.356-52.281-5.5827 37.111-36.525 51.08-62.356 52.281z" fill="#71c837"/>
  <path d="m303.32 394.02c13.297-28.704 37.74-40.464 73.328-35.278-14.567 34.586-47.999 40.488-73.328 35.278z" fill="#71c837"/>
  <path d="m261.64 287.76c-1.0196-31.618 15.532-53.107 49.654-64.467 2.5281 37.443-24.686 57.74-49.654 64.467z" fill="#71c837"/>
  <path d="m314.89 248.72c7.5434-30.722 29.276-46.952 65.198-48.691-7.6613 36.738-39.34 48.945-65.198 48.691z" fill="#71c837"/>
  <path d="m276.68 179.69c0.12787-31.634 17.448-52.509 51.96-62.623 1.1684 37.51-26.764 56.806-51.96 62.623z" fill="#71c837"/>
  <path d="m266.9 233.43c-0.06527-31.635 17.127-52.614 51.577-62.94 1.3974 37.502-26.417 56.969-51.577 62.94z" fill="#71c837"/>
  <path d="m338.13 312.19c0.65896 31.628-16.136 52.927-50.386 63.896-2.101-37.469 25.343-57.454 50.386-63.896z" fill="#71c837"/>
  <path d="m254.54 230.23c5.4067 31.169-7.9956 54.751-40.207 70.746-7.7106-36.728 16.417-60.612 40.207-70.746z" fill="#71c837"/>
  <path d="m299.21 318.76c-2.4726-31.538 13.073-53.765 46.637-66.682 4.2474 37.287-22.005 58.814-46.637 66.682z" fill="#71c837"/>
  <path d="m355.62 257.45c9.7726-30.087 32.635-44.683 68.588-43.786-10.331 36.078-42.818 45.933-68.588 43.786z" fill="#71c837"/>
  <path d="m263.03 162.19c8.7715 30.394-1.9807 55.296-32.257 74.706-11.667-35.668 9.7129-62.04 32.257-74.706z" fill="#71c837"/>
  <path d="m199.47 210.03c-9.9095-30.043-0.10232-55.332 29.422-75.868 13.002 35.204-7.3705 62.361-29.422 75.868z" fill="#71c837"/>
  <path d="m183.23 151.02c14.485 28.124 8.7525 54.635-17.197 79.535-18.346-32.738-2.4707-62.747 17.197-79.535z" fill="#71c837"/>
  <path d="m140.16 129.01c20.583 24.023 21.122 51.142 1.6172 81.357-25.405-27.622-16.881-60.484-1.6172-81.357z" fill="#71c837"/>
  <path d="m91.285 164.5c28.098 14.535 38.781 39.467 32.051 74.795-33.918-16.06-38.359-49.718-32.051-74.795z" fill="#71c837"/>
  <path d="m60.496 202.95c29.711 10.863 43.463 34.243 41.257 70.139-35.678-11.639-44.341-44.465-41.257-70.139z" fill="#71c837"/>
  <path d="m22.676 262.63c31.292 4.6463 49.477 24.771 54.557 60.374-37.292-4.2028-52.4-34.606-54.557-60.374z" fill="#71c837"/>
  <path d="m69.484 272.51c30.659 7.7975 46.708 29.664 48.149 65.598-36.673-7.9652-48.618-39.744-48.149-65.598z" fill="#71c837"/>
  <path d="m53.546 325.66c31.606-1.351 53.267 14.974 64.984 48.976-37.414 2.9205-57.995-24.079-64.984-48.976z" fill="#71c837"/>
  <path d="m63.56 380.97c29.508-11.404 55.257-2.8772 77.248 25.58-34.507 14.751-62.653-4.2336-77.248-25.58z" fill="#71c837"/>
  <path d="m284.94 284.66c8.0771 30.586-3.2395 55.237-33.95 73.952-10.852-35.925 11.123-61.802 33.95-73.952z" fill="#71c837"/>
  <path d="m240.85 306.9c8.4696 30.48-2.5292 55.274-32.996 74.383-11.313-35.782 10.328-61.94 32.996-74.383z" fill="#71c837"/>
  <path d="m210.83 214.86c10.552 29.823 1.2893 55.317-27.787 76.481-13.754-34.917 6.031-62.505 27.787-76.481z" fill="#71c837"/>
  <path d="m141.27 217.75c23.384 21.306 27.258 48.152 11.621 80.539-28.612-24.284-24.199-57.945-11.621-80.539z" fill="#71c837"/>
  <path d="m183.94 293.6c22.551 22.185 25.395 49.16 8.5302 80.924-27.662-25.361-21.964-58.829-8.5302-80.924z" fill="#71c837"/>
  <path d="m164.11 345.36c-30.78-7.3034-47.179-28.909-49.198-64.816 36.797 7.3743 49.251 38.957 49.198 64.816z" fill="#71c837"/>
 </g>
 <g transform="matrix(1.064 0 0 1.064 8.7155 49.051)">
  <path d="m427.78 436.98-2.4002 51.204-30.402-28.802-4.0003 8.8006 33.198 42.398-11.596 96.012 51.204 0.00266-20.001-172.02-16.001 2.4002z" fill="#d38d5f" fill-rule="evenodd"/>
  <g transform="matrix(.91218 -.40978 .40978 .91218 -249.14 364.66)">
   <path d="m613.03 345.73c-0.82798 4.1149-0.36369 12.382 10.431 13.047-0.62352 4.3074 6.5322 11.956 12.191 9.3356 5.0747-1.5287 17.094-8.7573 12.029-33.15-19.395-1.2662-33.543 2.4389-34.652 10.767z" fill="#abc837" fill-rule="evenodd"/>
  </g>
  <g transform="matrix(.98513 -.1718 .1718 .98513 -183.22 149.35)">
   <path d="m613.03 345.73c-0.82798 4.1149-0.36369 12.382 10.431 13.047-0.62352 4.3074 6.5322 11.956 12.191 9.3356 5.0747-1.5287 17.094-8.7573 12.029-33.15-19.395-1.2662-33.543 2.4389-34.652 10.767z" fill="#abc837" fill-rule="evenodd"/>
  </g>
  <g transform="matrix(.91218 -.40978 .40978 .91218 -261.95 324.99)">
   <path d="m613.03 345.73c-0.82798 4.1149-0.36369 12.382 10.431 13.047-0.62352 4.3074 6.5322 11.956 12.191 9.3356 5.0747-1.5287 17.094-8.7573 12.029-33.15-19.395-1.2662-33.543 2.4389-34.652 10.767z" fill="#abc837" fill-rule="evenodd"/>
  </g>
  <g transform="matrix(.30519 -.95229 .95229 .30519 -150.23 792.38)">
   <path d="m613.03 345.73c-0.82798 4.1149-0.36369 12.382 10.431 13.047-0.62352 4.3074 6.5322 11.956 12.191 9.3356 5.0747-1.5287 17.094-8.7573 12.029-33.15-19.395-1.2662-33.543 2.4389-34.652 10.767z" fill="#abc837" fill-rule="evenodd"/>
  </g>
  <g transform="matrix(.71932 -.69468 .69468 .71932 -268.96 494.24)">
   <path d="m613.03 345.73c-0.82798 4.1149-0.36369 12.382 10.431 13.047-0.62352 4.3074 6.5322 11.956 12.191 9.3356 5.0747-1.5287 17.094-8.7573 12.029-33.15-19.395-1.2662-33.543 2.4389-34.652 10.767z" fill="#abc837" fill-rule="evenodd"/>
  </g>
  <g transform="matrix(.5216 -.85319 .85319 .5216 -227.69 690.28)">
   <path d="m613.03 345.73c-0.82798 4.1149-0.36369 12.382 10.431 13.047-0.62352 4.3074 6.5322 11.956 12.191 9.3356 5.0747-1.5287 17.094-8.7573 12.029-33.15-19.395-1.2662-33.543 2.4389-34.652 10.767z" fill="#abc837" fill-rule="evenodd"/>
  </g>
  <g transform="matrix(.91218 -.40978 .40978 .91218 -275.52 284.27)">
   <path d="m613.03 345.73c-0.82798 4.1149-0.36369 12.382 10.431 13.047-0.62352 4.3074 6.5322 11.956 12.191 9.3356 5.0747-1.5287 17.094-8.7573 12.029-33.15-19.395-1.2662-33.543 2.4389-34.652 10.767z" fill="#abc837" fill-rule="evenodd"/>
  </g>
  <g transform="matrix(.46727 -.88412 .88412 .46727 -250.85 731.24)">
   <path d="m613.03 345.73c-0.82798 4.1149-0.36369 12.382 10.431 13.047-0.62352 4.3074 6.5322 11.956 12.191 9.3356 5.0747-1.5287 17.094-8.7573 12.029-33.15-19.395-1.2662-33.543 2.4389-34.652 10.767z" fill="#abc837" fill-rule="evenodd"/>
  </g>
  <g transform="matrix(.6549 -.75572 .75572 .6549 -261.41 626.77)">
   <path d="m613.03 345.73c-0.82798 4.1149-0.36369 12.382 10.431 13.047-0.62352 4.3074 6.5322 11.956 12.191 9.3356 5.0747-1.5287 17.094-8.7573 12.029-33.15-19.395-1.2662-33.543 2.4389-34.652 10.767z" fill="#abc837" fill-rule="evenodd"/>
  </g>
  <g transform="matrix(.45074 -.89266 .89266 .45074 -216.43 776.88)">
   <path d="m613.03 345.73c-0.82798 4.1149-0.36369 12.382 10.431 13.047-0.62352 4.3074 6.5322 11.956 12.191 9.3356 5.0747-1.5287 17.094-8.7573 12.029-33.15-19.395-1.2662-33.543 2.4389-34.652 10.767z" fill="#abc837" fill-rule="evenodd"/>
  </g>
  <g transform="matrix(.68587 -.72773 .72773 .68587 -345.9 600.94)">
   <path d="m613.03 345.73c-0.82798 4.1149-0.36369 12.382 10.431 13.047-0.62352 4.3074 6.5322 11.956 12.191 9.3356 5.0747-1.5287 17.094-8.7573 12.029-33.15-19.395-1.2662-33.543 2.4389-34.652 10.767z" fill="#abc837" fill-rule="evenodd"/>
  </g>
  <g transform="matrix(.53257 -.84639 .84639 .53257 -258.52 760.54)">
   <path d="m613.03 345.73c-0.82798 4.1149-0.36369 12.382 10.431 13.047-0.62352 4.3074 6.5322 11.956 12.191 9.3356 5.0747-1.5287 17.094-8.7573 12.029-33.15-19.395-1.2662-33.543 2.4389-34.652 10.767z" fill="#abc837" fill-rule="evenodd"/>
  </g>
  <g transform="matrix(.30385 -.95272 .95272 .30385 -114.69 917.95)">
   <path d="m613.03 345.73c-0.82798 4.1149-0.36369 12.382 10.431 13.047-0.62352 4.3074 6.5322 11.956 12.191 9.3356 5.0747-1.5287 17.094-8.7573 12.029-33.15-19.395-1.2662-33.543 2.4389-34.652 10.767z" fill="#abc837" fill-rule="evenodd"/>
  </g>
  <g transform="matrix(.99444 -.10527 .10527 .99444 -159.56 26.44)">
   <path d="m613.03 345.73c-0.82798 4.1149-0.36369 12.382 10.431 13.047-0.62352 4.3074 6.5322 11.956 12.191 9.3356 5.0747-1.5287 17.094-8.7573 12.029-33.15-19.395-1.2662-33.543 2.4389-34.652 10.767z" fill="#abc837" fill-rule="evenodd"/>
  </g>
  <g transform="matrix(.87891 -.47698 .47698 .87891 -272.97 265.46)">
   <path d="m613.03 345.73c-0.82798 4.1149-0.36369 12.382 10.431 13.047-0.62352 4.3074 6.5322 11.956 12.191 9.3356 5.0747-1.5287 17.094-8.7573 12.029-33.15-19.395-1.2662-33.543 2.4389-34.652 10.767z" fill="#abc837" fill-rule="evenodd"/>
  </g>
  <g transform="matrix(.91218 -.40978 .40978 .91218 -253.31 249.71)">
   <path d="m613.03 345.73c-0.82798 4.1149-0.36369 12.382 10.431 13.047-0.62352 4.3074 6.5322 11.956 12.191 9.3356 5.0747-1.5287 17.094-8.7573 12.029-33.15-19.395-1.2662-33.543 2.4389-34.652 10.767z" fill="#abc837" fill-rule="evenodd"/>
  </g>
  <g transform="matrix(.91218 -.40978 .40978 .91218 -234.8 287.97)">
   <path d="m613.03 345.73c-0.82798 4.1149-0.36369 12.382 10.431 13.047-0.62352 4.3074 6.5322 11.956 12.191 9.3356 5.0747-1.5287 17.094-8.7573 12.029-33.15-19.395-1.2662-33.543 2.4389-34.652 10.767z" fill="#abc837" fill-rule="evenodd"/>
  </g>
  <g transform="matrix(.64192 -.76677 .76677 .64192 -264.93 529.68)">
   <path d="m613.03 345.73c-0.82798 4.1149-0.36369 12.382 10.431 13.047-0.62352 4.3074 6.5322 11.956 12.191 9.3356 5.0747-1.5287 17.094-8.7573 12.029-33.15-19.395-1.2662-33.543 2.4389-34.652 10.767z" fill="#abc837" fill-rule="evenodd"/>
  </g>
  <g transform="matrix(.97201 -.23494 .23494 .97201 -204.31 80.254)">
   <path d="m613.03 345.73c-0.82798 4.1149-0.36369 12.382 10.431 13.047-0.62352 4.3074 6.5322 11.956 12.191 9.3356 5.0747-1.5287 17.094-8.7573 12.029-33.15-19.395-1.2662-33.543 2.4389-34.652 10.767z" fill="#abc837" fill-rule="evenodd"/>
  </g>
  <g transform="matrix(.99202 -.1261 .1261 .99202 -129.7 116.86)">
   <path d="m613.03 345.73c-0.82798 4.1149-0.36369 12.382 10.431 13.047-0.62352 4.3074 6.5322 11.956 12.191 9.3356 5.0747-1.5287 17.094-8.7573 12.029-33.15-19.395-1.2662-33.543 2.4389-34.652 10.767z" fill="#abc837" fill-rule="evenodd"/>
  </g>
  <g transform="matrix(.9996 .028282 -.028282 .9996 -94.327 -21.494)">
   <path d="m613.03 345.73c-0.82798 4.1149-0.36369 12.382 10.431 13.047-0.62352 4.3074 6.5322 11.956 12.191 9.3356 5.0747-1.5287 17.094-8.7573 12.029-33.15-19.395-1.2662-33.543 2.4389-34.652 10.767z" fill="#abc837" fill-rule="evenodd"/>
  </g>
  <g transform="matrix(.35609 -.93445 .93445 .35609 -162.59 925.05)">
   <path d="m613.03 345.73c-0.82798 4.1149-0.36369 12.382 10.431 13.047-0.62352 4.3074 6.5322 11.956 12.191 9.3356 5.0747-1.5287 17.094-8.7573 12.029-33.15-19.395-1.2662-33.543 2.4389-34.652 10.767z" fill="#abc837" fill-rule="evenodd"/>
  </g>
  <g transform="matrix(.91218 -.40978 .40978 .91218 -255.78 141.12)">
   <path d="m613.03 345.73c-0.82798 4.1149-0.36369 12.382 10.431 13.047-0.62352 4.3074 6.5322 11.956 12.191 9.3356 5.0747-1.5287 17.094-8.7573 12.029-33.15-19.395-1.2662-33.543 2.4389-34.652 10.767z" fill="#abc837" fill-rule="evenodd"/>
  </g>
  <g transform="matrix(.91218 -.40978 .40978 .91218 -243.44 176.91)">
   <path d="m613.03 345.73c-0.82798 4.1149-0.36369 12.382 10.431 13.047-0.62352 4.3074 6.5322 11.956 12.191 9.3356 5.0747-1.5287 17.094-8.7573 12.029-33.15-19.395-1.2662-33.543 2.4389-34.652 10.767z" fill="#abc837" fill-rule="evenodd"/>
  </g>
  <g transform="matrix(.70125 -.71291 .71291 .70125 -257.73 438)">
   <path d="m613.03 345.73c-0.82798 4.1149-0.36369 12.382 10.431 13.047-0.62352 4.3074 6.5322 11.956 12.191 9.3356 5.0747-1.5287 17.094-8.7573 12.029-33.15-19.395-1.2662-33.543 2.4389-34.652 10.767z" fill="#abc837" fill-rule="evenodd"/>
  </g>
  <g transform="matrix(.98115 -.19322 .19322 .98115 -172.12 198.81)">
   <path d="m613.03 345.73c-0.82798 4.1149-0.36369 12.382 10.431 13.047-0.62352 4.3074 6.5322 11.956 12.191 9.3356 5.0747-1.5287 17.094-8.7573 12.029-33.15-19.395-1.2662-33.543 2.4389-34.652 10.767z" fill="#abc837" fill-rule="evenodd"/>
  </g>
 </g>
 <g transform="matrix(.77802 0 0 .77802 505.35 248.61)" fill-rule="evenodd">
  <path d="m483.72 557.76 14.808-55.529-64.167-72.805 16.042-13.574 46.892 45.658 3.702-74.039h24.68l-4.936 71.571 64.167-38.254 11.106 24.68-56.763 28.382 28.382 85.145-83.911-1.234z" fill="#a05a2c"/>
  <path d="m371.23 448.16c22.961-24.08 61.298 3.7271 63.705-20.27-24.437-6.08-50.025-8.9929-63.705 20.27z" fill="#4a0"/>
  <path d="m332.75 451.01c17.445-28.332 60.731-9.1145 58.09-33.087-25.167-0.86001-50.801 1.6175-58.09 33.087z" fill="#4a0"/>
  <path d="m355.1 325.36c29.786-14.828 56.369 24.368 66.8 2.6229-20.908-14.034-43.977-25.482-66.8-2.6229z" fill="#4a0"/>
  <path d="m453.22 350.95c32.685 6.2254 30.123 53.516 51.587 42.52-8.1492-23.827-19.583-46.902-51.587-42.52z" fill="#4a0"/>
  <path d="m435.46 291.51c30.784 12.627 18.829 58.453 42.058 51.965-3.2271-24.974-9.8232-49.868-42.058-51.965z" fill="#4a0"/>
  <path d="m402.96 302.54c32.454 7.3354 28.282 54.511 50.109 44.253-7.3326-24.091-17.974-47.542-50.109-44.253z" fill="#4a0"/>
  <path d="m361.33 371.97c27.338-18.966 59.293 15.988 66.481-7.0333-22.713-10.874-47.191-18.877-66.481 7.0333z" fill="#4a0"/>
  <path d="m400.34 341.12c33.15 2.8583 35.425 50.163 55.656 37.035-10.537-22.871-24.266-44.66-55.656-37.035z" fill="#4a0"/>
  <path d="m355.01 407.58c22.961-24.08 61.298 3.7271 63.705-20.27-24.437-6.08-50.025-8.9929-63.705 20.27z" fill="#4a0"/>
  <path d="m404.44 381.61c33.268-0.53358 40.351 46.293 59.139 31.172-12.813-21.679-28.69-41.955-59.139-31.172z" fill="#4a0"/>
  <path d="m372.72 416.95c28.074-17.858 58.607 18.345 66.709-4.3707-22.26-11.773-46.399-20.748-66.709 4.3707z" fill="#4a0"/>
  <path d="m655.64 454.95c-22.961-24.08-61.298 3.7271-63.705-20.27 24.437-6.08 50.025-8.9929 63.705 20.27z" fill="#4a0"/>
  <path d="m694.12 457.81c-17.445-28.332-60.731-9.1145-58.09-33.087 25.167-0.86001 50.801 1.6175 58.09 33.087z" fill="#4a0"/>
  <path d="m671.77 332.16c-29.786-14.828-56.369 24.368-66.8 2.6229 20.908-14.034 43.977-25.482 66.8-2.6229z" fill="#4a0"/>
  <path d="m573.65 357.75c-32.685 6.2254-30.123 53.516-51.587 42.52 8.1492-23.827 19.583-46.902 51.587-42.52z" fill="#4a0"/>
  <path d="m592.74 303.29c-31.614 10.374-22.995 56.943-45.695 48.797 5.0193-24.676 13.393-49.03 45.695-48.797z" fill="#4a0"/>
  <path d="m623.91 309.34c-32.454 7.3354-28.282 54.511-50.109 44.253 7.3326-24.091 17.974-47.542 50.109-44.253z" fill="#4a0"/>
  <path d="m665.54 378.76c-27.338-18.966-59.293 15.988-66.481-7.0333 22.713-10.874 47.191-18.877 66.481 7.0333z" fill="#4a0"/>
  <path d="m626.53 347.91c-33.15 2.8583-35.425 50.163-55.656 37.035 10.537-22.871 24.266-44.66 55.656-37.035z" fill="#4a0"/>
  <path d="m671.86 414.38c-22.961-24.08-61.298 3.7271-63.705-20.27 24.437-6.08 50.025-8.9929 63.705 20.27z" fill="#4a0"/>
  <path d="m622.43 388.41c-33.268-0.53358-40.351 46.293-59.139 31.172 12.813-21.679 28.69-41.955 59.139-31.172z" fill="#4a0"/>
  <path d="m654.15 423.74c-28.074-17.858-58.607 18.345-66.709-4.3707 22.26-11.773 46.399-20.748 66.709 4.3707z" fill="#4a0"/>
  <path d="m555.22 321.87c-29.062 16.201-11.738 60.278-35.573 56.601 0.2316-25.181 3.8178-50.683 35.573-56.601z" fill="#4a0"/>
  <path d="m578.25 269.55c-31.358 11.124-21.633 57.474-44.52 49.871 4.4306-24.789 12.222-49.335 44.52-49.871z" fill="#4a0"/>
  <path d="m477.95 321.87c29.062 16.201 11.738 60.278 35.573 56.601-0.2316-25.181-3.8178-50.683-35.573-56.601z" fill="#4a0"/>
  <path d="m451.94 275.4c32.373 7.6831 27.695 54.811 49.631 44.788-7.0738-24.168-17.463-47.732-49.631-44.788z" fill="#4a0"/>
  <path d="m488.44 275.56c28.14 17.754 8.45 60.827 32.45 58.448 1.1351-25.156-1.062-50.815-32.45-58.448z" fill="#4a0"/>
  <path d="m569.51 247.2c-32.31 7.9437-27.253 55.032-49.268 45.186 6.8788-24.224 17.078-47.872 49.268-45.186z" fill="#4a0"/>
  <path d="m616.91 275.07c-33.232-1.6383-41.866 44.928-60.142 29.191 13.526-21.241 30.067-40.979 60.142-29.191z" fill="#4a0"/>
 </g>
</svg>
