<?xml version="1.0" standalone="no"?>
<!DOCTYPE svg PUBLIC "-//W3C//DTD SVG 20010904//EN"
 "http://www.w3.org/TR/2001/REC-SVG-20010904/DTD/svg10.dtd">
<svg version="1.0" xmlns="http://www.w3.org/2000/svg"
 width="696.000000pt" height="445.000000pt" viewBox="0 0 696.000000 445.000000"
 preserveAspectRatio="xMidYMid meet">
<metadata>
Created by potrace 1.16, written by Peter Selinger 2001-2019
</metadata>
<g transform="translate(0.000000,445.000000) scale(0.100000,-0.100000)"
fill="#000000" stroke="none">
<path d="M55 4429 c10 -30 -12 -68 -36 -62 -19 5 -19 -24 -19 -1316 0 -726 1
-1321 3 -1321 2 0 27 33 56 73 56 77 126 130 128 98 1 -9 10 -43 21 -76 39
-121 44 -144 38 -169 -3 -14 -2 -26 3 -26 5 0 9 -24 9 -52 0 -29 1 -57 2 -63
2 -5 2 -13 1 -17 0 -5 3 -8 9 -8 5 0 10 -15 10 -32 3 -107 6 -138 12 -138 15
0 13 -37 -4 -70 -10 -19 -45 -73 -78 -120 -33 -47 -60 -90 -60 -96 0 -7 -34
-47 -75 -90 l-75 -79 0 -432 0 -433 728 0 729 0 22 24 c12 13 64 56 114 94 51
39 112 87 137 106 323 253 550 332 798 281 111 -22 148 -13 299 77 65 39 177
99 248 134 135 65 219 119 210 135 -4 5 0 7 7 4 7 -3 64 33 126 80 62 46 125
91 140 99 16 8 34 22 41 30 11 13 10 17 -4 22 -10 4 -21 1 -26 -7 -5 -8 -9 -9
-9 -3 0 6 7 17 15 24 13 11 18 10 29 -5 13 -18 16 -17 55 14 22 18 39 37 36
41 -3 5 0 12 6 16 8 4 9 3 5 -4 -4 -7 -5 -12 -3 -12 3 0 61 42 129 92 69 51
155 115 193 141 53 38 65 51 54 59 -11 7 -9 8 6 4 23 -7 122 63 117 83 -1 7 2
9 9 6 6 -4 32 14 60 41 43 43 46 49 31 60 -18 13 -36 9 -26 -7 3 -5 10 -6 16
-3 6 4 9 1 6 -7 -3 -8 -11 -14 -19 -14 -8 -1 -13 -7 -11 -15 2 -10 0 -11 -11
-2 -8 7 -17 9 -20 5 -4 -3 -7 -1 -7 5 0 7 -13 12 -30 12 -16 0 -45 9 -65 20
-20 11 -47 20 -60 20 -14 0 -25 5 -25 10 0 6 -7 10 -15 10 -8 0 -15 4 -15 10
0 13 -65 40 -96 40 -12 0 -26 5 -29 11 -4 6 -14 8 -22 4 -9 -3 -31 4 -50 15
-19 11 -42 20 -52 20 -25 0 -33 11 -20 27 13 15 33 18 24 3 -4 -6 5 -10 19
-10 14 0 26 -4 26 -10 0 -5 9 -10 20 -10 11 0 20 4 20 9 0 17 -30 33 -52 27
-13 -3 -18 -3 -11 0 7 3 10 11 7 18 -5 13 24 31 34 21 3 -3 0 -5 -6 -5 -21 0
-13 -16 13 -28 14 -6 25 -19 25 -28 0 -10 5 -14 15 -11 8 4 17 2 20 -3 9 -14
32 -1 41 23 6 20 7 19 11 -10 3 -24 9 -31 24 -30 21 1 25 13 7 20 -7 2 -10 8
-5 12 4 5 13 3 19 -3 15 -15 58 -16 58 -2 0 15 30 12 36 -4 8 -22 34 -28 50
-11 12 12 19 12 34 3 10 -7 17 -15 14 -19 -2 -4 1 -11 7 -15 6 -3 15 -1 19 6
7 11 12 10 25 -3 19 -20 29 -22 19 -5 -5 8 -2 9 10 5 10 -4 19 -7 22 -7 2 0 1
-6 -1 -12 -7 -17 96 -20 108 -4 6 7 7 5 4 -6 -7 -20 10 -28 38 -18 31 11 85 0
85 -17 0 -13 3 -13 15 -3 12 10 16 9 21 -3 3 -9 3 -20 0 -26 -4 -6 12 -8 41
-6 56 3 82 -3 61 -16 -9 -6 -2 -9 19 -9 17 0 34 6 37 13 3 6 4 3 3 -7 -1 -10
4 -21 11 -23 7 -3 12 4 12 17 0 13 5 20 13 17 6 -2 11 -12 9 -22 -2 -10 1 -14
7 -10 6 3 11 17 11 31 0 18 5 24 23 24 19 -1 20 -2 6 -13 -12 -9 -14 -18 -7
-36 8 -23 9 -24 23 -5 8 10 15 25 15 32 0 6 5 12 11 12 6 0 9 -7 5 -15 -3 -8
-1 -15 4 -15 6 0 10 -7 10 -15 0 -8 -8 -15 -17 -15 -15 0 -16 -2 -3 -10 9 -6
17 -5 21 2 4 6 11 8 16 5 5 -4 50 -9 98 -12 49 -3 91 -8 94 -10 9 -10 -199 -3
-319 10 -264 29 -374 47 -359 56 7 4 -6 6 -30 4 -23 -1 -44 -4 -46 -7 -6 -5
327 -55 464 -69 150 -16 475 -6 701 21 222 26 722 45 1138 44 268 -1 322 1
322 13 0 11 -4 11 -20 3 -23 -12 -64 -4 -55 11 4 5 11 9 16 9 6 0 7 -4 4 -10
-8 -12 -3 -13 29 0 l26 10 0 319 0 319 -27 11 -28 11 28 -4 27 -3 0 334 0 334
-57 -32 c-53 -31 -64 -33 -163 -35 -127 -3 -159 -14 -355 -119 -173 -94 -237
-122 -295 -128 -30 -4 -84 -27 -160 -68 -108 -60 -120 -64 -190 -67 -57 -3
-118 5 -250 31 -220 44 -436 79 -775 127 -170 24 -777 124 -844 139 -26 6 -53
20 -65 35 -12 14 -36 43 -54 65 -47 58 -135 122 -233 169 -108 52 -153 68
-232 82 -91 16 -151 37 -227 81 -71 41 -85 47 -74 27 4 -8 3 -10 -2 -5 -5 5
-9 14 -9 20 0 6 -70 47 -155 90 l-155 79 -130 14 c-329 35 -368 42 -550 98
-99 30 -191 57 -205 59 -14 2 -36 9 -50 16 -24 11 -23 11 8 5 23 -4 34 -1 38
9 14 38 -34 76 -145 112 -30 10 -96 46 -146 80 -50 34 -99 61 -108 59 -10 -1
-15 2 -11 7 3 5 10 7 15 4 19 -12 8 8 -36 65 -45 58 -120 128 -240 224 -165
132 -251 204 -264 219 -12 15 -51 17 -403 17 l-389 0 6 -21z m431 -273 c134
-64 482 -211 764 -322 63 -25 124 -50 135 -55 57 -26 204 -69 235 -68 l35 0
-30 14 c-21 9 -24 14 -12 14 10 1 15 6 12 12 -4 6 -14 8 -22 5 -8 -3 -11 -2
-8 3 9 15 -32 23 -55 11 -11 -6 -20 -8 -20 -6 0 3 9 10 21 16 15 9 31 7 67 -6
26 -10 50 -22 53 -27 3 -4 10 -7 15 -6 21 4 35 -2 28 -12 -4 -8 -9 -7 -16 2
-5 9 -6 5 -2 -13 5 -23 3 -26 -15 -21 -12 3 -21 1 -21 -5 0 -5 11 -13 25 -16
16 -4 22 -11 19 -21 -5 -11 -10 -12 -26 -4 -30 16 -79 29 -73 19 3 -4 17 -11
31 -14 27 -7 175 -76 184 -85 9 -10 80 -41 94 -41 7 0 24 -8 37 -18 13 -10 42
-24 64 -31 22 -7 54 -19 70 -27 17 -7 69 -25 117 -39 48 -14 90 -31 94 -36 3
-6 17 -8 30 -5 14 4 24 2 24 -4 0 -5 9 -10 20 -10 11 0 20 5 20 10 0 17 18 11
42 -14 25 -25 53 -38 62 -28 4 3 31 6 61 7 30 0 50 -2 45 -5 -6 -4 19 -12 55
-19 36 -7 69 -19 73 -27 11 -20 72 -31 72 -13 1 9 6 7 16 -6 11 -14 18 -16 21
-7 7 18 23 15 23 -4 0 -13 3 -14 14 -5 11 9 20 9 35 2 11 -6 29 -11 40 -11 12
0 21 -5 21 -11 0 -6 9 -8 21 -4 15 5 22 2 26 -15 3 -12 11 -19 19 -16 7 3 16
1 19 -4 4 -6 14 -10 23 -10 12 0 9 4 -8 13 -14 7 -26 23 -28 35 -4 23 12 30
24 10 4 -6 3 -8 -3 -5 -5 3 -10 0 -10 -8 0 -10 5 -11 15 -6 10 6 22 2 36 -10
11 -11 31 -19 45 -19 14 0 44 -7 66 -15 22 -8 54 -14 72 -15 17 0 39 -7 48
-17 14 -14 18 -14 26 -2 5 8 9 9 9 3 0 -9 52 -28 63 -22 1 0 22 -10 47 -23
l45 -24 -33 -3 c-19 -2 -44 4 -58 13 -14 9 -35 15 -47 15 -49 -4 -82 0 -68 9
11 7 9 10 -8 16 -12 3 -19 10 -16 15 5 8 -67 -5 -89 -16 -6 -3 -2 2 8 10 11 9
16 16 10 17 -5 1 -16 2 -24 3 -8 2 -30 3 -48 4 -18 1 -31 6 -28 10 3 5 -9 6
-27 4 -28 -4 -29 -6 -10 -13 11 -4 24 -13 29 -20 5 -9 2 -10 -12 -4 -10 4 -28
9 -39 10 -11 2 -22 4 -25 5 -3 1 -13 2 -22 1 -10 -1 -18 4 -18 13 0 18 -11 21
-26 6 -7 -7 -26 -5 -60 5 -27 8 -59 15 -72 15 -12 0 -25 7 -28 15 -4 8 -11 15
-16 15 -6 0 -4 -7 3 -17 13 -15 11 -16 -16 -9 -16 4 -33 12 -36 18 -3 5 -26 8
-50 5 -24 -2 -36 -2 -26 0 9 2 17 8 17 13 0 12 -49 18 -53 6 -3 -8 -8 -8 -18
0 -21 16 -51 26 -44 14 10 -17 -7 -11 -20 6 -8 12 -29 17 -72 18 -38 2 -70 9
-86 19 -15 9 -33 17 -42 17 -8 0 -15 5 -15 12 0 6 -3 9 -6 5 -3 -3 -22 2 -41
13 -18 10 -43 15 -55 12 -16 -4 -20 -1 -16 9 4 11 -11 20 -59 34 -36 11 -67
23 -69 27 -3 4 -11 5 -19 2 -8 -4 -12 -10 -9 -15 6 -11 1 -11 -20 -3 -9 3 -14
10 -11 14 3 5 -13 11 -35 15 -23 4 -53 17 -68 29 -15 13 -72 39 -127 60 -55
21 -109 41 -120 46 -61 27 -146 52 -158 47 -9 -3 -14 1 -13 11 0 10 -6 17 -16
17 -10 0 -26 7 -35 15 -10 8 -40 33 -68 55 -48 37 -47 36 17 -30 80 -83 113
-125 181 -225 28 -41 93 -131 146 -199 53 -67 104 -135 113 -150 23 -34 218
-241 228 -241 4 0 59 -29 121 -65 63 -36 120 -63 127 -60 7 3 11 1 8 -4 -8
-12 73 -64 89 -57 10 3 12 0 8 -11 -5 -13 -2 -15 11 -10 10 4 15 3 11 -3 -3
-6 5 -14 18 -19 13 -5 59 -32 102 -59 l78 -50 -39 -25 c-39 -24 -75 -60 -58
-56 21 4 44 -2 42 -10 -4 -12 41 -50 68 -57 12 -3 27 -16 34 -30 8 -13 22 -24
32 -24 10 0 21 -7 24 -15 4 -8 11 -15 18 -15 6 0 30 -17 53 -38 23 -20 56 -48
74 -62 17 -14 39 -32 48 -41 9 -8 31 -22 49 -29 19 -7 38 -24 43 -38 l9 -25
20 23 20 23 19 -21 c10 -13 31 -22 47 -23 19 0 24 -3 14 -7 -8 -4 -16 -16 -17
-27 -1 -11 0 -14 3 -7 9 19 29 15 107 -22 128 -60 266 -116 285 -116 6 0 12
-4 14 -10 2 -5 16 -11 32 -12 15 -1 31 -8 33 -15 3 -7 11 -13 19 -13 8 0 14
-4 14 -10 0 -5 -6 -10 -14 -10 -28 0 -181 54 -192 67 -8 9 -13 10 -16 3 -4
-13 -68 7 -68 22 0 5 -4 7 -9 4 -5 -3 -34 5 -65 19 -31 14 -63 25 -70 25 -8 0
-16 3 -18 8 -1 4 -33 22 -71 40 -37 19 -65 38 -61 43 3 6 -4 7 -20 3 -16 -4
-26 -2 -26 5 0 6 -7 11 -17 11 -41 0 -516 251 -575 304 -10 9 -18 11 -20 4 -2
-5 -10 -2 -18 8 -8 10 -10 15 -3 11 6 -4 14 -3 18 3 13 21 -28 9 -81 -25 -30
-19 -99 -57 -154 -85 -112 -56 -256 -148 -253 -161 2 -4 -4 -6 -12 -3 -8 4
-15 2 -15 -4 0 -5 11 -13 24 -16 24 -6 115 -83 154 -130 24 -30 -24 -18 -58
14 -18 17 -35 30 -39 30 -11 0 -96 84 -93 93 3 9 -38 -1 -51 -12 -4 -4 12 -23
35 -42 51 -42 128 -120 128 -131 0 -4 10 -18 21 -29 37 -37 3 -16 -58 36 -32
27 -82 73 -111 101 l-52 51 -97 -39 c-107 -43 -173 -61 -173 -47 0 5 -8 9 -17
9 -12 1 -9 5 9 13 21 9 25 15 18 27 -8 13 -10 13 -10 -2 0 -29 -50 -27 -82 4
-15 14 -28 30 -28 35 0 4 -14 14 -32 22 -28 13 -30 15 -12 22 18 7 18 8 1 8
-29 1 -89 49 -120 95 -15 23 -35 51 -43 64 -10 13 -12 22 -5 22 6 0 11 -7 11
-15 0 -8 5 -15 10 -15 6 0 32 -20 57 -44 26 -25 51 -42 57 -39 5 4 1 10 -10
14 -10 4 -15 8 -9 8 12 1 -53 61 -66 61 -5 0 -9 6 -9 13 0 21 -104 127 -125
127 -17 0 -17 2 -5 10 19 12 43 13 36 2 -3 -5 7 -15 22 -23 15 -8 33 -20 40
-27 8 -7 18 -10 23 -6 14 8 -33 63 -56 64 -24 1 122 73 185 91 25 7 126 52
225 100 99 48 212 102 250 120 41 18 64 34 55 37 -8 2 -40 28 -70 57 -30 29
-122 97 -205 150 -82 54 -167 109 -188 123 -21 14 -91 76 -154 136 -64 61
-157 143 -207 181 -110 86 -251 241 -354 390 -72 103 -143 195 -227 293 -41
47 -41 48 1 28z m1981 -682 c51 -4 90 -10 88 -15 -3 -4 0 -11 6 -15 8 -4 9 -3
5 4 -10 17 49 15 99 -3 22 -7 39 -19 37 -25 -1 -7 3 -10 10 -8 11 4 80 -26
184 -79 l32 -16 -21 -18 c-12 -9 -26 -15 -31 -12 -5 3 2 12 15 20 13 8 16 12
7 9 -9 -2 -19 2 -22 10 -3 8 -10 14 -16 14 -6 0 -8 -5 -4 -12 4 -7 3 -8 -5 -4
-6 4 -8 12 -5 18 4 6 -2 8 -17 3 -19 -5 -21 -4 -9 5 12 9 9 10 -15 6 -22 -5
-26 -4 -15 4 12 8 11 10 -7 10 -12 0 -23 5 -25 11 -3 9 -10 9 -27 0 -12 -7
-30 -9 -39 -5 -9 4 -30 8 -47 10 -64 6 -132 21 -180 41 -74 31 -144 51 -147
42 -2 -4 -14 -1 -28 7 -24 14 -22 15 30 10 30 -3 96 -8 147 -12z m-1510 -1068
c-4 -10 -1 -13 9 -9 7 3 14 0 14 -6 0 -6 7 -11 16 -11 8 0 13 -3 11 -7 -2 -5
4 -16 15 -25 10 -10 18 -16 18 -13 0 3 15 -10 33 -28 17 -19 70 -74 117 -123
47 -48 89 -87 93 -86 5 1 5 -2 2 -8 -4 -6 4 -21 17 -33 12 -12 37 -40 55 -62
l31 -41 -41 -22 c-23 -12 -56 -26 -73 -31 -30 -8 -32 -7 -100 86 -38 52 -90
121 -115 152 -86 106 -158 206 -168 233 -10 26 -8 28 22 37 46 13 50 13 44 -3z
m-222 -23 c3 -10 6 -20 5 -22 -1 -2 2 -7 7 -10 5 -3 31 -37 56 -76 26 -38 51
-75 57 -82 5 -7 10 -14 10 -17 0 -6 72 -129 80 -136 3 -3 12 -18 20 -35 8 -16
23 -42 34 -57 14 -20 16 -31 9 -40 -6 -7 -13 -24 -15 -38 -2 -19 -18 -33 -68
-60 -91 -49 -121 -69 -155 -105 -16 -18 -52 -47 -80 -66 -123 -83 -169 -134
-194 -212 -13 -39 -38 -61 -82 -72 -26 -6 -32 0 -39 47 -1 4 -11 31 -22 60
-11 29 -26 82 -34 118 -7 36 -20 85 -29 110 -14 38 -30 112 -47 225 -2 11 -7
23 -11 26 -4 3 7 17 25 31 20 15 49 56 72 102 29 59 48 83 80 104 22 14 59 42
80 60 21 19 69 48 105 64 85 39 124 67 117 84 -3 8 -1 14 3 14 5 0 12 -8 16
-17z m2895 -129 c36 -8 79 -19 95 -24 17 -4 51 -7 78 -6 26 0 47 -2 47 -6 0
-4 26 -9 58 -13 92 -10 118 -14 134 -20 8 -3 35 -8 59 -9 24 -2 107 -8 184
-14 224 -18 325 -23 431 -24 159 -2 553 10 563 17 10 5 195 -5 189 -11 -2 -1
-97 -6 -210 -9 -114 -4 -220 -8 -235 -10 -34 -5 -381 -5 -443 -1 -25 1 -110 6
-190 10 -139 7 -253 19 -460 49 -52 8 -105 14 -118 15 -29 1 -126 20 -167 32
-16 5 -50 12 -75 15 -25 2 -63 8 -85 12 -22 4 -43 6 -47 5 -5 -1 -8 3 -8 9 0
14 107 5 200 -17z m2705 6 c18 -8 18 -9 2 -9 -11 -1 -15 -6 -11 -13 4 -6 3 -8
-3 -5 -6 4 -50 0 -99 -8 -286 -46 -382 -56 -484 -51 -69 3 -95 2 -75 -4 20 -6
-2 -7 -65 -3 -52 3 -96 6 -97 7 -2 2 77 8 175 15 309 21 326 23 401 37 40 7
77 11 82 9 4 -3 10 -1 14 5 3 5 23 10 43 11 20 1 48 5 62 9 32 10 31 10 55 0z"/>
<path d="M2470 2430 c-28 -16 -30 -19 -10 -15 16 3 36 -2 55 -15 17 -11 26
-20 20 -20 -5 -1 5 -7 23 -15 17 -8 32 -21 32 -29 0 -13 31 -36 100 -74 14 -7
32 -19 40 -26 13 -11 134 -66 146 -66 2 0 4 5 4 10 0 6 -6 10 -12 10 -7 0 -30
16 -51 35 -21 19 -41 35 -45 35 -4 0 -25 16 -47 35 -22 19 -46 35 -52 35 -7 0
-18 9 -25 20 -7 11 -17 20 -23 20 -5 1 -23 11 -39 24 -16 14 -36 22 -45 19 -9
-4 -13 -3 -9 2 6 6 -14 36 -24 35 -2 -1 -19 -10 -38 -20z"/>
<path d="M1530 4447 c0 -6 188 -169 215 -186 51 -35 312 -241 337 -267 40 -43
58 -95 58 -171 0 -46 5 -76 16 -91 8 -12 55 -42 103 -66 83 -42 134 -56 245
-71 41 -6 58 -15 110 -64 70 -65 53 -61 316 -81 187 -14 187 -14 279 -70 86
-52 202 -104 386 -173 l110 -41 280 -1 c215 0 317 4 440 19 212 25 484 27 620
3 55 -9 138 -24 185 -32 47 -8 139 -24 205 -35 230 -40 366 -71 518 -117 109
-33 169 -46 212 -46 82 0 221 37 318 84 45 21 90 39 101 39 30 0 44 12 52 44
8 32 62 60 149 77 68 14 95 26 95 43 0 8 18 29 40 46 l40 32 0 564 0 564
-2715 0 c-1493 0 -2715 -2 -2715 -3z"/>
<path d="M6765 1114 c-45 -5 -425 -23 -715 -34 -140 -5 -325 -15 -410 -20
-201 -14 -595 -13 -882 1 -263 14 -227 23 -363 -102 -49 -45 -135 -119 -191
-163 -441 -355 -469 -376 -609 -453 -50 -28 -128 -75 -175 -105 -88 -57 -196
-109 -265 -126 -22 -6 -85 -16 -140 -21 -55 -6 -145 -16 -200 -22 -140 -15
-266 -39 -295 -55 -21 -11 322 -13 2208 -14 l2232 0 0 560 0 560 -82 -2 c-46
0 -96 -3 -113 -4z"/>
</g>
</svg>
