<?xml version="1.0" standalone="no"?>
<!DOCTYPE svg PUBLIC "-//W3C//DTD SVG 20010904//EN"
 "http://www.w3.org/TR/2001/REC-SVG-20010904/DTD/svg10.dtd">
<svg version="1.0" xmlns="http://www.w3.org/2000/svg"
 width="256.000000pt" height="197.000000pt" viewBox="0 0 256.000000 197.000000"
 preserveAspectRatio="xMidYMid meet">

<g transform="translate(0.000000,197.000000) scale(0.100000,-0.100000)"
fill="#000000" stroke="none">
<path d="M830 1896 c-47 -7 -110 -18 -140 -25 -79 -17 -180 -88 -104 -73 29 5
44 -10 44 -44 0 -13 -8 -24 -20 -27 -14 -3 -18 -10 -14 -22 5 -11 0 -18 -15
-22 -11 -3 -21 -9 -21 -13 0 -13 -82 -44 -120 -45 -51 -2 -228 -52 -265 -75
l-33 -20 -12 29 c-17 43 -29 102 -19 95 5 -3 9 4 9 16 0 11 11 32 26 46 29 30
64 27 103 -9 26 -25 17 -31 81 60 16 23 44 50 61 58 37 20 79 13 79 -13 0 -21
19 -42 37 -42 7 0 13 7 13 15 0 14 -12 20 -34 16 -5 -1 -6 5 -3 13 4 9 -4 21
-19 31 -46 30 -112 -2 -175 -85 -26 -34 -26 -34 -67 -21 -53 18 -88 8 -112
-32 -27 -43 -25 -101 4 -163 24 -52 54 -86 42 -47 -5 17 2 24 43 42 48 20 140
48 191 58 84 15 129 28 160 43 19 10 51 21 70 24 19 2 51 8 70 11 l35 7 -45
-27 c-127 -75 -194 -150 -266 -292 -42 -85 -58 -128 -65 -180 -11 -86 -10
-104 2 -78 6 14 7 7 3 -25 -3 -30 -2 -40 4 -31 16 23 25 -61 17 -170 -7 -103
6 -199 28 -199 7 0 6 -5 -3 -11 -12 -8 -10 -9 7 -4 22 6 23 4 38 -60 9 -40 25
-48 51 -24 23 22 45 10 26 -14 -5 -7 -6 -21 -1 -32 4 -11 8 -15 8 -8 1 7 12
29 26 49 14 20 22 40 19 45 -8 14 -24 1 -18 -15 3 -7 -2 -13 -11 -13 -19 0
-19 31 0 51 32 32 95 266 95 354 0 28 2 52 5 52 3 0 13 -8 24 -19 10 -10 25
-21 32 -23 11 -4 11 -9 -3 -25 -29 -32 -21 -37 13 -9 17 14 34 26 37 27 4 0
26 1 50 3 l44 2 -7 -33 c-4 -25 1 -48 18 -86 14 -29 28 -69 31 -91 9 -50 24
-73 62 -97 63 -39 81 -129 39 -193 -10 -15 -37 -38 -61 -52 -41 -24 -53 -26
-157 -25 -144 2 -197 18 -238 74 -18 25 -29 34 -29 23 0 -9 9 -27 20 -38 11
-12 16 -24 10 -28 -12 -8 43 -36 98 -50 23 -6 42 -13 42 -15 0 -3 -17 -13 -38
-24 -35 -18 -64 -20 -325 -23 -209 -2 -288 -6 -291 -15 -3 -6 7 -14 22 -18 33
-7 459 2 472 10 6 4 10 2 10 -3 0 -5 13 -7 28 -4 26 3 28 1 29 -33 2 -81 63
-97 140 -37 71 56 77 59 70 33 -4 -16 1 -25 23 -36 33 -17 145 -21 120 -5 -13
8 -12 10 3 10 30 0 65 30 77 66 10 30 9 40 -14 80 -30 54 -30 54 -13 54 8 0
22 10 33 22 71 80 53 189 -41 257 -33 24 -45 40 -54 75 -6 25 -11 50 -11 55 0
7 30 11 78 11 53 0 84 5 99 15 20 14 23 14 33 -2 10 -16 10 -16 5 3 -3 11 1
29 9 39 12 17 16 18 32 5 18 -15 18 -14 1 13 -10 15 -16 35 -15 45 2 13 -4 17
-27 17 -25 0 -30 4 -33 28 -3 21 1 27 17 27 11 0 27 -10 36 -22 17 -23 17 -23
11 12 -3 19 -1 42 4 50 7 11 10 6 10 -20 0 -19 4 -41 9 -48 5 -8 6 6 4 35 -4
44 -2 50 28 78 l32 30 -26 -39 c-14 -22 -23 -44 -20 -49 10 -17 21 -87 12 -82
-4 3 -11 0 -15 -6 -4 -7 -3 -9 3 -6 6 4 16 1 22 -7 8 -9 8 -15 1 -18 -5 -1 0
-14 13 -28 38 -43 98 -91 107 -85 4 3 10 -2 14 -10 7 -19 36 -20 36 -1 0 17
57 27 88 15 13 -5 35 -9 50 -10 24 0 23 -2 -15 -19 -32 -14 -43 -25 -43 -41 0
-12 3 -19 7 -16 3 4 14 0 24 -9 14 -13 32 -15 76 -12 32 3 66 9 77 13 16 7 18
5 11 -26 -9 -37 -9 -99 0 -107 11 -12 18 11 27 95 5 48 13 96 18 105 12 22 13
31 1 23 -21 -12 -3 84 21 117 37 48 33 65 -16 71 -55 8 -84 -9 -33 -18 20 -4
40 -11 43 -16 3 -5 -8 -25 -25 -45 -17 -19 -31 -44 -31 -55 0 -16 -3 -18 -19
-10 -10 6 -51 12 -90 13 -39 2 -71 7 -71 12 0 5 -7 18 -16 28 -15 15 -15 23
-4 63 16 58 1 117 -36 142 -24 15 -27 15 -55 -6 -17 -13 -31 -21 -32 -19 -1 2
-14 17 -30 34 l-27 30 40 -3 c35 -3 45 2 80 37 28 28 40 48 40 69 0 39 -26 64
-61 59 -16 -3 -27 0 -26 6 1 6 -7 11 -18 11 -11 0 -25 3 -32 8 -6 4 -13 2 -15
-5 -3 -9 -8 -8 -20 2 -17 16 -10 35 29 76 35 36 39 71 12 100 -26 27 -55 31
-86 9 -19 -14 -22 -13 -33 15 -17 40 -24 44 -59 25 -56 -29 -67 -133 -16 -160
56 -29 58 -31 46 -54 -15 -28 -32 -27 -61 4 -14 15 -21 31 -17 45 5 21 -7 28
-18 9 -11 -17 4 -56 33 -86 l28 -28 -7 -100 c-5 -61 -4 -101 2 -103 12 -5 12
-42 -1 -42 -5 0 -10 5 -10 10 0 14 -34 -19 -49 -47 -10 -19 -20 -23 -59 -23
-26 0 -67 -9 -91 -21 -35 -15 -46 -17 -53 -7 -4 7 -8 16 -8 19 0 5 42 37 121
94 15 11 39 38 53 59 14 22 26 36 26 31 0 -21 20 21 20 42 0 20 -3 21 -26 13
-47 -18 -52 -14 -47 40 3 32 1 50 -6 50 -6 0 -11 7 -11 15 0 20 -46 111 -60
120 -6 4 -8 11 -5 16 4 5 2 9 -4 9 -5 0 -12 8 -15 18 -4 10 -19 32 -34 49
l-27 30 -78 -12 c-87 -14 -106 -27 -163 -112 -37 -56 -67 -85 -39 -37 l17 29
-21 -24 c-12 -13 -21 -32 -21 -43 0 -12 -4 -17 -12 -12 -8 5 -9 2 -5 -11 5
-11 1 -22 -10 -30 -13 -10 -18 -27 -17 -64 0 -27 -3 -48 -8 -45 -4 3 -11 -3
-14 -13 -3 -10 -10 -27 -16 -37 -18 -34 -48 -129 -47 -150 0 -12 7 -1 14 24 7
25 20 63 29 85 l16 40 -5 -47 c-3 -28 -1 -48 5 -48 6 0 10 -11 10 -25 0 -14
-5 -25 -11 -25 -5 0 -7 -4 -4 -10 17 -28 26 -4 25 63 -1 39 1 80 5 89 4 9 4
21 1 26 -3 6 1 15 9 22 8 7 15 19 15 26 0 8 4 22 9 32 5 9 23 46 39 82 17 36
49 83 71 104 22 22 38 43 35 48 -3 5 3 12 15 15 12 3 21 9 21 13 0 13 53 18
100 10 25 -4 36 -8 25 -9 -30 -2 -136 -54 -173 -86 -44 -37 -83 -125 -89 -203
-5 -55 -4 -62 11 -56 12 5 16 19 16 58 1 73 49 161 110 198 55 34 153 57 177
42 49 -31 114 -253 81 -276 -21 -15 -168 -1 -230 20 -72 26 -77 16 -35 -69 39
-76 71 -102 140 -109 l52 -6 -52 -27 c-64 -33 -109 -34 -154 -4 -35 24 -88
108 -89 141 0 25 -5 18 -14 -17 -4 -16 -3 -26 2 -23 5 3 14 -6 20 -19 9 -19 9
-25 -1 -25 -7 -1 -5 -6 5 -13 11 -9 14 -18 8 -27 -5 -8 -9 -44 -8 -80 0 -36
-7 -90 -16 -120 -8 -30 -22 -80 -31 -110 -19 -73 -53 -129 -66 -109 -6 10 -9
7 -9 -13 0 -15 -5 -30 -11 -34 -17 -10 -30 17 -26 52 3 31 -6 45 -34 56 -28
11 -41 84 -30 163 11 77 4 263 -11 282 -5 7 -6 18 -2 24 4 8 3 9 -4 5 -8 -5
-10 -2 -6 8 3 9 10 14 14 11 11 -7 20 22 13 42 -4 9 -2 14 3 10 13 -7 89 147
80 162 -4 6 -1 9 7 6 7 -3 21 3 32 14 14 17 15 24 6 35 -10 12 -8 17 9 26 11
6 18 16 14 21 -4 8 0 8 14 0 16 -9 19 -7 18 7 0 9 6 17 15 17 8 0 33 15 54 33
22 17 44 32 48 32 5 0 7 6 4 14 -11 28 80 48 113 26 11 -8 8 -9 -12 -4 -15 3
-34 2 -43 -3 -13 -8 -8 -10 20 -11 20 -1 40 -4 45 -7 4 -3 10 0 12 7 6 17 58
-17 58 -37 0 -9 6 -12 16 -8 14 5 13 9 -7 24 -13 10 -18 19 -11 19 7 0 27 -20
44 -45 30 -42 48 -50 48 -19 0 8 -5 14 -10 14 -6 0 -15 11 -20 24 -16 44 -73
77 -141 83 -50 5 -58 8 -43 17 13 6 154 10 406 11 238 0 377 3 360 9 -15 5
-107 9 -204 10 -114 1 -177 5 -175 11 10 28 303 36 410 11 38 -9 79 -16 93
-16 14 0 23 -4 20 -8 -2 -4 10 -6 27 -4 29 3 223 -38 247 -53 5 -3 10 -10 10
-15 0 -5 -26 0 -57 10 -84 27 -288 54 -310 41 -15 -8 -10 -10 22 -11 22 0 91
-9 154 -21 l115 -22 -55 -28 c-30 -15 -58 -28 -62 -29 -4 0 -5 17 -2 38 l7 37
-22 -35 c-12 -19 -24 -37 -26 -39 -2 -3 -13 5 -24 17 -12 12 -25 22 -30 22
-18 0 -21 -22 -5 -40 16 -18 15 -20 -23 -39 -50 -25 -148 -114 -152 -138 -1
-10 -3 -59 -4 -109 -1 -88 -2 -90 -23 -86 -13 2 -23 2 -23 0 0 -3 19 -25 43
-50 23 -24 53 -59 66 -76 13 -18 28 -32 34 -32 6 0 3 6 -8 13 -21 16 -12 39
13 30 14 -5 15 -3 5 8 -7 7 -13 17 -13 21 0 12 48 10 55 -2 3 -5 13 -10 21
-10 8 0 13 4 10 9 -3 5 11 11 32 14 20 2 63 16 95 30 47 21 61 33 73 63 8 20
13 38 11 40 -2 2 -22 -12 -44 -30 -53 -46 -159 -81 -221 -72 -25 3 -50 10 -54
14 -4 4 -15 38 -24 74 -19 75 -13 126 15 152 17 16 19 15 25 -15 3 -18 1 -38
-5 -45 -9 -11 -7 -14 7 -14 11 0 36 -3 57 -6 32 -6 36 -4 31 10 -3 9 -2 16 4
16 16 0 0 50 -21 65 -12 8 -32 15 -46 15 -23 0 -23 1 -7 19 9 10 45 31 78 46
54 24 69 27 127 21 45 -4 75 -13 98 -29 32 -23 83 -89 83 -107 0 -6 4 -10 10
-10 32 0 -61 135 -116 169 -24 14 -44 28 -43 31 0 3 16 18 35 33 31 26 37 28
66 18 18 -7 50 -24 71 -38 30 -21 50 -27 89 -26 31 0 54 6 59 14 6 10 40 14
116 17 129 4 153 12 195 64 34 44 49 121 29 154 -8 15 -10 6 -8 -41 4 -114
-44 -148 -221 -159 -63 -4 -125 -12 -139 -17 -19 -7 -32 -6 -49 6 -13 8 -27
15 -31 15 -4 0 -1 -4 7 -10 8 -5 12 -11 9 -15 -7 -6 -59 33 -59 45 0 5 10 10
23 12 22 4 21 4 -5 17 -18 9 -24 19 -20 30 12 32 43 55 83 60 36 5 42 10 54
43 7 21 10 40 6 43 -3 4 -1 5 4 4 6 -2 24 5 42 14 43 23 58 21 81 -8 19 -24
20 -25 67 -9 30 11 65 15 98 11 45 -4 48 -3 32 9 -22 16 -112 18 -150 4 -21
-8 -31 -6 -55 11 -33 25 -58 22 -111 -14 -20 -13 -39 -37 -45 -57 -11 -32 -14
-34 -47 -32 -20 2 -44 -1 -55 -7 -15 -8 -25 -6 -44 9 -44 34 -131 60 -238 71
-58 6 -112 13 -120 16 -8 3 -40 7 -70 8 -30 2 -68 9 -85 15 -45 18 -509 22
-615 6z m600 -75 c145 -9 342 -51 410 -88 26 -14 34 -21 20 -18 -116 28 -273
57 -360 65 -161 15 -720 -11 -807 -38 -26 -8 -33 -7 -38 6 -3 8 -2 19 2 23 9
9 84 29 128 35 17 2 53 7 80 12 61 12 393 13 565 3z m-1129 -74 c-10 -9 -11
-8 -5 6 3 10 9 15 12 12 3 -3 0 -11 -7 -18z m479 -26 c0 -4 -26 -11 -58 -14
-32 -4 -67 -9 -78 -13 -11 -4 -16 -3 -11 2 8 9 92 30 130 33 9 0 17 -3 17 -8z
m63 2 c-7 -2 -19 -2 -25 0 -7 3 -2 5 12 5 14 0 19 -2 13 -5z m1113 -30 c-3 -3
-13 -2 -23 2 -17 7 -17 8 2 15 19 7 34 -5 21 -17z m-766 -149 c0 -6 -6 -17
-14 -23 -8 -7 -18 -27 -22 -44 l-7 -32 -13 35 c-17 48 -17 72 2 99 l17 24 18
-24 c10 -13 19 -29 19 -35z m-580 32 c0 -2 -8 -10 -17 -17 -16 -13 -17 -12 -4
4 13 16 21 21 21 13z m693 -37 c14 -23 0 -70 -23 -76 -11 -3 -20 -13 -20 -23
0 -28 -27 -45 -53 -32 -18 9 -19 11 -4 11 27 1 53 64 39 95 -19 42 36 65 61
25z m-643 -24 c-7 -8 -17 -15 -22 -15 -6 0 -5 7 2 15 7 8 17 15 22 15 6 0 5
-7 -2 -15z m-140 -64 c0 -5 -7 -14 -15 -21 -16 -14 -18 -10 -9 14 6 17 24 22
24 7z m700 -81 c0 -5 -7 -10 -16 -10 -8 0 -12 5 -9 10 3 6 10 10 16 10 5 0 9
-4 9 -10z m-46 -35 c-9 -36 3 -76 21 -69 9 4 28 -8 47 -28 l33 -33 -27 -3
c-15 -2 -37 -15 -48 -29 -11 -14 -20 -22 -20 -18 0 4 14 25 31 46 17 21 27 39
22 39 -4 0 -14 -9 -21 -20 -17 -28 -32 -25 -33 8 -1 22 -3 19 -15 -18 -30 -98
-34 -94 -24 27 3 51 12 99 19 107 19 22 22 20 15 -9z m231 -21 c0 -25 -28 -55
-39 -43 -9 8 17 69 29 69 6 0 11 -12 10 -26z m-142 -9 c-5 -16 -33 -21 -33 -7
0 13 22 32 31 26 5 -2 6 -11 2 -19z m-447 -104 c16 -5 51 -12 78 -16 35 -5 45
-9 35 -16 -8 -5 -10 -9 -5 -9 11 0 -14 -30 -26 -30 -5 0 -7 4 -4 8 3 5 -9 9
-26 10 -24 1 -28 -2 -18 -8 12 -8 11 -10 -5 -10 -11 0 -35 18 -53 40 -35 42
-30 48 24 31z m-66 -26 c0 -7 5 -15 11 -17 6 -2 10 -13 7 -23 -3 -16 -8 -11
-24 22 -14 28 -16 39 -7 36 7 -3 13 -11 13 -18z m812 -54 c8 11 9 11 6 1 -4
-16 -22 -18 -24 -2 -2 7 -1 6 3 -1 4 -8 8 -7 15 2z m-514 -113 c-5 -15 -165
-81 -178 -73 -18 11 3 36 47 59 51 26 138 35 131 14z m42 -9 c0 -6 9 -9 20 -6
13 3 20 0 20 -9 0 -8 -9 -14 -20 -14 -12 0 -20 -7 -20 -16 0 -14 3 -14 15 -4
12 10 15 10 15 -3 0 -11 -15 -15 -72 -16 -40 -1 -88 -4 -105 -7 -54 -10 -38 2
41 30 41 15 77 34 80 42 6 17 26 19 26 3z m324 -53 c-3 -8 -12 -17 -20 -20
-18 -7 -18 -1 2 18 19 20 25 20 18 2z m56 -11 c6 -8 9 -23 5 -35 -6 -17 -14
-20 -51 -19 -24 2 -42 5 -40 7 3 2 6 2 9 0 8 -5 47 34 47 49 0 17 14 17 30 -2z
m-383 -29 c3 -3 -7 -10 -22 -16 -30 -11 -175 -11 -175 1 0 21 177 35 197 15z
m561 -31 c3 -3 1 -10 -5 -16 -14 -14 -146 9 -137 23 7 11 131 4 142 -7z m22
-56 c0 -6 -6 -9 -12 -6 -7 2 -41 -4 -76 -14 -69 -20 -101 -17 -78 6 21 21 166
34 166 14z m-32 -26 c-10 -2 -18 -9 -18 -14 0 -5 -15 -9 -32 -8 l-33 1 30 13
c17 8 39 14 50 13 17 0 17 -1 3 -5z m-902 -440 c-10 -10 -19 5 -10 18 6 11 8
11 12 0 2 -7 1 -15 -2 -18z m107 1 c27 -37 15 -39 -16 -4 -15 16 -21 30 -15
30 7 0 21 -12 31 -26z m-153 -4 c-8 -5 -19 -10 -25 -10 -5 0 -3 5 5 10 8 5 20
10 25 10 6 0 3 -5 -5 -10z m293 -18 c-14 -37 -28 -49 -48 -41 -11 4 -14 8 -7
8 19 1 42 27 42 46 0 9 4 14 10 10 5 -3 6 -13 3 -23z m-323 -11 c0 -5 -8 -12
-17 -15 -15 -6 -15 -8 -3 -16 13 -8 12 -10 -2 -10 -21 0 -24 20 -6 38 14 14
28 16 28 3z m80 -9 c0 -8 -53 -42 -66 -42 -4 0 8 11 27 24 40 29 39 28 39 18z
m105 -22 c3 -5 1 -10 -4 -10 -6 0 -11 5 -11 10 0 6 2 10 4 10 3 0 8 -4 11 -10z"/>
<path d="M1738 1402 c-16 -9 -28 -19 -28 -22 1 -11 72 -38 90 -33 22 6 27 28
8 37 -7 4 -2 4 12 2 l25 -5 -24 20 c-28 23 -48 24 -83 1z m47 -42 c3 -5 2 -10
-4 -10 -5 0 -13 5 -16 10 -3 6 -2 10 4 10 5 0 13 -4 16 -10z"/>
<path d="M743 1403 c-21 -8 -16 -61 7 -73 11 -6 21 -9 21 -8 5 11 7 56 3 71
-5 18 -10 19 -31 10z"/>
<path d="M883 1374 c-7 -19 20 -49 36 -40 16 11 13 43 -5 50 -22 8 -24 8 -31
-10z"/>
<path d="M1982 1342 c-8 -6 -12 -29 -10 -68 2 -68 -12 -101 -50 -115 -20 -8
-23 -12 -13 -19 8 -4 11 -15 8 -23 -8 -22 -95 -79 -123 -81 -26 -1 -28 -4 -15
-25 6 -9 11 -10 15 -2 14 23 32 9 68 -52 71 -119 81 -152 74 -236 -4 -42 -6
-88 -6 -103 1 -59 -162 -136 -233 -109 -21 8 -27 17 -28 43 l-1 33 -8 -28 c-5
-16 -7 -34 -5 -40 3 -7 -10 -19 -28 -27 -27 -13 -34 -23 -44 -70 -6 -30 -12
-57 -13 -60 -7 -15 4 -48 22 -67 24 -26 99 -40 131 -25 18 9 16 9 -15 5 -44
-7 -103 18 -110 45 -3 10 -1 46 5 81 7 46 15 65 31 73 12 6 23 14 26 18 3 5
32 5 65 1 60 -6 60 -6 63 -41 2 -32 -12 -102 -33 -155 -6 -15 -3 -14 11 5 10
13 21 43 25 65 l6 40 2 -37 c1 -41 34 -88 60 -87 11 0 9 3 -6 9 -26 11 -31 26
-35 118 l-3 74 48 18 c26 10 50 19 52 19 3 1 5 4 6 9 0 4 7 15 16 24 17 19 37
155 30 208 -6 47 -59 170 -98 227 -31 44 -32 47 -14 57 35 20 134 122 142 147
4 13 6 54 3 91 -4 51 -8 65 -18 60z"/>
<path d="M2293 1290 c-29 -12 -29 -26 -2 -40 18 -10 20 -17 14 -53 -12 -69
-20 -76 -44 -36 -12 19 -24 46 -28 61 -7 37 -26 50 -57 42 -32 -8 -32 -14 -3
-42 27 -25 46 -30 27 -7 -11 13 -10 14 1 10 16 -7 83 -134 75 -142 -6 -6 -86
58 -86 70 0 11 -30 8 -30 -3 0 -5 -6 -10 -12 -10 -7 0 -26 -10 -42 -23 -25
-20 -27 -26 -17 -45 6 -12 27 -33 46 -48 42 -31 43 -41 10 -102 -26 -49 -32
-78 -15 -67 6 4 20 24 31 47 11 22 23 37 26 34 3 -3 0 -13 -8 -22 -11 -14 -10
-16 11 -12 14 1 25 8 25 13 0 6 4 15 8 21 4 7 0 14 -8 18 -8 3 -15 13 -15 22
0 9 -24 38 -52 65 -51 47 -52 50 -34 64 25 19 32 19 40 -1 4 -10 2 -13 -6 -8
-7 4 -8 3 -4 -4 4 -7 18 -12 32 -12 14 0 22 4 19 10 -3 6 0 10 7 10 9 0 9 3
-2 10 -13 9 -13 10 1 10 8 0 26 -11 39 -25 21 -22 22 -27 11 -70 -14 -54 -3
-107 35 -172 34 -59 31 -81 -11 -99 -52 -21 -81 -17 -120 17 -39 34 -50 19
-16 -22 15 -19 30 -24 72 -25 56 -2 85 8 106 35 11 14 12 14 13 1 1 -16 47
-56 76 -66 11 -3 5 3 -12 14 -34 22 -49 40 -41 49 3 3 18 -7 34 -21 15 -14 32
-26 38 -27 24 -3 61 3 69 11 5 5 0 7 -11 4 -24 -7 -71 15 -108 50 -25 23 -26
28 -16 59 7 19 9 52 5 74 -5 35 -3 40 20 51 20 9 26 19 26 42 0 18 -4 29 -10
25 -5 -3 -10 -1 -10 6 0 7 -9 9 -27 5 -16 -4 -33 -7 -40 -8 -14 -2 -8 -42 14
-104 16 -46 14 -95 -4 -101 -16 -5 -61 84 -69 136 -7 44 4 121 14 104 4 -5 17
-15 30 -22 21 -11 22 -10 22 22 0 40 56 107 89 107 18 0 19 -3 11 -26 -9 -23
-8 -25 6 -20 15 6 16 1 10 -41 -5 -41 -1 -57 39 -144 25 -53 50 -116 54 -140
7 -34 9 -38 10 -15 2 42 -19 104 -54 161 -26 44 -30 60 -31 125 0 84 -7 106
-34 115 -21 7 -69 -15 -89 -39 -22 -26 -34 -19 -28 17 14 79 20 97 33 97 19 0
18 10 -3 26 -21 16 -21 16 -50 4z"/>
<path d="M517 1223 c-3 -5 1 -39 9 -78 7 -38 11 -92 8 -120 -2 -27 -6 -103 -8
-169 -3 -101 -2 -116 10 -104 11 11 15 55 15 204 1 104 -2 206 -6 227 -7 37
-19 54 -28 40z"/>
<path d="M2389 1146 c-1 -3 -2 -10 -3 -15 0 -5 -4 -13 -8 -17 -13 -12 -9 -34
7 -40 8 -3 22 1 30 10 9 9 12 16 6 16 -6 0 -11 9 -11 19 0 18 -18 40 -21 27z"/>
<path d="M252 1097 c-18 -8 -22 -16 -17 -31 8 -24 7 -93 -1 -119 -8 -25 -24
-17 -51 26 -23 36 -23 37 -3 37 25 0 25 12 0 35 -25 22 -70 13 -70 -15 0 -10
5 -22 10 -25 6 -3 10 -1 10 5 0 21 19 -1 44 -50 23 -46 24 -50 7 -50 -33 0
-54 -35 -47 -76 7 -33 4 -39 -32 -72 -49 -46 -62 -71 -62 -116 0 -62 67 -101
101 -60 11 14 9 15 -24 9 -33 -7 -37 -5 -43 20 -11 43 3 98 28 115 52 34 68
58 66 99 -1 23 -5 41 -10 41 -5 0 -3 7 6 15 20 20 28 19 22 -2 -2 -10 -8 -76
-11 -147 -5 -93 -4 -127 4 -122 6 4 11 0 11 -11 0 -15 2 -16 11 -3 8 11 9 6 5
-20 -5 -25 -3 -31 5 -23 6 6 13 41 15 77 2 36 11 84 20 106 16 39 16 80 0 171
-5 30 14 120 30 140 32 41 19 65 -24 46z"/>
<path d="M1621 1077 c2 -1 13 -9 24 -17 19 -14 19 -14 6 3 -7 9 -18 17 -24 17
-6 0 -8 -1 -6 -3z"/>
<path d="M473 975 c0 -22 2 -30 4 -17 2 12 2 30 0 40 -3 9 -5 -1 -4 -23z"/>
<path d="M452 970 c0 -14 2 -19 5 -12 2 6 2 18 0 25 -3 6 -5 1 -5 -13z"/>
<path d="M275 918 c12 -18 14 -36 9 -81 -6 -51 -3 -66 25 -130 49 -109 49
-110 56 -144 4 -18 11 -33 16 -33 6 0 6 7 1 18 -5 9 -12 32 -16 51 -3 18 -22
69 -42 113 -34 76 -35 81 -24 129 10 42 10 53 -4 74 -9 14 -21 25 -27 25 -5 0
-3 -10 6 -22z"/>
<path d="M651 918 c-5 -13 -8 -61 -8 -107 0 -71 -3 -86 -20 -100 -26 -21 -56
-71 -43 -71 5 0 10 5 10 11 0 5 6 7 13 3 6 -4 9 -4 5 1 -4 4 0 14 10 22 9 8
11 12 5 8 -21 -10 -15 5 9 24 18 16 22 31 27 124 3 59 5 107 3 107 -1 0 -6
-10 -11 -22z"/>
<path d="M2412 913 c2 -10 10 -18 18 -18 8 0 16 8 18 18 2 12 -3 17 -18 17
-15 0 -20 -5 -18 -17z"/>
<path d="M2181 876 c-8 -10 -9 -16 -1 -21 13 -8 30 3 30 21 0 18 -14 18 -29 0z"/>
<path d="M1116 783 c-3 -43 -9 -88 -12 -100 -4 -13 -2 -23 4 -23 13 0 19 28
28 123 4 49 3 77 -3 77 -6 0 -13 -35 -17 -77z"/>
<path d="M1780 838 c0 -18 5 -28 15 -28 19 0 19 11 0 36 -14 18 -14 18 -15 -8z"/>
<path d="M2374 818 c3 -13 6 -27 6 -32 0 -4 9 -6 20 -3 11 3 18 1 14 -4 -3 -5
2 -9 11 -9 12 0 15 5 9 22 -14 44 -72 68 -60 26z"/>
<path d="M443 798 l-7 -33 -6 30 -7 30 -8 -40 c-5 -27 -4 -40 4 -43 6 -2 11
-11 12 -20 0 -11 2 -13 6 -4 4 10 8 10 20 0 14 -11 15 -10 8 12 -5 14 -7 42
-6 63 2 46 -7 49 -16 5z"/>
<path d="M2200 810 c-13 -9 -13 -11 -1 -19 18 -11 55 5 46 20 -8 12 -26 11
-45 -1z"/>
<path d="M2450 800 c0 -13 18 -22 24 -11 3 5 -1 11 -9 15 -8 3 -15 1 -15 -4z"/>
<path d="M1390 791 c0 -9 30 -24 36 -18 2 1 -6 8 -16 15 -11 7 -20 8 -20 3z"/>
<path d="M257 706 c-4 -10 -7 -25 -6 -34 0 -11 4 -9 10 7 5 13 8 29 6 35 -2 5
-6 2 -10 -8z"/>
<path d="M2455 690 l-30 -8 33 -1 c17 0 32 4 32 9 0 6 -1 9 -2 9 -2 -1 -16 -5
-33 -9z"/>
<path d="M1662 611 c2 -7 7 -12 11 -12 12 1 9 15 -3 20 -7 2 -11 -2 -8 -8z"/>
<path d="M330 474 c-24 -9 -29 -13 -14 -13 11 -1 29 6 40 14 22 17 20 17 -26
-1z"/>
<path d="M1095 395 c-5 -2 -22 -6 -37 -9 -51 -12 -30 -27 35 -26 34 1 118 -2
187 -5 101 -6 123 -5 113 6 -7 7 -52 15 -105 19 -51 4 -113 10 -138 13 -25 4
-49 5 -55 2z"/>
<path d="M2098 393 c-10 -2 -18 -9 -18 -15 0 -6 8 -7 18 -3 31 12 114 18 120
9 4 -5 28 -15 55 -22 51 -13 88 -15 47 -2 -14 4 23 7 89 5 63 -2 108 1 100 5
-40 21 -351 39 -411 23z"/>
<path d="M1490 366 c0 -9 40 -13 46 -5 3 5 -6 9 -20 9 -14 0 -26 -2 -26 -4z"/>
<path d="M2552 340 c0 -14 2 -19 5 -12 2 6 2 18 0 25 -3 6 -5 1 -5 -13z"/>
<path d="M0 85 l0 -85 1280 0 1280 0 0 85 0 85 -1280 0 -1280 0 0 -85z m194
23 c10 -65 8 -68 -51 -68 l-53 0 0 50 0 50 50 0 c48 0 49 -1 54 -32z m103 -30
c-2 -13 -4 -3 -4 22 0 25 2 35 4 23 2 -13 2 -33 0 -45z m431 29 c14 5 14 3 -3
-18 -11 -13 -21 -26 -22 -28 -2 -2 -2 16 -2 40 1 24 4 34 6 22 3 -16 9 -20 21
-16z m141 -27 c-2 -23 -2 -23 -6 -2 -5 27 -23 30 -23 3 0 -13 -7 -18 -26 -18
-15 0 -30 -7 -35 -14 -6 -10 -9 -2 -9 22 0 45 22 58 46 26 l16 -22 -6 26 c-3
14 -3 29 0 32 12 11 44 -28 43 -53z m-283 9 c0 -16 -3 -29 -8 -29 -4 0 -8 17
-8 37 0 42 15 35 16 -8z m-308 -2 c3 -23 0 -27 -22 -27 -29 0 -37 29 -8 31 15
1 14 2 -2 6 -15 4 -16 7 -5 14 21 13 34 5 37 -24z m70 21 c22 -22 14 -48 -13
-48 -29 0 -36 29 -7 31 16 1 16 2 -1 6 -9 2 -15 9 -12 14 8 12 19 11 33 -3z
m89 -24 c1 -20 0 -22 -4 -6 -2 12 -9 22 -14 22 -5 0 -10 -10 -10 -22 l-2 -23
-4 23 c-2 12 -9 22 -14 22 -5 0 -9 -10 -10 -22 -1 -22 -1 -22 -8 2 -8 27 5 38
43 35 16 -1 21 -9 23 -31z m43 14 c0 6 4 12 10 12 11 0 -14 -63 -27 -67 -4 -2
-9 15 -10 38 -1 36 0 38 13 22 8 -11 13 -13 14 -5z m69 1 c-10 -6 -11 -9 -1
-9 6 0 12 -7 12 -15 0 -9 -9 -15 -22 -14 -19 1 -19 2 -5 6 18 5 18 5 0 19 -15
12 -16 15 -3 23 8 5 18 7 23 4 5 -3 3 -9 -4 -14z m86 11 c4 -7 12 -7 25 0 24
13 30 13 30 0 0 -5 -7 -10 -15 -10 -20 0 -19 -17 1 -28 11 -6 2 -9 -30 -9 -41
-1 -46 1 -46 21 0 33 21 49 35 26z m283 -2 c9 -9 12 -9 12 0 0 25 20 11 21
-15 1 -23 3 -24 6 -6 5 27 28 36 43 18 25 -30 4 -45 -60 -44 -55 1 -60 3 -60
23 0 35 16 46 38 24z m1452 2 c0 -5 -4 -10 -10 -10 -5 0 -10 5 -10 10 0 6 5
10 10 10 6 0 10 -4 10 -10z m80 0 c0 -5 -7 -10 -16 -10 -8 0 -12 5 -9 10 3 6
10 10 16 10 5 0 9 -4 9 -10z m-1715 -40 c3 -5 1 -10 -4 -10 -6 0 -11 5 -11 10
0 6 2 10 4 10 3 0 8 -4 11 -10z m1533 -17 c-10 -2 -28 -2 -40 0 -13 2 -5 4 17
4 22 1 32 -1 23 -4z"/>
<path d="M120 78 c0 -12 7 -18 23 -17 15 0 17 2 7 6 -8 3 -18 11 -22 17 -5 7
-8 4 -8 -6z"/>
<path d="M780 85 c0 -9 5 -15 11 -13 6 2 11 8 11 13 0 5 -5 11 -11 13 -6 2
-11 -4 -11 -13z"/>
<path d="M248 73 c7 -3 16 -2 19 1 4 3 -2 6 -13 5 -11 0 -14 -3 -6 -6z"/>
<path d="M610 85 c0 -8 5 -15 10 -15 6 0 10 7 10 15 0 8 -4 15 -10 15 -5 0
-10 -7 -10 -15z"/>
<path d="M890 85 c0 -8 5 -15 10 -15 6 0 10 7 10 15 0 8 -4 15 -10 15 -5 0
-10 -7 -10 -15z"/>
<path d="M970 85 c0 -9 5 -15 11 -13 6 2 11 8 11 13 0 5 -5 11 -11 13 -6 2
-11 -4 -11 -13z"/>
</g>
</svg>
