<?xml version="1.0"?>
<svg xmlns="http://www.w3.org/2000/svg" id="Layer_1" data-name="Layer 1" viewBox="0 0 512 512" width="512" height="512"><title>Centralized Management</title><path d="M40.4,282.4A26.437,26.437,0,0,0,66.1,262H196V250H66.1a26.393,26.393,0,1,0-25.7,32.4Zm0-40.792A14.4,14.4,0,1,1,26,256,14.412,14.412,0,0,1,40.4,241.6Z" style="fill:#0635c9"/><path d="M471.6,229.6a26.437,26.437,0,0,0-25.7,20.4H316v12h129.9a26.393,26.393,0,1,0,25.7-32.4Zm0,40.792A14.4,14.4,0,1,1,486,256,14.412,14.412,0,0,1,471.6,270.4Z" style="fill:#0635c9"/><path d="M262,196V66.1a26.4,26.4,0,1,0-12,0V196ZM241.6,40.4A14.4,14.4,0,1,1,256,54.791,14.412,14.412,0,0,1,241.6,40.4Z" style="fill:#0635c9"/><path d="M256,498a26.393,26.393,0,0,0,6-52.1V316H250v129.9a26.393,26.393,0,0,0,6,52.1Zm0-40.791A14.4,14.4,0,1,1,241.6,471.6,14.412,14.412,0,0,1,256,457.209Z" style="fill:#0635c9"/><path d="M386.041,117.475,293.9,209.618l8.485,8.486,92.145-92.145a26.4,26.4,0,1,0-8.485-8.484Zm12.234-24.11a14.4,14.4,0,1,1,0,20.359A14.357,14.357,0,0,1,398.275,93.365Z" style="fill:#0635c9"/><path d="M209.619,293.9l-92.145,92.145a26.4,26.4,0,1,0,8.485,8.484L218.1,302.382ZM113.725,418.635a14.389,14.389,0,1,1,0-20.359A14.413,14.413,0,0,1,113.725,418.635Z" style="fill:#0635c9"/><path d="M394.526,386.041,302.381,293.9l-8.485,8.486,92.145,92.143a26.437,26.437,0,0,0,3.749,32.6h0a26.4,26.4,0,1,0,4.735-41.079Zm24.109,32.594a14.415,14.415,0,0,1-20.36,0h0a14.4,14.4,0,1,1,20.359,0Z" style="fill:#0635c9"/><path d="M103.545,129.927a26.39,26.39,0,0,0,13.929-3.968L209.619,218.1l8.485-8.486-92.145-92.143A26.437,26.437,0,0,0,122.21,84.88h0a26.4,26.4,0,1,0-18.664,45.047ZM93.365,93.365a14.4,14.4,0,1,1,0,20.359A14.354,14.354,0,0,1,93.365,93.365Z" style="fill:#0635c9"/><path d="M201.568,260.243a6,6,0,0,0,0-8.486l-19.531-19.531a6,6,0,0,0-8.484,8.485L188.841,256l-15.288,15.289a6,6,0,1,0,8.484,8.485Z" style="fill:#1ae5be"/><path d="M310.432,251.757a6,6,0,0,0,0,8.486l19.531,19.531a6,6,0,1,0,8.484-8.485L323.159,256l15.288-15.289a6,6,0,1,0-8.484-8.485Z" style="fill:#1ae5be"/><path d="M271.289,173.552,256,188.841l-15.289-15.289a6,6,0,0,0-8.484,8.486l19.531,19.531a6,6,0,0,0,8.484,0l19.531-19.531a6,6,0,0,0-8.484-8.486Z" style="fill:#1ae5be"/><path d="M240.711,338.448,256,323.159l15.289,15.289a6,6,0,0,0,8.484-8.486l-19.531-19.531a6,6,0,0,0-8.484,0l-19.531,19.531a6,6,0,1,0,8.484,8.486Z" style="fill:#1ae5be"/><path d="M297.488,221H325.11a6,6,0,0,0,0-12H303V186.89a6,6,0,0,0-12,0v27.621A6.868,6.868,0,0,0,297.488,221Z" style="fill:#1ae5be"/><path d="M214.512,291H186.89a6,6,0,0,0,0,12H209v22.11a6,6,0,0,0,12,0V297.489A6.868,6.868,0,0,0,214.512,291Z" style="fill:#1ae5be"/><path d="M297,331.11a6,6,0,0,0,6-6V303h22.11a6,6,0,0,0,0-12H297.488A6.868,6.868,0,0,0,291,297.489V325.11A6,6,0,0,0,297,331.11Z" style="fill:#1ae5be"/><path d="M215,180.89a6,6,0,0,0-6,6V209H186.89a6,6,0,0,0,0,12h27.622A6.868,6.868,0,0,0,221,214.511V186.89A6,6,0,0,0,215,180.89Z" style="fill:#1ae5be"/></svg>
