<?xml version="1.0" standalone="no"?>
<!DOCTYPE svg PUBLIC "-//W3C//DTD SVG 20010904//EN"
 "http://www.w3.org/TR/2001/REC-SVG-20010904/DTD/svg10.dtd">
<svg version="1.0" xmlns="http://www.w3.org/2000/svg"
 width="257.000000pt" height="196.000000pt" viewBox="0 0 257.000000 196.000000"
 preserveAspectRatio="xMidYMid meet">
<metadata>
Created by potrace 1.16, written by Peter Selinger 2001-2019
</metadata>
<g transform="translate(0.000000,196.000000) scale(0.100000,-0.100000)"
fill="#000000" stroke="none">
<path d="M0 1082 c0 -839 1 -880 18 -895 41 -38 54 -13 50 98 -3 76 12 100 24
38 14 -71 18 -83 28 -83 6 0 10 26 10 58 0 62 11 89 30 77 9 -6 11 -27 6 -77
-6 -71 6 -88 18 -23 4 19 12 37 17 41 7 4 9 0 5 -12 -3 -11 -10 -68 -16 -129
-6 -60 -13 -125 -16 -142 l-5 -33 390 0 389 0 7 41 c6 36 4 44 -22 72 -37 40
-63 82 -63 102 0 20 7 19 37 -5 14 -11 29 -20 33 -20 17 0 28 58 19 101 -21
111 6 139 29 31 8 -34 17 -62 21 -62 5 0 11 29 13 64 6 68 14 90 29 80 6 -3 7
-36 3 -82 -7 -88 3 -87 30 1 21 71 41 77 31 10 -4 -27 -11 -56 -16 -65 -11
-21 -12 -38 -1 -38 5 0 19 20 31 45 22 43 49 63 38 27 -31 -99 -65 -183 -84
-212 -13 -19 -23 -47 -23 -62 0 -26 3 -28 44 -28 52 0 48 -10 67 201 l12 137
-37 32 c-20 18 -48 52 -61 74 -14 23 -36 53 -50 66 -31 29 -32 40 -2 40 12 0
39 -16 61 -36 21 -19 43 -33 50 -31 21 7 30 73 17 129 -15 69 -19 147 -6 149
9 1 17 -21 53 -140 16 -53 27 -29 27 57 0 159 30 166 41 9 4 -53 10 -97 14
-97 4 0 10 21 13 48 10 73 26 122 42 122 18 0 18 -13 0 -115 -8 -44 -15 -81
-15 -82 0 -2 4 -3 9 -3 4 0 20 27 34 60 40 91 65 74 31 -21 -8 -24 -20 -72
-25 -107 -5 -35 -21 -89 -36 -120 -23 -50 -26 -68 -24 -152 0 -52 4 -123 7
-157 l6 -63 84 0 c46 0 84 2 84 4 0 12 53 322 66 389 15 73 15 81 -4 145 -11
37 -23 108 -26 157 -4 50 -9 109 -12 133 -5 34 -3 42 9 42 16 0 17 -2 38 -87
7 -29 17 -53 22 -53 5 0 8 35 7 78 -3 117 -1 132 14 132 17 0 26 -43 26 -121
0 -33 4 -59 10 -59 6 0 10 3 10 8 0 4 5 35 10 68 6 34 11 73 12 88 2 19 8 26
24 26 21 0 22 -3 17 -62 -3 -35 -9 -78 -14 -97 -5 -19 -7 -37 -4 -39 10 -10
25 14 55 88 20 51 38 80 47 80 20 0 12 -56 -22 -155 -37 -111 -17 -160 47
-112 65 50 133 41 72 -9 -22 -18 -37 -22 -61 -18 -35 7 -43 -5 -19 -26 21 -17
11 -33 -48 -76 l-54 -38 -4 -136 c-5 -144 -4 -160 18 -160 25 0 34 36 27 119
-7 98 10 111 28 21 6 -33 15 -63 19 -65 5 -3 11 27 15 65 5 52 11 70 22 70 11
0 14 -14 12 -70 -1 -39 0 -72 2 -74 2 -3 13 22 23 55 11 33 25 59 33 59 16 0
16 -4 -2 -64 -20 -64 -19 -80 1 -72 13 5 14 3 7 -6 -6 -7 -16 -42 -23 -78 -7
-36 -19 -73 -25 -83 -7 -9 -10 -29 -7 -42 l4 -25 138 0 137 0 7 41 c5 32 2 46
-14 66 -11 14 -18 29 -14 32 3 3 12 -2 19 -12 12 -17 13 -16 11 6 -1 22 -4 23
-25 16 -13 -5 -25 -8 -25 -7 -1 2 -10 15 -19 30 -11 18 -13 28 -6 28 8 0 7 5
-2 17 -12 14 -12 16 1 11 9 -3 14 -16 13 -29 -1 -13 1 -18 3 -12 4 8 15 11 30
7 15 -4 24 -2 24 6 0 6 4 9 8 6 4 -2 4 36 -1 85 -8 82 -6 111 8 97 3 -3 8 -16
10 -29 13 -69 19 -85 35 -101 18 -17 18 -16 13 17 -7 42 5 125 18 125 13 0 11
-118 -2 -122 -7 -2 -5 -9 5 -17 13 -11 16 -11 19 0 5 16 28 89 34 104 2 6 -10
26 -27 45 -17 19 -29 38 -27 43 1 5 5 7 7 6 3 -1 15 3 28 10 27 15 29 0 2 -17
-15 -9 -20 -9 -20 0 0 6 -3 8 -7 4 -10 -9 46 -60 68 -61 24 -2 30 17 11 35
-14 13 -15 12 -10 -2 5 -11 2 -15 -10 -13 -9 2 -19 4 -22 4 -3 1 2 6 10 12 12
8 10 9 -9 4 -16 -5 -21 -4 -17 4 4 6 14 11 22 11 8 0 15 5 15 10 1 6 3 15 4
20 1 6 3 19 4 30 0 11 10 29 21 40 24 24 25 31 6 24 -16 -6 -24 13 -31 72 -2
21 -7 56 -11 77 -4 23 -3 37 4 37 12 0 22 -24 22 -56 0 -13 4 -24 8 -24 5 0
13 -21 18 -47 10 -50 32 -68 41 -34 3 12 9 21 14 21 5 0 9 8 9 18 0 14 -2 15
-10 2 -8 -13 -10 -12 -15 1 -11 29 -1 142 13 145 7 1 8 0 2 -3 -5 -2 -10 -12
-9 -21 0 -11 2 -12 6 -4 12 31 19 5 22 -80 3 -98 6 -111 22 -88 8 12 10 11 7
-4 -4 -29 -27 -31 -38 -4 l-10 23 3 -25 c1 -19 8 -25 27 -25 23 0 25 3 24 50
0 28 1 40 3 27 3 -12 9 -20 14 -17 5 4 8 -8 7 -27 0 -18 2 -52 7 -74 5 -29 4
-44 -5 -49 -9 -6 -11 0 -8 24 2 17 1 31 -3 31 -5 0 -6 8 -3 18 5 14 4 14 -4 3
-19 -26 -53 -20 -66 11 l-12 28 -27 -28 c-30 -31 -35 -52 -12 -52 8 0 15 -4
15 -9 0 -5 8 -12 18 -14 15 -4 15 -5 -2 -6 -13 -1 -17 -7 -13 -20 3 -15 1 -18
-12 -14 -14 4 -14 3 1 -10 16 -13 16 -15 -5 -34 -13 -10 -28 -18 -35 -15 -7 2
-12 -1 -12 -8 0 -6 4 -9 9 -5 5 3 12 1 16 -5 3 -5 0 -10 -8 -10 -15 0 -46
-115 -34 -126 3 -4 16 14 29 40 12 25 26 46 32 46 5 0 6 -3 3 -7 -4 -3 -2 -12
4 -20 8 -8 8 -13 1 -13 -6 0 -13 6 -15 13 -3 6 -3 -6 -1 -28 3 -37 3 -38 -6
-10 l-9 30 2 -30 c1 -17 -2 -36 -6 -43 -5 -6 -4 -12 2 -12 6 0 11 -5 11 -11 0
-5 -4 -8 -9 -5 -5 3 -18 -15 -30 -40 -13 -28 -26 -42 -33 -38 -7 4 -8 3 -4 -4
4 -6 2 -20 -3 -30 -5 -10 -7 -29 -4 -41 4 -18 12 -21 43 -19 32 3 37 6 36 27
-1 21 3 25 27 24 15 -1 41 -1 57 -2 23 -1 30 -6 30 -20 0 -11 4 -23 10 -26 6
-3 7 1 4 9 -3 9 -1 16 5 16 6 0 11 -7 11 -15 0 -11 12 -15 45 -15 l45 0 0 313
c0 265 -2 314 -14 314 -8 0 -17 -9 -19 -19 -3 -10 -1 -18 5 -18 9 0 1 -40 -11
-50 -3 -3 -7 -31 -8 -63 -2 -41 -10 -70 -25 -95 -13 -21 -23 -40 -24 -44 -1
-5 -2 -12 -3 -18 0 -5 -20 -11 -43 -11 l-43 -2 40 -6 c39 -6 40 -7 40 -47 0
-33 -3 -40 -15 -36 -12 4 -13 2 -2 -9 6 -7 12 -21 12 -31 0 -10 5 -18 10 -18
7 0 7 -7 -1 -21 -6 -13 -7 -24 -2 -28 11 -7 11 -67 1 -63 -5 1 -11 2 -15 2 -5
0 -2 4 6 9 9 6 10 11 2 15 -6 4 -11 2 -11 -3 0 -16 -32 -13 -58 4 -20 15 -21
15 -15 -1 4 -12 2 -15 -8 -12 -17 5 -25 48 -10 48 6 0 11 5 11 10 0 6 -7 10
-16 10 -8 0 -13 -4 -9 -9 3 -5 1 -13 -5 -16 -6 -4 -8 -16 -4 -28 5 -17 3 -19
-6 -11 -6 6 -10 29 -8 50 3 43 -2 41 93 28 47 -7 49 -6 32 10 -12 12 -28 17
-51 14 -24 -3 -37 1 -45 14 -13 20 -1 31 19 17 19 -11 73 -12 66 0 -3 4 -18 7
-33 5 -17 -2 -20 -1 -8 2 25 8 45 24 45 37 0 5 -9 2 -19 -7 -11 -10 -28 -16
-38 -14 -21 4 -24 39 -4 46 10 3 12 0 8 -12 -4 -9 -2 -16 3 -16 6 0 10 6 10
13 0 9 11 13 30 12 17 -1 30 2 30 6 0 4 -19 9 -42 11 -39 3 -43 6 -46 31 -3
25 -6 27 -19 15 -14 -11 -15 -11 -11 2 5 16 18 17 87 5 32 -6 42 -5 37 3 -4 7
-25 12 -47 12 -26 0 -42 5 -45 15 -11 27 3 43 30 38 32 -6 34 -20 4 -26 -13
-2 -6 -5 17 -5 29 -1 36 1 25 8 -8 5 -10 10 -5 10 6 1 -6 10 -25 21 -24 14
-28 19 -12 15 12 -2 22 -1 22 2 0 4 16 8 36 10 22 1 33 -2 29 -8 -4 -6 -9 -8
-13 -6 -4 2 -8 -12 -8 -32 l-2 -37 15 35 c8 19 17 52 19 74 2 21 6 41 8 44 3
2 1 13 -5 23 -8 15 -6 21 6 25 9 4 14 13 11 20 -6 16 25 104 36 104 4 0 8 288
8 640 l0 640 -1285 0 -1285 0 0 -878z m2049 381 c54 20 81 -13 81 -99 0 -24 5
-44 10 -44 6 0 10 -4 10 -10 0 -5 -18 -10 -40 -10 -22 0 -40 5 -40 10 0 6 5
10 10 10 6 0 10 24 10 54 0 62 -16 84 -49 66 -17 -9 -21 -20 -21 -65 0 -30 5
-55 10 -55 6 0 10 -4 10 -10 0 -5 -16 -10 -35 -10 -19 0 -35 5 -35 10 0 6 5
10 10 10 6 0 10 43 10 110 0 67 -4 110 -10 110 -20 0 -9 19 13 22 20 3 22 -1
25 -53 l3 -57 28 11z m-1749 75 c0 -3 -4 -8 -9 -10 -6 -1 -12 -22 -15 -45 l-5
-43 65 0 64 0 0 40 c0 27 -6 42 -17 49 -10 6 -13 11 -8 11 65 6 87 6 91 -2 3
-4 -2 -8 -10 -8 -14 0 -16 -17 -16 -105 0 -87 3 -105 15 -105 8 0 15 -4 15
-10 0 -5 -22 -10 -50 -10 -48 0 -66 12 -35 24 10 4 15 20 15 51 l0 45 -62 0
-63 0 2 -37 c1 -21 2 -44 2 -50 1 -7 8 -13 16 -13 8 0 15 -4 15 -10 0 -5 -22
-10 -50 -10 -48 0 -66 12 -35 24 12 4 15 25 15 102 0 91 -1 96 -22 102 -21 6
-21 7 7 12 38 8 75 7 75 -2z m1287 3 c51 -2 70 -64 32 -102 -21 -21 -21 -22
-4 -53 10 -17 30 -44 44 -59 l26 -29 -30 4 c-24 2 -37 14 -64 56 -42 66 -61
68 -61 7 0 -33 4 -45 15 -45 8 0 15 -4 15 -10 0 -5 -22 -10 -50 -10 -27 0 -50
5 -50 10 0 6 7 10 15 10 12 0 15 18 15 105 0 88 -2 105 -16 105 -8 0 -13 4
-10 8 3 5 27 7 53 6 26 -1 58 -3 70 -3z m-847 -80 c0 -5 14 -4 30 2 23 9 35 9
49 0 15 -9 26 -9 50 0 51 19 65 2 69 -77 2 -36 7 -66 12 -66 6 0 10 -4 10 -10
0 -5 -16 -10 -35 -10 -19 0 -35 5 -35 10 0 6 5 10 10 10 6 0 10 24 10 54 0 62
-16 84 -49 66 -17 -9 -21 -20 -21 -65 0 -30 5 -55 10 -55 6 0 10 -4 10 -10 0
-5 -15 -10 -34 -10 -19 0 -38 5 -41 10 -3 6 1 10 9 10 12 0 16 11 16 49 0 60
-20 87 -52 70 -18 -10 -20 -18 -16 -75 l4 -64 -33 0 c-18 0 -33 5 -33 10 0 6
5 10 10 10 6 0 10 27 10 60 0 33 -4 60 -10 60 -17 0 -11 18 8 23 30 8 42 7 42
-2z m360 -10 c5 -11 10 -42 10 -70 0 -29 5 -51 12 -53 6 -2 8 -10 4 -16 -8
-14 -46 -16 -46 -3 0 5 -14 4 -31 -2 -28 -11 -33 -10 -50 11 -24 31 -12 56 36
72 28 9 35 17 33 33 -4 30 -38 35 -45 7 -6 -21 -24 -23 -30 -3 -5 14 44 42 74
43 12 0 27 -9 33 -19z m110 10 c0 -5 14 -4 30 2 50 19 64 2 68 -77 2 -36 7
-66 12 -66 6 0 10 -4 10 -10 0 -5 -16 -10 -35 -10 -19 0 -35 5 -35 10 0 6 5
10 10 10 6 0 10 25 10 55 0 42 -4 56 -18 64 -34 18 -52 -5 -52 -64 0 -30 5
-55 10 -55 6 0 10 -4 10 -10 0 -5 -18 -10 -40 -10 -22 0 -40 5 -40 10 0 6 5
10 10 10 15 0 13 117 -2 126 -9 6 -5 10 12 15 36 10 40 10 40 0z m750 -8 c2
-2 -5 -6 -17 -9 -14 -4 -19 -12 -16 -24 8 -30 -15 -59 -52 -66 -46 -8 -45 -24
1 -24 48 0 74 -16 74 -45 0 -55 -86 -93 -135 -61 -29 19 -31 33 -9 58 14 15
15 20 3 34 -11 14 -11 18 4 29 15 11 16 14 2 25 -23 19 -19 66 8 85 17 12 35
14 77 9 30 -4 57 -8 60 -11z"/>
</g>
</svg>
