<?xml version="1.0" encoding="UTF-8"?>
<svg xmlns="http://www.w3.org/2000/svg" id="Layer_1" data-name="Layer 1" viewBox="0 0 512 512" width="512" height="512">
  <title>Artboard 36</title>
  <path d="M41.02,347A80.779,80.779,0,0,1,38,326.07V320H8v6.07a81.1,81.1,0,0,0,96.132,79.454A80.956,80.956,0,0,1,41.02,347Z" style="fill:#d4e1f4"></path>
  <path d="M256,98.281a20.709,20.709,0,1,0,20.709,20.709A20.732,20.732,0,0,0,256,98.281Zm0,29.418a8.709,8.709,0,1,1,8.709-8.709A8.719,8.719,0,0,1,256,127.7Z" style="fill:#1ae5be"></path>
  <path d="M169.991,314h-9.857L94.668,157.545a5.989,5.989,0,0,0-11.069.006L18.134,314H8.276A6.2,6.2,0,0,0,2,319.949v6.125c0,47.894,39.106,86.858,87,86.858s87-38.964,87-86.858v-6.125A5.964,5.964,0,0,0,169.991,314ZM89.134,175.429,147.125,314H31.142ZM14,326H164v.074A76.254,76.254,0,0,1,162.493,341H15.775A76.47,76.47,0,0,1,14,326.074Zm75.134,74.93A74.977,74.977,0,0,1,19.306,353H158.961A74.975,74.975,0,0,1,89.134,400.93Z" style="fill:#0635c9"></path>
  <path d="M503.724,314h-9.858L428.4,157.545a5.989,5.989,0,0,0-11.069.006L351.866,314h-9.857A5.964,5.964,0,0,0,336,319.949v6.125c0,47.894,39.106,86.858,87,86.858s87-38.964,87-86.858v-6.125A6.2,6.2,0,0,0,503.724,314ZM422.866,175.429,480.858,314H364.875ZM348,326H498v.074A76.47,76.47,0,0,1,496.225,341H349.507A76.254,76.254,0,0,1,348,326.074Zm74.866,74.93A74.975,74.975,0,0,1,353.039,353H492.694A74.977,74.977,0,0,1,422.866,400.93Z" style="fill:#0635c9"></path>
  <path d="M469.265,107.967A15.856,15.856,0,0,0,454,106.945a40.809,40.809,0,0,0-18.933,18.228,13.434,13.434,0,0,1-11.869,7.435,13.576,13.576,0,0,1-11.868-7.58A40.133,40.133,0,0,0,375.813,103H293.028C289.272,94,282,87.255,274,82.989V40.809A5.925,5.925,0,0,0,267.9,35H244.1a5.925,5.925,0,0,0-6.1,5.809v42.18C230,87.255,222.728,94,218.972,103h-82.71a40.117,40.117,0,0,0-35.489,21.983,13.265,13.265,0,0,1-23.858.11,40.725,40.725,0,0,0-18.9-18.164A15.931,15.931,0,0,0,44.55,135.806a8.77,8.77,0,0,1,4.1,3.981,45.087,45.087,0,0,0,80.384-.064A8.326,8.326,0,0,1,136.262,135h82.909A40.728,40.728,0,0,0,238,154.991V347h-4.813A6.158,6.158,0,0,0,227,352.994V400H192.231A6.521,6.521,0,0,0,186,406.363V431H161.834A5.572,5.572,0,0,0,156,436.651v34.54A5.7,5.7,0,0,0,161.834,477h187.34A5.694,5.694,0,0,0,355,471.191v-34.54A5.566,5.566,0,0,0,349.174,431H326V406.363A6.521,6.521,0,0,0,319.769,400H285V352.994A6.158,6.158,0,0,0,278.813,347H274V154.991A40.728,40.728,0,0,0,292.829,135h82.984a8.351,8.351,0,0,1,7.24,4.75,45.016,45.016,0,0,0,80.281.048,8.8,8.8,0,0,1,4.116-4,15.962,15.962,0,0,0,1.815-27.836ZM136.262,123a20.273,20.273,0,0,0-17.879,11.2,33.107,33.107,0,0,1-59.078.05,20.806,20.806,0,0,0-9.807-9.381,3.854,3.854,0,0,1-2.072-3.543A3.8,3.8,0,0,1,49.2,118.08a3.879,3.879,0,0,1,3.768-.246,28.7,28.7,0,0,1,13.292,12.82,25.218,25.218,0,0,0,45.164-.146A28.159,28.159,0,0,1,136.262,115h79.695c-.112,2-.177,2.533-.177,3.781a37.088,37.088,0,0,0,.212,4.219ZM250,47h12V79.207a41.408,41.408,0,0,0-12,0Zm93,396v22H168V443Zm-29-31v19H198V412Zm-41-53v41H239V359Zm-23-12V158.773a41.408,41.408,0,0,0,12,0V347Zm6-199.79a28.22,28.22,0,1,1,28.22-28.22A28.251,28.251,0,0,1,256,147.21Zm206.492-22.327a20.862,20.862,0,0,0-9.814,9.412,33,33,0,0,1-58.969-.063A20.291,20.291,0,0,0,375.813,123H296.008a37.088,37.088,0,0,0,.212-4.219c0-1.248-.065-1.781-.177-3.781h79.77a28.181,28.181,0,0,1,24.856,15.546,25.171,25.171,0,0,0,45.049.109,28.71,28.71,0,0,1,13.321-12.84,3.87,3.87,0,0,1,3.765.255,3.8,3.8,0,0,1,1.77,3.239A3.9,3.9,0,0,1,462.492,124.883Z" style="fill:#1ae5be"></path>
</svg>
