<?xml version="1.0"?>
<svg xmlns="http://www.w3.org/2000/svg" id="Layer_1" data-name="Layer 1" viewBox="0 0 512 512" width="512" height="512"><title>lady doctor</title><path d="M86.426,466.483c1.607-6.566,11.523-47.094,18.322-74.715,5.674-23.055,25.657-44.133,55.227-59.244a24.115,24.115,0,0,1-2.522-7.793c-39.114,15.124-65.974,39.69-72.7,67.037-6.8,27.621-16.715,68.149-18.322,74.715.4,6.428,5.81,12.309,11.524,12.309h20C92.236,478.792,86.822,472.911,86.426,466.483Z" style="fill:#d4e1f4"/><path d="M241.156,263.459c-24.787-15.324-27.133-46.976-27.319-50.535a7.005,7.005,0,0,0-7-6.8c-.044,0-.088,0-.131,0-8.439.173-20.648-13.029-25.346-32.9-1.454-6.178.444-10.78,3.07-12.133,2.448-1.263,5.025,1.07,6.342,2.571a7,7,0,0,0,12.162-5.793c-1.784-10.47-3.839-40.692,7.917-54.62a20.868,20.868,0,0,1,4.634-4.109c-2.117-2.373-4.183-3.489-6.778-3.489-7.7,0-13.54,2.485-17.856,7.6-11.756,13.928-9.7,44.15-7.917,54.62a7,7,0,0,1-12.162,5.793c-1.317-1.5-3.894-3.834-6.342-2.571-2.626,1.353-4.524,5.955-3.07,12.133,4.7,19.876,16.907,33.078,25.346,32.905.043,0,.087,0,.131,0a7.005,7.005,0,0,1,7,6.8c.186,3.559,2.532,35.211,27.319,50.535,9.409,5.811,21.132,8.757,34.841,8.757a83.648,83.648,0,0,0,9.937-.572A60.02,60.02,0,0,1,241.156,263.459Z" style="fill:#d4e1f4"/><path d="M288.055,142.942c11.372,0,23.366-3.9,33.949-7.336,1.837-.6,3.817-1.238,5.826-1.86a7.558,7.558,0,0,0-1.962-2.5c-3.062-2.4-15.085,1.5-23.864,4.356-7.475,2.429-15.655,5.08-23.822,6.432A52.15,52.15,0,0,0,288.055,142.942Z" style="fill:#d4e1f4"/><path d="M240.325,344.977l-7.179-49.95,4.9-10.456a74.34,74.34,0,0,1-17.412-5.52l-7.491,15.976,7.179,49.95c9.911,5.268,30.768,11.3,34.767,11.4a57.963,57.963,0,0,0,10.3-2.139C257.382,352,246.636,348.332,240.325,344.977Z" style="fill:#d4e1f4"/><path d="M440.855,387.936c-5-20.833-20.344-40.266-43.206-55.851-7.665-31.136-15.362-77.634-15.609-113.19l-.033-4.967c-.285-45.4-.609-96.868-22-138.357C340.875,38.447,296.835,15,252.921,18.551A19.634,19.634,0,0,0,235,40.283a5.622,5.622,0,0,1-6.933,6.08c-21.573-5.3-45.324,1.72-63.53,18.779-14.112,13.223-24,31.355-29.4,53.892-6.113,25.531-6.116,55.9-.009,90.265,5.442,30.621-.381,71.957-16.827,119.651C93.492,345.1,76.713,365.835,71.153,388.422,63.734,418.564,52.6,464.071,52.6,464.071a7.014,7.014,0,0,0-.2,1.663c0,14.414,11.938,27.058,25.547,27.058h356.1c13.609,0,25.548-12.644,25.548-27.058a7.043,7.043,0,0,0-.2-1.674C459.292,463.646,449.1,422.293,440.855,387.936ZM148.912,206.849c-14.3-80.466,9.648-116.922,25.2-131.491,14.518-13.6,33.915-19.5,50.618-15.4a19.623,19.623,0,0,0,24.189-21.215,5.634,5.634,0,0,1,5.135-6.239c37.835-3.047,77.161,17.751,93.517,49.481,19.852,38.512,20.165,88.2,20.441,132.03l.032,4.977c.222,31.879,6.213,72.147,12.939,103.118a204.105,204.105,0,0,0-27.2-11.77,32.053,32.053,0,0,0-13.82-13.238c-1.967-1.041-16.223-6.134-28.862-10.579l-7.674-15.087c20.449-15.922,26.388-40.328,28.093-52.12,14.31-3.8,27.477-20.6,32.743-42.884,2.737-11.6-1.212-22.518-9.828-27.175a17.506,17.506,0,0,0-10.327-2.064q.01-.859,0-1.743c-.164-11.867-3.393-20.351-9.6-25.218-8.933-7-21.86-2.8-36.829,2.059-10.063,3.269-20.469,6.65-29.623,6.65-19.136,0-25.836-12.133-32.931-24.979C229.348,93.5,222.8,81.648,208.706,81.648c-11.909,0-21.516,4.228-28.554,12.567-12.119,14.358-13.159,37.825-12.387,52.581a17,17,0,0,0-9.748,1.847c-8.976,4.625-13.109,15.792-10.284,27.792,5.257,22.243,18.378,39.02,32.657,42.859,1.552,11.87,7.27,36.52,28.2,52.478l-7.507,16.009c-16.309,5.307-25.409,8.429-27.015,9.268a32.979,32.979,0,0,0-12.9,11.454,205.38,205.38,0,0,0-24.795,10.205C149.839,274.916,154.183,236.509,148.912,206.849Zm141.839,56.416c-9.4,5.94-21.089,8.951-34.754,8.951-13.709,0-25.432-2.946-34.841-8.757-24.787-15.324-27.133-46.976-27.319-50.535a7.005,7.005,0,0,0-7-6.8c-.044,0-.088,0-.131,0-8.439.173-20.648-13.029-25.346-32.9-1.454-6.178.444-10.78,3.07-12.133,2.448-1.263,5.025,1.07,6.342,2.571a7,7,0,0,0,12.162-5.793c-1.784-10.47-3.839-40.692,7.917-54.62,4.316-5.113,10.156-7.6,17.856-7.6,5.281,0,8.372,4.6,14.164,15.083,7.507,13.594,17.788,32.211,45.185,32.211,11.372,0,23.366-3.9,33.949-7.336,8.779-2.852,20.8-6.758,23.864-4.356,4.985,3.909,4.874,18.076,3.231,26.41a7,7,0,0,0,11.942,6.192c1.115-1.176,4.006-3.752,6.734-2.278,2.4,1.295,4.312,5.491,2.861,11.641-4.671,19.765-16.754,32.912-25.2,32.912h-.15a7.036,7.036,0,0,0-7.131,6.717C317.763,218.624,314.581,248.222,290.751,263.265Zm8.131,30.121-7.569,51.463c-10.473,5.536-32.063,11.5-36.221,11.531-4-.1-24.856-6.135-34.767-11.4l-7.179-49.95,7.491-15.976c10.229,4.759,22.086,7.165,35.36,7.165,13.322,0,25.219-2.483,35.48-7.389ZM77.95,478.792c-5.714,0-11.128-5.881-11.524-12.309,1.607-6.566,11.523-47.094,18.322-74.715,4.809-19.541,19.9-37.659,42.393-51.93a6.967,6.967,0,0,0,1.3-.813,174.526,174.526,0,0,1,29.008-14.294,24.251,24.251,0,0,0,2.881,8.514,70.278,70.278,0,0,0,11.423,14.707,42.09,42.09,0,0,0-7.329,3.677,15.481,15.481,0,0,0-6.526,10.363c-1.246,6.63.8,14.59,5.466,21.331l59.205,95.469Zm97.217-103.006c-.069-.112-.142-.222-.217-.33-2.906-4.142-3.745-8.449-3.289-10.879a2.382,2.382,0,0,1,.534-1.3c3.173-2.117,10.914-4.629,15.046-5.715a7,7,0,0,0,2.427-12.371c-.115-.086-11.549-8.753-17.095-18.746a9.468,9.468,0,0,1-.914-7.574c1.078-3.583,4.252-6.975,8.737-9.333,1.629-.691,10.271-3.605,19.727-6.712l6.619,46.057a7.031,7.031,0,0,0,.368,2.559l.481,3.346c.021.15.047.3.077.442l15.482,97.929Zm66.209,103.006-18.55-117.343c12.322,4.932,27.487,8.931,32.247,8.931,5.108,0,21-4.051,33.767-9.105L270.987,478.792Zm63.112-127.31,7.332-49.855c10.463,3.706,20.079,7.184,21.706,7.91,4.453,2.351,7.614,5.733,8.679,9.29a9.45,9.45,0,0,1-.929,7.534c-5.533,9.972-16.952,18.559-17.06,18.641a7,7,0,0,0,2.492,12.415c3.463.857,11.676,3.334,14.956,5.522a2.1,2.1,0,0,1,.539,1.248c.4,2.142-.221,6.2-3.3,10.586-.069.1-.134.2-.2.3l-49.873,79.464Zm129.561,127.31H290.137l60.337-96.134c4.656-6.712,6.707-14.57,5.488-21.056a15.629,15.629,0,0,0-6.533-10.312,40.107,40.107,0,0,0-7.2-3.59,69.3,69.3,0,0,0,11.289-14.541,24.653,24.653,0,0,0,2.627-7c38.04,14.994,64.948,39.412,71.1,65.05,7.573,31.544,16.778,68.973,18.331,75.284C445.175,472.914,439.762,478.792,434.049,478.792Z" style="fill:#2f2f2f"/><path d="M410.446,430.98A27.853,27.853,0,0,0,390.5,398.6c-1.3-26.446-8.777-56.468-20.016-79.772a7,7,0,1,0-12.61,6.082c10.357,21.475,17.276,49.071,18.594,73.509a27.861,27.861,0,1,0,33.981,32.557Zm-13.724-2.769h0A13.863,13.863,0,1,1,394.68,417.8,13.776,13.776,0,0,1,396.722,428.212Z" style="fill:#b8001c"/><path d="M167.623,435.66c-.058-.381-5.912-38.225-7.139-50.975C159.52,374.641,152.9,367.47,144,366.842l-3.358-.238c4.207-15.821,10.543-32.474,16.631-43.362a7,7,0,1,0-12.22-6.832C138,329.024,130.939,347.8,126.44,365.6l-6.666-.472c-8.908-.631-16.482,5.542-18.833,15.36-2.784,11.624-14.126,49.077-14.24,49.453a7.047,7.047,0,0,0-.283,1.536,17.795,17.795,0,0,0,16.5,19.008,7,7,0,0,0,.987-13.965,3.8,3.8,0,0,1-3.515-3.466c1.837-6.077,11.511-38.2,14.171-49.3.119-.5,1.227-4.868,4.23-4.656l24.228,1.714c2.967.21,3.484,4.706,3.534,5.218,1.167,12.129,6.133,44.593,7.088,50.8a3.792,3.792,0,0,1-3.965,2.933,7,7,0,1,0-.99,13.965q.645.046,1.285.046a17.8,17.8,0,0,0,17.722-16.542A6.938,6.938,0,0,0,167.623,435.66Z" style="fill:#b8001c"/></svg>
