<svg xmlns="http://www.w3.org/2000/svg" viewBox="0 0 100 125" x="0px" y="0px"><title>Artboard 29</title><g data-name="Layer 2"><path d="M92.73633,30.73779l-.95508-.16833v-.858a3.77873,3.77873,0,0,0-6.89819-2.13556,3.77515,3.77515,0,0,0-6.11938-1.13739,3.69323,3.69323,0,0,0-.92383,1.555,3.75992,3.75992,0,0,0-6.68335,1.646,3.76557,3.76557,0,0,0-6.6311,2.45917l-.002,14.31836c0,.7417.6748,1.71826,1.78613,3.23779a9.00257,9.00257,0,0,1,1.49414,2.44189v2.36719h-.79687a.49971.49971,0,0,0-.5.5v1.14795a1.23746,1.23746,0,0,0-.292-.05908H62.24316A3.67072,3.67072,0,0,0,58.616,59.23H56.01392a3.67072,3.67072,0,0,0-3.6272-3.17725H47.62109A3.67072,3.67072,0,0,0,43.9939,59.23H41.39185a3.67072,3.67072,0,0,0-3.6272-3.17725H33.793a1.23912,1.23912,0,0,0-.29687.06006V54.96387a.49971.49971,0,0,0-.5-.5h-.7998V52.09668a9.00257,9.00257,0,0,1,1.49414-2.44189c1.11133-1.51953,1.78613-2.49609,1.78613-3.23779V32.09863a3.7655,3.7655,0,0,0-6.6311-2.459,3.75913,3.75913,0,0,0-6.68231-1.64612,3.69461,3.69461,0,0,0-.92389-1.555,3.77521,3.77521,0,0,0-6.11945,1.13739A3.77933,3.77933,0,0,0,8.2207,29.71143v.85876l-.94727.16711A2.13047,2.13047,0,0,0,5.5,32.84229v8.60254a3.80684,3.80684,0,0,0,1.10742,2.67285l8.17773,8.17773v2.16846h-.85254a.49971.49971,0,0,0-.5.5V66.08447a.49971.49971,0,0,0,.5.5h.85254V74.1626a.49971.49971,0,0,0,.5.5H31.69629a.49971.49971,0,0,0,.5-.5V66.58447h.7998a.49971.49971,0,0,0,.5-.5V64.936a1.23912,1.23912,0,0,0,.29688.06006h3.97168a3.67109,3.67109,0,0,0,3.6272-3.17773H43.9939a3.67109,3.67109,0,0,0,3.6272,3.17773h4.76563a3.67109,3.67109,0,0,0,3.6272-3.17773H58.616a3.67109,3.67109,0,0,0,3.6272,3.17773h3.97168a1.23746,1.23746,0,0,0,.292-.05908v1.14746a.49971.49971,0,0,0,.5.5h.79688V74.1626a.49971.49971,0,0,0,.5.5H84.71484a.49971.49971,0,0,0,.5-.5V66.58447h.85547a.49971.49971,0,0,0,.5-.5V54.96387a.49971.49971,0,0,0-.5-.5h-.85547V52.29541l8.17578-8.17578A3.78,3.78,0,0,0,94.5,41.44482V32.84229A2.128,2.128,0,0,0,92.73633,30.73779Zm-61.041-1.4209a2.785,2.785,0,0,1,2.78125,2.78174v3.87842a2.78174,2.78174,0,1,1-5.56348,0V32.09863A2.7852,2.7852,0,0,1,31.69531,29.31689Zm-9.3457.9917a2.78174,2.78174,0,1,1,5.56348,0v5.37012a2.78174,2.78174,0,1,1-5.56348,0ZM18.56641,26.333a2.78742,2.78742,0,0,1,1.96973.81641,2.74377,2.74377,0,0,1,.8125,1.96533V35.082a2.76082,2.76082,0,0,1-5.22913,1.28906,7.06283,7.06283,0,0,0,3.30432-7.27051.5022.5022,0,0,0-.5791-.4043l-3.05957.53967v-.12122A2.785,2.785,0,0,1,18.56641,26.333ZM13.38672,37.48444v-.1485l.28625-.05066A2.7779,2.7779,0,0,1,13.38672,37.48444Zm1.89441-.56476a3.76309,3.76309,0,0,0,.61243.83862,3.84439,3.84439,0,0,0,.40082.32715H14.2619A3.77383,3.77383,0,0,0,15.28113,36.91968ZM9.2207,29.71143a2.7748,2.7748,0,0,1,5.53473-.29382l-5.53473.97626Zm6.418,22.02344L7.31445,43.41064A2.80087,2.80087,0,0,1,6.5,41.44482V32.84229a1.13352,1.13352,0,0,1,.94531-1.12012L18.50684,29.771a6.065,6.065,0,0,1-3.68066,6.13867,5.93531,5.93531,0,0,1-1.3125.38818l-.71484.127a.50011.50011,0,0,0-.41211.49219v1.66846a.49971.49971,0,0,0,.5.5h3.75684a6.07189,6.07189,0,0,1,6.06934,6.061.5.5,0,0,0,1,0A7.06522,7.06522,0,0,0,19.551,38.71741a3.78417,3.78417,0,0,0,2.13287-1.50055,3.76392,3.76392,0,0,0,6.64813.45422,3.74618,3.74618,0,0,0,6.14453.84729V46.417a9.0494,9.0494,0,0,1-1.59277,2.64795c-1.0498,1.436-1.6875,2.35645-1.6875,3.03174v2.36719H15.78516V52.08838A.49964.49964,0,0,0,15.63867,51.73486ZM31.19629,73.6626H15.78516V66.58447H31.19629Zm1.2998-8.07812H14.43262V55.46387H32.49609ZM88,26.92969a2.785,2.785,0,0,1,2.78125,2.78174v.6817l-5.53369-.97546A2.776,2.776,0,0,1,88,26.92969Zm-9.3457,2.18506a2.74377,2.74377,0,0,1,.8125-1.96533,2.78216,2.78216,0,0,1,4.751,1.96533v.1214l-3.0625-.53986a.489.489,0,0,0-.374.083.49983.49983,0,0,0-.20508.32324,7.06032,7.06032,0,0,0,3.307,7.26923,2.74083,2.74083,0,0,1-.47791.6756,2.78216,2.78216,0,0,1-4.751-1.96533Zm6.0675,7.80536a3.77044,3.77044,0,0,0,1.01868,1.16534H83.70764a3.86424,3.86424,0,0,0,.40271-.32861A3.73037,3.73037,0,0,0,84.7218,36.9201Zm1.89148.56281a2.78227,2.78227,0,0,1-.28345-.19727l.28345.05029ZM72.08887,30.30859a2.78223,2.78223,0,0,1,5.56445,0v5.37012a2.78223,2.78223,0,0,1-5.56445,0Zm-6.56348,1.79a2.78174,2.78174,0,1,1,5.56348,0v3.87842a2.78174,2.78174,0,1,1-5.56348,0ZM62.07813,59.23h-.78656a1.07911,1.07911,0,0,1,.9516-.58887H64.9209v3.76611H62.24316a1.07911,1.07911,0,0,1-.9516-.58887h.78656a1.29419,1.29419,0,0,0,0-2.58838Zm0,1a.29419.29419,0,0,1,0,.58838H52.5459a.29419.29419,0,0,1,0-.58838Zm-24.1543,1.58838h.79242a1.07911,1.07911,0,0,1-.9516.58887H35.08789V58.64111h2.67676a1.07911,1.07911,0,0,1,.9516.58887h-.79242a1.29419,1.29419,0,0,0,0,2.58838Zm0-1a.29419.29419,0,0,1,0-.58838h9.53223a.29419.29419,0,0,1,0,.58838Zm9.53223,1a1.29419,1.29419,0,0,0,0-2.58838h-.78656a1.07911,1.07911,0,0,1,.9516-.58887h4.76563a1.07911,1.07911,0,0,1,.9516.58887H52.5459a1.29419,1.29419,0,0,0,0,2.58838h.79242a1.07911,1.07911,0,0,1-.9516.58887H47.62109a1.07911,1.07911,0,0,1-.9516-.58887Zm.165-4.76562h4.76563A2.67927,2.67927,0,0,1,55.01385,59.23h-.60559a2.08821,2.08821,0,0,0-2.02155-1.58887H47.62109A2.08821,2.08821,0,0,0,45.59955,59.23H44.994A2.67927,2.67927,0,0,1,47.62109,57.05273Zm-9.85645,6.94336H33.793a.291.291,0,0,1-.29395-.29443V57.34717a.291.291,0,0,1,.29395-.29443h3.97168A2.67927,2.67927,0,0,1,40.39178,59.23h-.60559a2.08821,2.08821,0,0,0-2.02155-1.58887H34.08789v5.76611h3.67676a2.08821,2.08821,0,0,0,2.02155-1.58887h.60565A2.67931,2.67931,0,0,1,37.76465,63.99609Zm14.62207,0H47.62109a2.67931,2.67931,0,0,1-2.6272-2.17773h.60565a2.08821,2.08821,0,0,0,2.02155,1.58887h4.76563a2.08821,2.08821,0,0,0,2.02155-1.58887h.60565A2.67931,2.67931,0,0,1,52.38672,63.99609Zm13.82813,0H62.24316a2.67931,2.67931,0,0,1-2.6272-2.17773h.60565a2.08821,2.08821,0,0,0,2.02155,1.58887H65.9209V57.64111H62.24316A2.08821,2.08821,0,0,0,60.22162,59.23H59.616a2.67927,2.67927,0,0,1,2.62714-2.17725h3.97168a.29723.29723,0,0,1,.292.28979V63.7063A.29723.29723,0,0,1,66.21484,63.99609Zm18,9.6665H68.80371V66.58447H84.21484Zm1.35547-8.07812H67.50684V55.46387H85.57031ZM93.5,41.44482a2.7753,2.7753,0,0,1-.81445,1.96582l-8.32422,8.32422a.49964.49964,0,0,0-.14648.35352v2.37549H68.80371V52.09668c0-.67529-.6377-1.5957-1.6875-3.03174A9.0494,9.0494,0,0,1,65.52344,46.417V38.51593a3.746,3.746,0,0,0,6.14648-.84485,3.76482,3.76482,0,0,0,6.64917-.4541A3.783,3.783,0,0,0,80.452,38.71759a7.066,7.066,0,0,0-4.1571,6.42889.5.5,0,1,0,1,0,6.06772,6.06772,0,0,1,6.06152-6.061h3.75684a.49971.49971,0,0,0,.5-.5V36.917a.50011.50011,0,0,0-.41211-.49219l-.7168-.12744a6.06431,6.06431,0,0,1-4.98926-6.52588l11.06934,1.95117A1.13078,1.13078,0,0,1,93.5,32.84229Z"/></g><text x="0" y="115" fill="#000000" font-size="5px" font-weight="bold" font-family="'Helvetica Neue', Helvetica, Arial-Unicode, Arial, Sans-serif">Created by Fatahillah</text><text x="0" y="120" fill="#000000" font-size="5px" font-weight="bold" font-family="'Helvetica Neue', Helvetica, Arial-Unicode, Arial, Sans-serif">from the Noun Project</text></svg>