<?xml version="1.0" standalone="no"?>
<!DOCTYPE svg PUBLIC "-//W3C//DTD SVG 20010904//EN"
 "http://www.w3.org/TR/2001/REC-SVG-20010904/DTD/svg10.dtd">
<svg version="1.0" xmlns="http://www.w3.org/2000/svg"
 width="275.000000pt" height="183.000000pt" viewBox="0 0 275.000000 183.000000"
 preserveAspectRatio="xMidYMid meet">
<metadata>
Created by potrace 1.16, written by Peter Selinger 2001-2019
</metadata>
<g transform="translate(0.000000,183.000000) scale(0.100000,-0.100000)"
fill="#000000" stroke="none">
<path d="M0 1815 c0 -12 9 -15 35 -13 50 3 55 -10 6 -18 -37 -6 -56 -27 -32
-36 5 -1 13 -15 16 -31 6 -22 4 -26 -9 -21 -13 5 -16 -1 -16 -29 0 -31 2 -34
25 -29 22 4 25 9 25 49 l0 46 31 -7 c17 -3 47 -6 66 -6 26 0 36 -5 40 -19 3
-11 12 -22 22 -24 14 -4 14 -5 -1 -6 -24 -1 -23 -27 1 -34 26 -6 29 -2 23 28
-2 14 -11 25 -19 25 -10 0 -13 6 -9 15 7 19 2 20 -91 35 -40 7 -73 16 -73 22
0 6 13 8 33 4 21 -4 48 -1 70 9 34 14 36 14 42 -5 9 -29 33 -26 28 4 -5 23 -3
24 84 30 48 3 93 5 98 5 8 1 531 -9 610 -11 11 0 36 6 55 15 l35 14 -30 -2
c-16 -2 -37 -6 -46 -9 -9 -4 -34 -3 -57 3 -25 5 -44 5 -48 0 -7 -12 -44 -12
-44 0 0 6 -177 10 -435 10 -386 1 -435 0 -435 -14z m40 -155 c0 -5 -5 -10 -11
-10 -5 0 -7 5 -4 10 3 6 8 10 11 10 2 0 4 -4 4 -10z"/>
<path d="M1115 1820 c-13 -6 0 -8 38 -8 32 0 55 3 52 6 -9 10 -67 11 -90 2z"/>
<path d="M1311 1803 c1 -23 2 -24 6 -6 2 12 12 24 21 26 12 3 10 5 -5 6 -19 1
-23 -4 -22 -26z"/>
<path d="M1402 1822 c-37 -3 -40 -5 -28 -17 10 -11 27 -13 60 -9 25 4 46 9 46
13 0 3 27 4 60 3 33 -2 60 0 60 5 0 9 -107 11 -198 5z"/>
<path d="M1610 1819 c0 -5 5 -7 10 -4 6 3 10 8 10 11 0 2 -4 4 -10 4 -5 0 -10
-5 -10 -11z"/>
<path d="M1646 1815 c-2 -7 17 -9 55 -5 79 8 86 20 10 17 -33 -1 -62 -7 -65
-12z"/>
<path d="M1780 1822 c0 -4 25 -8 57 -9 31 -2 61 -7 67 -12 20 -15 76 -21 101
-9 17 8 28 8 37 0 8 -6 34 -8 68 -4 75 9 252 -6 266 -23 12 -16 130 -19 139
-4 4 5 -19 9 -54 9 -34 0 -61 4 -61 10 0 6 -23 10 -51 10 -27 0 -48 4 -45 9 4
5 48 7 99 5 50 -3 149 -6 220 -8 117 -2 127 -1 127 16 0 17 -23 18 -485 17
-267 0 -485 -3 -485 -7z"/>
<path d="M1608 1793 c7 -3 16 -2 19 1 4 3 -2 6 -13 5 -11 0 -14 -3 -6 -6z"/>
<path d="M1880 1790 c0 -5 5 -10 10 -10 6 0 10 5 10 10 0 6 -4 10 -10 10 -5 0
-10 -4 -10 -10z"/>
<path d="M1505 1780 c17 -4 44 -8 60 -9 23 0 26 2 15 9 -8 5 -35 9 -60 9 -41
-1 -42 -2 -15 -9z"/>
<path d="M600 1763 c0 -15 2 -15 9 -4 5 8 16 11 25 8 8 -3 18 -2 21 3 4 6 -7
10 -24 10 -23 0 -31 -5 -31 -17z"/>
<path d="M1178 1770 c-2 -6 -13 -12 -24 -12 -14 -1 -20 -8 -19 -22 1 -12 6
-19 11 -16 5 3 8 8 7 13 -2 4 2 7 8 7 16 0 40 28 30 34 -5 4 -11 1 -13 -4z"/>
<path d="M688 1763 c7 -3 16 -2 19 1 4 3 -2 6 -13 5 -11 0 -14 -3 -6 -6z"/>
<path d="M1368 1763 c7 -3 16 -2 19 1 4 3 -2 6 -13 5 -11 0 -14 -3 -6 -6z"/>
<path d="M1458 1763 c7 -3 16 -2 19 1 4 3 -2 6 -13 5 -11 0 -14 -3 -6 -6z"/>
<path d="M2548 1763 c12 -2 32 -2 45 0 12 2 2 4 -23 4 -25 0 -35 -2 -22 -4z"/>
<path d="M2268 1753 c12 -2 30 -2 40 0 9 3 -1 5 -23 4 -22 0 -30 -2 -17 -4z"/>
<path d="M2135 1719 c-44 -3 -74 -6 -67 -7 6 -1 12 -6 12 -12 0 -5 -7 -7 -15
-4 -8 4 -15 2 -15 -4 0 -5 14 -12 31 -16 17 -3 28 -10 24 -16 -7 -12 8 -14 19
-2 12 11 76 9 76 -3 0 -5 5 -3 10 5 6 10 10 11 10 3 0 -8 13 -13 29 -13 25 0
28 -3 23 -22 -4 -17 -2 -20 12 -15 10 4 26 7 37 7 12 0 19 7 19 18 0 17 12 20
93 26 109 8 164 15 192 26 31 13 -98 12 -132 -1 -41 -16 -173 -16 -202 0 -21
12 -26 11 -36 -3 -10 -13 -15 -14 -23 -4 -5 7 -11 20 -13 28 -3 12 -18 14 -84
9z"/>
<path d="M1290 1699 c-52 -3 -125 -6 -161 -5 -49 1 -65 -2 -62 -11 3 -7 0 -13
-6 -13 -6 0 -11 8 -12 18 0 14 -2 14 -8 -3 -5 -11 -7 -22 -5 -25 1 -3 53 -7
115 -8 72 -1 115 -6 120 -13 9 -15 30 -2 23 15 -9 24 13 28 157 31 77 1 142 5
145 8 9 9 -200 13 -306 6z"/>
<path d="M630 1675 c0 -8 -7 -15 -15 -15 -8 0 -15 -7 -15 -15 0 -8 7 -15 16
-15 8 0 12 4 9 10 -4 6 5 9 19 8 15 -1 26 -9 27 -18 0 -10 2 -11 6 -2 2 6 19
12 36 11 31 -1 31 -1 7 -9 -30 -10 -23 -11 100 -14 87 -3 151 7 137 20 -12 12
-95 21 -217 23 -64 1 -80 4 -80 16 0 8 -7 15 -15 15 -8 0 -15 -7 -15 -15z"/>
<path d="M2630 1634 l0 -45 60 3 60 3 0 42 0 43 -60 0 -60 0 0 -46z"/>
<path d="M1525 1660 c-16 -7 -17 -9 -3 -9 9 -1 20 4 23 9 7 11 7 11 -20 0z"/>
<path d="M140 1650 c0 -5 7 -10 15 -10 8 0 15 5 15 10 0 6 -7 10 -15 10 -8 0
-15 -4 -15 -10z"/>
<path d="M491 1656 c12 -10 79 -16 79 -6 0 5 -19 10 -42 10 -23 0 -39 -2 -37
-4z"/>
<path d="M398 1643 c18 -2 45 -2 60 0 15 2 0 4 -33 4 -33 0 -45 -2 -27 -4z"/>
<path d="M1695 1630 c28 -12 37 -12 30 0 -3 6 -16 10 -28 9 -21 0 -21 -1 -2
-9z"/>
<path d="M980 1600 c0 -24 4 -30 18 -28 39 7 46 58 7 58 -21 0 -25 -5 -25 -30z"/>
<path d="M1110 1615 c0 -16 9 -19 34 -9 20 8 11 24 -15 24 -10 0 -19 -7 -19
-15z"/>
<path d="M1340 1617 c0 -8 7 -14 15 -14 8 0 15 6 15 14 0 7 -7 13 -15 13 -8 0
-15 -6 -15 -13z"/>
<path d="M1417 1598 c-2 -7 -15 -13 -28 -14 -83 -3 -84 -3 -63 -18 39 -29 34
-29 -302 -41 -178 -6 -202 -5 -207 9 -8 21 -139 24 -135 4 5 -21 -95 -26 -387
-20 l-270 5 1 -84 c1 -112 -6 -210 -15 -205 -4 3 -8 -13 -8 -34 -1 -22 2 -42
7 -45 6 -3 6 -15 0 -29 -5 -13 -9 -56 -9 -95 l0 -71 52 1 c38 0 47 3 32 9 -23
10 -22 11 27 13 29 2 37 -2 35 -13 -3 -19 54 -21 60 -2 3 7 -4 12 -16 12 l-21
0 21 21 c26 26 42 9 28 -28 -8 -21 -6 -23 21 -23 17 0 30 5 30 10 0 6 9 10 19
10 11 0 22 4 25 9 4 5 -13 7 -36 5 l-43 -3 40 8 c22 5 45 10 50 11 6 1 26 1
45 0 l35 -3 -35 -7 c-27 -6 -16 -8 47 -9 76 -1 82 -3 80 -21 -1 -14 -6 -19
-17 -14 -29 12 -167 16 -186 5 -15 -8 -8 -10 38 -11 31 0 65 -3 75 -6 15 -5
15 -4 3 5 -19 14 -6 13 45 0 52 -15 194 -17 192 -4 -3 14 53 6 77 -11 28 -19
34 -18 29 9 -4 20 -11 23 -61 25 -31 1 -70 6 -87 11 -25 8 -18 10 45 11 41 1
82 4 90 8 12 6 15 34 16 154 2 143 1 147 -20 152 -11 3 9 3 47 0 l67 -5 0 28
c2 111 6 133 26 152 21 19 87 32 100 18 4 -4 -2 -7 -14 -7 -20 0 -21 -3 -15
-87 3 -49 6 -89 7 -89 0 -1 11 -5 24 -8 16 -6 22 -3 22 8 0 18 114 24 312 16
68 -3 147 -4 177 -2 48 3 51 5 35 17 -17 12 -16 13 16 9 19 -3 42 -8 50 -11 8
-3 29 -6 45 -7 l30 -1 0 -175 0 -175 23 2 c12 2 22 -1 22 -6 0 -12 -29 -23
-41 -15 -5 3 -9 0 -9 -5 0 -6 11 -11 25 -11 14 0 25 -5 25 -10 0 -6 -6 -10
-12 -9 -27 3 -38 -2 -38 -16 0 -8 9 -15 20 -15 11 0 20 -4 20 -9 0 -5 -8 -8
-17 -7 -12 0 -19 -7 -21 -21 -4 -25 22 -33 31 -10 3 6 6 2 6 -10 1 -17 -5 -23
-19 -23 -11 0 -20 -5 -20 -10 0 -6 6 -10 13 -8 7 2 14 -1 15 -7 2 -5 -8 -12
-20 -14 -13 -1 -26 -8 -29 -13 -4 -6 -14 -8 -23 -5 -13 5 -15 34 -14 204 0
109 0 219 -1 246 l-1 47 -105 0 -105 0 -2 -82 c-1 -46 0 -158 1 -250 l3 -168
-24 0 c-12 0 -33 -3 -45 -6 -17 -5 -23 -2 -23 10 0 20 -7 20 -26 1 -22 -21
-54 -19 -54 4 0 15 -11 19 -67 26 -77 8 -102 9 -158 6 -22 0 -94 3 -160 8
-231 19 -536 33 -560 27 -14 -4 -25 -13 -25 -21 0 -8 -8 -15 -17 -15 -16 0
-16 2 -3 11 12 8 9 9 -11 5 -42 -9 -44 7 -2 20 l38 12 -66 1 c-36 1 -94 4
-128 7 l-61 7 0 -30 c0 -47 36 -54 292 -55 332 0 335 0 313 -9 -24 -9 2 -11
180 -11 93 0 109 -2 70 -8 -44 -7 -41 -7 22 -5 40 2 75 -1 78 -6 4 -5 51 -9
106 -9 81 0 99 -3 99 -15 0 -11 11 -15 38 -16 20 0 46 -2 57 -4 60 -11 179
-25 182 -21 2 2 19 0 38 -4 31 -7 34 -6 38 19 l4 26 2 -27 c0 -16 6 -28 11
-28 6 0 10 12 11 28 0 15 3 21 6 14 4 -10 22 -11 74 -6 l69 7 0 -27 c0 -14 -6
-27 -12 -27 -7 -1 12 -5 42 -9 60 -8 74 -5 63 13 -11 18 -13 126 -4 168 5 21
6 58 4 83 -5 40 -8 44 -24 36 -24 -13 -29 -13 -29 4 0 8 6 17 13 19 9 4 8 8
-3 16 -12 9 -10 11 10 12 l25 0 -22 11 c-26 12 -31 48 -8 48 14 0 21 41 16 90
-2 13 0 13 8 1 5 -8 7 -20 4 -28 -3 -7 0 -13 6 -13 6 0 11 16 11 36 0 21 -4
33 -10 29 -5 -3 -10 3 -10 14 0 10 -3 27 -7 37 -5 13 -3 16 10 11 20 -7 29 5
21 28 -5 13 -8 14 -15 3 -5 -7 -8 32 -8 92 0 58 5 110 11 117 6 8 34 13 69 13
l59 0 0 50 c0 60 17 73 95 69 30 -2 58 0 62 4 3 4 -79 6 -183 6 -104 -1 -181
-3 -171 -6 9 -2 17 -11 17 -20 0 -11 6 -14 25 -9 14 4 25 2 25 -2 0 -5 24 -14
53 -19 l52 -10 -52 -2 c-29 0 -53 -5 -53 -11 0 -5 5 -10 10 -10 6 0 10 -4 10
-9 0 -13 -37 -1 -52 17 -10 12 -10 14 0 8 7 -4 12 -2 12 6 0 8 -9 14 -20 14
-15 0 -20 -7 -20 -30 l0 -29 -61 7 c-34 3 -86 6 -115 6 -50 0 -54 2 -54 24 0
42 -11 56 -41 56 -21 0 -27 4 -23 15 4 8 4 15 1 15 -3 0 -7 -6 -10 -12z m440
-34 c-3 -3 -12 -4 -19 -1 -8 3 -5 6 6 6 11 1 17 -2 13 -5z m-533 -60 c5 -13 0
-15 -32 -10 -20 3 -50 5 -67 6 -51 1 -7 20 46 20 34 0 49 -5 53 -16z m-164
-14 c-24 -15 -37 -11 -16 5 11 8 22 12 25 9 3 -3 -1 -9 -9 -14z m-122 3 c-10
-2 -26 -2 -35 0 -10 3 -2 5 17 5 19 0 27 -2 18 -5z m-351 -419 c-3 -3 -12 -4
-19 -1 -8 3 -5 6 6 6 11 1 17 -2 13 -5z m-512 -34 c-3 -5 -10 -10 -16 -10 -5
0 -9 5 -9 10 0 6 7 10 16 10 8 0 12 -4 9 -10z m-55 -4 c0 -8 -51 -13 -56 -5
-3 5 9 9 25 9 17 0 31 -2 31 -4z m200 -6 c0 -8 -24 -20 -41 -20 -22 0 -7 25
16 26 14 1 25 -2 25 -6z m300 6 c0 -2 -13 -9 -30 -15 -16 -5 -30 -6 -30 -1 0
7 10 11 53 19 4 0 7 -1 7 -3z m80 0 c0 -11 -19 -15 -25 -6 -3 5 1 10 9 10 9 0
16 -2 16 -4z m-343 -12 c-3 -3 -12 -4 -19 -1 -8 3 -5 6 6 6 11 1 17 -2 13 -5z
m252 -68 c-9 -9 -80 -13 -85 -5 -3 5 16 9 42 9 26 0 45 -2 43 -4z m1161 -68
c0 -4 -9 -8 -20 -8 -11 0 -20 4 -20 9 0 6 9 9 20 8 11 -1 20 -5 20 -9z m0 -40
c0 -7 -12 -21 -25 -31 -20 -15 -25 -15 -25 -3 0 8 6 17 13 19 9 4 8 8 -3 16
-12 9 -10 11 13 11 15 0 27 -5 27 -12z m-849 -73 c0 -15 -42 -18 -55 -4 -8 9
-7 11 7 6 9 -4 17 -2 17 4 0 6 7 9 16 7 8 -2 15 -7 15 -13z m819 5 c0 -5 -4
-10 -10 -10 -5 0 -10 5 -10 10 0 6 5 10 10 10 6 0 10 -4 10 -10z m-703 -6 c-3
-3 -12 -4 -19 -1 -8 3 -5 6 6 6 11 1 17 -2 13 -5z m143 -16 c0 -9 4 -8 10 2 8
13 10 12 10 -2 0 -14 -8 -18 -35 -18 -33 0 -43 8 -28 23 11 12 43 8 43 -5z
m-60 -8 c0 -5 -7 -10 -15 -10 -8 0 -15 5 -15 10 0 6 7 10 15 10 8 0 15 -4 15
-10z m570 6 c0 -2 -9 -6 -20 -9 -11 -3 -20 -1 -20 4 0 5 9 9 20 9 11 0 20 -2
20 -4z m-642 -23 c-15 -2 -42 -2 -60 0 -18 2 -6 4 27 4 33 0 48 -2 33 -4z
m689 -8 c0 -8 -4 -15 -9 -15 -10 0 -11 14 -1 23 9 10 10 9 10 -8z m-52 -15 c3
-6 -1 -7 -9 -4 -18 7 -21 14 -7 14 6 0 13 -4 16 -10z m62 -18 c20 -13 8 -47
-18 -50 -24 -4 -24 -3 -4 13 17 14 17 16 3 11 -18 -5 -25 13 -11 27 8 9 15 9
30 -1z m-330 -8 c-3 -3 -12 -4 -19 -1 -8 3 -5 6 6 6 11 1 17 -2 13 -5z"/>
<path d="M1670 1585 c0 -8 4 -15 8 -15 5 0 9 7 9 15 0 8 -4 15 -9 15 -4 0 -8
-7 -8 -15z"/>
<path d="M875 1581 c-3 -5 -1 -12 5 -16 5 -3 10 1 10 9 0 18 -6 21 -15 7z"/>
<path d="M1035 1579 c-4 -5 28 -9 79 -9 47 0 86 4 86 9 0 12 -158 12 -165 0z"/>
<path d="M393 1553 c-26 -9 -12 -20 27 -21 22 -1 40 0 40 2 0 8 -55 23 -67 19z"/>
<path d="M498 1543 c6 -2 18 -2 25 0 6 3 1 5 -13 5 -14 0 -19 -2 -12 -5z"/>
<path d="M2510 1530 c-44 -5 -45 -6 -48 -44 -2 -25 0 -36 7 -31 6 3 11 17 11
31 l0 25 135 -7 c119 -6 135 -5 135 9 0 13 -17 16 -97 19 -54 2 -118 1 -143
-2z"/>
<path d="M3 1455 c0 -33 2 -45 4 -27 2 18 2 45 0 60 -2 15 -4 0 -4 -33z"/>
<path d="M1876 1443 c-15 -8 -44 -13 -62 -11 -21 2 -33 0 -31 -6 3 -9 116 -27
125 -20 2 1 2 13 0 27 -3 25 -4 25 -32 10z"/>
<path d="M2466 1408 c-3 -13 -6 -42 -6 -65 0 -41 -1 -42 -26 -33 -32 12 -37
12 -29 1 3 -5 1 -12 -5 -16 -6 -3 -14 4 -19 17 -6 13 -10 19 -10 15 -1 -4 -10
-3 -21 3 -23 12 -51 3 -30 -10 16 -10 -35 -17 -135 -20 -44 -1 -83 -4 -87 -6
-8 -5 -11 21 -8 67 1 24 -2 26 -32 25 -18 -1 -36 3 -40 8 -5 7 -8 6 -8 -2 0
-7 -5 -10 -10 -7 -6 4 -16 2 -23 -3 -21 -17 -51 -17 -77 0 -18 12 -38 15 -72
11 -48 -6 -59 -15 -36 -29 6 -4 14 -2 16 4 4 13 34 15 70 6 25 -7 30 -24 7
-24 -8 0 -15 -7 -15 -15 0 -8 7 -15 15 -15 22 0 18 -37 -4 -50 -11 -5 -30 -10
-42 -10 -12 0 -19 -3 -16 -7 7 -6 79 -13 182 -16 42 -1 59 -6 57 -14 -1 -9 13
-13 50 -12 l53 1 -42 10 c-34 7 -40 12 -31 22 10 10 15 10 24 1 8 -7 64 -14
146 -18 73 -4 162 -9 198 -11 36 -2 52 -2 36 1 l-28 4 4 105 c3 57 4 104 2
104 -1 0 -4 -10 -8 -22z m-496 -89 c0 -6 -4 -7 -10 -4 -5 3 -10 11 -10 16 0 6
5 7 10 4 6 -3 10 -11 10 -16z m360 -37 c0 -5 -13 -7 -30 -4 -16 2 -30 6 -30 8
0 2 14 4 30 4 17 0 30 -4 30 -8z m-175 -22 c3 -5 1 -10 -4 -10 -6 0 -11 5 -11
10 0 6 2 10 4 10 3 0 8 -4 11 -10z m40 -10 c3 -5 2 -10 -4 -10 -5 0 -13 5 -16
10 -3 6 -2 10 4 10 5 0 13 -4 16 -10z"/>
<path d="M1825 1340 l-30 -6 29 -7 c29 -8 41 -5 35 10 -2 5 -17 6 -34 3z"/>
<path d="M2431 1334 c0 -11 3 -14 6 -6 3 7 2 16 -1 19 -3 4 -6 -2 -5 -13z"/>
<path d="M2 1280 c0 -14 2 -19 5 -12 2 6 2 18 0 25 -3 6 -5 1 -5 -13z"/>
<path d="M988 1135 c-2 -80 0 -145 5 -145 4 0 7 65 7 145 0 80 -2 145 -4 145
-3 0 -6 -65 -8 -145z"/>
<path d="M1080 1135 l0 -116 63 3 62 3 3 60 c2 33 1 84 -3 113 l-6 52 -60 0
-59 0 0 -115z m70 -49 c0 -3 -4 -8 -10 -11 -5 -3 -10 -1 -10 4 0 6 5 11 10 11
6 0 10 -2 10 -4z"/>
<path d="M1837 1223 c-11 -10 -8 -55 3 -48 5 3 6 13 3 21 -3 9 0 20 8 25 8 5
9 9 3 9 -6 0 -14 -3 -17 -7z"/>
<path d="M2184 1208 c9 -5 23 -5 32 0 12 6 7 9 -16 9 -23 0 -28 -3 -16 -9z"/>
<path d="M2550 1210 c0 -6 23 -10 54 -10 29 0 75 -2 102 -5 47 -4 47 -4 9 4
-77 16 -165 22 -165 11z"/>
<path d="M2392 1196 c7 -8 15 -12 17 -11 5 6 -10 25 -20 25 -5 0 -4 -6 3 -14z"/>
<path d="M1781 1184 c0 -11 3 -14 6 -6 3 7 2 16 -1 19 -3 4 -6 -2 -5 -13z"/>
<path d="M938 1173 c7 -3 16 -2 19 1 4 3 -2 6 -13 5 -11 0 -14 -3 -6 -6z"/>
<path d="M2700 1170 c0 -5 5 -10 10 -10 6 0 10 5 10 10 0 6 -4 10 -10 10 -5 0
-10 -4 -10 -10z"/>
<path d="M2201 1124 c0 -11 3 -14 6 -6 3 7 2 16 -1 19 -3 4 -6 -2 -5 -13z"/>
<path d="M2501 1136 c2 -2 60 -6 129 -8 69 -3 114 -2 100 2 -24 8 -237 14
-229 6z"/>
<path d="M1923 1109 c-7 -7 -13 -19 -13 -27 0 -18 -61 -93 -71 -87 -13 9 -50
-47 -43 -64 4 -9 9 -81 10 -160 3 -156 5 -161 59 -161 l30 0 0 87 c1 120 9
241 18 249 4 4 7 -14 7 -39 0 -43 2 -47 25 -47 29 0 33 21 10 66 -11 24 -12
42 -3 102 8 56 13 70 23 62 9 -8 14 -6 19 5 3 8 0 15 -7 15 -7 0 -21 3 -32 6
-11 3 -26 -1 -32 -7z m-13 -104 c-6 -15 -13 -25 -16 -23 -2 3 1 17 7 32 16 34
23 27 9 -9z m-30 -365 c0 -5 -4 -10 -10 -10 -5 0 -10 5 -10 10 0 6 5 10 10 10
6 0 10 -4 10 -10z m-33 -6 c-3 -3 -12 -4 -19 -1 -8 3 -5 6 6 6 11 1 17 -2 13
-5z"/>
<path d="M2428 1113 c12 -2 30 -2 40 0 9 3 -1 5 -23 4 -22 0 -30 -2 -17 -4z"/>
<path d="M2593 1103 c26 -2 67 -2 90 0 23 2 2 3 -48 3 -49 0 -68 -1 -42 -3z"/>
<path d="M825 1090 c3 -5 -2 -10 -12 -11 -16 0 -16 -1 2 -9 18 -8 18 -9 -5
-10 -22 -2 -23 -3 -5 -8 21 -7 22 -9 24 -97 0 -30 6 -55 11 -55 6 0 10 9 10
20 0 11 6 20 13 20 9 0 9 2 -1 9 -12 7 -18 42 -21 124 -1 15 -6 27 -12 27 -5
0 -7 -4 -4 -10z"/>
<path d="M2160 995 c0 -82 -3 -105 -12 -99 -9 5 -10 4 -3 -4 10 -11 3 -228 -8
-238 -6 -6 -45 -8 -80 -5 -16 1 -18 10 -16 85 2 53 6 83 13 79 5 -4 7 1 3 11
-4 10 -7 20 -7 22 0 2 -25 4 -55 4 l-55 0 -1 -32 c0 -18 0 -64 1 -102 1 -60
-1 -68 -15 -62 -13 5 -16 0 -13 -22 3 -25 6 -27 53 -27 28 0 53 -4 57 -10 5
-6 8 -4 8 5 0 13 1 13 10 0 9 -13 12 -13 21 3 14 24 79 21 79 -4 0 -17 37 -29
86 -29 13 0 24 -5 24 -11 0 -8 -14 -9 -42 -5 -24 3 -65 8 -93 11 -27 3 -187
21 -355 41 -168 19 -350 36 -405 37 -72 2 -107 7 -125 19 -16 11 -58 19 -120
23 -52 3 -140 12 -195 20 -55 8 -156 19 -225 25 -69 6 -153 13 -187 16 -65 6
-68 4 -64 -37 2 -14 -18 -17 -135 -22 -76 -4 -169 -7 -208 -7 -39 0 -78 -5
-86 -11 -11 -7 4 -8 50 -5 36 3 136 8 224 12 130 5 157 3 154 -8 -5 -14 -130
-24 -330 -27 -72 -1 -108 -5 -108 -12 0 -8 22 -10 72 -5 40 3 140 9 222 12
125 6 148 5 144 -7 -4 -11 -47 -16 -199 -21 -107 -4 -205 -9 -219 -12 -14 -3
75 -2 198 0 142 3 222 1 222 -5 0 -13 -56 -19 -260 -27 -161 -5 -191 -8 -179
-17 2 -2 100 1 217 5 118 5 215 8 216 6 1 -2 0 -36 -2 -75 l-4 -73 -111 -1
c-62 -1 -159 -5 -217 -9 -67 -5 -26 -6 113 -2 197 4 217 3 217 -12 0 -14 -15
-16 -107 -17 -60 -1 -157 -5 -218 -9 -74 -5 -38 -6 109 -3 182 4 218 3 214 -8
-4 -11 -50 -16 -207 -21 -112 -4 -208 -10 -215 -13 -6 -3 87 -2 207 1 138 4
217 2 217 -4 0 -18 -31 -22 -193 -23 -89 0 -180 -4 -202 -9 -25 -6 41 -7 177
-3 141 3 218 2 218 -4 0 -15 -76 -23 -234 -24 -78 -1 -154 -5 -171 -9 -17 -4
68 -6 188 -2 144 3 217 2 217 -5 0 -16 -77 -23 -244 -24 -83 0 -160 -4 -171
-9 -12 -5 70 -6 197 -3 147 4 218 3 218 -4 0 -18 -56 -23 -246 -23 -128 0
-184 -3 -184 -11 0 -8 59 -9 210 -4 140 5 210 4 210 -3 0 -17 -40 -22 -190
-23 -80 0 -165 -4 -190 -9 -27 -5 39 -6 167 -3 193 5 213 4 213 -11 0 -17 -32
-19 -317 -19 -84 -1 -103 -3 -103 -15 0 -13 28 -14 210 -8 185 6 210 5 210 -9
0 -13 -22 -15 -152 -16 -84 -1 -180 -5 -213 -9 -39 -6 13 -8 153 -5 176 2 212
0 212 -11 0 -12 176 -14 1165 -14 l1165 0 0 254 0 255 -42 5 c-112 13 -165 18
-190 17 -16 -1 -28 3 -28 9 0 5 7 10 15 10 8 0 12 6 9 14 -3 9 -13 12 -27 8
-19 -5 -20 -3 -9 10 10 13 10 17 0 22 -7 3 51 4 130 3 78 -1 142 1 142 6 0 4
-57 7 -126 7 -85 0 -123 3 -119 11 5 6 49 8 128 5 73 -3 106 -2 82 3 l-40 8
38 2 c20 0 37 6 37 11 0 7 -47 10 -137 9 -103 -1 -138 2 -142 12 -3 10 26 11
138 5 81 -3 141 -2 141 3 0 14 -55 21 -171 21 -61 0 -110 4 -114 10 -4 6 24
10 76 10 45 0 80 2 78 4 -3 3 -58 6 -124 7 l-120 1 0 -41 c0 -26 -5 -41 -12
-41 -7 0 -13 -5 -13 -11 0 -14 -62 -1 -72 15 -8 11 -2 204 8 306 3 30 7 71 9
90 l3 35 -69 3 -69 3 0 -106z m-143 -242 c-3 -10 -5 -2 -5 17 0 19 2 27 5 18
2 -10 2 -26 0 -35z m413 -33 c0 -5 -6 -10 -12 -10 -8 -1 -6 -6 5 -14 20 -16 5
-26 -25 -18 -19 5 -25 32 -7 32 5 0 7 5 4 10 -3 6 3 10 14 10 12 0 21 -4 21
-10z m-473 -62 c-3 -8 -6 -5 -6 6 -1 11 2 17 5 13 3 -3 4 -12 1 -19z m63 7 c0
-8 -4 -15 -10 -15 -5 0 -10 7 -10 15 0 8 5 15 10 15 6 0 10 -7 10 -15z m210
-35 c-8 -5 -19 -10 -25 -10 -5 0 -3 5 5 10 8 5 20 10 25 10 6 0 3 -5 -5 -10z
m170 -20 l45 -9 -42 2 c-31 2 -43 -1 -43 -11 0 -24 -28 -42 -64 -42 -35 0 -36
1 -30 28 4 15 9 30 11 35 5 9 66 8 123 -3z m25 -30 c-28 -12 -45 -12 -45 0 0
6 15 10 33 9 27 0 29 -2 12 -9z m18 -26 c20 -4 37 -10 37 -14 0 -8 -89 6 -98
15 -7 7 15 6 61 -1z m-1621 -72 c25 -4 27 -7 22 -36 -4 -17 -7 -37 -7 -44 0
-8 -8 -11 -19 -9 -26 7 -22 -12 5 -23 12 -5 16 -9 10 -9 -19 -1 -137 40 -148
52 -7 7 -4 8 8 3 11 -3 31 -9 45 -12 l27 -5 -27 16 c-16 9 -28 17 -28 19 0 2
12 2 28 0 24 -3 23 -3 -5 6 -42 13 -54 33 -16 25 l28 -5 -30 15 -30 16 35 -5
c19 -3 46 -8 60 -11 24 -5 24 -5 3 4 -13 6 -23 13 -23 17 0 3 8 3 18 -1 9 -4
29 -10 44 -13z m-14 -129 c12 -3 25 -10 28 -15 7 -11 7 -11 -83 16 -35 10 -63
22 -63 27 0 4 21 1 48 -7 26 -9 57 -18 70 -21z m-35 -23 c21 -6 36 -14 33 -17
-8 -9 -96 27 -96 39 0 7 4 7 13 1 6 -6 29 -16 50 -23z m22 -92 c25 -12 45 -25
45 -30 0 -9 -47 10 -70 28 -8 6 -22 14 -30 17 -9 3 -10 6 -3 6 7 1 33 -9 58
-21z m-5 -29 l25 -21 -25 6 c-24 5 -24 4 -6 -9 11 -8 25 -15 32 -15 7 0 12 -9
11 -20 -1 -12 -8 -20 -19 -20 -23 0 -32 18 -11 22 11 2 2 10 -25 23 -40 19
-60 44 -25 31 15 -6 15 -5 -1 13 -17 19 -17 19 1 15 10 -3 29 -14 43 -25z
m-24 -45 c17 -14 17 -15 1 -10 -10 3 -23 6 -28 6 -5 0 -9 5 -9 10 0 14 13 12
36 -6z m14 -35 c33 -19 34 -20 7 -14 -19 4 -26 2 -22 -4 4 -7 0 -8 -10 -4 -12
4 -13 8 -5 13 9 6 7 11 -6 19 -11 6 -14 10 -9 10 6 0 26 -9 45 -20z m20 -65
c0 -2 -13 2 -30 11 -16 9 -30 18 -30 21 0 2 14 -2 30 -11 17 -9 30 -18 30 -21z
m5 26 c3 -6 -1 -7 -9 -4 -18 7 -21 14 -7 14 6 0 13 -4 16 -10z m-115 -36 c0
-2 -7 -4 -15 -4 -8 0 -15 4 -15 10 0 5 7 7 15 4 8 -4 15 -8 15 -10z m77 -10
c-3 -3 -12 -4 -19 -1 -8 3 -5 6 6 6 11 1 17 -2 13 -5z"/>
<path d="M938 1083 c6 -2 18 -2 25 0 6 3 1 5 -13 5 -14 0 -19 -2 -12 -5z"/>
<path d="M2453 1083 c20 -2 54 -2 75 0 20 2 3 4 -38 4 -41 0 -58 -2 -37 -4z"/>
<path d="M2015 1058 c1 -13 3 -29 4 -35 0 -7 6 -13 12 -13 7 0 9 10 5 27 -5
17 -3 29 6 34 9 6 7 9 -8 9 -16 0 -21 -5 -19 -22z"/>
<path d="M2643 1073 c20 -2 54 -2 75 0 20 2 3 4 -38 4 -41 0 -58 -2 -37 -4z"/>
<path d="M918 1063 c7 -3 16 -2 19 1 4 3 -2 6 -13 5 -11 0 -14 -3 -6 -6z"/>
<path d="M2523 1053 c26 -2 68 -2 95 0 26 2 4 3 -48 3 -52 0 -74 -1 -47 -3z"/>
<path d="M2728 1043 c7 -3 16 -2 19 1 4 3 -2 6 -13 5 -11 0 -14 -3 -6 -6z"/>
<path d="M2428 1033 c17 -2 47 -2 65 0 17 2 3 4 -33 4 -36 0 -50 -2 -32 -4z"/>
<path d="M2628 1023 c23 -2 61 -2 85 0 23 2 4 4 -43 4 -47 0 -66 -2 -42 -4z"/>
<path d="M898 1003 c7 -3 16 -2 19 1 4 3 -2 6 -13 5 -11 0 -14 -3 -6 -6z"/>
<path d="M1990 962 c-5 -50 4 -71 13 -34 4 16 5 16 6 0 0 -10 6 -18 11 -18 15
0 12 28 -4 37 -8 4 -16 22 -18 38 -3 22 -5 15 -8 -23z"/>
<path d="M2463 1003 c37 -2 97 -2 135 0 37 2 6 3 -68 3 -74 0 -105 -1 -67 -3z"/>
<path d="M2688 993 c12 -2 32 -2 45 0 12 2 2 4 -23 4 -25 0 -35 -2 -22 -4z"/>
<path d="M888 983 c7 -3 16 -2 19 1 4 3 -2 6 -13 5 -11 0 -14 -3 -6 -6z"/>
<path d="M2413 983 c9 -2 23 -2 30 0 6 3 -1 5 -18 5 -16 0 -22 -2 -12 -5z"/>
<path d="M978 973 c7 -3 16 -2 19 1 4 3 -2 6 -13 5 -11 0 -14 -3 -6 -6z"/>
<path d="M2583 973 c31 -2 83 -2 115 0 31 2 5 3 -58 3 -63 0 -89 -1 -57 -3z"/>
<path d="M868 963 c6 -2 18 -2 25 0 6 3 1 5 -13 5 -14 0 -19 -2 -12 -5z"/>
<path d="M2417 953 c18 -2 50 -2 70 0 21 2 7 4 -32 4 -38 0 -55 -2 -38 -4z"/>
<path d="M938 933 c7 -3 16 -2 19 1 4 3 -2 6 -13 5 -11 0 -14 -3 -6 -6z"/>
<path d="M987 920 c-3 -10 1 -26 7 -36 10 -13 12 -10 8 20 -5 41 -8 44 -15 16z"/>
<path d="M2421 926 c2 -2 45 -6 94 -8 50 -3 79 -2 65 2 -25 8 -167 13 -159 6z"/>
<path d="M668 913 c6 -2 18 -2 25 0 6 3 1 5 -13 5 -14 0 -19 -2 -12 -5z"/>
<path d="M928 913 c7 -3 16 -2 19 1 4 3 -2 6 -13 5 -11 0 -14 -3 -6 -6z"/>
<path d="M2650 914 c36 -8 100 -9 100 -2 0 5 -26 7 -57 7 -32 -1 -51 -3 -43
-5z"/>
<path d="M2443 893 c26 -2 68 -2 95 0 26 2 4 3 -48 3 -52 0 -74 -1 -47 -3z"/>
<path d="M1987 883 c-14 -13 -6 -20 18 -15 14 2 22 8 19 13 -6 11 -28 12 -37
2z"/>
<path d="M2643 883 c15 -2 39 -2 55 0 15 2 2 4 -28 4 -30 0 -43 -2 -27 -4z"/>
<path d="M2528 863 c29 -2 74 -2 100 0 26 2 2 3 -53 3 -55 0 -76 -1 -47 -3z"/>
<path d="M2698 853 c12 -2 30 -2 40 0 9 3 -1 5 -23 4 -22 0 -30 -2 -17 -4z"/>
<path d="M2418 843 c17 -2 47 -2 65 0 17 2 3 4 -33 4 -36 0 -50 -2 -32 -4z"/>
<path d="M2598 833 c28 -2 76 -2 105 0 28 2 5 3 -53 3 -58 0 -81 -1 -52 -3z"/>
<path d="M1175 820 c-3 -5 -1 -10 4 -10 6 0 11 5 11 10 0 6 -2 10 -4 10 -3 0
-8 -4 -11 -10z"/>
<path d="M2468 813 c29 -2 74 -2 100 0 26 2 2 3 -53 3 -55 0 -76 -1 -47 -3z"/>
<path d="M2381 794 c0 -11 3 -14 6 -6 3 7 2 16 -1 19 -3 4 -6 -2 -5 -13z"/>
<path d="M2688 803 c12 -2 32 -2 45 0 12 2 2 4 -23 4 -25 0 -35 -2 -22 -4z"/>
<path d="M2525 784 c44 -7 225 -9 208 -3 -10 4 -65 7 -123 7 -58 0 -96 -2 -85
-4z"/>
<path d="M2353 767 c-8 -13 -2 -14 72 -7 l70 6 -68 4 c-38 3 -71 1 -74 -3z"/>
<path d="M18 753 c12 -2 32 -2 45 0 12 2 2 4 -23 4 -25 0 -35 -2 -22 -4z"/>
<path d="M2623 753 c26 -2 67 -2 90 0 23 2 2 3 -48 3 -49 0 -68 -1 -42 -3z"/>
<path d="M1903 705 c0 -22 2 -30 4 -17 2 12 2 30 0 40 -3 9 -5 -1 -4 -23z"/>
<path d="M2688 723 c12 -2 32 -2 45 0 12 2 2 4 -23 4 -25 0 -35 -2 -22 -4z"/>
<path d="M30 710 c-19 -5 21 -6 90 -3 69 3 127 7 129 9 8 7 -184 1 -219 -6z"/>
<path d="M1128 703 c7 -3 16 -2 19 1 4 3 -2 6 -13 5 -11 0 -14 -3 -6 -6z"/>
<path d="M1643 673 c9 -2 23 -2 30 0 6 3 -1 5 -18 5 -16 0 -22 -2 -12 -5z"/>
<path d="M1578 643 c6 -2 18 -2 25 0 6 3 1 5 -13 5 -14 0 -19 -2 -12 -5z"/>
<path d="M2520 588 c0 -5 5 -8 11 -8 5 0 7 -4 4 -10 -4 -6 14 -10 47 -11 29 0
79 -2 111 -4 50 -3 57 -1 57 15 0 17 -10 19 -115 22 -63 2 -115 0 -115 -4z
m187 -14 c-3 -3 -12 -4 -19 -1 -8 3 -5 6 6 6 11 1 17 -2 13 -5z"/>
<path d="M398 533 c7 -3 16 -2 19 1 4 3 -2 6 -13 5 -11 0 -14 -3 -6 -6z"/>
<path d="M2668 533 c18 -2 45 -2 60 0 15 2 0 4 -33 4 -33 0 -45 -2 -27 -4z"/>
<path d="M102 523 c-56 -2 -102 -7 -102 -11 0 -8 60 -6 255 8 96 6 100 7 30 6
-44 0 -126 -2 -183 -3z"/>
<path d="M0 470 c0 -7 21 -9 63 -4 83 9 85 14 4 14 -40 0 -67 -4 -67 -10z"/>
<path d="M125 440 l-90 -6 100 -2 c55 -1 107 3 115 8 12 8 9 9 -10 8 -14 -1
-65 -5 -115 -8z"/>
</g>
</svg>
