<svg height="462pt" viewBox="-1 0 462 462.554" width="462pt" xmlns="http://www.w3.org/2000/svg"><path d="m342.277344 191.433594c.023437-13.457032 10.339844-24.65625 23.75-25.78125-.011719-.25-.011719-.488282-.011719-.738282-.003906-12.5625 6.386719-24.265624 16.960937-31.046874-11.367187-7.300782-25.816406-7.820313-37.679687-1.351563-11.863281 6.464844-19.253906 18.886719-19.28125 32.398437 0 .25 0 .488282.011719.738282-13.851563 1.132812-24.332032 13.011718-23.726563 26.894531.605469 13.886719 12.078125 24.808594 25.976563 24.726563h40c-14.285156.078124-25.925782-11.441407-26-25.726563zm0 0" fill="#d4e1f4"/><path d="m69.277344 73.433594c.023437-13.457032 10.339844-24.65625 23.75-25.78125-.011719-.25-.011719-.488282-.011719-.738282-.003906-12.5625 6.386719-24.265624 16.960937-31.046874-11.367187-7.300782-25.816406-7.820313-37.679687-1.351563-11.863281 6.464844-19.253906 18.886719-19.28125 32.398437 0 .25 0 .488282.011719.738282-13.851563 1.132812-24.332032 13.011718-23.726563 26.894531.605469 13.886719 12.078125 24.808594 25.976563 24.726563h40c-14.285156.078124-25.925782-11.441407-26-25.726563zm0 0" fill="#d4e1f4"/><path d="m123.246094 318.195312c-19.230469 0-21.390625-5.871093-36.789063-7.179687l-60.230469 141.539063h60l58.769532-138.113282c-6.9375 2.644532-14.324219 3.917969-21.75 3.753906zm0 0" fill="#b9f9ec"/><path d="m349.925781 332.113281c.742188.03125 1.5625.050781 2.550781.050781 4.472657.0625 8.9375-.363281 13.320313-1.265624-9.816406-2.125-14.007813-6.183594-30-6.183594-21.660156 0-21.660156 7.449218-43.320313 7.449218-.988281 0-1.808593-.019531-2.550781-.050781l-40.917969 87.070313 14.199219 33.371094h60l-14.199219-33.371094zm0 0" fill="#b9f9ec"/><path d="m342.523438 234.824219c-1.707032-3.433594-5.230469-5.589844-9.066407-5.546875-3.835937.042968-7.308593 2.273437-8.941406 5.746094l-75.054687 159.6875-95.542969-224.5c-1.570313-3.6875-5.191407-6.078126-9.199219-6.078126s-7.628906 2.390626-9.199219 6.078126l-55.566406 130.542968h-.015625v.042969l-2.679688 6.300781-57.644531 135.457032h-19.335937v20h460v-20h-14.5625zm-8.707032 27.425781 28.445313 57.261719c-.515625-.171875-1.03125-.351563-1.550781-.53125-16.121094-5.691407-33.707032-5.691407-49.824219 0-1.480469.507812-2.902344 1-4.40625 1.429687zm-37.523437 79.835938c7.214843-.230469 14.34375-1.644532 21.101562-4.191407 11.902344-4.242187 24.90625-4.242187 36.8125 0 6.164063 2.320313 12.644531 3.699219 19.222657 4.089844l49.953124 100.570313h-153.5625l-9.859374-23.167969zm-151.574219-142.425782 44.507812 104.59375c-7.289062-2.484375-14.960937-3.667968-22.660156-3.5-8.496094-.171875-16.949218 1.273438-24.910156 4.261719-5.867188 2.257813-12.125 3.335937-18.410156 3.179687-6.285156.15625-12.539063-.921874-18.40625-3.179687-1.371094-.46875-2.800782-.960937-4.351563-1.433594zm-52.125 122.472656c2.003906.511719 3.8125 1.132813 5.75 1.800782 7.953125 2.988281 16.40625 4.433594 24.902344 4.261718 8.5.171876 16.953125-1.273437 24.910156-4.261718 5.867188-2.257813 12.125-3.335938 18.410156-3.175782 6.289063-.160156 12.546875.917969 18.414063 3.175782 4.574219 1.703125 9.320312 2.910156 14.152343 3.601562l48.949219 115.027344h-206.730469zm0 0" fill="#1ae5be"/><g fill="#0635c9"><path d="m138.605469 37.273438h-2.699219c-4.664062-22.136719-24.449219-37.800782-47.070312-37.2617192-22.617188.5429692-41.632813 17.1367192-45.230469 39.4726562-16.640625 5.648437-26.734375 22.523437-23.835938 39.859375 2.898438 17.332031 17.933594 30.007812 35.507813 29.929688h83.328125c19.882812 0 36-16.117188 36-36 0-19.882813-16.117188-36-36-36zm-12.753907.050781c-2.8125.285156-5.375 1.75-7.046874 4.03125 1.652343-2.304688 4.222656-3.773438 7.046874-4.03125zm-8.65625 7.398437c-.164062.621094-.265624 1.25-.304687 1.890625.035156-.640625.136719-1.273437.304687-1.890625zm1.589844-3.339844c-.15625.214844-.300781.4375-.441406.664063.136719-.222656.285156-.445313.441406-.664063zm-.539062.820313c-.117188.203125-.222656.402344-.328125.613281.101562-.199218.210937-.40625.328125-.609375zm-.4375.832031c-.097656.214844-.191406.433594-.277344.65625.085938-.21875.179688-.4375.277344-.652344zm-.34375.832032c-.101563.269531-.183594.539062-.257813.820312.070313-.273438.15625-.546875.257813-.816406zm32.46875 40.792968c-3.011719 2.988282-7.085938 4.644532-11.328125 4.609375h-83.328125c-8.488282.011719-15.480469-6.667969-15.859375-15.148437-.375-8.480469 5.992187-15.753906 14.449219-16.496094 5.328124-.460938 9.359374-5.027344 9.152343-10.371094v-.339844c-.039062-14.875 11.988281-26.960937 26.859375-27 14.875-.039062 26.960938 11.988282 27 26.859376v.050781c-.007812.148437-.011718.300781-.011718.449219 0 5.523437 4.480468 10 10 10h11.742187c8.875.054687 16.03125 7.285156 16 16.160156 0 4.21875-1.683594 8.261718-4.675781 11.230468zm0 0"/><path d="m411.605469 155.273438h-2.699219c-4.664062-22.136719-24.449219-37.800782-47.070312-37.261719-22.617188.542969-41.632813 17.136719-45.230469 39.472656-16.640625 5.648437-26.734375 22.523437-23.835938 39.859375 2.898438 17.332031 17.933594 30.007812 35.507813 29.929688h83.328125c19.882812 0 36-16.117188 36-36 0-19.882813-16.117188-36-36-36zm-12.753907.050781c-2.8125.285156-5.375 1.75-7.046874 4.03125 1.652343-2.304688 4.222656-3.773438 7.046874-4.03125zm-8.65625 7.398437c-.164062.621094-.265624 1.25-.304687 1.890625.035156-.640625.136719-1.273437.304687-1.890625zm1.589844-3.339844c-.15625.214844-.300781.4375-.441406.664063.136719-.226563.285156-.445313.441406-.664063zm-.539062.820313c-.117188.203125-.222656.402344-.328125.613281.101562-.199218.210937-.40625.328125-.609375zm-.4375.832031c-.097656.214844-.191406.433594-.277344.65625.085938-.21875.179688-.4375.277344-.652344zm-.34375.832032c-.101563.269531-.183594.539062-.257813.820312.070313-.273438.15625-.546875.257813-.816406zm32.46875 40.792968c-3.011719 2.988282-7.085938 4.644532-11.328125 4.609375h-83.328125c-8.527344.066407-15.578125-6.628906-15.957032-15.148437-.378906-8.519532 6.046876-15.8125 14.546876-16.503906 5.328124-.460938 9.355468-5.023438 9.152343-10.367188v-.339844c-.039062-14.871094 11.988281-26.960937 26.859375-27 14.875-.039062 26.960938 11.988282 27 26.859375v.050781c-.007812.152344-.011718.300782-.011718.449219 0 5.523438 4.480468 10 10 10h11.742187c8.875.054688 16.03125 7.285157 16 16.160157 0 4.21875-1.683594 8.261718-4.675781 11.234374zm0 0"/></g></svg>