<?xml version="1.0"?>
<svg xmlns="http://www.w3.org/2000/svg" id="Layer_1" data-name="Layer 1" viewBox="0 0 512 512" width="512" height="512"><title>Entrance piller</title><polygon points="256 32.706 62.038 133 82.038 133 266 37.877 256 32.706" style="fill:#d4e1f4"/><path d="M173.019,176l-1.128,11.947a19.568,19.568,0,0,1,9.427,35.46,18.125,18.125,0,0,0-2.713-14.12c-4.324-6.177-12.488-9.06-19.415-6.855-6.029,1.919-9.752,7.561-9.714,14.427L151.4,415H138.953l4.884-198.456c0-.038,0-.176,0-.215.037-6.839-3.7-12.168-9.99-14.17a20.1,20.1,0,0,0-21.751,7.47,18,18,0,0,0-2.84,13.593,19.571,19.571,0,0,1,7.1-35.364L113.949,176.1a31.57,31.57,0,0,0,6.313,62.5,6,6,0,0,0,4.749-9.666c-2.311-3-5.783-8.592-3.082-12.452a8.243,8.243,0,0,1,8.281-2.941c1.029.327,1.627,1.056,1.629,2.771L126.95,415h-8.524c-3.314,0-6.426,2.285-6.426,5.6V442h12V427h42v15h12V420.6c0-3.314-2.831-5.6-6.145-5.6H163.4l-1.928-198.23c-.013-2.266.876-2.648,1.353-2.8a5.779,5.779,0,0,1,5.945,2.252c1.975,2.82.818,7.436-3.17,12.75A5.977,5.977,0,0,0,170.021,239h.056a31.57,31.57,0,0,0,2.942-63Z" style="fill:#1ae5be"/><path d="M394.624,175.992l-1.086,11.951A19.919,19.919,0,0,1,402.912,224a18.221,18.221,0,0,0-2.589-14.71c-4.324-6.177-12.49-9.06-19.415-6.855-6.029,1.919-9.752,7.561-9.715,14.427L373.12,415H360.594l1.963-198.166c.037-6.839-3.686-12.381-9.715-14.3a17.73,17.73,0,0,0-19.415,6.805,18.07,18.07,0,0,0-2.708,14.122,19.582,19.582,0,0,1,9.385-35.505l-1.131-11.95a31.573,31.573,0,0,0,3.006,63,6,6,0,0,0,4.75-9.667c-4.229-5.479-5.5-10.279-3.471-13.17a5.816,5.816,0,0,1,5.945-2.3c.478.153,1.366.635,1.354,2.874L348.592,415h-8.447c-3.314,0-6.145,2.285-6.145,5.6V442h12V427h42v15h12V420.6c0-3.314-3.112-5.6-6.426-5.6h-8.452l-1.929-198.23c-.012-2.266.876-2.648,1.354-2.8a5.779,5.779,0,0,1,5.945,2.252c2.024,2.891.758,7.665-3.471,13.145a5.978,5.978,0,0,0,4.75,9.634h.967c17.144,0,30.574-13.865,30.574-31.569A31.4,31.4,0,0,0,394.624,175.992Z" style="fill:#1ae5be"/><path d="M256,53.224a34.155,34.155,0,1,0,34.154,34.155A34.193,34.193,0,0,0,256,53.224Zm0,56.309a22.155,22.155,0,1,1,22.154-22.154A22.179,22.179,0,0,1,256,109.533Z" style="fill:#1ae5be"/><path d="M431,188a6,6,0,0,0,0-12H80a6,6,0,0,0,0,12Z" style="fill:#0635c9"/><path d="M456,161a6,6,0,0,0-6-6H61a6,6,0,0,0,0,12H450A6,6,0,0,0,456,161Z" style="fill:#0635c9"/><path d="M477.385,133.742,258.756,20.693a6.011,6.011,0,0,0-5.512,0L34.615,133.742A5.956,5.956,0,0,0,37.371,145H474.629a5.956,5.956,0,0,0,2.756-11.258ZM62.038,133,256,32.706,449.962,133Z" style="fill:#0635c9"/><path d="M61.533,469.884A5.794,5.794,0,0,0,66.916,473H445.084a5.734,5.734,0,0,0,4.756-9.308l-19.2-24.653A5.74,5.74,0,0,0,425.888,437H86.112a5.784,5.784,0,0,0-4.756,2.1l-19.2,24.716A5.593,5.593,0,0,0,61.533,469.884ZM89.066,449H422.934l9.964,12H79.1Z" style="fill:#0635c9"/><path d="M473,480H39a6,6,0,0,0,0,12H473a6,6,0,0,0,0-12Z" style="fill:#0635c9"/></svg>
