<svg xmlns:dc="http://purl.org/dc/elements/1.1/" xmlns:cc="http://creativecommons.org/ns#" xmlns:rdf="http://www.w3.org/1999/02/22-rdf-syntax-ns#" xmlns:svg="http://www.w3.org/2000/svg" xmlns="http://www.w3.org/2000/svg" xmlns:sodipodi="http://sodipodi.sourceforge.net/DTD/sodipodi-0.dtd" xmlns:inkscape="http://www.inkscape.org/namespaces/inkscape" version="1.1" x="0px" y="0px" viewBox="0 0 100 125"><g transform="translate(0,-952.36218)"><path style="text-indent:0;text-transform:none;direction:ltr;block-progression:tb;baseline-shift:baseline;color:#000000;enable-background:accumulate;" d="m 49.679636,958.53203 a 1.9955657,1.9956395 0 0 0 -1.777122,2.02661 l 0,13.96808 a 1.9955657,1.9956395 0 1 0 3.990731,0 l 0,-13.96808 a 1.9955657,1.9956395 0 0 0 -2.213609,-2.02661 z M 22.7422,968.50922 a 1.9955657,1.9956395 0 0 0 -1.340637,3.27377 l 8.979146,10.97492 a 2.0061155,2.0061897 0 1 0 3.117759,-2.52548 L 24.519322,969.25751 A 1.9955657,1.9956395 0 0 0 22.7422,968.50922 z m 53.843695,0 a 1.9955657,1.9956395 0 0 0 -1.309458,0.74829 l -8.979146,11.0061 a 2.0061155,2.0061897 0 1 0 3.117759,2.52548 l 8.979146,-11.0061 a 1.9955657,1.9956395 0 0 0 -1.808301,-3.27377 z M 42.13466,986.49936 c -0.338962,-0.003 -0.691257,0.002 -1.028861,0.0312 -2.700832,0.23078 -5.438104,1.41888 -7.576154,3.52319 -4.282727,4.21515 -4.730254,10.59185 -1.091215,14.71635 l 14.965242,16.9612 c 0.418575,0.4744 0.863789,0.859 1.060038,1.0601 a 1.9955657,1.9956395 0 0 0 2.868339,0 c 0.196246,-0.2011 0.641463,-0.5857 1.060038,-1.0601 l 14.965242,-16.9612 c 3.639039,-4.1245 3.191512,-10.5012 -1.091215,-14.71635 -2.138052,-2.10431 -4.875293,-3.29238 -7.576155,-3.52319 -2.700861,-0.23082 -5.514887,0.52848 -7.326733,2.65019 l -1.465347,1.71481 -1.465346,-1.71483 c -1.58544,-1.85634 -3.925143,-2.66161 -6.297873,-2.68137 z m -0.685907,3.99088 c 1.740356,-0.14871 3.139634,0.3548 3.928376,1.27832 l 2.993049,3.5232 a 1.9955657,1.9956395 0 0 0 3.055403,0 l 2.993049,-3.5232 c 0.788633,-0.92351 2.188,-1.42705 3.928376,-1.27832 1.740376,0.14873 3.672215,0.98258 5.113125,2.40076 3.023168,2.97546 3.133688,6.70201 0.90415,9.2289 l -14.466402,16.4 -14.466401,-16.4 c -2.229538,-2.52689 -2.119018,-6.25344 0.90415,-9.2289 1.440912,-1.41818 3.372769,-2.25205 5.113125,-2.40076 z M 7.8081348,993.4834 a 1.9955657,1.9956395 0 0 0 -0.2182432,3.9597 l 13.9675594,2.9932 a 2.0055941,2.0056683 0 0 0 0.810618,-3.92857 L 8.4005089,993.51457 a 1.9955657,1.9956395 0 0 0 -0.5923741,-0.0312 z m 83.8988912,0 a 1.9955657,1.9956395 0 0 0 -0.311776,0.0312 l -13.96756,2.99316 a 2.0055941,2.0056683 0 0 0 0.810618,3.92854 l 13.967559,-2.99317 a 1.9955657,1.9956395 0 0 0 -0.498841,-3.9597 z m -66.657685,21.9187 a 1.9955657,1.9956395 0 0 0 -1.091215,0.3117 l -11.972194,6.9529 a 1.9973958,1.9974696 0 0 0 1.995365,3.4608 l 11.972194,-6.984 a 1.9955657,1.9956395 0 0 0 -0.90415,-3.7414 z m 49.665899,0 a 1.9955657,1.9956395 0 0 0 -0.872972,3.7414 l 11.972194,6.984 a 1.9973958,1.9974696 0 0 0 1.995365,-3.4608 l -11.972194,-6.9529 a 1.9955657,1.9956395 0 0 0 -1.122393,-0.3117 z m -35.012432,13.968 a 1.9955657,1.9956395 0 0 0 -1.68359,1.4342 l -3.990731,12.9704 a 1.9955657,1.9956395 0 1 0 3.803666,1.1536 l 3.990731,-12.9392 a 1.9955657,1.9956395 0 0 0 -2.120076,-2.619 z m 19.922479,0 a 1.9955657,1.9956395 0 0 0 -1.652412,2.619 l 3.990731,12.9392 a 1.9955657,1.9956395 0 1 0 3.803666,-1.1536 l -3.990731,-12.9704 a 1.9955657,1.9956395 0 0 0 -2.151254,-1.4342 z" fill="#000000" fill-opacity="1" fill-rule="nonzero" stroke="none" marker="none" visibility="visible" display="inline" overflow="visible"/></g><text x="0" y="115" fill="#000000" font-size="5px" font-weight="bold" font-family="'Helvetica Neue', Helvetica, Arial-Unicode, Arial, Sans-serif">Created by nauraicon</text><text x="0" y="120" fill="#000000" font-size="5px" font-weight="bold" font-family="'Helvetica Neue', Helvetica, Arial-Unicode, Arial, Sans-serif">from the Noun Project</text></svg>