<svg id="Layer_1" enable-background="new 0 0 512 512" height="512" viewBox="0 0 512 512" width="512" xmlns="http://www.w3.org/2000/svg"><path d="m96 312.5v-.5h-30v.5 44.5h20v140h30v-141h-20z" fill="#d4e1f4"/><g id="XMLID_4_" fill="#0635c9"><path id="XMLID_33_" d="m300.7 183.4h14.3c3.3 0 6-2.7 6-6s-2.7-6-6-6h-14.3c-3.3 0-6 2.7-6 6s2.7 6 6 6z"/><path id="XMLID_34_" d="m247.4 183.4h32.4c3.3 0 6-2.7 6-6s-2.7-6-6-6h-32.4c-3.3 0-6 2.7-6 6s2.7 6 6 6z"/><path id="XMLID_35_" d="m315 201.2h-47.4c-3.3 0-6 2.7-6 6s2.7 6 6 6h47.4c3.3 0 6-2.7 6-6s-2.6-6-6-6z"/><path id="XMLID_36_" d="m233.4 213.2h13.6c3.3 0 6-2.7 6-6s-2.7-6-6-6h-13.6c-3.3 0-6 2.7-6 6s2.7 6 6 6z"/><path id="XMLID_37_" d="m203.1 213.2h9.1c3.3 0 6-2.7 6-6s-2.7-6-6-6h-9.1c-3.3 0-6 2.7-6 6s2.6 6 6 6z"/><path id="XMLID_38_" d="m315 231.1h-10.4c-3.3 0-6 2.7-6 6s2.7 6 6 6h10.4c3.3 0 6-2.7 6-6s-2.6-6-6-6z"/><path id="XMLID_39_" d="m284.1 231.1h-20c-3.3 0-6 2.7-6 6s2.7 6 6 6h20c3.3 0 6-2.7 6-6s-2.7-6-6-6z"/><path id="XMLID_40_" d="m242 231.1h-38.9c-3.3 0-6 2.7-6 6s2.7 6 6 6h38.9c3.3 0 6-2.7 6-6s-2.7-6-6-6z"/></g><g id="XMLID_2_" fill="#1ae5be"><path id="XMLID_12_" d="m452 312.5c0-1-.2-2-.7-3l-26.9-51.9c-3.4-6.6-10.2-10.8-17.7-10.8l-71-.4-.1 12 71 .4c3 0 5.7 1.7 7.1 4.3l22.3 43.2h-358.6l31.6-45.7c1.5-2.2 4-3.5 6.6-3.4l60.5.3.1-12-60.5-.3c-6.6 0-12.8 3.2-16.6 8.6l-38.1 55.1c-.8 1.1-1.1 2.4-1.1 3.6v44.8c0 3.3 2.7 6 6 6h14v133.4c0 3.3 2.7 6 6 6h340c3.3 0 6-2.7 6-6v-133.5h14c3.3 0 6-2.7 6-6zm-32 178.1h-328v-127.4h328zm-348-139.4v-33h368v33z"/><path id="XMLID_6_" d="m371.7 289.9-8-25.7c-.8-2.5-3.1-4.2-5.7-4.2h-21.7v12h17.3l4.3 13.7h-203.7l4.3-13.7h17.3v-12h-21.8c-2.6 0-4.9 1.7-5.7 4.2l-8 25.7c-.6 1.8-.2 3.8.9 5.3s2.9 2.4 4.8 2.4h220c1.9 0 3.7-.9 4.8-2.4s1.5-3.5.9-5.3z"/><path id="XMLID_15_" d="m119 395c3.3 0 6-2.7 6-6v-8c0-3.3-2.7-6-6-6s-6 2.7-6 6v8c0 3.3 2.7 6 6 6z"/><path id="XMLID_16_" d="m119 480c3.3 0 6-2.7 6-6v-67c0-3.3-2.7-6-6-6s-6 2.7-6 6v67c0 3.3 2.7 6 6 6z"/></g><path id="XMLID_10_" d="m335.8 122.3h-86.5v-15.9c0-10.4-4.7-17.9-13.9-22.2-5.7-2.7-10.2-7.7-12.2-13.9-.7-2.2-1.1-4.6-1.1-6.9h3.2c5.5 0 10-4.5 10-10v-34c0-5.5-4.5-10-10-10h-93c-5.5 0-10 4.5-10 10v34.1c0 5.5 4.5 10 10 10h.6v3.7c0 10.6-2.7 20.8-7.9 29.5-.2.3-.4.7-.6 1-7.1 11.4-7.7 24-7.7 37v33.6c0 9.6 7.8 17.5 17.5 17.5 3.1 0 6.1-.8 8.6-2.3 3.2 4.6 8.4 7.6 14.4 7.6 4.5 0 8.5-1.7 11.6-4.5.5.5 1.1.9 1.7 1.3v87.9c0 3.3 2.7 6 6 6h159.5c3.3 0 6-2.7 6-6v-147.5c-.2-3.3-2.9-6-6.2-6zm-201.7-100.9h89v30.1h-89zm40.3 151.8v-17.6c0-3.3-2.7-6-6-6s-6 2.7-6 6v17.6.4c0 3-2.5 5.5-5.5 5.5s-5.5-2.5-5.5-5.5v-18.1c0-3.3-2.7-6-6-6s-6 2.7-6 6v12.9c0 3-2.5 5.5-5.5 5.5s-5.5-2.5-5.5-5.5v-33.6c0-11.6.4-21.9 5.9-30.7.2-.4.5-.8.7-1.2 6.3-10.6 9.6-22.9 9.6-35.6v-3.7h65.3c0 3.6.6 7.2 1.7 10.7 3 9.3 9.8 17 18.6 21 4.2 1.9 7 4.6 7 11.3v15.9h-9.7c-.7-2.8-3.4-4.8-6.5-4.5-7.6.8-13.3 7.2-13.3 14.8v41.7c0 2.6-2.1 4.8-4.8 4.8s-4.8-2.1-4.8-4.8l-.1-24c0-3.3-2.7-6-6-6s-6 2.7-6 6v22.9c0 3.2-2.6 5.9-5.9 5.9s-5.7-2.9-5.7-6.1zm155.4 96.6h-147.6v-78.8c3.7-.4 7-1.9 9.7-4.2 3 2.6 6.9 4.3 11.2 4.3 9.3 0 16.8-7.5 16.8-16.8v-40h109.9z" fill="#0635c9"/></svg>