<?xml version="1.0" standalone="no"?>
<!DOCTYPE svg PUBLIC "-//W3C//DTD SVG 20010904//EN"
 "http://www.w3.org/TR/2001/REC-SVG-20010904/DTD/svg10.dtd">
<svg version="1.0" xmlns="http://www.w3.org/2000/svg"
 width="225.000000pt" height="225.000000pt" viewBox="0 0 225.000000 225.000000"
 preserveAspectRatio="xMidYMid meet">
<metadata>
Created by potrace 1.16, written by Peter Selinger 2001-2019
</metadata>
<g transform="translate(0.000000,225.000000) scale(0.100000,-0.100000)"
fill="#000000" stroke="none">
<path d="M865 2049 c-55 -3 -92 -6 -82 -7 9 -1 17 -9 17 -17 0 -11 -11 -15
-40 -15 -22 0 -40 5 -40 10 0 6 5 10 12 10 6 0 9 3 6 6 -3 3 -14 1 -25 -5 -10
-5 -58 -13 -108 -17 -90 -7 -90 -7 -40 -16 28 -4 61 -6 75 -3 17 4 21 3 11 -3
-9 -7 -4 -11 20 -14 19 -3 39 -6 44 -8 25 -6 116 1 110 9 -3 6 3 10 12 10 10
0 65 7 123 15 58 8 110 15 115 15 23 -2 -43 -17 -75 -18 l-35 -1 29 -15 c16
-9 31 -13 34 -10 3 3 -1 5 -9 6 -8 1 2 5 21 9 19 5 49 7 65 4 29 -4 29 -3 5 6
-39 15 38 6 135 -15 44 -10 98 -20 120 -24 38 -6 36 -7 -30 -14 -107 -11 -195
-9 -195 4 0 8 -5 7 -15 -1 -12 -10 -19 -10 -27 -2 -17 17 -48 15 -54 -3 -7
-17 -49 -20 -59 -5 -9 14 -35 12 -32 -2 1 -10 -22 -13 -90 -13 -50 0 -89 -3
-87 -7 7 -11 -36 -21 -101 -24 -33 -1 -60 -3 -60 -4 0 -1 -69 -2 -153 -4 -112
-2 -158 1 -170 11 -20 15 -36 17 -27 3 9 -15 -42 -23 -93 -15 -76 12 -126 10
-117 -4 3 -5 -7 -11 -22 -13 -26 -3 -28 -7 -31 -50 l-3 -46 38 -5 c21 -3 45
-6 53 -6 40 1 147 -14 162 -22 9 -5 28 -9 42 -9 39 0 38 -15 -3 -38 -28 -16
-40 -19 -49 -10 -9 9 -23 9 -60 -1 -26 -6 -56 -9 -67 -5 -14 6 -16 4 -10 -6 6
-10 1 -12 -26 -7 -19 3 -45 9 -58 13 -17 5 -22 4 -17 -4 4 -7 15 -12 24 -12 9
-1 35 -9 57 -20 22 -11 46 -19 53 -20 21 0 -70 -128 -97 -135 -18 -5 -21 -9
-12 -15 10 -6 9 -12 -8 -29 -18 -18 -21 -32 -19 -68 l3 -46 25 26 c25 27 54
35 64 18 3 -5 -1 -11 -9 -15 -8 -3 -15 -1 -15 5 0 6 -5 7 -10 4 -6 -3 -10 -10
-10 -14 0 -9 72 -33 79 -26 2 3 -1 5 -7 5 -18 0 -14 17 6 23 9 2 26 8 37 12
20 8 20 7 1 -7 -19 -15 -19 -15 8 -15 16 0 31 -4 35 -9 3 -5 13 -8 21 -8 8 1
26 3 40 4 23 1 23 2 5 10 -20 9 -20 9 1 9 11 1 25 6 32 13 7 7 12 8 12 2 0 -5
-5 -15 -12 -22 -17 -17 6 -62 31 -62 24 0 36 16 20 26 -16 10 11 25 34 18 12
-4 20 2 26 18 7 19 10 20 16 7 5 -14 10 -15 31 -5 13 6 24 19 24 29 0 15 10
21 26 15 3 -2 14 13 25 32 10 19 18 29 19 23 0 -7 7 -13 15 -13 19 0 19 7 0
26 -19 19 -11 62 16 85 10 9 15 19 12 23 -12 11 43 6 138 -13 52 -11 136 -22
187 -26 51 -4 105 -10 121 -15 19 -5 33 -4 40 3 21 21 11 28 -36 23 -27 -3
-39 -3 -29 0 11 4 26 12 34 20 7 8 24 14 38 14 23 0 24 -3 24 -52 0 -29 1 -66
3 -83 2 -16 -1 -46 -6 -65 -6 -19 -10 -45 -9 -57 1 -13 -2 -23 -6 -23 -4 0 -8
-10 -8 -22 -4 -74 -23 -123 -68 -170 -14 -16 -32 -28 -41 -28 -10 0 -13 -5 -9
-12 5 -8 0 -9 -16 -5 -15 4 -32 -1 -48 -14 -18 -13 -29 -16 -36 -9 -17 17 -36
11 -36 -10 0 -25 -127 -87 -149 -73 -21 13 -25 23 -70 168 -64 203 -85 265
-91 265 -3 0 -5 -13 -5 -29 0 -16 2 -28 4 -25 7 6 30 -44 36 -80 6 -31 5 -33
-37 -48 -75 -28 -119 -40 -124 -35 -3 3 8 8 25 12 17 4 29 11 25 16 -3 5 9 9
26 9 36 0 88 34 69 46 -6 4 -16 -1 -21 -10 -6 -11 -16 -15 -29 -11 -11 4 -26
2 -33 -4 -17 -14 -173 -51 -217 -51 -19 0 -40 -5 -46 -11 -7 -7 -23 -13 -36
-14 -20 -2 -28 3 -38 26 -7 19 -17 28 -25 25 -8 -3 -14 0 -15 7 0 7 -5 3 -10
-8 -7 -15 -8 -10 -3 18 3 24 2 37 -5 33 -5 -3 -11 0 -13 6 -3 8 -12 0 -21 -17
-21 -38 -22 -28 -2 19 14 33 14 39 0 64 -13 22 -15 23 -10 5 5 -17 3 -21 -7
-18 -12 5 -15 -26 -17 -169 l-2 -175 46 3 c31 2 45 0 42 -8 -2 -6 -21 -11 -43
-11 l-39 0 -3 -152 c-2 -132 0 -153 13 -153 8 0 15 -5 15 -11 0 -6 -7 -9 -15
-5 -8 3 -15 1 -15 -3 0 -5 6 -12 13 -14 9 -4 9 -6 0 -6 -9 -1 -12 -75 -12
-301 l-1 -300 273 0 c199 0 276 3 285 12 8 8 12 8 12 1 0 -6 11 -11 25 -11 23
0 24 2 8 13 -10 8 -15 16 -12 19 10 10 39 -5 39 -19 0 -9 11 -13 33 -12 39 2
45 24 10 33 -12 4 -23 10 -23 15 0 14 18 11 45 -7 17 -11 25 -13 25 -4 0 6 -9
14 -20 17 -18 5 -18 6 -3 22 9 9 19 16 23 16 10 0 63 45 58 50 -2 2 -20 -6
-39 -19 -19 -13 -44 -26 -57 -30 -12 -4 -20 -11 -17 -16 3 -5 -3 -8 -12 -8
-10 0 -30 -2 -44 -6 -19 -6 -28 -3 -32 8 -4 9 -2 16 2 16 5 0 18 3 28 6 15 5
15 4 3 -5 -21 -15 -5 -14 37 4 20 8 34 18 30 21 -3 3 -15 0 -27 -6 -20 -11
-21 -10 -10 10 6 12 17 23 25 26 14 6 28 44 15 44 -4 0 -24 -7 -45 -16 -20 -8
-42 -13 -48 -10 -9 3 -9 5 0 5 7 1 10 7 7 15 -6 17 27 31 36 16 5 -8 9 -6 13
5 4 9 3 14 -2 11 -5 -3 -12 1 -15 10 -3 8 -2 12 4 9 6 -3 10 -1 10 4 0 6 6 11
14 11 20 0 8 37 -17 55 -12 8 -16 15 -10 15 18 0 63 52 63 72 0 10 -3 18 -6
18 -9 0 -68 -43 -72 -52 -2 -4 -10 -8 -18 -8 -8 0 -14 -5 -14 -11 0 -6 -7 -9
-14 -6 -9 4 -13 1 -11 -6 3 -7 -13 -21 -35 -31 -22 -11 -40 -25 -40 -33 0 -7
-12 -13 -27 -14 -24 0 -25 -1 -8 -8 16 -7 12 -10 -25 -18 -25 -5 -58 -6 -75
-4 l-30 6 28 3 c15 2 25 7 22 12 -2 4 17 17 43 29 55 26 76 38 117 67 17 12
40 24 52 28 11 4 26 13 32 20 9 11 6 13 -18 11 -17 -1 -36 -7 -43 -13 -7 -6
-35 -16 -61 -23 -32 -8 -44 -15 -36 -20 10 -6 9 -10 -5 -15 -13 -5 -24 0 -37
17 -10 13 -21 20 -26 15 -4 -5 -2 -11 5 -13 20 -7 -16 -43 -42 -43 -20 1 -20
1 3 21 29 24 20 37 -15 21 -14 -7 -23 -8 -19 -2 3 6 -4 10 -19 10 -13 0 -31 3
-40 6 -29 11 -16 24 24 24 22 0 40 5 40 10 0 6 9 10 20 10 23 0 27 18 5 26
-23 9 -7 24 25 24 32 0 43 10 31 28 -5 8 -16 9 -41 2 -24 -7 -36 -6 -41 2 -5
7 -33 11 -76 10 -37 0 -76 1 -86 4 -26 8 0 29 46 38 50 9 48 29 -3 24 -55 -5
-64 30 -19 74 23 23 35 23 42 1 2 -10 8 -26 12 -36 5 -13 3 -16 -8 -11 -8 3
-18 0 -23 -7 -4 -7 -3 -10 2 -7 17 10 56 -11 50 -28 -3 -8 -2 -12 4 -9 6 3 10
1 10 -4 0 -18 38 -12 42 7 2 9 0 31 -4 47 -5 17 -10 42 -12 56 -4 23 -1 25 20
21 13 -2 29 -10 35 -18 18 -22 29 -16 29 16 0 36 41 63 62 42 17 -17 29 -15
26 5 -2 10 7 22 22 30 22 11 27 10 49 -13 29 -31 46 -20 31 21 -6 15 -9 29 -8
30 12 10 70 35 81 35 8 0 18 7 21 16 4 9 11 12 18 7 22 -14 78 -31 78 -24 0 4
-6 13 -12 21 -11 12 -10 12 2 4 39 -27 129 -102 125 -105 -2 -2 6 -4 18 -5 12
-1 53 -13 92 -27 60 -23 154 -47 193 -50 8 0 12 -19 12 -59 0 -66 -38 -420
-46 -428 -3 -2 -3 33 -1 80 3 47 1 94 -4 105 -7 18 -8 18 -8 -5 1 -29 -18
-151 -26 -171 -3 -8 -11 -49 -19 -92 l-13 -77 453 0 c288 1 454 5 454 11 0 5
-7 26 -15 46 -8 19 -15 44 -15 55 0 10 -4 17 -9 13 -6 -3 -13 11 -16 32 -4 21
-10 49 -15 63 -5 14 -11 34 -13 45 -4 17 -5 17 -6 -3 -2 -45 -26 -17 -25 29 0
24 -1 38 -3 32 -8 -23 -25 -14 -18 10 5 18 3 17 -10 -5 -17 -30 -30 -35 -38
-15 -3 6 -6 2 -6 -10 -1 -24 -30 -33 -32 -10 -4 44 5 91 25 139 9 21 16 46 16
57 0 20 61 51 100 51 11 0 20 4 20 10 0 11 28 9 48 -4 7 -4 11 -15 7 -23 -3
-9 1 -26 10 -39 8 -12 19 -44 25 -71 6 -26 24 -75 41 -109 16 -34 29 -67 29
-73 0 -7 9 -29 20 -50 16 -33 17 -43 7 -65 -14 -29 -33 -40 -43 -24 -4 7 -3 8
4 4 8 -4 12 0 12 11 -1 23 -35 98 -49 107 -6 4 -11 17 -11 29 0 13 -6 31 -14
42 -7 11 -13 27 -14 35 -2 58 -17 140 -25 140 -6 0 -7 -16 -2 -42 8 -48 16
-183 11 -177 -12 14 -46 137 -57 206 -7 46 -15 83 -18 83 -9 0 -3 -100 8 -129
5 -14 9 -33 10 -41 1 -58 12 -112 35 -162 9 -21 16 -41 16 -45 0 -4 12 -41 26
-80 20 -55 31 -73 45 -73 13 0 19 7 20 23 l0 22 9 -22 c10 -24 52 -33 49 -10
-5 42 20 52 36 14 8 -17 20 -23 53 -25 l42 -3 0 281 0 282 -37 -30 -37 -30
-38 26 c-26 17 -38 32 -38 48 0 13 -8 28 -17 33 -15 9 -16 10 -2 11 18 0 19 6
19 104 0 74 -9 93 -49 101 -36 7 -51 25 -45 50 4 16 0 26 -11 33 -16 8 -15 11
6 25 l23 17 -22 20 c-11 11 -29 20 -38 20 -15 0 -16 10 -10 90 9 119 16 133
79 154 29 10 63 26 77 35 28 19 121 56 132 53 4 -1 7 160 8 357 l0 359 -102 7
c-57 3 -132 6 -168 6 -36 -1 -279 0 -540 1 -261 2 -520 0 -575 -3z m895 -199
c0 -5 7 -6 17 -3 11 4 14 3 9 -5 -4 -7 -13 -12 -21 -12 -7 0 -16 -12 -20 -27
-12 -49 -22 -54 -86 -47 -36 4 -59 3 -59 -3 0 -5 -15 -7 -32 -4 l-33 5 35 6
35 7 -50 13 c-27 7 -43 16 -35 18 8 3 20 11 25 17 9 12 66 25 123 28 12 1 22
5 22 10 0 4 16 7 35 7 19 0 35 -4 35 -10z m-329 -26 c7 -8 26 -21 43 -28 30
-13 30 -13 -39 -21 -49 -5 -78 -4 -100 5 -16 7 -39 11 -50 10 -60 -5 -245 -4
-245 3 0 4 19 7 43 7 23 0 71 5 107 10 41 6 66 6 68 0 5 -15 22 -12 20 3 -2 7
14 14 42 18 79 10 97 9 111 -7z m-1001 -129 c44 -9 142 -24 149 -23 3 0 16 0
29 -1 19 -1 21 -3 10 -15 -7 -8 -16 -12 -20 -9 -4 2 -5 -3 -2 -11 4 -11 0 -16
-12 -16 -9 0 -14 -3 -11 -6 16 -17 -15 -42 -60 -49 -26 -4 -52 -10 -58 -13 -5
-4 -13 -7 -17 -8 -5 -1 -10 -3 -13 -4 -3 -1 -8 -3 -12 -4 -5 -1 -23 -8 -42
-15 -26 -11 -37 -12 -52 -2 -16 9 -21 9 -25 -4 -7 -18 -31 -20 -37 -2 -3 10
-9 10 -26 0 -11 -7 -23 -13 -26 -13 -4 0 -3 6 2 13 4 6 -4 4 -19 -5 -15 -10
-43 -16 -67 -15 -36 1 -39 3 -26 17 7 8 25 35 38 59 22 39 33 47 84 63 32 10
66 18 76 18 10 0 15 5 12 10 -4 6 4 19 17 30 23 20 32 20 108 5z m1312 -127
c-2 -11 3 -18 13 -18 34 0 6 -25 -41 -38 -27 -7 -65 -17 -84 -22 -193 -49
-467 -80 -411 -46 16 10 14 26 -3 26 -8 0 -16 7 -20 15 -4 10 1 15 17 16 21 0
21 1 2 9 l-20 9 20 1 c85 5 214 19 230 25 16 5 17 5 5 -4 -8 -5 -11 -13 -8
-16 4 -4 15 3 25 14 19 23 33 27 33 10 0 -5 -6 -7 -12 -3 -10 5 -10 4 -1 -6
10 -11 16 -11 31 3 10 9 25 17 33 17 12 0 11 -2 -1 -10 -11 -7 -5 -8 19 -3 22
4 32 3 28 -4 -4 -6 3 -8 18 -5 14 2 25 9 25 14 0 5 -9 7 -19 3 -11 -3 -22 -1
-26 4 -3 7 0 8 9 5 9 -3 16 -1 16 4 0 14 27 20 80 19 37 -2 44 -5 42 -19z
m-1228 -54 c23 -9 19 -32 -6 -40 -13 -4 -32 -15 -43 -25 -57 -53 -71 -60 -105
-58 -19 1 -52 -2 -73 -6 -22 -4 -42 -3 -50 3 -10 8 -47 9 -67 2 -15 -5 -97 3
-113 12 -20 10 -17 35 3 30 6 -1 14 7 17 18 5 20 23 28 23 10 0 -14 27 -13 32
1 3 9 22 9 71 2 51 -7 67 -7 67 3 0 6 7 14 15 18 8 3 15 1 15 -4 0 -6 9 -10
21 -10 11 0 17 5 14 10 -9 14 10 20 83 24 34 2 66 6 69 10 8 7 8 7 27 0z
m1406 -15 c0 -6 -4 -7 -10 -4 -15 9 -12 -7 5 -32 12 -17 23 -21 60 -18 34 2
45 -1 45 -12 0 -8 14 -20 30 -26 17 -6 30 -15 30 -20 0 -10 73 3 80 14 3 4 12
4 20 -1 11 -7 11 -10 2 -10 -19 0 -55 -37 -48 -49 3 -5 -4 -13 -16 -16 -13 -4
-31 -14 -40 -22 -13 -12 -24 -13 -46 -5 -27 9 -29 8 -25 -9 5 -18 2 -20 -29
-23 -6 -1 -13 9 -14 22 -3 17 3 25 21 32 14 5 25 14 25 20 0 6 -4 8 -10 5 -5
-3 -10 2 -11 12 0 16 -1 16 -9 -2 -5 -11 -9 -15 -9 -10 -1 6 -6 3 -11 -5 -8
-13 -10 -12 -10 3 0 11 10 27 23 38 19 16 20 20 7 29 -21 14 -37 13 -22 -2 15
-15 15 -28 1 -28 -12 0 -44 30 -32 30 4 0 2 4 -5 8 -7 5 -14 18 -17 30 -2 12
-6 26 -9 31 -8 13 4 42 15 35 5 -3 9 -10 9 -15z m-231 -547 c-5 -13 -9 -36 -9
-51 0 -15 -5 -32 -10 -37 -13 -13 -1 -74 14 -75 6 -1 26 -1 43 -1 49 -1 58
-18 47 -93 -6 -36 -6 -65 -2 -65 4 0 8 11 8 24 0 13 3 32 6 41 9 23 24 0 23
-35 0 -23 -1 -23 -9 -5 -8 18 -9 17 -9 -7 -1 -16 5 -28 12 -29 29 -1 -35 -18
-89 -23 -36 -3 -47 -2 -29 3 l30 7 -33 8 c-18 4 -36 15 -39 24 -2 10 -9 27
-15 38 -5 12 -7 48 -4 80 3 33 9 96 13 140 5 55 14 88 26 101 9 11 18 33 18
49 1 18 4 10 9 -21 4 -27 3 -60 -1 -73z"/>
</g>
</svg>
