<?xml version="1.0" standalone="no"?>
<!DOCTYPE svg PUBLIC "-//W3C//DTD SVG 20010904//EN"
 "http://www.w3.org/TR/2001/REC-SVG-20010904/DTD/svg10.dtd">
<svg version="1.0" xmlns="http://www.w3.org/2000/svg"
 width="275.000000pt" height="183.000000pt" viewBox="0 0 275.000000 183.000000"
 preserveAspectRatio="xMidYMid meet">
<metadata>
Created by potrace 1.16, written by Peter Selinger 2001-2019
</metadata>
<g transform="translate(0.000000,183.000000) scale(0.100000,-0.100000)"
fill="#000000" stroke="none">
<path d="M0 1815 c0 -12 9 -15 35 -13 50 3 55 -10 6 -18 -25 -4 -41 -12 -41
-20 0 -8 4 -14 9 -14 5 0 11 -13 13 -29 3 -21 1 -28 -9 -24 -9 4 -13 -5 -13
-30 0 -31 2 -34 25 -29 22 4 25 9 25 49 l0 44 48 -6 c77 -10 92 -15 92 -29 0
-8 8 -17 18 -19 16 -4 16 -5 0 -6 -28 -2 -22 -31 6 -31 19 0 22 4 18 25 -2 14
-11 25 -19 25 -10 0 -12 6 -8 20 5 16 2 20 -16 20 -45 0 -149 22 -149 32 0 6
13 8 33 4 21 -4 48 -1 70 9 34 14 36 14 42 -5 9 -29 33 -26 28 4 -5 23 -3 24
84 30 48 3 95 5 103 5 8 0 119 -1 246 -2 171 -1 230 1 227 9 -3 9 -123 12
-439 13 -387 1 -434 0 -434 -14z"/>
<path d="M1780 1822 c0 -4 25 -8 56 -9 31 -2 62 -7 68 -11 20 -16 76 -22 101
-10 18 8 28 8 39 -1 8 -7 23 -10 33 -7 52 16 283 2 299 -19 12 -16 130 -20
139 -4 4 5 -19 9 -54 9 -34 0 -61 4 -61 10 0 6 -26 10 -57 10 -41 1 -53 3 -42
10 8 5 56 7 105 4 49 -2 146 -6 217 -8 117 -2 127 -1 127 15 0 18 -24 18 -485
18 -267 0 -485 -3 -485 -7z"/>
<path d="M2135 1719 c-44 -3 -74 -6 -67 -7 6 -1 12 -6 12 -12 0 -5 -7 -7 -15
-4 -8 4 -15 1 -15 -5 0 -6 9 -11 20 -11 10 0 23 -7 28 -16 6 -11 14 -14 23 -8
19 12 99 14 99 3 0 -5 13 -9 29 -9 25 0 28 -3 23 -22 -4 -17 -2 -20 12 -15 10
4 26 7 37 7 12 0 19 7 19 20 0 17 7 20 53 20 57 0 236 25 245 34 10 11 -116 6
-145 -5 -41 -16 -173 -16 -202 0 -21 12 -26 11 -36 -3 -17 -22 -23 -20 -32 12
l-8 27 -80 -6z"/>
<path d="M1290 1699 c-52 -3 -125 -6 -161 -5 -49 1 -65 -2 -62 -11 3 -7 0 -13
-5 -13 -6 0 -13 8 -15 18 -4 16 -5 16 -6 0 0 -10 -7 -18 -13 -18 -10 0 -10 -2
-1 -8 7 -4 63 -9 125 -10 66 -1 114 -6 116 -12 6 -18 22 -11 22 9 0 11 5 23
11 26 6 4 73 8 150 10 77 1 142 5 145 8 9 9 -200 13 -306 6z"/>
<path d="M1416 1593 c-7 -8 -16 -9 -80 -12 -28 -1 -29 -2 -10 -15 39 -29 34
-29 -302 -41 -178 -6 -202 -5 -207 9 -8 21 -139 24 -135 4 5 -21 -96 -26 -387
-20 l-270 5 1 -84 c1 -112 -6 -210 -15 -205 -4 3 -8 -13 -8 -34 -1 -22 2 -42
7 -45 6 -3 6 -15 0 -29 -5 -13 -9 -56 -9 -95 0 -54 3 -71 14 -71 7 0 16 6 18
13 4 10 6 10 6 0 1 -8 14 -13 34 -12 27 0 29 2 12 9 -23 10 -23 10 32 14 41 2
57 -7 31 -17 -7 -2 -1 -8 14 -12 15 -4 32 -4 37 0 12 7 15 26 4 24 -27 -4 -31
3 -12 22 17 17 23 19 30 8 4 -8 6 -24 2 -36 -7 -29 10 -30 63 -4 l39 20 -45
-5 -45 -4 52 13 c28 8 66 11 85 8 l33 -5 -35 -7 c-25 -4 -11 -7 47 -8 76 -1
82 -3 80 -21 -1 -14 -6 -19 -17 -14 -29 12 -167 16 -186 5 -15 -8 -8 -10 38
-11 31 0 65 -3 75 -6 15 -5 15 -4 3 5 -19 14 -6 13 45 0 52 -15 194 -17 192
-4 -3 14 53 6 77 -11 28 -19 34 -18 29 9 -4 20 -11 23 -61 25 -31 1 -70 6 -87
11 -25 8 -18 10 45 11 41 1 82 4 90 8 12 6 15 34 16 154 2 143 1 147 -20 152
-11 3 9 3 47 0 l67 -5 0 28 c2 110 6 133 26 151 21 20 104 37 104 21 0 -5 -9
-9 -20 -9 -18 0 -19 -5 -13 -87 3 -49 6 -89 7 -89 0 -1 11 -5 24 -8 16 -6 22
-3 22 8 0 18 114 24 312 16 166 -7 223 -3 209 14 -9 11 -3 12 31 9 24 -3 45
-8 48 -12 3 -3 19 -6 35 -6 l30 0 0 -175 0 -175 23 2 c12 2 22 -1 22 -6 0 -12
-29 -23 -41 -15 -5 3 -9 0 -9 -5 0 -6 11 -11 25 -11 14 0 25 -5 25 -10 0 -6
-6 -10 -12 -9 -27 3 -38 -2 -38 -16 0 -8 9 -15 20 -15 11 0 20 -4 20 -9 0 -5
-8 -8 -17 -7 -12 0 -19 -7 -21 -21 -4 -25 22 -33 31 -10 3 6 6 2 6 -10 1 -17
-5 -23 -19 -23 -11 0 -20 -4 -20 -10 0 -9 15 -14 33 -11 5 1 6 -3 2 -9 -3 -5
-17 -10 -30 -10 -13 0 -25 -5 -27 -12 -2 -6 -12 -9 -21 -5 -14 5 -16 29 -15
204 0 109 0 219 -1 246 l-1 47 -105 0 -105 0 -2 -77 c-1 -43 0 -156 1 -250 l3
-173 -23 0 c-13 0 -34 -3 -46 -6 -17 -5 -23 -2 -23 10 0 20 -7 20 -26 1 -22
-21 -54 -19 -54 4 0 15 -11 19 -67 26 -77 8 -102 9 -158 7 -22 -1 -92 2 -155
7 -63 5 -216 15 -339 21 l-225 13 -17 -22 c-14 -17 -24 -20 -46 -15 -48 12
-49 18 -3 30 l45 12 -66 1 c-36 1 -94 4 -128 7 l-61 7 0 -31 c0 -47 34 -53
292 -54 340 -1 334 0 313 -9 -24 -9 2 -11 180 -11 97 0 109 -2 65 -8 -37 -5
-9 -7 85 -5 92 2 121 0 85 -4 -50 -7 -46 -8 43 -9 79 -2 97 -5 97 -17 0 -11
11 -15 38 -16 20 0 46 -2 57 -4 60 -11 179 -25 182 -21 2 2 19 0 38 -4 31 -7
34 -6 38 19 l4 26 2 -27 c0 -16 6 -28 11 -28 6 0 10 12 11 28 0 15 3 21 6 14
4 -10 22 -11 74 -6 l69 7 0 -26 c0 -14 -6 -28 -12 -30 -7 -3 3 -6 22 -7 19 -1
45 -3 56 -5 21 -4 21 -2 18 72 -3 46 -9 80 -17 85 -8 5 -7 8 4 8 20 0 28 44
21 107 -4 37 -7 41 -23 33 -24 -13 -29 -13 -29 5 0 8 5 15 11 15 8 0 8 5 -1
15 -10 13 -9 15 11 16 l24 0 -22 11 c-26 12 -31 48 -8 48 14 0 21 41 16 90 -2
13 0 13 8 1 5 -8 7 -20 4 -28 -3 -7 0 -13 6 -13 6 0 11 16 11 35 0 24 -4 33
-13 29 -9 -3 -13 6 -13 31 0 25 4 34 13 31 16 -7 25 8 17 29 -5 13 -8 14 -15
3 -10 -15 -12 181 -3 206 5 12 21 16 70 16 l64 0 0 50 c0 60 17 73 95 69 30
-2 58 0 62 4 3 4 -79 6 -183 6 -104 -1 -181 -3 -171 -6 9 -2 17 -11 17 -20 0
-12 6 -14 27 -8 16 4 24 3 20 -2 -5 -4 18 -13 50 -19 l58 -11 -47 -2 c-26 0
-50 -5 -53 -11 -3 -5 -1 -10 4 -10 6 0 11 -4 11 -9 0 -6 -12 -6 -30 0 -16 6
-30 15 -30 21 0 5 5 6 10 3 6 -3 10 1 10 9 0 9 -8 14 -20 13 -15 -1 -20 -8
-20 -30 l0 -29 -77 6 c-43 4 -95 8 -115 8 -32 1 -38 5 -38 24 0 40 -11 54 -42
54 -17 0 -27 4 -23 10 7 12 2 13 -9 3z"/>
<path d="M2466 1408 c-3 -13 -6 -42 -6 -65 0 -41 -1 -42 -26 -33 -32 12 -37
12 -29 1 3 -5 1 -12 -5 -16 -6 -3 -14 4 -19 17 -6 13 -10 19 -10 15 -1 -4 -10
-3 -22 4 -15 8 -24 8 -32 0 -8 -8 -7 -11 3 -11 7 0 11 -3 7 -6 -3 -3 -41 -8
-84 -11 -43 -3 -89 -6 -103 -7 -14 -1 -31 -5 -37 -9 -13 -8 -17 15 -14 73 1
18 -1 21 -7 12 -8 -11 -10 -11 -15 2 -4 9 -14 13 -27 11 -11 -2 -20 1 -20 8 0
9 -2 9 -8 1 -4 -6 -25 -15 -47 -21 -33 -7 -45 -6 -65 8 -19 14 -36 16 -72 12
-48 -6 -61 -16 -33 -27 8 -3 15 -1 15 4 0 6 10 10 23 10 31 0 67 -11 67 -20 0
-15 -39 -18 -51 -4 -6 8 -16 14 -22 14 -6 0 -2 -7 9 -15 10 -8 15 -15 9 -14
-5 1 -19 1 -30 0 -19 -2 -19 -2 -2 -12 9 -6 25 -9 35 -8 39 3 52 -2 52 -21 0
-22 -28 -40 -61 -40 -12 0 -19 -3 -16 -7 7 -6 79 -13 182 -16 42 -1 59 -6 57
-14 -1 -9 13 -13 50 -12 l53 1 -42 10 c-34 7 -40 12 -31 22 10 10 15 10 24 1
7 -6 38 -12 70 -13 33 -1 121 -7 197 -13 76 -6 141 -8 144 -5 4 3 -8 6 -27 6
l-33 0 5 105 c3 58 4 105 2 105 -1 0 -4 -10 -8 -22z"/>
<path d="M1080 1135 l0 -116 63 3 62 3 3 60 c2 33 1 84 -3 113 l-6 52 -60 0
-59 0 0 -115z"/>
<path d="M1923 1109 c-7 -7 -13 -19 -13 -27 0 -18 -61 -93 -71 -87 -13 9 -50
-47 -43 -64 4 -9 9 -81 10 -160 3 -156 5 -161 59 -161 l30 0 0 87 c1 120 9
241 18 249 4 4 7 -14 7 -39 0 -43 2 -47 25 -47 20 0 25 5 25 25 0 14 -7 36
-14 48 -12 18 -13 34 -4 94 9 55 14 70 24 63 8 -7 13 -6 18 5 3 8 0 15 -7 15
-7 0 -21 3 -32 6 -11 3 -26 -1 -32 -7z"/>
<path d="M2160 1018 c0 -90 -8 -232 -16 -315 -6 -54 -8 -57 -59 -56 -47 1 -46
-1 -44 87 2 53 6 83 13 79 5 -4 7 1 3 11 -4 10 -7 20 -7 22 0 2 -25 4 -55 4
l-55 0 -1 -32 c0 -18 0 -64 1 -102 1 -59 -1 -68 -14 -63 -12 5 -16 0 -16 -18
0 -28 32 -41 80 -31 20 4 30 1 30 -7 0 -8 3 -8 9 2 7 11 9 11 14 0 5 -11 8
-10 17 4 16 25 80 24 80 -2 0 -19 34 -31 86 -31 13 0 24 -5 24 -11 0 -10 -17
-9 -130 6 -14 2 -54 6 -90 10 -36 4 -180 20 -320 37 -140 16 -296 29 -345 29
-71 -1 -98 3 -126 18 -24 13 -66 21 -130 26 -52 3 -139 12 -194 20 -55 8 -183
21 -284 30 -192 15 -204 14 -194 -25 4 -15 -9 -17 -133 -23 -75 -4 -169 -7
-208 -7 -39 0 -78 -5 -86 -11 -11 -7 4 -8 50 -5 36 3 136 8 224 12 130 5 157
3 154 -8 -5 -14 -130 -24 -330 -27 -72 -1 -108 -5 -108 -12 0 -8 22 -10 72 -5
40 3 139 9 221 12 132 6 147 5 147 -10 0 -14 -17 -16 -127 -17 -71 -1 -171 -5
-223 -9 -65 -6 -24 -7 127 -4 135 3 223 2 223 -4 0 -13 -51 -22 -130 -22 -126
0 -310 -13 -310 -22 0 -5 15 -7 33 -4 17 3 116 8 218 11 l187 6 -3 -33 c-2
-18 -3 -52 -4 -75 l-1 -43 -107 -1 c-60 -1 -157 -5 -218 -9 -71 -5 -32 -6 108
-2 197 4 217 3 217 -12 0 -14 -15 -16 -107 -17 -60 -1 -157 -5 -218 -9 -74 -5
-39 -6 107 -3 196 5 218 4 218 -11 0 -14 -19 -16 -142 -17 -79 -1 -177 -5
-218 -9 -45 -5 12 -6 144 -3 179 4 217 2 214 -9 -4 -10 -51 -14 -210 -18 -114
-3 -210 -9 -215 -14 -4 -4 89 -5 209 -1 142 5 218 4 218 -2 0 -15 -76 -23
-234 -24 -78 -1 -154 -5 -171 -9 -17 -4 68 -6 188 -2 144 3 217 2 217 -5 0
-16 -77 -23 -244 -24 -83 0 -160 -4 -171 -9 -12 -5 70 -6 197 -3 148 4 218 3
218 -4 0 -19 -42 -23 -237 -23 -132 0 -193 -3 -193 -11 0 -7 64 -9 218 -4 183
6 215 5 204 -6 -10 -11 -63 -15 -212 -20 -110 -3 -203 -9 -207 -13 -5 -4 88
-4 205 0 193 6 212 5 212 -10 0 -17 -32 -19 -317 -19 -84 -1 -103 -3 -103 -15
0 -13 28 -14 210 -8 185 6 210 5 210 -9 0 -13 -22 -15 -152 -16 -84 -1 -180
-5 -213 -9 -39 -6 13 -8 153 -5 176 2 212 0 212 -11 0 -12 176 -14 1165 -14
l1165 0 0 254 0 255 -42 5 c-112 13 -165 18 -190 17 -16 -1 -28 3 -28 9 0 5 7
10 15 10 8 0 12 6 9 14 -3 9 -13 12 -27 8 -19 -5 -20 -3 -9 10 10 13 10 17 0
22 -7 3 51 4 130 3 78 -1 142 1 142 6 0 4 -57 7 -126 7 -83 0 -123 3 -119 10
4 7 51 9 128 6 67 -2 105 -2 84 0 -20 3 -35 9 -32 14 3 5 19 7 35 3 20 -3 30
-1 30 6 0 9 -38 12 -137 10 -103 -1 -138 2 -142 12 -3 10 26 11 138 5 81 -3
141 -2 141 3 0 14 -55 21 -171 21 -61 0 -110 4 -114 10 -4 6 24 10 76 10 45 0
80 2 78 4 -3 3 -58 6 -124 7 l-120 1 0 -41 c0 -26 -5 -41 -12 -41 -7 0 -13 -5
-13 -11 0 -14 -62 -1 -72 15 -10 14 -1 207 17 401 l3 30 -69 3 -69 3 0 -83z"/>
</g>
</svg>
