<svg id="Layer_1" height="512" viewBox="0 0 512 512" width="512" xmlns="http://www.w3.org/2000/svg" data-name="Layer 1"><path d="m430.83 401.24-3.41-128.51-.08-5.36a14 14 0 0 1 -13.58 14.12h-.16a13.651 13.651 0 0 1 -5.984-1.388l3.214 121.138a10.485 10.485 0 0 0 10.5 10.21h19.9a10.482 10.482 0 0 1 -10.4-10.21z" fill="#d4e1f4"/><path d="m399.73 198.12a25.884 25.884 0 0 1 25.88-25.88h-20a25.884 25.884 0 0 0 -25.88 25.88c0 .87.13 69.63.13 69.63a13.744 13.744 0 0 0 13.74 13.74h.16a13.488 13.488 0 0 0 9.775-4.412 13.673 13.673 0 0 1 -3.675-9.328s-.13-68.76-.13-69.63z" fill="#d4e1f4"/><path d="m59.65 401.24-3.49-133.87a13.991 13.991 0 0 1 -13.58 14.12h-.15a13.655 13.655 0 0 1 -5.937-1.363l3.157 121.113a10.5 10.5 0 0 0 10.51 10.21h19.9a10.5 10.5 0 0 1 -10.41-10.21z" fill="#d4e1f4"/><path d="m28.56 198.12a25.875 25.875 0 0 1 25.87-25.88h-20a25.875 25.875 0 0 0 -25.87 25.88c0 .87.13 69.63.13 69.63a13.738 13.738 0 0 0 13.74 13.74h.15a13.488 13.488 0 0 0 9.78-4.413 13.675 13.675 0 0 1 -3.67-9.327s-.13-68.76-.13-69.63z" fill="#d4e1f4"/><g fill="#2f2f2f"><path d="m245.23 250h-.484a6 6 0 1 0 0 12h.484a6 6 0 1 0 0-12z"/><path d="m225.8 250h-.227a6 6 0 0 0 0 12h.227a6 6 0 1 0 0-12z"/><path d="m207.034 250h-32.779l6.524-6.525a6 6 0 0 0 -8.484-8.485l-16.768 16.767a6 6 0 0 0 0 8.486l16.773 16.767a6 6 0 0 0 8.484-8.485l-6.529-6.525h32.779a6 6 0 0 0 0-12z"/><path d="m356.473 251.757-16.768-16.767a6 6 0 1 0 -8.484 8.485l6.524 6.525h-32.779a6 6 0 0 0 0 12h32.779l-6.524 6.525a6 6 0 1 0 8.484 8.485l16.768-16.767a6 6 0 0 0 0-8.486z"/><path d="m267.254 250h-.484a6 6 0 0 0 0 12h.484a6 6 0 0 0 0-12z"/><path d="m286.43 250h-.23a6 6 0 0 0 0 12h.227a6 6 0 1 0 0-12z"/><path d="m245.23 175h-.484a6 6 0 1 0 0 12h.484a6 6 0 1 0 0-12z"/><path d="m225.8 175h-.227a6 6 0 0 0 0 12h.227a6 6 0 1 0 0-12z"/><path d="m207.034 175h-32.779l6.524-6.525a6 6 0 0 0 -8.484-8.485l-16.768 16.767a6 6 0 0 0 0 8.486l16.773 16.767a6 6 0 0 0 8.484-8.485l-6.529-6.525h32.779a6 6 0 0 0 0-12z"/><path d="m356.473 176.757-16.768-16.767a6 6 0 1 0 -8.484 8.485l6.524 6.525h-32.779a6 6 0 0 0 0 12h32.779l-6.524 6.525a6 6 0 1 0 8.484 8.485l16.768-16.767a6 6 0 0 0 0-8.486z"/><path d="m267.254 175h-.484a6 6 0 0 0 0 12h.484a6 6 0 0 0 0-12z"/><path d="m286.43 175h-.23a6 6 0 0 0 0 12h.227a6 6 0 0 0 0-12z"/><path d="m245.23 325h-.484a6 6 0 1 0 0 12h.484a6 6 0 1 0 0-12z"/><path d="m225.8 325h-.227a6 6 0 1 0 0 12h.227a6 6 0 1 0 0-12z"/><path d="m207.034 325h-32.779l6.524-6.525a6 6 0 0 0 -8.484-8.485l-16.768 16.767a6 6 0 0 0 0 8.486l16.773 16.767a6 6 0 0 0 8.484-8.485l-6.529-6.525h32.779a6 6 0 0 0 0-12z"/><path d="m331.221 352.01a6 6 0 0 0 8.484 0l16.768-16.767a6 6 0 0 0 0-8.486l-16.768-16.767a6 6 0 1 0 -8.484 8.485l6.524 6.525h-32.779a6 6 0 0 0 0 12h32.779l-6.524 6.525a6 6 0 0 0 0 8.485z"/><path d="m267.254 325h-.484a6 6 0 0 0 0 12h.484a6 6 0 0 0 0-12z"/><path d="m286.43 325h-.23a6 6 0 0 0 0 12h.227a6 6 0 1 0 0-12z"/></g><path d="m440.716 166.315a30.938 30.938 0 0 0 30.9-30.9v-9.963a30.9 30.9 0 0 0 -61.807 0v9.963a30.938 30.938 0 0 0 30.907 30.9zm-18.9-40.866a18.925 18.925 0 0 1 18.9-18.9 18.925 18.925 0 0 1 18.9 18.9v9.963a18.9 18.9 0 0 1 -37.807 0z" fill="#b8001c"/><path d="m502.265 177.966a31.667 31.667 0 0 0 -21.482-11.56c-.347-.035-1.162-.118-23.023-.163h-.009a6 6 0 0 0 -4.929 2.573l-11.108 15.963-10.476-15.845a6 6 0 0 0 -5-2.691h-20.632a31.914 31.914 0 0 0 -31.876 31.873c0 .867.126 66.841.132 69.638a19.738 19.738 0 0 0 19.738 19.733h.006.22a19.221 19.221 0 0 0 7.935-1.81l3.07 115.725a16.419 16.419 0 0 0 16.5 16.054h.006l40.877-.01a16.417 16.417 0 0 0 16.5-16.09l2.861-115.535a19.663 19.663 0 0 0 8.939 1.652 19.922 19.922 0 0 0 18.8-20.117v-66.341a31.666 31.666 0 0 0 -7.049-23.049zm-4.924 22.156a5.794 5.794 0 0 0 -.03.6v66.627a8.041 8.041 0 0 1 -7.369 8.13 7.752 7.752 0 0 1 -8.127-7.439l-.006-.4a6 6 0 0 0 -12 .1c0 .193 0 .385.008.578l-3.107 132.732a4.481 4.481 0 0 1 -4.5 4.391l-40.877.01a4.481 4.481 0 0 1 -4.5-4.377l-3.49-133.8a6 6 0 0 0 -6-5.909h-.046a6 6 0 0 0 -5.955 6 7.981 7.981 0 0 1 -7.733 8.121 7.738 7.738 0 0 1 -7.738-7.746c0-.687-.132-68.769-.132-69.624a19.9 19.9 0 0 1 19.877-19.874h17.4l13.574 20.532a6 6 0 0 0 4.934 2.691h.071a6 6 0 0 0 4.925-2.572l14.364-20.644c7.584.021 17.356.061 18.835.109a19.874 19.874 0 0 1 17.63 21.763z" fill="#b8001c"/><path d="m69.541 166.315a30.938 30.938 0 0 0 30.9-30.9v-9.963a30.9 30.9 0 0 0 -61.808 0v9.963a30.939 30.939 0 0 0 30.908 30.9zm-18.9-40.866a18.925 18.925 0 0 1 18.9-18.9 18.925 18.925 0 0 1 18.9 18.9v9.963a18.9 18.9 0 0 1 -37.808 0z" fill="#b8001c"/><path d="m131.09 177.966a31.669 31.669 0 0 0 -21.482-11.56c-.347-.035-1.161-.118-23.023-.163h-.013a6 6 0 0 0 -4.925 2.573l-11.108 15.963-10.476-15.845a6 6 0 0 0 -5-2.691h-20.629a31.877 31.877 0 0 0 -31.878 31.873c0 .872.131 69.64.131 69.639a19.76 19.76 0 0 0 19.736 19.732h.007.219a19.2 19.2 0 0 0 7.987-1.835l3.018 115.748a16.418 16.418 0 0 0 16.5 16.055l40.879-.01a16.418 16.418 0 0 0 16.5-16.1l2.687-115.6a19.618 19.618 0 0 0 9.113 1.73 19.922 19.922 0 0 0 18.8-20.117v-66.343a31.666 31.666 0 0 0 -7.043-23.049zm-4.924 22.156c-.02.2-.03.4-.03.6v66.627a8.041 8.041 0 0 1 -7.368 8.13 7.749 7.749 0 0 1 -8.133-7.741 6 6 0 0 0 -12-.139l-3.1 133.449a4.481 4.481 0 0 1 -4.5 4.391l-40.877.01a4.479 4.479 0 0 1 -4.5-4.374l-3.499-133.865a6 6 0 0 0 -6-5.844h-.08a6 6 0 0 0 -5.922 6 7.981 7.981 0 0 1 -7.733 8.121 7.749 7.749 0 0 1 -7.738-7.745s-.131-68.754-.131-69.625a19.876 19.876 0 0 1 19.877-19.874h17.4l13.574 20.532a6 6 0 0 0 4.934 2.691h.071a6 6 0 0 0 4.925-2.572l14.364-20.644c7.582.021 17.355.061 18.833.109a19.874 19.874 0 0 1 17.632 21.763z" fill="#b8001c"/></svg>