<svg height="399pt" viewBox="-60 0 399 399.92" width="399pt" xmlns="http://www.w3.org/2000/svg"><path d="m71.800781 263.570312c0 16.9375-13.730469 30.667969-30.671875 30.667969-16.9375 0-30.667968-13.730469-30.667968-30.667969s13.730468-30.671874 30.667968-30.671874c16.941406 0 30.671875 13.734374 30.671875 30.671874zm0 0" fill="#d4e1f4"/><path d="m270.039062 0c-5.523437 0-10 4.476562-10 10v108.578125c0 47.03125-38.460937 85.292969-85.511718 85.292969-47.027344 0-85.488282-38.261719-85.488282-85.292969v-108.578125c0-5.523438-4.476562-10-10-10-5.523437 0-10 4.476562-10 10v108.578125c0 54.683594 42 99.757813 95 104.8125v100.03125c0 31.203125-25.296874 56.5-56.5 56.5-31.203124 0-56.5-25.296875-56.5-56.5v-29.183594c0-5.519531-4.476562-10-10-10-5.523437 0-10 4.480469-10 10v29.183594c0 42.246094 34.25 76.5 76.5 76.5s76.5-34.253906 76.5-76.5v-100.027344c54-5.050781 96-50.125 96-104.816406v-108.578125c0-5.523438-4.476562-10-10-10zm0 0" fill="#0635c9"/><path d="m41.128906 304.238281c-22.460937 0-40.667968-18.207031-40.667968-40.667969 0-22.460937 18.207031-40.671874 40.667968-40.671874 22.460938 0 40.671875 18.210937 40.671875 40.671874-.027343 22.449219-18.21875 40.644532-40.671875 40.667969zm0-61.339843c-11.414062 0-20.667968 9.253906-20.667968 20.671874 0 11.414063 9.253906 20.667969 20.667968 20.667969 11.417969 0 20.671875-9.253906 20.671875-20.667969 0-11.417968-9.253906-20.671874-20.671875-20.671874zm0 0" fill="#1ae5be"/></svg>