<svg height="448pt" viewBox="0 -1 448 448" width="448pt" xmlns="http://www.w3.org/2000/svg"><path d="m90.859375 292.359375c-29.863281-29.867187-34.941406-76.484375-12.210937-112.082031l55.851562-87.4375-20-31.3125-75.851562 118.75c-19.675782 30.773437-18.792969 70.386718 2.226562 100.253906 21.023438 29.867188 58.019531 44.0625 93.625 35.921875-16.53125-3.742187-31.664062-12.097656-43.640625-24.09375zm0 0" fill="#d4e1f4"/><path d="m335.46875 202.359375c-24.886719-24.886719-29.121094-63.734375-10.179688-93.398437l43.210938-67.652344-20-31.308594-63.210938 98.960938c-16.730468 26.171874-15.589843 59.949218 2.867188 84.9375 18.457031 24.984374 50.410156 36.003906 80.34375 27.707031-12.496094-3.441407-23.878906-10.070313-33.03125-19.246094zm0 0" fill="#d4e1f4"/><path d="m384 401.109375c-19.335938 0-29.683594 7.761719-38 14-7.449219 5.585937-13.335938 10-26 10s-18.550781-4.414063-26-10c-8.316406-6.238281-18.667969-14-38-14s-29.683594 7.761719-38 14c-7.449219 5.585937-13.332031 10-26 10s-18.550781-4.414063-26-10c-8.316406-6.238281-18.664062-14-38-14s-29.683594 7.761719-38 14c-7.449219 5.585937-13.332031 10-26 10s-18.550781-4.414063-26-10c-8.316406-6.238281-18.667969-14-38-14v20c12.664062 0 18.550781 4.414063 26 10 8.316406 6.238281 18.667969 14 38 14s29.683594-7.761719 38-14c7.449219-5.585937 13.332031-10 26-10s18.550781 4.414063 26 10c8.316406 6.238281 18.664062 14 38 14s29.683594-7.761719 38-14c7.449219-5.585937 13.332031-10 26-10s18.550781 4.414063 26 10c8.316406 6.238281 18.667969 14 38 14s29.683594-7.761719 38-14c7.449219-5.585937 13.335938-10 26-10s18.550781 4.414063 26 10c8.316406 6.238281 18.667969 14 38 14v-20c-12.667969 0-18.550781-4.414063-26-10-8.320312-6.238281-18.671875-14-38-14zm0 0" fill="#1ae5be"/><path d="m384 341.109375c-19.335938 0-29.683594 7.761719-38 14-7.449219 5.585937-13.335938 10-26 10s-18.550781-4.414063-26-10c-8.316406-6.238281-18.667969-14-38-14s-29.683594 7.761719-38 14c-7.449219 5.585937-13.332031 10-26 10s-18.550781-4.414063-26-10c-8.316406-6.238281-18.664062-14-38-14s-29.683594 7.761719-38 14c-7.449219 5.585937-13.332031 10-26 10s-18.550781-4.414063-26-10c-8.316406-6.238281-18.667969-14-38-14v20c12.664062 0 18.550781 4.414063 26 10 8.316406 6.238281 18.667969 14 38 14s29.683594-7.761719 38-14c7.449219-5.585937 13.332031-10 26-10s18.550781 4.414063 26 10c8.316406 6.238281 18.664062 14 38 14s29.683594-7.761719 38-14c7.449219-5.585937 13.332031-10 26-10s18.550781 4.414063 26 10c8.316406 6.238281 18.667969 14 38 14s29.683594-7.761719 38-14c7.449219-5.585937 13.335938-10 26-10s18.550781 4.414063 26 10c8.316406 6.238281 18.667969 14 38 14v-20c-12.667969 0-18.550781-4.414063-26-10-8.320312-6.238281-18.671875-14-38-14zm0 0" fill="#1ae5be"/><g fill="#0635c9"><path d="m122.929688 56.144531c-1.839844-2.875-5.015626-4.617187-8.429688-4.617187s-6.589844 1.742187-8.429688 4.617187l-75.847656 118.753907c-25.257812 39.550781-19.617187 91.347656 13.566406 124.53125 36.089844 36.082031 93.558594 39.203124 133.339844 7.238281 39.78125-31.96875 49.113282-88.757813 21.648438-131.773438zm71.097656 181.246094c-3.574219 32.816406-26.9375 60.066406-58.824219 68.609375s-65.746094-3.375-85.25-30.007812c-19.5-26.632813-20.644531-62.511719-2.875-90.328126l67.421875-105.558593 67.421875 105.554687c9.785156 15.371094 14.054687 33.613282 12.105469 51.730469zm0 0"/><path d="m153.683594 208.9375c-5.207032 1.847656-7.925782 7.566406-6.078125 12.769531 6.410156 18.046875-3.027344 37.871094-21.074219 44.277344-5.203125 1.851563-7.921875 7.570313-6.070312 12.773437 1.847656 5.207032 7.566406 7.925782 12.773437 6.074219 28.453125-10.105469 43.328125-41.363281 33.222656-69.820312-1.847656-5.203125-7.5625-7.925781-12.769531-6.078125zm0 0"/><path d="m356.925781 4.617188c-1.835937-2.875-5.011719-4.617188-8.425781-4.617188s-6.589844 1.742188-8.425781 4.617188l-63.214844 98.960937c-21.464844 33.621094-16.667969 77.648437 11.539063 105.851563 30.675781 30.679687 79.535156 33.335937 113.351562 6.160156 33.820312-27.175782 41.746094-75.457032 18.390625-112.019532zm56.1875 151.75c-2.710937 24.859374-19.4375 45.957031-43.023437 54.265624-23.585938 8.304688-49.847656 2.34375-67.535156-15.332031l-.015626-.011719c-21.570312-21.570312-25.238281-55.238281-8.820312-80.945312l54.78125-85.769531 54.78125 85.765625c7.953125 12.488281 11.417969 27.308594 9.832031 42.027344zm0 0"/><path d="m377.3125 113.066406c-5.203125 1.847656-7.925781 7.566406-6.074219 12.769532 6.855469 19.304687-3.230469 40.507812-22.535156 47.367187-5.203125 1.847656-7.925781 7.5625-6.078125 12.769531 1.847656 5.203125 7.566406 7.925782 12.769531 6.078125 29.714844-10.546875 45.25-43.183593 34.707031-72.898437l-.007812-.011719c-1.847656-5.207031-7.5625-7.925781-12.769531-6.078125zm0 0"/></g></svg>