<?xml version="1.0" encoding="UTF-8"?>
<svg width="28px" height="28px" viewBox="0 0 28 28" version="1.1" xmlns="http://www.w3.org/2000/svg" xmlns:xlink="http://www.w3.org/1999/xlink">
    <title>icons/menu/Cases</title>
    <defs>
        <polygon id="path-1" points="0.0401910448 0.114626866 11.8680716 0.114626866 11.8680716 11.9425791 0.0401910448 11.9425791"></polygon>
        <polygon id="path-3" points="0.0333671642 0.107785075 11.861194 0.107785075 11.861194 11.9357552 0.0333671642 11.9357552"></polygon>
        <polygon id="path-5" points="0 0.0825492537 11.918606 0.0825492537 11.918606 11.9999821 0 11.9999821"></polygon>
    </defs>
    <g id="icons/menu/Cases" stroke="none" stroke-width="1" fill="none" fill-rule="evenodd">
        <g id="Group-20">
            <g id="Group-3" transform="translate(7.000000, 0.000000)">
                <mask id="mask-2" fill="white">
                    <use xlink:href="#path-1"></use>
                </mask>
                <g id="Clip-2"></g>
                <path d="M2.12675821,8.27290746 L3.70986269,9.85601194 L9.78132537,3.78437015 L8.1982209,2.20144478 L2.12675821,8.27290746 Z M3.70986269,11.9425791 C3.25869851,11.9425791 2.83511642,11.7674149 2.51720597,11.4493254 L0.533444776,9.46592239 C-0.124226866,8.80807164 -0.124226866,7.73774328 0.533444776,7.08007164 L7.00538507,0.608131343 C7.66305672,-0.0498985075 8.73356418,-0.0498985075 9.39123582,0.608131343 L11.3748179,2.59171343 C11.6927284,2.90962388 11.8680716,3.33320597 11.8680716,3.78437015 C11.8680716,4.23571343 11.6927284,4.65929552 11.3746388,4.97738507 L4.90269851,11.4491463 C4.58478806,11.7674149 4.16102687,11.9425791 3.70986269,11.9425791 L3.70986269,11.9425791 Z" id="Fill-1" fill="white" mask="url(#mask-2)"></path>
            </g>
            <path d="M9.78892109,7 C9.33075205,7 8.87239299,6.82555543 8.5234928,6.47647627 C7.8255024,5.778698 7.8255024,4.6432881 8.5234928,3.94550983 L10.9454606,1.52361875 C11.643261,0.825650456 12.7787068,0.825270402 13.4765072,1.52361875 C14.1744976,2.22139702 14.1744976,3.35680692 13.4765072,4.05458519 L11.0545394,6.47647627 C10.7056392,6.82555543 10.2472802,7 9.78892109,7" id="Fill-4" fill="white"></path>
            <path d="M22.7889403,20 C22.3102553,20 21.8608349,19.8139609 21.523532,19.476468 C21.1858491,19.1391651 21,18.6895547 21,18.2108697 C21,17.7319947 21.1858491,17.2825743 21.523722,16.9450814 L23.9454615,14.523532 C24.2825743,14.1858491 24.7321847,14 25.2108697,14 C25.6897447,14 26.1391651,14.1858491 26.476468,14.523532 C26.8141509,14.8606448 27,15.3100652 27,15.7889403 C27,16.2676253 26.8141509,16.7172357 26.476468,17.0545385 L24.0545385,19.476468 C23.7172357,19.8139609 23.2678153,20 22.7889403,20" id="Fill-6" fill="white"></path>
            <g id="Group-10" transform="translate(16.000000, 9.000000)">
                <mask id="mask-4" fill="white">
                    <use xlink:href="#path-3"></use>
                </mask>
                <g id="Clip-9"></g>
                <path d="M2.11993433,8.26608358 L3.70303881,9.84918806 L9.77450149,3.77754627 L8.19139701,2.1946209 L2.11993433,8.26608358 Z M3.70303881,11.9357552 C3.25187463,11.9357552 2.82829254,11.760591 2.51038209,11.4425015 L0.526620896,9.45909851 C-0.131050746,8.80124776 -0.131050746,7.7309194 0.526620896,7.07324776 L6.99856119,0.601307463 C7.65623284,-0.0567223881 8.7267403,-0.0567223881 9.38441194,0.601307463 L11.367994,2.58488955 C11.6859045,2.9028 11.8612478,3.32638209 11.8612478,3.77754627 C11.8612478,4.22888955 11.6859045,4.65247164 11.3678149,4.97056119 L4.89587463,11.4423224 C4.57796418,11.760591 4.15420299,11.9357552 3.70303881,11.9357552 L3.70303881,11.9357552 Z" id="Fill-8" fill="white" mask="url(#mask-4)"></path>
            </g>
            <g id="Group-13" transform="translate(0.000000, 16.000000)">
                <mask id="mask-6" fill="white">
                    <use xlink:href="#path-5"></use>
                </mask>
                <g id="Clip-12"></g>
                <path d="M7.88503881,2.05269851 C7.60420299,2.05269851 7.34163582,2.16069851 7.14569552,2.3564597 L2.27494925,7.22720597 C1.86730746,7.63484776 1.86730746,8.29825075 2.27494925,8.70589254 L3.29405373,9.72517612 C3.70205373,10.1326388 4.36527761,10.1328179 4.77309851,9.72499701 L9.64366567,4.85460896 C10.0513075,4.44678806 10.0513075,3.78338507 9.64348657,3.37556418 L8.62456119,2.35663881 C8.42844179,2.16069851 8.16587463,2.05269851 7.88503881,2.05269851 M4.03339701,11.9999821 C3.26109851,11.9999821 2.4889791,11.7060716 1.90115821,11.1180716 L0.881874627,10.0989672 C-0.293946269,8.92314627 -0.293946269,7.00995224 0.881695522,5.83395224 L5.7526209,0.963385075 C6.32056119,0.395444776 7.07781493,0.0825492537 7.88503881,0.0825492537 C8.69208358,0.0825492537 9.44951642,0.395444776 10.0174567,0.963564179 L11.0367403,1.98231045 C12.2125612,3.15848955 12.2125612,5.07168358 11.0367403,6.24750448 L6.16599403,11.1180716 C5.57817313,11.7058925 4.80569552,11.9999821 4.03339701,11.9999821" id="Fill-11" fill="white" mask="url(#mask-6)"></path>
            </g>
            <polygon id="Fill-14" fill="white" points="10.3399765 19 9 17.6600235 13.6600235 13 15 14.3399765"></polygon>
            <polygon id="Fill-16" fill="white" points="16.591846 16 12 11.4084312 13.408154 10 18 14.5917499"></polygon>
            <polygon id="Fill-18" fill="white" points="21.5785048 11 17 6.42149516 18.4216779 5 23 9.57850484"></polygon>
        </g>
    </g>
</svg>
