<?xml version="1.0" encoding="UTF-8"?>
<svg width="28px" height="28px" viewBox="0 0 28 28" version="1.1" xmlns="http://www.w3.org/2000/svg" xmlns:xlink="http://www.w3.org/1999/xlink">
    <title>icons/menu/Constitution</title>
    <defs>
        <polygon id="path-1" points="0 26.5 28 26.5 28 0.5 0 0.5"></polygon>
    </defs>
    <g id="icons/menu/Constitution" stroke="none" stroke-width="1" fill="none" fill-rule="evenodd">
        <g id="Group-12" transform="translate(0.000000, 0.500000)">
            <path d="M17.9720694,7.5 L11.0279306,7.5 C10.460326,7.5 10,7.05218182 10,6.5 C10,5.94781818 10.460326,5.5 11.0279306,5.5 L17.9720694,5.5 C18.539674,5.5 19,5.94781818 19,6.5 C19,7.05218182 18.539674,7.5 17.9720694,7.5" id="Fill-1" fill="#4A4A4A"></path>
            <path d="M16.9367358,11.5 L11.0632642,11.5 C10.4761491,11.5 10,11.0521818 10,10.5 C10,9.94781818 10.4761491,9.5 11.0632642,9.5 L16.9367358,9.5 C17.5238509,9.5 18,9.94781818 18,10.5 C18,11.0521818 17.5238509,11.5 16.9367358,11.5" id="Fill-3" fill="#4A4A4A"></path>
            <path d="M13.9710972,14.5 L12.0289028,14.5 C11.4607614,14.5 11,14.0521818 11,13.5 C11,12.9478182 11.4607614,12.5 12.0289028,12.5 L13.9710972,12.5 C14.5392386,12.5 15,12.9478182 15,13.5 C15,14.0521818 14.5392386,14.5 13.9710972,14.5" id="Fill-5" fill="#4A4A4A"></path>
            <mask id="mask-2" fill="white">
                <use xlink:href="#path-1"></use>
            </mask>
            <g id="Clip-8"></g>
            <polygon id="Fill-7" fill="#4A4A4A" mask="url(#mask-2)" points="7 12.5 9 12.5 9 6.5 7 6.5"></polygon>
            <path d="M22,16.5 L20.1437558,16.5 L20.1437558,6.09695184 C20.1437558,4.02103937 18.4328049,2.33222636 16.3296802,2.33222636 L4,2.33222636 L4,0.5 L16.3296802,0.5 C19.4564392,0.5 22,3.01081638 22,6.09695184 L22,16.5 Z" id="Fill-9" fill="#4A4A4A" mask="url(#mask-2)"></path>
            <path d="M18.3141905,18.3300531 L18.3168564,18.9645423 L18.3168564,21.1960325 C18.3168564,22.5618557 17.7631769,23.8088097 16.8552624,24.7500781 C21.841544,24.7432052 22.1772841,24.735239 22.1772841,24.735239 C24.3780061,24.735239 26.1671758,23.0579506 26.1671758,20.996095 L26.1671758,18.3300531 L18.3141905,18.3300531 Z M12.6590947,26.5 C9.53929464,26.5 7.00133296,24.1205873 7.00133296,21.1960325 L7,12.5 L8.83282422,12.5 L8.83415718,21.1957201 C8.83415718,23.0774758 10.3877256,24.6251172 12.3555124,24.7705405 L12.3555124,24.7560137 C12.6071091,24.7557013 12.864371,24.7553889 13.1274646,24.7550765 C15.0162733,24.5378007 16.4840322,23.0245236 16.4840322,21.1960325 L16.4778673,17.4742268 C16.4770342,17.2458607 16.5731741,17.026398 16.7451264,16.8645736 C16.9170786,16.7027491 17.150847,16.61184 17.3942794,16.61184 L26.2661483,16.61184 C27.2222161,16.61184 28,17.3409872 28,18.2372696 L28,20.996095 C28,24.0053108 25.3885587,26.453452 22.1786171,26.453452 C22.1801166,26.453452 18.9326854,26.4657919 13.2307692,26.4731334 C13.0428214,26.4907841 12.8518745,26.5 12.6590947,26.5 L12.6590947,26.5 Z" id="Fill-10" fill="#4A4A4A" mask="url(#mask-2)"></path>
            <path d="M4.49990342,2.59212255 C3.19032085,2.59212255 2.12469149,3.64141711 2.12469149,4.93111557 L2.12469149,8.4338993 C2.12469149,8.97100422 2.5683657,9.40787745 3.11383196,9.40787745 L6.87530851,9.40787745 L6.87530851,4.93111557 C6.87530851,3.64141711 5.80967915,2.59212255 4.49990342,2.59212255 M7.93765425,11.5 L3.11383196,11.5 C1.39688808,11.5 0,10.1245245 0,8.4338993 L0,4.93111557 C0,2.48770662 2.01865007,0.5 4.49990342,0.5 C6.98134993,0.5 9,2.48770662 9,4.93111557 L9,10.4539387 C9,11.0315547 8.52426226,11.5 7.93765425,11.5" id="Fill-11" fill="#4A4A4A" mask="url(#mask-2)"></path>
        </g>
    </g>
</svg>