<svg width="28" height="28" viewBox="0 0 28 28" fill="none" xmlns="http://www.w3.org/2000/svg">
<path fill-rule="evenodd" clip-rule="evenodd" d="M13.3753 14.3671C12.8371 14.3671 12.4006 13.9333 12.4006 13.3985V3.46697C12.4006 2.93197 12.8371 2.49841 13.3753 2.49841C13.9135 2.49841 14.3499 2.93197 14.3499 3.46697V13.3985C14.3499 13.9333 13.9135 14.3671 13.3753 14.3671Z" fill="white"/>
<path fill-rule="evenodd" clip-rule="evenodd" d="M25.7365 11.6541C25.1983 11.6541 24.7618 11.2204 24.7618 10.6856V4.54197H22.0742C21.536 4.54197 21.0995 4.10823 21.0995 3.57341C21.0995 3.03859 21.536 2.60486 22.0742 2.60486H25.212C26.0387 2.60486 26.7112 3.27316 26.7112 4.09467V10.6856C26.7112 11.2204 26.2747 11.6541 25.7365 11.6541Z" fill="white"/>
<mask id="mask0" mask-type="alpha" maskUnits="userSpaceOnUse" x="0" y="2" width="11" height="20">
<path d="M0 2.83472H10.355V21.4313H0V2.83472Z" fill="white"/>
</mask>
<g mask="url(#mask0)">
<path fill-rule="evenodd" clip-rule="evenodd" d="M9.38029 21.4313H1.49936C0.672648 21.4313 -6.10352e-05 20.7628 -6.10352e-05 19.9413V4.32453C-6.10352e-05 3.50302 0.672648 2.83472 1.49936 2.83472H4.72272C5.26093 2.83472 5.69741 3.26845 5.69741 3.80327C5.69741 4.33826 5.26093 4.77182 4.72272 4.77182H1.94931V19.4942H9.38029C9.9185 19.4942 10.355 19.9279 10.355 20.4627C10.355 20.9976 9.9185 21.4313 9.38029 21.4313Z" fill="white"/>
</g>
<mask id="mask1" mask-type="alpha" maskUnits="userSpaceOnUse" x="12" y="12" width="16" height="16">
<path d="M12.2849 12.4528H27.9304V28H12.2849V12.4528Z" fill="white"/>
</mask>
<g mask="url(#mask1)">
<path fill-rule="evenodd" clip-rule="evenodd" d="M20.1077 14.3899C16.8693 14.3899 14.2342 17.0081 14.2342 20.2265C14.2342 23.4446 16.8693 26.0629 20.1077 26.0629C23.3461 26.0629 25.9811 23.4446 25.9811 20.2265C25.9811 17.0081 23.3461 14.3899 20.1077 14.3899ZM20.1077 28C15.7943 28 12.2849 24.5127 12.2849 20.2265C12.2849 15.9401 15.7943 12.4528 20.1077 12.4528C24.4211 12.4528 27.9305 15.9401 27.9305 20.2265C27.9305 24.5127 24.4211 28 20.1077 28Z" fill="white"/>
</g>
<mask id="mask2" mask-type="alpha" maskUnits="userSpaceOnUse" x="3" y="0" width="12" height="20">
<path d="M3.84058 0.0803223H14.2576V19.103H3.84058V0.0803223Z" fill="white"/>
</mask>
<g mask="url(#mask2)">
<path fill-rule="evenodd" clip-rule="evenodd" d="M10.9221 19.103C10.7429 19.103 10.562 19.054 10.3997 18.9515C8.95253 18.0362 6.29217 17.9518 5.38979 17.9983C4.54129 18.0305 3.84058 17.3471 3.84058 16.5094V1.64313C3.84058 0.85244 4.46349 0.203686 5.24731 0.155962C5.8564 0.0691449 9.93323 -0.378151 13.8676 2.55375C14.2984 2.87496 14.3856 3.48197 14.0627 3.9099C13.7393 4.33765 13.1284 4.42429 12.698 4.10361C9.78278 1.93088 6.72653 1.97279 5.78994 2.04623V16.0529H5.81334C6.94663 16.0529 9.6504 16.1815 11.4463 17.317C11.9005 17.6042 12.0341 18.2029 11.7454 18.6543C11.5595 18.9443 11.2441 19.103 10.9221 19.103Z" fill="white"/>
</g>
<path fill-rule="evenodd" clip-rule="evenodd" d="M22.028 11.4754C21.4898 11.4754 21.0533 11.0417 21.0533 10.5069V2.04557C20.328 1.98764 18.3123 1.94555 16.0904 2.95337C15.6013 3.17544 15.0225 2.9613 14.799 2.47473C14.5754 1.98799 14.7912 1.41337 15.2809 1.19149C18.3774 -0.213445 21.1089 0.0871583 21.5951 0.156014C22.3792 0.203209 23.0027 0.852139 23.0027 1.64301V10.5069C23.0027 11.0417 22.5662 11.4754 22.028 11.4754Z" fill="white"/>
<mask id="mask3" mask-type="alpha" maskUnits="userSpaceOnUse" x="18" y="16" width="4" height="6">
<path d="M18.1285 18.1039C18.1285 18.3331 18.302 18.5189 18.5157 18.5189C18.7292 18.5189 18.9027 18.3331 18.9027 18.1039C18.9027 17.4184 19.4235 16.8601 20.0637 16.8601C20.7037 16.8601 21.2248 17.4184 21.2248 18.1039C21.2248 18.5046 21.0515 18.8714 20.7495 19.1084C20.0675 19.6433 19.6767 20.4072 19.6767 21.2033V21.4216C19.6767 21.6505 19.85 21.8361 20.0637 21.8361C20.2775 21.8361 20.4507 21.6505 20.4507 21.4216V21.2033C20.4507 20.4784 20.9245 19.9992 21.207 19.7779C21.7032 19.387 21.9988 18.7619 21.9988 18.1039C21.9988 16.9613 21.1303 16.0308 20.0637 16.0308C18.997 16.0308 18.1285 16.9613 18.1285 18.1039Z" fill="white"/>
</mask>
<g mask="url(#mask3)">
<path fill-rule="evenodd" clip-rule="evenodd" d="M14.7838 25.5991H25.3435V12.2681H14.7838V25.5991Z" fill="white"/>
</g>
<path fill-rule="evenodd" clip-rule="evenodd" d="M21 23.5C21 23.2238 20.7762 23 20.5 23C20.2238 23 20 23.2238 20 23.5C20 23.7762 20.2238 24 20.5 24C20.7762 24 21 23.7762 21 23.5Z" fill="white"/>
</svg>
