<?xml version="1.0" encoding="UTF-8"?>
<svg width="28px" height="28px" viewBox="0 0 28 28" version="1.1" xmlns="http://www.w3.org/2000/svg" xmlns:xlink="http://www.w3.org/1999/xlink">
    <title>icons/menu/Guides</title>
    <defs>
        <polygon id="path-1" points="0 0.0171169811 10.3549671 0.0171169811 10.3549671 18.6136956 0 18.6136956"></polygon>
        <polygon id="path-3" points="0.0570278481 0.125718239 15.7025063 0.125718239 15.7025063 15.6729384 0.0570278481 15.6729384"></polygon>
        <polygon id="path-5" points="0.119053165 0.0803018868 10.536118 0.0803018868 10.536118 19.102956 0.119053165 19.102956"></polygon>
        <path d="M0.1285,2.1039375 C0.1285,2.3330625 0.302,2.518875 0.515666667,2.518875 L0.515666667,2.518875 C0.729166667,2.518875 0.902666667,2.3330625 0.902666667,2.1039375 L0.902666667,2.1039375 C0.902666667,1.4184375 1.4235,0.8600625 2.06366667,0.8600625 L2.06366667,0.8600625 C2.70366667,0.8600625 3.22483333,1.4184375 3.22483333,2.1039375 L3.22483333,2.1039375 C3.22483333,2.504625 3.0515,2.871375 2.7495,3.108375 L2.7495,3.108375 C2.0675,3.6433125 1.67666667,4.4071875 1.67666667,5.2033125 L1.67666667,5.2033125 L1.67666667,5.4215625 C1.67666667,5.6505 1.85,5.836125 2.06366667,5.836125 L2.06366667,5.836125 C2.2775,5.836125 2.45066667,5.6505 2.45066667,5.4215625 L2.45066667,5.4215625 L2.45066667,5.2033125 C2.45066667,4.4784375 2.9245,3.9991875 3.207,3.7779375 L3.207,3.7779375 C3.70316667,3.387 3.99883333,2.761875 3.99883333,2.1039375 L3.99883333,2.1039375 C3.99883333,0.9613125 3.13033333,0.03075 2.06366667,0.03075 L2.06366667,0.03075 C0.997,0.03075 0.1285,0.9613125 0.1285,2.1039375 L0.1285,2.1039375 Z" id="path-7"></path>
    </defs>
    <g id="icons/menu/Guides" stroke="none" stroke-width="1" fill="none" fill-rule="evenodd">
        <g id="Group-22">
            <g id="Group-16">
                <path d="M13.3752456,14.3669937 C12.837043,14.3669937 12.400562,13.9332579 12.400562,13.3984403 L12.400562,3.46689308 C12.400562,2.93189937 12.837043,2.49833962 13.3752456,2.49833962 C13.9134481,2.49833962 14.3499291,2.93189937 14.3499291,3.46689308 L14.3499291,13.3984403 C14.3499291,13.9332579 13.9134481,14.3669937 13.3752456,14.3669937" id="Fill-1" fill="#4A4A4A"></path>
                <path d="M25.7365367,11.6541635 C25.1983342,11.6541635 24.7618532,11.2204277 24.7618532,10.6856101 L24.7618532,4.54198742 L22.0742076,4.54198742 C21.5360051,4.54198742 21.0995241,4.10825157 21.0995241,3.57343396 C21.0995241,3.03861635 21.5360051,2.6048805 22.0742076,2.6048805 L25.2119797,2.6048805 C26.0386886,2.6048805 26.7112203,3.27318239 26.7112203,4.09469182 L26.7112203,10.6856101 C26.7112203,11.2204277 26.2747392,11.6541635 25.7365367,11.6541635 L25.7365367,11.6541635 Z" id="Fill-3" fill="#4A4A4A"></path>
                <g id="Group-7" transform="translate(0.000000, 2.817610)">
                    <mask id="mask-2" fill="white">
                        <use xlink:href="#path-1"></use>
                    </mask>
                    <g id="Clip-6"></g>
                    <path d="M9.38028354,18.6136956 L1.49934684,18.6136956 C0.672637975,18.6136956 -7.08860759e-05,17.9452176 -7.08860759e-05,17.1237082 L-7.08860759e-05,1.5069283 C-7.08860759e-05,0.685418868 0.672637975,0.0171169811 1.49934684,0.0171169811 L4.72271392,0.0171169811 C5.26091646,0.0171169811 5.69739747,0.45085283 5.69739747,0.98567044 C5.69739747,1.52066415 5.26091646,1.9542239 4.72271392,1.9542239 L1.9492962,1.9542239 L1.9492962,16.6765887 L9.38028354,16.6765887 C9.91848608,16.6765887 10.3549671,17.1103245 10.3549671,17.6451421 C10.3549671,18.1799597 9.91848608,18.6136956 9.38028354,18.6136956" id="Fill-5" fill="#4A4A4A" mask="url(#mask-2)"></path>
                </g>
                <g id="Group-10" transform="translate(12.227848, 12.327044)">
                    <mask id="mask-4" fill="white">
                        <use xlink:href="#path-3"></use>
                    </mask>
                    <g id="Clip-9"></g>
                    <path d="M7.87983797,2.06282516 C4.64140759,2.06282516 2.00639494,4.68108931 2.00639494,7.8995044 C2.00639494,11.1175673 4.64140759,13.7358314 7.87983797,13.7358314 C11.1182684,13.7358314 13.753281,11.1175673 13.753281,7.8995044 C13.753281,4.68108931 11.1182684,2.06282516 7.87983797,2.06282516 M7.87983797,15.6729384 C3.56642025,15.6729384 0.0570278481,12.1856176 0.0570278481,7.8995044 C0.0570278481,3.61303899 3.56642025,0.125718239 7.87983797,0.125718239 C12.1932557,0.125718239 15.7026481,3.61303899 15.7026481,7.8995044 C15.7026481,12.1856176 12.1932557,15.6729384 7.87983797,15.6729384" id="Fill-8" fill="#4A4A4A" mask="url(#mask-4)"></path>
                </g>
                <g id="Group-13" transform="translate(3.721519, 0.000000)">
                    <mask id="mask-6" fill="white">
                        <use xlink:href="#path-5"></use>
                    </mask>
                    <g id="Clip-12"></g>
                    <path d="M7.20057215,19.102956 C7.02140759,19.102956 6.84047089,19.054 6.67814177,18.9515094 C5.23100253,18.0361384 2.5706481,17.9517862 1.66826835,17.9982767 C0.819762025,18.0305031 0.119053165,17.3470566 0.119053165,16.5093459 L0.119053165,1.64310692 C0.119053165,0.852415094 0.741964557,0.203660377 1.52578734,0.155937107 C2.13487595,0.0691194969 6.21171139,-0.378176101 10.1460658,2.55372327 C10.5768759,2.87493082 10.6640658,3.48194969 10.3411797,3.90987421 C10.017762,4.33762264 9.40690127,4.42426415 8.97644557,4.10358491 C6.0612557,1.93085535 3.00500253,1.9727673 2.06842025,2.04620126 L2.06842025,16.0528931 L2.09181266,16.0528931 C3.2251038,16.0528931 5.92887595,16.1814465 7.72477468,17.3169434 C8.17897722,17.6041635 8.31259747,18.2029057 8.02391392,18.6542516 C7.83801519,18.9442893 7.52257215,19.102956 7.20057215,19.102956" id="Fill-11" fill="#4A4A4A" mask="url(#mask-6)"></path>
                </g>
                <path d="M22.0279899,11.475439 C21.4897873,11.475439 21.0533063,11.0417031 21.0533063,10.5068855 L21.0533063,2.04560252 C20.3279646,1.98766541 18.312319,1.94557736 16.0903949,2.95340126 C15.601281,3.17546415 15.0224962,2.96132579 14.7990278,2.47475975 C14.5753823,1.98801761 14.7912304,1.41340126 15.2808759,1.19151447 C18.377357,-0.213416352 21.1089519,0.0871874214 21.5950532,0.156042767 C22.3792304,0.203237736 23.0026734,0.852168553 23.0026734,1.64303648 L23.0026734,10.5068855 C23.0026734,11.0417031 22.5661924,11.475439 22.0279899,11.475439" id="Fill-14" fill="#4A4A4A"></path>
            </g>
            <g id="Group-19" transform="translate(18.000000, 16.000000)">
                <mask id="mask-8" fill="white">
                    <use xlink:href="#path-7"></use>
                </mask>
                <g id="Clip-18"></g>
                <polygon id="Fill-17" fill="#4A4A4A" mask="url(#mask-8)" points="-3.21616667 9.5990625 7.3435 9.5990625 7.3435 -3.732 -3.21616667 -3.732"></polygon>
            </g>
            <path d="M21,23.5 C21,23.2238333 20.7761667,23 20.5,23 C20.2238333,23 20,23.2238333 20,23.5 C20,23.7761667 20.2238333,24 20.5,24 C20.7761667,24 21,23.7761667 21,23.5" id="Fill-20" fill="#4A4A4A"></path>
        </g>
    </g>
</svg>